<?xml version="1.0" encoding="UTF-8" standalone="no"?>
<!-- Created with Inkscape (http://www.inkscape.org/) -->

<svg
   xmlns:dc="http://purl.org/dc/elements/1.1/"
   xmlns:cc="http://creativecommons.org/ns#"
   xmlns:rdf="http://www.w3.org/1999/02/22-rdf-syntax-ns#"
   xmlns:svg="http://www.w3.org/2000/svg"
   xmlns="http://www.w3.org/2000/svg"
   xmlns:sodipodi="http://sodipodi.sourceforge.net/DTD/sodipodi-0.dtd"
   xmlns:inkscape="http://www.inkscape.org/namespaces/inkscape"
   width="744.09448819"
   height="1052.3622047"
   id="svg2"
   version="1.1"
   inkscape:version="0.48.3.1 r9886"
   sodipodi:docname="New document 1">
  <defs
     id="defs4" />
  <sodipodi:namedview
     id="base"
     pagecolor="#ffffff"
     bordercolor="#666666"
     borderopacity="1.0"
     inkscape:pageopacity="0.0"
     inkscape:pageshadow="2"
     inkscape:zoom="0.49497475"
     inkscape:cx="-224.36051"
     inkscape:cy="614.91565"
     inkscape:document-units="px"
     inkscape:current-layer="layer1"
     showgrid="true"
     inkscape:window-width="1680"
     inkscape:window-height="1026"
     inkscape:window-x="0"
     inkscape:window-y="24"
     inkscape:window-maximized="1">
    <inkscape:grid
       type="xygrid"
       id="grid2985" />
  </sodipodi:namedview>
  <metadata
     id="metadata7">
    <rdf:RDF>
      <cc:Work
         rdf:about="">
        <dc:format>image/svg+xml</dc:format>
        <dc:type
           rdf:resource="http://purl.org/dc/dcmitype/StillImage" />
        <dc:title></dc:title>
      </cc:Work>
    </rdf:RDF>
  </metadata>
  <g
     inkscape:label="Layer 1"
     inkscape:groupmode="layer"
     id="layer1">
    <path
       sodipodi:type="arc"
       style="fill:#000000;fill-opacity:1;stroke:#000000;stroke-width:3;stroke-miterlimit:4;stroke-opacity:1;stroke-dasharray:none;stroke-dashoffset:0"
       id="path2990"
       sodipodi:cx="-780"
       sodipodi:cy="472.36218"
       sodipodi:rx="20"
       sodipodi:ry="20"
       d="m -760,472.36218 a 20,20 0 1 1 -40,0 20,20 0 1 1 40,0 z"
       transform="matrix(0.6,0,0,0.6,-644,308.94487)" />
    <path
       transform="matrix(0.6,0,0,0.6,-154,-291.05513)"
       d="m -760,472.36218 a 20,20 0 1 1 -40,0 20,20 0 1 1 40,0 z"
       sodipodi:ry="20"
       sodipodi:rx="20"
       sodipodi:cy="472.36218"
       sodipodi:cx="-780"
       id="path3760"
       style="fill:#000000;fill-opacity:1;stroke:#000000;stroke-width:3;stroke-miterlimit:4;stroke-opacity:1;stroke-dasharray:none;stroke-dashoffset:0"
       sodipodi:type="arc" />
    <path
       style="fill:none;stroke:#000000;stroke-width:3;stroke-linecap:butt;stroke-linejoin:miter;stroke-miterlimit:4;stroke-opacity:1;stroke-dasharray:none"
       d="m -1120,592.36218 c 0,0 163.78758,-58.2105 220,-120 34.16618,-37.55596 55.94478,-89.39039 60,-140 4.39091,-54.79911 -65.55785,-111.32743 -40,-160 26.48081,-50.43026 113.55604,-27.0242 160,-60 42.45538,-30.143857 100,-119.9999944 100,-119.9999944"
       id="path3762"
       inkscape:connector-curvature="0"
       sodipodi:nodetypes="caaaac" />
    <text
       xml:space="preserve"
       style="font-size:72px;font-style:normal;font-weight:normal;line-height:125%;letter-spacing:0px;word-spacing:0px;fill:#000000;fill-opacity:1;stroke:none;font-family:Sans"
       x="-1200"
       y="592.36218"
       id="text3764"
       sodipodi:linespacing="125%"><tspan
         sodipodi:role="line"
         id="tspan3766"
         x="-1200"
         y="592.36218">A</tspan></text>
    <text
       xml:space="preserve"
       style="font-size:72px;font-style:normal;font-weight:normal;line-height:125%;letter-spacing:0px;word-spacing:0px;fill:#000000;fill-opacity:1;stroke:none;font-family:Sans"
       x="-700"
       y="12.362185"
       id="text3768"
       sodipodi:linespacing="125%"><tspan
         sodipodi:role="line"
         id="tspan3770"
         x="-700"
         y="12.362185">B</tspan></text>
    <path
       transform="matrix(0.6,0,0,0.6,-644,308.94487)"
       d="m -760,472.36218 a 20,20 0 1 1 -40,0 20,20 0 1 1 40,0 z"
       sodipodi:ry="20"
       sodipodi:rx="20"
       sodipodi:cy="472.36218"
       sodipodi:cx="-780"
       id="path3789"
       style="fill:#000000;fill-opacity:1;stroke:#000000;stroke-width:3;stroke-miterlimit:4;stroke-opacity:1;stroke-dasharray:none;stroke-dashoffset:0"
       sodipodi:type="arc" />
    <path
       sodipodi:type="arc"
       style="fill:#000000;fill-opacity:1;stroke:#000000;stroke-width:3;stroke-miterlimit:4;stroke-opacity:1;stroke-dasharray:none;stroke-dashoffset:0"
       id="path3791"
       sodipodi:cx="-780"
       sodipodi:cy="472.36218"
       sodipodi:rx="20"
       sodipodi:ry="20"
       d="m -760,472.36218 a 20,20 0 1 1 -40,0 20,20 0 1 1 40,0 z"
       transform="matrix(0.6,0,0,0.6,-154,-291.05513)" />
    <path
       sodipodi:nodetypes="caaaac"
       inkscape:connector-curvature="0"
       id="path3793"
       d="m -1120,592.36218 c 0,0 163.78758,-58.2105 220,-120 34.16618,-37.55596 55.94478,-89.39039 60,-140 4.39091,-54.79911 -65.55785,-111.32743 -40,-160 26.48081,-50.43026 113.55604,-27.0242 160,-60 42.45538,-30.143857 100,-119.9999944 100,-119.9999944"
       style="fill:none;stroke:#000000;stroke-width:3;stroke-linecap:butt;stroke-linejoin:miter;stroke-miterlimit:4;stroke-opacity:1;stroke-dasharray:none" />
    <text
       sodipodi:linespacing="125%"
       id="text3795"
       y="592.36218"
       x="-1200"
       style="font-size:72px;font-style:normal;font-weight:normal;line-height:125%;letter-spacing:0px;word-spacing:0px;fill:#000000;fill-opacity:1;stroke:none;font-family:Sans"
       xml:space="preserve"><tspan
         y="592.36218"
         x="-1200"
         id="tspan3797"
         sodipodi:role="line">A</tspan></text>
    <text
       sodipodi:linespacing="125%"
       id="text3799"
       y="12.362185"
       x="-700"
       style="font-size:72px;font-style:normal;font-weight:normal;line-height:125%;letter-spacing:0px;word-spacing:0px;fill:#000000;fill-opacity:1;stroke:none;font-family:Sans"
       xml:space="preserve"><tspan
         y="12.362185"
         x="-700"
         id="tspan3801"
         sodipodi:role="line">B</tspan></text>
    <path
       transform="matrix(0.6,0,0,0.6,-644,308.94487)"
       d="m -760,472.36218 a 20,20 0 1 1 -40,0 20,20 0 1 1 40,0 z"
       sodipodi:ry="20"
       sodipodi:rx="20"
       sodipodi:cy="472.36218"
       sodipodi:cx="-780"
       id="path3803"
       style="fill:#000000;fill-opacity:1;stroke:#000000;stroke-width:3;stroke-miterlimit:4;stroke-opacity:1;stroke-dasharray:none;stroke-dashoffset:0"
       sodipodi:type="arc" />
    <path
       sodipodi:type="arc"
       style="fill:#000000;fill-opacity:1;stroke:#000000;stroke-width:3;stroke-miterlimit:4;stroke-opacity:1;stroke-dasharray:none;stroke-dashoffset:0"
       id="path3805"
       sodipodi:cx="-780"
       sodipodi:cy="472.36218"
       sodipodi:rx="20"
       sodipodi:ry="20"
       d="m -760,472.36218 a 20,20 0 1 1 -40,0 20,20 0 1 1 40,0 z"
       transform="matrix(0.6,0,0,0.6,-154,-291.05513)" />
    <path
       sodipodi:nodetypes="caaaac"
       inkscape:connector-curvature="0"
       id="path3807"
       d="m -1120,592.36218 c 0,0 163.78758,-58.2105 220,-120 34.16618,-37.55596 55.94478,-89.39039 60,-140 4.39091,-54.79911 -65.55785,-111.32743 -40,-160 26.48081,-50.43026 113.55604,-27.0242 160,-60 42.45538,-30.143857 100,-119.9999944 100,-119.9999944"
       style="fill:none;stroke:#000000;stroke-width:3;stroke-linecap:butt;stroke-linejoin:miter;stroke-miterlimit:4;stroke-opacity:1;stroke-dasharray:none" />
    <text
       sodipodi:linespacing="125%"
       id="text3809"
       y="592.36218"
       x="-1200"
       style="font-size:72px;font-style:normal;font-weight:normal;line-height:125%;letter-spacing:0px;word-spacing:0px;fill:#000000;fill-opacity:1;stroke:none;font-family:Sans"
       xml:space="preserve"><tspan
         y="592.36218"
         x="-1200"
         id="tspan3811"
         sodipodi:role="line">A</tspan></text>
    <text
       sodipodi:linespacing="125%"
       id="text3813"
       y="12.362185"
       x="-700"
       style="font-size:72px;font-style:normal;font-weight:normal;line-height:125%;letter-spacing:0px;word-spacing:0px;fill:#000000;fill-opacity:1;stroke:none;font-family:Sans"
       xml:space="preserve"><tspan
         y="12.362185"
         x="-700"
         id="tspan3815"
         sodipodi:role="line">B</tspan></text>
    <path
       sodipodi:type="arc"
       style="fill:#000000;fill-opacity:1;stroke:#000000;stroke-width:3;stroke-miterlimit:4;stroke-opacity:1;stroke-dasharray:none;stroke-dashoffset:0"
       id="path3817"
       sodipodi:cx="-780"
       sodipodi:cy="472.36218"
       sodipodi:rx="20"
       sodipodi:ry="20"
       d="m -760,472.36218 a 20,20 0 1 1 -40,0 20,20 0 1 1 40,0 z"
       transform="matrix(0.6,0,0,0.6,-644,308.94487)" />
    <path
       transform="matrix(0.6,0,0,0.6,-154,-291.05513)"
       d="m -760,472.36218 a 20,20 0 1 1 -40,0 20,20 0 1 1 40,0 z"
       sodipodi:ry="20"
       sodipodi:rx="20"
       sodipodi:cy="472.36218"
       sodipodi:cx="-780"
       id="path3819"
       style="fill:#000000;fill-opacity:1;stroke:#000000;stroke-width:3;stroke-miterlimit:4;stroke-opacity:1;stroke-dasharray:none;stroke-dashoffset:0"
       sodipodi:type="arc" />
    <path
       style="fill:none;stroke:#000000;stroke-width:3;stroke-linecap:butt;stroke-linejoin:miter;stroke-miterlimit:4;stroke-opacity:1;stroke-dasharray:none"
       d="m -1120,592.36218 c 0,0 163.78758,-58.2105 220,-120 34.16618,-37.55596 55.94478,-89.39039 60,-140 4.39091,-54.79911 -65.55785,-111.32743 -40,-160 26.48081,-50.43026 113.55604,-27.0242 160,-60 42.45538,-30.143857 100,-119.9999944 100,-119.9999944"
       id="path3821"
       inkscape:connector-curvature="0"
       sodipodi:nodetypes="caaaac" />
    <text
       xml:space="preserve"
       style="font-size:72px;font-style:normal;font-weight:normal;line-height:125%;letter-spacing:0px;word-spacing:0px;fill:#000000;fill-opacity:1;stroke:none;font-family:Sans"
       x="-1200"
       y="592.36218"
       id="text3823"
       sodipodi:linespacing="125%"><tspan
         sodipodi:role="line"
         id="tspan3825"
         x="-1200"
         y="592.36218">A</tspan></text>
    <text
       xml:space="preserve"
       style="font-size:72px;font-style:normal;font-weight:normal;line-height:125%;letter-spacing:0px;word-spacing:0px;fill:#000000;fill-opacity:1;stroke:none;font-family:Sans"
       x="-700"
       y="12.362185"
       id="text3827"
       sodipodi:linespacing="125%"><tspan
         sodipodi:role="line"
         id="tspan3829"
         x="-700"
         y="12.362185">B</tspan></text>
    <path
       transform="matrix(0.6,0,0,0.6,-44,308.94487)"
       d="m -760,472.36218 a 20,20 0 1 1 -40,0 20,20 0 1 1 40,0 z"
       sodipodi:ry="20"
       sodipodi:rx="20"
       sodipodi:cy="472.36218"
       sodipodi:cx="-780"
       id="path3831"
       style="fill:#000000;fill-opacity:1;stroke:#000000;stroke-width:3;stroke-miterlimit:4;stroke-opacity:1;stroke-dasharray:none;stroke-dashoffset:0"
       sodipodi:type="arc" />
    <path
       sodipodi:type="arc"
       style="fill:#000000;fill-opacity:1;stroke:#000000;stroke-width:3;stroke-miterlimit:4;stroke-opacity:1;stroke-dasharray:none;stroke-dashoffset:0"
       id="path3833"
       sodipodi:cx="-780"
       sodipodi:cy="472.36218"
       sodipodi:rx="20"
       sodipodi:ry="20"
       d="m -760,472.36218 a 20,20 0 1 1 -40,0 20,20 0 1 1 40,0 z"
       transform="matrix(0.6,0,0,0.6,446,-291.05513)" />
    <text
       sodipodi:linespacing="125%"
       id="text3837"
       y="592.36218"
       x="-600"
       style="font-size:72px;font-style:normal;font-weight:normal;line-height:125%;letter-spacing:0px;word-spacing:0px;fill:#000000;fill-opacity:1;stroke:none;font-family:Sans"
       xml:space="preserve"><tspan
         y="592.36218"
         x="-600"
         id="tspan3839"
         sodipodi:role="line">A</tspan></text>
    <text
       sodipodi:linespacing="125%"
       id="text3841"
       y="12.362187"
       x="-100"
       style="font-size:72px;font-style:normal;font-weight:normal;line-height:125%;letter-spacing:0px;word-spacing:0px;fill:#000000;fill-opacity:1;stroke:none;font-family:Sans"
       xml:space="preserve"><tspan
         y="12.362187"
         x="-100"
         id="tspan3843"
         sodipodi:role="line">B</tspan></text>
    <path
       sodipodi:type="arc"
       style="fill:#000000;fill-opacity:1;stroke:#000000;stroke-width:3;stroke-miterlimit:4;stroke-opacity:1;stroke-dasharray:none;stroke-dashoffset:0"
       id="path3845"
       sodipodi:cx="-780"
       sodipodi:cy="472.36218"
       sodipodi:rx="20"
       sodipodi:ry="20"
       d="m -760,472.36218 a 20,20 0 1 1 -40,0 20,20 0 1 1 40,0 z"
       transform="matrix(0.6,0,0,0.6,-44,308.94487)" />
    <path
       transform="matrix(0.6,0,0,0.6,446,-291.05513)"
       d="m -760,472.36218 a 20,20 0 1 1 -40,0 20,20 0 1 1 40,0 z"
       sodipodi:ry="20"
       sodipodi:rx="20"
       sodipodi:cy="472.36218"
       sodipodi:cx="-780"
       id="path3847"
       style="fill:#000000;fill-opacity:1;stroke:#000000;stroke-width:3;stroke-miterlimit:4;stroke-opacity:1;stroke-dasharray:none;stroke-dashoffset:0"
       sodipodi:type="arc" />
    <text
       xml:space="preserve"
       style="font-size:72px;font-style:normal;font-weight:normal;line-height:125%;letter-spacing:0px;word-spacing:0px;fill:#000000;fill-opacity:1;stroke:none;font-family:Sans"
       x="-600"
       y="592.36218"
       id="text3851"
       sodipodi:linespacing="125%"><tspan
         sodipodi:role="line"
         id="tspan3853"
         x="-600"
         y="592.36218">A</tspan></text>
    <text
       xml:space="preserve"
       style="font-size:72px;font-style:normal;font-weight:normal;line-height:125%;letter-spacing:0px;word-spacing:0px;fill:#000000;fill-opacity:1;stroke:none;font-family:Sans"
       x="-100"
       y="12.362187"
       id="text3855"
       sodipodi:linespacing="125%"><tspan
         sodipodi:role="line"
         id="tspan3857"
         x="-100"
         y="12.362187">B</tspan></text>
    <path
       sodipodi:type="arc"
       style="fill:#000000;fill-opacity:1;stroke:#000000;stroke-width:3;stroke-miterlimit:4;stroke-opacity:1;stroke-dasharray:none;stroke-dashoffset:0"
       id="path3859"
       sodipodi:cx="-780"
       sodipodi:cy="472.36218"
       sodipodi:rx="20"
       sodipodi:ry="20"
       d="m -760,472.36218 a 20,20 0 1 1 -40,0 20,20 0 1 1 40,0 z"
       transform="matrix(0.6,0,0,0.6,-44,308.94487)" />
    <path
       transform="matrix(0.6,0,0,0.6,446,-291.05513)"
       d="m -760,472.36218 a 20,20 0 1 1 -40,0 20,20 0 1 1 40,0 z"
       sodipodi:ry="20"
       sodipodi:rx="20"
       sodipodi:cy="472.36218"
       sodipodi:cx="-780"
       id="path3861"
       style="fill:#000000;fill-opacity:1;stroke:#000000;stroke-width:3;stroke-miterlimit:4;stroke-opacity:1;stroke-dasharray:none;stroke-dashoffset:0"
       sodipodi:type="arc" />
    <text
       xml:space="preserve"
       style="font-size:72px;font-style:normal;font-weight:normal;line-height:125%;letter-spacing:0px;word-spacing:0px;fill:#000000;fill-opacity:1;stroke:none;font-family:Sans"
       x="-600"
       y="592.36218"
       id="text3865"
       sodipodi:linespacing="125%"><tspan
         sodipodi:role="line"
         id="tspan3867"
         x="-600"
         y="592.36218">A</tspan></text>
    <text
       xml:space="preserve"
       style="font-size:72px;font-style:normal;font-weight:normal;line-height:125%;letter-spacing:0px;word-spacing:0px;fill:#000000;fill-opacity:1;stroke:none;font-family:Sans"
       x="-100"
       y="12.362187"
       id="text3869"
       sodipodi:linespacing="125%"><tspan
         sodipodi:role="line"
         id="tspan3871"
         x="-100"
         y="12.362187">B</tspan></text>
    <path
       transform="matrix(0.6,0,0,0.6,-44,308.94487)"
       d="m -760,472.36218 a 20,20 0 1 1 -40,0 20,20 0 1 1 40,0 z"
       sodipodi:ry="20"
       sodipodi:rx="20"
       sodipodi:cy="472.36218"
       sodipodi:cx="-780"
       id="path3873"
       style="fill:#000000;fill-opacity:1;stroke:#000000;stroke-width:3;stroke-miterlimit:4;stroke-opacity:1;stroke-dasharray:none;stroke-dashoffset:0"
       sodipodi:type="arc" />
    <path
       sodipodi:type="arc"
       style="fill:#000000;fill-opacity:1;stroke:#000000;stroke-width:3;stroke-miterlimit:4;stroke-opacity:1;stroke-dasharray:none;stroke-dashoffset:0"
       id="path3875"
       sodipodi:cx="-780"
       sodipodi:cy="472.36218"
       sodipodi:rx="20"
       sodipodi:ry="20"
       d="m -760,472.36218 a 20,20 0 1 1 -40,0 20,20 0 1 1 40,0 z"
       transform="matrix(0.6,0,0,0.6,446,-291.05513)" />
    <text
       sodipodi:linespacing="125%"
       id="text3879"
       y="592.36218"
       x="-600"
       style="font-size:72px;font-style:normal;font-weight:normal;line-height:125%;letter-spacing:0px;word-spacing:0px;fill:#000000;fill-opacity:1;stroke:none;font-family:Sans"
       xml:space="preserve"><tspan
         y="592.36218"
         x="-600"
         id="tspan3881"
         sodipodi:role="line">A</tspan></text>
    <text
       sodipodi:linespacing="125%"
       id="text3883"
       y="12.362187"
       x="-100"
       style="font-size:72px;font-style:normal;font-weight:normal;line-height:125%;letter-spacing:0px;word-spacing:0px;fill:#000000;fill-opacity:1;stroke:none;font-family:Sans"
       xml:space="preserve"><tspan
         y="12.362187"
         x="-100"
         id="tspan3885"
         sodipodi:role="line">B</tspan></text>
    <path
       style="fill:none;stroke:#000000;stroke-width:3;stroke-linecap:butt;stroke-linejoin:miter;stroke-opacity:1;stroke-miterlimit:4;stroke-dasharray:none"
       d="M -500,592.36218 -20,-7.6378174"
       id="path3931"
       inkscape:connector-curvature="0" />
  </g>
</svg>
