<?xml version="1.0" encoding="UTF-8" standalone="no"?>
<!-- Created with Inkscape (http://www.inkscape.org/) -->

<svg
   xmlns:ns0="http://www.iki.fi/pav/software/textext/"
   xmlns:dc="http://purl.org/dc/elements/1.1/"
   xmlns:cc="http://creativecommons.org/ns#"
   xmlns:rdf="http://www.w3.org/1999/02/22-rdf-syntax-ns#"
   xmlns:svg="http://www.w3.org/2000/svg"
   xmlns="http://www.w3.org/2000/svg"
   xmlns:xlink="http://www.w3.org/1999/xlink"
   xmlns:sodipodi="http://sodipodi.sourceforge.net/DTD/sodipodi-0.dtd"
   xmlns:inkscape="http://www.inkscape.org/namespaces/inkscape"
   width="744.09448819"
   height="1052.3622047"
   id="svg2"
   version="1.1"
   inkscape:version="0.48.4 r9939"
   sodipodi:docname="neighborhoods.svg"
   inkscape:export-filename="/home/francois/Documents/Courses/VisionAndImageProcessing/lectures/Francois/FIGURES/neighborhoods.png"
   inkscape:export-xdpi="90"
   inkscape:export-ydpi="90">
  <sodipodi:namedview
     id="base"
     pagecolor="#ffffff"
     bordercolor="#ffffff"
     borderopacity="0.0"
     inkscape:pageopacity="0.0"
     inkscape:pageshadow="0"
     inkscape:zoom="0.38183766"
     inkscape:cx="-262.44849"
     inkscape:cy="1196.6751"
     inkscape:document-units="px"
     inkscape:current-layer="layer1"
     showgrid="false"
     inkscape:window-width="1680"
     inkscape:window-height="1032"
     inkscape:window-x="0"
     inkscape:window-y="18"
     inkscape:window-maximized="1">
    <inkscape:grid
       id="grid3800"
       type="xygrid" />
  </sodipodi:namedview>
  <defs
     id="defs4" />
  <metadata
     id="metadata7">
    <rdf:RDF>
      <cc:Work
         rdf:about="">
        <dc:format>image/svg+xml</dc:format>
        <dc:type
           rdf:resource="http://purl.org/dc/dcmitype/StillImage" />
        <dc:title></dc:title>
      </cc:Work>
    </rdf:RDF>
  </metadata>
  <g
     id="layer1"
     inkscape:groupmode="layer"
     inkscape:label="Layer 1">
    <rect
       y="-287.63782"
       x="-1225.7142"
       height="440"
       width="440"
       id="rect2991"
       style="opacity:0.73853215000000005;fill:#e29417;fill-opacity:1;stroke:#000000;stroke-opacity:1;stroke-width:2;stroke-miterlimit:4;stroke-dasharray:none" />
    <rect
       style="opacity:0.73853215000000005;fill:#78fe17;fill-opacity:1;stroke:#000000;stroke-width:2;stroke-miterlimit:4;stroke-opacity:1;stroke-dasharray:none"
       id="rect3774"
       width="440"
       height="440"
       x="-1225.7142"
       y="152.36218" />
    <rect
       y="-287.63782"
       x="-785.71417"
       height="440"
       width="440"
       id="rect3776"
       style="opacity:0.73853215;fill:#78fe17;fill-opacity:1;stroke:#000000;stroke-width:2;stroke-miterlimit:4;stroke-opacity:1;stroke-dasharray:none" />
    <rect
       style="opacity:0.73853215;fill:#78fe17;fill-opacity:1;stroke:#000000;stroke-width:2;stroke-miterlimit:4;stroke-opacity:1;stroke-dasharray:none"
       id="rect3778"
       width="440"
       height="440"
       x="-1225.7141"
       y="-727.63782" />
    <rect
       y="-287.63782"
       x="-1665.7141"
       height="440"
       width="440"
       id="rect3780"
       style="opacity:0.73853215;fill:#78fe17;fill-opacity:1;stroke:#000000;stroke-width:2;stroke-miterlimit:4;stroke-opacity:1;stroke-dasharray:none" />
    <text
       sodipodi:linespacing="125%"
       id="text3802"
       y="-801.82892"
       x="-801.3877"
       style="font-size:72px;font-style:normal;font-variant:normal;font-weight:normal;font-stretch:normal;text-align:start;line-height:125%;letter-spacing:0px;word-spacing:0px;writing-mode:lr-tb;text-anchor:start;fill:#000000;fill-opacity:1;stroke:none;font-family:Sans;-inkscape-font-specification:Sans"
       xml:space="preserve"><tspan
         y="-801.82892"
         x="-801.3877"
         id="tspan3804"
         sodipodi:role="line" /></text>
    <text
       sodipodi:linespacing="125%"
       id="text3806"
       y="-558.26996"
       x="-1558.2538"
       style="font-size:72px;font-style:normal;font-variant:normal;font-weight:normal;font-stretch:normal;text-align:start;line-height:125%;letter-spacing:0px;word-spacing:0px;writing-mode:lr-tb;text-anchor:start;fill:#000000;fill-opacity:1;stroke:none;font-family:Sans;-inkscape-font-specification:Sans"
       xml:space="preserve"><tspan
         style="font-style:italic"
         y="-558.26996"
         x="-1558.2538"
         id="tspan3808"
         sodipodi:role="line" /></text>
    <g
       id="g3834"
       ns0:preamble="/home/francois/Documents/Mypapers/InkscapeHeader/header.inc"
       ns0:text="$P_W$"
       transform="matrix(13.664847,0,0,16.921153,-4612.3096,-2306.5262)">
      <defs
         id="defs3836">
        <g
           id="g3838">
          <symbol
             id="textext-f0c80a81-0"
             overflow="visible"
             style="overflow:visible">
            <path
               id="path3841"
               d=""
               style="stroke:none"
               inkscape:connector-curvature="0" />
          </symbol>
          <symbol
             id="textext-f0c80a81-1"
             overflow="visible"
             style="overflow:visible">
            <path
               id="path3844"
               d="m 3.015625,-3.15625 1.703125,0 c 1.40625,0 2.796875,-1.03125 2.796875,-2.140625 0,-0.78125 -0.65625,-1.515625 -1.96875,-1.515625 l -3.21875,0 c -0.1875,0 -0.296875,0 -0.296875,0.1875 0,0.125 0.078125,0.125 0.28125,0.125 0.125,0 0.3125,0.015625 0.421875,0.015625 0.171875,0.03125 0.21875,0.046875 0.21875,0.171875 0,0.03125 0,0.0625 -0.03125,0.1875 l -1.34375,5.34375 c -0.09375,0.390625 -0.109375,0.46875 -0.90625,0.46875 -0.15625,0 -0.265625,0 -0.265625,0.1875 C 0.40625,0 0.515625,0 0.546875,0 0.828125,0 1.53125,-0.03125 1.8125,-0.03125 c 0.21875,0 0.4375,0.015625 0.640625,0.015625 0.21875,0 0.4375,0.015625 0.640625,0.015625 0.078125,0 0.203125,0 0.203125,-0.203125 0,-0.109375 -0.09375,-0.109375 -0.28125,-0.109375 -0.359375,0 -0.640625,0 -0.640625,-0.171875 0,-0.0625 0.015625,-0.109375 0.03125,-0.171875 z M 3.734375,-6.125 C 3.828125,-6.46875 3.84375,-6.5 4.28125,-6.5 l 0.953125,0 c 0.828125,0 1.359375,0.265625 1.359375,0.953125 0,0.390625 -0.203125,1.25 -0.59375,1.609375 -0.5,0.453125 -1.09375,0.53125 -1.53125,0.53125 l -1.40625,0 z m 0,0"
               style="stroke:none"
               inkscape:connector-curvature="0" />
          </symbol>
          <symbol
             id="textext-f0c80a81-2"
             overflow="visible"
             style="overflow:visible">
            <path
               id="path3847"
               d=""
               style="stroke:none"
               inkscape:connector-curvature="0" />
          </symbol>
          <symbol
             id="textext-f0c80a81-3"
             overflow="visible"
             style="overflow:visible">
            <path
               id="path3850"
               d="m 7.21875,-3.9375 0.125,-0.1875 C 7.484375,-4.3125 7.65625,-4.484375 8,-4.515625 c 0.078125,0 0.15625,0 0.15625,-0.140625 0,-0.046875 -0.03125,-0.109375 -0.09375,-0.109375 -0.15625,0 -0.359375,0.03125 -0.53125,0.03125 -0.234375,0 -0.546875,-0.03125 -0.765625,-0.03125 -0.046875,0 -0.15625,0 -0.15625,0.15625 0,0.09375 0.09375,0.09375 0.125,0.09375 0.15625,0.015625 0.390625,0.0625 0.390625,0.25 0,0.078125 -0.078125,0.203125 -0.109375,0.25 l -1.96875,3.234375 -0.375,-3.53125 c 0,-0.1875 0.40625,-0.203125 0.484375,-0.203125 0.09375,0 0.1875,0 0.1875,-0.140625 0,-0.015625 0,-0.109375 -0.125,-0.109375 -0.125,0 -0.296875,0.015625 -0.421875,0.03125 -0.140625,0 -0.328125,0 -0.46875,0 -0.15625,0 -0.5625,-0.03125 -0.71875,-0.03125 -0.046875,0 -0.140625,0 -0.140625,0.15625 0,0.09375 0.078125,0.09375 0.171875,0.09375 0.296875,0 0.34375,0.0625 0.359375,0.125 0,0.046875 0.015625,0.234375 0.046875,0.453125 L 2.125,-0.78125 1.765625,-4.203125 C 1.765625,-4.234375 1.75,-4.296875 1.75,-4.3125 c 0,-0.203125 0.4375,-0.203125 0.484375,-0.203125 0.09375,0 0.1875,0 0.1875,-0.140625 0,-0.03125 -0.015625,-0.109375 -0.109375,-0.109375 -0.203125,0 -0.703125,0.03125 -0.890625,0.03125 -0.234375,0 -0.53125,-0.03125 -0.734375,-0.03125 -0.078125,0 -0.140625,0.03125 -0.140625,0.15625 0,0.09375 0.078125,0.09375 0.1875,0.09375 0.328125,0 0.328125,0.046875 0.359375,0.21875 l 0.453125,4.25 c 0.015625,0.140625 0.03125,0.1875 0.15625,0.1875 C 1.8125,0.140625 1.875,0.078125 1.90625,0 l 2.171875,-3.578125 0.390625,3.53125 c 0.015625,0.15625 0.046875,0.1875 0.15625,0.1875 0.109375,0 0.15625,-0.0625 0.203125,-0.140625 z m 0,0"
               style="stroke:none"
               inkscape:connector-curvature="0" />
          </symbol>
        </g>
      </defs>
      <g
         id="textext-f0c80a81-4">
        <g
           id="g3853"
           style="fill:#000000;fill-opacity:1">
          <use
             id="use3855"
             y="134.765"
             x="223.43201"
             xlink:href="#textext-f0c80a81-1"
             width="744.09448"
             height="1052.3622" />
        </g>
        <g
           id="g3857"
           style="fill:#000000;fill-opacity:1">
          <use
             id="use3859"
             y="136.259"
             x="229.828"
             xlink:href="#textext-f0c80a81-3"
             width="744.09448"
             height="1052.3622" />
        </g>
      </g>
    </g>
    <g
       ns0:text="$P_N$"
       ns0:preamble="/home/francois/Documents/Mypapers/InkscapeHeader/header.inc"
       transform="matrix(13.664847,0,0,16.921153,-4143.524,-2743.8848)"
       id="g3971">
      <defs
         id="defs3973">
        <g
           id="g3975">
          <symbol
             style="overflow:visible"
             overflow="visible"
             id="textext-6c57e648-0">
            <path
               inkscape:connector-curvature="0"
               style="stroke:none"
               d=""
               id="path3978" />
          </symbol>
          <symbol
             style="overflow:visible"
             overflow="visible"
             id="textext-6c57e648-1">
            <path
               inkscape:connector-curvature="0"
               style="stroke:none"
               d="m 3.015625,-3.15625 1.703125,0 c 1.40625,0 2.796875,-1.03125 2.796875,-2.140625 0,-0.78125 -0.65625,-1.515625 -1.96875,-1.515625 l -3.21875,0 c -0.1875,0 -0.296875,0 -0.296875,0.1875 0,0.125 0.078125,0.125 0.28125,0.125 0.125,0 0.3125,0.015625 0.421875,0.015625 0.171875,0.03125 0.21875,0.046875 0.21875,0.171875 0,0.03125 0,0.0625 -0.03125,0.1875 l -1.34375,5.34375 c -0.09375,0.390625 -0.109375,0.46875 -0.90625,0.46875 -0.15625,0 -0.265625,0 -0.265625,0.1875 C 0.40625,0 0.515625,0 0.546875,0 0.828125,0 1.53125,-0.03125 1.8125,-0.03125 c 0.21875,0 0.4375,0.015625 0.640625,0.015625 0.21875,0 0.4375,0.015625 0.640625,0.015625 0.078125,0 0.203125,0 0.203125,-0.203125 0,-0.109375 -0.09375,-0.109375 -0.28125,-0.109375 -0.359375,0 -0.640625,0 -0.640625,-0.171875 0,-0.0625 0.015625,-0.109375 0.03125,-0.171875 z M 3.734375,-6.125 C 3.828125,-6.46875 3.84375,-6.5 4.28125,-6.5 l 0.953125,0 c 0.828125,0 1.359375,0.265625 1.359375,0.953125 0,0.390625 -0.203125,1.25 -0.59375,1.609375 -0.5,0.453125 -1.09375,0.53125 -1.53125,0.53125 l -1.40625,0 z m 0,0"
               id="path3981" />
          </symbol>
          <symbol
             style="overflow:visible"
             overflow="visible"
             id="textext-6c57e648-2">
            <path
               inkscape:connector-curvature="0"
               style="stroke:none"
               d=""
               id="path3984" />
          </symbol>
          <symbol
             style="overflow:visible"
             overflow="visible"
             id="textext-6c57e648-3">
            <path
               inkscape:connector-curvature="0"
               style="stroke:none"
               d="M 5.8125,-4 C 5.875,-4.265625 6,-4.5 6.546875,-4.515625 c 0.03125,0 0.140625,0 0.140625,-0.140625 0,-0.046875 -0.03125,-0.109375 -0.109375,-0.109375 -0.21875,0 -0.484375,0.03125 -0.71875,0.03125 -0.171875,0 -0.5625,-0.03125 -0.734375,-0.03125 -0.03125,0 -0.140625,0 -0.140625,0.15625 0,0.09375 0.09375,0.09375 0.15625,0.09375 0.328125,0.015625 0.4375,0.125 0.4375,0.296875 0,0.046875 0,0.09375 -0.03125,0.15625 l -0.75,3.046875 -1.765625,-3.625 c -0.0625,-0.125 -0.078125,-0.125 -0.25,-0.125 l -0.953125,0 c -0.125,0 -0.21875,0 -0.21875,0.15625 0,0.09375 0.078125,0.09375 0.234375,0.09375 0.140625,0 0.296875,0.015625 0.4375,0.046875 L 1.359375,-0.75 c -0.0625,0.265625 -0.1875,0.484375 -0.734375,0.5 -0.046875,0 -0.140625,0 -0.140625,0.140625 C 0.484375,-0.03125 0.53125,0 0.578125,0 0.8125,0 1.078125,-0.03125 1.3125,-0.03125 1.484375,-0.03125 1.875,0 2.046875,0 2.125,0 2.1875,-0.03125 2.1875,-0.140625 2.1875,-0.25 2.109375,-0.25 2.03125,-0.25 c -0.4375,-0.015625 -0.4375,-0.203125 -0.4375,-0.296875 0,-0.03125 0,-0.0625 0.015625,-0.171875 l 0.90625,-3.5625 2.03125,4.15625 C 4.59375,0 4.625,0 4.703125,0 4.8125,0 4.8125,-0.015625 4.84375,-0.140625 z m 0,0"
               id="path3987" />
          </symbol>
        </g>
      </defs>
      <g
         id="textext-6c57e648-4">
        <g
           style="fill:#000000;fill-opacity:1"
           id="g3990">
          <use
             height="1052.3622"
             width="744.09448"
             xlink:href="#textext-6c57e648-1"
             x="223.43201"
             y="134.765"
             id="use3992" />
        </g>
        <g
           style="fill:#000000;fill-opacity:1"
           id="g3994">
          <use
             height="1052.3622"
             width="744.09448"
             xlink:href="#textext-6c57e648-3"
             x="229.828"
             y="136.259"
             id="use3996" />
        </g>
      </g>
    </g>
    <g
       id="g4140"
       transform="matrix(13.664847,0,0,16.921153,-3724.4977,-2303.9073)"
       ns0:preamble="/home/francois/Documents/Mypapers/InkscapeHeader/header.inc"
       ns0:text="$P_E$">
      <defs
         id="defs4142">
        <g
           id="g4144">
          <symbol
             id="textext-37d725f9-0"
             overflow="visible"
             style="overflow:visible">
            <path
               id="path4147"
               d=""
               style="stroke:none"
               inkscape:connector-curvature="0" />
          </symbol>
          <symbol
             id="textext-37d725f9-1"
             overflow="visible"
             style="overflow:visible">
            <path
               id="path4150"
               d="m 3.015625,-3.15625 1.703125,0 c 1.40625,0 2.796875,-1.03125 2.796875,-2.140625 0,-0.78125 -0.65625,-1.515625 -1.96875,-1.515625 l -3.21875,0 c -0.1875,0 -0.296875,0 -0.296875,0.1875 0,0.125 0.078125,0.125 0.28125,0.125 0.125,0 0.3125,0.015625 0.421875,0.015625 0.171875,0.03125 0.21875,0.046875 0.21875,0.171875 0,0.03125 0,0.0625 -0.03125,0.1875 l -1.34375,5.34375 c -0.09375,0.390625 -0.109375,0.46875 -0.90625,0.46875 -0.15625,0 -0.265625,0 -0.265625,0.1875 C 0.40625,0 0.515625,0 0.546875,0 0.828125,0 1.53125,-0.03125 1.8125,-0.03125 c 0.21875,0 0.4375,0.015625 0.640625,0.015625 0.21875,0 0.4375,0.015625 0.640625,0.015625 0.078125,0 0.203125,0 0.203125,-0.203125 0,-0.109375 -0.09375,-0.109375 -0.28125,-0.109375 -0.359375,0 -0.640625,0 -0.640625,-0.171875 0,-0.0625 0.015625,-0.109375 0.03125,-0.171875 z M 3.734375,-6.125 C 3.828125,-6.46875 3.84375,-6.5 4.28125,-6.5 l 0.953125,0 c 0.828125,0 1.359375,0.265625 1.359375,0.953125 0,0.390625 -0.203125,1.25 -0.59375,1.609375 -0.5,0.453125 -1.09375,0.53125 -1.53125,0.53125 l -1.40625,0 z m 0,0"
               style="stroke:none"
               inkscape:connector-curvature="0" />
          </symbol>
          <symbol
             id="textext-37d725f9-2"
             overflow="visible"
             style="overflow:visible">
            <path
               id="path4153"
               d=""
               style="stroke:none"
               inkscape:connector-curvature="0" />
          </symbol>
          <symbol
             id="textext-37d725f9-3"
             overflow="visible"
             style="overflow:visible">
            <path
               id="path4156"
               d="m 5.515625,-1.609375 c 0.046875,-0.09375 0.046875,-0.125 0.046875,-0.125 0,-0.046875 -0.03125,-0.09375 -0.125,-0.09375 -0.015625,0 -0.046875,0 -0.078125,0.015625 0,0.015625 -0.015625,0.03125 -0.09375,0.203125 C 4.8125,-0.59375 4.453125,-0.25 3.3125,-0.25 l -1.1875,0 c -0.203125,0 -0.21875,-0.015625 -0.21875,-0.078125 0,0 0,-0.03125 0.03125,-0.140625 l 0.46875,-1.859375 0.78125,0 c 0.546875,0 0.625,0.078125 0.625,0.3125 0,0.078125 -0.015625,0.203125 -0.046875,0.3125 C 3.75,-1.640625 3.75,-1.625 3.75,-1.609375 c 0,0 0,0.09375 0.125,0.09375 0.09375,0 0.09375,-0.03125 0.125,-0.15625 l 0.390625,-1.53125 c 0.015625,-0.078125 0.015625,-0.09375 0.015625,-0.09375 0,-0.078125 -0.0625,-0.109375 -0.125,-0.109375 -0.09375,0 -0.09375,0.046875 -0.140625,0.1875 C 4,-2.671875 3.796875,-2.578125 3.203125,-2.578125 l -0.734375,0 L 2.890625,-4.25 c 0.046875,-0.203125 0.0625,-0.234375 0.34375,-0.234375 l 1.140625,0 c 0.921875,0 1.140625,0.1875 1.140625,0.8125 0,0.1875 -0.03125,0.390625 -0.03125,0.421875 0,0.0625 0.03125,0.125 0.125,0.125 0.109375,0 0.109375,-0.0625 0.125,-0.1875 l 0.125,-1.203125 C 5.875,-4.734375 5.828125,-4.734375 5.65625,-4.734375 l -3.828125,0 c -0.140625,0 -0.21875,0 -0.21875,0.15625 0,0.09375 0.0625,0.09375 0.21875,0.09375 0.109375,0 0.140625,0 0.265625,0.015625 C 2.234375,-4.453125 2.25,-4.4375 2.25,-4.375 c 0,0.046875 -0.015625,0.125 -0.03125,0.15625 L 1.3125,-0.578125 C 1.234375,-0.296875 1.234375,-0.25 0.6875,-0.25 c -0.125,0 -0.203125,0 -0.203125,0.15625 C 0.484375,0 0.5625,0 0.6875,0 L 4.625,0 c 0.171875,0 0.1875,0 0.234375,-0.125 z m 0,0"
               style="stroke:none"
               inkscape:connector-curvature="0" />
          </symbol>
        </g>
      </defs>
      <g
         id="textext-37d725f9-4">
        <g
           id="g4159"
           style="fill:#000000;fill-opacity:1">
          <use
             id="use4161"
             y="134.765"
             x="223.43201"
             xlink:href="#textext-37d725f9-1"
             width="744.09448"
             height="1052.3622" />
        </g>
        <g
           id="g4163"
           style="fill:#000000;fill-opacity:1">
          <use
             id="use4165"
             y="136.259"
             x="229.828"
             xlink:href="#textext-37d725f9-3"
             width="744.09448"
             height="1052.3622" />
        </g>
      </g>
    </g>
    <g
       ns0:text="$P_S$"
       ns0:preamble="/home/francois/Documents/Mypapers/InkscapeHeader/header.inc"
       transform="matrix(13.664847,0,0,16.921153,-4163.524,-1863.8848)"
       id="g4341">
      <defs
         id="defs4343">
        <g
           id="g4345">
          <symbol
             overflow="visible"
             id="textext-e8fc2ae0-0">
            <path
               style="stroke:none;"
               d=""
               id="path4348" />
          </symbol>
          <symbol
             overflow="visible"
             id="textext-e8fc2ae0-1">
            <path
               style="stroke:none;"
               d="M 3.015625 -3.15625 L 4.71875 -3.15625 C 6.125 -3.15625 7.515625 -4.1875 7.515625 -5.296875 C 7.515625 -6.078125 6.859375 -6.8125 5.546875 -6.8125 L 2.328125 -6.8125 C 2.140625 -6.8125 2.03125 -6.8125 2.03125 -6.625 C 2.03125 -6.5 2.109375 -6.5 2.3125 -6.5 C 2.4375 -6.5 2.625 -6.484375 2.734375 -6.484375 C 2.90625 -6.453125 2.953125 -6.4375 2.953125 -6.3125 C 2.953125 -6.28125 2.953125 -6.25 2.921875 -6.125 L 1.578125 -0.78125 C 1.484375 -0.390625 1.46875 -0.3125 0.671875 -0.3125 C 0.515625 -0.3125 0.40625 -0.3125 0.40625 -0.125 C 0.40625 0 0.515625 0 0.546875 0 C 0.828125 0 1.53125 -0.03125 1.8125 -0.03125 C 2.03125 -0.03125 2.25 -0.015625 2.453125 -0.015625 C 2.671875 -0.015625 2.890625 0 3.09375 0 C 3.171875 0 3.296875 0 3.296875 -0.203125 C 3.296875 -0.3125 3.203125 -0.3125 3.015625 -0.3125 C 2.65625 -0.3125 2.375 -0.3125 2.375 -0.484375 C 2.375 -0.546875 2.390625 -0.59375 2.40625 -0.65625 Z M 3.734375 -6.125 C 3.828125 -6.46875 3.84375 -6.5 4.28125 -6.5 L 5.234375 -6.5 C 6.0625 -6.5 6.59375 -6.234375 6.59375 -5.546875 C 6.59375 -5.15625 6.390625 -4.296875 6 -3.9375 C 5.5 -3.484375 4.90625 -3.40625 4.46875 -3.40625 L 3.0625 -3.40625 Z M 3.734375 -6.125 "
               id="path4351" />
          </symbol>
          <symbol
             overflow="visible"
             id="textext-e8fc2ae0-2">
            <path
               style="stroke:none;"
               d=""
               id="path4354" />
          </symbol>
          <symbol
             overflow="visible"
             id="textext-e8fc2ae0-3">
            <path
               style="stroke:none;"
               d="M 4.953125 -4.8125 C 4.953125 -4.84375 4.921875 -4.90625 4.859375 -4.90625 C 4.8125 -4.90625 4.8125 -4.890625 4.71875 -4.796875 L 4.375 -4.40625 C 4.109375 -4.78125 3.671875 -4.90625 3.25 -4.90625 C 2.265625 -4.90625 1.390625 -4.109375 1.390625 -3.296875 C 1.390625 -3.203125 1.421875 -2.921875 1.625 -2.65625 C 1.859375 -2.390625 2.125 -2.328125 2.59375 -2.203125 C 2.734375 -2.171875 3.078125 -2.09375 3.1875 -2.0625 C 3.40625 -2.015625 3.828125 -1.859375 3.828125 -1.34375 C 3.828125 -0.78125 3.234375 -0.109375 2.453125 -0.109375 C 1.828125 -0.109375 1.09375 -0.328125 1.09375 -1.09375 C 1.09375 -1.171875 1.109375 -1.328125 1.140625 -1.453125 C 1.140625 -1.484375 1.140625 -1.484375 1.140625 -1.484375 C 1.140625 -1.578125 1.0625 -1.578125 1.03125 -1.578125 C 0.9375 -1.578125 0.921875 -1.5625 0.90625 -1.4375 L 0.546875 -0.046875 C 0.53125 -0.015625 0.515625 0.015625 0.515625 0.0625 C 0.515625 0.09375 0.546875 0.140625 0.625 0.140625 C 0.65625 0.140625 0.671875 0.125 0.765625 0.046875 C 0.84375 -0.046875 1.015625 -0.265625 1.09375 -0.34375 C 1.46875 0.0625 2 0.140625 2.421875 0.140625 C 3.484375 0.140625 4.328125 -0.765625 4.328125 -1.59375 C 4.328125 -1.890625 4.203125 -2.171875 4.046875 -2.328125 C 3.8125 -2.578125 3.703125 -2.609375 2.796875 -2.828125 C 2.65625 -2.859375 2.421875 -2.90625 2.359375 -2.9375 C 2.1875 -3 1.890625 -3.171875 1.890625 -3.5625 C 1.890625 -4.125 2.515625 -4.671875 3.234375 -4.671875 C 4 -4.671875 4.359375 -4.25 4.359375 -3.59375 C 4.359375 -3.5 4.328125 -3.34375 4.328125 -3.28125 C 4.328125 -3.171875 4.40625 -3.171875 4.453125 -3.171875 C 4.546875 -3.171875 4.5625 -3.21875 4.578125 -3.328125 Z M 4.953125 -4.8125 "
               id="path4357" />
          </symbol>
        </g>
      </defs>
      <g
         id="textext-e8fc2ae0-4">
        <g
           style="fill:rgb(0%,0%,0%);fill-opacity:1;"
           id="g4360">
          <use
             xlink:href="#textext-e8fc2ae0-1"
             x="223.432"
             y="134.765"
             id="use4362" />
        </g>
        <g
           style="fill:rgb(0%,0%,0%);fill-opacity:1;"
           id="g4364">
          <use
             xlink:href="#textext-e8fc2ae0-3"
             x="229.828"
             y="136.259"
             id="use4366" />
        </g>
      </g>
    </g>
    <g
       id="g4574"
       transform="matrix(13.664847,0,0,16.921153,-4143.524,-2303.8848)"
       ns0:preamble="/home/francois/Documents/Mypapers/InkscapeHeader/header.inc"
       ns0:text="$P_C$">
      <defs
         id="defs4576">
        <g
           id="g4578">
          <symbol
             id="textext-bc92792a-0"
             overflow="visible">
            <path
               id="path4581"
               d=""
               style="stroke:none;" />
          </symbol>
          <symbol
             id="textext-bc92792a-1"
             overflow="visible">
            <path
               id="path4584"
               d="M 3.015625 -3.15625 L 4.71875 -3.15625 C 6.125 -3.15625 7.515625 -4.1875 7.515625 -5.296875 C 7.515625 -6.078125 6.859375 -6.8125 5.546875 -6.8125 L 2.328125 -6.8125 C 2.140625 -6.8125 2.03125 -6.8125 2.03125 -6.625 C 2.03125 -6.5 2.109375 -6.5 2.3125 -6.5 C 2.4375 -6.5 2.625 -6.484375 2.734375 -6.484375 C 2.90625 -6.453125 2.953125 -6.4375 2.953125 -6.3125 C 2.953125 -6.28125 2.953125 -6.25 2.921875 -6.125 L 1.578125 -0.78125 C 1.484375 -0.390625 1.46875 -0.3125 0.671875 -0.3125 C 0.515625 -0.3125 0.40625 -0.3125 0.40625 -0.125 C 0.40625 0 0.515625 0 0.546875 0 C 0.828125 0 1.53125 -0.03125 1.8125 -0.03125 C 2.03125 -0.03125 2.25 -0.015625 2.453125 -0.015625 C 2.671875 -0.015625 2.890625 0 3.09375 0 C 3.171875 0 3.296875 0 3.296875 -0.203125 C 3.296875 -0.3125 3.203125 -0.3125 3.015625 -0.3125 C 2.65625 -0.3125 2.375 -0.3125 2.375 -0.484375 C 2.375 -0.546875 2.390625 -0.59375 2.40625 -0.65625 Z M 3.734375 -6.125 C 3.828125 -6.46875 3.84375 -6.5 4.28125 -6.5 L 5.234375 -6.5 C 6.0625 -6.5 6.59375 -6.234375 6.59375 -5.546875 C 6.59375 -5.15625 6.390625 -4.296875 6 -3.9375 C 5.5 -3.484375 4.90625 -3.40625 4.46875 -3.40625 L 3.0625 -3.40625 Z M 3.734375 -6.125 "
               style="stroke:none;" />
          </symbol>
          <symbol
             id="textext-bc92792a-2"
             overflow="visible">
            <path
               id="path4587"
               d=""
               style="stroke:none;" />
          </symbol>
          <symbol
             id="textext-bc92792a-3"
             overflow="visible">
            <path
               id="path4590"
               d="M 5.875 -4.8125 C 5.875 -4.84375 5.859375 -4.90625 5.78125 -4.90625 C 5.734375 -4.90625 5.71875 -4.890625 5.65625 -4.8125 L 5.15625 -4.28125 C 5.09375 -4.359375 4.703125 -4.90625 3.84375 -4.90625 C 2.140625 -4.90625 0.484375 -3.40625 0.484375 -1.828125 C 0.484375 -0.6875 1.375 0.140625 2.625 0.140625 C 3 0.140625 3.671875 0.0625 4.390625 -0.546875 C 4.9375 -1.015625 5.09375 -1.609375 5.09375 -1.671875 C 5.09375 -1.765625 5.015625 -1.765625 4.96875 -1.765625 C 4.890625 -1.765625 4.875 -1.734375 4.84375 -1.65625 C 4.5625 -0.703125 3.59375 -0.109375 2.75 -0.109375 C 2 -0.109375 1.1875 -0.515625 1.1875 -1.609375 C 1.1875 -1.8125 1.234375 -2.90625 2.03125 -3.796875 C 2.515625 -4.328125 3.25 -4.640625 3.90625 -4.640625 C 4.71875 -4.640625 5.1875 -4.0625 5.1875 -3.28125 C 5.1875 -3.09375 5.171875 -3.03125 5.171875 -3 C 5.171875 -2.90625 5.265625 -2.90625 5.296875 -2.90625 C 5.40625 -2.90625 5.40625 -2.921875 5.4375 -3.0625 Z M 5.875 -4.8125 "
               style="stroke:none;" />
          </symbol>
        </g>
      </defs>
      <g
         id="textext-bc92792a-4">
        <g
           id="g4593"
           style="fill:rgb(0%,0%,0%);fill-opacity:1;">
          <use
             id="use4595"
             y="134.765"
             x="223.432"
             xlink:href="#textext-bc92792a-1" />
        </g>
        <g
           id="g4597"
           style="fill:rgb(0%,0%,0%);fill-opacity:1;">
          <use
             id="use4599"
             y="136.259"
             x="229.828"
             xlink:href="#textext-bc92792a-3" />
        </g>
      </g>
    </g>
    <rect
       style="opacity:0.73853215;fill:#e29417;fill-opacity:1;stroke:#000000;stroke-width:2;stroke-miterlimit:4;stroke-opacity:1;stroke-dasharray:none"
       id="rect4722"
       width="440"
       height="440"
       x="274.28583"
       y="-287.63782" />
    <rect
       y="152.36218"
       x="274.28583"
       height="440"
       width="440"
       id="rect4724"
       style="opacity:0.73853215;fill:#78fe17;fill-opacity:1;stroke:#000000;stroke-width:2;stroke-miterlimit:4;stroke-opacity:1;stroke-dasharray:none" />
    <rect
       style="opacity:0.73853215;fill:#78fe17;fill-opacity:1;stroke:#000000;stroke-width:2;stroke-miterlimit:4;stroke-opacity:1;stroke-dasharray:none"
       id="rect4726"
       width="440"
       height="440"
       x="714.28583"
       y="-287.63782" />
    <rect
       y="-727.63782"
       x="274.28589"
       height="440"
       width="440"
       id="rect4728"
       style="opacity:0.73853215;fill:#78fe17;fill-opacity:1;stroke:#000000;stroke-width:2;stroke-miterlimit:4;stroke-opacity:1;stroke-dasharray:none" />
    <rect
       style="opacity:0.73853215;fill:#78fe17;fill-opacity:1;stroke:#000000;stroke-width:2;stroke-miterlimit:4;stroke-opacity:1;stroke-dasharray:none"
       id="rect4730"
       width="440"
       height="440"
       x="-165.71411"
       y="-287.63782" />
    <g
       transform="matrix(13.664847,0,0,16.921153,-3112.3096,-2306.5262)"
       ns0:text="$P_W$"
       ns0:preamble="/home/francois/Documents/Mypapers/InkscapeHeader/header.inc"
       id="g4732">
      <defs
         id="defs4734">
        <g
           id="g4736">
          <symbol
             style="overflow:visible"
             overflow="visible"
             id="symbol4738">
            <path
               inkscape:connector-curvature="0"
               style="stroke:none"
               d=""
               id="path4740" />
          </symbol>
          <symbol
             style="overflow:visible"
             overflow="visible"
             id="symbol4742">
            <path
               inkscape:connector-curvature="0"
               style="stroke:none"
               d="m 3.015625,-3.15625 1.703125,0 c 1.40625,0 2.796875,-1.03125 2.796875,-2.140625 0,-0.78125 -0.65625,-1.515625 -1.96875,-1.515625 l -3.21875,0 c -0.1875,0 -0.296875,0 -0.296875,0.1875 0,0.125 0.078125,0.125 0.28125,0.125 0.125,0 0.3125,0.015625 0.421875,0.015625 0.171875,0.03125 0.21875,0.046875 0.21875,0.171875 0,0.03125 0,0.0625 -0.03125,0.1875 l -1.34375,5.34375 c -0.09375,0.390625 -0.109375,0.46875 -0.90625,0.46875 -0.15625,0 -0.265625,0 -0.265625,0.1875 C 0.40625,0 0.515625,0 0.546875,0 0.828125,0 1.53125,-0.03125 1.8125,-0.03125 c 0.21875,0 0.4375,0.015625 0.640625,0.015625 0.21875,0 0.4375,0.015625 0.640625,0.015625 0.078125,0 0.203125,0 0.203125,-0.203125 0,-0.109375 -0.09375,-0.109375 -0.28125,-0.109375 -0.359375,0 -0.640625,0 -0.640625,-0.171875 0,-0.0625 0.015625,-0.109375 0.03125,-0.171875 z M 3.734375,-6.125 C 3.828125,-6.46875 3.84375,-6.5 4.28125,-6.5 l 0.953125,0 c 0.828125,0 1.359375,0.265625 1.359375,0.953125 0,0.390625 -0.203125,1.25 -0.59375,1.609375 -0.5,0.453125 -1.09375,0.53125 -1.53125,0.53125 l -1.40625,0 z m 0,0"
               id="path4744" />
          </symbol>
          <symbol
             style="overflow:visible"
             overflow="visible"
             id="symbol4746">
            <path
               inkscape:connector-curvature="0"
               style="stroke:none"
               d=""
               id="path4748" />
          </symbol>
          <symbol
             style="overflow:visible"
             overflow="visible"
             id="symbol4750">
            <path
               inkscape:connector-curvature="0"
               style="stroke:none"
               d="m 7.21875,-3.9375 0.125,-0.1875 C 7.484375,-4.3125 7.65625,-4.484375 8,-4.515625 c 0.078125,0 0.15625,0 0.15625,-0.140625 0,-0.046875 -0.03125,-0.109375 -0.09375,-0.109375 -0.15625,0 -0.359375,0.03125 -0.53125,0.03125 -0.234375,0 -0.546875,-0.03125 -0.765625,-0.03125 -0.046875,0 -0.15625,0 -0.15625,0.15625 0,0.09375 0.09375,0.09375 0.125,0.09375 0.15625,0.015625 0.390625,0.0625 0.390625,0.25 0,0.078125 -0.078125,0.203125 -0.109375,0.25 l -1.96875,3.234375 -0.375,-3.53125 c 0,-0.1875 0.40625,-0.203125 0.484375,-0.203125 0.09375,0 0.1875,0 0.1875,-0.140625 0,-0.015625 0,-0.109375 -0.125,-0.109375 -0.125,0 -0.296875,0.015625 -0.421875,0.03125 -0.140625,0 -0.328125,0 -0.46875,0 -0.15625,0 -0.5625,-0.03125 -0.71875,-0.03125 -0.046875,0 -0.140625,0 -0.140625,0.15625 0,0.09375 0.078125,0.09375 0.171875,0.09375 0.296875,0 0.34375,0.0625 0.359375,0.125 0,0.046875 0.015625,0.234375 0.046875,0.453125 L 2.125,-0.78125 1.765625,-4.203125 C 1.765625,-4.234375 1.75,-4.296875 1.75,-4.3125 c 0,-0.203125 0.4375,-0.203125 0.484375,-0.203125 0.09375,0 0.1875,0 0.1875,-0.140625 0,-0.03125 -0.015625,-0.109375 -0.109375,-0.109375 -0.203125,0 -0.703125,0.03125 -0.890625,0.03125 -0.234375,0 -0.53125,-0.03125 -0.734375,-0.03125 -0.078125,0 -0.140625,0.03125 -0.140625,0.15625 0,0.09375 0.078125,0.09375 0.1875,0.09375 0.328125,0 0.328125,0.046875 0.359375,0.21875 l 0.453125,4.25 c 0.015625,0.140625 0.03125,0.1875 0.15625,0.1875 C 1.8125,0.140625 1.875,0.078125 1.90625,0 l 2.171875,-3.578125 0.390625,3.53125 c 0.015625,0.15625 0.046875,0.1875 0.15625,0.1875 0.109375,0 0.15625,-0.0625 0.203125,-0.140625 z m 0,0"
               id="path4752" />
          </symbol>
        </g>
      </defs>
      <g
         id="g4754">
        <g
           style="fill:#000000;fill-opacity:1"
           id="g4756">
          <use
             height="1052.3622"
             width="744.09448"
             xlink:href="#textext-f0c80a81-1"
             x="223.43201"
             y="134.765"
             id="use4758" />
        </g>
        <g
           style="fill:#000000;fill-opacity:1"
           id="g4760">
          <use
             height="1052.3622"
             width="744.09448"
             xlink:href="#textext-f0c80a81-3"
             x="229.828"
             y="136.259"
             id="use4762" />
        </g>
      </g>
    </g>
    <g
       id="g4764"
       transform="matrix(13.664847,0,0,16.921153,-2643.524,-2743.8848)"
       ns0:preamble="/home/francois/Documents/Mypapers/InkscapeHeader/header.inc"
       ns0:text="$P_N$">
      <defs
         id="defs4766">
        <g
           id="g4768">
          <symbol
             id="symbol4770"
             overflow="visible"
             style="overflow:visible">
            <path
               id="path4772"
               d=""
               style="stroke:none"
               inkscape:connector-curvature="0" />
          </symbol>
          <symbol
             id="symbol4774"
             overflow="visible"
             style="overflow:visible">
            <path
               id="path4776"
               d="m 3.015625,-3.15625 1.703125,0 c 1.40625,0 2.796875,-1.03125 2.796875,-2.140625 0,-0.78125 -0.65625,-1.515625 -1.96875,-1.515625 l -3.21875,0 c -0.1875,0 -0.296875,0 -0.296875,0.1875 0,0.125 0.078125,0.125 0.28125,0.125 0.125,0 0.3125,0.015625 0.421875,0.015625 0.171875,0.03125 0.21875,0.046875 0.21875,0.171875 0,0.03125 0,0.0625 -0.03125,0.1875 l -1.34375,5.34375 c -0.09375,0.390625 -0.109375,0.46875 -0.90625,0.46875 -0.15625,0 -0.265625,0 -0.265625,0.1875 C 0.40625,0 0.515625,0 0.546875,0 0.828125,0 1.53125,-0.03125 1.8125,-0.03125 c 0.21875,0 0.4375,0.015625 0.640625,0.015625 0.21875,0 0.4375,0.015625 0.640625,0.015625 0.078125,0 0.203125,0 0.203125,-0.203125 0,-0.109375 -0.09375,-0.109375 -0.28125,-0.109375 -0.359375,0 -0.640625,0 -0.640625,-0.171875 0,-0.0625 0.015625,-0.109375 0.03125,-0.171875 z M 3.734375,-6.125 C 3.828125,-6.46875 3.84375,-6.5 4.28125,-6.5 l 0.953125,0 c 0.828125,0 1.359375,0.265625 1.359375,0.953125 0,0.390625 -0.203125,1.25 -0.59375,1.609375 -0.5,0.453125 -1.09375,0.53125 -1.53125,0.53125 l -1.40625,0 z m 0,0"
               style="stroke:none"
               inkscape:connector-curvature="0" />
          </symbol>
          <symbol
             id="symbol4778"
             overflow="visible"
             style="overflow:visible">
            <path
               id="path4780"
               d=""
               style="stroke:none"
               inkscape:connector-curvature="0" />
          </symbol>
          <symbol
             id="symbol4782"
             overflow="visible"
             style="overflow:visible">
            <path
               id="path4784"
               d="M 5.8125,-4 C 5.875,-4.265625 6,-4.5 6.546875,-4.515625 c 0.03125,0 0.140625,0 0.140625,-0.140625 0,-0.046875 -0.03125,-0.109375 -0.109375,-0.109375 -0.21875,0 -0.484375,0.03125 -0.71875,0.03125 -0.171875,0 -0.5625,-0.03125 -0.734375,-0.03125 -0.03125,0 -0.140625,0 -0.140625,0.15625 0,0.09375 0.09375,0.09375 0.15625,0.09375 0.328125,0.015625 0.4375,0.125 0.4375,0.296875 0,0.046875 0,0.09375 -0.03125,0.15625 l -0.75,3.046875 -1.765625,-3.625 c -0.0625,-0.125 -0.078125,-0.125 -0.25,-0.125 l -0.953125,0 c -0.125,0 -0.21875,0 -0.21875,0.15625 0,0.09375 0.078125,0.09375 0.234375,0.09375 0.140625,0 0.296875,0.015625 0.4375,0.046875 L 1.359375,-0.75 c -0.0625,0.265625 -0.1875,0.484375 -0.734375,0.5 -0.046875,0 -0.140625,0 -0.140625,0.140625 C 0.484375,-0.03125 0.53125,0 0.578125,0 0.8125,0 1.078125,-0.03125 1.3125,-0.03125 1.484375,-0.03125 1.875,0 2.046875,0 2.125,0 2.1875,-0.03125 2.1875,-0.140625 2.1875,-0.25 2.109375,-0.25 2.03125,-0.25 c -0.4375,-0.015625 -0.4375,-0.203125 -0.4375,-0.296875 0,-0.03125 0,-0.0625 0.015625,-0.171875 l 0.90625,-3.5625 2.03125,4.15625 C 4.59375,0 4.625,0 4.703125,0 4.8125,0 4.8125,-0.015625 4.84375,-0.140625 z m 0,0"
               style="stroke:none"
               inkscape:connector-curvature="0" />
          </symbol>
        </g>
      </defs>
      <g
         id="g4786">
        <g
           id="g4788"
           style="fill:#000000;fill-opacity:1">
          <use
             id="use4790"
             y="134.765"
             x="223.43201"
             xlink:href="#textext-6c57e648-1"
             width="744.09448"
             height="1052.3622" />
        </g>
        <g
           id="g4792"
           style="fill:#000000;fill-opacity:1">
          <use
             id="use4794"
             y="136.259"
             x="229.828"
             xlink:href="#textext-6c57e648-3"
             width="744.09448"
             height="1052.3622" />
        </g>
      </g>
    </g>
    <g
       ns0:text="$P_E$"
       ns0:preamble="/home/francois/Documents/Mypapers/InkscapeHeader/header.inc"
       transform="matrix(13.664847,0,0,16.921153,-2224.4977,-2303.9073)"
       id="g4796">
      <defs
         id="defs4798">
        <g
           id="g4800">
          <symbol
             style="overflow:visible"
             overflow="visible"
             id="symbol4802">
            <path
               inkscape:connector-curvature="0"
               style="stroke:none"
               d=""
               id="path4804" />
          </symbol>
          <symbol
             style="overflow:visible"
             overflow="visible"
             id="symbol4806">
            <path
               inkscape:connector-curvature="0"
               style="stroke:none"
               d="m 3.015625,-3.15625 1.703125,0 c 1.40625,0 2.796875,-1.03125 2.796875,-2.140625 0,-0.78125 -0.65625,-1.515625 -1.96875,-1.515625 l -3.21875,0 c -0.1875,0 -0.296875,0 -0.296875,0.1875 0,0.125 0.078125,0.125 0.28125,0.125 0.125,0 0.3125,0.015625 0.421875,0.015625 0.171875,0.03125 0.21875,0.046875 0.21875,0.171875 0,0.03125 0,0.0625 -0.03125,0.1875 l -1.34375,5.34375 c -0.09375,0.390625 -0.109375,0.46875 -0.90625,0.46875 -0.15625,0 -0.265625,0 -0.265625,0.1875 C 0.40625,0 0.515625,0 0.546875,0 0.828125,0 1.53125,-0.03125 1.8125,-0.03125 c 0.21875,0 0.4375,0.015625 0.640625,0.015625 0.21875,0 0.4375,0.015625 0.640625,0.015625 0.078125,0 0.203125,0 0.203125,-0.203125 0,-0.109375 -0.09375,-0.109375 -0.28125,-0.109375 -0.359375,0 -0.640625,0 -0.640625,-0.171875 0,-0.0625 0.015625,-0.109375 0.03125,-0.171875 z M 3.734375,-6.125 C 3.828125,-6.46875 3.84375,-6.5 4.28125,-6.5 l 0.953125,0 c 0.828125,0 1.359375,0.265625 1.359375,0.953125 0,0.390625 -0.203125,1.25 -0.59375,1.609375 -0.5,0.453125 -1.09375,0.53125 -1.53125,0.53125 l -1.40625,0 z m 0,0"
               id="path4808" />
          </symbol>
          <symbol
             style="overflow:visible"
             overflow="visible"
             id="symbol4810">
            <path
               inkscape:connector-curvature="0"
               style="stroke:none"
               d=""
               id="path4812" />
          </symbol>
          <symbol
             style="overflow:visible"
             overflow="visible"
             id="symbol4814">
            <path
               inkscape:connector-curvature="0"
               style="stroke:none"
               d="m 5.515625,-1.609375 c 0.046875,-0.09375 0.046875,-0.125 0.046875,-0.125 0,-0.046875 -0.03125,-0.09375 -0.125,-0.09375 -0.015625,0 -0.046875,0 -0.078125,0.015625 0,0.015625 -0.015625,0.03125 -0.09375,0.203125 C 4.8125,-0.59375 4.453125,-0.25 3.3125,-0.25 l -1.1875,0 c -0.203125,0 -0.21875,-0.015625 -0.21875,-0.078125 0,0 0,-0.03125 0.03125,-0.140625 l 0.46875,-1.859375 0.78125,0 c 0.546875,0 0.625,0.078125 0.625,0.3125 0,0.078125 -0.015625,0.203125 -0.046875,0.3125 C 3.75,-1.640625 3.75,-1.625 3.75,-1.609375 c 0,0 0,0.09375 0.125,0.09375 0.09375,0 0.09375,-0.03125 0.125,-0.15625 l 0.390625,-1.53125 c 0.015625,-0.078125 0.015625,-0.09375 0.015625,-0.09375 0,-0.078125 -0.0625,-0.109375 -0.125,-0.109375 -0.09375,0 -0.09375,0.046875 -0.140625,0.1875 C 4,-2.671875 3.796875,-2.578125 3.203125,-2.578125 l -0.734375,0 L 2.890625,-4.25 c 0.046875,-0.203125 0.0625,-0.234375 0.34375,-0.234375 l 1.140625,0 c 0.921875,0 1.140625,0.1875 1.140625,0.8125 0,0.1875 -0.03125,0.390625 -0.03125,0.421875 0,0.0625 0.03125,0.125 0.125,0.125 0.109375,0 0.109375,-0.0625 0.125,-0.1875 l 0.125,-1.203125 C 5.875,-4.734375 5.828125,-4.734375 5.65625,-4.734375 l -3.828125,0 c -0.140625,0 -0.21875,0 -0.21875,0.15625 0,0.09375 0.0625,0.09375 0.21875,0.09375 0.109375,0 0.140625,0 0.265625,0.015625 C 2.234375,-4.453125 2.25,-4.4375 2.25,-4.375 c 0,0.046875 -0.015625,0.125 -0.03125,0.15625 L 1.3125,-0.578125 C 1.234375,-0.296875 1.234375,-0.25 0.6875,-0.25 c -0.125,0 -0.203125,0 -0.203125,0.15625 C 0.484375,0 0.5625,0 0.6875,0 L 4.625,0 c 0.171875,0 0.1875,0 0.234375,-0.125 z m 0,0"
               id="path4816" />
          </symbol>
        </g>
      </defs>
      <g
         id="g4818">
        <g
           style="fill:#000000;fill-opacity:1"
           id="g4820">
          <use
             height="1052.3622"
             width="744.09448"
             xlink:href="#textext-37d725f9-1"
             x="223.43201"
             y="134.765"
             id="use4822" />
        </g>
        <g
           style="fill:#000000;fill-opacity:1"
           id="g4824">
          <use
             height="1052.3622"
             width="744.09448"
             xlink:href="#textext-37d725f9-3"
             x="229.828"
             y="136.259"
             id="use4826" />
        </g>
      </g>
    </g>
    <g
       id="g4828"
       transform="matrix(13.664847,0,0,16.921153,-2663.524,-1863.8848)"
       ns0:preamble="/home/francois/Documents/Mypapers/InkscapeHeader/header.inc"
       ns0:text="$P_S$">
      <defs
         id="defs4830">
        <g
           id="g4832">
          <symbol
             id="symbol4834"
             overflow="visible"
             style="overflow:visible">
            <path
               id="path4836"
               d=""
               style="stroke:none"
               inkscape:connector-curvature="0" />
          </symbol>
          <symbol
             id="symbol4838"
             overflow="visible"
             style="overflow:visible">
            <path
               id="path4840"
               d="m 3.015625,-3.15625 1.703125,0 c 1.40625,0 2.796875,-1.03125 2.796875,-2.140625 0,-0.78125 -0.65625,-1.515625 -1.96875,-1.515625 l -3.21875,0 c -0.1875,0 -0.296875,0 -0.296875,0.1875 0,0.125 0.078125,0.125 0.28125,0.125 0.125,0 0.3125,0.015625 0.421875,0.015625 0.171875,0.03125 0.21875,0.046875 0.21875,0.171875 0,0.03125 0,0.0625 -0.03125,0.1875 l -1.34375,5.34375 c -0.09375,0.390625 -0.109375,0.46875 -0.90625,0.46875 -0.15625,0 -0.265625,0 -0.265625,0.1875 C 0.40625,0 0.515625,0 0.546875,0 0.828125,0 1.53125,-0.03125 1.8125,-0.03125 c 0.21875,0 0.4375,0.015625 0.640625,0.015625 0.21875,0 0.4375,0.015625 0.640625,0.015625 0.078125,0 0.203125,0 0.203125,-0.203125 0,-0.109375 -0.09375,-0.109375 -0.28125,-0.109375 -0.359375,0 -0.640625,0 -0.640625,-0.171875 0,-0.0625 0.015625,-0.109375 0.03125,-0.171875 z M 3.734375,-6.125 C 3.828125,-6.46875 3.84375,-6.5 4.28125,-6.5 l 0.953125,0 c 0.828125,0 1.359375,0.265625 1.359375,0.953125 0,0.390625 -0.203125,1.25 -0.59375,1.609375 -0.5,0.453125 -1.09375,0.53125 -1.53125,0.53125 l -1.40625,0 z m 0,0"
               style="stroke:none"
               inkscape:connector-curvature="0" />
          </symbol>
          <symbol
             id="symbol4842"
             overflow="visible"
             style="overflow:visible">
            <path
               id="path4844"
               d=""
               style="stroke:none"
               inkscape:connector-curvature="0" />
          </symbol>
          <symbol
             id="symbol4846"
             overflow="visible"
             style="overflow:visible">
            <path
               id="path4848"
               d="m 4.953125,-4.8125 c 0,-0.03125 -0.03125,-0.09375 -0.09375,-0.09375 -0.046875,0 -0.046875,0.015625 -0.140625,0.109375 L 4.375,-4.40625 c -0.265625,-0.375 -0.703125,-0.5 -1.125,-0.5 -0.984375,0 -1.859375,0.796875 -1.859375,1.609375 0,0.09375 0.03125,0.375 0.234375,0.640625 0.234375,0.265625 0.5,0.328125 0.96875,0.453125 0.140625,0.03125 0.484375,0.109375 0.59375,0.140625 0.21875,0.046875 0.640625,0.203125 0.640625,0.71875 0,0.5625 -0.59375,1.234375 -1.375,1.234375 -0.625,0 -1.359375,-0.21875 -1.359375,-0.984375 0,-0.078125 0.015625,-0.234375 0.046875,-0.359375 0,-0.03125 0,-0.03125 0,-0.03125 0,-0.09375 -0.078125,-0.09375 -0.109375,-0.09375 -0.09375,0 -0.109375,0.015625 -0.125,0.140625 l -0.359375,1.390625 c -0.015625,0.03125 -0.03125,0.0625 -0.03125,0.109375 0,0.03125 0.03125,0.078125 0.109375,0.078125 0.03125,0 0.046875,-0.015625 0.140625,-0.09375 0.078125,-0.09375 0.25,-0.3125 0.328125,-0.390625 C 1.46875,0.0625 2,0.140625 2.421875,0.140625 c 1.0625,0 1.90625,-0.90625 1.90625,-1.734375 0,-0.296875 -0.125,-0.578125 -0.28125,-0.734375 -0.234375,-0.25 -0.34375,-0.28125 -1.25,-0.5 C 2.65625,-2.859375 2.421875,-2.90625 2.359375,-2.9375 2.1875,-3 1.890625,-3.171875 1.890625,-3.5625 c 0,-0.5625 0.625,-1.109375 1.34375,-1.109375 0.765625,0 1.125,0.421875 1.125,1.078125 0,0.09375 -0.03125,0.25 -0.03125,0.3125 0,0.109375 0.078125,0.109375 0.125,0.109375 0.09375,0 0.109375,-0.046875 0.125,-0.15625 z m 0,0"
               style="stroke:none"
               inkscape:connector-curvature="0" />
          </symbol>
        </g>
      </defs>
      <g
         id="g4850">
        <g
           id="g4852"
           style="fill:#000000;fill-opacity:1">
          <use
             id="use4854"
             y="134.765"
             x="223.43201"
             xlink:href="#textext-e8fc2ae0-1"
             width="744.09448"
             height="1052.3622" />
        </g>
        <g
           id="g4856"
           style="fill:#000000;fill-opacity:1">
          <use
             id="use4858"
             y="136.259"
             x="229.828"
             xlink:href="#textext-e8fc2ae0-3"
             width="744.09448"
             height="1052.3622" />
        </g>
      </g>
    </g>
    <g
       ns0:text="$P_C$"
       ns0:preamble="/home/francois/Documents/Mypapers/InkscapeHeader/header.inc"
       transform="matrix(13.664847,0,0,16.921153,-2643.524,-2303.8848)"
       id="g4860">
      <defs
         id="defs4862">
        <g
           id="g4864">
          <symbol
             overflow="visible"
             id="symbol4866"
             style="overflow:visible">
            <path
               style="stroke:none"
               d=""
               id="path4868"
               inkscape:connector-curvature="0" />
          </symbol>
          <symbol
             overflow="visible"
             id="symbol4870"
             style="overflow:visible">
            <path
               style="stroke:none"
               d="m 3.015625,-3.15625 1.703125,0 c 1.40625,0 2.796875,-1.03125 2.796875,-2.140625 0,-0.78125 -0.65625,-1.515625 -1.96875,-1.515625 l -3.21875,0 c -0.1875,0 -0.296875,0 -0.296875,0.1875 0,0.125 0.078125,0.125 0.28125,0.125 0.125,0 0.3125,0.015625 0.421875,0.015625 0.171875,0.03125 0.21875,0.046875 0.21875,0.171875 0,0.03125 0,0.0625 -0.03125,0.1875 l -1.34375,5.34375 c -0.09375,0.390625 -0.109375,0.46875 -0.90625,0.46875 -0.15625,0 -0.265625,0 -0.265625,0.1875 C 0.40625,0 0.515625,0 0.546875,0 0.828125,0 1.53125,-0.03125 1.8125,-0.03125 c 0.21875,0 0.4375,0.015625 0.640625,0.015625 0.21875,0 0.4375,0.015625 0.640625,0.015625 0.078125,0 0.203125,0 0.203125,-0.203125 0,-0.109375 -0.09375,-0.109375 -0.28125,-0.109375 -0.359375,0 -0.640625,0 -0.640625,-0.171875 0,-0.0625 0.015625,-0.109375 0.03125,-0.171875 z M 3.734375,-6.125 C 3.828125,-6.46875 3.84375,-6.5 4.28125,-6.5 l 0.953125,0 c 0.828125,0 1.359375,0.265625 1.359375,0.953125 0,0.390625 -0.203125,1.25 -0.59375,1.609375 -0.5,0.453125 -1.09375,0.53125 -1.53125,0.53125 l -1.40625,0 z m 0,0"
               id="path4872"
               inkscape:connector-curvature="0" />
          </symbol>
          <symbol
             overflow="visible"
             id="symbol4874"
             style="overflow:visible">
            <path
               style="stroke:none"
               d=""
               id="path4876"
               inkscape:connector-curvature="0" />
          </symbol>
          <symbol
             overflow="visible"
             id="symbol4878"
             style="overflow:visible">
            <path
               style="stroke:none"
               d="m 5.875,-4.8125 c 0,-0.03125 -0.015625,-0.09375 -0.09375,-0.09375 -0.046875,0 -0.0625,0.015625 -0.125,0.09375 l -0.5,0.53125 c -0.0625,-0.078125 -0.453125,-0.625 -1.3125,-0.625 -1.703125,0 -3.359375,1.5 -3.359375,3.078125 0,1.140625 0.890625,1.96875 2.140625,1.96875 0.375,0 1.046875,-0.078125 1.765625,-0.6875 0.546875,-0.46875 0.703125,-1.0625 0.703125,-1.125 0,-0.09375 -0.078125,-0.09375 -0.125,-0.09375 -0.078125,0 -0.09375,0.03125 -0.125,0.109375 -0.28125,0.953125 -1.25,1.546875 -2.09375,1.546875 -0.75,0 -1.5625,-0.40625 -1.5625,-1.5 0,-0.203125 0.046875,-1.296875 0.84375,-2.1875 0.484375,-0.53125 1.21875,-0.84375 1.875,-0.84375 0.8125,0 1.28125,0.578125 1.28125,1.359375 0,0.1875 -0.015625,0.25 -0.015625,0.28125 0,0.09375 0.09375,0.09375 0.125,0.09375 0.109375,0 0.109375,-0.015625 0.140625,-0.15625 z m 0,0"
               id="path4880"
               inkscape:connector-curvature="0" />
          </symbol>
        </g>
      </defs>
      <g
         id="g4882">
        <g
           style="fill:#000000;fill-opacity:1"
           id="g4884">
          <use
             xlink:href="#textext-bc92792a-1"
             x="223.43201"
             y="134.765"
             id="use4886"
             width="744.09448"
             height="1052.3622" />
        </g>
        <g
           style="fill:#000000;fill-opacity:1"
           id="g4888">
          <use
             xlink:href="#textext-bc92792a-3"
             x="229.828"
             y="136.259"
             id="use4890"
             width="744.09448"
             height="1052.3622" />
        </g>
      </g>
    </g>
    <g
       id="g5382">
      <rect
         style="opacity:0.73853215000000005;fill:#7bbd17;fill-opacity:1;stroke:#000000;stroke-width:2;stroke-miterlimit:4;stroke-opacity:1;stroke-dasharray:none"
         id="rect4892"
         width="440"
         height="440"
         x="-165.71411"
         y="-727.63782" />
      <g
         id="g5107"
         transform="matrix(13.664847,0,0,16.921153,-3140.3096,-2746.5262)"
         ns0:preamble="/home/francois/Documents/Mypapers/InkscapeHeader/header.inc"
         ns0:text="$P_{NW}$">
        <defs
           id="defs5109">
          <g
             id="g5111">
            <symbol
               id="textext-bcad6b9a-0"
               overflow="visible"
               style="overflow:visible">
              <path
                 id="path5114"
                 d=""
                 style="stroke:none"
                 inkscape:connector-curvature="0" />
            </symbol>
            <symbol
               id="textext-bcad6b9a-1"
               overflow="visible"
               style="overflow:visible">
              <path
                 id="path5117"
                 d="m 3.015625,-3.15625 1.703125,0 c 1.40625,0 2.796875,-1.03125 2.796875,-2.140625 0,-0.78125 -0.65625,-1.515625 -1.96875,-1.515625 l -3.21875,0 c -0.1875,0 -0.296875,0 -0.296875,0.1875 0,0.125 0.078125,0.125 0.28125,0.125 0.125,0 0.3125,0.015625 0.421875,0.015625 0.171875,0.03125 0.21875,0.046875 0.21875,0.171875 0,0.03125 0,0.0625 -0.03125,0.1875 l -1.34375,5.34375 c -0.09375,0.390625 -0.109375,0.46875 -0.90625,0.46875 -0.15625,0 -0.265625,0 -0.265625,0.1875 C 0.40625,0 0.515625,0 0.546875,0 0.828125,0 1.53125,-0.03125 1.8125,-0.03125 c 0.21875,0 0.4375,0.015625 0.640625,0.015625 0.21875,0 0.4375,0.015625 0.640625,0.015625 0.078125,0 0.203125,0 0.203125,-0.203125 0,-0.109375 -0.09375,-0.109375 -0.28125,-0.109375 -0.359375,0 -0.640625,0 -0.640625,-0.171875 0,-0.0625 0.015625,-0.109375 0.03125,-0.171875 z M 3.734375,-6.125 C 3.828125,-6.46875 3.84375,-6.5 4.28125,-6.5 l 0.953125,0 c 0.828125,0 1.359375,0.265625 1.359375,0.953125 0,0.390625 -0.203125,1.25 -0.59375,1.609375 -0.5,0.453125 -1.09375,0.53125 -1.53125,0.53125 l -1.40625,0 z m 0,0"
                 style="stroke:none"
                 inkscape:connector-curvature="0" />
            </symbol>
            <symbol
               id="textext-bcad6b9a-2"
               overflow="visible"
               style="overflow:visible">
              <path
                 id="path5120"
                 d=""
                 style="stroke:none"
                 inkscape:connector-curvature="0" />
            </symbol>
            <symbol
               id="textext-bcad6b9a-3"
               overflow="visible"
               style="overflow:visible">
              <path
                 id="path5123"
                 d="M 5.8125,-4 C 5.875,-4.265625 6,-4.5 6.546875,-4.515625 c 0.03125,0 0.140625,0 0.140625,-0.140625 0,-0.046875 -0.03125,-0.109375 -0.109375,-0.109375 -0.21875,0 -0.484375,0.03125 -0.71875,0.03125 -0.171875,0 -0.5625,-0.03125 -0.734375,-0.03125 -0.03125,0 -0.140625,0 -0.140625,0.15625 0,0.09375 0.09375,0.09375 0.15625,0.09375 0.328125,0.015625 0.4375,0.125 0.4375,0.296875 0,0.046875 0,0.09375 -0.03125,0.15625 l -0.75,3.046875 -1.765625,-3.625 c -0.0625,-0.125 -0.078125,-0.125 -0.25,-0.125 l -0.953125,0 c -0.125,0 -0.21875,0 -0.21875,0.15625 0,0.09375 0.078125,0.09375 0.234375,0.09375 0.140625,0 0.296875,0.015625 0.4375,0.046875 L 1.359375,-0.75 c -0.0625,0.265625 -0.1875,0.484375 -0.734375,0.5 -0.046875,0 -0.140625,0 -0.140625,0.140625 C 0.484375,-0.03125 0.53125,0 0.578125,0 0.8125,0 1.078125,-0.03125 1.3125,-0.03125 1.484375,-0.03125 1.875,0 2.046875,0 2.125,0 2.1875,-0.03125 2.1875,-0.140625 2.1875,-0.25 2.109375,-0.25 2.03125,-0.25 c -0.4375,-0.015625 -0.4375,-0.203125 -0.4375,-0.296875 0,-0.03125 0,-0.0625 0.015625,-0.171875 l 0.90625,-3.5625 2.03125,4.15625 C 4.59375,0 4.625,0 4.703125,0 4.8125,0 4.8125,-0.015625 4.84375,-0.140625 z m 0,0"
                 style="stroke:none"
                 inkscape:connector-curvature="0" />
            </symbol>
            <symbol
               id="textext-bcad6b9a-4"
               overflow="visible"
               style="overflow:visible">
              <path
                 id="path5126"
                 d="m 7.21875,-3.9375 0.125,-0.1875 C 7.484375,-4.3125 7.65625,-4.484375 8,-4.515625 c 0.078125,0 0.15625,0 0.15625,-0.140625 0,-0.046875 -0.03125,-0.109375 -0.09375,-0.109375 -0.15625,0 -0.359375,0.03125 -0.53125,0.03125 -0.234375,0 -0.546875,-0.03125 -0.765625,-0.03125 -0.046875,0 -0.15625,0 -0.15625,0.15625 0,0.09375 0.09375,0.09375 0.125,0.09375 0.15625,0.015625 0.390625,0.0625 0.390625,0.25 0,0.078125 -0.078125,0.203125 -0.109375,0.25 l -1.96875,3.234375 -0.375,-3.53125 c 0,-0.1875 0.40625,-0.203125 0.484375,-0.203125 0.09375,0 0.1875,0 0.1875,-0.140625 0,-0.015625 0,-0.109375 -0.125,-0.109375 -0.125,0 -0.296875,0.015625 -0.421875,0.03125 -0.140625,0 -0.328125,0 -0.46875,0 -0.15625,0 -0.5625,-0.03125 -0.71875,-0.03125 -0.046875,0 -0.140625,0 -0.140625,0.15625 0,0.09375 0.078125,0.09375 0.171875,0.09375 0.296875,0 0.34375,0.0625 0.359375,0.125 0,0.046875 0.015625,0.234375 0.046875,0.453125 L 2.125,-0.78125 1.765625,-4.203125 C 1.765625,-4.234375 1.75,-4.296875 1.75,-4.3125 c 0,-0.203125 0.4375,-0.203125 0.484375,-0.203125 0.09375,0 0.1875,0 0.1875,-0.140625 0,-0.03125 -0.015625,-0.109375 -0.109375,-0.109375 -0.203125,0 -0.703125,0.03125 -0.890625,0.03125 -0.234375,0 -0.53125,-0.03125 -0.734375,-0.03125 -0.078125,0 -0.140625,0.03125 -0.140625,0.15625 0,0.09375 0.078125,0.09375 0.1875,0.09375 0.328125,0 0.328125,0.046875 0.359375,0.21875 l 0.453125,4.25 c 0.015625,0.140625 0.03125,0.1875 0.15625,0.1875 C 1.8125,0.140625 1.875,0.078125 1.90625,0 l 2.171875,-3.578125 0.390625,3.53125 c 0.015625,0.15625 0.046875,0.1875 0.15625,0.1875 0.109375,0 0.15625,-0.0625 0.203125,-0.140625 z m 0,0"
                 style="stroke:none"
                 inkscape:connector-curvature="0" />
            </symbol>
          </g>
        </defs>
        <g
           id="textext-bcad6b9a-5">
          <g
             id="g5129"
             style="fill:#000000;fill-opacity:1">
            <use
               id="use5131"
               y="134.765"
               x="223.43201"
               xlink:href="#textext-bcad6b9a-1"
               width="744.09448"
               height="1052.3622" />
          </g>
          <g
             id="g5133"
             style="fill:#000000;fill-opacity:1">
            <use
               id="use5135"
               y="136.259"
               x="229.828"
               xlink:href="#textext-bcad6b9a-3"
               width="744.09448"
               height="1052.3622" />
          </g>
          <g
             id="g5137"
             style="fill:#000000;fill-opacity:1">
            <use
               id="use5139"
               y="136.259"
               x="236.88478"
               xlink:href="#textext-bcad6b9a-4"
               width="744.09448"
               height="1052.3622" />
          </g>
        </g>
      </g>
    </g>
    <rect
       style="opacity:0.73853215;fill:#7bbd17;fill-opacity:1;stroke:#000000;stroke-width:2;stroke-miterlimit:4;stroke-opacity:1;stroke-dasharray:none"
       id="rect5407"
       width="440"
       height="440"
       x="714.28589"
       y="-727.63782" />
    <rect
       y="152.36218"
       x="714.28589"
       height="440"
       width="440"
       id="rect5451"
       style="opacity:0.73853215;fill:#7bbd17;fill-opacity:1;stroke:#000000;stroke-width:2;stroke-miterlimit:4;stroke-opacity:1;stroke-dasharray:none" />
    <rect
       style="opacity:0.73853215;fill:#7bbd17;fill-opacity:1;stroke:#000000;stroke-width:2;stroke-miterlimit:4;stroke-opacity:1;stroke-dasharray:none"
       id="rect5495"
       width="440"
       height="440"
       x="-165.71411"
       y="152.36218" />
    <g
       id="g5891"
       transform="matrix(13.664847,0,0,16.921153,-2260.3096,-2746.5262)"
       ns0:preamble="/home/francois/Documents/Mypapers/InkscapeHeader/header.inc"
       ns0:text="$P_{NE}$">
      <defs
         id="defs5893">
        <g
           id="g5895">
          <symbol
             id="textext-0268d28b-0"
             overflow="visible">
            <path
               id="path5898"
               d=""
               style="stroke:none;" />
          </symbol>
          <symbol
             id="textext-0268d28b-1"
             overflow="visible">
            <path
               id="path5901"
               d="M 3.015625 -3.15625 L 4.71875 -3.15625 C 6.125 -3.15625 7.515625 -4.1875 7.515625 -5.296875 C 7.515625 -6.078125 6.859375 -6.8125 5.546875 -6.8125 L 2.328125 -6.8125 C 2.140625 -6.8125 2.03125 -6.8125 2.03125 -6.625 C 2.03125 -6.5 2.109375 -6.5 2.3125 -6.5 C 2.4375 -6.5 2.625 -6.484375 2.734375 -6.484375 C 2.90625 -6.453125 2.953125 -6.4375 2.953125 -6.3125 C 2.953125 -6.28125 2.953125 -6.25 2.921875 -6.125 L 1.578125 -0.78125 C 1.484375 -0.390625 1.46875 -0.3125 0.671875 -0.3125 C 0.515625 -0.3125 0.40625 -0.3125 0.40625 -0.125 C 0.40625 0 0.515625 0 0.546875 0 C 0.828125 0 1.53125 -0.03125 1.8125 -0.03125 C 2.03125 -0.03125 2.25 -0.015625 2.453125 -0.015625 C 2.671875 -0.015625 2.890625 0 3.09375 0 C 3.171875 0 3.296875 0 3.296875 -0.203125 C 3.296875 -0.3125 3.203125 -0.3125 3.015625 -0.3125 C 2.65625 -0.3125 2.375 -0.3125 2.375 -0.484375 C 2.375 -0.546875 2.390625 -0.59375 2.40625 -0.65625 Z M 3.734375 -6.125 C 3.828125 -6.46875 3.84375 -6.5 4.28125 -6.5 L 5.234375 -6.5 C 6.0625 -6.5 6.59375 -6.234375 6.59375 -5.546875 C 6.59375 -5.15625 6.390625 -4.296875 6 -3.9375 C 5.5 -3.484375 4.90625 -3.40625 4.46875 -3.40625 L 3.0625 -3.40625 Z M 3.734375 -6.125 "
               style="stroke:none;" />
          </symbol>
          <symbol
             id="textext-0268d28b-2"
             overflow="visible">
            <path
               id="path5904"
               d=""
               style="stroke:none;" />
          </symbol>
          <symbol
             id="textext-0268d28b-3"
             overflow="visible">
            <path
               id="path5907"
               d="M 5.8125 -4 C 5.875 -4.265625 6 -4.5 6.546875 -4.515625 C 6.578125 -4.515625 6.6875 -4.515625 6.6875 -4.65625 C 6.6875 -4.703125 6.65625 -4.765625 6.578125 -4.765625 C 6.359375 -4.765625 6.09375 -4.734375 5.859375 -4.734375 C 5.6875 -4.734375 5.296875 -4.765625 5.125 -4.765625 C 5.09375 -4.765625 4.984375 -4.765625 4.984375 -4.609375 C 4.984375 -4.515625 5.078125 -4.515625 5.140625 -4.515625 C 5.46875 -4.5 5.578125 -4.390625 5.578125 -4.21875 C 5.578125 -4.171875 5.578125 -4.125 5.546875 -4.0625 L 4.796875 -1.015625 L 3.03125 -4.640625 C 2.96875 -4.765625 2.953125 -4.765625 2.78125 -4.765625 L 1.828125 -4.765625 C 1.703125 -4.765625 1.609375 -4.765625 1.609375 -4.609375 C 1.609375 -4.515625 1.6875 -4.515625 1.84375 -4.515625 C 1.984375 -4.515625 2.140625 -4.5 2.28125 -4.46875 L 1.359375 -0.75 C 1.296875 -0.484375 1.171875 -0.265625 0.625 -0.25 C 0.578125 -0.25 0.484375 -0.25 0.484375 -0.109375 C 0.484375 -0.03125 0.53125 0 0.578125 0 C 0.8125 0 1.078125 -0.03125 1.3125 -0.03125 C 1.484375 -0.03125 1.875 0 2.046875 0 C 2.125 0 2.1875 -0.03125 2.1875 -0.140625 C 2.1875 -0.25 2.109375 -0.25 2.03125 -0.25 C 1.59375 -0.265625 1.59375 -0.453125 1.59375 -0.546875 C 1.59375 -0.578125 1.59375 -0.609375 1.609375 -0.71875 L 2.515625 -4.28125 L 4.546875 -0.125 C 4.59375 0 4.625 0 4.703125 0 C 4.8125 0 4.8125 -0.015625 4.84375 -0.140625 Z M 5.8125 -4 "
               style="stroke:none;" />
          </symbol>
          <symbol
             id="textext-0268d28b-4"
             overflow="visible">
            <path
               id="path5910"
               d="M 5.515625 -1.609375 C 5.5625 -1.703125 5.5625 -1.734375 5.5625 -1.734375 C 5.5625 -1.78125 5.53125 -1.828125 5.4375 -1.828125 C 5.421875 -1.828125 5.390625 -1.828125 5.359375 -1.8125 C 5.359375 -1.796875 5.34375 -1.78125 5.265625 -1.609375 C 4.8125 -0.59375 4.453125 -0.25 3.3125 -0.25 L 2.125 -0.25 C 1.921875 -0.25 1.90625 -0.265625 1.90625 -0.328125 C 1.90625 -0.328125 1.90625 -0.359375 1.9375 -0.46875 L 2.40625 -2.328125 L 3.1875 -2.328125 C 3.734375 -2.328125 3.8125 -2.25 3.8125 -2.015625 C 3.8125 -1.9375 3.796875 -1.8125 3.765625 -1.703125 C 3.75 -1.640625 3.75 -1.625 3.75 -1.609375 C 3.75 -1.609375 3.75 -1.515625 3.875 -1.515625 C 3.96875 -1.515625 3.96875 -1.546875 4 -1.671875 L 4.390625 -3.203125 C 4.40625 -3.28125 4.40625 -3.296875 4.40625 -3.296875 C 4.40625 -3.375 4.34375 -3.40625 4.28125 -3.40625 C 4.1875 -3.40625 4.1875 -3.359375 4.140625 -3.21875 C 4 -2.671875 3.796875 -2.578125 3.203125 -2.578125 L 2.46875 -2.578125 L 2.890625 -4.25 C 2.9375 -4.453125 2.953125 -4.484375 3.234375 -4.484375 L 4.375 -4.484375 C 5.296875 -4.484375 5.515625 -4.296875 5.515625 -3.671875 C 5.515625 -3.484375 5.484375 -3.28125 5.484375 -3.25 C 5.484375 -3.1875 5.515625 -3.125 5.609375 -3.125 C 5.71875 -3.125 5.71875 -3.1875 5.734375 -3.3125 L 5.859375 -4.515625 C 5.875 -4.734375 5.828125 -4.734375 5.65625 -4.734375 L 1.828125 -4.734375 C 1.6875 -4.734375 1.609375 -4.734375 1.609375 -4.578125 C 1.609375 -4.484375 1.671875 -4.484375 1.828125 -4.484375 C 1.9375 -4.484375 1.96875 -4.484375 2.09375 -4.46875 C 2.234375 -4.453125 2.25 -4.4375 2.25 -4.375 C 2.25 -4.328125 2.234375 -4.25 2.21875 -4.21875 L 1.3125 -0.578125 C 1.234375 -0.296875 1.234375 -0.25 0.6875 -0.25 C 0.5625 -0.25 0.484375 -0.25 0.484375 -0.09375 C 0.484375 0 0.5625 0 0.6875 0 L 4.625 0 C 4.796875 0 4.8125 0 4.859375 -0.125 Z M 5.515625 -1.609375 "
               style="stroke:none;" />
          </symbol>
        </g>
      </defs>
      <g
         id="textext-0268d28b-5">
        <g
           id="g5913"
           style="fill:rgb(0%,0%,0%);fill-opacity:1;">
          <use
             id="use5915"
             y="134.765"
             x="223.432"
             xlink:href="#textext-0268d28b-1" />
        </g>
        <g
           id="g5917"
           style="fill:rgb(0%,0%,0%);fill-opacity:1;">
          <use
             id="use5919"
             y="136.259"
             x="229.828"
             xlink:href="#textext-0268d28b-3" />
        </g>
        <g
           id="g5921"
           style="fill:rgb(0%,0%,0%);fill-opacity:1;">
          <use
             id="use5923"
             y="136.259"
             x="236.884788"
             xlink:href="#textext-0268d28b-4" />
        </g>
      </g>
    </g>
    <g
       ns0:text="$P_{SE}$"
       ns0:preamble="/home/francois/Documents/Mypapers/InkscapeHeader/header.inc"
       transform="matrix(13.664847,0,0,16.921153,-2260.3096,-1866.5262)"
       id="g6433">
      <defs
         id="defs6435">
        <g
           id="g6437">
          <symbol
             overflow="visible"
             id="textext-e836c8f1-0">
            <path
               style="stroke:none;"
               d=""
               id="path6440" />
          </symbol>
          <symbol
             overflow="visible"
             id="textext-e836c8f1-1">
            <path
               style="stroke:none;"
               d="M 3.015625 -3.15625 L 4.71875 -3.15625 C 6.125 -3.15625 7.515625 -4.1875 7.515625 -5.296875 C 7.515625 -6.078125 6.859375 -6.8125 5.546875 -6.8125 L 2.328125 -6.8125 C 2.140625 -6.8125 2.03125 -6.8125 2.03125 -6.625 C 2.03125 -6.5 2.109375 -6.5 2.3125 -6.5 C 2.4375 -6.5 2.625 -6.484375 2.734375 -6.484375 C 2.90625 -6.453125 2.953125 -6.4375 2.953125 -6.3125 C 2.953125 -6.28125 2.953125 -6.25 2.921875 -6.125 L 1.578125 -0.78125 C 1.484375 -0.390625 1.46875 -0.3125 0.671875 -0.3125 C 0.515625 -0.3125 0.40625 -0.3125 0.40625 -0.125 C 0.40625 0 0.515625 0 0.546875 0 C 0.828125 0 1.53125 -0.03125 1.8125 -0.03125 C 2.03125 -0.03125 2.25 -0.015625 2.453125 -0.015625 C 2.671875 -0.015625 2.890625 0 3.09375 0 C 3.171875 0 3.296875 0 3.296875 -0.203125 C 3.296875 -0.3125 3.203125 -0.3125 3.015625 -0.3125 C 2.65625 -0.3125 2.375 -0.3125 2.375 -0.484375 C 2.375 -0.546875 2.390625 -0.59375 2.40625 -0.65625 Z M 3.734375 -6.125 C 3.828125 -6.46875 3.84375 -6.5 4.28125 -6.5 L 5.234375 -6.5 C 6.0625 -6.5 6.59375 -6.234375 6.59375 -5.546875 C 6.59375 -5.15625 6.390625 -4.296875 6 -3.9375 C 5.5 -3.484375 4.90625 -3.40625 4.46875 -3.40625 L 3.0625 -3.40625 Z M 3.734375 -6.125 "
               id="path6443" />
          </symbol>
          <symbol
             overflow="visible"
             id="textext-e836c8f1-2">
            <path
               style="stroke:none;"
               d=""
               id="path6446" />
          </symbol>
          <symbol
             overflow="visible"
             id="textext-e836c8f1-3">
            <path
               style="stroke:none;"
               d="M 4.953125 -4.8125 C 4.953125 -4.84375 4.921875 -4.90625 4.859375 -4.90625 C 4.8125 -4.90625 4.8125 -4.890625 4.71875 -4.796875 L 4.375 -4.40625 C 4.109375 -4.78125 3.671875 -4.90625 3.25 -4.90625 C 2.265625 -4.90625 1.390625 -4.109375 1.390625 -3.296875 C 1.390625 -3.203125 1.421875 -2.921875 1.625 -2.65625 C 1.859375 -2.390625 2.125 -2.328125 2.59375 -2.203125 C 2.734375 -2.171875 3.078125 -2.09375 3.1875 -2.0625 C 3.40625 -2.015625 3.828125 -1.859375 3.828125 -1.34375 C 3.828125 -0.78125 3.234375 -0.109375 2.453125 -0.109375 C 1.828125 -0.109375 1.09375 -0.328125 1.09375 -1.09375 C 1.09375 -1.171875 1.109375 -1.328125 1.140625 -1.453125 C 1.140625 -1.484375 1.140625 -1.484375 1.140625 -1.484375 C 1.140625 -1.578125 1.0625 -1.578125 1.03125 -1.578125 C 0.9375 -1.578125 0.921875 -1.5625 0.90625 -1.4375 L 0.546875 -0.046875 C 0.53125 -0.015625 0.515625 0.015625 0.515625 0.0625 C 0.515625 0.09375 0.546875 0.140625 0.625 0.140625 C 0.65625 0.140625 0.671875 0.125 0.765625 0.046875 C 0.84375 -0.046875 1.015625 -0.265625 1.09375 -0.34375 C 1.46875 0.0625 2 0.140625 2.421875 0.140625 C 3.484375 0.140625 4.328125 -0.765625 4.328125 -1.59375 C 4.328125 -1.890625 4.203125 -2.171875 4.046875 -2.328125 C 3.8125 -2.578125 3.703125 -2.609375 2.796875 -2.828125 C 2.65625 -2.859375 2.421875 -2.90625 2.359375 -2.9375 C 2.1875 -3 1.890625 -3.171875 1.890625 -3.5625 C 1.890625 -4.125 2.515625 -4.671875 3.234375 -4.671875 C 4 -4.671875 4.359375 -4.25 4.359375 -3.59375 C 4.359375 -3.5 4.328125 -3.34375 4.328125 -3.28125 C 4.328125 -3.171875 4.40625 -3.171875 4.453125 -3.171875 C 4.546875 -3.171875 4.5625 -3.21875 4.578125 -3.328125 Z M 4.953125 -4.8125 "
               id="path6449" />
          </symbol>
          <symbol
             overflow="visible"
             id="textext-e836c8f1-4">
            <path
               style="stroke:none;"
               d="M 5.515625 -1.609375 C 5.5625 -1.703125 5.5625 -1.734375 5.5625 -1.734375 C 5.5625 -1.78125 5.53125 -1.828125 5.4375 -1.828125 C 5.421875 -1.828125 5.390625 -1.828125 5.359375 -1.8125 C 5.359375 -1.796875 5.34375 -1.78125 5.265625 -1.609375 C 4.8125 -0.59375 4.453125 -0.25 3.3125 -0.25 L 2.125 -0.25 C 1.921875 -0.25 1.90625 -0.265625 1.90625 -0.328125 C 1.90625 -0.328125 1.90625 -0.359375 1.9375 -0.46875 L 2.40625 -2.328125 L 3.1875 -2.328125 C 3.734375 -2.328125 3.8125 -2.25 3.8125 -2.015625 C 3.8125 -1.9375 3.796875 -1.8125 3.765625 -1.703125 C 3.75 -1.640625 3.75 -1.625 3.75 -1.609375 C 3.75 -1.609375 3.75 -1.515625 3.875 -1.515625 C 3.96875 -1.515625 3.96875 -1.546875 4 -1.671875 L 4.390625 -3.203125 C 4.40625 -3.28125 4.40625 -3.296875 4.40625 -3.296875 C 4.40625 -3.375 4.34375 -3.40625 4.28125 -3.40625 C 4.1875 -3.40625 4.1875 -3.359375 4.140625 -3.21875 C 4 -2.671875 3.796875 -2.578125 3.203125 -2.578125 L 2.46875 -2.578125 L 2.890625 -4.25 C 2.9375 -4.453125 2.953125 -4.484375 3.234375 -4.484375 L 4.375 -4.484375 C 5.296875 -4.484375 5.515625 -4.296875 5.515625 -3.671875 C 5.515625 -3.484375 5.484375 -3.28125 5.484375 -3.25 C 5.484375 -3.1875 5.515625 -3.125 5.609375 -3.125 C 5.71875 -3.125 5.71875 -3.1875 5.734375 -3.3125 L 5.859375 -4.515625 C 5.875 -4.734375 5.828125 -4.734375 5.65625 -4.734375 L 1.828125 -4.734375 C 1.6875 -4.734375 1.609375 -4.734375 1.609375 -4.578125 C 1.609375 -4.484375 1.671875 -4.484375 1.828125 -4.484375 C 1.9375 -4.484375 1.96875 -4.484375 2.09375 -4.46875 C 2.234375 -4.453125 2.25 -4.4375 2.25 -4.375 C 2.25 -4.328125 2.234375 -4.25 2.21875 -4.21875 L 1.3125 -0.578125 C 1.234375 -0.296875 1.234375 -0.25 0.6875 -0.25 C 0.5625 -0.25 0.484375 -0.25 0.484375 -0.09375 C 0.484375 0 0.5625 0 0.6875 0 L 4.625 0 C 4.796875 0 4.8125 0 4.859375 -0.125 Z M 5.515625 -1.609375 "
               id="path6452" />
          </symbol>
        </g>
      </defs>
      <g
         id="textext-e836c8f1-5">
        <g
           style="fill:rgb(0%,0%,0%);fill-opacity:1;"
           id="g6455">
          <use
             xlink:href="#textext-e836c8f1-1"
             x="223.432"
             y="134.765"
             id="use6457" />
        </g>
        <g
           style="fill:rgb(0%,0%,0%);fill-opacity:1;"
           id="g6459">
          <use
             xlink:href="#textext-e836c8f1-3"
             x="229.828"
             y="136.259"
             id="use6461" />
        </g>
        <g
           style="fill:rgb(0%,0%,0%);fill-opacity:1;"
           id="g6463">
          <use
             xlink:href="#textext-e836c8f1-4"
             x="235.10368"
             y="136.259"
             id="use6465" />
        </g>
      </g>
    </g>
    <g
       id="g6975"
       transform="matrix(13.664847,0,0,16.921153,-3140.3096,-1866.5262)"
       ns0:preamble="/home/francois/Documents/Mypapers/InkscapeHeader/header.inc"
       ns0:text="$P_{SW}$">
      <defs
         id="defs6977">
        <g
           id="g6979">
          <symbol
             id="textext-3c8a6701-0"
             overflow="visible">
            <path
               id="path6982"
               d=""
               style="stroke:none;" />
          </symbol>
          <symbol
             id="textext-3c8a6701-1"
             overflow="visible">
            <path
               id="path6985"
               d="M 3.015625 -3.15625 L 4.71875 -3.15625 C 6.125 -3.15625 7.515625 -4.1875 7.515625 -5.296875 C 7.515625 -6.078125 6.859375 -6.8125 5.546875 -6.8125 L 2.328125 -6.8125 C 2.140625 -6.8125 2.03125 -6.8125 2.03125 -6.625 C 2.03125 -6.5 2.109375 -6.5 2.3125 -6.5 C 2.4375 -6.5 2.625 -6.484375 2.734375 -6.484375 C 2.90625 -6.453125 2.953125 -6.4375 2.953125 -6.3125 C 2.953125 -6.28125 2.953125 -6.25 2.921875 -6.125 L 1.578125 -0.78125 C 1.484375 -0.390625 1.46875 -0.3125 0.671875 -0.3125 C 0.515625 -0.3125 0.40625 -0.3125 0.40625 -0.125 C 0.40625 0 0.515625 0 0.546875 0 C 0.828125 0 1.53125 -0.03125 1.8125 -0.03125 C 2.03125 -0.03125 2.25 -0.015625 2.453125 -0.015625 C 2.671875 -0.015625 2.890625 0 3.09375 0 C 3.171875 0 3.296875 0 3.296875 -0.203125 C 3.296875 -0.3125 3.203125 -0.3125 3.015625 -0.3125 C 2.65625 -0.3125 2.375 -0.3125 2.375 -0.484375 C 2.375 -0.546875 2.390625 -0.59375 2.40625 -0.65625 Z M 3.734375 -6.125 C 3.828125 -6.46875 3.84375 -6.5 4.28125 -6.5 L 5.234375 -6.5 C 6.0625 -6.5 6.59375 -6.234375 6.59375 -5.546875 C 6.59375 -5.15625 6.390625 -4.296875 6 -3.9375 C 5.5 -3.484375 4.90625 -3.40625 4.46875 -3.40625 L 3.0625 -3.40625 Z M 3.734375 -6.125 "
               style="stroke:none;" />
          </symbol>
          <symbol
             id="textext-3c8a6701-2"
             overflow="visible">
            <path
               id="path6988"
               d=""
               style="stroke:none;" />
          </symbol>
          <symbol
             id="textext-3c8a6701-3"
             overflow="visible">
            <path
               id="path6991"
               d="M 4.953125 -4.8125 C 4.953125 -4.84375 4.921875 -4.90625 4.859375 -4.90625 C 4.8125 -4.90625 4.8125 -4.890625 4.71875 -4.796875 L 4.375 -4.40625 C 4.109375 -4.78125 3.671875 -4.90625 3.25 -4.90625 C 2.265625 -4.90625 1.390625 -4.109375 1.390625 -3.296875 C 1.390625 -3.203125 1.421875 -2.921875 1.625 -2.65625 C 1.859375 -2.390625 2.125 -2.328125 2.59375 -2.203125 C 2.734375 -2.171875 3.078125 -2.09375 3.1875 -2.0625 C 3.40625 -2.015625 3.828125 -1.859375 3.828125 -1.34375 C 3.828125 -0.78125 3.234375 -0.109375 2.453125 -0.109375 C 1.828125 -0.109375 1.09375 -0.328125 1.09375 -1.09375 C 1.09375 -1.171875 1.109375 -1.328125 1.140625 -1.453125 C 1.140625 -1.484375 1.140625 -1.484375 1.140625 -1.484375 C 1.140625 -1.578125 1.0625 -1.578125 1.03125 -1.578125 C 0.9375 -1.578125 0.921875 -1.5625 0.90625 -1.4375 L 0.546875 -0.046875 C 0.53125 -0.015625 0.515625 0.015625 0.515625 0.0625 C 0.515625 0.09375 0.546875 0.140625 0.625 0.140625 C 0.65625 0.140625 0.671875 0.125 0.765625 0.046875 C 0.84375 -0.046875 1.015625 -0.265625 1.09375 -0.34375 C 1.46875 0.0625 2 0.140625 2.421875 0.140625 C 3.484375 0.140625 4.328125 -0.765625 4.328125 -1.59375 C 4.328125 -1.890625 4.203125 -2.171875 4.046875 -2.328125 C 3.8125 -2.578125 3.703125 -2.609375 2.796875 -2.828125 C 2.65625 -2.859375 2.421875 -2.90625 2.359375 -2.9375 C 2.1875 -3 1.890625 -3.171875 1.890625 -3.5625 C 1.890625 -4.125 2.515625 -4.671875 3.234375 -4.671875 C 4 -4.671875 4.359375 -4.25 4.359375 -3.59375 C 4.359375 -3.5 4.328125 -3.34375 4.328125 -3.28125 C 4.328125 -3.171875 4.40625 -3.171875 4.453125 -3.171875 C 4.546875 -3.171875 4.5625 -3.21875 4.578125 -3.328125 Z M 4.953125 -4.8125 "
               style="stroke:none;" />
          </symbol>
          <symbol
             id="textext-3c8a6701-4"
             overflow="visible">
            <path
               id="path6994"
               d="M 7.21875 -3.9375 L 7.34375 -4.125 C 7.484375 -4.3125 7.65625 -4.484375 8 -4.515625 C 8.078125 -4.515625 8.15625 -4.515625 8.15625 -4.65625 C 8.15625 -4.703125 8.125 -4.765625 8.0625 -4.765625 C 7.90625 -4.765625 7.703125 -4.734375 7.53125 -4.734375 C 7.296875 -4.734375 6.984375 -4.765625 6.765625 -4.765625 C 6.71875 -4.765625 6.609375 -4.765625 6.609375 -4.609375 C 6.609375 -4.515625 6.703125 -4.515625 6.734375 -4.515625 C 6.890625 -4.5 7.125 -4.453125 7.125 -4.265625 C 7.125 -4.1875 7.046875 -4.0625 7.015625 -4.015625 L 5.046875 -0.78125 L 4.671875 -4.3125 C 4.671875 -4.5 5.078125 -4.515625 5.15625 -4.515625 C 5.25 -4.515625 5.34375 -4.515625 5.34375 -4.65625 C 5.34375 -4.671875 5.34375 -4.765625 5.21875 -4.765625 C 5.09375 -4.765625 4.921875 -4.75 4.796875 -4.734375 C 4.65625 -4.734375 4.46875 -4.734375 4.328125 -4.734375 C 4.171875 -4.734375 3.765625 -4.765625 3.609375 -4.765625 C 3.5625 -4.765625 3.46875 -4.765625 3.46875 -4.609375 C 3.46875 -4.515625 3.546875 -4.515625 3.640625 -4.515625 C 3.9375 -4.515625 3.984375 -4.453125 4 -4.390625 C 4 -4.34375 4.015625 -4.15625 4.046875 -3.9375 L 2.125 -0.78125 L 1.765625 -4.203125 C 1.765625 -4.234375 1.75 -4.296875 1.75 -4.3125 C 1.75 -4.515625 2.1875 -4.515625 2.234375 -4.515625 C 2.328125 -4.515625 2.421875 -4.515625 2.421875 -4.65625 C 2.421875 -4.6875 2.40625 -4.765625 2.3125 -4.765625 C 2.109375 -4.765625 1.609375 -4.734375 1.421875 -4.734375 C 1.1875 -4.734375 0.890625 -4.765625 0.6875 -4.765625 C 0.609375 -4.765625 0.546875 -4.734375 0.546875 -4.609375 C 0.546875 -4.515625 0.625 -4.515625 0.734375 -4.515625 C 1.0625 -4.515625 1.0625 -4.46875 1.09375 -4.296875 L 1.546875 -0.046875 C 1.5625 0.09375 1.578125 0.140625 1.703125 0.140625 C 1.8125 0.140625 1.875 0.078125 1.90625 0 L 4.078125 -3.578125 L 4.46875 -0.046875 C 4.484375 0.109375 4.515625 0.140625 4.625 0.140625 C 4.734375 0.140625 4.78125 0.078125 4.828125 0 Z M 7.21875 -3.9375 "
               style="stroke:none;" />
          </symbol>
        </g>
      </defs>
      <g
         id="textext-3c8a6701-5">
        <g
           id="g6997"
           style="fill:rgb(0%,0%,0%);fill-opacity:1;">
          <use
             id="use6999"
             y="134.765"
             x="223.432"
             xlink:href="#textext-3c8a6701-1" />
        </g>
        <g
           id="g7001"
           style="fill:rgb(0%,0%,0%);fill-opacity:1;">
          <use
             id="use7003"
             y="136.259"
             x="229.828"
             xlink:href="#textext-3c8a6701-3" />
        </g>
        <g
           id="g7005"
           style="fill:rgb(0%,0%,0%);fill-opacity:1;">
          <use
             id="use7007"
             y="136.259"
             x="235.10368"
             xlink:href="#textext-3c8a6701-4" />
        </g>
      </g>
    </g>
  </g>
</svg>
