<?xml version="1.0" encoding="UTF-8" standalone="no"?>
<!-- Created with Inkscape (http://www.inkscape.org/) -->

<svg
   xmlns:ns0="http://www.iki.fi/pav/software/textext/"
   xmlns:dc="http://purl.org/dc/elements/1.1/"
   xmlns:cc="http://creativecommons.org/ns#"
   xmlns:rdf="http://www.w3.org/1999/02/22-rdf-syntax-ns#"
   xmlns:svg="http://www.w3.org/2000/svg"
   xmlns="http://www.w3.org/2000/svg"
   xmlns:xlink="http://www.w3.org/1999/xlink"
   xmlns:sodipodi="http://sodipodi.sourceforge.net/DTD/sodipodi-0.dtd"
   xmlns:inkscape="http://www.inkscape.org/namespaces/inkscape"
   width="744.09448819"
   height="1052.3622047"
   id="svg2"
   version="1.1"
   inkscape:version="0.48.3.1 r9886"
   sodipodi:docname="optflownormal.svg"
   inkscape:export-filename="/home/francois/Documents/Courses/VisionAndImageProcessing/lectures/Francois/FIGURES/optflownormal.png"
   inkscape:export-xdpi="90"
   inkscape:export-ydpi="90">
  <sodipodi:namedview
     id="base"
     pagecolor="#ffffff"
     bordercolor="#666666"
     borderopacity="1.0"
     inkscape:pageopacity="0.0"
     inkscape:pageshadow="2"
     inkscape:zoom="0.49497475"
     inkscape:cx="-452.89082"
     inkscape:cy="520.73544"
     inkscape:document-units="px"
     inkscape:current-layer="layer1"
     showgrid="false"
     inkscape:window-width="1680"
     inkscape:window-height="1026"
     inkscape:window-x="0"
     inkscape:window-y="24"
     inkscape:window-maximized="1" />
  <defs
     id="defs4">
    <marker
       inkscape:stockid="Arrow1Lend"
       orient="auto"
       refY="0.0"
       refX="0.0"
       id="Arrow1Lend"
       style="overflow:visible;">
      <path
         id="path3816"
         d="M 0.0,0.0 L 5.0,-5.0 L -12.5,0.0 L 5.0,5.0 L 0.0,0.0 z "
         style="fill-rule:evenodd;stroke:#000000;stroke-width:1.0pt;"
         transform="scale(0.8) rotate(180) translate(12.5,0)" />
    </marker>
  </defs>
  <metadata
     id="metadata7">
    <rdf:RDF>
      <cc:Work
         rdf:about="">
        <dc:format>image/svg+xml</dc:format>
        <dc:type
           rdf:resource="http://purl.org/dc/dcmitype/StillImage" />
        <dc:title></dc:title>
      </cc:Work>
    </rdf:RDF>
  </metadata>
  <g
     inkscape:label="Layer 1"
     inkscape:groupmode="layer"
     id="layer1">
    <rect
       style="fill:none;fill-opacity:1;stroke:#000000;stroke-width:7;stroke-miterlimit:4;stroke-opacity:1;stroke-dasharray:none;stroke-dashoffset:0"
       id="rect2985"
       width="1414.2858"
       height="1102.8572"
       x="-817.14288"
       y="12.362183" />
    <path
       style="fill:none;stroke:#000000;stroke-width:1px;stroke-linecap:butt;stroke-linejoin:miter;stroke-opacity:1"
       d="m -817.14286,606.6479 c 0,0 94.01976,-10.8885 140,-2.85715 73.35199,12.81236 144.27196,42.44672 208.57143,80 55.49183,32.40929 97.13616,84.3329 148.57143,122.85715 62.58095,46.8722 131.89863,84.29864 194.28571,131.42857 43.686832,33.00294 92.617948,62.09823 125.71429,105.71433 13.912346,18.3344 28.571429,62.8571 28.571429,62.8571"
       id="path3755"
       inkscape:connector-curvature="0"
       sodipodi:nodetypes="caaaaac" />
    <path
       style="fill:none;stroke:none;stroke-width:20;stroke-miterlimit:4;stroke-opacity:1;stroke-dasharray:none;stroke-dashoffset:0"
       d="m -813,859.26684 0,-249.66676 6.42857,-1.80815 c 3.53572,-0.99448 30.21429,-2.57154 59.28572,-3.50459 47.17528,-1.51408 56.045,-1.03448 82.51316,4.46163 57.01041,11.83818 115.80657,34.06394 174.62969,66.01241 35.25249,19.1466 54.85769,33.38234 90.94357,66.03595 59.70498,54.02623 83.36375,72.38442 150.485,116.76991 87.39575,57.79246 109.96792,73.4412 164.285719,113.8952 C -16.4292,1022.106 5.5094857,1047.365 21.260857,1093.147 l 5.431372,15.7866 -419.846119,0 -419.84611,0 0,-249.66676 z"
       id="path3757"
       inkscape:connector-curvature="0" />
    <path
       style="fill:none;stroke:#ff0000;stroke-opacity:1"
       d="m -813,859.26684 0,-249.66676 6.42857,-1.80815 c 3.53572,-0.99448 30.21429,-2.57154 59.28572,-3.50459 47.17528,-1.51408 56.045,-1.03448 82.51316,4.46163 57.01041,11.83818 115.80657,34.06394 174.62969,66.01241 35.25249,19.1466 54.85769,33.38234 90.94357,66.03595 59.70498,54.02623 83.36375,72.38442 150.485,116.76991 87.39575,57.79246 109.96792,73.4412 164.285719,113.8952 C -16.4292,1022.106 5.5094857,1047.365 21.260857,1093.147 l 5.431372,15.7866 -419.846119,0 -419.84611,0 0,-249.66676 z"
       id="path3759"
       inkscape:connector-curvature="0" />
    <path
       style="fill:#ff0000;stroke:#ff0000;stroke-width:20;stroke-miterlimit:4;stroke-opacity:1;stroke-dasharray:none;stroke-dashoffset:0;fill-opacity:1"
       d="m -810.14286,859.10223 c 0,-157.91429 1.00794,-247.59717 2.79513,-248.70172 1.53732,-0.95011 28.85874,-2.47493 60.71428,-3.38849 56.30362,-1.61468 58.83565,-1.44096 90.77631,6.22813 46.6901,11.21049 83.91346,24.63761 130.66905,47.13462 52.78963,25.40036 81.17323,44.15389 124.21652,82.07196 68.13168,60.01919 90.47586,76.92619 182.25728,137.90727 102.66866,68.21473 176.318147,123.916 202.116547,152.8611 15.2949144,17.1605 25.3084001,33.8296 34.758629,57.8614 l 5.8986,15 -417.101176,0 -417.10117,0 0,-246.97427 z"
       id="path3805"
       inkscape:connector-curvature="0" />
    <path
       style="fill:none;stroke:#000000;stroke-width:5;stroke-linecap:butt;stroke-linejoin:miter;stroke-opacity:1;stroke-miterlimit:4;stroke-dasharray:none;marker-end:url(#Arrow1Lend)"
       d="M -305.71429,803.79075 -48.571429,432.36218"
       id="path3807"
       inkscape:connector-curvature="0" />
    <g
       transform="matrix(8,0,0,8,-1831.4286,-640)"
       ns0:text="$\\nabla I$"
       ns0:preamble="/home/francois/Documents/Mypapers/InkscapeHeader/header.inc"
       id="g4266">
      <defs
         id="defs4268">
        <g
           id="g4270">
          <symbol
             style="overflow:visible"
             overflow="visible"
             id="textext-50ce307b-0">
            <path
               inkscape:connector-curvature="0"
               style="stroke:none"
               d="M 7.78125,-6.59375 C 7.796875,-6.625 7.828125,-6.6875 7.828125,-6.734375 7.828125,-6.796875 7.8125,-6.8125 7.59375,-6.8125 l -6.890625,0 c -0.21875,0 -0.234375,0.015625 -0.234375,0.078125 0,0.046875 0.03125,0.109375 0.046875,0.140625 L 3.875,0.140625 c 0.078125,0.125 0.109375,0.1875 0.265625,0.1875 0.171875,0 0.203125,-0.0625 0.28125,-0.1875 z m -6.078125,0.5 5.46875,0 -2.71875,5.484375 z m 0,0"
               id="path4273" />
          </symbol>
          <symbol
             style="overflow:visible"
             overflow="visible"
             id="textext-50ce307b-1">
            <path
               inkscape:connector-curvature="0"
               style="stroke:none"
               d="M 3.734375,-6.046875 C 3.8125,-6.40625 3.84375,-6.5 4.640625,-6.5 c 0.234375,0 0.3125,0 0.3125,-0.1875 0,-0.125 -0.109375,-0.125 -0.140625,-0.125 -0.296875,0 -1.03125,0.03125 -1.328125,0.03125 -0.296875,0 -1.015625,-0.03125 -1.328125,-0.03125 -0.0625,0 -0.1875,0 -0.1875,0.203125 C 1.96875,-6.5 2.046875,-6.5 2.25,-6.5 c 0.40625,0 0.6875,0 0.6875,0.1875 0,0.046875 0,0.078125 -0.03125,0.15625 l -1.34375,5.375 c -0.09375,0.375 -0.109375,0.46875 -0.90625,0.46875 -0.234375,0 -0.3125,0 -0.3125,0.203125 C 0.34375,0 0.453125,0 0.484375,0 0.78125,0 1.5,-0.03125 1.796875,-0.03125 2.09375,-0.03125 2.828125,0 3.125,0 c 0.078125,0 0.203125,0 0.203125,-0.1875 0,-0.125 -0.078125,-0.125 -0.296875,-0.125 -0.1875,0 -0.234375,0 -0.421875,-0.015625 -0.21875,-0.015625 -0.25,-0.0625 -0.25,-0.171875 0,-0.078125 0.015625,-0.15625 0.03125,-0.234375 z m 0,0"
               id="path4276" />
          </symbol>
        </g>
      </defs>
      <g
         id="textext-50ce307b-2">
        <g
           style="fill:#000000;fill-opacity:1"
           id="g4279">
          <use
             height="1052.3622"
             width="744.09448"
             xlink:href="#textext-50ce307b-0"
             x="223.43201"
             y="134.765"
             id="use4281" />
        </g>
        <g
           style="fill:#000000;fill-opacity:1"
           id="g4283">
          <use
             height="1052.3622"
             width="744.09448"
             xlink:href="#textext-50ce307b-1"
             x="231.73399"
             y="134.765"
             id="use4285" />
        </g>
      </g>
    </g>
    <path
       inkscape:connector-curvature="0"
       id="path4310"
       d="M -305.71429,803.79076 -677.14285,546.64789"
       style="fill:none;stroke:#000000;stroke-width:5;stroke-linecap:butt;stroke-linejoin:miter;stroke-miterlimit:4;stroke-opacity:1;stroke-dasharray:none;marker-end:url(#Arrow1Lend)" />
    <g
       id="g4362"
       transform="matrix(8,0,0,8,-2597.1429,-574.28571)"
       ns0:preamble="/home/francois/Documents/Mypapers/InkscapeHeader/header.inc"
       ns0:text="$\\nabla I^\\bot$">
      <defs
         id="defs4364">
        <g
           id="g4366">
          <symbol
             id="textext-8ac7866e-0"
             overflow="visible"
             style="overflow:visible">
            <path
               id="path4369"
               d="M 7.78125,-6.59375 C 7.796875,-6.625 7.828125,-6.6875 7.828125,-6.734375 7.828125,-6.796875 7.8125,-6.8125 7.59375,-6.8125 l -6.890625,0 c -0.21875,0 -0.234375,0.015625 -0.234375,0.078125 0,0.046875 0.03125,0.109375 0.046875,0.140625 L 3.875,0.140625 c 0.078125,0.125 0.109375,0.1875 0.265625,0.1875 0.171875,0 0.203125,-0.0625 0.28125,-0.1875 z m -6.078125,0.5 5.46875,0 -2.71875,5.484375 z m 0,0"
               style="stroke:none"
               inkscape:connector-curvature="0" />
          </symbol>
          <symbol
             id="textext-8ac7866e-1"
             overflow="visible"
             style="overflow:visible">
            <path
               id="path4372"
               d="M 3.734375,-6.046875 C 3.8125,-6.40625 3.84375,-6.5 4.640625,-6.5 c 0.234375,0 0.3125,0 0.3125,-0.1875 0,-0.125 -0.109375,-0.125 -0.140625,-0.125 -0.296875,0 -1.03125,0.03125 -1.328125,0.03125 -0.296875,0 -1.015625,-0.03125 -1.328125,-0.03125 -0.0625,0 -0.1875,0 -0.1875,0.203125 C 1.96875,-6.5 2.046875,-6.5 2.25,-6.5 c 0.40625,0 0.6875,0 0.6875,0.1875 0,0.046875 0,0.078125 -0.03125,0.15625 l -1.34375,5.375 c -0.09375,0.375 -0.109375,0.46875 -0.90625,0.46875 -0.234375,0 -0.3125,0 -0.3125,0.203125 C 0.34375,0 0.453125,0 0.484375,0 0.78125,0 1.5,-0.03125 1.796875,-0.03125 2.09375,-0.03125 2.828125,0 3.125,0 c 0.078125,0 0.203125,0 0.203125,-0.1875 0,-0.125 -0.078125,-0.125 -0.296875,-0.125 -0.1875,0 -0.234375,0 -0.421875,-0.015625 -0.21875,-0.015625 -0.25,-0.0625 -0.25,-0.171875 0,-0.078125 0.015625,-0.15625 0.03125,-0.234375 z m 0,0"
               style="stroke:none"
               inkscape:connector-curvature="0" />
          </symbol>
          <symbol
             id="textext-8ac7866e-2"
             overflow="visible"
             style="overflow:visible">
            <path
               id="path4375"
               d="m 3.28125,-4.5625 c 0,-0.109375 0,-0.28125 -0.171875,-0.28125 -0.171875,0 -0.171875,0.171875 -0.171875,0.28125 l 0,4.21875 -2.125,0 c -0.109375,0 -0.28125,0 -0.28125,0.171875 C 0.53125,0 0.703125,0 0.8125,0 L 5.40625,0 C 5.515625,0 5.6875,0 5.6875,-0.171875 5.6875,-0.34375 5.53125,-0.34375 5.40625,-0.34375 l -2.125,0 z m 0,0"
               style="stroke:none"
               inkscape:connector-curvature="0" />
          </symbol>
        </g>
      </defs>
      <g
         id="textext-8ac7866e-3">
        <g
           id="g4378"
           style="fill:#000000;fill-opacity:1">
          <use
             id="use4380"
             y="134.765"
             x="223.43201"
             xlink:href="#textext-8ac7866e-0"
             width="744.09448"
             height="1052.3622" />
        </g>
        <g
           id="g4382"
           style="fill:#000000;fill-opacity:1">
          <use
             id="use4384"
             y="134.765"
             x="231.73399"
             xlink:href="#textext-8ac7866e-1"
             width="744.09448"
             height="1052.3622" />
        </g>
        <g
           id="g4386"
           style="fill:#000000;fill-opacity:1">
          <use
             id="use4388"
             y="131.149"
             x="236.896"
             xlink:href="#textext-8ac7866e-2"
             width="744.09448"
             height="1052.3622" />
        </g>
      </g>
    </g>
    <path
       inkscape:connector-curvature="0"
       id="path4430"
       d="M -307.73901,796.05174 -442.26098,698.67262"
       style="fill:none;stroke:#00c800;stroke-width:4.10009003;stroke-linecap:butt;stroke-linejoin:miter;stroke-miterlimit:4;stroke-opacity:1;stroke-dasharray:none;marker-end:url(#Arrow1Lend)" />
    <path
       style="fill:none;stroke:#00c800;stroke-width:4.11244822;stroke-linecap:butt;stroke-linejoin:miter;stroke-miterlimit:4;stroke-opacity:1;stroke-dasharray:none;marker-end:url(#Arrow1Lend)"
       d="m -308.68338,799.61698 95.93819,-137.36675"
       id="path4432"
       inkscape:connector-curvature="0" />
    <g
       id="g4650"
       transform="matrix(8,0,0,8,-2031.4286,-272.85714)"
       ns0:preamble="/home/francois/Documents/Mypapers/InkscapeHeader/header.inc"
       ns0:text=" \\color{green}\n$\\frac{\\nabla I}{|\\nabla I|}$">
      <defs
         id="defs4652">
        <g
           id="g4654">
          <symbol
             id="textext-e18e7737-0"
             overflow="visible"
             style="overflow:visible">
            <path
               id="path4657"
               d="M 6.109375,-4.578125 C 6.125,-4.59375 6.15625,-4.65625 6.15625,-4.703125 c 0,-0.0625 -0.046875,-0.0625 -0.171875,-0.0625 l -5.328125,0 c -0.125,0 -0.171875,0 -0.171875,0.0625 0,0.046875 0.03125,0.109375 0.046875,0.125 l 2.5625,4.625 c 0.0625,0.109375 0.078125,0.15625 0.21875,0.15625 0.140625,0 0.171875,-0.03125 0.234375,-0.140625 z m -4.625,0.375 4.125,0 -2.0625,3.734375 z m 0,0"
               style="stroke:none"
               inkscape:connector-curvature="0" />
          </symbol>
          <symbol
             id="textext-e18e7737-1"
             overflow="visible"
             style="overflow:visible">
            <path
               id="path4660"
               d="m 1.359375,-4.953125 c 0,-0.109375 0,-0.265625 -0.171875,-0.265625 -0.171875,0 -0.171875,0.15625 -0.171875,0.265625 l 0,6.421875 c 0,0.109375 0,0.265625 0.15625,0.265625 0.1875,0 0.1875,-0.15625 0.1875,-0.265625 z m 0,0"
               style="stroke:none"
               inkscape:connector-curvature="0" />
          </symbol>
          <symbol
             id="textext-e18e7737-2"
             overflow="visible"
             style="overflow:visible">
            <path
               id="path4663"
               d="m 2.875,-4.203125 c 0.0625,-0.25 0.078125,-0.3125 0.609375,-0.3125 0.171875,0 0.25,0 0.25,-0.140625 0,-0.0625 -0.046875,-0.109375 -0.109375,-0.109375 -0.140625,0 -0.328125,0.03125 -0.46875,0.03125 -0.15625,0 -0.3125,0 -0.46875,0 0,0 -0.484375,0 -0.484375,0 -0.15625,0 -0.328125,-0.03125 -0.484375,-0.03125 -0.046875,0 -0.140625,0 -0.140625,0.15625 0,0.09375 0.078125,0.09375 0.234375,0.09375 0,0 0.140625,0 0.25,0.015625 0.140625,0.015625 0.203125,0.03125 0.203125,0.109375 0,0.03125 -0.015625,0.078125 -0.03125,0.140625 l -0.9375,3.703125 C 1.25,-0.328125 1.21875,-0.25 0.703125,-0.25 c -0.1875,0 -0.25,0 -0.25,0.15625 0,0 0,0.09375 0.109375,0.09375 C 0.765625,0 1.296875,-0.03125 1.5,-0.03125 l 0.484375,0.015625 C 2.125,-0.015625 2.3125,0 2.453125,0 2.5,0 2.609375,0 2.609375,-0.15625 2.609375,-0.25 2.515625,-0.25 2.390625,-0.25 2.375,-0.25 2.21875,-0.25 2.078125,-0.265625 1.921875,-0.28125 1.921875,-0.3125 1.921875,-0.375 c 0,0 0,-0.046875 0.03125,-0.140625 z m 0,0"
               style="stroke:none"
               inkscape:connector-curvature="0" />
          </symbol>
        </g>
      </defs>
      <g
         id="textext-e18e7737-3">
        <g
           id="g4666"
           style="fill:#00ff00;fill-opacity:1">
          <use
             id="use4668"
             y="130.842"
             x="226.994"
             xlink:href="#textext-e18e7737-0"
             width="744.09448"
             height="1052.3622" />
        </g>
        <g
           id="g4670"
           style="fill:#00ff00;fill-opacity:1">
          <use
             id="use4672"
             y="130.842"
             x="233.649"
             xlink:href="#textext-e18e7737-2"
             width="744.09448"
             height="1052.3622" />
        </g>
        <path
           id="path4674"
           transform="matrix(1,0,0,-1,224.628,132.274)"
           d="m -0.128,-0.226 16,0"
           style="fill:none;stroke:#00ff00;stroke-width:1;stroke-linecap:butt;stroke-linejoin:miter;stroke-miterlimit:10;stroke-opacity:1"
           inkscape:connector-curvature="0" />
        <g
           id="g4676"
           style="fill:#00ff00;fill-opacity:1">
          <use
             id="use4678"
             y="138.2"
             x="224.62801"
             xlink:href="#textext-e18e7737-1"
             width="744.09448"
             height="1052.3622" />
          <use
             id="use4680"
             y="138.2"
             x="226.99422"
             xlink:href="#textext-e18e7737-0"
             width="744.09448"
             height="1052.3622" />
        </g>
        <g
           id="g4682"
           style="fill:#00ff00;fill-opacity:1">
          <use
             id="use4684"
             y="138.2"
             x="233.649"
             xlink:href="#textext-e18e7737-2"
             width="744.09448"
             height="1052.3622" />
        </g>
        <g
           id="g4686"
           style="fill:#00ff00;fill-opacity:1">
          <use
             id="use4688"
             y="138.2"
             x="237.722"
             xlink:href="#textext-e18e7737-1"
             width="744.09448"
             height="1052.3622" />
        </g>
      </g>
    </g>
    <g
       ns0:text=" \\color{green}\n$\\frac{\\nabla I^\\bot}{|\\nabla I|}$"
       ns0:preamble="/home/francois/Documents/Mypapers/InkscapeHeader/header.inc"
       transform="matrix(8,0,0,8,-2377.1429,-274.28572)"
       id="g4864">
      <defs
         id="defs4866">
        <g
           id="g4868">
          <symbol
             style="overflow:visible"
             overflow="visible"
             id="textext-5bdff39a-0">
            <path
               inkscape:connector-curvature="0"
               style="stroke:none"
               d="M 6.109375,-4.578125 C 6.125,-4.59375 6.15625,-4.65625 6.15625,-4.703125 c 0,-0.0625 -0.046875,-0.0625 -0.171875,-0.0625 l -5.328125,0 c -0.125,0 -0.171875,0 -0.171875,0.0625 0,0.046875 0.03125,0.109375 0.046875,0.125 l 2.5625,4.625 c 0.0625,0.109375 0.078125,0.15625 0.21875,0.15625 0.140625,0 0.171875,-0.03125 0.234375,-0.140625 z m -4.625,0.375 4.125,0 -2.0625,3.734375 z m 0,0"
               id="path4871" />
          </symbol>
          <symbol
             style="overflow:visible"
             overflow="visible"
             id="textext-5bdff39a-1">
            <path
               inkscape:connector-curvature="0"
               style="stroke:none"
               d="m 1.359375,-4.953125 c 0,-0.109375 0,-0.265625 -0.171875,-0.265625 -0.171875,0 -0.171875,0.15625 -0.171875,0.265625 l 0,6.421875 c 0,0.109375 0,0.265625 0.15625,0.265625 0.1875,0 0.1875,-0.15625 0.1875,-0.265625 z m 0,0"
               id="path4874" />
          </symbol>
          <symbol
             style="overflow:visible"
             overflow="visible"
             id="textext-5bdff39a-2">
            <path
               inkscape:connector-curvature="0"
               style="stroke:none"
               d="m 2.875,-4.203125 c 0.0625,-0.25 0.078125,-0.3125 0.609375,-0.3125 0.171875,0 0.25,0 0.25,-0.140625 0,-0.0625 -0.046875,-0.109375 -0.109375,-0.109375 -0.140625,0 -0.328125,0.03125 -0.46875,0.03125 -0.15625,0 -0.3125,0 -0.46875,0 0,0 -0.484375,0 -0.484375,0 -0.15625,0 -0.328125,-0.03125 -0.484375,-0.03125 -0.046875,0 -0.140625,0 -0.140625,0.15625 0,0.09375 0.078125,0.09375 0.234375,0.09375 0,0 0.140625,0 0.25,0.015625 0.140625,0.015625 0.203125,0.03125 0.203125,0.109375 0,0.03125 -0.015625,0.078125 -0.03125,0.140625 l -0.9375,3.703125 C 1.25,-0.328125 1.21875,-0.25 0.703125,-0.25 c -0.1875,0 -0.25,0 -0.25,0.15625 0,0 0,0.09375 0.109375,0.09375 C 0.765625,0 1.296875,-0.03125 1.5,-0.03125 l 0.484375,0.015625 C 2.125,-0.015625 2.3125,0 2.453125,0 2.5,0 2.609375,0 2.609375,-0.15625 2.609375,-0.25 2.515625,-0.25 2.390625,-0.25 2.375,-0.25 2.21875,-0.25 2.078125,-0.265625 1.921875,-0.28125 1.921875,-0.3125 1.921875,-0.375 c 0,0 0,-0.046875 0.03125,-0.140625 z m 0,0"
               id="path4877" />
          </symbol>
          <symbol
             style="overflow:visible"
             overflow="visible"
             id="textext-5bdff39a-3">
            <path
               inkscape:connector-curvature="0"
               style="stroke:none"
               d="m 2.84375,-3.25 c 0,-0.078125 0,-0.203125 -0.140625,-0.203125 C 2.5625,-3.453125 2.5625,-3.3125 2.5625,-3.25 l 0,2.96875 -1.71875,0 c -0.078125,0 -0.21875,0 -0.21875,0.140625 C 0.625,0 0.765625,0 0.84375,0 L 4.5625,0 c 0.078125,0 0.21875,0 0.21875,-0.140625 0,-0.140625 -0.140625,-0.140625 -0.21875,-0.140625 l -1.71875,0 z m 0,0"
               id="path4880" />
          </symbol>
        </g>
      </defs>
      <g
         id="textext-5bdff39a-4">
        <g
           style="fill:#00ff00;fill-opacity:1"
           id="g4883">
          <use
             height="1052.3622"
             width="744.09448"
             xlink:href="#textext-5bdff39a-0"
             x="224.62801"
             y="131.26801"
             id="use4885" />
        </g>
        <g
           style="fill:#00ff00;fill-opacity:1"
           id="g4887">
          <use
             height="1052.3622"
             width="744.09448"
             xlink:href="#textext-5bdff39a-2"
             x="231.283"
             y="131.26801"
             id="use4889" />
        </g>
        <g
           style="fill:#00ff00;fill-opacity:1"
           id="g4891">
          <use
             height="1052.3622"
             width="744.09448"
             xlink:href="#textext-5bdff39a-3"
             x="235.356"
             y="128.261"
             id="use4893" />
        </g>
        <path
           inkscape:connector-curvature="0"
           style="fill:none;stroke:#00ff00;stroke-width:1;stroke-linecap:butt;stroke-linejoin:miter;stroke-miterlimit:10;stroke-opacity:1"
           d="m -0.128,0.2 17,0"
           transform="matrix(1,0,0,-1,224.628,132.7)"
           id="path4895" />
        <g
           style="fill:#00ff00;fill-opacity:1"
           id="g4897">
          <use
             height="1052.3622"
             width="744.09448"
             xlink:href="#textext-5bdff39a-1"
             x="225.209"
             y="138.62601"
             id="use4899" />
          <use
             height="1052.3622"
             width="744.09448"
             xlink:href="#textext-5bdff39a-0"
             x="227.57521"
             y="138.62601"
             id="use4901" />
        </g>
        <g
           style="fill:#00ff00;fill-opacity:1"
           id="g4903">
          <use
             height="1052.3622"
             width="744.09448"
             xlink:href="#textext-5bdff39a-2"
             x="234.231"
             y="138.62601"
             id="use4905" />
        </g>
        <g
           style="fill:#00ff00;fill-opacity:1"
           id="g4907">
          <use
             height="1052.3622"
             width="744.09448"
             xlink:href="#textext-5bdff39a-1"
             x="238.304"
             y="138.62601"
             id="use4909" />
        </g>
      </g>
    </g>
    <path
       inkscape:connector-curvature="0"
       id="path5001"
       d="M -307.14286,796.6479 -358.57143,469.50504"
       style="fill:#ff0000;stroke:#0000ff;stroke-width:6;stroke-linecap:butt;stroke-linejoin:miter;stroke-opacity:1;stroke-miterlimit:4;stroke-dasharray:none;marker-end:url(#Arrow1Lend);fill-opacity:1" />
    <g
       id="g5278"
       ns0:preamble="/home/francois/Documents/Mypapers/InkscapeHeader/header.inc"
       ns0:text="$\\vec{v}$"
       transform="matrix(8,0,0,8,-2125.7143,-617.14286)">
      <defs
         id="defs5280">
        <g
           id="g5282">
          <symbol
             id="textext-305eed02-0"
             overflow="visible"
             style="overflow:visible">
            <path
               id="path5285"
               d="m 5.359375,-5.9375 c -0.140625,0.140625 -0.46875,0.421875 -0.46875,0.59375 0,0.09375 0.09375,0.203125 0.1875,0.203125 0.09375,0 0.140625,-0.078125 0.203125,-0.140625 C 5.390625,-5.421875 5.625,-5.703125 6.0625,-5.921875 6.125,-5.96875 6.234375,-6.015625 6.234375,-6.125 6.234375,-6.234375 6.15625,-6.28125 6.09375,-6.328125 5.875,-6.484375 5.765625,-6.65625 5.6875,-6.890625 5.65625,-6.984375 5.625,-7.125 5.484375,-7.125 c -0.140625,0 -0.203125,0.140625 -0.203125,0.21875 0,0.046875 0.078125,0.359375 0.234375,0.578125 l -3.359375,0 c -0.15625,0 -0.34375,0 -0.34375,0.203125 0,0.1875 0.1875,0.1875 0.34375,0.1875 z m 0,0"
               style="stroke:none"
               inkscape:connector-curvature="0" />
          </symbol>
          <symbol
             id="textext-305eed02-1"
             overflow="visible"
             style="overflow:visible">
            <path
               id="path5288"
               d="m 4.671875,-3.703125 c 0,-0.546875 -0.265625,-0.703125 -0.4375,-0.703125 -0.25,0 -0.5,0.265625 -0.5,0.484375 0,0.125 0.046875,0.1875 0.15625,0.296875 0.21875,0.203125 0.34375,0.453125 0.34375,0.8125 0,0.421875 -0.609375,2.703125 -1.765625,2.703125 -0.515625,0 -0.75,-0.34375 -0.75,-0.875 0,-0.546875 0.28125,-1.28125 0.578125,-2.109375 0.078125,-0.171875 0.125,-0.3125 0.125,-0.5 0,-0.4375 -0.3125,-0.8125 -0.8125,-0.8125 -0.9375,0 -1.3125,1.453125 -1.3125,1.53125 0,0.109375 0.09375,0.109375 0.109375,0.109375 0.109375,0 0.109375,-0.03125 0.15625,-0.1875 0.296875,-1 0.71875,-1.234375 1.015625,-1.234375 0.078125,0 0.25,0 0.25,0.3125 0,0.25 -0.109375,0.53125 -0.171875,0.703125 -0.4375,1.15625 -0.5625,1.609375 -0.5625,2.046875 0,1.078125 0.875,1.234375 1.328125,1.234375 1.671875,0 2.25,-3.296875 2.25,-3.8125 z m 0,0"
               style="stroke:none"
               inkscape:connector-curvature="0" />
          </symbol>
        </g>
      </defs>
      <g
         id="textext-305eed02-2">
        <g
           id="g5291"
           style="fill:#000000;fill-opacity:1">
          <use
             id="use5293"
             y="134.765"
             x="223.045"
             xlink:href="#textext-305eed02-0"
             width="744.09448"
             height="1052.3622" />
        </g>
        <g
           id="g5295"
           style="fill:#000000;fill-opacity:1">
          <use
             id="use5297"
             y="134.765"
             x="223.43355"
             xlink:href="#textext-305eed02-1"
             width="744.09448"
             height="1052.3622" />
        </g>
      </g>
    </g>
    <path
       style="fill:none;stroke:#000000;stroke-width:5;stroke-linecap:butt;stroke-linejoin:miter;stroke-miterlimit:4;stroke-opacity:1;stroke-dasharray:30, 30;stroke-dashoffset:0"
       d="M -169.70563,602.8443 -361.63461,461.42294 -493.96459,671.53467"
       id="path5402"
       inkscape:connector-curvature="0"
       sodipodi:nodetypes="ccc" />
    <g
       transform="matrix(8,0,0,8,-1925.4272,-430.93836)"
       ns0:text="$\\alpha$"
       ns0:preamble="/home/francois/Documents/Mypapers/InkscapeHeader/header.inc"
       id="g5510">
      <defs
         id="defs5512">
        <g
           id="g5514">
          <symbol
             style="overflow:visible"
             overflow="visible"
             id="textext-783e9d99-0">
            <path
               inkscape:connector-curvature="0"
               style="stroke:none"
               d="m 4.75,-2.359375 c 0,-1.5625 -0.921875,-2.046875 -1.65625,-2.046875 -1.375,0 -2.6875,1.421875 -2.6875,2.828125 0,0.9375 0.59375,1.6875 1.625,1.6875 0.625,0 1.34375,-0.234375 2.09375,-0.84375 0.125,0.53125 0.453125,0.84375 0.90625,0.84375 0.53125,0 0.84375,-0.546875 0.84375,-0.703125 0,-0.078125 -0.0625,-0.109375 -0.125,-0.109375 -0.0625,0 -0.09375,0.03125 -0.125,0.109375 -0.1875,0.484375 -0.546875,0.484375 -0.5625,0.484375 -0.3125,0 -0.3125,-0.78125 -0.3125,-1.015625 0,-0.203125 0,-0.234375 0.109375,-0.34375 C 5.796875,-2.65625 6,-3.8125 6,-3.8125 6,-3.84375 5.984375,-3.921875 5.875,-3.921875 c -0.09375,0 -0.09375,0.03125 -0.140625,0.21875 -0.1875,0.625 -0.515625,1.375 -0.984375,1.96875 z m -0.65625,1.375 c -0.890625,0.765625 -1.65625,0.875 -2.046875,0.875 -0.59375,0 -0.90625,-0.453125 -0.90625,-1.09375 0,-0.484375 0.265625,-1.5625 0.578125,-2.0625 C 2.1875,-4 2.734375,-4.1875 3.078125,-4.1875 c 0.984375,0 0.984375,1.3125 0.984375,2.078125 0,0.375 0,0.953125 0.03125,1.125 z m 0,0"
               id="path5517" />
          </symbol>
        </g>
      </defs>
      <g
         id="textext-783e9d99-1">
        <g
           style="fill:#000000;fill-opacity:1"
           id="g5520">
          <use
             height="1052.3622"
             width="744.09448"
             xlink:href="#textext-783e9d99-0"
             x="223.43201"
             y="134.765"
             id="use5522" />
        </g>
      </g>
    </g>
    <g
       id="g5766"
       transform="matrix(8,0,0,8,-2309.2852,-449.12111)"
       ns0:preamble="/home/francois/Documents/Mypapers/InkscapeHeader/header.inc"
       ns0:text="$\\beta$">
      <defs
         id="defs5768">
        <g
           id="g5770">
          <symbol
             id="textext-f4413498-0"
             overflow="visible"
             style="overflow:visible">
            <path
               id="path5773"
               d="m 5.734375,-5.671875 c 0,-0.75 -0.546875,-1.359375 -1.359375,-1.359375 -0.578125,0 -0.859375,0.15625 -1.203125,0.40625 C 2.625,-6.21875 2.078125,-5.25 1.890625,-4.5 L 0.296875,1.828125 C 0.296875,1.875 0.34375,1.9375 0.421875,1.9375 0.5,1.9375 0.53125,1.90625 0.53125,1.890625 L 1.234375,-0.875 c 0.1875,0.609375 0.625,0.96875 1.359375,0.96875 C 3.3125,0.09375 4.0625,-0.25 4.515625,-0.6875 5,-1.140625 5.3125,-1.78125 5.3125,-2.515625 c 0,-0.71875 -0.375,-1.25 -0.734375,-1.484375 0.578125,-0.34375 1.15625,-0.953125 1.15625,-1.671875 z M 3.9375,-4.015625 c -0.125,0.046875 -0.234375,0.0625 -0.484375,0.0625 -0.140625,0 -0.328125,0.015625 -0.4375,-0.03125 0.03125,-0.109375 0.390625,-0.078125 0.5,-0.078125 0.203125,0 0.296875,0 0.421875,0.046875 z M 5.171875,-5.90625 c 0,0.703125 -0.375,1.421875 -0.890625,1.734375 C 4,-4.28125 3.8125,-4.296875 3.515625,-4.296875 c -0.21875,0 -0.78125,-0.015625 -0.78125,0.3125 0,0.28125 0.515625,0.25 0.6875,0.25 0.375,0 0.53125,0 0.828125,-0.125 0.375,0.359375 0.421875,0.671875 0.4375,1.125 0.015625,0.578125 -0.21875,1.328125 -0.5,1.71875 C 3.796875,-0.484375 3.125,-0.125 2.5625,-0.125 c -0.765625,0 -1.140625,-0.578125 -1.140625,-1.28125 0,-0.09375 0,-0.25 0.046875,-0.4375 L 2.109375,-4.359375 C 2.328125,-5.21875 3.046875,-6.8125 4.25,-6.8125 c 0.578125,0 0.921875,0.3125 0.921875,0.90625 z m 0,0"
               style="stroke:none"
               inkscape:connector-curvature="0" />
          </symbol>
        </g>
      </defs>
      <g
         id="textext-f4413498-1">
        <g
           id="g5776"
           style="fill:#000000;fill-opacity:1">
          <use
             id="use5778"
             y="134.765"
             x="223.43201"
             xlink:href="#textext-f4413498-0"
             width="744.09448"
             height="1052.3622" />
        </g>
      </g>
    </g>
  </g>
</svg>
