<?xml version="1.0" encoding="UTF-8" standalone="no"?>
<!-- Created with Inkscape (http://www.inkscape.org/) -->

<svg
   xmlns:ns0="http://www.iki.fi/pav/software/textext/"
   xmlns:dc="http://purl.org/dc/elements/1.1/"
   xmlns:cc="http://creativecommons.org/ns#"
   xmlns:rdf="http://www.w3.org/1999/02/22-rdf-syntax-ns#"
   xmlns:svg="http://www.w3.org/2000/svg"
   xmlns="http://www.w3.org/2000/svg"
   xmlns:xlink="http://www.w3.org/1999/xlink"
   xmlns:sodipodi="http://sodipodi.sourceforge.net/DTD/sodipodi-0.dtd"
   xmlns:inkscape="http://www.inkscape.org/namespaces/inkscape"
   width="744.09448819"
   height="1052.3622047"
   id="svg2"
   version="1.1"
   inkscape:version="0.48.4 r9939"
   sodipodi:docname="reflectance2.svg"
   inkscape:export-filename="/home/francois/Documents/Courses/VisionAndImageProcessing/lectures/Francois/FIGURES/reflectance2.png"
   inkscape:export-xdpi="90"
   inkscape:export-ydpi="90">
  <sodipodi:namedview
     id="base"
     pagecolor="#ffffff"
     bordercolor="#ffffff"
     borderopacity="0.0"
     inkscape:pageopacity="0.0"
     inkscape:pageshadow="0"
     inkscape:zoom="0.35"
     inkscape:cx="-578.57143"
     inkscape:cy="862.85714"
     inkscape:document-units="px"
     inkscape:current-layer="layer1"
     showgrid="false"
     inkscape:window-width="1920"
     inkscape:window-height="1062"
     inkscape:window-x="0"
     inkscape:window-y="18"
     inkscape:window-maximized="1" />
  <defs
     id="defs4">
    <marker
       style="overflow:visible;"
       id="Arrow1Lend"
       refX="0.0"
       refY="0.0"
       orient="auto"
       inkscape:stockid="Arrow1Lend">
      <path
         transform="scale(0.8) rotate(180) translate(12.5,0)"
         style="fill-rule:evenodd;stroke:#000000;stroke-width:1.0pt;"
         d="M 0.0,0.0 L 5.0,-5.0 L -12.5,0.0 L 5.0,5.0 L 0.0,0.0 z "
         id="path3766" />
    </marker>
  </defs>
  <metadata
     id="metadata7">
    <rdf:RDF>
      <cc:Work
         rdf:about="">
        <dc:format>image/svg+xml</dc:format>
        <dc:type
           rdf:resource="http://purl.org/dc/dcmitype/StillImage" />
        <dc:title></dc:title>
      </cc:Work>
    </rdf:RDF>
  </metadata>
  <g
     id="layer1"
     inkscape:groupmode="layer"
     inkscape:label="Layer 1">
    <path
       sodipodi:nodetypes="caacaacaaacaac"
       inkscape:connector-curvature="0"
       id="path2985"
       d="m -951.42857,252.36218 c 0,0 196.28888,28.62344 285.71428,68.57143 130.01031,58.07803 261.80056,132.21106 351.42858,242.85714 59.11681,72.97989 108.57142,260 108.57142,260 0,0 129.167502,-190.90969 217.142861,-262.85714 C 133.46271,461.13242 280.43249,391.99736 428.57143,338.07647 c 34.75319,-12.64977 108.57143,-22.85714 108.57143,-22.85714 0,0 -128.24653,-255.275615 -222.85715,-360.000005 C 230.51545,-137.50588 127.89103,-215.47066 17.142857,-273.3521 -113.92496,-341.85341 -259.24948,-387.16195 -405.71429,-407.63781 c -95.30606,-13.32385 -288.57142,8.57142 -288.57142,8.57142 0,0 -95.25959,119.05636 -131.42857,185.71429 -40.56995,74.76871 -72.6195,154.881949 -94.28572,237.142854 -19.58814,74.370989 -31.42857,228.571426 -31.42857,228.571426 z"
       style="fill:none;stroke:#000000;stroke-width:2.8;stroke-linecap:butt;stroke-linejoin:miter;stroke-opacity:1;stroke-miterlimit:4;stroke-dasharray:none" />
    <path
       inkscape:connector-curvature="0"
       id="path3755"
       d="m -220.09969,766.85021 c -26.22148,-84.38683 -57.87062,-157.08337 -84.79665,-194.77374 -57.63277,-80.67294 -177.3874,-168.66526 -321.14169,-235.96586 -76.10494,-35.62963 -137.18145,-53.25166 -262.55424,-75.75317 -32.51711,-5.83609 -59.32969,-10.72963 -59.58351,-10.87457 -1.07713,-0.61512 10.78254,-106.51514 16.18797,-144.54926 10.33791,-72.74037 31.57794,-146.232199 64.74004,-224.00457 38.18985,-89.56351 68.25946,-138.70932 149.19997,-243.85257 22.13814,-28.75788 28.26483,-35.00673 34.35275,-35.03772 4.07513,-0.0208 29.26648,-1.92174 55.98076,-4.22443 74.28172,-6.40285 163.35466,-8.40856 201.23872,-4.53141 92.09331,9.42506 217.05894,40.678 313.96826,78.52104 151.585053,59.1939 273.04031,136.27352 382.95822,243.038233 53.23006,51.703057 88.94315,98.2782 144.60426,188.585347 41.54863,67.41037 118.00566,205.96905 115.20157,208.77314 -0.69371,0.69371 -12.73528,3.23006 -26.75903,5.63628 C 456.93111,325.82698 429.99409,333.88493 368,358.36975 212.67966,419.71413 85.121771,492.60318 -3.1995714,570.48041 -44.531714,606.92495 -102.32203,675.36364 -166.19163,763.50504 c -19.35786,26.71429 -35.97674,49.43269 -36.93083,50.48534 -0.95408,1.05263 -8.59383,-20.16043 -16.97723,-47.14017 l 0,0 z"
       style="opacity:0.55504587000000005;fill:#d8dbd4;fill-opacity:1;stroke:none;stroke-width:8;stroke-miterlimit:4;stroke-opacity:1;stroke-dasharray:none;stroke-dashoffset:0" />
    <path
       inkscape:connector-curvature="0"
       id="path3757"
       d="m -282.85714,40.933611 100,-528.571431"
       style="fill:none;stroke:#000000;stroke-width:3;stroke-linecap:butt;stroke-linejoin:miter;stroke-opacity:1;stroke-miterlimit:4;stroke-dasharray:none;marker-end:url(#Arrow1Lend)" />
    <path
       inkscape:connector-curvature="0"
       id="path4205"
       d="M -282.85714,40.933611 -691.42857,-579.06639"
       style="fill:none;stroke:#000000;stroke-width:3;stroke-linecap:butt;stroke-linejoin:miter;stroke-opacity:1;stroke-miterlimit:4;stroke-dasharray:none;marker-end:url(#Arrow1Lend)" />
    <path
       inkscape:connector-curvature="0"
       id="path4389"
       d="M -277.14286,43.790754 411.42857,-179.06639"
       style="fill:none;stroke:#95102a;stroke-width:3;stroke-linecap:butt;stroke-linejoin:miter;stroke-opacity:1;stroke-miterlimit:4;stroke-dasharray:none;marker-end:url(#Arrow1Lend)" />
    <rect
       y="-364.05948"
       x="683.19659"
       height="126.44418"
       width="156.80342"
       id="rect4584"
       style="fill:none;stroke:#000000;stroke-width:4.57579184;stroke-miterlimit:4;stroke-opacity:1;stroke-dasharray:none;stroke-dashoffset:0" />
    <path
       inkscape:connector-curvature="0"
       id="path4588"
       d="m 558.51204,-382.72859 2.93136,165.76903 118.0852,-45.61431 -0.57156,-66.34015 z"
       style="fill:none;stroke:#000000;stroke-width:6.32291222;stroke-linecap:butt;stroke-linejoin:miter;stroke-miterlimit:4;stroke-opacity:1;stroke-dasharray:none" />
    <g
       transform="translate(0,-120)"
       id="g4594">
      <path
         sodipodi:type="arc"
         style="fill:none;stroke:#000000;stroke-width:6;stroke-miterlimit:4;stroke-opacity:1;stroke-dasharray:none;stroke-dashoffset:0"
         id="path4590"
         sodipodi:cx="-1085.7142"
         sodipodi:cy="-749.06641"
         sodipodi:rx="37.142857"
         sodipodi:ry="35.714287"
         d="m -1048.5714,-749.06641 c 0,19.72446 -16.6294,35.71429 -37.1428,35.71429 -20.5135,0 -37.1429,-15.98983 -37.1429,-35.71429 0,-19.72445 16.6294,-35.71428 37.1429,-35.71428 20.5134,0 37.1428,15.98983 37.1428,35.71428 z"
         transform="translate(302.85714,154.28571)" />
      <rect
         style="fill:none;stroke:#000000;stroke-width:6;stroke-miterlimit:4;stroke-opacity:1;stroke-dasharray:none;stroke-dashoffset:0"
         id="rect4592"
         width="37.142857"
         height="85.714287"
         x="-385.1478"
         y="-1034.4274"
         transform="matrix(0.8576558,-0.5142242,0.5142242,0.8576558,0,0)" />
    </g>
    <path
       inkscape:connector-curvature="0"
       id="path4598"
       d="m -817.14286,-659.06639 c -14.28571,77.14286 -14.28571,77.14286 -14.28571,77.14286"
       style="fill:none;stroke:#ffff00;stroke-width:8;stroke-linecap:butt;stroke-linejoin:miter;stroke-opacity:1;stroke-miterlimit:4;stroke-dasharray:none" />
    <path
       inkscape:connector-curvature="0"
       id="path4600"
       d="m -780,-659.06639 c 11.42857,80 11.42857,80 11.42857,80"
       style="fill:none;stroke:#ffff00;stroke-width:8;stroke-linecap:butt;stroke-linejoin:miter;stroke-opacity:1;stroke-miterlimit:4;stroke-dasharray:none" />
    <path
       inkscape:connector-curvature="0"
       id="path4602"
       d="m -745.71429,-659.06639 c 37.14286,62.85714 37.14286,62.85714 37.14286,62.85714"
       style="fill:none;stroke:#ffff00;stroke-width:8;stroke-linecap:butt;stroke-linejoin:miter;stroke-opacity:1;stroke-miterlimit:4;stroke-dasharray:none" />
    <path
       inkscape:connector-curvature="0"
       id="path4604"
       d="m -711.42857,-673.3521 c 60,42.85714 60,42.85714 60,42.85714"
       style="fill:none;stroke:#ffff00;stroke-width:8;stroke-linecap:butt;stroke-linejoin:miter;stroke-opacity:1;stroke-miterlimit:4;stroke-dasharray:none" />
    <path
       inkscape:connector-curvature="0"
       id="path4606"
       d="m -691.42857,-693.3521 c 57.14286,5.71428 57.14286,5.71428 57.14286,5.71428"
       style="fill:none;stroke:#ffff00;stroke-width:8;stroke-linecap:butt;stroke-linejoin:miter;stroke-opacity:1;stroke-miterlimit:4;stroke-dasharray:none" />
    <g
       id="g4630"
       ns0:preamble="/home/francois/Documents/Mypapers/InkscapeHeader/header.inc"
       ns0:text="$\\bn(\\bx)$"
       transform="matrix(7,0,0,7,-1802.8571,-1437.1429)">
      <defs
         id="defs4632">
        <g
           id="g4634">
          <symbol
             id="textext-66969718-0"
             overflow="visible"
             style="overflow:visible">
            <path
               id="path4637"
               d=""
               style="stroke:none"
               inkscape:connector-curvature="0" />
          </symbol>
          <symbol
             id="textext-66969718-1"
             overflow="visible"
             style="overflow:visible">
            <path
               id="path4640"
               d="m 1.140625,-3.546875 0,3.078125 -0.6875,0 0,0.46875 c 0.28125,-0.015625 0.875,-0.03125 1.25,-0.03125 0.390625,0 0.984375,0.015625 1.25,0.03125 l 0,-0.46875 -0.6875,0 0,-2.078125 c 0,-1.09375 0.859375,-1.578125 1.5,-1.578125 0.328125,0 0.546875,0.203125 0.546875,0.96875 l 0,2.6875 -0.6875,0 0,0.46875 c 0.265625,-0.015625 0.875,-0.03125 1.25,-0.03125 0.390625,0 0.984375,0.015625 1.25,0.03125 l 0,-0.46875 -0.6875,0 0,-2.578125 c 0,-1.046875 -0.53125,-1.4375 -1.53125,-1.4375 -0.953125,0 -1.484375,0.5625 -1.75,1.078125 l 0,-1.078125 -1.703125,0.078125 0,0.46875 c 0.609375,0 0.6875,0 0.6875,0.390625 z m 0,0"
               style="stroke:none"
               inkscape:connector-curvature="0" />
          </symbol>
          <symbol
             id="textext-66969718-2"
             overflow="visible"
             style="overflow:visible">
            <path
               id="path4643"
               d="M 3.453125,-2.453125 4.609375,-3.75 C 4.75,-3.890625 4.8125,-3.953125 5.625,-3.953125 l 0,-0.46875 c -0.34375,0.015625 -0.859375,0.03125 -0.90625,0.03125 -0.25,0 -0.75,-0.03125 -1.03125,-0.03125 l 0,0.46875 c 0.140625,0 0.265625,0.015625 0.375,0.078125 -0.03125,0.0625 -0.03125,0.09375 -0.078125,0.125 l -0.828125,0.9375 -0.984375,-1.140625 0.40625,0 0,-0.46875 c -0.265625,0 -0.890625,0.03125 -1.21875,0.03125 -0.3125,0 -0.765625,-0.03125 -1.09375,-0.03125 l 0,0.46875 0.71875,0 1.546875,1.828125 -1.3125,1.46875 c -0.15625,0.1875 -0.515625,0.1875 -1,0.1875 l 0,0.46875 c 0.34375,-0.015625 0.875,-0.03125 0.921875,-0.03125 0.25,0 0.828125,0.015625 1.015625,0.03125 l 0,-0.46875 c -0.171875,0 -0.359375,-0.046875 -0.359375,-0.109375 0,-0.015625 0,-0.015625 0.0625,-0.09375 l 0.96875,-1.09375 1.09375,1.296875 -0.390625,0 0,0.46875 c 0.265625,-0.015625 0.875,-0.03125 1.203125,-0.03125 0.3125,0 0.765625,0.015625 1.09375,0.03125 l 0,-0.46875 -0.703125,0 z m 0,0"
               style="stroke:none"
               inkscape:connector-curvature="0" />
          </symbol>
          <symbol
             id="textext-66969718-3"
             overflow="visible"
             style="overflow:visible">
            <path
               id="path4646"
               d=""
               style="stroke:none"
               inkscape:connector-curvature="0" />
          </symbol>
          <symbol
             id="textext-66969718-4"
             overflow="visible"
             style="overflow:visible">
            <path
               id="path4649"
               d="m 3.296875,2.390625 c 0,-0.03125 0,-0.046875 -0.171875,-0.21875 C 1.890625,0.921875 1.5625,-0.96875 1.5625,-2.5 c 0,-1.734375 0.375,-3.46875 1.609375,-4.703125 0.125,-0.125 0.125,-0.140625 0.125,-0.171875 0,-0.078125 -0.03125,-0.109375 -0.09375,-0.109375 -0.109375,0 -1,0.6875 -1.59375,1.953125 -0.5,1.09375 -0.625,2.203125 -0.625,3.03125 0,0.78125 0.109375,1.984375 0.65625,3.125 C 2.25,1.84375 3.09375,2.5 3.203125,2.5 c 0.0625,0 0.09375,-0.03125 0.09375,-0.109375 z m 0,0"
               style="stroke:none"
               inkscape:connector-curvature="0" />
          </symbol>
          <symbol
             id="textext-66969718-5"
             overflow="visible"
             style="overflow:visible">
            <path
               id="path4652"
               d="m 2.875,-2.5 c 0,-0.765625 -0.109375,-1.96875 -0.65625,-3.109375 -0.59375,-1.21875 -1.453125,-1.875 -1.546875,-1.875 -0.0625,0 -0.109375,0.046875 -0.109375,0.109375 0,0.03125 0,0.046875 0.1875,0.234375 0.984375,0.984375 1.546875,2.5625 1.546875,4.640625 0,1.71875 -0.359375,3.46875 -1.59375,4.71875 C 0.5625,2.34375 0.5625,2.359375 0.5625,2.390625 0.5625,2.453125 0.609375,2.5 0.671875,2.5 0.765625,2.5 1.671875,1.8125 2.25,0.546875 2.765625,-0.546875 2.875,-1.65625 2.875,-2.5 z m 0,0"
               style="stroke:none"
               inkscape:connector-curvature="0" />
          </symbol>
        </g>
      </defs>
      <g
         id="textext-66969718-6">
        <g
           id="g4655"
           style="fill:#000000;fill-opacity:1">
          <use
             id="use4657"
             y="134.765"
             x="223.43201"
             xlink:href="#textext-66969718-1"
             width="744.09448"
             height="1052.3622" />
        </g>
        <g
           id="g4659"
           style="fill:#000000;fill-opacity:1">
          <use
             id="use4661"
             y="134.765"
             x="229.797"
             xlink:href="#textext-66969718-4"
             width="744.09448"
             height="1052.3622" />
        </g>
        <g
           id="g4663"
           style="fill:#000000;fill-opacity:1">
          <use
             id="use4665"
             y="134.765"
             x="233.67101"
             xlink:href="#textext-66969718-2"
             width="744.09448"
             height="1052.3622" />
        </g>
        <g
           id="g4667"
           style="fill:#000000;fill-opacity:1">
          <use
             id="use4669"
             y="134.765"
             x="239.718"
             xlink:href="#textext-66969718-5"
             width="744.09448"
             height="1052.3622" />
        </g>
      </g>
    </g>
    <g
       ns0:text="$\\bx$"
       ns0:preamble="/home/francois/Documents/Mypapers/InkscapeHeader/header.inc"
       transform="matrix(7,0,0,7,-1868.5714,-842.85719)"
       id="g4809">
      <defs
         id="defs4811">
        <g
           id="g4813">
          <symbol
             style="overflow:visible"
             overflow="visible"
             id="textext-13273a05-0">
            <path
               inkscape:connector-curvature="0"
               style="stroke:none"
               d=""
               id="path4816" />
          </symbol>
          <symbol
             style="overflow:visible"
             overflow="visible"
             id="textext-13273a05-1">
            <path
               inkscape:connector-curvature="0"
               style="stroke:none"
               d="M 3.453125,-2.453125 4.609375,-3.75 C 4.75,-3.890625 4.8125,-3.953125 5.625,-3.953125 l 0,-0.46875 c -0.34375,0.015625 -0.859375,0.03125 -0.90625,0.03125 -0.25,0 -0.75,-0.03125 -1.03125,-0.03125 l 0,0.46875 c 0.140625,0 0.265625,0.015625 0.375,0.078125 -0.03125,0.0625 -0.03125,0.09375 -0.078125,0.125 l -0.828125,0.9375 -0.984375,-1.140625 0.40625,0 0,-0.46875 c -0.265625,0 -0.890625,0.03125 -1.21875,0.03125 -0.3125,0 -0.765625,-0.03125 -1.09375,-0.03125 l 0,0.46875 0.71875,0 1.546875,1.828125 -1.3125,1.46875 c -0.15625,0.1875 -0.515625,0.1875 -1,0.1875 l 0,0.46875 c 0.34375,-0.015625 0.875,-0.03125 0.921875,-0.03125 0.25,0 0.828125,0.015625 1.015625,0.03125 l 0,-0.46875 c -0.171875,0 -0.359375,-0.046875 -0.359375,-0.109375 0,-0.015625 0,-0.015625 0.0625,-0.09375 l 0.96875,-1.09375 1.09375,1.296875 -0.390625,0 0,0.46875 c 0.265625,-0.015625 0.875,-0.03125 1.203125,-0.03125 0.3125,0 0.765625,0.015625 1.09375,0.03125 l 0,-0.46875 -0.703125,0 z m 0,0"
               id="path4819" />
          </symbol>
        </g>
      </defs>
      <g
         id="textext-13273a05-2">
        <g
           style="fill:#000000;fill-opacity:1"
           id="g4822">
          <use
             height="1052.3622"
             width="744.09448"
             xlink:href="#textext-13273a05-1"
             x="223.43201"
             y="134.765"
             id="use4824" />
        </g>
      </g>
    </g>
    <g
       id="g4984"
       transform="matrix(7,0,0,7,-2382.8571,-1434.2858)"
       ns0:preamble="/home/francois/Documents/Mypapers/InkscapeHeader/header.inc"
       ns0:text="$\\bs(\\bx)$">
      <defs
         id="defs4986">
        <g
           id="g4988">
          <symbol
             id="textext-0f4c3b4a-0"
             overflow="visible"
             style="overflow:visible">
            <path
               id="path4991"
               d=""
               style="stroke:none"
               inkscape:connector-curvature="0" />
          </symbol>
          <symbol
             id="textext-0f4c3b4a-1"
             overflow="visible"
             style="overflow:visible">
            <path
               id="path4994"
               d="M 2.109375,-2.9375 C 1.734375,-3 1.09375,-3.109375 1.09375,-3.578125 c 0,-0.625 0.921875,-0.625 1.109375,-0.625 0.75,0 1.125,0.296875 1.171875,0.84375 0.015625,0.15625 0.03125,0.203125 0.234375,0.203125 0.234375,0 0.234375,-0.046875 0.234375,-0.28125 l 0,-0.796875 c 0,-0.1875 0,-0.28125 -0.171875,-0.28125 -0.046875,0 -0.0625,0 -0.453125,0.1875 -0.265625,-0.125 -0.609375,-0.1875 -1,-0.1875 -0.3125,0 -1.84375,0 -1.84375,1.3125 0,0.390625 0.203125,0.65625 0.40625,0.828125 0.390625,0.34375 0.78125,0.40625 1.546875,0.546875 0.359375,0.0625 1.09375,0.1875 1.09375,0.78125 0,0.75 -0.90625,0.75 -1.125,0.75 -1.0625,0 -1.3125,-0.734375 -1.4375,-1.15625 C 0.8125,-1.59375 0.75,-1.59375 0.625,-1.59375 c -0.25,0 -0.25,0.0625 -0.25,0.28125 l 0,1.09375 c 0,0.1875 0,0.28125 0.1875,0.28125 0.0625,0 0.078125,0 0.296875,-0.15625 0.015625,0 0.234375,-0.140625 0.25,-0.171875 0.46875,0.328125 0.984375,0.328125 1.1875,0.328125 0.3125,0 1.84375,0 1.84375,-1.453125 0,-0.4375 -0.203125,-0.78125 -0.546875,-1.0625 C 3.203125,-2.734375 2.875,-2.796875 2.109375,-2.9375 z m 0,0"
               style="stroke:none"
               inkscape:connector-curvature="0" />
          </symbol>
          <symbol
             id="textext-0f4c3b4a-2"
             overflow="visible"
             style="overflow:visible">
            <path
               id="path4997"
               d="M 3.453125,-2.453125 4.609375,-3.75 C 4.75,-3.890625 4.8125,-3.953125 5.625,-3.953125 l 0,-0.46875 c -0.34375,0.015625 -0.859375,0.03125 -0.90625,0.03125 -0.25,0 -0.75,-0.03125 -1.03125,-0.03125 l 0,0.46875 c 0.140625,0 0.265625,0.015625 0.375,0.078125 -0.03125,0.0625 -0.03125,0.09375 -0.078125,0.125 l -0.828125,0.9375 -0.984375,-1.140625 0.40625,0 0,-0.46875 c -0.265625,0 -0.890625,0.03125 -1.21875,0.03125 -0.3125,0 -0.765625,-0.03125 -1.09375,-0.03125 l 0,0.46875 0.71875,0 1.546875,1.828125 -1.3125,1.46875 c -0.15625,0.1875 -0.515625,0.1875 -1,0.1875 l 0,0.46875 c 0.34375,-0.015625 0.875,-0.03125 0.921875,-0.03125 0.25,0 0.828125,0.015625 1.015625,0.03125 l 0,-0.46875 c -0.171875,0 -0.359375,-0.046875 -0.359375,-0.109375 0,-0.015625 0,-0.015625 0.0625,-0.09375 l 0.96875,-1.09375 1.09375,1.296875 -0.390625,0 0,0.46875 c 0.265625,-0.015625 0.875,-0.03125 1.203125,-0.03125 0.3125,0 0.765625,0.015625 1.09375,0.03125 l 0,-0.46875 -0.703125,0 z m 0,0"
               style="stroke:none"
               inkscape:connector-curvature="0" />
          </symbol>
          <symbol
             id="textext-0f4c3b4a-3"
             overflow="visible"
             style="overflow:visible">
            <path
               id="path5000"
               d=""
               style="stroke:none"
               inkscape:connector-curvature="0" />
          </symbol>
          <symbol
             id="textext-0f4c3b4a-4"
             overflow="visible"
             style="overflow:visible">
            <path
               id="path5003"
               d="m 3.296875,2.390625 c 0,-0.03125 0,-0.046875 -0.171875,-0.21875 C 1.890625,0.921875 1.5625,-0.96875 1.5625,-2.5 c 0,-1.734375 0.375,-3.46875 1.609375,-4.703125 0.125,-0.125 0.125,-0.140625 0.125,-0.171875 0,-0.078125 -0.03125,-0.109375 -0.09375,-0.109375 -0.109375,0 -1,0.6875 -1.59375,1.953125 -0.5,1.09375 -0.625,2.203125 -0.625,3.03125 0,0.78125 0.109375,1.984375 0.65625,3.125 C 2.25,1.84375 3.09375,2.5 3.203125,2.5 c 0.0625,0 0.09375,-0.03125 0.09375,-0.109375 z m 0,0"
               style="stroke:none"
               inkscape:connector-curvature="0" />
          </symbol>
          <symbol
             id="textext-0f4c3b4a-5"
             overflow="visible"
             style="overflow:visible">
            <path
               id="path5006"
               d="m 2.875,-2.5 c 0,-0.765625 -0.109375,-1.96875 -0.65625,-3.109375 -0.59375,-1.21875 -1.453125,-1.875 -1.546875,-1.875 -0.0625,0 -0.109375,0.046875 -0.109375,0.109375 0,0.03125 0,0.046875 0.1875,0.234375 0.984375,0.984375 1.546875,2.5625 1.546875,4.640625 0,1.71875 -0.359375,3.46875 -1.59375,4.71875 C 0.5625,2.34375 0.5625,2.359375 0.5625,2.390625 0.5625,2.453125 0.609375,2.5 0.671875,2.5 0.765625,2.5 1.671875,1.8125 2.25,0.546875 2.765625,-0.546875 2.875,-1.65625 2.875,-2.5 z m 0,0"
               style="stroke:none"
               inkscape:connector-curvature="0" />
          </symbol>
        </g>
      </defs>
      <g
         id="textext-0f4c3b4a-6">
        <g
           id="g5009"
           style="fill:#000000;fill-opacity:1">
          <use
             id="use5011"
             y="134.765"
             x="223.43201"
             xlink:href="#textext-0f4c3b4a-1"
             width="744.09448"
             height="1052.3622" />
        </g>
        <g
           id="g5013"
           style="fill:#000000;fill-opacity:1">
          <use
             id="use5015"
             y="134.765"
             x="227.951"
             xlink:href="#textext-0f4c3b4a-4"
             width="744.09448"
             height="1052.3622" />
        </g>
        <g
           id="g5017"
           style="fill:#000000;fill-opacity:1">
          <use
             id="use5019"
             y="134.765"
             x="231.826"
             xlink:href="#textext-0f4c3b4a-2"
             width="744.09448"
             height="1052.3622" />
        </g>
        <g
           id="g5021"
           style="fill:#000000;fill-opacity:1">
          <use
             id="use5023"
             y="134.765"
             x="237.87199"
             xlink:href="#textext-0f4c3b4a-5"
             width="744.09448"
             height="1052.3622" />
        </g>
      </g>
    </g>
    <g
       ns0:text="$\\bv$"
       ns0:preamble="/home/francois/Documents/Mypapers/InkscapeHeader/header.inc"
       transform="matrix(7,0,0,7,-1239.9999,-1142.8572)"
       id="g5231">
      <defs
         id="defs5233">
        <g
           id="g5235">
          <symbol
             style="overflow:visible"
             overflow="visible"
             id="textext-dcde4ebb-0">
            <path
               inkscape:connector-curvature="0"
               style="stroke:none"
               d=""
               id="path5238" />
          </symbol>
          <symbol
             style="overflow:visible"
             overflow="visible"
             id="textext-dcde4ebb-1">
            <path
               inkscape:connector-curvature="0"
               style="stroke:none"
               d="m 5.046875,-3.75 c 0.0625,-0.140625 0.09375,-0.203125 0.734375,-0.203125 l 0,-0.46875 C 5.53125,-4.40625 5.25,-4.390625 5,-4.390625 c -0.25,0 -0.703125,-0.03125 -0.90625,-0.03125 l 0,0.46875 c 0.1875,0 0.46875,0.03125 0.46875,0.109375 0,0 0,0.03125 -0.046875,0.109375 l -1.15625,2.5 -1.265625,-2.71875 0.53125,0 0,-0.46875 c -0.328125,0.015625 -1.21875,0.03125 -1.234375,0.03125 -0.28125,0 -0.71875,-0.03125 -1.125,-0.03125 l 0,0.46875 0.625,0 1.75,3.75 c 0.125,0.25 0.25,0.25 0.375,0.25 0.171875,0 0.28125,-0.03125 0.375,-0.25 z m 0,0"
               id="path5241" />
          </symbol>
        </g>
      </defs>
      <g
         id="textext-dcde4ebb-2">
        <g
           style="fill:#000000;fill-opacity:1"
           id="g5244">
          <use
             height="1052.3622"
             width="744.09448"
             xlink:href="#textext-dcde4ebb-1"
             x="223.43201"
             y="134.765"
             id="use5246" />
        </g>
      </g>
    </g>
    <g
       id="g3177"
       transform="matrix(7,0,0,7,-1759.9999,-242.8572)"
       ns0:preamble="/home/francois/Documents/Mypapers/InkscapeHeader/header.inc"
       ns0:text="$\\Ss$">
      <defs
         id="defs3179">
        <g
           id="g3181">
          <symbol
             id="textext-55a64a13-0"
             overflow="visible">
            <path
               id="path3184"
               d=""
               style="stroke:none;" />
          </symbol>
          <symbol
             id="textext-55a64a13-1"
             overflow="visible">
            <path
               id="path3187"
               d="M 1.140625 -2.1875 C 1.265625 -2.234375 1.609375 -2.453125 1.609375 -2.59375 C 1.609375 -2.65625 1.5625 -2.65625 1.5 -2.65625 C 1.15625 -2.65625 0.171875 -2.234375 0.171875 -1.234375 C 0.171875 -0.515625 0.984375 0.21875 2.203125 0.21875 C 3.828125 0.21875 5.71875 -0.90625 5.71875 -2.265625 C 5.71875 -3.203125 4.71875 -3.671875 3.90625 -4.03125 C 3.203125 -4.34375 2.75 -4.75 2.75 -5.328125 C 2.75 -5.53125 2.84375 -5.921875 3.15625 -6.1875 C 3.453125 -6.453125 4 -6.484375 4.140625 -6.484375 C 4.25 -6.484375 4.671875 -6.46875 5.109375 -6.28125 C 5.296875 -6.1875 5.546875 -6.078125 5.546875 -5.640625 C 5.546875 -5.5 5.546875 -5.453125 5.515625 -5.34375 C 5.5 -5.3125 5.5 -5.28125 5.5 -5.25 C 5.5 -5.171875 5.546875 -5.171875 5.59375 -5.171875 C 5.71875 -5.171875 5.96875 -5.28125 6.15625 -5.4375 C 6.296875 -5.546875 6.40625 -5.671875 6.40625 -6.0625 C 6.40625 -6.546875 6.140625 -6.6875 5.875 -6.8125 C 5.40625 -7.03125 4.9375 -7.03125 4.8125 -7.03125 C 3.5 -7.03125 1.90625 -6.03125 1.90625 -4.890625 C 1.90625 -4.0625 2.765625 -3.65625 3.25 -3.453125 C 3.953125 -3.125 4.859375 -2.671875 4.859375 -1.828125 C 4.859375 -1.171875 4.375 -0.328125 2.859375 -0.328125 C 1.84375 -0.328125 1.03125 -0.984375 1.03125 -1.671875 C 1.03125 -1.84375 1.078125 -2.03125 1.140625 -2.1875 Z M 1.140625 -2.1875 "
               style="stroke:none;" />
          </symbol>
        </g>
      </defs>
      <g
         id="textext-55a64a13-2">
        <g
           id="g3190"
           style="fill:rgb(0%,0%,0%);fill-opacity:1;">
          <use
             id="use3192"
             y="134.765"
             x="223.432"
             xlink:href="#textext-55a64a13-1" />
        </g>
      </g>
    </g>
    <text
       xml:space="preserve"
       style="font-size:72px;font-style:normal;font-variant:normal;font-weight:normal;font-stretch:normal;text-align:start;line-height:125%;letter-spacing:0px;word-spacing:0px;writing-mode:lr-tb;text-anchor:start;fill:#000000;fill-opacity:1;stroke:none;font-family:Sans;-inkscape-font-specification:Sans"
       x="-917.14288"
       y="-421.92352"
       id="text3077"
       sodipodi:linespacing="125%"><tspan
         sodipodi:role="line"
         id="tspan3079"
         x="-917.14288"
         y="-421.92352"
         style="font-size:56px;fill:#ff0000;fill-opacity:1">Light souce direction</tspan></text>
    <flowRoot
       xml:space="preserve"
       id="flowRoot3081"
       style="fill:black;stroke:none;stroke-opacity:1;stroke-width:1px;stroke-linejoin:miter;stroke-linecap:butt;fill-opacity:1;font-family:Sans;font-style:normal;font-weight:normal;font-size:72px;line-height:125%;letter-spacing:0px;word-spacing:0px;-inkscape-font-specification:Sans;font-stretch:normal;font-variant:normal;text-anchor:start;text-align:start;writing-mode:lr"><flowRegion
         id="flowRegion3083"><rect
           id="rect3085"
           width="74.285713"
           height="105.71429"
           x="-594.28571"
           y="-327.63782" /></flowRegion><flowPara
         id="flowPara3087"></flowPara></flowRoot>    <text
       xml:space="preserve"
       style="font-size:72px;font-style:normal;font-variant:normal;font-weight:normal;font-stretch:normal;text-align:start;line-height:125%;letter-spacing:0px;word-spacing:0px;writing-mode:lr-tb;text-anchor:start;fill:#000000;fill-opacity:1;stroke:none;font-family:Sans;-inkscape-font-specification:Sans"
       x="-371.42856"
       y="-290.49496"
       id="text3863"
       sodipodi:linespacing="125%"><tspan
         sodipodi:role="line"
         id="tspan3865"
         x="-371.42856"
         y="-290.49496"
         style="font-size:56px;fill:#ff0000;fill-opacity:1">Surface normal</tspan><tspan
         sodipodi:role="line"
         x="-371.42856"
         y="-220.49496"
         style="font-size:56px;fill:#ff0000;fill-opacity:1"
         id="tspan3871">direction</tspan></text>
    <text
       xml:space="preserve"
       style="font-size:72px;font-style:normal;font-variant:normal;font-weight:normal;font-stretch:normal;text-align:start;line-height:125%;letter-spacing:0px;word-spacing:0px;writing-mode:lr-tb;text-anchor:start;fill:#000000;fill-opacity:1;stroke:none;font-family:Sans;-inkscape-font-specification:Sans"
       x="42.857147"
       y="-121.92353"
       id="text3867"
       sodipodi:linespacing="125%"><tspan
         sodipodi:role="line"
         id="tspan3869"
         x="42.857147"
         y="-121.92353"
         style="font-size:56px;fill:#ff0000;fill-opacity:1">viewing direction</tspan></text>
  </g>
</svg>
