<?xml version="1.0" encoding="UTF-8" standalone="no"?>
<!-- Created with Inkscape (http://www.inkscape.org/) -->

<svg
   xmlns:ns1="http://www.iki.fi/pav/software/textext/"
   xmlns:dc="http://purl.org/dc/elements/1.1/"
   xmlns:cc="http://creativecommons.org/ns#"
   xmlns:rdf="http://www.w3.org/1999/02/22-rdf-syntax-ns#"
   xmlns:svg="http://www.w3.org/2000/svg"
   xmlns="http://www.w3.org/2000/svg"
   xmlns:sodipodi="http://sodipodi.sourceforge.net/DTD/sodipodi-0.dtd"
   xmlns:inkscape="http://www.inkscape.org/namespaces/inkscape"
   width="210mm"
   height="297mm"
   viewBox="0 0 210 297"
   version="1.1"
   id="svg8"
   sodipodi:docname="corner_derivative.svg"
   inkscape:export-filename="/home/francois/Dropbox/Courses/VisionAndImageProcessing/2020_21/Lectures/FIGURES/derivative_at_inflection.png"
   inkscape:export-xdpi="90"
   inkscape:export-ydpi="90"
   inkscape:version="0.92.3 (2405546, 2018-03-11)">
  <sodipodi:namedview
     id="base"
     pagecolor="#ffffff"
     bordercolor="#666666"
     borderopacity="1.0"
     inkscape:pageopacity="0.0"
     inkscape:pageshadow="2"
     inkscape:zoom="1"
     inkscape:cx="-990.74615"
     inkscape:cy="1667.5729"
     inkscape:document-units="mm"
     inkscape:current-layer="layer1"
     showgrid="true"
     inkscape:window-width="2560"
     inkscape:window-height="1379"
     inkscape:window-x="1920"
     inkscape:window-y="27"
     inkscape:window-maximized="1">
    <inkscape:grid
       id="grid817"
       type="xygrid" />
  </sodipodi:namedview>
  <defs
     id="defs2">
    <marker
       inkscape:isstock="true"
       style="overflow:visible;"
       id="marker1509"
       refX="0.0"
       refY="0.0"
       orient="auto"
       inkscape:stockid="Arrow1Mend">
      <path
         transform="scale(0.4) rotate(180) translate(10,0)"
         style="fill-rule:evenodd;stroke:#000000;stroke-width:1pt;stroke-opacity:1;fill:#000000;fill-opacity:1"
         d="M 0.0,0.0 L 5.0,-5.0 L -12.5,0.0 L 5.0,5.0 L 0.0,0.0 z "
         id="path1507" />
    </marker>
    <marker
       inkscape:isstock="true"
       style="overflow:visible;"
       id="marker7861"
       refX="0.0"
       refY="0.0"
       orient="auto"
       inkscape:stockid="Arrow1Mend">
      <path
         transform="scale(0.4) rotate(180) translate(10,0)"
         style="fill-rule:evenodd;stroke:#000000;stroke-width:1pt;stroke-opacity:1;fill:#000000;fill-opacity:1"
         d="M 0.0,0.0 L 5.0,-5.0 L -12.5,0.0 L 5.0,5.0 L 0.0,0.0 z "
         id="path7859" />
    </marker>
    <marker
       inkscape:stockid="Arrow1Mend"
       orient="auto"
       refY="0.0"
       refX="0.0"
       id="marker7059"
       style="overflow:visible;"
       inkscape:isstock="true">
      <path
         id="path7057"
         d="M 0.0,0.0 L 5.0,-5.0 L -12.5,0.0 L 5.0,5.0 L 0.0,0.0 z "
         style="fill-rule:evenodd;stroke:#000000;stroke-width:1pt;stroke-opacity:1;fill:#000000;fill-opacity:1"
         transform="scale(0.4) rotate(180) translate(10,0)" />
    </marker>
    <marker
       inkscape:stockid="Arrow1Mend"
       orient="auto"
       refY="0.0"
       refX="0.0"
       id="marker5828"
       style="overflow:visible;"
       inkscape:isstock="true">
      <path
         id="path5826"
         d="M 0.0,0.0 L 5.0,-5.0 L -12.5,0.0 L 5.0,5.0 L 0.0,0.0 z "
         style="fill-rule:evenodd;stroke:#000000;stroke-width:1pt;stroke-opacity:1;fill:#000000;fill-opacity:1"
         transform="scale(0.4) rotate(180) translate(10,0)" />
    </marker>
    <marker
       inkscape:stockid="Arrow1Mend"
       orient="auto"
       refY="0.0"
       refX="0.0"
       id="marker5760"
       style="overflow:visible;"
       inkscape:isstock="true">
      <path
         id="path5758"
         d="M 0.0,0.0 L 5.0,-5.0 L -12.5,0.0 L 5.0,5.0 L 0.0,0.0 z "
         style="fill-rule:evenodd;stroke:#000000;stroke-width:1pt;stroke-opacity:1;fill:#000000;fill-opacity:1"
         transform="scale(0.4) rotate(180) translate(10,0)" />
    </marker>
    <marker
       inkscape:stockid="Arrow1Mend"
       orient="auto"
       refY="0.0"
       refX="0.0"
       id="marker5602"
       style="overflow:visible;"
       inkscape:isstock="true">
      <path
         id="path5600"
         d="M 0.0,0.0 L 5.0,-5.0 L -12.5,0.0 L 5.0,5.0 L 0.0,0.0 z "
         style="fill-rule:evenodd;stroke:#000000;stroke-width:1pt;stroke-opacity:1;fill:#000000;fill-opacity:1"
         transform="scale(0.4) rotate(180) translate(10,0)" />
    </marker>
    <marker
       inkscape:isstock="true"
       style="overflow:visible;"
       id="marker4770"
       refX="0.0"
       refY="0.0"
       orient="auto"
       inkscape:stockid="Arrow1Mend">
      <path
         transform="scale(0.4) rotate(180) translate(10,0)"
         style="fill-rule:evenodd;stroke:#000000;stroke-width:1pt;stroke-opacity:1;fill:#000000;fill-opacity:1"
         d="M 0.0,0.0 L 5.0,-5.0 L -12.5,0.0 L 5.0,5.0 L 0.0,0.0 z "
         id="path4768" />
    </marker>
    <marker
       inkscape:isstock="true"
       style="overflow:visible;"
       id="marker4736"
       refX="0.0"
       refY="0.0"
       orient="auto"
       inkscape:stockid="Arrow1Mend">
      <path
         transform="scale(0.4) rotate(180) translate(10,0)"
         style="fill-rule:evenodd;stroke:#000000;stroke-width:1pt;stroke-opacity:1;fill:#000000;fill-opacity:1"
         d="M 0.0,0.0 L 5.0,-5.0 L -12.5,0.0 L 5.0,5.0 L 0.0,0.0 z "
         id="path4734" />
    </marker>
    <marker
       inkscape:isstock="true"
       style="overflow:visible;"
       id="marker4653"
       refX="0.0"
       refY="0.0"
       orient="auto"
       inkscape:stockid="Arrow1Mend">
      <path
         transform="scale(0.4) rotate(180) translate(10,0)"
         style="fill-rule:evenodd;stroke:#000000;stroke-width:1pt;stroke-opacity:1;fill:#000000;fill-opacity:1"
         d="M 0.0,0.0 L 5.0,-5.0 L -12.5,0.0 L 5.0,5.0 L 0.0,0.0 z "
         id="path4651" />
    </marker>
    <marker
       inkscape:stockid="Arrow1Mend"
       orient="auto"
       refY="0.0"
       refX="0.0"
       id="marker4574"
       style="overflow:visible;"
       inkscape:isstock="true">
      <path
         id="path4572"
         d="M 0.0,0.0 L 5.0,-5.0 L -12.5,0.0 L 5.0,5.0 L 0.0,0.0 z "
         style="fill-rule:evenodd;stroke:#000000;stroke-width:1pt;stroke-opacity:1;fill:#000000;fill-opacity:1"
         transform="scale(0.4) rotate(180) translate(10,0)" />
    </marker>
    <marker
       inkscape:stockid="Arrow1Mend"
       orient="auto"
       refY="0.0"
       refX="0.0"
       id="marker4138"
       style="overflow:visible;"
       inkscape:isstock="true">
      <path
         id="path4136"
         d="M 0.0,0.0 L 5.0,-5.0 L -12.5,0.0 L 5.0,5.0 L 0.0,0.0 z "
         style="fill-rule:evenodd;stroke:#000000;stroke-width:1pt;stroke-opacity:1;fill:#000000;fill-opacity:1"
         transform="scale(0.4) rotate(180) translate(10,0)" />
    </marker>
  </defs>
  <metadata
     id="metadata5">
    <rdf:RDF>
      <cc:Work
         rdf:about="">
        <dc:format>image/svg+xml</dc:format>
        <dc:type
           rdf:resource="http://purl.org/dc/dcmitype/StillImage" />
        <dc:title />
      </cc:Work>
    </rdf:RDF>
  </metadata>
  <g
     id="layer1"
     inkscape:groupmode="layer"
     inkscape:label="Layer 1">
    <path
       sodipodi:nodetypes="cc"
       inkscape:connector-curvature="0"
       id="path2936"
       d="M -333.375,-73.416675 -444.5,-184.54168"
       style="fill:none;stroke:#0000ff;stroke-width:1.2;stroke-linecap:butt;stroke-linejoin:miter;stroke-opacity:1;stroke-miterlimit:4;stroke-dasharray:none" />
    <path
       sodipodi:nodetypes="cc"
       style="fill:none;stroke:#0000ff;stroke-width:1.20000005;stroke-linecap:butt;stroke-linejoin:miter;stroke-miterlimit:4;stroke-dasharray:none;stroke-opacity:1"
       d="M -332.05208,-73.416675 -206.375,-189.83334"
       id="path2938"
       inkscape:connector-curvature="0" />
    <path
       sodipodi:nodetypes="cc"
       style="fill:none;stroke:#000000;stroke-width:2;stroke-linecap:butt;stroke-linejoin:miter;stroke-miterlimit:4;stroke-dasharray:none;stroke-opacity:1;marker-end:url(#marker1509)"
       d="M -449.79167,-73.416675 H -190.5"
       id="path6917"
       inkscape:connector-curvature="0" />
    <path
       sodipodi:nodetypes="cc"
       inkscape:connector-curvature="0"
       id="path6915"
       d="M -332.35485,-47.285898 -333.375,-232.16668"
       style="fill:none;stroke:#000000;stroke-width:2;stroke-linecap:butt;stroke-linejoin:miter;stroke-miterlimit:4;stroke-dasharray:none;stroke-opacity:1;marker-end:url(#marker7861)" />
    <g
       id="g3003"
       ns1:jacobian_sqrt="1.614765"
       inkscapeversion="0.92.3"
       ns1:alignment="middle center"
       ns1:scale="4.57728641018"
       ns1:preamble="/home/francois/Documents/Mypapers/InkscapeHeader/header.inc"
       ns1:text="\\color{blue}{$f(x) = |x|$}"
       ns1:pdfconverter="pdf2svg"
       ns1:texconverter="pdflatex"
       ns1:version="0.11.0"
       transform="matrix(1.614765,0,0,1.614765,-540.75171,-395.36164)">
      <g
         id="surface1">
        <g
           id="g2972"
           style="fill:#0000ff;fill-opacity:1">
          <path
             id="path2970"
             transform="translate(148.712,134.765)"
             d="m 2.578125,-3.84375 h 1.09375 L 3.78125,-4.421875 h -1.125 L 2.921875,-5.65625 c 0.09375,-0.5 0.59375,-0.765625 1.09375,-0.765625 0.125,0 0.4375,0.015625 0.765625,0.171875 l 0.140625,-0.671875 c -0.25,-0.0625 -0.515625,-0.109375 -0.765625,-0.109375 -0.984375,0 -1.8125,0.765625 -2,1.65625 L 1.9375,-4.421875 H 1.203125 L 1.09375,-3.84375 H 1.828125 L 1,0 h 0.75 z m 0,0"
             style="stroke:none;stroke-width:0"
             inkscape:connector-curvature="0" />
        </g>
        <g
           id="g2976"
           style="fill:#0000ff;fill-opacity:1">
          <path
             id="path2974"
             transform="translate(153.919,134.765)"
             d="M 2.703125,-7.484375 C 2.375,-7.171875 1.71875,-6.5625 1.25,-5.34375 0.859375,-4.28125 0.78125,-3.21875 0.78125,-2.5 c 0,3.234375 1.4375,4.546875 1.921875,5 H 3.3125 c -0.484375,-0.484375 -1.75,-1.765625 -1.75,-5 0,-0.546875 0.03125,-1.71875 0.4375,-2.890625 0.40625,-1.15625 0.984375,-1.75 1.3125,-2.09375 z m 0,0"
             style="stroke:none;stroke-width:0"
             inkscape:connector-curvature="0" />
        </g>
        <g
           id="g2980"
           style="fill:#0000ff;fill-opacity:1">
          <path
             id="path2978"
             transform="translate(157.793,134.765)"
             d="m 3.078125,-2.28125 2.28125,-2.140625 H 4.53125 L 2.859375,-2.78125 1.828125,-4.421875 H 1 L 2.421875,-2.28125 0,0 H 0.8125 L 2.65625,-1.875 3.765625,0 h 0.8125 z m 0,0"
             style="stroke:none;stroke-width:0"
             inkscape:connector-curvature="0" />
        </g>
        <g
           id="g2984"
           style="fill:#0000ff;fill-opacity:1">
          <path
             id="path2982"
             transform="translate(163.301,134.765)"
             d="m 1.171875,2.5 c 0.3125,-0.3125 0.984375,-0.921875 1.4375,-2.140625 0.40625,-1.0625 0.46875,-2.125 0.46875,-2.859375 0,-3.21875 -1.4375,-4.53125 -1.90625,-4.984375 H 0.5625 C 1.03125,-7 2.296875,-5.71875 2.296875,-2.5 c 0,0.5625 -0.03125,1.734375 -0.4375,2.90625 C 1.453125,1.5625 0.890625,2.15625 0.5625,2.5 Z m 0,0"
             style="stroke:none;stroke-width:0"
             inkscape:connector-curvature="0" />
        </g>
        <g
           id="g2988"
           style="fill:#0000ff;fill-opacity:1">
          <path
             id="path2986"
             transform="translate(169.94506,134.765)"
             d="m 6.84375,-3.296875 c 0.15625,0 0.34375,0 0.34375,-0.1875 C 7.1875,-3.6875 7,-3.6875 6.859375,-3.6875 h -5.96875 c -0.140625,0 -0.328125,0 -0.328125,0.203125 0,0.1875 0.1875,0.1875 0.328125,0.1875 z m 0.015625,2 C 7,-1.296875 7.1875,-1.296875 7.1875,-1.5 7.1875,-1.6875 7,-1.6875 6.84375,-1.6875 H 0.890625 c -0.140625,0 -0.328125,0 -0.328125,0.1875 0,0.203125 0.1875,0.203125 0.328125,0.203125 z m 0,0"
             style="stroke:none;stroke-width:0"
             inkscape:connector-curvature="0" />
        </g>
        <g
           id="g2992"
           style="fill:#0000ff;fill-opacity:1">
          <path
             id="path2990"
             transform="translate(180.458,134.765)"
             d="m 1.578125,-7.125 c 0,-0.171875 0,-0.359375 -0.1875,-0.359375 -0.203125,0 -0.203125,0.1875 -0.203125,0.359375 v 9.265625 c 0,0.171875 0,0.359375 0.203125,0.359375 0.1875,0 0.1875,-0.1875 0.1875,-0.359375 z m 0,0"
             style="stroke:none;stroke-width:0"
             inkscape:connector-curvature="0" />
        </g>
        <g
           id="g2996"
           style="fill:#0000ff;fill-opacity:1">
          <path
             id="path2994"
             transform="translate(183.226,134.765)"
             d="m 3.078125,-2.28125 2.28125,-2.140625 H 4.53125 L 2.859375,-2.78125 1.828125,-4.421875 H 1 L 2.421875,-2.28125 0,0 H 0.8125 L 2.65625,-1.875 3.765625,0 h 0.8125 z m 0,0"
             style="stroke:none;stroke-width:0"
             inkscape:connector-curvature="0" />
        </g>
        <g
           id="g3000"
           style="fill:#0000ff;fill-opacity:1">
          <path
             id="path2998"
             transform="translate(188.733,134.765)"
             d="m 1.578125,-7.125 c 0,-0.171875 0,-0.359375 -0.1875,-0.359375 -0.203125,0 -0.203125,0.1875 -0.203125,0.359375 v 9.265625 c 0,0.171875 0,0.359375 0.203125,0.359375 0.1875,0 0.1875,-0.1875 0.1875,-0.359375 z m 0,0"
             style="stroke:none;stroke-width:0"
             inkscape:connector-curvature="0" />
        </g>
      </g>
    </g>
    <text
       xml:space="preserve"
       style="font-style:normal;font-weight:normal;font-size:9.87777805px;line-height:1.25;font-family:sans-serif;letter-spacing:0px;word-spacing:0px;fill:#0000ff;fill-opacity:1;stroke:#0000ff;stroke-width:0.26458332;stroke-opacity:1;"
       x="-443.70633"
       y="-117.07292"
       id="text3057"><tspan
         sodipodi:role="line"
         id="tspan3055"
         x="-443.70633"
         y="-117.07292"
         style="font-size:9.87777805px;stroke:#0000ff;stroke-width:0.26458332;stroke-opacity:1;fill:#0000ff;fill-opacity:1;">Slope = -1</tspan></text>
    <text
       id="text3061"
       y="-117.33751"
       x="-265.90668"
       style="font-style:normal;font-weight:normal;font-size:3.52777767px;line-height:1.25;font-family:sans-serif;letter-spacing:0px;word-spacing:0px;fill:#0000ff;fill-opacity:1;stroke:none;stroke-width:0.26458332;"
       xml:space="preserve"><tspan
         style="font-size:9.87777805px;stroke:#0000fd;stroke-width:0.26458332;stroke-opacity:1;fill:#0000ff;fill-opacity:1;"
         y="-117.33751"
         x="-265.90668"
         id="tspan3059"
         sodipodi:role="line">Slope = 1</tspan></text>
    <text
       id="text3065"
       y="-58.070839"
       x="-319.88132"
       style="font-style:normal;font-weight:normal;font-size:9.87777805px;line-height:1.25;font-family:sans-serif;letter-spacing:0px;word-spacing:0px;fill:#0000ff;fill-opacity:1;stroke:none;stroke-width:0.26458332;"
       xml:space="preserve"><tspan
         style="font-size:9.87777805px;stroke:#0000fd;stroke-width:0.26458332;stroke-opacity:1;fill:#0000ff;fill-opacity:1;"
         y="-58.070839"
         x="-319.88132"
         id="tspan3063"
         sodipodi:role="line">Slope undefined at <tspan
   style="font-style:italic;fill:#0000ff;fill-opacity:1;"
   id="tspan3067">x</tspan>=0</tspan></text>
  </g>
</svg>
