<?xml version="1.0" encoding="UTF-8" standalone="no"?>
<!-- Created with Inkscape (http://www.inkscape.org/) -->

<svg
   xmlns:ns1="http://www.iki.fi/pav/software/textext/"
   xmlns:dc="http://purl.org/dc/elements/1.1/"
   xmlns:cc="http://creativecommons.org/ns#"
   xmlns:rdf="http://www.w3.org/1999/02/22-rdf-syntax-ns#"
   xmlns:svg="http://www.w3.org/2000/svg"
   xmlns="http://www.w3.org/2000/svg"
   xmlns:sodipodi="http://sodipodi.sourceforge.net/DTD/sodipodi-0.dtd"
   xmlns:inkscape="http://www.inkscape.org/namespaces/inkscape"
   width="210mm"
   height="297mm"
   viewBox="0 0 210 297"
   version="1.1"
   id="svg8"
   sodipodi:docname="crossproduct.svg"
   inkscape:version="0.92.3 (2405546, 2018-03-11)"
   inkscape:export-filename="/home/francois/Dropbox/Courses/VisionAndImageProcessing/2020_21/Lectures/FIGURES/crossproduct.png"
   inkscape:export-xdpi="90"
   inkscape:export-ydpi="90">
  <sodipodi:namedview
     id="base"
     pagecolor="#ffffff"
     bordercolor="#666666"
     borderopacity="1.0"
     inkscape:pageopacity="0.0"
     inkscape:pageshadow="2"
     inkscape:zoom="0.49497475"
     inkscape:cx="-1482.0041"
     inkscape:cy="934.74409"
     inkscape:document-units="mm"
     inkscape:current-layer="g1206"
     showgrid="false"
     showguides="false"
     inkscape:window-width="3840"
     inkscape:window-height="2126"
     inkscape:window-x="1920"
     inkscape:window-y="0"
     inkscape:window-maximized="1">
    <inkscape:grid
       type="xygrid"
       id="grid815" />
  </sodipodi:namedview>
  <defs
     id="defs2">
    <marker
       inkscape:isstock="true"
       style="overflow:visible;"
       id="marker1456"
       refX="0.0"
       refY="0.0"
       orient="auto"
       inkscape:stockid="Arrow1Mend">
      <path
         transform="scale(0.4) rotate(180) translate(10,0)"
         style="fill-rule:evenodd;stroke:#db864c;stroke-width:1pt;stroke-opacity:1;fill:#db864c;fill-opacity:1"
         d="M 0.0,0.0 L 5.0,-5.0 L -12.5,0.0 L 5.0,5.0 L 0.0,0.0 z "
         id="path1202" />
    </marker>
    <marker
       inkscape:stockid="Arrow1Mend"
       orient="auto"
       refY="0.0"
       refX="0.0"
       id="marker989"
       style="overflow:visible;"
       inkscape:isstock="true">
      <path
         id="path987"
         d="M 0.0,0.0 L 5.0,-5.0 L -12.5,0.0 L 5.0,5.0 L 0.0,0.0 z "
         style="fill-rule:evenodd;stroke:#ef5ce3;stroke-width:1pt;stroke-opacity:1;fill:#ef5ce3;fill-opacity:1"
         transform="scale(0.4) rotate(180) translate(10,0)" />
    </marker>
    <marker
       inkscape:stockid="Arrow1Mend"
       orient="auto"
       refY="0.0"
       refX="0.0"
       id="marker3348"
       style="overflow:visible;"
       inkscape:isstock="true">
      <path
         id="path3346"
         d="M 0.0,0.0 L 5.0,-5.0 L -12.5,0.0 L 5.0,5.0 L 0.0,0.0 z "
         style="fill-rule:evenodd;stroke:#000000;stroke-width:1pt;stroke-opacity:1;fill:#000000;fill-opacity:1"
         transform="scale(0.4) rotate(180) translate(10,0)" />
    </marker>
    <marker
       inkscape:isstock="true"
       style="overflow:visible;"
       id="marker2891"
       refX="0.0"
       refY="0.0"
       orient="auto"
       inkscape:stockid="Arrow1Mend">
      <path
         transform="scale(0.4) rotate(180) translate(10,0)"
         style="fill-rule:evenodd;stroke:#000000;stroke-width:1pt;stroke-opacity:1;fill:#000000;fill-opacity:1"
         d="M 0.0,0.0 L 5.0,-5.0 L -12.5,0.0 L 5.0,5.0 L 0.0,0.0 z "
         id="path2889" />
    </marker>
    <marker
       inkscape:isstock="true"
       style="overflow:visible;"
       id="marker2024"
       refX="0.0"
       refY="0.0"
       orient="auto"
       inkscape:stockid="Arrow1Mend"
       inkscape:collect="always">
      <path
         transform="scale(0.4) rotate(180) translate(10,0)"
         style="fill-rule:evenodd;stroke:#00fe00;stroke-width:1pt;stroke-opacity:1;fill:#00ff00;fill-opacity:1"
         d="M 0.0,0.0 L 5.0,-5.0 L -12.5,0.0 L 5.0,5.0 L 0.0,0.0 z "
         id="path2022" />
    </marker>
    <marker
       inkscape:isstock="true"
       style="overflow:visible;"
       id="marker1508"
       refX="0.0"
       refY="0.0"
       orient="auto"
       inkscape:stockid="Arrow1Mend">
      <path
         transform="scale(0.4) rotate(180) translate(10,0)"
         style="fill-rule:evenodd;stroke:#000000;stroke-width:1pt;stroke-opacity:1;fill:#000000;fill-opacity:1"
         d="M 0.0,0.0 L 5.0,-5.0 L -12.5,0.0 L 5.0,5.0 L 0.0,0.0 z "
         id="path1506" />
    </marker>
    <marker
       inkscape:isstock="true"
       style="overflow:visible;"
       id="marker1141"
       refX="0.0"
       refY="0.0"
       orient="auto"
       inkscape:stockid="Arrow1Mend"
       inkscape:collect="always">
      <path
         transform="scale(0.4) rotate(180) translate(10,0)"
         style="fill-rule:evenodd;stroke:#2e5ce3;stroke-width:1pt;stroke-opacity:1;fill:#2e5ce3;fill-opacity:1"
         d="M 0.0,0.0 L 5.0,-5.0 L -12.5,0.0 L 5.0,5.0 L 0.0,0.0 z "
         id="path1139" />
    </marker>
    <marker
       inkscape:stockid="Arrow1Mend"
       orient="auto"
       refY="0.0"
       refX="0.0"
       id="marker1105"
       style="overflow:visible;"
       inkscape:isstock="true"
       inkscape:collect="always">
      <path
         id="path1103"
         d="M 0.0,0.0 L 5.0,-5.0 L -12.5,0.0 L 5.0,5.0 L 0.0,0.0 z "
         style="fill-rule:evenodd;stroke:#000000;stroke-width:1pt;stroke-opacity:1;fill:#000000;fill-opacity:1"
         transform="scale(0.4) rotate(180) translate(10,0)" />
    </marker>
    <marker
       inkscape:stockid="Arrow1Mend"
       orient="auto"
       refY="0.0"
       refX="0.0"
       id="Arrow1Mend"
       style="overflow:visible;"
       inkscape:isstock="true"
       inkscape:collect="always">
      <path
         id="path828"
         d="M 0.0,0.0 L 5.0,-5.0 L -12.5,0.0 L 5.0,5.0 L 0.0,0.0 z "
         style="fill-rule:evenodd;stroke:#ff0000;stroke-width:1pt;stroke-opacity:1;fill:#ff0000;fill-opacity:1"
         transform="scale(0.4) rotate(180) translate(10,0)" />
    </marker>
  </defs>
  <metadata
     id="metadata5">
    <rdf:RDF>
      <cc:Work
         rdf:about="">
        <dc:format>image/svg+xml</dc:format>
        <dc:type
           rdf:resource="http://purl.org/dc/dcmitype/StillImage" />
        <dc:title />
      </cc:Work>
    </rdf:RDF>
  </metadata>
  <g
     inkscape:label="Layer 1"
     inkscape:groupmode="layer"
     id="layer1">
    <g
       id="g1206">
      <path
         inkscape:connector-curvature="0"
         id="path1131"
         d="M -628.43421,27.874703 -668.41816,-240.43454"
         style="fill:none;stroke:#2e5ce3;stroke-width:2.561;stroke-linecap:butt;stroke-linejoin:miter;stroke-miterlimit:4;stroke-dasharray:none;stroke-opacity:1;marker-end:url(#marker1141)" />
      <g
         id="g4713"
         ns1:jacobian_sqrt="2.52307"
         ns1:alignment="middle center"
         ns1:scale="7.1520100159"
         ns1:preamble="/home/francois/Documents/Mypapers/InkscapeHeader/header.inc"
         ns1:text="\\color{blue}{$\\bv\\times\\bw$}"
         ns1:pdfconverter="pdf2svg"
         ns1:texconverter="pdflatex"
         ns1:version="0.11.0"
         transform="matrix(2.52307,0,0,2.52307,-1022.3398,-481.21918)">
        <g
           id="g4711">
          <g
             id="g4701"
             style="fill:#0000ff;fill-opacity:1">
            <path
               id="path4699"
               transform="translate(148.712,134.765)"
               d="M 4.671875,-4.09375 C 4.71875,-4.234375 4.71875,-4.25 4.71875,-4.28125 c 0,-0.28125 -0.25,-0.28125 -0.40625,-0.28125 H 4.109375 c -0.421875,0 -0.53125,0.140625 -0.625,0.421875 L 2.5,-1.125 1.515625,-4.140625 C 1.453125,-4.34375 1.375,-4.5625 0.890625,-4.5625 H 0.65625 c -0.140625,0 -0.390625,0 -0.390625,0.28125 0,0.03125 0,0.046875 0.046875,0.1875 L 1.5,-0.421875 C 1.640625,0 1.9375,0 2.125,0 h 0.71875 c 0.1875,0 0.5,0 0.640625,-0.421875 z m 0,0"
               style="stroke:none;stroke-width:0"
               inkscape:connector-curvature="0" />
          </g>
          <g
             id="g4705"
             style="fill:#0000ff;fill-opacity:1">
            <path
               id="path4703"
               transform="translate(156.06,134.765)"
               d="M 3.875,-2.765625 1.890625,-4.75 C 1.765625,-4.875 1.75,-4.890625 1.671875,-4.890625 1.5625,-4.890625 1.46875,-4.8125 1.46875,-4.6875 c 0,0.0625 0.015625,0.078125 0.125,0.1875 l 2,2 -2,2.015625 c -0.109375,0.109375 -0.125,0.125 -0.125,0.1875 0,0.125 0.09375,0.203125 0.203125,0.203125 0.078125,0 0.09375,-0.015625 0.21875,-0.140625 L 3.875,-2.21875 l 2.0625,2.0625 c 0.015625,0.015625 0.078125,0.0625 0.140625,0.0625 0.125,0 0.203125,-0.078125 0.203125,-0.203125 0,-0.015625 0,-0.046875 -0.03125,-0.109375 C 6.234375,-0.421875 4.65625,-1.984375 4.15625,-2.5 l 1.828125,-1.8125 c 0.046875,-0.0625 0.203125,-0.1875 0.25,-0.25 0,-0.015625 0.046875,-0.0625 0.046875,-0.125 0,-0.125 -0.078125,-0.203125 -0.203125,-0.203125 C 6,-4.890625 5.96875,-4.859375 5.859375,-4.75 Z m 0,0"
               style="stroke:none;stroke-width:0"
               inkscape:connector-curvature="0" />
          </g>
          <g
             id="g4709"
             style="fill:#0000ff;fill-opacity:1">
            <path
               id="path4707"
               transform="translate(166.022,134.765)"
               d="M 7.171875,-4.28125 C 7.140625,-4.5625 6.953125,-4.5625 6.65625,-4.5625 6.1875,-4.5625 6.0625,-4.53125 5.921875,-4.015625 5.703125,-3.25 5.265625,-1.6875 5.109375,-1.125 l -0.84375,-2.984375 c -0.0625,-0.234375 -0.125,-0.453125 -0.59375,-0.453125 -0.140625,0 -0.375,0 -0.515625,0.21875 -0.078125,0.15625 -0.53125,1.875 -0.875,3.046875 l -0.796875,-2.8125 C 1.390625,-4.453125 1.28125,-4.5625 0.875,-4.5625 H 0.671875 c -0.1875,0 -0.40625,0 -0.4375,0.28125 l 1.0625,3.828125 C 1.421875,0 1.6875,0 1.9375,0 H 2.21875 C 2.6875,0 2.765625,-0.15625 2.875,-0.546875 3.09375,-1.375 3.453125,-2.625 3.5,-3.15625 H 3.515625 C 3.5625,-2.59375 4,-1.015625 4.140625,-0.546875 4.25,-0.1875 4.296875,0 4.796875,0 H 5.46875 C 5.90625,0 6,-0.125 6.09375,-0.453125 Z m 0,0"
               style="stroke:none;stroke-width:0"
               inkscape:connector-curvature="0" />
          </g>
        </g>
      </g>
      <path
         inkscape:connector-curvature="0"
         id="path817"
         d="m -628.15049,42.343569 c 202.49013,87.136191 202.49013,87.136191 202.49013,87.136191"
         style="fill:none;stroke:#ff0000;stroke-width:2.72051287;stroke-linecap:butt;stroke-linejoin:miter;stroke-miterlimit:4;stroke-dasharray:none;stroke-opacity:1;marker-end:url(#Arrow1Mend)" />
      <path
         inkscape:connector-curvature="0"
         id="path1101"
         d="M -628.15049,42.343569 -376.67802,-109.64867"
         style="fill:none;stroke:#000000;stroke-width:2.41223955;stroke-linecap:butt;stroke-linejoin:miter;stroke-miterlimit:4;stroke-dasharray:none;stroke-opacity:1;marker-end:url(#marker1105)" />
      <path
         sodipodi:nodetypes="ccc"
         style="fill:none;stroke:#000000;stroke-width:1.02500916;stroke-linecap:butt;stroke-linejoin:miter;stroke-miterlimit:4;stroke-dasharray:0.51250455, 0.51250455;stroke-dashoffset:0;stroke-opacity:1"
         d="m -628.55528,18.51423 14.06182,6.051126 3.612,25.700221"
         id="path1390"
         inkscape:connector-curvature="0" />
      <path
         style="fill:none;stroke:#000000;stroke-width:2.72051287;stroke-linecap:butt;stroke-linejoin:miter;stroke-miterlimit:4;stroke-dasharray:none;stroke-opacity:1"
         d="m -377.25907,-109.64867 c 202.49013,87.136194 202.49013,87.136194 202.49013,87.136194"
         id="path1504"
         inkscape:connector-curvature="0" />
      <path
         style="fill:#00ff00;fill-opacity:1;stroke:#00fe00;stroke-width:2.41223955;stroke-linecap:butt;stroke-linejoin:miter;stroke-miterlimit:4;stroke-dasharray:none;stroke-opacity:1;marker-end:url(#marker2024)"
         d="M -628.15049,42.343569 -376.67802,-109.64867"
         id="path2020"
         inkscape:connector-curvature="0" />
      <path
         style="fill:none;stroke:#000000;stroke-width:1.33328247;stroke-linecap:butt;stroke-linejoin:miter;stroke-miterlimit:4;stroke-dasharray:0.66664126, 0.66664126;stroke-dashoffset:0;stroke-opacity:1"
         d="m -628.55528,18.51423 12.45324,-6.46866 2.39314,21.728083"
         id="path1392"
         inkscape:connector-curvature="0"
         sodipodi:nodetypes="ccc" />
      <path
         inkscape:connector-curvature="0"
         id="path3344"
         d="M -425.66036,129.47976 -174.18789,-22.512476"
         style="fill:none;stroke:#000000;stroke-width:2.41223955;stroke-linecap:butt;stroke-linejoin:miter;stroke-miterlimit:4;stroke-dasharray:none;stroke-opacity:1" />
      <g
         transform="matrix(2.7426053,0,0,2.9370146,-972.05364,-292.70963)"
         ns1:version="0.11.0"
         ns1:texconverter="pdflatex"
         ns1:pdfconverter="pdf2svg"
         ns1:text="\\color{red}{$\\bv$}"
         ns1:preamble="/home/francois/Documents/Mypapers/InkscapeHeader/header.inc"
         ns1:scale="2.83464566935"
         ns1:alignment="middle center"
         ns1:jacobian_sqrt="1.0"
         id="g4089">
        <g
           id="surface1">
          <g
             style="fill:#ff0000;fill-opacity:1"
             id="g4086">
            <path
               inkscape:connector-curvature="0"
               style="stroke:none;stroke-width:0"
               d="M 4.671875,-4.09375 C 4.71875,-4.234375 4.71875,-4.25 4.71875,-4.28125 c 0,-0.28125 -0.25,-0.28125 -0.40625,-0.28125 H 4.109375 c -0.421875,0 -0.53125,0.140625 -0.625,0.421875 L 2.5,-1.125 1.515625,-4.140625 C 1.453125,-4.34375 1.375,-4.5625 0.890625,-4.5625 H 0.65625 c -0.140625,0 -0.390625,0 -0.390625,0.28125 0,0.03125 0,0.046875 0.046875,0.1875 L 1.5,-0.421875 C 1.640625,0 1.9375,0 2.125,0 h 0.71875 c 0.1875,0 0.5,0 0.640625,-0.421875 z m 0,0"
               transform="translate(148.712,134.765)"
               id="path4084" />
          </g>
        </g>
      </g>
      <g
         transform="matrix(2.7426051,0,0,2.8198552,-933.7717,-439.39885)"
         ns1:version="0.11.0"
         ns1:texconverter="pdflatex"
         ns1:pdfconverter="pdf2svg"
         ns1:text="\\color{green}{$\\bw$}"
         ns1:preamble="/home/francois/Documents/Mypapers/InkscapeHeader/header.inc"
         ns1:scale="7.1520100159"
         ns1:alignment="middle center"
         ns1:jacobian_sqrt="2.52307"
         id="g4467">
        <g
           id="g4465">
          <g
             style="fill:#00ff00;fill-opacity:1"
             id="g4463">
            <path
               inkscape:connector-curvature="0"
               style="stroke:none;stroke-width:0"
               d="M 7.171875,-4.28125 C 7.140625,-4.5625 6.953125,-4.5625 6.65625,-4.5625 6.1875,-4.5625 6.0625,-4.53125 5.921875,-4.015625 5.703125,-3.25 5.265625,-1.6875 5.109375,-1.125 l -0.84375,-2.984375 c -0.0625,-0.234375 -0.125,-0.453125 -0.59375,-0.453125 -0.140625,0 -0.375,0 -0.515625,0.21875 -0.078125,0.15625 -0.53125,1.875 -0.875,3.046875 l -0.796875,-2.8125 C 1.390625,-4.453125 1.28125,-4.5625 0.875,-4.5625 H 0.671875 c -0.1875,0 -0.40625,0 -0.4375,0.28125 l 1.0625,3.828125 C 1.421875,0 1.6875,0 1.9375,0 H 2.21875 C 2.6875,0 2.765625,-0.15625 2.875,-0.546875 3.09375,-1.375 3.453125,-2.625 3.5,-3.15625 H 3.515625 C 3.5625,-2.59375 4,-1.015625 4.140625,-0.546875 4.25,-0.1875 4.296875,0 4.796875,0 H 5.46875 C 5.90625,0 6,-0.125 6.09375,-0.453125 Z m 0,0"
               transform="translate(148.712,134.765)"
               id="path4461" />
          </g>
        </g>
      </g>
      <path
         style="opacity:1;fill:none;fill-opacity:0.1254902;stroke:#363735;stroke-width:4.67034197;stroke-miterlimit:4;stroke-dasharray:0, 51.37376467;stroke-dashoffset:0;stroke-opacity:1"
         d="m -432.0944,119.74814 -6.07135,-6.56288 1.34395,4.37241 c 0.73918,2.40484 1.24878,4.53213 1.13245,4.72731 -0.11637,0.19519 -40.0861,-16.82777 -88.82166,-37.828815 l -88.6101,-38.183705 -0.17165,-5.190584 -0.17161,-5.190574 113.67502,-68.702855 c 62.52128,-37.786569 113.80292,-68.445717 113.95923,-68.131447 0.15629,0.31428 -0.0195,1.71294 -0.39102,3.108147 -0.37136,1.395207 -0.54884,2.790824 -0.3944,3.101374 0.15448,0.310549 2.47809,-2.285469 5.16366,-5.768941 l 4.88285,-6.33357 97.97457,42.178524 c 53.88604,23.198188 98.10361,42.441393 98.26128,42.762678 0.30531,0.622155 -244.12488,148.542148 -245.10883,148.330678 -0.31956,-0.0687 -3.31316,-3.07818 -6.65239,-6.68775 z"
         id="path954"
         inkscape:connector-curvature="0" />
      <path
         style="opacity:1;fill:none;fill-opacity:0.1254902;stroke:#363735;stroke-width:9.4355154;stroke-miterlimit:4;stroke-dasharray:0, 103.79067623;stroke-dashoffset:0;stroke-opacity:1"
         d="m -432.0944,119.74814 -6.07135,-6.56288 1.34395,4.37241 c 0.73918,2.40484 1.24878,4.53213 1.13245,4.72731 -0.11637,0.19519 -40.0861,-16.82777 -88.82166,-37.828815 l -88.6101,-38.183705 -0.17165,-5.190584 -0.17161,-5.190574 113.67502,-68.702855 c 62.52128,-37.786569 113.80292,-68.445717 113.95923,-68.131447 0.15629,0.31428 -0.0195,1.71294 -0.39102,3.108147 -0.37136,1.395207 -0.54884,2.790824 -0.3944,3.101374 0.15448,0.310549 2.47809,-2.285469 5.16366,-5.768941 l 4.88285,-6.33357 97.97457,42.178524 c 53.88604,23.198188 98.10361,42.441393 98.26128,42.762678 0.30531,0.622155 -244.12488,148.542148 -245.10883,148.330678 -0.31956,-0.0687 -3.31316,-3.07818 -6.65239,-6.68775 z"
         id="path956"
         inkscape:connector-curvature="0" />
      <path
         style="opacity:1;fill:none;fill-opacity:0.1254902;stroke:#363735;stroke-width:9.4355154;stroke-miterlimit:4;stroke-dasharray:0, 103.79067623;stroke-dashoffset:0;stroke-opacity:1"
         d="m -432.0944,119.74814 -6.07135,-6.56288 1.34395,4.37241 c 0.73918,2.40484 1.24878,4.53213 1.13245,4.72731 -0.11637,0.19519 -40.0861,-16.82777 -88.82166,-37.828815 l -88.6101,-38.183705 -0.17165,-5.190584 -0.17161,-5.190574 113.67502,-68.702855 c 62.52128,-37.786569 113.80292,-68.445717 113.95923,-68.131447 0.15629,0.31428 -0.0195,1.71294 -0.39102,3.108147 -0.37136,1.395207 -0.54884,2.790824 -0.3944,3.101374 0.15448,0.310549 2.47809,-2.285469 5.16366,-5.768941 l 4.88285,-6.33357 97.97457,42.178524 c 53.88604,23.198188 98.10361,42.441393 98.26128,42.762678 0.30531,0.622155 -244.12488,148.542148 -245.10883,148.330678 -0.31956,-0.0687 -3.31316,-3.07818 -6.65239,-6.68775 z"
         id="path958"
         inkscape:connector-curvature="0" />
      <path
         style="opacity:1;fill:none;fill-opacity:0.1254902;stroke:#363735;stroke-width:9.4355154;stroke-miterlimit:4;stroke-dasharray:0, 103.79067623;stroke-dashoffset:0;stroke-opacity:1"
         d="m -432.0944,119.74814 -6.07135,-6.56288 1.34395,4.37241 c 0.73918,2.40484 1.24878,4.53213 1.13245,4.72731 -0.11637,0.19519 -40.0861,-16.82777 -88.82166,-37.828815 l -88.6101,-38.183705 -0.17165,-5.190584 -0.17161,-5.190574 113.67502,-68.702855 c 62.52128,-37.786569 113.80292,-68.445717 113.95923,-68.131447 0.15629,0.31428 -0.0195,1.71294 -0.39102,3.108147 -0.37136,1.395207 -0.54884,2.790824 -0.3944,3.101374 0.15448,0.310549 2.47809,-2.285469 5.16366,-5.768941 l 4.88285,-6.33357 97.97457,42.178524 c 53.88604,23.198188 98.10361,42.441393 98.26128,42.762678 0.30531,0.622155 -244.12488,148.542148 -245.10883,148.330678 -0.31956,-0.0687 -3.31316,-3.07818 -6.65239,-6.68775 z"
         id="path960"
         inkscape:connector-curvature="0" />
      <path
         style="opacity:1;fill:none;fill-opacity:0.1254902;stroke:#363735;stroke-width:9.4355154;stroke-miterlimit:4;stroke-dasharray:0, 103.79067623;stroke-dashoffset:0;stroke-opacity:1"
         d="m -432.0944,119.74814 -6.07135,-6.56288 1.34395,4.37241 c 0.73918,2.40484 1.24878,4.53213 1.13245,4.72731 -0.11637,0.19519 -40.0861,-16.82777 -88.82166,-37.828815 l -88.6101,-38.183705 -0.17165,-5.190584 -0.17161,-5.190574 113.67502,-68.702855 c 62.52128,-37.786569 113.80292,-68.445717 113.95923,-68.131447 0.15629,0.31428 -0.0195,1.71294 -0.39102,3.108147 -0.37136,1.395207 -0.54884,2.790824 -0.3944,3.101374 0.15448,0.310549 2.47809,-2.285469 5.16366,-5.768941 l 4.88285,-6.33357 97.97457,42.178524 c 53.88604,23.198188 98.10361,42.441393 98.26128,42.762678 0.30531,0.622155 -244.12488,148.542148 -245.10883,148.330678 -0.31956,-0.0687 -3.31316,-3.07818 -6.65239,-6.68775 z"
         id="path962"
         inkscape:connector-curvature="0" />
      <path
         sodipodi:nodetypes="scccscccscccscsccs"
         style="opacity:1;fill:#002020;fill-opacity:0.1254902;stroke:#363735;stroke-width:9.4355154;stroke-miterlimit:4;stroke-dasharray:0, 103.79067623;stroke-dashoffset:0;stroke-opacity:1"
         d="m -432.0944,119.74814 -6.07135,-6.56288 1.34395,4.37241 c 0.73918,2.40484 1.24878,4.53213 1.13245,4.72731 -0.11637,0.19519 -40.0861,-16.82777 -88.82166,-37.828815 l -88.6101,-38.183705 -0.17165,-5.190584 -0.17161,-5.190574 113.67502,-68.702855 c 62.52128,-37.786569 113.80292,-68.445717 113.95923,-68.131447 0.15629,0.31428 -0.0195,1.71294 -0.39102,3.108147 -0.37136,1.395207 -0.54884,2.790824 -0.3944,3.101374 0.15448,0.310549 2.47809,-2.285469 5.16366,-5.768941 l 4.88285,-6.33357 97.97457,42.178524 c 53.88604,23.198188 98.10361,42.441393 98.26128,42.762678 0.30531,0.622155 -244.12488,148.542148 -245.10883,148.330678 -0.31956,-0.0687 -3.31316,-3.07818 -6.65239,-6.68775 z"
         id="path964"
         inkscape:connector-curvature="0" />
      <path
         style="fill:none;stroke:#ef5ce3;stroke-width:2.56100011;stroke-linecap:butt;stroke-linejoin:miter;stroke-miterlimit:4;stroke-dasharray:none;stroke-opacity:1;marker-end:url(#marker989)"
         d="m -628.43421,27.874703 39.98395,268.309247"
         id="path985"
         inkscape:connector-curvature="0" />
      <g
         transform="matrix(2.523070,0.000000,0.000000,2.523070,-970.428483,-192.033550)"
         ns1:version="0.11.0"
         ns1:texconverter="pdflatex"
         ns1:pdfconverter="pdf2svg"
         ns1:text="\\definecolor{lila}{RGB}{219, 92, 227}\n\\color{lila}{$\\bw\\times\\bv$}"
         ns1:preamble="/home/francois/Documents/Mypapers/InkscapeHeader/header.inc"
         ns1:scale="7.1520100159"
         ns1:alignment="middle center"
         inkscapeversion="0.92.3"
         ns1:jacobian_sqrt="2.52307"
         id="g1072">
        <g
           id="g1070">
          <g
             style="fill:rgb(85.879517%,36.077881%,89.016724%);fill-opacity:1;"
             id="g1060">
            <path
               style="stroke:none;stroke-width:0"
               d="M 7.171875 -4.28125 C 7.140625 -4.5625 6.953125 -4.5625 6.65625 -4.5625 C 6.1875 -4.5625 6.0625 -4.53125 5.921875 -4.015625 C 5.703125 -3.25 5.265625 -1.6875 5.109375 -1.125 L 4.265625 -4.109375 C 4.203125 -4.34375 4.140625 -4.5625 3.671875 -4.5625 C 3.53125 -4.5625 3.296875 -4.5625 3.15625 -4.34375 C 3.078125 -4.1875 2.625 -2.46875 2.28125 -1.296875 L 1.484375 -4.109375 C 1.390625 -4.453125 1.28125 -4.5625 0.875 -4.5625 L 0.671875 -4.5625 C 0.484375 -4.5625 0.265625 -4.5625 0.234375 -4.28125 L 1.296875 -0.453125 C 1.421875 0 1.6875 0 1.9375 0 L 2.21875 0 C 2.6875 0 2.765625 -0.15625 2.875 -0.546875 C 3.09375 -1.375 3.453125 -2.625 3.5 -3.15625 L 3.515625 -3.15625 C 3.5625 -2.59375 4 -1.015625 4.140625 -0.546875 C 4.25 -0.1875 4.296875 0 4.796875 0 L 5.46875 0 C 5.90625 0 6 -0.125 6.09375 -0.453125 Z M 7.171875 -4.28125 "
               transform="translate(148.712,134.765)"
               id="path1058" />
          </g>
          <g
             style="fill:rgb(85.879517%,36.077881%,89.016724%);fill-opacity:1;"
             id="g1064">
            <path
               style="stroke:none;stroke-width:0"
               d="M 3.875 -2.765625 L 1.890625 -4.75 C 1.765625 -4.875 1.75 -4.890625 1.671875 -4.890625 C 1.5625 -4.890625 1.46875 -4.8125 1.46875 -4.6875 C 1.46875 -4.625 1.484375 -4.609375 1.59375 -4.5 L 3.59375 -2.5 L 1.59375 -0.484375 C 1.484375 -0.375 1.46875 -0.359375 1.46875 -0.296875 C 1.46875 -0.171875 1.5625 -0.09375 1.671875 -0.09375 C 1.75 -0.09375 1.765625 -0.109375 1.890625 -0.234375 L 3.875 -2.21875 L 5.9375 -0.15625 C 5.953125 -0.140625 6.015625 -0.09375 6.078125 -0.09375 C 6.203125 -0.09375 6.28125 -0.171875 6.28125 -0.296875 C 6.28125 -0.3125 6.28125 -0.34375 6.25 -0.40625 C 6.234375 -0.421875 4.65625 -1.984375 4.15625 -2.5 L 5.984375 -4.3125 C 6.03125 -4.375 6.1875 -4.5 6.234375 -4.5625 C 6.234375 -4.578125 6.28125 -4.625 6.28125 -4.6875 C 6.28125 -4.8125 6.203125 -4.890625 6.078125 -4.890625 C 6 -4.890625 5.96875 -4.859375 5.859375 -4.75 Z M 3.875 -2.765625 "
               transform="translate(158.495,134.765)"
               id="path1062" />
          </g>
          <g
             style="fill:rgb(85.879517%,36.077881%,89.016724%);fill-opacity:1;"
             id="g1068">
            <path
               style="stroke:none;stroke-width:0"
               d="M 4.671875 -4.09375 C 4.71875 -4.234375 4.71875 -4.25 4.71875 -4.28125 C 4.71875 -4.5625 4.46875 -4.5625 4.3125 -4.5625 L 4.109375 -4.5625 C 3.6875 -4.5625 3.578125 -4.421875 3.484375 -4.140625 L 2.5 -1.125 L 1.515625 -4.140625 C 1.453125 -4.34375 1.375 -4.5625 0.890625 -4.5625 L 0.65625 -4.5625 C 0.515625 -4.5625 0.265625 -4.5625 0.265625 -4.28125 C 0.265625 -4.25 0.265625 -4.234375 0.3125 -4.09375 L 1.5 -0.421875 C 1.640625 0 1.9375 0 2.125 0 L 2.84375 0 C 3.03125 0 3.34375 0 3.484375 -0.421875 Z M 4.671875 -4.09375 "
               transform="translate(168.458,134.765)"
               id="path1066" />
          </g>
        </g>
      </g>
      <path
         transform="scale(0.26458333)"
         inkscape:connector-curvature="0"
         id="path1181"
         d="m -1980.7888,323.49769 c -266.9973,-114.94644 -326.5785,-140.76787 -326.9158,-141.67953 -0.3322,-0.89807 -0.6814,-1.05662 -1.7962,-0.81542 -1.0769,0.23301 -7.0685,-2.13462 -27.0144,-10.67497 -14.0969,-6.03592 -25.6219,-11.20168 -25.6112,-11.47947 0.011,-0.27779 9.5746,-6.25615 21.2532,-13.28523 16.7609,-10.08805 21.3802,-12.65867 21.9287,-12.20343 0.4103,0.34052 1.3757,0.44435 2.3571,0.25353 l 1.6622,-0.32321 -1.955,1.16241 -1.955,1.16242 0.3052,6.31345 c 0.1679,3.4724 0.4315,11.42735 0.5859,17.67767 0.3919,15.87282 0.2945,15.34768 3.0408,16.39651 1.9844,0.75784 2.2509,1.04199 2.2509,2.39959 0,1.52929 0.015,1.53756 2.1466,1.19388 1.1806,-0.19035 2.3739,-0.35923 2.6517,-0.37529 0.2777,-0.0161 68.3494,29.22262 151.2703,64.97486 290.7782,125.37213 444.819,191.38173 495.1429,212.17871 5.2007,2.14925 6.0617,2.67356 6.6321,4.03888 1.0739,2.57008 1.3741,3.75702 0.9362,3.70159 -0.2271,-0.0287 -147.3393,-63.30637 -326.9162,-140.61695 z"
         style="opacity:1;fill:#002020;fill-opacity:0.1254902;stroke:#ef5ce3;stroke-width:5.78411722;stroke-miterlimit:4;stroke-dasharray:0, 63.62529284;stroke-dashoffset:0;stroke-opacity:1" />
      <path
         transform="scale(0.26458333)"
         inkscape:connector-curvature="0"
         id="path1183"
         d="m -1628.7791,465.61632 c -11.5284,-9.44982 -21.001,-17.33513 -21.0503,-17.52296 -0.049,-0.18779 -1.3578,-4.52559 -2.9079,-9.63954 -1.55,-5.11394 -2.7392,-9.37719 -2.6425,-9.47391 0.097,-0.0967 6.6325,6.81484 14.524,15.35901 16.7121,18.09426 31.7735,33.46504 32.7917,33.46504 0.3918,0 3.5621,-1.63745 7.0451,-3.63882 68.4308,-39.3214 676.8565,-407.052919 871.27566,-526.597634 31.49176,-19.363699 47.61622,-29.552724 47.84254,-30.231612 0.0863,-0.258867 -4.33582,-2.480779 -9.82696,-4.937581 -59.3803,-26.567543 -198.09208,-86.657503 -507.48394,-219.842103 -73.8927,-31.80873 -154.1241,-66.36336 -178.292,-76.78805 -24.1679,-10.4247 -44.3983,-19.0529 -44.9565,-19.17378 -0.8257,-0.17883 -2.991,2.34689 -11.6167,13.5504 -15.0695,19.5729 -23.8609,30.10449 -26.1553,31.33242 -0.9863,0.52784 -1.0063,0.43043 -0.7318,-3.57413 0.1687,-2.46041 0.6024,-4.60545 1.078,-5.33137 0.9953,-1.5189 36.1159,-39.34449 36.7535,-39.58417 0.2566,-0.0965 169.6626,72.63402 376.4579,161.62325 284.79513,122.55455 375.8424,161.937301 375.37697,162.370434 -0.76898,0.715607 -934.91887,565.282576 -935.84467,565.591176 -0.3719,0.12394 -10.1084,-7.50629 -21.6368,-16.95607 z"
         style="opacity:1;fill:#002020;fill-opacity:0.1254902;stroke:#ef5ce3;stroke-width:5.78411722;stroke-miterlimit:4;stroke-dasharray:0, 63.62529284;stroke-dashoffset:0;stroke-opacity:1" />
      <path
         transform="scale(0.26458333)"
         inkscape:connector-curvature="0"
         id="path1185"
         d="m -1609.6528,480.6931 c -1.4913,-1.12728 -4.1887,-3.18052 -5.9943,-4.56281 -4.2458,-3.25026 -21.3646,-17.15668 -24.0057,-19.50104 -1.1193,-0.99344 -2.805,-2.37447 -3.7461,-3.06895 -0.9411,-0.69448 -2.1846,-1.74297 -2.7633,-2.32996 -0.5787,-0.587 -2.6432,-2.27977 -4.5877,-3.76176 -1.9446,-1.48195 -5.5461,-4.35416 -8.0033,-6.3826 -2.4572,-2.02849 -4.6534,-3.68812 -4.8804,-3.68812 -0.227,0 1.4196,4.56816 3.6591,10.15148 3.3006,8.22875 3.938,10.23618 3.3652,10.59887 -0.5149,0.32603 -0.5333,0.44947 -0.068,0.45513 0.8417,0.0101 2.6399,2.99419 2.6423,4.38492 0,1.03409 -0.3517,0.94181 -6.4378,-1.68044 -3.5419,-1.52604 -7.1216,-3.08162 -7.955,-3.45684 -0.8334,-0.37528 -92.7699,-39.93391 -204.3033,-87.90818 -111.5335,-47.97421 -203.6973,-87.63295 -204.8085,-88.1305 -1.1111,-0.49755 -6.7932,-2.9454 -12.6269,-5.43962 -9.1822,-3.92596 -11.9316,-5.11915 -17.6776,-7.6715 -0.5556,-0.24678 -2.1466,-0.92808 -3.5356,-1.51402 -1.3889,-0.58594 -2.9799,-1.26779 -3.5355,-1.51523 -0.5556,-0.24744 -2.1466,-0.93333 -3.5355,-1.52417 -1.389,-0.59084 -3.2416,-1.39871 -4.117,-1.79534 -0.8753,-0.39659 -1.7118,-0.7211 -1.8588,-0.7211 -0.147,0 -1.8172,-0.70024 -3.7117,-1.55614 -1.8945,-0.85585 -4.24,-1.8954 -5.2123,-2.31012 -0.9723,-0.41467 -2.4496,-1.06611 -3.283,-1.44765 -4.4754,-2.04884 -7.2908,-3.27239 -7.5299,-3.27239 -0.1479,0 -1.5825,-0.58543 -3.188,-1.30102 -1.6055,-0.71554 -3.8283,-1.70645 -4.9395,-2.20208 -1.1111,-0.49559 -4.2931,-1.86535 -7.071,-3.04395 -2.7779,-1.17859 -5.7861,-2.46664 -6.6849,-2.86237 -0.8988,-0.39572 -2.4296,-1.0604 -3.4019,-1.47709 l -3.5355,-1.51523 c -4.5785,-1.96222 -5.6341,-2.42553 -6.4756,-2.84237 -1.7715,-0.87737 -42.0355,-18.20042 -42.5316,-18.29861 -0.2778,-0.055 -1.1869,-0.45835 -2.0203,-0.89646 -0.8334,-0.43805 -4.5835,-2.10177 -8.3337,-3.69721 -33.5579,-14.27643 -75.7615,-33.01794 -75.7615,-33.64373 0,-0.24517 -0.5326,-0.44578 -1.1836,-0.44578 -0.651,0 -2.4124,-0.42997 -3.9143,-0.95551 -2.5576,-0.89494 -15.8964,-6.32017 -19.5172,-7.93813 -2.7962,-1.24946 -5.8468,-2.5725 -10.7402,-4.65796 -0.9723,-0.41437 -2.6139,-1.18239 -3.648,-1.70666 -1.0341,-0.52432 -1.9433,-0.92626 -2.0203,-0.89322 -0.077,0.0328 -1.7311,-0.65973 -3.6756,-1.53958 -1.9446,-0.87979 -4.7364,-2.13672 -6.2042,-2.79312 -2.4405,-1.09152 -2.6153,-1.2788 -2.0455,-2.19127 0.3428,-0.54882 0.7705,-0.90672 0.9507,-0.7954 0.1801,0.11132 0.772,-0.18748 1.3154,-0.66402 1.124,-0.98576 2.4927,-1.89843 3.9633,-2.64286 0.5555,-0.28128 1.692,-0.95919 2.5253,-1.50654 0.8334,-0.54736 1.9698,-1.22921 2.5254,-1.51523 0.5556,-0.28603 1.6208,-0.91444 2.3671,-1.39644 1.1059,-0.71428 6.3832,-3.95545 12.2801,-7.5422 0.5556,-0.33795 1.4648,-0.85484 2.0203,-1.1487 0.5556,-0.29385 1.692,-0.96515 2.5254,-1.49184 0.8334,-0.52664 3.5608,-2.03904 6.0609,-3.36088 3.5272,-1.86484 5.1116,-2.4184 7.0711,-2.47048 2.4251,-0.0645 10.9964,-5.18718 215.9201,-129.0449439 306.2026,-185.0716861 328.865,-198.7459261 433.8605,-261.7868961 92.8234,-55.73259 161.137,-96.44541 190.4138,-113.48075 16.1156,-9.37724 15.6573,-9.11909 15.6573,-8.81973 0,0.14202 -0.9091,3.87432 -2.0203,8.29399 -1.1111,4.41968 -2.0203,8.37719 -2.0203,8.79447 0,0.42323 1.0429,-0.35615 2.3584,-1.76264 1.4883,-1.5911 2.4886,-2.3108 2.7112,-1.95067 0.2129,0.34457 0.4755,0.0815 0.6626,-0.66414 0.1705,-0.67914 1.2801,-2.24346 2.4659,-3.47627 1.1858,-1.2328 4.0879,-4.37719 6.4491,-6.98751 2.3613,-2.61033 5.0887,-5.58381 6.061,-6.60774 0.9722,-1.02393 4.0406,-4.31539 6.8185,-7.31437 2.7779,-2.99898 5.8463,-6.28678 6.8185,-7.30623 0.9723,-1.01945 3.2074,-3.36419 4.9668,-5.21053 l 3.199,-3.35699 1.4878,0.76936 c 0.8183,0.42315 1.7084,0.63302 1.978,0.46637 0.2696,-0.16664 0.4903,-0.0988 0.4903,0.15083 0,0.61645 2.4856,1.71025 3.0682,1.35018 0.257,-0.15882 0.4673,-0.0846 0.4673,0.16505 0,0.61645 2.4857,1.71025 3.0683,1.35018 0.257,-0.15882 0.4672,-0.0845 0.4672,0.16505 0,0.61644 2.4857,1.71025 3.0683,1.35017 0.257,-0.15881 0.4673,-0.0703 0.4673,0.19672 0,0.26701 0.6818,0.72317 1.5152,1.01368 0.8334,0.29052 1.5152,0.41016 1.5152,0.26587 0,-0.14428 0.3572,0.0948 0.7937,0.53135 0.6966,0.69665 1.9229,1.03779 2.3991,0.66743 0.089,-0.0694 0.5601,0.27148 1.0463,0.75761 0.7713,0.77134 1.9934,1.14328 2.4892,0.75762 0.089,-0.0695 0.5602,0.27147 1.0463,0.75761 0.7713,0.77133 1.9934,1.14328 2.4893,0.75761 0.089,-0.0694 0.5601,0.27148 1.0462,0.75762 0.7713,0.77133 1.9935,1.14328 2.4893,0.75761 0.089,-0.0694 0.5601,0.27148 1.0463,0.75762 0.7749,0.77489 1.4768,0.99765 2.6492,0.84074 0.1773,-0.0237 0.4614,0.17627 0.6314,0.44443 0.3533,0.55751 10.084,4.79536 11.0419,4.8089 0.3472,0.005 0.6313,0.1737 0.6313,0.37508 0,0.37637 2.4794,1.21173 3.1567,1.06357 0.2084,-0.0456 0.3788,0.1198 0.3788,0.36747 0,0.43929 2.4024,1.31276 3.1568,1.14776 0.2083,-0.0456 0.3788,0.1198 0.3788,0.36747 0,0.43929 2.4023,1.31276 3.1567,1.14776 0.2084,-0.0456 0.3788,0.11979 0.3788,0.36747 0,0.43929 2.4024,1.31276 3.1567,1.14776 0.2084,-0.0456 0.3788,0.11979 0.3788,0.36747 0,0.43928 2.4024,1.31276 3.1568,1.14776 0.2083,-0.0456 0.3788,0.11979 0.3788,0.36747 0,0.43928 2.4023,1.31275 3.1567,1.14776 0.2084,-0.0456 0.3788,0.11979 0.3788,0.36747 0,0.43928 2.4024,1.31275 3.1567,1.14776 0.2084,-0.0456 0.3789,0.11979 0.3789,0.36747 0,0.41984 1.7081,1.04729 2.7214,0.9997 0.2467,-0.0116 0.5877,0.18088 0.7576,0.42772 0.2841,0.41257 9.7588,4.66054 10.9156,4.89398 0.2778,0.0561 1.2414,0.49188 2.1413,0.96848 0.8999,0.47661 1.7546,0.85735 1.8993,0.84609 0.1447,-0.0113 0.9402,0.32967 1.7678,0.75762 0.8276,0.42794 1.6231,0.76887 1.7678,0.75761 0.1447,-0.0113 0.9402,0.32967 1.7677,0.75762 0.8276,0.42794 1.6231,0.76887 1.7678,0.75761 0.1447,-0.0113 0.9402,0.32967 1.7678,0.75761 0.8275,0.42795 1.623,0.76888 1.7677,0.75762 0.1447,-0.0113 0.9402,0.32967 1.7678,0.75761 0.8276,0.42795 1.6231,0.76887 1.7678,0.75762 0.1447,-0.0113 0.9425,0.3309 1.773,0.76035 0.8305,0.42945 1.51,0.6428 1.51,0.47411 0,-0.16868 0.7386,0.14983 1.6415,0.7078 0.9028,0.55798 1.8687,1.0259 2.1465,1.03982 0.2778,0.0139 1.187,0.34877 2.0203,0.74412 0.8334,0.39534 2.3108,1.05973 3.283,1.47642 l 3.5356,1.51523 c 3.7918,1.62506 5.8828,2.57411 7.6886,3.48966 1.0341,0.52431 2.0025,0.93763 2.1518,0.91849 0.1494,-0.0191 0.9488,0.31534 1.7763,0.74329 0.8276,0.42795 1.6231,0.76887 1.7678,0.75761 0.1447,-0.0113 0.9402,0.32967 1.7678,0.75762 0.8275,0.42794 1.623,0.76887 1.7677,0.75761 0.1447,-0.0113 0.9402,0.32967 1.7678,0.75762 0.8276,0.42794 1.6231,0.76887 1.7678,0.75761 0.1447,-0.0113 0.9402,0.32967 1.7677,0.75762 0.8276,0.42794 1.6231,0.76887 1.7678,0.75761 0.1447,-0.0113 0.9402,0.32967 1.7678,0.75761 0.8275,0.42795 1.6356,0.74574 1.7957,0.7062 0.16,-0.0396 1.0682,0.30294 2.0181,0.76107 0.95,0.45813 2.5227,1.17388 3.495,1.59057 l 3.5356,1.51523 3.5355,1.51523 3.5355,1.51523 3.5356,1.51523 3.5355,1.51523 3.5355,1.51523 c 4.3509,1.86463 5.6897,2.46867 7.4509,3.3616 1.0341,0.52431 2.0024,0.93762 2.1518,0.91849 0.1494,-0.0191 0.9487,0.31534 1.7763,0.74329 0.8276,0.42794 1.6356,0.74573 1.7957,0.70619 0.16,-0.0395 1.0682,0.30295 2.0182,0.76107 0.95,0.45813 2.5227,1.17389 3.4949,1.59058 l 3.5356,1.51522 3.5355,1.51523 3.5355,1.51523 3.5356,1.51523 c 0.9723,0.41669 2.5666,1.09238 3.5429,1.50154 0.9763,0.40916 2.5706,1.08485 3.5429,1.50154 l 3.5355,1.51523 c 0.9723,0.41669 2.5666,1.09238 3.5429,1.50153 2.882,1.20778 5.2026,2.21016 6.9448,2.99981 0.8988,0.40736 2.7706,1.22281 4.1595,1.81211 1.389,0.5893 3.2608,1.40475 4.1595,1.81211 0.8988,0.40736 2.4297,1.08158 3.4019,1.49827 l 3.5356,1.51523 3.5355,1.51522 c 2.2243,0.95325 4.841,2.05018 6.9596,2.91742 0.9028,0.36958 2.4971,1.04527 3.5429,1.50154 1.0457,0.45627 2.6969,1.17051 3.6691,1.5872 l 3.5356,1.51523 c 0.9722,0.41669 2.5031,1.0909 3.4019,1.49826 0.8987,0.40736 2.7705,1.22143 4.1595,1.80904 1.3889,0.58761 2.9799,1.27085 3.5355,1.5183 0.5556,0.24746 2.1466,0.92931 3.5355,1.51523 1.389,0.58592 2.98,1.26777 3.5356,1.51523 0.5556,0.24746 2.1465,0.93069 3.5355,1.5183 1.389,0.58762 3.2641,1.39552 4.1669,1.79535 0.9028,0.39983 2.4403,1.06172 3.4166,1.47088 0.9763,0.40916 2.5707,1.08486 3.5429,1.50154 l 3.5356,1.51523 3.5355,1.51523 c 0.9723,0.41669 2.5031,1.09091 3.4019,1.49826 0.8988,0.40736 2.7705,1.22143 4.1595,1.80904 1.389,0.58761 2.9799,1.27191 3.5355,1.52066 0.5556,0.24875 3.283,1.40012 6.0609,2.5586 2.778,1.15848 5.9599,2.51743 7.0711,3.01987 1.1112,0.50245 5.0711,2.20233 8.7999,3.77753 3.7288,1.57519 7.138,3.03522 7.5761,3.2445 0.4382,0.20927 1.6523,0.74871 2.698,1.19874 1.0458,0.45003 2.6368,1.14855 3.5355,1.55227 2.1067,0.94629 2.3394,1.04586 20.8271,8.91277 8.6115,3.6644 17.1347,7.32953 18.9403,8.14474 1.8057,0.8152 3.7376,1.68487 4.2932,1.93258 0.5556,0.24771 8.0455,3.44471 16.6443,7.10444 8.5988,3.65973 15.98557,6.82085 16.41499,7.02471 1.711,0.81224 4.44285,2.02674 6.84171,3.0416 1.38896,0.58761 2.97995,1.27191 3.53554,1.52066 0.55558,0.24875 3.28299,1.40012 6.06091,2.5586 2.77792,1.15848 5.9599,2.51791 7.07107,3.02096 1.11117,0.50305 4.27082,1.859 7.02142,3.01323 2.75064,1.15424 5.36441,2.27284 5.80838,2.48579 0.75443,0.36184 2.0054,0.90738 6.37785,2.78128 0.97227,0.41669 2.5031,1.09091 3.40189,1.49826 0.89878,0.40736 2.77054,1.22143 4.1595,1.80904 1.38896,0.58761 2.97995,1.27309 3.53554,1.52328 0.55558,0.25019 2.42522,1.03387 4.1548,1.74151 1.72954,0.70764 4.45695,1.86719 6.06092,2.57678 1.60392,0.70959 3.37083,1.48402 3.92641,1.72096 1.17516,0.50117 5.32947,2.28867 7.70979,3.31735 0.90686,0.39191 2.44437,1.0535 3.41664,1.47019 l 3.53553,1.51522 c 0.97227,0.41669 2.50311,1.09091 3.40189,1.49827 0.89879,0.40736 2.77055,1.22544 4.15951,1.81796 1.38896,0.59252 3.24158,1.40181 4.11692,1.79842 0.8754,0.39661 1.71186,0.72111 1.85884,0.72111 0.14697,0 1.81726,0.70026 3.7117,1.55613 1.89449,0.85586 4.24002,1.89541 5.21229,2.3101 0.97227,0.4147 2.5031,1.08431 3.40189,1.48803 0.89878,0.40372 2.43295,1.0688 3.40926,1.47796 0.97632,0.40916 2.57397,1.07869 3.55028,1.48785 0.97632,0.40916 2.57064,1.08485 3.54291,1.50154 l 3.53554,1.51523 3.53553,1.51523 c 0.97227,0.41668 2.50311,1.0909 3.40189,1.49826 0.89878,0.40736 2.77055,1.22544 4.15951,1.81796 4.64761,1.98265 6.05056,2.58941 7.69504,3.32811 0.89878,0.40372 2.42961,1.07496 3.40189,1.49165 l 3.53553,1.51523 c -71.32051,-30.56593 78.39157,33.59638 7.07107,3.03045 4.28845,1.83791 5.67938,2.46309 7.33835,3.29839 0.97227,0.48955 1.94061,0.90287 2.15188,0.9185 0.21122,0.0156 1.06116,0.37855 1.88873,0.8065 0.82757,0.42794 1.62306,0.76887 1.76777,0.75761 0.1447,-0.0113 0.94257,0.3309 1.77307,0.76035 0.83045,0.42945 1.50992,0.6428 1.50992,0.47412 0,-0.16869 0.85232,0.22005 1.89404,0.86387 1.04172,0.64382 1.96581,1.08918 2.05349,0.9897 0.0877,-0.0995 0.93671,0.19394 1.88666,0.65207 0.95,0.45812 2.52271,1.17388 3.49498,1.59057 4.41502,1.89216 5.7018,2.47535 7.59089,3.44033 1.11117,0.5676 2.0795,0.98093 2.15188,0.91849 0.0723,-0.0624 0.80862,0.23662 1.63619,0.66456 0.82757,0.42795 1.62306,0.76888 1.76777,0.75762 0.1447,-0.0113 0.9402,0.32967 1.76777,0.75761 0.82756,0.42795 1.62306,0.76888 1.76776,0.75762 0.14471,-0.0113 0.9402,0.32967 1.76777,0.75761 0.82757,0.42795 1.62306,0.76887 1.76777,0.75762 0.1447,-0.0113 0.9402,0.32966 1.76776,0.75761 0.82757,0.42795 1.62307,0.76887 1.76777,0.75761 0.1447,-0.0113 0.9402,0.32967 1.76777,0.75762 0.82756,0.42795 1.62306,0.76887 1.76776,0.75761 0.14471,-0.0113 0.91379,0.316 1.70903,0.72724 0.79524,0.41124 1.58836,0.60525 1.76246,0.43113 0.1741,-0.17411 0.31659,-0.0761 0.31659,0.21793 0,0.50276 2.33113,1.41251 3.15672,1.23194 0.20835,-0.0456 0.37881,0.11979 0.37881,0.36747 0,0.43928 2.40235,1.31275 3.15673,1.14776 0.20834,-0.0456 0.3788,0.11979 0.3788,0.36746 0,0.40923 2.06309,1.15662 2.84545,1.03082 0.17855,-0.0287 0.46366,0.14978 0.63362,0.39661 0.28406,0.41257 9.75878,4.66054 10.91561,4.89398 0.27779,0.0561 1.21491,0.4782 2.08253,0.9381 0.86762,0.4599 1.71993,0.69372 1.89403,0.51961 0.1741,-0.17412 0.31659,-0.0761 0.31659,0.21793 0,0.50276 2.33113,1.41251 3.15672,1.23194 0.20835,-0.0456 0.37881,0.11979 0.37881,0.36746 0,0.43929 2.40234,1.31276 3.15673,1.14776 0.20834,-0.0455 0.3788,0.1198 0.3788,0.36747 0,0.43929 2.40235,1.31276 3.15673,1.14776 0.20834,-0.0455 0.37881,0.1198 0.37881,0.36747 0,0.43929 2.40234,1.31276 3.15672,1.14776 0.20835,-0.0456 0.37881,0.1198 0.37881,0.36747 0,0.42192 2.32633,1.24289 2.68544,0.94769 0.0906,-0.0744 0.5624,0.26243 1.04854,0.74856 0.7713,0.77134 1.99344,1.14328 2.48927,0.75762 0.0893,-0.0695 0.56013,0.27148 1.04626,0.75761 0.48614,0.48614 1.20855,0.88389 1.60539,0.88389 1.10657,0 1.42426,0.12548 2.14657,0.8478 0.59281,0.59281 1.82828,0.88696 2.27285,0.54116 0.0893,-0.0695 0.56013,0.27147 1.04626,0.75761 0.78726,0.78726 1.83409,1.1212 2.95828,0.94369 0.20835,-0.0329 0.37881,0.13338 0.37881,0.3695 0,0.4081 5.48144,2.90254 7.05905,3.21235 0.41007,0.0805 1.05131,0.43052 1.42502,0.77776 0.61331,0.56988 1.73655,0.85179 2.75388,0.69116 0.20834,-0.0329 0.37881,0.13099 0.37881,0.36419 0,0.59434 2.50139,1.670744 3.06828,1.32037 0.25699,-0.15882 0.46725,-0.0846 0.46725,0.16505 0,0.616452 2.48568,1.710256 3.06829,1.350182 0.25698,-0.158822 0.46724,-0.08455 0.46724,0.165048 0,0.591026 2.47442,1.717214 3.02516,1.376838 0.23324,-0.144153 0.50033,-0.04823 0.59351,0.213132 0.0932,0.261372 6.39841,3.228822 14.01163,6.594332 7.61316,3.365505 14.40209,6.412463 15.08642,6.771022 l 1.24421,0.651922 -2.71206,1.661913 c -1.49164,0.914052 -2.8257,1.82878 -2.9646,2.03273 -0.13889,0.20395 -0.76392,0.530406 -1.38896,0.725466 -0.62503,0.195056 -1.13642,0.566615 -1.13642,0.825689 0,0.259069 -0.32471,0.471039 -0.72155,0.471039 -0.39684,0 -1.03248,0.31094 -1.4125,0.69098 -0.38001,0.380039 -1.19177,0.849922 -1.80382,1.04419 -0.61211,0.194262 -1.11289,0.565175 -1.11289,0.824249 0,0.259068 -0.32471,0.471039 -0.72155,0.471039 -0.39684,0 -1.03248,0.31094 -1.4125,0.69098 -0.38002,0.380039 -1.19178,0.849922 -1.80383,1.044189 -0.6121,0.194263 -1.11288,0.565175 -1.11288,0.824249 0,0.259069 -0.32472,0.471039 -0.72155,0.471039 -0.39684,0 -1.02187,0.296824 -1.38896,0.659605 -0.36709,0.362786 -1.00834,0.826269 -1.42503,1.029966 -0.41668,0.203693 -1.21683,0.645544 -1.77802,0.981889 -0.56124,0.336345 -2.15223,1.278525 -3.53553,2.093738 -1.38335,0.815208 -2.81545,1.781167 -3.18254,2.146574 -0.36709,0.365403 -0.99212,0.664372 -1.38896,0.664372 -0.39683,0 -0.72155,0.202647 -0.72155,0.450321 0,0.24768 -0.56821,0.592935 -1.26269,0.767237 -0.69448,0.174306 -1.26269,0.539871 -1.26269,0.812369 0,0.272499 -0.32471,0.495455 -0.72155,0.495455 -0.39684,0 -1.02187,0.296823 -1.38896,0.659604 -0.36709,0.362786 -1.00834,0.819855 -1.42502,1.015719 -0.41669,0.195858 -1.43947,0.804798 -2.27285,1.3532 -0.83337,0.548397 -1.96979,1.231123 -2.52538,1.517163 -0.55558,0.28604 -1.692,0.967893 -2.52538,1.515229 -0.83338,0.547336 -1.9698,1.229189 -2.52538,1.515229 -0.55558,0.28604 -1.69201,0.958897 -2.52538,1.495233 -0.83338,0.536335 -2.48119,1.482383 -3.6618,2.102334 -1.18062,0.619946 -2.14658,1.287662 -2.14658,1.483813 0,0.196157 -0.39775,0.494147 -0.88388,0.662206 -0.48614,0.168059 -1.56574,0.759402 -2.39911,1.314097 -0.83338,0.554695 -1.9698,1.242574 -2.52539,1.528613 -0.55558,0.28604 -1.692,0.967893 -2.52538,1.515229 -0.83337,0.547336 -1.96979,1.229189 -2.52538,1.515229 -0.55558,0.28604 -1.692,0.967893 -2.52538,1.515229 -0.83338,0.547336 -1.9698,1.229189 -2.52538,1.515229 -0.55559,0.28604 -1.69201,0.968766 -2.52538,1.517163 -0.83338,0.548402 -1.85616,1.153483 -2.27285,1.344624 -0.41668,0.191136 -0.87125,0.489146 -1.01015,0.662241 -0.27971,0.348593 -4.86727,3.15807 -6.06091,3.71179 -0.41669,0.193298 -1.43947,0.800142 -2.27285,1.348544 -0.83337,0.548396 -1.96979,1.231123 -2.52538,1.517163 -0.55558,0.28604 -1.692,0.967893 -2.52538,1.515229 -0.83338,0.547336 -1.9698,1.229189 -2.52538,1.515229 -0.55558,0.28604 -1.62311,0.914445 -2.37234,1.39646 -4.56847,2.93921 -12.6508,7.861669 -14.29518,8.706282 -0.55558,0.285368 -1.692,0.966676 -2.52538,1.514012 -0.83338,0.547336 -1.9698,1.229189 -2.52538,1.515229 -0.55558,0.28604 -1.61872,0.914445 -2.36255,1.39646 -2.63665,1.7085668 -16.33689,10.0360673 -17.08289,10.38357496 -0.41668,0.19410586 -1.37487,0.74816443 -2.1293,1.23123958 -2.05207,1.31399126 -19.59473,12.00162246 -21.46448,13.07692946 -0.89257,0.513355 -5.77918,3.468051 -10.85914,6.565992 -5.0799,3.097941 -9.96818,6.052637 -10.86282,6.565991 -0.89464,0.513355 -6.34947,3.808356 -12.12183,7.322222 -5.77237,3.513871 -11.22553,6.809494 -12.11815,7.323606 -0.89257,0.514117 -5.77918,3.469435 -10.85914,6.567376 -5.0799,3.09794 -9.96545,6.052637 -10.85676,6.565991 -0.89131,0.513355 -16.11936,9.714652 -33.84011,20.447326 -17.72076,10.732674 -32.94906,19.937689 -33.84072,20.455589 -0.89166,0.5179 -62.94024,38.020147 -137.88584,83.338367 -74.9455,45.31822 -136.9952,82.82013 -137.8882,83.33758 -0.893,0.51746 -11.2344,6.76924 -22.9809,13.89283 -11.7466,7.12355 -22.0895,13.37387 -22.9841,13.8896 -0.8946,0.51568 -6.3495,3.81262 -12.1218,7.32649 -5.7724,3.51386 -11.2255,6.80949 -12.1182,7.3236 -0.8925,0.51412 -5.8372,3.50973 -10.988,6.65686 -5.1508,3.14718 -9.989,6.05783 -10.7514,6.46805 -0.7625,0.41028 -2.0052,1.13092 -2.7615,1.6015 -5.0227,3.12506 -15.2808,9.37841 -16.2031,9.87747 -0.6103,0.33022 -2.0187,1.17941 -3.1299,1.88707 -1.1111,0.70766 -2.3612,1.443 -2.7779,1.63412 -0.4167,0.19107 -1.3735,0.74272 -2.1263,1.22577 -3.0359,1.94828 -15.1384,9.33902 -16.4359,10.03703 -0.7635,0.41083 -2.0702,1.18536 -2.9035,1.72125 -0.8334,0.53589 -1.9698,1.20839 -2.5254,1.49442 -0.5556,0.28602 -1.6236,0.91444 -2.3735,1.39643 -3.7608,2.4176 -15.0801,9.28624 -16.8194,10.20613 -0.5556,0.29385 -1.692,0.98207 -2.5254,1.52942 -0.8334,0.54735 -1.9698,1.22921 -2.5254,1.51523 -0.5556,0.28603 -1.621,0.91444 -2.3676,1.39644 -3.9896,2.57563 -15.2069,9.39027 -16.8253,10.22153 -0.5556,0.28537 -1.692,0.96666 -2.5254,1.51401 -0.8333,0.54736 -1.9698,1.22921 -2.5253,1.51523 -0.5556,0.28603 -1.6227,0.91444 -2.3713,1.39644 -3.1716,2.04212 -11.3258,7.0294 -12.0234,7.35376 -0.4167,0.19379 -1.4395,0.801 -2.2729,1.34941 -0.8333,0.54836 -1.9698,1.23112 -2.5253,1.51715 -0.5556,0.28602 -1.692,0.96788 -2.5254,1.51523 -0.8334,0.54735 -1.9698,1.2292 -2.5254,1.51523 -0.5556,0.28602 -1.692,0.96878 -2.5254,1.51714 -0.8334,0.54842 -1.8561,1.1535 -2.2728,1.34462 -0.4167,0.19117 -0.8713,0.49123 -1.0102,0.6669 -0.1389,0.17561 -2.0708,1.39063 -4.2931,2.69994 -2.2224,1.30936 -4.3816,2.60326 -4.7982,2.87545 -0.4167,0.27213 -1.2122,0.72493 -1.7678,1.00616 -0.5556,0.28127 -1.692,0.95919 -2.5254,1.50654 -0.8334,0.54735 -1.9698,1.2292 -2.5254,1.51523 -0.5556,0.28602 -1.692,0.95575 -2.5254,1.48826 -0.8333,0.53245 -2.4243,1.4631 -3.5355,2.06803 -1.1112,0.60493 -2.1339,1.26845 -2.2728,1.47452 -0.2412,0.3577 -3.671,2.45775 -5.8084,3.55634 -0.5556,0.28557 -1.692,0.96702 -2.5254,1.51437 -0.8334,0.54735 -1.9698,1.22921 -2.5254,1.51523 -0.5556,0.28603 -1.692,0.96788 -2.5254,1.51523 -0.8333,0.54735 -1.9698,1.22921 -2.5253,1.51523 -0.5556,0.28602 -1.692,0.97394 -2.5254,1.52861 -0.8334,0.55468 -1.913,1.14602 -2.3991,1.31411 -0.4862,0.16804 -0.8839,0.48169 -0.8839,0.69696 0,0.21531 -0.5682,0.53401 -1.2627,0.70831 -0.6945,0.17431 -1.2627,0.53988 -1.2627,0.81242 0,0.27249 -0.3247,0.49543 -0.7215,0.49543 -0.3969,0 -1.0219,0.29683 -1.389,0.65963 -0.3671,0.36274 -1.0083,0.81984 -1.425,1.01571 -0.4167,0.19581 -1.4395,0.80479 -2.2729,1.3532 -0.8334,0.54836 -1.9698,1.23112 -2.5254,1.51715 -0.5555,0.28602 -1.692,0.96787 -2.5253,1.51522 -0.8334,0.54736 -1.9698,1.22921 -2.5254,1.51523 -0.5556,0.28603 -1.692,0.97394 -2.5254,1.52862 -0.8334,0.55467 -1.913,1.14601 -2.3991,1.3141 -0.4861,0.16804 -0.8839,0.50634 -0.8839,0.75171 0,0.24542 -0.3247,0.44618 -0.7215,0.44618 -0.3969,0 -1.0325,0.31093 -1.4125,0.691 -0.3801,0.38002 -1.1918,0.84989 -1.8039,1.04419 -0.6121,0.19425 -1.1129,0.56518 -1.1129,0.82424 0,0.25905 -0.3247,0.47103 -0.7215,0.47103 -0.3968,0 -1.0315,0.28411 -1.4103,0.63135 -0.807,0.73978 -2.2559,1.68862 -3.6765,2.4078 -0.5556,0.28127 -1.692,0.95919 -2.5254,1.50654 -0.8334,0.54735 -1.9698,1.20304 -2.5254,1.45719 -0.5556,0.25411 -1.8726,1.05294 -2.9266,1.77524 -1.0541,0.72231 -2.1337,1.31325 -2.3991,1.31325 -0.2655,0 -0.4827,0.22294 -0.4827,0.49543 0,0.27254 -0.5682,0.63812 -1.2627,0.81242 -0.6944,0.1743 -1.2627,0.49487 -1.2627,0.71246 0,0.21759 -0.5682,0.53816 -1.2626,0.71246 -0.6945,0.1743 -1.2627,0.53988 -1.2627,0.81241 0,0.27249 -0.3248,0.49543 -0.7216,0.49543 -0.3968,0 -1.0325,0.31093 -1.4125,0.691 -0.38,0.38002 -1.1918,0.84989 -1.8038,1.04419 -0.6121,0.19426 -1.1129,0.56518 -1.1129,0.82424 0,0.25905 -0.3247,0.47103 -0.7216,0.47103 -0.3968,0 -1.0324,0.31093 -1.4124,0.691 -0.3801,0.38002 -1.1918,0.84989 -1.8039,1.04419 -0.6121,0.19425 -1.1129,0.56518 -1.1129,0.82423 0,0.25906 -0.2238,0.47104 -0.4975,0.47104 -0.5325,0 -5.6468,3.00732 -6.0685,3.56841 -0.1389,0.18481 -0.7639,0.49563 -1.3889,0.6907 -0.625,0.19506 -1.1364,0.56664 -1.1364,0.82569 0,0.25906 -0.3248,0.47104 -0.7216,0.47104 -0.3968,0 -1.0325,0.31092 -1.4125,0.69099 -0.38,0.38002 -1.1918,0.84989 -1.8038,1.0442 -0.6121,0.19425 -1.1129,0.56518 -1.1129,0.82423 0,0.25906 -0.3247,0.47104 -0.7216,0.47104 -0.3968,0 -1.0324,0.31092 -1.4124,0.69099 -0.3801,0.38002 -1.1918,0.84989 -1.8039,1.0442 -0.6121,0.19425 -1.1129,0.54053 -1.1129,0.76948 0,0.22895 -0.5682,0.55887 -1.2627,0.73317 -0.6944,0.1743 -1.2626,0.53987 -1.2626,0.81241 0,0.27249 -0.3248,0.49543 -0.7216,0.49543 -0.3968,0 -1.0254,0.28411 -1.3966,0.63135 -0.3714,0.34724 -1.524,1.0649 -2.5615,1.59478 -1.0375,0.52987 -1.8863,1.16829 -1.8863,1.41875 0,0.25042 -0.1929,0.33613 -0.4286,0.19047 -0.2358,-0.14566 -0.9691,0.23865 -1.6297,0.85408 -0.6606,0.61544 -1.2558,1.00531 -1.3228,0.86641 -0.067,-0.1389 -0.5268,0.0944 -1.022,0.51831 -0.4951,0.42391 -1.1275,0.81984 -1.4053,0.87974 -0.2778,0.0599 -0.846,0.40083 -1.2627,0.75762 -0.4167,0.35678 -0.9849,0.69771 -1.2627,0.75761 -0.2778,0.0599 -0.846,0.40083 -1.2627,0.75762 -0.4167,0.35678 -0.9849,0.69771 -1.2627,0.75761 -0.2778,0.0599 -0.876,0.42649 -1.3293,0.81464 -0.7231,0.61917 -1.1569,0.45426 -3.5355,-1.34386 z m -42.916,-49.22988 c -3.1334,-3.34174 -3.506,-3.601 -3.1347,-2.18113 0.1486,0.56837 0.434,0.93212 0.6342,0.80838 0.2002,-0.12374 1.3581,0.78797 2.5731,2.02601 3.1902,3.25052 3.1367,2.76949 -0.073,-0.65326 z m -649.477,-250.13903 c -0.4167,-0.2693 -0.9849,-0.48962 -1.2627,-0.48962 -0.2777,0 -0.1641,0.22032 0.2526,0.48962 0.4167,0.26931 0.9849,0.48962 1.2627,0.48962 0.2778,0 0.1641,-0.22031 -0.2526,-0.48962 z m -3.0304,-1.26269 c -0.6945,-0.39699 -1.49,-0.7218 -1.7678,-0.7218 -0.2778,0 0.063,0.32481 0.7576,0.7218 0.6945,0.39699 1.49,0.72181 1.7678,0.72181 0.2778,0 -0.063,-0.32482 -0.7576,-0.72181 z m -4.4576,-0.57053 c 1.6758,-0.27709 1.8082,-0.41139 1.3635,-1.38341 -0.3884,-0.84923 -0.9448,-1.07869 -2.6353,-1.08677 -2.0561,-0.0101 -2.1345,0.0465 -1.9375,1.38896 0.2201,1.49983 0.3708,1.55059 3.2093,1.08122 z m 0.7461,-4.48205 c 0.088,-0.27678 -0.039,-0.81731 -0.282,-1.20117 -0.664,-1.04945 -4.0877,-0.30466 -4.0877,0.88914 0,0.49674 0.1154,1.01853 0.2565,1.15965 0.4217,0.42174 3.9407,-0.30345 4.1132,-0.84762 z m -0.4754,-3.4872 c 0.058,-0.05 -0.028,-0.60493 -0.1927,-1.23354 -0.1917,-0.73307 -0.5616,-1.04213 -1.0314,-0.86187 -0.4029,0.15461 -1.2822,0.28113 -1.9539,0.28113 -0.9772,0 -1.2214,0.26138 -1.2214,1.30709 0,1.25668 0.083,1.2934 2.1466,0.95247 1.1806,-0.19506 2.1943,-0.39543 2.2528,-0.44528 z m -1.2135,-3.61468 c 1.1726,-0.44997 0.4289,-2.24021 -0.9307,-2.24021 -1.8256,0 -2.7603,0.53139 -2.7603,1.56927 0,0.71968 0.3645,0.95611 1.4739,0.95611 0.8107,0 1.8083,-0.12834 2.2171,-0.28517 z m -1.0393,-3.74852 c 0.6042,-0.005 0.8838,-0.40638 0.8838,-1.26961 0,-1.37184 -0.1157,-1.41634 -2.4622,-0.94702 -1.261,0.25219 -1.5784,0.56872 -1.5784,1.57412 0,1.05859 0.1805,1.21011 1.1364,0.95394 0.6251,-0.16753 1.5342,-0.30764 2.0204,-0.31143 z m -0.4202,-3.84904 c 0.4394,-0.16859 0.799,-0.7368 0.799,-1.26269 0,-0.77872 -0.3748,-0.95611 -2.0203,-0.95611 -1.8183,0 -2.0203,0.12627 -2.0203,1.2627 0,0.99878 0.2552,1.26269 1.2213,1.26269 0.6718,0 1.5809,-0.13794 2.0203,-0.30659 z m 0.2939,-5.04975 c 0,-1.27562 -0.4113,-1.40517 -2.8883,-0.90979 -1.2057,0.24112 -1.4581,0.51497 -1.2892,1.39881 0.1813,0.94787 0.4828,1.07293 2.1938,0.90979 1.7034,-0.16243 1.9837,-0.36012 1.9837,-1.39881 z m -2.0835,-2.53548 c 1.214,-0.24279 1.5784,-0.58155 1.5784,-1.46715 0,-1.06096 -0.1688,-1.12995 -2.1466,-0.87757 -2.6005,0.33194 -2.4203,0.19719 -2.0676,1.54604 0.3221,1.23163 0.3813,1.24956 2.6358,0.79868 z m 0.9822,-5.1139 c 0.1397,-0.98389 -0.064,-1.13536 -1.5152,-1.12869 -2.1527,0.0101 -3.0633,0.5967 -2.6397,1.70079 0.2481,0.64655 0.8042,0.83085 2.1637,0.71726 1.456,-0.12172 1.8628,-0.38507 1.9912,-1.28936 z m -1.2978,-2.64473 c 0.6123,-0.005 0.8839,-0.4085 0.8839,-1.31401 0,-1.25668 -0.083,-1.29339 -2.1466,-0.95247 -2.6046,0.43033 -2.5747,0.40573 -2.144,1.76262 0.2605,0.82085 0.6192,1.02141 1.4351,0.80256 0.5982,-0.16051 1.4854,-0.29491 1.9716,-0.2987 z m -0.7576,-3.8608 c 0.6684,-0.17915 1.1364,-0.69625 1.1364,-1.25577 0,-0.7707 -0.3778,-0.95126 -1.9905,-0.95126 -2.0891,0 -2.8341,0.56487 -2.3633,1.79196 0.2986,0.77797 1.3548,0.91424 3.2174,0.41507 z m -1.0354,-3.72226 c 1.4411,0 1.6667,-0.17092 1.6667,-1.26269 0,-1.3377 -0.386,-1.46331 -2.9319,-0.95409 -1.3139,0.26279 -1.5368,0.52871 -1.5009,1.79125 0.029,1.03233 0.2027,1.32214 0.5707,0.95409 0.2907,-0.29072 1.2786,-0.52856 2.1954,-0.52856 z m 855.413,-495.87078 c -0.3247,-0.20652 -0.6861,-1.16899 -0.8031,-2.13884 -0.2028,-1.68057 -0.2166,-1.66258 -0.2936,0.38322 -0.066,1.74101 0.086,2.14512 0.803,2.13884 0.5798,-0.005 0.6808,-0.13692 0.2937,-0.38322 z m -0.3225,-6.03915 c -0.128,-0.49143 -0.2412,-0.21165 -0.2515,0.62173 -0.01,0.83338 0.095,1.23545 0.2328,0.8935 0.1384,-0.34196 0.1468,-1.02381 0.019,-1.51523 z m 37.7967,-38.92921 c -0.1555,-0.15551 -0.5631,-3.2e-4 -0.9057,0.34486 -0.4951,0.49882 -0.4371,0.55683 0.2827,0.28273 0.4981,-0.18967 0.7784,-0.47209 0.623,-0.62759 z"
         style="opacity:1;fill:#002020;fill-opacity:0.1254902;stroke:#ef5ce3;stroke-width:5.78411722;stroke-miterlimit:4;stroke-dasharray:0, 63.62529284;stroke-dashoffset:0;stroke-opacity:1" />
      <path
         transform="scale(0.26458333)"
         inkscape:connector-curvature="0"
         id="path1187"
         d="m -2315.1853,131.37624 c -0.6998,-0.75665 35.817,-22.93803 426.95,-259.34244 235.2434,-142.18327 427.8208,-258.40948 427.9498,-258.28046 0.129,0.12903 -0.059,1.55794 -0.4178,3.17536 l -0.6524,2.94076 -7.824,4.51066 c -46.9364,27.05965 -221.4358,131.63833 -435.8761,261.22351 -46.808,28.285805 -95.9014,57.948459 -109.0965,65.917007 -13.1951,7.968553 -70.9253,42.8543177 -128.2894,77.523925 -119.554,72.255918 -162.8091,98.266468 -168.1904,101.137778 -3.4847,1.85939 -3.8493,1.955 -4.5532,1.1939 z"
         style="opacity:1;fill:#002020;fill-opacity:0.1254902;stroke:#ef5ce3;stroke-width:5.78411722;stroke-miterlimit:4;stroke-dasharray:0, 63.62529284;stroke-dashoffset:0;stroke-opacity:1" />
      <path
         transform="scale(0.26458333)"
         inkscape:connector-curvature="0"
         id="path1189"
         d="m -2314.8615,131.46958 c -0.4101,-0.41012 1.4212,-1.63276 15.4674,-10.32669 6.3198,-3.91168 11.4905,-7.32621 11.4905,-7.58787 0,-0.26166 0.219,-0.34039 0.4866,-0.17497 0.2677,0.16542 0.9495,-0.16209 1.5153,-0.72781 0.5657,-0.56572 1.0285,-0.92288 1.0285,-0.79371 0,0.37284 15.037,-8.77805 15.9895,-9.73052 0.4721,-0.47212 0.9883,-0.79973 1.147,-0.728 0.1588,0.0717 0.7432,-0.25882 1.2988,-0.73452 0.5556,-0.4757 1.0596,-0.761672 1.1201,-0.63548 0.06,0.12619 0.515,-0.117429 1.0101,-0.541385 0.4952,-0.423951 1.1276,-0.81984 1.4053,-0.879747 0.2778,-0.05991 0.846,-0.400834 1.2627,-0.757615 0.4167,-0.35678 0.9849,-0.71294 1.2627,-0.791469 0.7119,-0.201233 15.6029,-9.282969 15.9099,-9.703132 0.1389,-0.19007 0.764,-0.505172 1.389,-0.700232 0.625,-0.195056 1.1364,-0.566615 1.1364,-0.825689 0,-0.259069 0.3247,-0.471039 0.7215,-0.471039 0.3969,0 1.0325,-0.31094 1.4126,-0.69098 0.38,-0.380039 1.1917,-0.849922 1.8038,-1.044189 0.6121,-0.194263 1.1129,-0.565176 1.1129,-0.824249 0,-0.259069 0.259,-0.47104 0.5755,-0.47104 0.5789,0 15.6203,-9.000221 16.092,-9.628814 0.1389,-0.18511 0.7639,-0.496152 1.389,-0.691212 0.625,-0.195055 1.1364,-0.541977 1.1364,-0.770933 0,-0.228956 0.5682,-0.558898 1.2627,-0.733199 0.6944,-0.174307 1.2627,-0.539871 1.2627,-0.81237 0,-0.272499 0.3246,-0.495455 0.7215,-0.495455 0.3968,0 1.0219,-0.296823 1.3889,-0.659604 0.3671,-0.362786 1.0084,-0.819309 1.4251,-1.014496 0.4167,-0.195192 1.5531,-0.830679 2.5254,-1.412198 0.9722,-0.581525 3.6997,-2.212502 6.0609,-3.624397 2.3612,-1.411901 4.4068,-2.721796 4.5457,-2.910886 0.1389,-0.189086 0.7639,-0.503385 1.3889,-0.698445 0.6251,-0.195055 1.1365,-0.566615 1.1365,-0.825689 0,-0.259068 0.3246,-0.471039 0.7215,-0.471039 0.3968,0 1.0219,-0.296823 1.3889,-0.659604 0.3671,-0.362786 1.0084,-0.819855 1.4251,-1.015719 0.4167,-0.195858 1.4395,-0.804798 2.2728,-1.3532 0.8334,-0.548397 1.9698,-1.230578 2.5254,-1.515946 1.6542,-0.849665 11.2253,-6.666497 14.3254,-8.706283 0.7326,-0.482014 1.7865,-1.11042 2.3421,-1.39646 0.5556,-0.286039 1.692,-0.967892 2.5254,-1.515228 0.8334,-0.547336 1.9698,-1.229189 2.5254,-1.515229 0.5556,-0.28604 1.692,-0.958524 2.5254,-1.49441 0.8333,-0.535886 2.0834,-1.297723 2.7779,-1.69297 1.3356,-0.760135 6.6811,-4.042797 8.9851,-5.517686 0.7529,-0.482014 1.8235,-1.11042 2.3791,-1.39646 0.5556,-0.286039 1.692,-0.967892 2.5254,-1.515228 0.8334,-0.547336 1.9698,-1.229189 2.5254,-1.515229 0.5556,-0.28604 1.6207,-0.914446 2.3671,-1.39646 1.1058,-0.714239 6.3832,-3.955455 12.2801,-7.542198 0.5556,-0.337932 1.4647,-0.854837 2.0203,-1.14868 0.5556,-0.293843 1.6267,-0.928633 2.3803,-1.410648 1.5871,-1.015178 20.9048,-12.7506603 22.2276,-13.5032896 0.4883,-0.277792 5.3749,-3.2324881 10.8591,-6.5659915 5.4843,-3.3335034 10.3711,-6.2881999 10.8595,-6.5659919 0.4884,-0.277792 5.944,-3.573414 12.1235,-7.323606 6.1796,-3.750191 11.6343,-7.045813 12.1216,-7.323605 0.4873,-0.277792 5.3731,-3.232489 10.8574,-6.565992 5.4843,-3.333503 10.3758,-6.288199 10.87,-6.565991 0.4942,-0.277792 51.6183,-31.18846 113.609,-68.690372 61.9907,-37.50191 113.6838,-68.75351 114.8736,-69.44799 4.5869,-2.67743 19.7614,-11.83089 22.1652,-13.37043 1.3889,-0.88955 2.8663,-1.77053 3.283,-1.95771 0.4167,-0.1872 1.37,-0.73559 2.1186,-1.21867 2.1369,-1.37908 16.2308,-9.92609 17.0743,-10.35443 0.4167,-0.21161 1.4394,-0.83326 2.2728,-1.38146 0.8334,-0.5482 1.9698,-1.23076 2.5254,-1.5168 0.5556,-0.28604 1.6149,-0.91444 2.3542,-1.39646 0.7391,-0.48201 4.5521,-2.8083 8.4733,-5.16953 3.9211,-2.36123 7.7483,-4.68752 8.5049,-5.16953 0.7567,-0.48202 1.8303,-1.11042 2.3859,-1.39646 0.5556,-0.28604 1.692,-0.96033 2.5254,-1.49843 0.8333,-0.53809 2.0205,-1.27339 2.6382,-1.63399 0.6176,-0.36061 3.9132,-2.36029 7.3236,-4.44373 3.4103,-2.08343 6.5415,-3.9612 6.9582,-4.1728 0.4167,-0.21161 1.4395,-0.83326 2.2729,-1.38146 0.8333,-0.5482 1.9697,-1.23076 2.5253,-1.5168 0.5556,-0.28604 1.692,-0.9679 2.5254,-1.51523 0.8334,-0.54734 1.9698,-1.22919 2.5254,-1.51523 0.5556,-0.28604 1.611,-0.91445 2.3455,-1.39646 0.7345,-0.48201 3.4291,-2.12645 5.9883,-3.6543 2.5591,-1.52786 5.2538,-3.1723 5.9882,-3.65431 0.7345,-0.48201 1.7899,-1.11042 2.3455,-1.39646 0.5556,-0.28604 1.692,-0.96789 2.5254,-1.51522 0.8334,-0.54734 1.9698,-1.22919 2.5254,-1.51523 0.5556,-0.28604 1.692,-0.96034 2.5254,-1.49843 1.7083,-1.10303 2.3107,-1.4704 7.0671,-4.30995 1.8613,-1.11117 3.9874,-2.41468 4.7245,-2.89669 0.7372,-0.48201 1.7949,-1.11042 2.3505,-1.39646 0.5556,-0.28604 1.692,-0.96789 2.5254,-1.51523 0.8333,-0.54733 1.9698,-1.22919 2.5254,-1.51523 0.5555,-0.28604 1.692,-0.95575 2.5253,-1.48824 0.8334,-0.53249 2.3129,-1.40613 3.2879,-1.94142 0.975,-0.5353 3.1342,-1.85527 4.7983,-2.93328 3.5699,-2.3127 4.6948,-3.00446 6.056,-3.72439 0.5556,-0.29385 1.692,-0.98208 2.5254,-1.52942 0.8333,-0.54734 1.9697,-1.22919 2.5253,-1.51523 0.5556,-0.28604 1.692,-0.96789 2.5254,-1.51523 0.8334,-0.54733 1.9698,-1.23557 2.5254,-1.52941 0.5556,-0.29385 1.4647,-0.81098 2.0203,-1.14918 3.9148,-2.38311 8.6207,-5.28915 9.7589,-6.02647 0.744,-0.48202 1.8073,-1.11042 2.3629,-1.39646 0.5556,-0.28604 1.692,-0.9679 2.5254,-1.51523 0.8334,-0.54734 1.9698,-1.22919 2.5254,-1.51523 0.5556,-0.28604 1.692,-0.96877 2.5254,-1.51716 0.8334,-0.54841 1.8561,-1.1563 2.2728,-1.35087 1.2607,-0.5887 8.3156,-4.87771 8.5863,-5.22007 0.1389,-0.17564 0.5935,-0.47573 1.0102,-0.66687 0.4167,-0.19114 1.4394,-0.79622 2.2728,-1.34462 0.8334,-0.5484 1.9698,-1.23113 2.5254,-1.51717 0.5556,-0.28604 1.692,-0.96789 2.5254,-1.51522 0.8334,-0.54734 1.9698,-1.22865 2.5254,-1.51402 0.5555,-0.28537 1.8056,-0.99377 2.7779,-1.57423 8.6508,-5.16458 10.3865,-6.23375 10.6066,-6.53334 0.1389,-0.18908 0.7639,-0.50338 1.3889,-0.69844 0.6251,-0.19506 1.1365,-0.54011 1.1365,-0.76678 0,-0.22668 0.3977,-0.54964 0.8838,-0.7177 0.4862,-0.16805 1.5658,-0.7594 2.3992,-1.31409 0.8333,-0.5547 1.9698,-1.24258 2.5253,-1.52862 0.5556,-0.28604 1.692,-0.96876 2.5254,-1.51716 0.8334,-0.5484 1.8562,-1.15629 2.2729,-1.35087 1.3431,-0.62719 8.3253,-4.88942 8.5863,-5.24142 0.1389,-0.18738 0.7639,-0.50028 1.3889,-0.69534 0.625,-0.19506 1.1364,-0.54198 1.1364,-0.77094 0,-0.22895 0.5682,-0.55889 1.2627,-0.7332 0.6945,-0.1743 1.2627,-0.53987 1.2627,-0.81237 0,-0.27249 0.3247,-0.49545 0.7216,-0.49545 0.3968,0 1.0324,-0.31094 1.4125,-0.69098 0.38,-0.38004 1.1917,-0.84992 1.8038,-1.04419 0.6121,-0.19426 1.1129,-0.56518 1.1129,-0.82425 0,-0.25907 0.2393,-0.47104 0.5318,-0.47104 0.549,0 13.1608,-7.52018 13.6103,-8.11562 0.1389,-0.18399 0.7639,-0.49412 1.389,-0.68917 0.625,-0.19506 1.1364,-0.54198 1.1364,-0.77094 0,-0.22896 0.5682,-0.5589 1.2627,-0.7332 0.6945,-0.1743 1.2627,-0.53987 1.2627,-0.81237 0,-0.2725 0.3247,-0.49545 0.7215,-0.49545 0.3969,0 1.0325,-0.31094 1.4125,-0.69098 0.38,-0.38004 1.1918,-0.84992 1.8039,-1.04419 0.6121,-0.19426 1.1128,-0.56518 1.1128,-0.82425 0,-0.25907 0.2533,-0.47104 0.5629,-0.47104 0.6193,0 10.6487,-5.94853 11.0539,-6.55621 0.1389,-0.20829 0.7639,-0.5383 1.389,-0.73336 0.625,-0.19505 1.1364,-0.54197 1.1364,-0.77093 0,-0.22896 0.5682,-0.5589 1.2627,-0.7332 0.6944,-0.17431 1.2627,-0.53987 1.2627,-0.81237 0,-0.2725 0.2511,-0.49546 0.558,-0.49546 0.6985,0 15.7447,-9.02357 16.1659,-9.69514 0.17,-0.27096 0.5109,-0.47139 0.7577,-0.44539 0.2467,0.026 0.9031,-0.34194 1.4587,-0.81764 0.5556,-0.47571 1.0596,-0.76167 1.1201,-0.63548 0.06,0.12619 0.515,-0.11743 1.0101,-0.54139 0.4952,-0.42395 1.1276,-0.81984 1.4054,-0.87975 0.2777,-0.0599 0.9596,-0.49813 1.5152,-0.97384 0.5556,-0.47571 1.079,-0.79831 1.1631,-0.71689 0.2965,0.28678 15.7569,-9.16082 15.7569,-9.62874 0,-0.26075 0.219,-0.33874 0.4867,-0.17332 0.2677,0.16542 0.9116,-0.10527 1.4311,-0.60154 0.5194,-0.49627 1.1527,-0.94228 1.4073,-0.99115 0.2547,-0.0489 0.8493,-0.23926 1.3215,-0.42309 0.7144,-0.27814 0.8163,-0.0937 0.6075,1.099 -0.8215,4.69163 -0.9054,4.7931 -6.5296,7.89458 -8.4954,4.68474 -50.6203,29.57284 -104.2854,61.61351 -40.3901,24.11487 -222.2301,133.30203 -237.3858,142.54011 -3.7502,2.2859 -23.7513,14.38461 -44.4468,26.88601 -20.6955,12.50141 -120.9278,73.065597 -222.7386,134.587093 -232.8984,140.734257 -235.7561,142.451267 -237.4026,142.642997 -0.7509,0.0874 -1.5102,0.0141 -1.6873,-0.16294 z"
         style="opacity:1;fill:#002020;fill-opacity:0.1254902;stroke:#ef5ce3;stroke-width:5.78411722;stroke-miterlimit:4;stroke-dasharray:0, 63.62529284;stroke-dashoffset:0;stroke-opacity:1" />
      <path
         inkscape:connector-curvature="0"
         id="path1191"
         d="m -628.15049,42.34357 290.0508,-79.096552"
         style="fill:none;stroke:#db864c;stroke-width:1.665;stroke-linecap:butt;stroke-linejoin:miter;stroke-opacity:1;stroke-miterlimit:4;stroke-dasharray:none;marker-end:url(#marker1456)" />
      <g
         id="g1547"
         ns1:jacobian_sqrt="2.52307"
         inkscapeversion="0.92.3"
         ns1:alignment="middle center"
         ns1:scale="7.1520100159"
         ns1:preamble="/home/francois/Documents/Mypapers/InkscapeHeader/header.inc"
         ns1:text="\\definecolor{brun}{RGB}{219, 134, 76}\n\\color{brun}{$\\bz$}"
         ns1:pdfconverter="pdf2svg"
         ns1:texconverter="pdflatex"
         ns1:version="0.11.0"
         transform="matrix(2.52307,0,0,2.52307,-785.88587,-372.17517)">
        <g
           id="g1545">
          <g
             id="g1543"
             style="fill:#d9854a;fill-opacity:1">
            <path
               id="path1541"
               transform="translate(148.712,134.765)"
               d="M 4.25,-3.8125 C 4.34375,-3.9375 4.359375,-3.984375 4.359375,-4.140625 4.359375,-4.5625 4.0625,-4.5625 3.890625,-4.5625 H 0.9375 c -0.125,0 -0.484375,0 -0.484375,0.375 0,0.375 0.328125,0.375 0.59375,0.375 0.3125,0 1.125,-0.03125 1.453125,-0.03125 H 2.859375 L 0.421875,-0.75 C 0.328125,-0.625 0.3125,-0.578125 0.3125,-0.421875 0.3125,0 0.625,0 0.78125,0 h 3.140625 c 0.125,0 0.46875,0 0.46875,-0.375 0,-0.375 -0.296875,-0.375 -0.59375,-0.375 -0.5,0 -1.03125,0.015625 -1.53125,0.015625 H 1.8125 Z m 0,0"
               style="stroke:none;stroke-width:0"
               inkscape:connector-curvature="0" />
          </g>
        </g>
      </g>
    </g>
  </g>
</svg>
