<?xml version="1.0" encoding="UTF-8" standalone="no"?>
<!-- Created with Inkscape (http://www.inkscape.org/) -->

<svg
   xmlns:dc="http://purl.org/dc/elements/1.1/"
   xmlns:cc="http://creativecommons.org/ns#"
   xmlns:rdf="http://www.w3.org/1999/02/22-rdf-syntax-ns#"
   xmlns:svg="http://www.w3.org/2000/svg"
   xmlns="http://www.w3.org/2000/svg"
   xmlns:sodipodi="http://sodipodi.sourceforge.net/DTD/sodipodi-0.dtd"
   xmlns:inkscape="http://www.inkscape.org/namespaces/inkscape"
   width="744.09448819"
   height="1052.3622047"
   id="svg2"
   version="1.1"
   inkscape:version="0.48.4 r9939"
   sodipodi:docname="imform.svg"
   inkscape:export-filename="/home/francois/Documents/Dropbox-Perso/Dropbox/SSVM/img/imform.png"
   inkscape:export-xdpi="90"
   inkscape:export-ydpi="90">
  <defs
     id="defs4">
    <inkscape:perspective
       sodipodi:type="inkscape:persp3d"
       inkscape:vp_x="-234.39318 : 312.24888 : 1"
       inkscape:vp_y="0 : 1000 : 0"
       inkscape:vp_z="-9244.0622 : 2902.617 : 1"
       inkscape:persp3d-origin="-27.95276 : 287.93025 : 1"
       id="perspective3003" />
    <filter
       inkscape:collect="always"
       id="filter3976">
      <feGaussianBlur
         inkscape:collect="always"
         stdDeviation="0.86193528"
         id="feGaussianBlur3978" />
    </filter>
  </defs>
  <sodipodi:namedview
     id="base"
     pagecolor="#ffffff"
     bordercolor="#ffffff"
     borderopacity="0.0"
     inkscape:pageopacity="0.0"
     inkscape:pageshadow="0"
     inkscape:zoom="1.2125733"
     inkscape:cx="-64.292543"
     inkscape:cy="47.215427"
     inkscape:document-units="px"
     inkscape:current-layer="layer1"
     showgrid="false"
     inkscape:window-width="1920"
     inkscape:window-height="1062"
     inkscape:window-x="0"
     inkscape:window-y="18"
     inkscape:window-maximized="1">
    <inkscape:grid
       type="xygrid"
       id="grid2985" />
  </sodipodi:namedview>
  <metadata
     id="metadata7">
    <rdf:RDF>
      <cc:Work
         rdf:about="">
        <dc:format>image/svg+xml</dc:format>
        <dc:type
           rdf:resource="http://purl.org/dc/dcmitype/StillImage" />
        <dc:title></dc:title>
      </cc:Work>
    </rdf:RDF>
  </metadata>
  <g
     inkscape:label="Layer 1"
     inkscape:groupmode="layer"
     id="layer1">
    <rect
       style="opacity:0.33944959;fill:none;stroke:#000000;stroke-width:1.67786813;stroke-miterlimit:4;stroke-opacity:1;stroke-dasharray:none;stroke-dashoffset:0"
       id="rect3880"
       width="145.25972"
       height="167.15892"
       x="-206.30951"
       y="979.25616"
       transform="matrix(0.96196956,0.27315666,0,1,0,0)" />
    <rect
       y="963.06171"
       x="-58.401421"
       height="167.15892"
       width="223.57671"
       id="rect3884"
       style="opacity:0.33944959;fill:none;stroke:#000000;stroke-width:1.64565408;stroke-miterlimit:4;stroke-opacity:1;stroke-dasharray:none;stroke-dashoffset:0" />
    <rect
       transform="matrix(0.96196956,0.27315666,0,1,0,0)"
       y="915.77045"
       x="26.106039"
       height="167.15892"
       width="145.25972"
       id="rect3882"
       style="opacity:0.33944959;fill:none;stroke:#000000;stroke-width:1.67786813;stroke-miterlimit:4;stroke-opacity:1;stroke-dasharray:none;stroke-dashoffset:0" />
    <rect
       style="opacity:0.77522936;fill:none;stroke:#000000;stroke-width:1.64565408;stroke-miterlimit:4;stroke-opacity:1;stroke-dasharray:none;stroke-dashoffset:0"
       id="rect3878"
       width="223.57671"
       height="167.15892"
       x="-200"
       y="922.36218" />
    <path
       sodipodi:type="arc"
       style="opacity:0.77522936;fill:none;stroke:#000000;stroke-width:2;stroke-miterlimit:4;stroke-opacity:1;stroke-dasharray:none;stroke-dashoffset:0"
       id="path3886"
       sodipodi:cx="-365.63229"
       sodipodi:cy="925.81958"
       sodipodi:rx="4.0820193"
       sodipodi:ry="5.2483106"
       d="m -361.55027,925.81967 a 4.0820193,5.2483106 0 1 1 0,0"
       sodipodi:start="1.6851989e-05"
       sodipodi:end="6.2832021"
       sodipodi:open="true"
       transform="translate(454.85359,102.63363)" />
    <g
       id="g3896"
       transform="matrix(0.95431092,0.08349106,0,1.1786753,-69.445697,-193.84463)">
      <path
         sodipodi:nodetypes="cssssscssaac"
         inkscape:connector-curvature="0"
         id="path3888"
         d="m 357.1767,977.86533 c -0.10175,1.13115 14.5915,9.96053 9.6219,26.09577 -2.7966,9.0799 -8.97535,15.0941 -7.5809,24.4921 1.31267,8.8468 7.1452,12.4338 15.45337,15.745 9.39134,3.7429 22.5244,3.4805 31.78143,-0.5832 6.17848,-2.7123 12.06355,-8.5504 13.41235,-15.1618 1.84308,-9.0342 -9.56796,-16.1467 -9.62191,-25.3668 0.63783,-5.2778 7.34737,-20.939 9.15651,-24.47445 1.89294,-3.69922 -6.97086,5.22542 -11.53987,6.74402 -5.55363,1.84586 -11.44612,2.91744 -17.2978,3.00598 -5.69816,0.0862 -11.47901,-0.73708 -16.92486,-2.41615 -5.84089,-1.80088 -12.50183,-5.74186 -16.46022,-8.08047 z"
         style="fill:none;stroke:#000000;stroke-width:1px;stroke-linecap:butt;stroke-linejoin:miter;stroke-opacity:1" />
      <path
         sodipodi:nodetypes="csaacaacc"
         inkscape:connector-curvature="0"
         id="path3890"
         d="m 356.97167,975.96846 c 1.60912,1.03484 9.91928,5.68104 13.68488,7.14457 5.72553,2.22528 11.92691,3.61062 18.08285,3.78919 5.76173,0.16714 11.66476,-0.64588 17.102,-2.55947 4.76995,-1.67874 13.10236,-7.6461 13.10236,-7.6461 0,0 -9.96016,-4.75007 -15.25681,-6.18519 -4.39025,-1.18953 -8.96045,-1.7529 -13.50434,-1.95865 -5.83807,-0.26435 -11.89111,-0.4102 -17.50702,0.93815 -4.5224,1.78815 -12.33923,3.53554 -15.70392,6.4775 z"
         style="fill:none;stroke:#000000;stroke-width:1px;stroke-linecap:butt;stroke-linejoin:miter;stroke-opacity:1" />
      <path
         sodipodi:nodetypes="ssssssss"
         inkscape:connector-curvature="0"
         id="path3892"
         d="m 365.34863,995.91193 c -1.70004,0.20808 -8.69015,0.0763 -14.29726,-0.41479 -6.20503,-0.54347 -13.07593,-7.11198 -16.95755,-3.9595 -3.11178,2.52725 -0.78265,10.54886 -0.2331,14.64906 0.49541,3.6962 4.132,7.9706 7.15634,9.9126 3.82697,2.4575 9.09616,2.772 13.37908,1.3828 1.95829,-0.6352 3.53382,-2.3886 4.72203,-4.1481 2.43941,-3.6124 8.01628,-17.64064 6.23046,-17.42207 z"
         style="fill:none;stroke:#000000;stroke-width:0.92376214px;stroke-linecap:butt;stroke-linejoin:miter;stroke-opacity:1" />
      <path
         style="fill:none;stroke:#000000;stroke-width:1.14524758px;stroke-linecap:butt;stroke-linejoin:miter;stroke-opacity:1"
         d="m 367.14391,993.71668 c -2.08909,0.26026 -9.58546,-0.19597 -16.47572,-0.81039 -7.62502,-0.67977 -14.00807,-8.43967 -18.77799,-4.49659 -3.82389,3.16102 -1.32004,13.3767 -0.64472,18.5051 0.60876,4.6233 3.37567,9.3313 7.0921,11.7603 4.70276,3.0738 11.17779,3.467 16.44082,1.7295 2.40644,-0.7943 6.89371,-5.9032 8.3539,-8.1041 2.61069,-3.9349 5.23545,-14.22533 4.45766,-16.91831 -0.11529,-0.39918 -0.16276,-1.7008 -0.44605,-1.66551 z"
         id="path3894"
         inkscape:connector-curvature="0"
         sodipodi:nodetypes="sssssssss" />
    </g>
    <rect
       style="fill:none;fill-opacity:1;stroke:#000000;stroke-opacity:1"
       id="rect3014"
       width="635.01318"
       height="359.56589"
       x="-273.79788"
       y="819.79895" />
  </g>
</svg>
