<?xml version="1.0" encoding="UTF-8" standalone="no"?>
<!-- Created with Inkscape (http://www.inkscape.org/) -->

<svg
   xmlns:ns0="http://www.iki.fi/pav/software/textext/"
   xmlns:dc="http://purl.org/dc/elements/1.1/"
   xmlns:cc="http://creativecommons.org/ns#"
   xmlns:rdf="http://www.w3.org/1999/02/22-rdf-syntax-ns#"
   xmlns:svg="http://www.w3.org/2000/svg"
   xmlns="http://www.w3.org/2000/svg"
   xmlns:xlink="http://www.w3.org/1999/xlink"
   xmlns:sodipodi="http://sodipodi.sourceforge.net/DTD/sodipodi-0.dtd"
   xmlns:inkscape="http://www.inkscape.org/namespaces/inkscape"
   width="744.09448819"
   height="1052.3622047"
   id="svg5099"
   version="1.1"
   inkscape:version="0.48.4 r9939"
   sodipodi:docname="lambertslaw2.svg"
   inkscape:export-filename="/home/francois/Documents/Dropbox-Perso/Dropbox/SSVM/img/lambertslaw2.png"
   inkscape:export-xdpi="90"
   inkscape:export-ydpi="90">
  <sodipodi:namedview
     id="base"
     pagecolor="#ffffff"
     bordercolor="#ffffff"
     borderopacity="0.0"
     inkscape:pageopacity="0.0"
     inkscape:pageshadow="0"
     inkscape:zoom="0.70710678"
     inkscape:cx="-942.21081"
     inkscape:cy="851.57571"
     inkscape:document-units="px"
     inkscape:current-layer="layer1"
     showgrid="false"
     inkscape:window-width="1920"
     inkscape:window-height="1062"
     inkscape:window-x="0"
     inkscape:window-y="18"
     inkscape:window-maximized="1"
     showguides="true">
    <inkscape:grid
       type="xygrid"
       id="grid5107" />
  </sodipodi:namedview>
  <defs
     id="defs5101">
    <marker
       inkscape:stockid="Arrow1Lstart"
       orient="auto"
       refY="0.0"
       refX="0.0"
       id="Arrow1Lstart"
       style="overflow:visible">
      <path
         id="path3965"
         d="M 0.0,0.0 L 5.0,-5.0 L -12.5,0.0 L 5.0,5.0 L 0.0,0.0 z "
         style="fill-rule:evenodd;stroke:#000000;stroke-width:1.0pt"
         transform="scale(0.8) translate(12.5,0)" />
    </marker>
    <marker
       inkscape:stockid="Arrow1Lend"
       orient="auto"
       refY="0.0"
       refX="0.0"
       id="Arrow1Lend"
       style="overflow:visible;">
      <path
         id="path3968"
         d="M 0.0,0.0 L 5.0,-5.0 L -12.5,0.0 L 5.0,5.0 L 0.0,0.0 z "
         style="fill-rule:evenodd;stroke:#000000;stroke-width:1.0pt;"
         transform="scale(0.8) rotate(180) translate(12.5,0)" />
    </marker>
  </defs>
  <metadata
     id="metadata5104">
    <rdf:RDF>
      <cc:Work
         rdf:about="">
        <dc:format>image/svg+xml</dc:format>
        <dc:type
           rdf:resource="http://purl.org/dc/dcmitype/StillImage" />
        <dc:title />
      </cc:Work>
    </rdf:RDF>
  </metadata>
  <g
     inkscape:label="Layer 1"
     inkscape:groupmode="layer"
     id="layer1">
    <path
       style="fill:none;stroke:#000000;stroke-width:1.42039227;stroke-linecap:butt;stroke-linejoin:miter;stroke-miterlimit:4;stroke-opacity:1;stroke-dasharray:none;marker-mid:none;marker-end:url(#Arrow1Lend)"
       d="m -807.29486,399.56059 -238.63884,0"
       id="path5109"
       inkscape:connector-curvature="0"
       sodipodi:nodetypes="cc" />
    <path
       style="fill:none;stroke:#000000;stroke-width:1.42039227;stroke-linecap:butt;stroke-linejoin:miter;stroke-miterlimit:4;stroke-opacity:1;stroke-dasharray:none"
       d="m -768.58554,105.10693 -1.65994,347.25525"
       id="path5983"
       inkscape:connector-curvature="0"
       sodipodi:nodetypes="cc" />
    <path
       style="fill:none;stroke:#000000;stroke-width:1.68398547;stroke-linecap:butt;stroke-linejoin:miter;stroke-miterlimit:4;stroke-opacity:1;stroke-dasharray:none"
       d="M -476.30672,450.29283 -333.12335,156.08479"
       id="path5985"
       inkscape:connector-curvature="0"
       sodipodi:nodetypes="cc" />
    <path
       sodipodi:nodetypes="cc"
       inkscape:connector-curvature="0"
       id="path5987"
       d="m -768.58554,242.06585 -238.63896,0"
       style="fill:none;stroke:#000000;stroke-width:1.42039227;stroke-linecap:butt;stroke-linejoin:miter;stroke-miterlimit:4;stroke-opacity:1;stroke-dasharray:none;marker-mid:none;marker-end:url(#Arrow1Lend)" />
    <path
       style="fill:none;stroke:none"
       d="m -1078.8162,375.64306 639.55241,0 105.00114,-218.11975 -638.35921,0 z"
       id="path5989"
       inkscape:connector-curvature="0"
       sodipodi:nodetypes="ccccc" />
    <path
       style="opacity:0.38999999;fill:#b4b4b4;fill-opacity:1;stroke:none"
       d="m -767.38101,266.97555 0,-108.22046 215.41362,0 c 204.80115,0 215.35664,0.14578 214.25661,2.95899 -0.63635,1.62745 -23.88649,50.13373 -51.66697,107.79175 l -50.50998,104.83275 -163.74664,0.42871 -163.74664,0.4287 0,-108.22044 z"
       id="path6004"
       inkscape:connector-curvature="0" />
    <path
       style="opacity:0.38990826;fill:#b4b4b4;fill-opacity:1;stroke:none"
       d="m -1076.4184,374.21156 c 0,-0.53485 23.4879,-49.23135 52.1955,-108.21446 l 52.1955,-107.24201 101.12999,0 101.13001,0 0,40.58043 0,40.58042 -111.15204,0 c -111.07651,0 -111.15059,-0.003 -108.9924,-3.3817 1.18785,-1.85994 1.708,-3.38171 1.15594,-3.38171 -2.14876,0 -19.1118,7.16923 -20.1006,8.49524 -0.5756,0.77203 1.0352,2.19858 3.5797,3.17012 2.5444,0.97154 7.28581,2.90123 10.5365,4.28821 6.79431,2.89897 7.88241,2.35521 4.83512,-2.41639 l -2.16634,-3.39207 111.15208,0 111.15204,0 0,65.94318 0,65.94319 -153.32552,0 c -84.32908,0 -153.32548,-0.4376 -153.32548,-0.97245 z"
       id="path6006"
       inkscape:connector-curvature="0" />
    <path
       sodipodi:nodetypes="cc"
       inkscape:connector-curvature="0"
       id="path6010"
       d="M -392.62783,278.12556 -638.87607,158.70019"
       style="fill:none;stroke:#000000;stroke-width:1.42039227;stroke-linecap:butt;stroke-linejoin:miter;stroke-miterlimit:4;stroke-opacity:1;stroke-dasharray:none;marker-mid:none;marker-end:url(#Arrow1Lend)" />
    <g
       transform="matrix(5.4317426,0,0,4.7005653,-2263.7172,-189.03904)"
       ns0:text="$\\vec{s}$"
       ns0:preamble="/home/francois/Documents/Mypapers/InkscapeHeader/header.inc"
       id="g6028">
      <defs
         id="defs6030">
        <g
           id="g6032">
          <symbol
             style="overflow:visible"
             overflow="visible"
             id="textext-af98da5f-0">
            <path
               inkscape:connector-curvature="0"
               style="stroke:none"
               d=""
               id="path6035" />
          </symbol>
          <symbol
             style="overflow:visible"
             overflow="visible"
             id="textext-af98da5f-1">
            <path
               inkscape:connector-curvature="0"
               style="stroke:none"
               d="m 5.359375,-5.9375 c -0.140625,0.140625 -0.46875,0.421875 -0.46875,0.59375 0,0.09375 0.09375,0.203125 0.1875,0.203125 0.09375,0 0.140625,-0.078125 0.203125,-0.140625 C 5.390625,-5.421875 5.625,-5.703125 6.0625,-5.921875 6.125,-5.96875 6.234375,-6.015625 6.234375,-6.125 6.234375,-6.234375 6.15625,-6.28125 6.09375,-6.328125 5.875,-6.484375 5.765625,-6.65625 5.6875,-6.890625 5.65625,-6.984375 5.625,-7.125 5.484375,-7.125 c -0.140625,0 -0.203125,0.140625 -0.203125,0.21875 0,0.046875 0.078125,0.359375 0.234375,0.578125 l -3.359375,0 c -0.15625,0 -0.34375,0 -0.34375,0.203125 0,0.1875 0.1875,0.1875 0.34375,0.1875 z m 0,0"
               id="path6038" />
          </symbol>
          <symbol
             style="overflow:visible"
             overflow="visible"
             id="textext-af98da5f-2">
            <path
               inkscape:connector-curvature="0"
               style="stroke:none"
               d="M 3.890625,-3.734375 C 3.625,-3.71875 3.421875,-3.5 3.421875,-3.28125 c 0,0.140625 0.09375,0.296875 0.3125,0.296875 0.21875,0 0.453125,-0.171875 0.453125,-0.5625 C 4.1875,-4 3.765625,-4.40625 3,-4.40625 c -1.3125,0 -1.6875,1.015625 -1.6875,1.453125 0,0.78125 0.734375,0.921875 1.03125,0.984375 0.515625,0.109375 1.03125,0.21875 1.03125,0.765625 0,0.25 -0.21875,1.09375 -1.421875,1.09375 -0.140625,0 -0.90625,0 -1.140625,-0.53125 0.390625,0.046875 0.640625,-0.25 0.640625,-0.53125 0,-0.21875 -0.171875,-0.34375 -0.375,-0.34375 -0.265625,0 -0.5625,0.203125 -0.5625,0.65625 0,0.5625 0.578125,0.96875 1.421875,0.96875 1.625,0 2.015625,-1.203125 2.015625,-1.65625 0,-0.359375 -0.1875,-0.609375 -0.3125,-0.71875 -0.265625,-0.28125 -0.5625,-0.34375 -1,-0.421875 -0.359375,-0.078125 -0.75,-0.15625 -0.75,-0.609375 C 1.890625,-3.578125 2.125,-4.1875 3,-4.1875 c 0.25,0 0.75,0.078125 0.890625,0.453125 z m 0,0"
               id="path6041" />
          </symbol>
        </g>
      </defs>
      <g
         id="textext-af98da5f-3">
        <g
           style="fill:#000000;fill-opacity:1"
           id="g6044">
          <use
             height="1052.3622"
             width="744.09448"
             xlink:href="#textext-af98da5f-1"
             x="223.064"
             y="134.765"
             id="use6046" />
        </g>
        <g
           style="fill:#000000;fill-opacity:1"
           id="g6048">
          <use
             height="1052.3622"
             width="744.09448"
             xlink:href="#textext-af98da5f-2"
             x="223.43262"
             y="134.765"
             id="use6050" />
        </g>
      </g>
    </g>
    <g
       id="g6138"
       transform="matrix(4.813999,0,0,4.7005653,-1617.2679,-438.64979)"
       ns0:preamble="/home/francois/Documents/Mypapers/InkscapeHeader/header.inc"
       ns0:text="$\\vec{n}$">
      <defs
         id="defs6140">
        <g
           id="g6142">
          <symbol
             id="textext-69ad63dd-0"
             overflow="visible"
             style="overflow:visible">
            <path
               id="path6145"
               d=""
               style="stroke:none"
               inkscape:connector-curvature="0" />
          </symbol>
          <symbol
             id="textext-69ad63dd-1"
             overflow="visible"
             style="overflow:visible">
            <path
               id="path6148"
               d="m 5.359375,-5.9375 c -0.140625,0.140625 -0.46875,0.421875 -0.46875,0.59375 0,0.09375 0.09375,0.203125 0.1875,0.203125 0.09375,0 0.140625,-0.078125 0.203125,-0.140625 C 5.390625,-5.421875 5.625,-5.703125 6.0625,-5.921875 6.125,-5.96875 6.234375,-6.015625 6.234375,-6.125 6.234375,-6.234375 6.15625,-6.28125 6.09375,-6.328125 5.875,-6.484375 5.765625,-6.65625 5.6875,-6.890625 5.65625,-6.984375 5.625,-7.125 5.484375,-7.125 c -0.140625,0 -0.203125,0.140625 -0.203125,0.21875 0,0.046875 0.078125,0.359375 0.234375,0.578125 l -3.359375,0 c -0.15625,0 -0.34375,0 -0.34375,0.203125 0,0.1875 0.1875,0.1875 0.34375,0.1875 z m 0,0"
               style="stroke:none"
               inkscape:connector-curvature="0" />
          </symbol>
          <symbol
             id="textext-69ad63dd-2"
             overflow="visible"
             style="overflow:visible">
            <path
               id="path6151"
               d="m 0.875,-0.59375 c -0.03125,0.15625 -0.09375,0.390625 -0.09375,0.4375 0,0.171875 0.140625,0.265625 0.296875,0.265625 0.125,0 0.296875,-0.078125 0.375,-0.28125 0,-0.015625 0.125,-0.484375 0.1875,-0.734375 l 0.21875,-0.890625 C 1.90625,-2.03125 1.96875,-2.25 2.03125,-2.46875 c 0.03125,-0.171875 0.109375,-0.46875 0.125,-0.5 0.140625,-0.3125 0.671875,-1.21875 1.625,-1.21875 0.453125,0 0.53125,0.375 0.53125,0.703125 0,0.609375 -0.484375,1.890625 -0.640625,2.3125 C 3.578125,-0.9375 3.5625,-0.8125 3.5625,-0.703125 c 0,0.46875 0.359375,0.8125 0.828125,0.8125 0.9375,0 1.296875,-1.453125 1.296875,-1.53125 0,-0.109375 -0.078125,-0.109375 -0.109375,-0.109375 -0.109375,0 -0.109375,0.03125 -0.15625,0.1875 -0.203125,0.671875 -0.53125,1.234375 -1.015625,1.234375 -0.171875,0 -0.234375,-0.09375 -0.234375,-0.328125 0,-0.25 0.078125,-0.484375 0.171875,-0.703125 0.1875,-0.53125 0.609375,-1.625 0.609375,-2.203125 0,-0.65625 -0.421875,-1.0625 -1.140625,-1.0625 -0.90625,0 -1.390625,0.640625 -1.5625,0.875 -0.046875,-0.5625 -0.453125,-0.875 -0.921875,-0.875 -0.453125,0 -0.640625,0.390625 -0.734375,0.5625 C 0.421875,-3.5 0.296875,-2.90625 0.296875,-2.875 c 0,0.109375 0.09375,0.109375 0.109375,0.109375 0.109375,0 0.109375,-0.015625 0.171875,-0.234375 0.171875,-0.703125 0.375,-1.1875 0.734375,-1.1875 0.1875,0 0.296875,0.125 0.296875,0.453125 0,0.21875 -0.03125,0.328125 -0.15625,0.84375 z m 0,0"
               style="stroke:none"
               inkscape:connector-curvature="0" />
          </symbol>
        </g>
      </defs>
      <g
         id="textext-69ad63dd-3">
        <g
           id="g6154"
           style="fill:#000000;fill-opacity:1">
          <use
             id="use6156"
             y="134.765"
             x="223.16499"
             xlink:href="#textext-69ad63dd-1"
             width="744.09448"
             height="1052.3622" />
        </g>
        <g
           id="g6158"
           style="fill:#000000;fill-opacity:1">
          <use
             id="use6160"
             y="134.765"
             x="223.43399"
             xlink:href="#textext-69ad63dd-2"
             width="744.09448"
             height="1052.3622" />
        </g>
      </g>
    </g>
    <g
       ns0:text="$\\vec{n}$"
       ns0:preamble="/home/francois/Documents/Mypapers/InkscapeHeader/header.inc"
       transform="matrix(4.813999,0,0,4.7005653,-2021.7293,-400.32778)"
       id="g6204">
      <defs
         id="defs6206">
        <g
           id="g6208">
          <symbol
             style="overflow:visible"
             overflow="visible"
             id="symbol6210">
            <path
               inkscape:connector-curvature="0"
               style="stroke:none"
               d=""
               id="path6212" />
          </symbol>
          <symbol
             style="overflow:visible"
             overflow="visible"
             id="symbol6214">
            <path
               inkscape:connector-curvature="0"
               style="stroke:none"
               d="m 5.359375,-5.9375 c -0.140625,0.140625 -0.46875,0.421875 -0.46875,0.59375 0,0.09375 0.09375,0.203125 0.1875,0.203125 0.09375,0 0.140625,-0.078125 0.203125,-0.140625 C 5.390625,-5.421875 5.625,-5.703125 6.0625,-5.921875 6.125,-5.96875 6.234375,-6.015625 6.234375,-6.125 6.234375,-6.234375 6.15625,-6.28125 6.09375,-6.328125 5.875,-6.484375 5.765625,-6.65625 5.6875,-6.890625 5.65625,-6.984375 5.625,-7.125 5.484375,-7.125 c -0.140625,0 -0.203125,0.140625 -0.203125,0.21875 0,0.046875 0.078125,0.359375 0.234375,0.578125 l -3.359375,0 c -0.15625,0 -0.34375,0 -0.34375,0.203125 0,0.1875 0.1875,0.1875 0.34375,0.1875 z m 0,0"
               id="path6216" />
          </symbol>
          <symbol
             style="overflow:visible"
             overflow="visible"
             id="symbol6218">
            <path
               inkscape:connector-curvature="0"
               style="stroke:none"
               d="m 0.875,-0.59375 c -0.03125,0.15625 -0.09375,0.390625 -0.09375,0.4375 0,0.171875 0.140625,0.265625 0.296875,0.265625 0.125,0 0.296875,-0.078125 0.375,-0.28125 0,-0.015625 0.125,-0.484375 0.1875,-0.734375 l 0.21875,-0.890625 C 1.90625,-2.03125 1.96875,-2.25 2.03125,-2.46875 c 0.03125,-0.171875 0.109375,-0.46875 0.125,-0.5 0.140625,-0.3125 0.671875,-1.21875 1.625,-1.21875 0.453125,0 0.53125,0.375 0.53125,0.703125 0,0.609375 -0.484375,1.890625 -0.640625,2.3125 C 3.578125,-0.9375 3.5625,-0.8125 3.5625,-0.703125 c 0,0.46875 0.359375,0.8125 0.828125,0.8125 0.9375,0 1.296875,-1.453125 1.296875,-1.53125 0,-0.109375 -0.078125,-0.109375 -0.109375,-0.109375 -0.109375,0 -0.109375,0.03125 -0.15625,0.1875 -0.203125,0.671875 -0.53125,1.234375 -1.015625,1.234375 -0.171875,0 -0.234375,-0.09375 -0.234375,-0.328125 0,-0.25 0.078125,-0.484375 0.171875,-0.703125 0.1875,-0.53125 0.609375,-1.625 0.609375,-2.203125 0,-0.65625 -0.421875,-1.0625 -1.140625,-1.0625 -0.90625,0 -1.390625,0.640625 -1.5625,0.875 -0.046875,-0.5625 -0.453125,-0.875 -0.921875,-0.875 -0.453125,0 -0.640625,0.390625 -0.734375,0.5625 C 0.421875,-3.5 0.296875,-2.90625 0.296875,-2.875 c 0,0.109375 0.09375,0.109375 0.109375,0.109375 0.109375,0 0.109375,-0.015625 0.171875,-0.234375 0.171875,-0.703125 0.375,-1.1875 0.734375,-1.1875 0.1875,0 0.296875,0.125 0.296875,0.453125 0,0.21875 -0.03125,0.328125 -0.15625,0.84375 z m 0,0"
               id="path6220" />
          </symbol>
        </g>
      </defs>
      <g
         id="g6222">
        <g
           style="fill:#000000;fill-opacity:1"
           id="g6224">
          <use
             height="1052.3622"
             width="744.09448"
             xlink:href="#textext-69ad63dd-1"
             x="223.16499"
             y="134.765"
             id="use6226" />
        </g>
        <g
           style="fill:#000000;fill-opacity:1"
           id="g6228">
          <use
             height="1052.3622"
             width="744.09448"
             xlink:href="#textext-69ad63dd-2"
             x="223.43399"
             y="134.765"
             id="use6230" />
        </g>
      </g>
    </g>
    <path
       style="fill:none;stroke:#000000;stroke-width:1.42039227;stroke-linecap:butt;stroke-linejoin:miter;stroke-miterlimit:4;stroke-opacity:1;stroke-dasharray:none;marker-start:url(#Arrow1Lstart);marker-end:url(#Arrow1Lend)"
       d="m -756.65359,160.69987 0,214.94319"
       id="path6232"
       inkscape:connector-curvature="0"
       sodipodi:nodetypes="cc" />
    <path
       sodipodi:nodetypes="cc"
       inkscape:connector-curvature="0"
       id="path6604"
       d="m -323.76965,164.29992 -101.9401,214.16663"
       style="fill:none;stroke:#000000;stroke-width:1.70711267;stroke-linecap:butt;stroke-linejoin:miter;stroke-miterlimit:4;stroke-opacity:1;stroke-dasharray:none;marker-start:url(#Arrow1Lstart);marker-end:url(#Arrow1Lend)" />
    <g
       ns0:text="$d\\Ee$"
       ns0:preamble="/home/francois/Documents/Mypapers/InkscapeHeader/header.inc"
       transform="matrix(3.9966821,0,0,4.7005653,-1639.8262,-359.67697)"
       id="g6696">
      <defs
         id="defs6698">
        <g
           id="g6700">
          <symbol
             style="overflow:visible"
             overflow="visible"
             id="textext-e88d3bef-0">
            <path
               inkscape:connector-curvature="0"
               style="stroke:none"
               d=""
               id="path6703" />
          </symbol>
          <symbol
             style="overflow:visible"
             overflow="visible"
             id="textext-e88d3bef-1">
            <path
               inkscape:connector-curvature="0"
               style="stroke:none"
               d="m 5.140625,-6.8125 c 0,0 0,-0.109375 -0.125,-0.109375 -0.15625,0 -1.09375,0.09375 -1.265625,0.109375 -0.078125,0.015625 -0.140625,0.0625 -0.140625,0.1875 0,0.125 0.09375,0.125 0.234375,0.125 0.484375,0 0.5,0.0625 0.5,0.171875 L 4.3125,-6.125 3.71875,-3.765625 C 3.53125,-4.140625 3.25,-4.40625 2.796875,-4.40625 c -1.15625,0 -2.390625,1.46875 -2.390625,2.921875 0,0.9375 0.546875,1.59375 1.3125,1.59375 0.203125,0 0.703125,-0.046875 1.296875,-0.75 0.078125,0.421875 0.4375,0.75 0.90625,0.75 0.359375,0 0.578125,-0.234375 0.75,-0.546875 0.15625,-0.359375 0.296875,-0.96875 0.296875,-0.984375 0,-0.109375 -0.09375,-0.109375 -0.125,-0.109375 -0.09375,0 -0.109375,0.046875 -0.140625,0.1875 -0.171875,0.640625 -0.34375,1.234375 -0.75,1.234375 -0.28125,0 -0.296875,-0.265625 -0.296875,-0.453125 0,-0.25 0.015625,-0.3125 0.046875,-0.484375 z m -2.0625,5.625 C 3.015625,-1 3.015625,-0.984375 2.875,-0.8125 2.4375,-0.265625 2.03125,-0.109375 1.75,-0.109375 c -0.5,0 -0.640625,-0.546875 -0.640625,-0.9375 0,-0.5 0.3125,-1.71875 0.546875,-2.1875 0.3125,-0.578125 0.75,-0.953125 1.15625,-0.953125 0.640625,0 0.78125,0.8125 0.78125,0.875 0,0.0625 -0.015625,0.125 -0.03125,0.171875 z m 0,0"
               id="path6706" />
          </symbol>
          <symbol
             style="overflow:visible"
             overflow="visible"
             id="textext-e88d3bef-2">
            <path
               inkscape:connector-curvature="0"
               style="stroke:none"
               d=""
               id="path6709" />
          </symbol>
          <symbol
             style="overflow:visible"
             overflow="visible"
             id="textext-e88d3bef-3">
            <path
               inkscape:connector-curvature="0"
               style="stroke:none"
               d="m 2.375,-3.625 c -1.984375,1.078125 -2.09375,2.375 -2.09375,2.609375 0,0.75 0.734375,1.234375 1.6875,1.234375 1.65625,0 3,-1.578125 3,-1.78125 0,-0.0625 -0.046875,-0.078125 -0.109375,-0.078125 -0.109375,0 -0.5,0.140625 -0.71875,0.4375 -0.21875,0.296875 -0.625,0.875 -1.515625,0.875 -0.71875,0 -1.5,-0.375 -1.5,-1.125 0,-0.484375 0.5625,-1.953125 2.140625,-2.015625 0.46875,-0.015625 0.8125,-0.375 0.8125,-0.484375 0,-0.046875 -0.046875,-0.0625 -0.09375,-0.0625 -1.40625,-0.0625 -1.6875,-0.75 -1.6875,-1.140625 0,-0.234375 0.140625,-1.328125 1.546875,-1.328125 0.1875,0 0.9375,0.03125 0.9375,0.546875 0,0.171875 -0.078125,0.3125 -0.109375,0.359375 -0.03125,0.03125 -0.0625,0.078125 -0.0625,0.109375 0,0.078125 0.078125,0.078125 0.109375,0.078125 0.296875,0 0.90625,-0.390625 0.90625,-0.953125 0,-0.59375 -0.6875,-0.6875 -1.125,-0.6875 -1.359375,0 -3.046875,1.078125 -3.046875,2.296875 0,0.59375 0.4375,0.953125 0.921875,1.109375 z m 0,0"
               id="path6712" />
          </symbol>
        </g>
      </defs>
      <g
         id="textext-e88d3bef-4">
        <g
           style="fill:#000000;fill-opacity:1"
           id="g6715">
          <use
             height="1052.3622"
             width="744.09448"
             xlink:href="#textext-e88d3bef-1"
             x="223.43201"
             y="134.765"
             id="use6717" />
        </g>
        <g
           style="fill:#000000;fill-opacity:1"
           id="g6719">
          <use
             height="1052.3622"
             width="744.09448"
             xlink:href="#textext-e88d3bef-3"
             x="228.618"
             y="134.765"
             id="use6721" />
        </g>
      </g>
    </g>
    <g
       id="g6909"
       transform="matrix(3.934293,0,0,4.7005653,-1244.9895,-350.11208)"
       ns0:preamble="/home/francois/Documents/Mypapers/InkscapeHeader/header.inc"
       ns0:text="$\\frac{d\\Ee}{\\cos\\theta}$">
      <defs
         id="defs6911">
        <g
           id="g6913">
          <symbol
             id="textext-2615e475-0"
             overflow="visible"
             style="overflow:visible">
            <path
               id="path6916"
               d=""
               style="stroke:none"
               inkscape:connector-curvature="0" />
          </symbol>
          <symbol
             id="textext-2615e475-1"
             overflow="visible"
             style="overflow:visible">
            <path
               id="path6919"
               d="M 3.984375,-4.625 C 3.984375,-4.640625 4,-4.734375 4,-4.734375 4,-4.78125 3.984375,-4.84375 3.890625,-4.84375 3.75,-4.84375 3.171875,-4.78125 3,-4.765625 c -0.046875,0 -0.15625,0.015625 -0.15625,0.15625 0,0.09375 0.109375,0.09375 0.1875,0.09375 0.328125,0 0.328125,0.0625 0.328125,0.109375 0,0.046875 0,0.09375 -0.015625,0.15625 L 2.9375,-2.65625 c -0.140625,-0.234375 -0.375,-0.421875 -0.71875,-0.421875 -0.890625,0 -1.796875,0.984375 -1.796875,1.984375 0,0.6875 0.453125,1.15625 1.0625,1.15625 0.375,0 0.703125,-0.203125 0.984375,-0.484375 C 2.59375,0 3,0.0625 3.1875,0.0625 c 0.25,0 0.421875,-0.140625 0.546875,-0.359375 0.15625,-0.28125 0.25,-0.671875 0.25,-0.703125 0,-0.09375 -0.09375,-0.09375 -0.109375,-0.09375 -0.109375,0 -0.109375,0.03125 -0.15625,0.21875 C 3.625,-0.53125 3.5,-0.125 3.203125,-0.125 3.03125,-0.125 2.96875,-0.28125 2.96875,-0.46875 c 0,-0.125 0.015625,-0.1875 0.046875,-0.28125 z M 2.5,-0.875 C 2.453125,-0.671875 2.296875,-0.53125 2.140625,-0.40625 2.078125,-0.34375 1.796875,-0.125 1.5,-0.125 c -0.265625,0 -0.515625,-0.1875 -0.515625,-0.671875 0,-0.375 0.203125,-1.140625 0.375,-1.421875 0.3125,-0.5625 0.671875,-0.65625 0.859375,-0.65625 0.484375,0 0.625,0.53125 0.625,0.609375 0,0.015625 -0.015625,0.078125 -0.015625,0.09375 z m 0,0"
               style="stroke:none"
               inkscape:connector-curvature="0" />
          </symbol>
          <symbol
             id="textext-2615e475-2"
             overflow="visible"
             style="overflow:visible">
            <path
               id="path6922"
               d="m 3.5625,-3.390625 c 0,-0.734375 -0.28125,-1.515625 -0.96875,-1.515625 -1.046875,0 -2.15625,1.875 -2.15625,3.46875 0,0.828125 0.328125,1.5 0.96875,1.5 1.046875,0 2.15625,-1.890625 2.15625,-3.453125 z m -2.34375,0.84375 c 0.359375,-1.5 0.96875,-2.15625 1.375,-2.15625 0.4375,0 0.4375,0.765625 0.4375,0.890625 0,0.28125 -0.046875,0.6875 -0.1875,1.265625 z m 1.5625,0.25 C 2.578125,-1.53125 2.421875,-1.15625 2.203125,-0.8125 2,-0.453125 1.71875,-0.125 1.40625,-0.125 c -0.375,0 -0.4375,-0.53125 -0.4375,-0.90625 0,-0.453125 0.125,-1 0.1875,-1.265625 z m 0,0"
               style="stroke:none"
               inkscape:connector-curvature="0" />
          </symbol>
          <symbol
             id="textext-2615e475-3"
             overflow="visible"
             style="overflow:visible">
            <path
               id="path6925"
               d=""
               style="stroke:none"
               inkscape:connector-curvature="0" />
          </symbol>
          <symbol
             id="textext-2615e475-4"
             overflow="visible"
             style="overflow:visible">
            <path
               id="path6928"
               d="m 1.84375,-2.515625 c -1.203125,0.578125 -1.515625,1.4375 -1.515625,1.78125 0,0.578125 0.625,0.875 1.34375,0.875 1.265625,0 2.28125,-1.109375 2.28125,-1.25 0,-0.046875 -0.0625,-0.046875 -0.078125,-0.046875 -0.015625,0 -0.265625,0 -0.546875,0.3125 -0.171875,0.203125 -0.515625,0.5625 -1.171875,0.5625 -0.421875,0 -1.171875,-0.171875 -1.171875,-0.765625 0,-0.421875 0.4375,-1.328125 1.609375,-1.359375 0.125,0 0.21875,0 0.40625,-0.109375 0.0625,-0.0625 0.21875,-0.171875 0.21875,-0.265625 0,-0.046875 -0.0625,-0.046875 -0.0625,-0.046875 -1.015625,-0.03125 -1.34375,-0.390625 -1.34375,-0.78125 0,-0.28125 0.15625,-0.53125 0.3125,-0.65625 0.25,-0.15625 0.640625,-0.203125 0.859375,-0.203125 0.09375,0 0.28125,0.015625 0.46875,0.0625 0.09375,0.015625 0.265625,0.078125 0.265625,0.3125 0,0.078125 -0.03125,0.15625 -0.0625,0.21875 -0.03125,0.015625 -0.046875,0.0625 -0.046875,0.078125 0,0.046875 0.0625,0.0625 0.09375,0.0625 0.1875,0 0.65625,-0.265625 0.65625,-0.671875 0,-0.390625 -0.421875,-0.5 -0.875,-0.5 -1.15625,0 -2.328125,0.78125 -2.328125,1.609375 0,0.4375 0.359375,0.671875 0.6875,0.78125 z m 0,0"
               style="stroke:none"
               inkscape:connector-curvature="0" />
          </symbol>
          <symbol
             id="textext-2615e475-5"
             overflow="visible"
             style="overflow:visible">
            <path
               id="path6931"
               d=""
               style="stroke:none"
               inkscape:connector-curvature="0" />
          </symbol>
          <symbol
             id="textext-2615e475-6"
             overflow="visible"
             style="overflow:visible">
            <path
               id="path6934"
               d="m 2.703125,-2.78125 c -0.125,0.0625 -0.1875,0.171875 -0.1875,0.3125 0,0.1875 0.125,0.328125 0.328125,0.328125 0.1875,0 0.328125,-0.125 0.328125,-0.34375 0,-0.625 -0.96875,-0.625 -1.15625,-0.625 -1.046875,0 -1.6875,0.796875 -1.6875,1.609375 0,0.875 0.734375,1.5625 1.65625,1.5625 1.03125,0 1.28125,-0.8125 1.28125,-0.90625 0,-0.078125 -0.09375,-0.078125 -0.125,-0.078125 -0.09375,0 -0.09375,0.015625 -0.125,0.125 C 2.859375,-0.375 2.484375,-0.15625 2.0625,-0.15625 c -0.484375,0 -1.109375,-0.359375 -1.109375,-1.359375 0,-0.875 0.4375,-1.375 1.078125,-1.375 0.09375,0 0.421875,0 0.671875,0.109375 z m 0,0"
               style="stroke:none"
               inkscape:connector-curvature="0" />
          </symbol>
          <symbol
             id="textext-2615e475-7"
             overflow="visible"
             style="overflow:visible">
            <path
               id="path6937"
               d="m 3.6875,-1.484375 c 0,-0.875 -0.75,-1.625 -1.703125,-1.625 -0.96875,0 -1.71875,0.75 -1.71875,1.625 0,0.859375 0.765625,1.546875 1.71875,1.546875 0.9375,0 1.703125,-0.6875 1.703125,-1.546875 z M 1.984375,-0.15625 c -0.265625,0 -0.640625,-0.078125 -0.875,-0.421875 -0.1875,-0.28125 -0.203125,-0.640625 -0.203125,-0.96875 0,-0.296875 0,-0.71875 0.25,-1.015625 0.171875,-0.203125 0.46875,-0.34375 0.828125,-0.34375 0.40625,0 0.703125,0.1875 0.859375,0.40625 0.1875,0.265625 0.203125,0.625 0.203125,0.953125 0,0.328125 -0.015625,0.703125 -0.21875,0.984375 -0.1875,0.265625 -0.5,0.40625 -0.84375,0.40625 z m 0,0"
               style="stroke:none"
               inkscape:connector-curvature="0" />
          </symbol>
          <symbol
             id="textext-2615e475-8"
             overflow="visible"
             style="overflow:visible">
            <path
               id="path6940"
               d="m 2.640625,-2.921875 c 0,-0.125 0,-0.1875 -0.09375,-0.1875 -0.03125,0 -0.046875,0 -0.140625,0.078125 -0.015625,0.015625 -0.078125,0.078125 -0.125,0.109375 -0.21875,-0.140625 -0.46875,-0.1875 -0.734375,-0.1875 -1,0 -1.234375,0.53125 -1.234375,0.875 0,0.21875 0.09375,0.40625 0.265625,0.546875 0.265625,0.21875 0.53125,0.265625 0.96875,0.34375 0.34375,0.0625 0.90625,0.15625 0.90625,0.625 0,0.265625 -0.1875,0.59375 -0.859375,0.59375 -0.671875,0 -0.90625,-0.4375 -1.03125,-0.90625 -0.03125,-0.09375 -0.03125,-0.125 -0.125,-0.125 -0.125,0 -0.125,0.046875 -0.125,0.1875 l 0,0.859375 C 0.3125,0 0.3125,0.0625 0.40625,0.0625 0.46875,0.0625 0.609375,-0.078125 0.75,-0.234375 1.046875,0.0625 1.421875,0.0625 1.59375,0.0625 c 0.90625,0 1.25,-0.484375 1.25,-0.96875 0,-0.265625 -0.125,-0.484375 -0.3125,-0.640625 -0.265625,-0.25 -0.578125,-0.3125 -0.828125,-0.34375 -0.546875,-0.109375 -1,-0.1875 -1,-0.5625 0,-0.21875 0.1875,-0.484375 0.84375,-0.484375 0.8125,0 0.84375,0.5625 0.859375,0.765625 0,0.078125 0.09375,0.078125 0.109375,0.078125 0.125,0 0.125,-0.046875 0.125,-0.1875 z m 0,0"
               style="stroke:none"
               inkscape:connector-curvature="0" />
          </symbol>
        </g>
      </defs>
      <g
         id="textext-2615e475-9">
        <g
           id="g6943"
           style="fill:#000000;fill-opacity:1">
          <use
             id="use6945"
             y="130.842"
             x="228.131"
             xlink:href="#textext-2615e475-1"
             width="744.09448"
             height="1052.3622" />
        </g>
        <g
           id="g6947"
           style="fill:#000000;fill-opacity:1">
          <use
             id="use6949"
             y="130.842"
             x="232.27901"
             xlink:href="#textext-2615e475-4"
             width="744.09448"
             height="1052.3622" />
        </g>
        <path
           id="path6951"
           transform="matrix(1,0,0,-1,224.628,132.274)"
           d="m 9.0625e-4,5.625e-4 16.03906275,0"
           style="fill:none;stroke:#000000;stroke-width:0.398;stroke-linecap:butt;stroke-linejoin:miter;stroke-miterlimit:10;stroke-opacity:1"
           inkscape:connector-curvature="0" />
        <g
           id="g6953"
           style="fill:#000000;fill-opacity:1">
          <use
             id="use6955"
             y="138.2"
             x="224.62801"
             xlink:href="#textext-2615e475-6"
             width="744.09448"
             height="1052.3622" />
          <use
             id="use6957"
             y="138.2"
             x="228.17"
             xlink:href="#textext-2615e475-7"
             width="744.09448"
             height="1052.3622" />
          <use
             id="use6959"
             y="138.2"
             x="232.14157"
             xlink:href="#textext-2615e475-8"
             width="744.09448"
             height="1052.3622" />
        </g>
        <g
           id="g6961"
           style="fill:#000000;fill-opacity:1">
          <use
             id="use6963"
             y="138.2"
             x="236.658"
             xlink:href="#textext-2615e475-2"
             width="744.09448"
             height="1052.3622" />
        </g>
      </g>
    </g>
    <text
       xml:space="preserve"
       style="font-size:18px;font-style:normal;font-variant:normal;font-weight:normal;font-stretch:normal;text-align:start;line-height:125%;letter-spacing:0px;word-spacing:0px;writing-mode:lr-tb;text-anchor:start;fill:#000000;fill-opacity:1;stroke:none;font-family:Sans;-inkscape-font-specification:Sans"
       x="-814.58704"
       y="469.70621"
       id="text3088"
       sodipodi:linespacing="125%"><tspan
         sodipodi:role="line"
         id="tspan3090"
         x="-814.58704"
         y="469.70621"
         style="font-size:24px;font-style:normal;font-variant:normal;font-weight:normal;font-stretch:normal;font-family:TeX Gyre Heros;-inkscape-font-specification:TeX Gyre Heros">Surface 1</tspan></text>
    <text
       sodipodi:linespacing="125%"
       id="text3092"
       y="469.70621"
       x="-519.01642"
       style="font-size:18px;font-style:normal;font-variant:normal;font-weight:normal;font-stretch:normal;text-align:start;line-height:125%;letter-spacing:0px;word-spacing:0px;writing-mode:lr-tb;text-anchor:start;fill:#000000;fill-opacity:1;stroke:none;font-family:Sans;-inkscape-font-specification:Sans"
       xml:space="preserve"><tspan
         style="font-size:24px;font-style:normal;font-variant:normal;font-weight:normal;font-stretch:normal;font-family:TeX Gyre Heros;-inkscape-font-specification:TeX Gyre Heros"
         y="469.70621"
         x="-519.01642"
         id="tspan3094"
         sodipodi:role="line">Surface 2</tspan></text>
  </g>
</svg>
