<?xml version="1.0" encoding="UTF-8" standalone="no"?>
<svg
   xmlns:ns1="http://www.iki.fi/pav/software/textext/"
   xmlns:dc="http://purl.org/dc/elements/1.1/"
   xmlns:cc="http://creativecommons.org/ns#"
   xmlns:rdf="http://www.w3.org/1999/02/22-rdf-syntax-ns#"
   xmlns:svg="http://www.w3.org/2000/svg"
   xmlns="http://www.w3.org/2000/svg"
   xmlns:sodipodi="http://sodipodi.sourceforge.net/DTD/sodipodi-0.dtd"
   xmlns:inkscape="http://www.inkscape.org/namespaces/inkscape"
   width="210mm"
   height="297mm"
   viewBox="0 0 210 297"
   version="1.1"
   id="svg8"
   sodipodi:docname="oldinnerprod.svg"
   inkscape:version="1.0.2 (1.0.2+r75+1)"
   inkscape:export-filename="/home/francois/Dropbox/Courses/VIP/2021_2022/Lectures/FIGURES/oldinnerprod.png"
   inkscape:export-xdpi="90"
   inkscape:export-ydpi="90">
  <defs
     id="defs2">
    <marker
       style="overflow:visible"
       id="marker3039"
       refX="0.0"
       refY="0.0"
       orient="auto"
       inkscape:stockid="TriangleOutL"
       inkscape:isstock="true">
      <path
         transform="scale(0.8)"
         style="fill-rule:evenodd;stroke:#000000;stroke-width:1pt;stroke-opacity:1;fill:#000000;fill-opacity:1"
         d="M 5.77,0.0 L -2.88,5.0 L -2.88,-5.0 L 5.77,0.0 z "
         id="path3037" />
    </marker>
    <marker
       style="overflow:visible"
       id="marker2707"
       refX="0.0"
       refY="0.0"
       orient="auto"
       inkscape:stockid="TriangleOutL"
       inkscape:isstock="true"
       inkscape:collect="always">
      <path
         transform="scale(0.8)"
         style="fill-rule:evenodd;stroke:#000000;stroke-width:1pt;stroke-opacity:1;fill:#000000;fill-opacity:1"
         d="M 5.77,0.0 L -2.88,5.0 L -2.88,-5.0 L 5.77,0.0 z "
         id="path2705" />
    </marker>
    <marker
       style="overflow:visible"
       id="marker2697"
       refX="0.0"
       refY="0.0"
       orient="auto"
       inkscape:stockid="TriangleInL"
       inkscape:isstock="true">
      <path
         transform="scale(-0.8)"
         style="fill-rule:evenodd;stroke:#0000ff;stroke-width:1pt;stroke-opacity:1;fill:#0000ff;fill-opacity:1"
         d="M 5.77,0.0 L -2.88,5.0 L -2.88,-5.0 L 5.77,0.0 z "
         id="path2695" />
    </marker>
    <marker
       style="overflow:visible"
       id="TriangleOutL"
       refX="0.0"
       refY="0.0"
       orient="auto"
       inkscape:stockid="TriangleOutL"
       inkscape:isstock="true"
       inkscape:collect="always">
      <path
         transform="scale(0.8)"
         style="fill-rule:evenodd;stroke:#0000ff;stroke-width:1pt;stroke-opacity:1;fill:#0000ff;fill-opacity:1"
         d="M 5.77,0.0 L -2.88,5.0 L -2.88,-5.0 L 5.77,0.0 z "
         id="path994" />
    </marker>
    <marker
       style="overflow:visible"
       id="TriangleInL"
       refX="0.0"
       refY="0.0"
       orient="auto"
       inkscape:stockid="TriangleInL"
       inkscape:isstock="true"
       inkscape:collect="always">
      <path
         transform="scale(-0.8)"
         style="fill-rule:evenodd;stroke:#0000ff;stroke-width:1pt;stroke-opacity:1;fill:#0000ff;fill-opacity:1"
         d="M 5.77,0.0 L -2.88,5.0 L -2.88,-5.0 L 5.77,0.0 z "
         id="path985" />
    </marker>
    <marker
       style="overflow:visible"
       id="Arrow1Lstart"
       refX="0.0"
       refY="0.0"
       orient="auto"
       inkscape:stockid="Arrow1Lstart"
       inkscape:isstock="true">
      <path
         transform="scale(0.8) translate(12.5,0)"
         style="fill-rule:evenodd;stroke:#000000;stroke-width:1pt;stroke-opacity:1;fill:#000000;fill-opacity:1"
         d="M 0.0,0.0 L 5.0,-5.0 L -12.5,0.0 L 5.0,5.0 L 0.0,0.0 z "
         id="path852" />
    </marker>
    <marker
       style="overflow:visible;"
       id="marker2211"
       refX="0.0"
       refY="0.0"
       orient="auto"
       inkscape:stockid="Arrow1Lend"
       inkscape:isstock="true">
      <path
         transform="scale(0.8) rotate(180) translate(12.5,0)"
         style="fill-rule:evenodd;stroke:#000000;stroke-width:1pt;stroke-opacity:1;fill:#000000;fill-opacity:1"
         d="M 0.0,0.0 L 5.0,-5.0 L -12.5,0.0 L 5.0,5.0 L 0.0,0.0 z "
         id="path2209" />
    </marker>
    <marker
       style="overflow:visible;"
       id="marker1560"
       refX="0.0"
       refY="0.0"
       orient="auto"
       inkscape:stockid="Arrow1Lend"
       inkscape:isstock="true"
       inkscape:collect="always">
      <path
         transform="scale(0.8) rotate(180) translate(12.5,0)"
         style="fill-rule:evenodd;stroke:#000000;stroke-width:1pt;stroke-opacity:1;fill:#000000;fill-opacity:1"
         d="M 0.0,0.0 L 5.0,-5.0 L -12.5,0.0 L 5.0,5.0 L 0.0,0.0 z "
         id="path1558" />
    </marker>
    <marker
       style="overflow:visible;"
       id="marker1550"
       refX="0.0"
       refY="0.0"
       orient="auto"
       inkscape:stockid="Arrow1Lend"
       inkscape:isstock="true">
      <path
         transform="scale(0.8) rotate(180) translate(12.5,0)"
         style="fill-rule:evenodd;stroke:#000000;stroke-width:1pt;stroke-opacity:1;fill:#000000;fill-opacity:1"
         d="M 0.0,0.0 L 5.0,-5.0 L -12.5,0.0 L 5.0,5.0 L 0.0,0.0 z "
         id="path1548" />
    </marker>
    <marker
       style="overflow:visible;"
       id="marker1146"
       refX="0.0"
       refY="0.0"
       orient="auto"
       inkscape:stockid="Arrow1Lend"
       inkscape:isstock="true"
       inkscape:collect="always">
      <path
         transform="scale(0.8) rotate(180) translate(12.5,0)"
         style="fill-rule:evenodd;stroke:#000000;stroke-width:1pt;stroke-opacity:1;fill:#000000;fill-opacity:1"
         d="M 0.0,0.0 L 5.0,-5.0 L -12.5,0.0 L 5.0,5.0 L 0.0,0.0 z "
         id="path1144" />
    </marker>
    <marker
       style="overflow:visible;"
       id="marker1136"
       refX="0.0"
       refY="0.0"
       orient="auto"
       inkscape:stockid="Arrow1Lend"
       inkscape:isstock="true"
       inkscape:collect="always">
      <path
         transform="scale(0.8) rotate(180) translate(12.5,0)"
         style="fill-rule:evenodd;stroke:#000000;stroke-width:1pt;stroke-opacity:1;fill:#000000;fill-opacity:1"
         d="M 0.0,0.0 L 5.0,-5.0 L -12.5,0.0 L 5.0,5.0 L 0.0,0.0 z "
         id="path1134" />
    </marker>
  </defs>
  <sodipodi:namedview
     id="base"
     pagecolor="#ffffff"
     bordercolor="#666666"
     borderopacity="1.0"
     inkscape:pageopacity="0.0"
     inkscape:pageshadow="2"
     inkscape:zoom="0.7"
     inkscape:cx="-549.11609"
     inkscape:cy="-448.36463"
     inkscape:document-units="mm"
     inkscape:current-layer="layer1"
     inkscape:document-rotation="0"
     showgrid="false"
     showborder="false"
     inkscape:window-width="3840"
     inkscape:window-height="2105"
     inkscape:window-x="1920"
     inkscape:window-y="27"
     inkscape:window-maximized="1"
     showguides="false">
    <inkscape:grid
       type="xygrid"
       id="grid842" />
  </sodipodi:namedview>
  <metadata
     id="metadata5">
    <rdf:RDF>
      <cc:Work
         rdf:about="">
        <dc:format>image/svg+xml</dc:format>
        <dc:type
           rdf:resource="http://purl.org/dc/dcmitype/StillImage" />
        <dc:title></dc:title>
      </cc:Work>
    </rdf:RDF>
  </metadata>
  <g
     inkscape:label="Layer 1"
     inkscape:groupmode="layer"
     id="layer1">
    <path
       style="fill:none;stroke:#000000;stroke-width:1.665;stroke-linecap:butt;stroke-linejoin:miter;stroke-opacity:1;stroke-miterlimit:4;stroke-dasharray:none;marker-end:url(#marker1146)"
       d="m -666.74999,-127 359.83333,-63.5"
       id="path850" />
    <path
       style="fill:none;stroke:#ff0000;stroke-width:1.165;stroke-linecap:butt;stroke-linejoin:miter;stroke-opacity:1;stroke-miterlimit:4;stroke-dasharray:none"
       d="m -529.16667,-193.14583 c 7.9375,7.9375 9.26042,9.26041 10.58334,18.52083 1.32291,9.26042 -2.64584,21.16667 -2.64584,21.16667"
       id="path1184"
       sodipodi:nodetypes="czc" />
    <path
       style="fill:none;stroke:#000000;stroke-width:1.665;stroke-linecap:butt;stroke-linejoin:miter;stroke-opacity:1;stroke-miterlimit:4;stroke-dasharray:none;marker-end:url(#marker1136)"
       d="M -666.74999,-127 -381,-264.58333"
       id="path848" />
    <g
       transform="matrix(2.82222,0,0,2.82222,-512.32222,-188.33853)"
       ns1:version="1.3.0"
       ns1:texconverter="pdflatex"
       ns1:pdfconverter="inkscape"
       ns1:text="\\color{red}{$\\alpha$}"
       ns1:preamble="/home/francois/Documents/Mypapers/InkscapeHeader/header.inc"
       ns1:scale="8.0"
       ns1:alignment="middle center"
       ns1:jacobian_sqrt="2.82222"
       id="g1391">
      <defs
         id="id-4cbce958-0e0a-4a4f-b2f3-c33b9245265c">
        <g
           id="id-f74d21cb-f110-4da3-b38e-c51b723311ee">
          <symbol
             overflow="visible"
             id="id-ac928cf4-5f16-4c50-827b-167aed3b8211">
            <path
               style="stroke:none"
               d=""
               id="id-30a13085-84b1-4569-82cf-222c12040328" />
          </symbol>
          <symbol
             overflow="visible"
             id="id-6b9a3747-a62f-451e-9b9d-d2b856c0bcfb">
            <path
               style="stroke:none"
               d="m 4.75,-2.359375 c 0,-1.5625 -0.921875,-2.046875 -1.65625,-2.046875 -1.375,0 -2.6875,1.421875 -2.6875,2.828125 0,0.9375 0.59375,1.6875 1.625,1.6875 0.625,0 1.34375,-0.234375 2.09375,-0.84375 0.125,0.53125 0.453125,0.84375 0.90625,0.84375 0.53125,0 0.84375,-0.546875 0.84375,-0.703125 0,-0.078125 -0.0625,-0.109375 -0.125,-0.109375 -0.0625,0 -0.09375,0.03125 -0.125,0.109375 -0.1875,0.484375 -0.546875,0.484375 -0.5625,0.484375 -0.3125,0 -0.3125,-0.78125 -0.3125,-1.015625 0,-0.203125 0,-0.234375 0.109375,-0.34375 C 5.796875,-2.65625 6,-3.8125 6,-3.8125 6,-3.84375 5.984375,-3.921875 5.875,-3.921875 c -0.09375,0 -0.09375,0.03125 -0.140625,0.21875 -0.1875,0.625 -0.515625,1.375 -0.984375,1.96875 z m -0.65625,1.375 c -0.890625,0.765625 -1.65625,0.875 -2.046875,0.875 -0.59375,0 -0.90625,-0.453125 -0.90625,-1.09375 0,-0.484375 0.265625,-1.5625 0.578125,-2.0625 C 2.1875,-4 2.734375,-4.1875 3.078125,-4.1875 c 0.984375,0 0.984375,1.3125 0.984375,2.078125 0,0.375 0,0.953125 0.03125,1.125 z m 0,0"
               id="id-d5080304-3107-49f2-b2c8-33e81e86c25f" />
          </symbol>
        </g>
      </defs>
      <g
         id="id-99d15137-6424-44a4-a734-7f907413639e"
         transform="translate(-149.118,-130.359)">
        <g
           style="fill:#ff0000;fill-opacity:1"
           id="id-d03c7945-6e84-4e8a-9d22-6342cd018445">
          <g
             transform="translate(148.712,134.765)"
             id="g1433">
            <path
               style="stroke:none"
               d="m 4.75,-2.359375 c 0,-1.5625 -0.921875,-2.046875 -1.65625,-2.046875 -1.375,0 -2.6875,1.421875 -2.6875,2.828125 0,0.9375 0.59375,1.6875 1.625,1.6875 0.625,0 1.34375,-0.234375 2.09375,-0.84375 0.125,0.53125 0.453125,0.84375 0.90625,0.84375 0.53125,0 0.84375,-0.546875 0.84375,-0.703125 0,-0.078125 -0.0625,-0.109375 -0.125,-0.109375 -0.0625,0 -0.09375,0.03125 -0.125,0.109375 -0.1875,0.484375 -0.546875,0.484375 -0.5625,0.484375 -0.3125,0 -0.3125,-0.78125 -0.3125,-1.015625 0,-0.203125 0,-0.234375 0.109375,-0.34375 C 5.796875,-2.65625 6,-3.8125 6,-3.8125 6,-3.84375 5.984375,-3.921875 5.875,-3.921875 c -0.09375,0 -0.09375,0.03125 -0.140625,0.21875 -0.1875,0.625 -0.515625,1.375 -0.984375,1.96875 z m -0.65625,1.375 c -0.890625,0.765625 -1.65625,0.875 -2.046875,0.875 -0.59375,0 -0.90625,-0.453125 -0.90625,-1.09375 0,-0.484375 0.265625,-1.5625 0.578125,-2.0625 C 2.1875,-4 2.734375,-4.1875 3.078125,-4.1875 c 0.984375,0 0.984375,1.3125 0.984375,2.078125 0,0.375 0,0.953125 0.03125,1.125 z m 0,0"
               id="id-390f53ab-399b-4fc2-99d5-7a55f49fbd87" />
          </g>
        </g>
      </g>
    </g>
    <path
       style="fill:none;stroke:#0000ff;stroke-width:1.065;stroke-linecap:butt;stroke-linejoin:miter;stroke-opacity:1;stroke-miterlimit:4;stroke-dasharray:none;marker-start:url(#TriangleInL);marker-end:url(#TriangleOutL)"
       d="M -666.75,-317.5 V -127 l 349.25,0"
       id="path1749"
       sodipodi:nodetypes="ccc" />
    <g
       transform="matrix(2.82222 0 0 2.82222 -464.343 -251.729)"
       ns1:version="1.3.0"
       ns1:texconverter="pdflatex"
       ns1:pdfconverter="inkscape"
       ns1:text="$\\bv$"
       ns1:preamble="/home/francois/Documents/Mypapers/InkscapeHeader/header.inc"
       ns1:scale="8.0"
       ns1:alignment="middle center"
       ns1:jacobian_sqrt="2.82222"
       id="g1313">
      <defs
         id="id-1c6eb45a-39bd-4a25-a143-eed939e84411">
        <g
           id="id-89515895-5db9-4832-9870-feb8f3b6331f">
          <symbol
             overflow="visible"
             id="id-b8d6d4e5-7f3c-4865-bc7c-89473c464f55">
            <path
               style="stroke:none"
               d=""
               id="id-5816cec4-25d0-4e5f-9e16-c9a6b0ba03f2" />
          </symbol>
          <symbol
             overflow="visible"
             id="id-bdb2b177-fc1e-4888-80e5-7e211026e712">
            <path
               style="stroke:none"
               d="M 4.671875,-4.09375 C 4.71875,-4.234375 4.71875,-4.25 4.71875,-4.28125 c 0,-0.28125 -0.25,-0.28125 -0.40625,-0.28125 H 4.109375 c -0.421875,0 -0.53125,0.140625 -0.625,0.421875 L 2.5,-1.125 1.515625,-4.140625 C 1.453125,-4.34375 1.375,-4.5625 0.890625,-4.5625 H 0.65625 c -0.140625,0 -0.390625,0 -0.390625,0.28125 0,0.03125 0,0.046875 0.046875,0.1875 L 1.5,-0.421875 C 1.640625,0 1.9375,0 2.125,0 h 0.71875 c 0.1875,0 0.5,0 0.640625,-0.421875 z m 0,0"
               id="id-a27dc48c-8f64-4d95-b993-c0b158006b7e" />
          </symbol>
        </g>
      </defs>
      <g
         id="id-77cc2c3f-582e-4145-8ff2-74fc5f30ae50"
         transform="translate(-148.978, -130.202)">
        <g
           style="fill:#000000;fill-opacity:1"
           id="id-62065c5a-8e74-471a-b414-3037a4f42f7d">
          <g
             transform="translate(148.712, 134.765)"
             id="g1833">
            <path
               style="stroke:none"
               d="M 4.671875,-4.09375 C 4.71875,-4.234375 4.71875,-4.25 4.71875,-4.28125 c 0,-0.28125 -0.25,-0.28125 -0.40625,-0.28125 H 4.109375 c -0.421875,0 -0.53125,0.140625 -0.625,0.421875 L 2.5,-1.125 1.515625,-4.140625 C 1.453125,-4.34375 1.375,-4.5625 0.890625,-4.5625 H 0.65625 c -0.140625,0 -0.390625,0 -0.390625,0.28125 0,0.03125 0,0.046875 0.046875,0.1875 L 1.5,-0.421875 C 1.640625,0 1.9375,0 2.125,0 h 0.71875 c 0.1875,0 0.5,0 0.640625,-0.421875 z m 0,0"
               id="id-fff28fa8-4e17-4bd6-820c-5d5d83ae3c2c" />
          </g>
        </g>
      </g>
    </g>
    <g
       transform="matrix(2.82222 0 0 2.82222 -372.798 -196.872)"
       ns1:version="1.3.0"
       ns1:texconverter="pdflatex"
       ns1:pdfconverter="inkscape"
       ns1:text="$\\bu$"
       ns1:preamble="/home/francois/Documents/Mypapers/InkscapeHeader/header.inc"
       ns1:scale="8.0"
       ns1:alignment="middle center"
       ns1:jacobian_sqrt="2.82222"
       id="g1226">
      <defs
         id="id-18c3d0de-4695-476e-a6b9-5b90d0b24c81">
        <g
           id="id-2f31204b-b894-44c5-862b-ed78c16fde9b">
          <symbol
             overflow="visible"
             id="id-030ddfa7-5b54-4b38-8e61-ae3172a41d1e">
            <path
               style="stroke:none"
               d=""
               id="id-4302ec40-c131-4dbd-85db-9e7713e93044" />
          </symbol>
          <symbol
             overflow="visible"
             id="id-2c00500c-a696-4ac6-a8a8-fbd66f798ada">
            <path
               style="stroke:none"
               d="m 4.984375,-4.09375 c 0,-0.3125 -0.0625,-0.46875 -0.484375,-0.46875 H 4.109375 c -0.375,0 -0.484375,0.125 -0.484375,0.46875 v 2.375 C 3.625,-1.0625 3.28125,-0.5 2.578125,-0.5 c -0.5625,0 -0.625,-0.140625 -0.625,-0.671875 V -4.09375 c 0,-0.3125 -0.0625,-0.46875 -0.484375,-0.46875 H 1.078125 c -0.359375,0 -0.484375,0.109375 -0.484375,0.46875 V -1.25 c 0,1.0625 0.578125,1.359375 1.625,1.359375 0.265625,0 0.96875,0 1.4375,-0.84375 v 0.25 C 3.65625,-0.15625 3.734375,0 4.140625,0 H 4.5 c 0.390625,0 0.484375,-0.125 0.484375,-0.484375 z m 0,0"
               id="id-2955b3a4-e1cf-4c09-878b-5138918365bc" />
          </symbol>
        </g>
      </defs>
      <g
         id="id-d0c8e07a-49ad-4c54-9ba2-99c8fe41f1c7"
         transform="translate(-149.306, -130.202)">
        <g
           style="fill:#000000;fill-opacity:1"
           id="id-916a554a-317c-4179-818e-cc458d4304a0">
          <g
             transform="translate(148.712, 134.765)"
             id="g1958">
            <path
               style="stroke:none"
               d="m 4.984375,-4.09375 c 0,-0.3125 -0.0625,-0.46875 -0.484375,-0.46875 H 4.109375 c -0.375,0 -0.484375,0.125 -0.484375,0.46875 v 2.375 C 3.625,-1.0625 3.28125,-0.5 2.578125,-0.5 c -0.5625,0 -0.625,-0.140625 -0.625,-0.671875 V -4.09375 c 0,-0.3125 -0.0625,-0.46875 -0.484375,-0.46875 H 1.078125 c -0.359375,0 -0.484375,0.109375 -0.484375,0.46875 V -1.25 c 0,1.0625 0.578125,1.359375 1.625,1.359375 0.265625,0 0.96875,0 1.4375,-0.84375 v 0.25 C 3.65625,-0.15625 3.734375,0 4.140625,0 H 4.5 c 0.390625,0 0.484375,-0.125 0.484375,-0.484375 z m 0,0"
               id="id-39738b2e-a0a6-46a5-bda9-3b5b9b81f5de" />
          </g>
        </g>
      </g>
    </g>
    <g
       id="g2937"
       transform="translate(-31.750001,31.750001)">
      <path
         style="fill:none;stroke:#000000;stroke-width:1.665;stroke-linecap:butt;stroke-linejoin:miter;stroke-miterlimit:4;stroke-dasharray:none;stroke-opacity:1;marker-end:url(#marker1560)"
         d="m -180.10024,-159.09887 365.39306,-0.0509"
         id="path1476" />
      <g
         id="g1674"
         transform="translate(134.93778)">
        <path
           style="fill:none;stroke:#ff0000;stroke-width:1.165;stroke-linecap:butt;stroke-linejoin:miter;stroke-miterlimit:4;stroke-dasharray:none;stroke-opacity:1"
           d="m -169.64625,-200.34869 c 6.43859,9.19523 7.51169,10.72777 7.20646,20.07724 -0.30528,9.34944 -6.2812,20.38563 -6.2812,20.38563"
           id="path1478"
           sodipodi:nodetypes="czc" />
        <path
           style="fill:none;stroke:#000000;stroke-width:1.665;stroke-linecap:butt;stroke-linejoin:miter;stroke-miterlimit:4;stroke-dasharray:none;stroke-opacity:1;marker-end:url(#marker1550)"
           d="m -316.62547,-159.09887 305.299858,-85.87317"
           id="path1480" />
      </g>
      <g
         transform="matrix(2.82222,0,0,2.82222,-14.915704,-187.9899)"
         ns1:version="1.3.0"
         ns1:texconverter="pdflatex"
         ns1:pdfconverter="inkscape"
         ns1:text="\\color{red}{$\\alpha$}"
         ns1:preamble="/home/francois/Documents/Mypapers/InkscapeHeader/header.inc"
         ns1:scale="8.0"
         ns1:alignment="middle center"
         ns1:jacobian_sqrt="2.82222"
         id="g1747">
        <defs
           id="defs1737">
          <g
             id="g1735">
            <symbol
               overflow="visible"
               id="symbol1729">
              <path
                 style="stroke:none"
                 d=""
                 id="path1727" />
            </symbol>
            <symbol
               overflow="visible"
               id="symbol1733">
              <path
                 style="stroke:none"
                 d="m 4.75,-2.359375 c 0,-1.5625 -0.921875,-2.046875 -1.65625,-2.046875 -1.375,0 -2.6875,1.421875 -2.6875,2.828125 0,0.9375 0.59375,1.6875 1.625,1.6875 0.625,0 1.34375,-0.234375 2.09375,-0.84375 0.125,0.53125 0.453125,0.84375 0.90625,0.84375 0.53125,0 0.84375,-0.546875 0.84375,-0.703125 0,-0.078125 -0.0625,-0.109375 -0.125,-0.109375 -0.0625,0 -0.09375,0.03125 -0.125,0.109375 -0.1875,0.484375 -0.546875,0.484375 -0.5625,0.484375 -0.3125,0 -0.3125,-0.78125 -0.3125,-1.015625 0,-0.203125 0,-0.234375 0.109375,-0.34375 C 5.796875,-2.65625 6,-3.8125 6,-3.8125 6,-3.84375 5.984375,-3.921875 5.875,-3.921875 c -0.09375,0 -0.09375,0.03125 -0.140625,0.21875 -0.1875,0.625 -0.515625,1.375 -0.984375,1.96875 z m -0.65625,1.375 c -0.890625,0.765625 -1.65625,0.875 -2.046875,0.875 -0.59375,0 -0.90625,-0.453125 -0.90625,-1.09375 0,-0.484375 0.265625,-1.5625 0.578125,-2.0625 C 2.1875,-4 2.734375,-4.1875 3.078125,-4.1875 c 0.984375,0 0.984375,1.3125 0.984375,2.078125 0,0.375 0,0.953125 0.03125,1.125 z m 0,0"
                 id="path1731" />
            </symbol>
          </g>
        </defs>
        <g
           id="g1745"
           transform="translate(-149.118,-130.359)">
          <g
             style="fill:#ff0000;fill-opacity:1"
             id="g1743">
            <g
               transform="translate(148.712,134.765)"
               id="g1741">
              <path
                 style="stroke:none"
                 d="m 4.75,-2.359375 c 0,-1.5625 -0.921875,-2.046875 -1.65625,-2.046875 -1.375,0 -2.6875,1.421875 -2.6875,2.828125 0,0.9375 0.59375,1.6875 1.625,1.6875 0.625,0 1.34375,-0.234375 2.09375,-0.84375 0.125,0.53125 0.453125,0.84375 0.90625,0.84375 0.53125,0 0.84375,-0.546875 0.84375,-0.703125 0,-0.078125 -0.0625,-0.109375 -0.125,-0.109375 -0.0625,0 -0.09375,0.03125 -0.125,0.109375 -0.1875,0.484375 -0.546875,0.484375 -0.5625,0.484375 -0.3125,0 -0.3125,-0.78125 -0.3125,-1.015625 0,-0.203125 0,-0.234375 0.109375,-0.34375 C 5.796875,-2.65625 6,-3.8125 6,-3.8125 6,-3.84375 5.984375,-3.921875 5.875,-3.921875 c -0.09375,0 -0.09375,0.03125 -0.140625,0.21875 -0.1875,0.625 -0.515625,1.375 -0.984375,1.96875 z m -0.65625,1.375 c -0.890625,0.765625 -1.65625,0.875 -2.046875,0.875 -0.59375,0 -0.90625,-0.453125 -0.90625,-1.09375 0,-0.484375 0.265625,-1.5625 0.578125,-2.0625 C 2.1875,-4 2.734375,-4.1875 3.078125,-4.1875 c 0.984375,0 0.984375,1.3125 0.984375,2.078125 0,0.375 0,0.953125 0.03125,1.125 z m 0,0"
                 id="path1739" />
            </g>
          </g>
        </g>
      </g>
      <g
         transform="matrix(2.82222,0,0,2.82222,62.486827,-253.11946)"
         ns1:version="1.3.0"
         ns1:texconverter="pdflatex"
         ns1:pdfconverter="inkscape"
         ns1:text="$\\bv$"
         ns1:preamble="/home/francois/Documents/Mypapers/InkscapeHeader/header.inc"
         ns1:scale="8.0"
         ns1:alignment="middle center"
         ns1:jacobian_sqrt="2.82222"
         id="g2063">
        <defs
           id="defs2053">
          <g
             id="g2051">
            <symbol
               overflow="visible"
               id="symbol2045">
              <path
                 style="stroke:none"
                 d=""
                 id="path2043" />
            </symbol>
            <symbol
               overflow="visible"
               id="symbol2049">
              <path
                 style="stroke:none"
                 d="M 4.671875,-4.09375 C 4.71875,-4.234375 4.71875,-4.25 4.71875,-4.28125 c 0,-0.28125 -0.25,-0.28125 -0.40625,-0.28125 H 4.109375 c -0.421875,0 -0.53125,0.140625 -0.625,0.421875 L 2.5,-1.125 1.515625,-4.140625 C 1.453125,-4.34375 1.375,-4.5625 0.890625,-4.5625 H 0.65625 c -0.140625,0 -0.390625,0 -0.390625,0.28125 0,0.03125 0,0.046875 0.046875,0.1875 L 1.5,-0.421875 C 1.640625,0 1.9375,0 2.125,0 h 0.71875 c 0.1875,0 0.5,0 0.640625,-0.421875 z m 0,0"
                 id="path2047" />
            </symbol>
          </g>
        </defs>
        <g
           id="g2061"
           transform="translate(-148.978,-130.202)">
          <g
             style="fill:#000000;fill-opacity:1"
             id="g2059">
            <g
               transform="translate(148.712,134.765)"
               id="g2057">
              <path
                 style="stroke:none"
                 d="M 4.671875,-4.09375 C 4.71875,-4.234375 4.71875,-4.25 4.71875,-4.28125 c 0,-0.28125 -0.25,-0.28125 -0.40625,-0.28125 H 4.109375 c -0.421875,0 -0.53125,0.140625 -0.625,0.421875 L 2.5,-1.125 1.515625,-4.140625 C 1.453125,-4.34375 1.375,-4.5625 0.890625,-4.5625 H 0.65625 c -0.140625,0 -0.390625,0 -0.390625,0.28125 0,0.03125 0,0.046875 0.046875,0.1875 L 1.5,-0.421875 C 1.640625,0 1.9375,0 2.125,0 h 0.71875 c 0.1875,0 0.5,0 0.640625,-0.421875 z m 0,0"
                 id="path2055" />
            </g>
          </g>
        </g>
      </g>
      <g
         transform="matrix(2.82222,0,0,2.82222,77.567729,-175.94933)"
         ns1:version="1.3.0"
         ns1:texconverter="pdflatex"
         ns1:pdfconverter="inkscape"
         ns1:text="$\\bu$"
         ns1:preamble="/home/francois/Documents/Mypapers/InkscapeHeader/header.inc"
         ns1:scale="8.0"
         ns1:alignment="middle center"
         ns1:jacobian_sqrt="2.82222"
         id="g2085">
        <defs
           id="defs2075">
          <g
             id="g2073">
            <symbol
               overflow="visible"
               id="symbol2067">
              <path
                 style="stroke:none"
                 d=""
                 id="path2065" />
            </symbol>
            <symbol
               overflow="visible"
               id="symbol2071">
              <path
                 style="stroke:none"
                 d="m 4.984375,-4.09375 c 0,-0.3125 -0.0625,-0.46875 -0.484375,-0.46875 H 4.109375 c -0.375,0 -0.484375,0.125 -0.484375,0.46875 v 2.375 C 3.625,-1.0625 3.28125,-0.5 2.578125,-0.5 c -0.5625,0 -0.625,-0.140625 -0.625,-0.671875 V -4.09375 c 0,-0.3125 -0.0625,-0.46875 -0.484375,-0.46875 H 1.078125 c -0.359375,0 -0.484375,0.109375 -0.484375,0.46875 V -1.25 c 0,1.0625 0.578125,1.359375 1.625,1.359375 0.265625,0 0.96875,0 1.4375,-0.84375 v 0.25 C 3.65625,-0.15625 3.734375,0 4.140625,0 H 4.5 c 0.390625,0 0.484375,-0.125 0.484375,-0.484375 z m 0,0"
                 id="path2069" />
            </symbol>
          </g>
        </defs>
        <g
           id="g2083"
           transform="translate(-149.306,-130.202)">
          <g
             style="fill:#000000;fill-opacity:1"
             id="g2081">
            <g
               transform="translate(148.712,134.765)"
               id="g2079">
              <path
                 style="stroke:none"
                 d="m 4.984375,-4.09375 c 0,-0.3125 -0.0625,-0.46875 -0.484375,-0.46875 H 4.109375 c -0.375,0 -0.484375,0.125 -0.484375,0.46875 v 2.375 C 3.625,-1.0625 3.28125,-0.5 2.578125,-0.5 c -0.5625,0 -0.625,-0.140625 -0.625,-0.671875 V -4.09375 c 0,-0.3125 -0.0625,-0.46875 -0.484375,-0.46875 H 1.078125 c -0.359375,0 -0.484375,0.109375 -0.484375,0.46875 V -1.25 c 0,1.0625 0.578125,1.359375 1.625,1.359375 0.265625,0 0.96875,0 1.4375,-0.84375 v 0.25 C 3.65625,-0.15625 3.734375,0 4.140625,0 H 4.5 c 0.390625,0 0.484375,-0.125 0.484375,-0.484375 z m 0,0"
                 id="path2077" />
            </g>
          </g>
        </g>
      </g>
      <path
         style="fill:none;stroke:#0000ff;stroke-width:1.065;stroke-linecap:butt;stroke-linejoin:miter;stroke-miterlimit:4;stroke-dasharray:none;stroke-opacity:1;marker-start:url(#marker2697);marker-end:url(#marker2707)"
         d="m -181.0503,-349.02341 v 190.5 h 349.24988"
         id="path2693"
         sodipodi:nodetypes="ccc" />
    </g>
    <path
       style="fill:none;stroke:#000000;stroke-width:1.565;stroke-linecap:butt;stroke-linejoin:miter;stroke-miterlimit:4;stroke-dasharray:none;stroke-opacity:1;marker-end:url(#marker3039)"
       d="m -336.03595,-311.01422 c 10.58333,-13.22917 23.49934,-18.28874 39.45734,-23.44883 15.958,-5.16009 31.72487,-5.10171 46.27027,-5.10171 14.5454,0 34.78579,4.38164 43.65723,8.46773 11.45952,5.27814 17.13212,9.1209 26.73444,19.94719"
       id="path3029"
       sodipodi:nodetypes="csssc" />
  </g>
</svg>
