<?xml version="1.0" encoding="UTF-8" standalone="no"?>
<!-- Created with Inkscape (http://www.inkscape.org/) -->

<svg
   xmlns:ns1="http://www.iki.fi/pav/software/textext/"
   xmlns:dc="http://purl.org/dc/elements/1.1/"
   xmlns:cc="http://creativecommons.org/ns#"
   xmlns:rdf="http://www.w3.org/1999/02/22-rdf-syntax-ns#"
   xmlns:svg="http://www.w3.org/2000/svg"
   xmlns="http://www.w3.org/2000/svg"
   xmlns:sodipodi="http://sodipodi.sourceforge.net/DTD/sodipodi-0.dtd"
   xmlns:inkscape="http://www.inkscape.org/namespaces/inkscape"
   width="210mm"
   height="297mm"
   viewBox="0 0 210 297"
   version="1.1"
   id="svg8"
   sodipodi:docname="secant_derivative.svg"
   inkscape:export-filename="/home/francois/Dropbox/Courses/VisionAndImageProcessing/2020_21/Lectures/FIGURES/secant_derivative3.png"
   inkscape:export-xdpi="90"
   inkscape:export-ydpi="90"
   inkscape:version="0.92.3 (2405546, 2018-03-11)">
  <sodipodi:namedview
     id="base"
     pagecolor="#ffffff"
     bordercolor="#666666"
     borderopacity="1.0"
     inkscape:pageopacity="0.0"
     inkscape:pageshadow="2"
     inkscape:zoom="1.979899"
     inkscape:cx="-1859.6229"
     inkscape:cy="1732.7907"
     inkscape:document-units="mm"
     inkscape:current-layer="layer1"
     showgrid="true"
     inkscape:window-width="3840"
     inkscape:window-height="2126"
     inkscape:window-x="1920"
     inkscape:window-y="0"
     inkscape:window-maximized="1">
    <inkscape:grid
       id="grid817"
       type="xygrid" />
  </sodipodi:namedview>
  <defs
     id="defs2">
    <marker
       inkscape:isstock="true"
       style="overflow:visible;"
       id="marker7861"
       refX="0.0"
       refY="0.0"
       orient="auto"
       inkscape:stockid="Arrow1Mend">
      <path
         transform="scale(0.4) rotate(180) translate(10,0)"
         style="fill-rule:evenodd;stroke:#000000;stroke-width:1pt;stroke-opacity:1;fill:#000000;fill-opacity:1"
         d="M 0.0,0.0 L 5.0,-5.0 L -12.5,0.0 L 5.0,5.0 L 0.0,0.0 z "
         id="path7859" />
    </marker>
    <marker
       inkscape:stockid="Arrow1Mend"
       orient="auto"
       refY="0.0"
       refX="0.0"
       id="marker7059"
       style="overflow:visible;"
       inkscape:isstock="true">
      <path
         id="path7057"
         d="M 0.0,0.0 L 5.0,-5.0 L -12.5,0.0 L 5.0,5.0 L 0.0,0.0 z "
         style="fill-rule:evenodd;stroke:#000000;stroke-width:1pt;stroke-opacity:1;fill:#000000;fill-opacity:1"
         transform="scale(0.4) rotate(180) translate(10,0)" />
    </marker>
    <marker
       inkscape:stockid="Arrow1Mend"
       orient="auto"
       refY="0.0"
       refX="0.0"
       id="marker6597"
       style="overflow:visible;"
       inkscape:isstock="true"
       inkscape:collect="always">
      <path
         id="path6595"
         d="M 0.0,0.0 L 5.0,-5.0 L -12.5,0.0 L 5.0,5.0 L 0.0,0.0 z "
         style="fill-rule:evenodd;stroke:#000000;stroke-width:1pt;stroke-opacity:1;fill:#000000;fill-opacity:1"
         transform="scale(0.4) rotate(180) translate(10,0)" />
    </marker>
    <marker
       inkscape:stockid="Arrow1Mend"
       orient="auto"
       refY="0.0"
       refX="0.0"
       id="marker5828"
       style="overflow:visible;"
       inkscape:isstock="true">
      <path
         id="path5826"
         d="M 0.0,0.0 L 5.0,-5.0 L -12.5,0.0 L 5.0,5.0 L 0.0,0.0 z "
         style="fill-rule:evenodd;stroke:#000000;stroke-width:1pt;stroke-opacity:1;fill:#000000;fill-opacity:1"
         transform="scale(0.4) rotate(180) translate(10,0)" />
    </marker>
    <marker
       inkscape:stockid="Arrow1Mend"
       orient="auto"
       refY="0.0"
       refX="0.0"
       id="marker5760"
       style="overflow:visible;"
       inkscape:isstock="true">
      <path
         id="path5758"
         d="M 0.0,0.0 L 5.0,-5.0 L -12.5,0.0 L 5.0,5.0 L 0.0,0.0 z "
         style="fill-rule:evenodd;stroke:#000000;stroke-width:1pt;stroke-opacity:1;fill:#000000;fill-opacity:1"
         transform="scale(0.4) rotate(180) translate(10,0)" />
    </marker>
    <marker
       inkscape:stockid="Arrow1Mend"
       orient="auto"
       refY="0.0"
       refX="0.0"
       id="marker5602"
       style="overflow:visible;"
       inkscape:isstock="true">
      <path
         id="path5600"
         d="M 0.0,0.0 L 5.0,-5.0 L -12.5,0.0 L 5.0,5.0 L 0.0,0.0 z "
         style="fill-rule:evenodd;stroke:#000000;stroke-width:1pt;stroke-opacity:1;fill:#000000;fill-opacity:1"
         transform="scale(0.4) rotate(180) translate(10,0)" />
    </marker>
    <marker
       inkscape:isstock="true"
       style="overflow:visible;"
       id="marker4770"
       refX="0.0"
       refY="0.0"
       orient="auto"
       inkscape:stockid="Arrow1Mend">
      <path
         transform="scale(0.4) rotate(180) translate(10,0)"
         style="fill-rule:evenodd;stroke:#000000;stroke-width:1pt;stroke-opacity:1;fill:#000000;fill-opacity:1"
         d="M 0.0,0.0 L 5.0,-5.0 L -12.5,0.0 L 5.0,5.0 L 0.0,0.0 z "
         id="path4768" />
    </marker>
    <marker
       inkscape:isstock="true"
       style="overflow:visible;"
       id="marker4736"
       refX="0.0"
       refY="0.0"
       orient="auto"
       inkscape:stockid="Arrow1Mend">
      <path
         transform="scale(0.4) rotate(180) translate(10,0)"
         style="fill-rule:evenodd;stroke:#000000;stroke-width:1pt;stroke-opacity:1;fill:#000000;fill-opacity:1"
         d="M 0.0,0.0 L 5.0,-5.0 L -12.5,0.0 L 5.0,5.0 L 0.0,0.0 z "
         id="path4734" />
    </marker>
    <marker
       inkscape:isstock="true"
       style="overflow:visible;"
       id="marker4653"
       refX="0.0"
       refY="0.0"
       orient="auto"
       inkscape:stockid="Arrow1Mend">
      <path
         transform="scale(0.4) rotate(180) translate(10,0)"
         style="fill-rule:evenodd;stroke:#000000;stroke-width:1pt;stroke-opacity:1;fill:#000000;fill-opacity:1"
         d="M 0.0,0.0 L 5.0,-5.0 L -12.5,0.0 L 5.0,5.0 L 0.0,0.0 z "
         id="path4651" />
    </marker>
    <marker
       inkscape:stockid="Arrow1Mend"
       orient="auto"
       refY="0.0"
       refX="0.0"
       id="marker4574"
       style="overflow:visible;"
       inkscape:isstock="true">
      <path
         id="path4572"
         d="M 0.0,0.0 L 5.0,-5.0 L -12.5,0.0 L 5.0,5.0 L 0.0,0.0 z "
         style="fill-rule:evenodd;stroke:#000000;stroke-width:1pt;stroke-opacity:1;fill:#000000;fill-opacity:1"
         transform="scale(0.4) rotate(180) translate(10,0)" />
    </marker>
    <marker
       inkscape:stockid="Arrow1Mend"
       orient="auto"
       refY="0.0"
       refX="0.0"
       id="marker4138"
       style="overflow:visible;"
       inkscape:isstock="true">
      <path
         id="path4136"
         d="M 0.0,0.0 L 5.0,-5.0 L -12.5,0.0 L 5.0,5.0 L 0.0,0.0 z "
         style="fill-rule:evenodd;stroke:#000000;stroke-width:1pt;stroke-opacity:1;fill:#000000;fill-opacity:1"
         transform="scale(0.4) rotate(180) translate(10,0)" />
    </marker>
    <marker
       inkscape:collect="always"
       inkscape:stockid="Arrow1Mend"
       orient="auto"
       refY="0.0"
       refX="0.0"
       id="marker1125"
       style="overflow:visible;"
       inkscape:isstock="true">
      <path
         id="path1123"
         d="M 0.0,0.0 L 5.0,-5.0 L -12.5,0.0 L 5.0,5.0 L 0.0,0.0 z "
         style="fill-rule:evenodd;stroke:#000000;stroke-width:1pt;stroke-opacity:1;fill:#000000;fill-opacity:1"
         transform="scale(0.4) rotate(180) translate(10,0)" />
    </marker>
    <marker
       inkscape:collect="always"
       inkscape:isstock="true"
       style="overflow:visible;"
       id="Arrow1Mend"
       refX="0.0"
       refY="0.0"
       orient="auto"
       inkscape:stockid="Arrow1Mend">
      <path
         transform="scale(0.4) rotate(180) translate(10,0)"
         style="fill-rule:evenodd;stroke:#000000;stroke-width:1pt;stroke-opacity:1;fill:#000000;fill-opacity:1"
         d="M 0.0,0.0 L 5.0,-5.0 L -12.5,0.0 L 5.0,5.0 L 0.0,0.0 z "
         id="path830" />
    </marker>
  </defs>
  <metadata
     id="metadata5">
    <rdf:RDF>
      <cc:Work
         rdf:about="">
        <dc:format>image/svg+xml</dc:format>
        <dc:type
           rdf:resource="http://purl.org/dc/dcmitype/StillImage" />
      </cc:Work>
    </rdf:RDF>
  </metadata>
  <g
     id="layer1"
     inkscape:groupmode="layer"
     inkscape:label="Layer 1">
    <path
       inkscape:connector-curvature="0"
       id="path819"
       d="m -719.66666,-50.279317 c 0,-243.416663 0,-243.416663 0,-243.416663"
       style="fill:none;stroke:#000000;stroke-width:2;stroke-linecap:butt;stroke-linejoin:miter;stroke-miterlimit:4;stroke-dasharray:none;stroke-opacity:1;marker-end:url(#Arrow1Mend)" />
    <path
       style="fill:none;stroke:#000000;stroke-width:2;stroke-linecap:butt;stroke-linejoin:miter;stroke-miterlimit:4;stroke-dasharray:none;stroke-opacity:1;marker-end:url(#marker1125)"
       d="m -751.41666,-73.416667 c 243.41666,0 243.41666,0 243.41666,0"
       id="path1121"
       inkscape:connector-curvature="0" />
    <path
       sodipodi:nodetypes="cszzzc"
       inkscape:connector-curvature="0"
       id="path2161"
       d="m -740.83333,-91.67023 c 0,0 34.39583,-12.80824 47.625,-34.15531 9.35443,-15.09465 18.99902,-35.74316 26.26934,-64.95606 7.27033,-29.2129 20.31678,-35.83974 34.20685,-3.6595 13.89007,32.18023 30.99404,66.09096 54.05059,59.16186 23.05655,-6.9291 38.93155,-22.8041 54.80655,-70.4291"
       style="fill:none;stroke:#0000ff;stroke-width:1.2702899;stroke-linecap:butt;stroke-linejoin:miter;stroke-miterlimit:4;stroke-dasharray:none;stroke-opacity:1" />
    <g
       id="g2185"
       ns1:jacobian_sqrt="2.52307"
       ns1:alignment="middle center"
       ns1:scale="7.1520100159"
       ns1:preamble="/home/francois/Documents/Mypapers/InkscapeHeader/header.inc"
       ns1:text="$x$"
       ns1:pdfconverter="pdf2svg"
       ns1:texconverter="pdflatex"
       ns1:version="0.11.0"
       transform="matrix(1.6147648,0,0,1.6147648,-938.6349,-275.15545)">
      <g
         id="surface1">
        <g
           id="g2182"
           style="fill:#000000;fill-opacity:1">
          <path
             id="path2180"
             d="m 3.078125,-2.28125 2.28125,-2.140625 H 4.53125 L 2.859375,-2.78125 1.828125,-4.421875 H 1 L 2.421875,-2.28125 0,0 H 0.8125 L 2.65625,-1.875 3.765625,0 h 0.8125 z m 0,0"
             style="stroke:none;stroke-width:0"
             transform="translate(148.712,134.765)"
             inkscape:connector-curvature="0" />
        </g>
      </g>
    </g>
    <path
       style="fill:none;stroke:#000000;stroke-width:0.74000001;stroke-linecap:butt;stroke-linejoin:miter;stroke-miterlimit:4;stroke-dasharray:none;stroke-opacity:1"
       d="m -695.75966,-77.054696 v 7.559524 0"
       id="path2210"
       inkscape:connector-curvature="0"
       sodipodi:nodetypes="ccc" />
    <path
       style="fill:none;stroke:#000000;stroke-width:0.54716396;stroke-linecap:butt;stroke-linejoin:miter;stroke-miterlimit:4;stroke-dasharray:1.09432791, 1.09432791;stroke-dashoffset:0;stroke-opacity:1"
       d="m -695.85417,-76.062508 v -47.625002 h -23.81249"
       id="path2214"
       inkscape:connector-curvature="0" />
    <path
       sodipodi:nodetypes="ccc"
       inkscape:connector-curvature="0"
       id="path2310"
       d="m -616.47917,-75.684532 v 7.559524 0"
       style="fill:none;stroke:#000000;stroke-width:0.74000001;stroke-linecap:butt;stroke-linejoin:miter;stroke-miterlimit:4;stroke-dasharray:none;stroke-opacity:1" />
    <path
       inkscape:connector-curvature="0"
       id="path2312"
       d="M -616.47917,-76.062508 V -162.05209 H -719.66666"
       style="fill:none;stroke:#000000;stroke-width:0.64059561;stroke-linecap:butt;stroke-linejoin:miter;stroke-miterlimit:4;stroke-dasharray:1.28119124, 1.28119124;stroke-dashoffset:0;stroke-opacity:1" />
    <g
       transform="matrix(1.6147648,0,0,1.6147648,-872.98637,-273.46161)"
       ns1:version="0.11.0"
       ns1:texconverter="pdflatex"
       ns1:pdfconverter="pdf2svg"
       ns1:text="$x\\!+\\!h$"
       ns1:preamble="/home/francois/Documents/Mypapers/InkscapeHeader/header.inc"
       ns1:scale="5.72160801272"
       ns1:alignment="middle center"
       ns1:jacobian_sqrt="2.018456"
       id="g2459">
      <g
         id="g2457">
        <g
           style="fill:#000000;fill-opacity:1"
           id="g2447">
          <path
             inkscape:connector-curvature="0"
             style="stroke:none;stroke-width:0"
             d="m 3.078125,-2.28125 2.28125,-2.140625 H 4.53125 L 2.859375,-2.78125 1.828125,-4.421875 H 1 L 2.421875,-2.28125 0,0 H 0.8125 L 2.65625,-1.875 3.765625,0 h 0.8125 z m 0,0"
             transform="translate(148.712,134.765)"
             id="path2445" />
        </g>
        <g
           style="fill:#000000;fill-opacity:1"
           id="g2451">
          <path
             inkscape:connector-curvature="0"
             style="stroke:none;stroke-width:0"
             d="m 4.078125,-2.296875 h 2.78125 C 7,-2.296875 7.1875,-2.296875 7.1875,-2.5 7.1875,-2.6875 7,-2.6875 6.859375,-2.6875 h -2.78125 v -2.796875 c 0,-0.140625 0,-0.328125 -0.203125,-0.328125 -0.203125,0 -0.203125,0.1875 -0.203125,0.328125 V -2.6875 h -2.78125 c -0.140625,0 -0.328125,0 -0.328125,0.1875 0,0.203125 0.1875,0.203125 0.328125,0.203125 h 2.78125 V 0.5 c 0,0.140625 0,0.328125 0.203125,0.328125 0.203125,0 0.203125,-0.1875 0.203125,-0.328125 z m 0,0"
             transform="translate(154.773,134.765)"
             id="path2449" />
        </g>
        <g
           style="fill:#000000;fill-opacity:1"
           id="g2455">
          <path
             inkscape:connector-curvature="0"
             style="stroke:none;stroke-width:0"
             d="m 4.96875,-3.03125 c 0.0625,-0.28125 0.0625,-0.359375 0.0625,-0.5 0,-0.609375 -0.296875,-1 -1.09375,-1 -0.75,0 -1.3125,0.4375 -1.5625,0.71875 L 3.015625,-6.921875 H 2.28125 L 0.8125,0 H 1.578125 L 2.0625,-2.265625 c 0.234375,-1.09375 0.703125,-1.65625 1.359375,-1.65625 0.46875,0 0.8125,0.15625 0.8125,0.65625 0,0.03125 -0.03125,0.1875 -0.03125,0.203125 L 3.5625,0 h 0.78125 z m 0,0"
             transform="translate(163.075,134.765)"
             id="path2453" />
        </g>
      </g>
    </g>
    <g
       id="g2595"
       ns1:jacobian_sqrt="2.018456"
       ns1:alignment="middle center"
       ns1:scale="5.72160801272"
       ns1:preamble="/home/francois/Documents/Mypapers/InkscapeHeader/header.inc"
       ns1:text="$f(x\\!+\\!h)$"
       ns1:pdfconverter="pdf2svg"
       ns1:texconverter="pdflatex"
       ns1:version="0.11.0"
       transform="matrix(1.6147648,0,0,1.6147648,-1021.9316,-377.27987)">
      <g
         id="g2593">
        <g
           id="g2571"
           style="fill:#000000;fill-opacity:1">
          <path
             inkscape:connector-curvature="0"
             id="path2569"
             transform="translate(148.712,134.765)"
             d="m 2.578125,-3.84375 h 1.09375 L 3.78125,-4.421875 h -1.125 L 2.921875,-5.65625 c 0.09375,-0.5 0.59375,-0.765625 1.09375,-0.765625 0.125,0 0.4375,0.015625 0.765625,0.171875 l 0.140625,-0.671875 c -0.25,-0.0625 -0.515625,-0.109375 -0.765625,-0.109375 -0.984375,0 -1.8125,0.765625 -2,1.65625 L 1.9375,-4.421875 H 1.203125 L 1.09375,-3.84375 H 1.828125 L 1,0 h 0.75 z m 0,0"
             style="stroke:none;stroke-width:0" />
        </g>
        <g
           id="g2575"
           style="fill:#000000;fill-opacity:1">
          <path
             inkscape:connector-curvature="0"
             id="path2573"
             transform="translate(153.919,134.765)"
             d="M 2.703125,-7.484375 C 2.375,-7.171875 1.71875,-6.5625 1.25,-5.34375 0.859375,-4.28125 0.78125,-3.21875 0.78125,-2.5 c 0,3.234375 1.4375,4.546875 1.921875,5 H 3.3125 c -0.484375,-0.484375 -1.75,-1.765625 -1.75,-5 0,-0.546875 0.03125,-1.71875 0.4375,-2.890625 0.40625,-1.15625 0.984375,-1.75 1.3125,-2.09375 z m 0,0"
             style="stroke:none;stroke-width:0" />
        </g>
        <g
           id="g2579"
           style="fill:#000000;fill-opacity:1">
          <path
             inkscape:connector-curvature="0"
             id="path2577"
             transform="translate(157.793,134.765)"
             d="m 3.078125,-2.28125 2.28125,-2.140625 H 4.53125 L 2.859375,-2.78125 1.828125,-4.421875 H 1 L 2.421875,-2.28125 0,0 H 0.8125 L 2.65625,-1.875 3.765625,0 h 0.8125 z m 0,0"
             style="stroke:none;stroke-width:0" />
        </g>
        <g
           id="g2583"
           style="fill:#000000;fill-opacity:1">
          <path
             inkscape:connector-curvature="0"
             id="path2581"
             transform="translate(163.854,134.765)"
             d="m 4.078125,-2.296875 h 2.78125 C 7,-2.296875 7.1875,-2.296875 7.1875,-2.5 7.1875,-2.6875 7,-2.6875 6.859375,-2.6875 h -2.78125 v -2.796875 c 0,-0.140625 0,-0.328125 -0.203125,-0.328125 -0.203125,0 -0.203125,0.1875 -0.203125,0.328125 V -2.6875 h -2.78125 c -0.140625,0 -0.328125,0 -0.328125,0.1875 0,0.203125 0.1875,0.203125 0.328125,0.203125 h 2.78125 V 0.5 c 0,0.140625 0,0.328125 0.203125,0.328125 0.203125,0 0.203125,-0.1875 0.203125,-0.328125 z m 0,0"
             style="stroke:none;stroke-width:0" />
        </g>
        <g
           id="g2587"
           style="fill:#000000;fill-opacity:1">
          <path
             inkscape:connector-curvature="0"
             id="path2585"
             transform="translate(172.156,134.765)"
             d="m 4.96875,-3.03125 c 0.0625,-0.28125 0.0625,-0.359375 0.0625,-0.5 0,-0.609375 -0.296875,-1 -1.09375,-1 -0.75,0 -1.3125,0.4375 -1.5625,0.71875 L 3.015625,-6.921875 H 2.28125 L 0.8125,0 H 1.578125 L 2.0625,-2.265625 c 0.234375,-1.09375 0.703125,-1.65625 1.359375,-1.65625 0.46875,0 0.8125,0.15625 0.8125,0.65625 0,0.03125 -0.03125,0.1875 -0.03125,0.203125 L 3.5625,0 h 0.78125 z m 0,0"
             style="stroke:none;stroke-width:0" />
        </g>
        <g
           id="g2591"
           style="fill:#000000;fill-opacity:1">
          <path
             inkscape:connector-curvature="0"
             id="path2589"
             transform="translate(177.481,134.765)"
             d="m 1.171875,2.5 c 0.3125,-0.3125 0.984375,-0.921875 1.4375,-2.140625 0.40625,-1.0625 0.46875,-2.125 0.46875,-2.859375 0,-3.21875 -1.4375,-4.53125 -1.90625,-4.984375 H 0.5625 C 1.03125,-7 2.296875,-5.71875 2.296875,-2.5 c 0,0.5625 -0.03125,1.734375 -0.4375,2.90625 C 1.453125,1.5625 0.890625,2.15625 0.5625,2.5 Z m 0,0"
             style="stroke:none;stroke-width:0" />
        </g>
      </g>
    </g>
    <g
       transform="matrix(2.018456,0,0,2.018456,-918.15743,-501.76942)"
       ns1:version="0.11.0"
       ns1:texconverter="pdflatex"
       ns1:pdfconverter="pdf2svg"
       ns1:text="$\\frac{f(x\\!+\\!h) - f(x)}{h}$"
       ns1:preamble="/home/francois/Documents/Mypapers/InkscapeHeader/header.inc"
       ns1:scale="5.72160801272"
       ns1:alignment="middle center"
       ns1:jacobian_sqrt="2.018456"
       id="g2796">
      <g
         id="g2794">
        <g
           style="fill:#000000;fill-opacity:1"
           id="g2746">
          <path
             inkscape:connector-curvature="0"
             style="stroke:none;stroke-width:0"
             d="M 1.890625,-2.65625 H 2.6875 l 0.09375,-0.4375 H 1.953125 l 0.1875,-0.828125 c 0.03125,-0.125 0.046875,-0.234375 0.25,-0.375 0.21875,-0.15625 0.453125,-0.15625 0.515625,-0.15625 0.1875,0 0.390625,0.046875 0.578125,0.125 L 3.59375,-4.84375 C 3.421875,-4.875 3.25,-4.90625 3.015625,-4.90625 c -0.734375,0 -1.34375,0.546875 -1.484375,1.171875 L 1.390625,-3.09375 h -0.53125 l -0.09375,0.4375 h 0.53125 L 0.734375,0 h 0.59375 z m 0,0"
             transform="translate(149.908,130.032)"
             id="path2744" />
        </g>
        <g
           style="fill:#000000;fill-opacity:1"
           id="g2750">
          <path
             inkscape:connector-curvature="0"
             style="stroke:none;stroke-width:0"
             d="m 2.125,-5.21875 c -0.125,0 -0.125,0 -0.21875,0.0625 -0.875,0.765625 -1.328125,2.015625 -1.328125,3.421875 0,1.3125 0.40625,2.578125 1.328125,3.390625 C 2,1.734375 2,1.734375 2.125,1.734375 H 2.453125 C 2.4375,1.734375 1.765625,1.15625 1.4375,0.0625 c -0.15625,-0.546875 -0.25,-1.109375 -0.25,-1.796875 0,-2.421875 1.140625,-3.375 1.265625,-3.484375 z m 0,0"
             transform="translate(153.716,130.032)"
             id="path2748" />
        </g>
        <g
           style="fill:#000000;fill-opacity:1"
           id="g2754">
          <path
             inkscape:connector-curvature="0"
             style="stroke:none;stroke-width:0"
             d="m 2.265625,-1.59375 1.671875,-1.5 H 3.328125 L 2.09375,-1.953125 1.328125,-3.09375 h -0.625 l 1.0625,1.5 L 0,0 H 0.625 L 1.953125,-1.3125 2.78125,0 h 0.625 z m 0,0"
             transform="translate(156.597,130.032)"
             id="path2752" />
        </g>
        <g
           style="fill:#000000;fill-opacity:1"
           id="g2758">
          <path
             inkscape:connector-curvature="0"
             style="stroke:none;stroke-width:0"
             d="m 3.03125,-1.578125 h 2.0625 c 0.09375,0 0.25,0 0.25,-0.15625 0,-0.171875 -0.15625,-0.171875 -0.25,-0.171875 h -2.0625 v -2.046875 c 0,-0.109375 0,-0.25 -0.15625,-0.25 -0.15625,0 -0.15625,0.140625 -0.15625,0.25 v 2.046875 h -2.0625 c -0.09375,0 -0.25,0 -0.25,0.171875 0,0.15625 0.15625,0.15625 0.25,0.15625 h 2.0625 V 0.46875 c 0,0.109375 0,0.25 0.15625,0.25 0.15625,0 0.15625,-0.140625 0.15625,-0.25 z m 0,0"
             transform="translate(159.289,130.032)"
             id="path2756" />
        </g>
        <g
           style="fill:#000000;fill-opacity:1"
           id="g2762">
          <path
             inkscape:connector-curvature="0"
             style="stroke:none;stroke-width:0"
             d="m 3.6875,-2.078125 c 0.03125,-0.125 0.046875,-0.203125 0.046875,-0.375 0,-0.59375 -0.453125,-0.703125 -0.84375,-0.703125 -0.484375,0 -0.875,0.21875 -1.15625,0.484375 L 2.1875,-4.84375 H 1.609375 L 0.578125,0 H 1.1875 L 1.484375,-1.453125 C 1.59375,-1.875 1.625,-2.09375 1.859375,-2.375 2.03125,-2.59375 2.25,-2.703125 2.5,-2.703125 c 0.34375,0 0.59375,0.125 0.59375,0.453125 0,0.109375 0,0.125 -0.015625,0.171875 L 2.640625,0 h 0.59375 z m 0,0"
             transform="translate(163.692,130.032)"
             id="path2760" />
        </g>
        <g
           style="fill:#000000;fill-opacity:1"
           id="g2766">
          <path
             inkscape:connector-curvature="0"
             style="stroke:none;stroke-width:0"
             d="m 0.75,1.734375 c 0.109375,0 0.125,0 0.21875,-0.0625 0.875,-0.765625 1.3125,-2.015625 1.3125,-3.40625 0,-1.328125 -0.390625,-2.59375 -1.3125,-3.40625 C 0.875,-5.21875 0.859375,-5.21875 0.75,-5.21875 H 0.40625 c 0.03125,0 0.703125,0.578125 1.015625,1.671875 0.171875,0.546875 0.25,1.109375 0.25,1.8125 0,2.40625 -1.125,3.359375 -1.265625,3.46875 z m 0,0"
             transform="translate(167.634,130.032)"
             id="path2764" />
        </g>
        <g
           style="fill:#000000;fill-opacity:1"
           id="g2770">
          <path
             inkscape:connector-curvature="0"
             style="stroke:none;stroke-width:0"
             d="m 5.1875,-1.578125 c 0.109375,0 0.28125,0 0.28125,-0.15625 0,-0.1875 -0.171875,-0.1875 -0.28125,-0.1875 H 1.03125 c -0.109375,0 -0.28125,0 -0.28125,0.171875 0,0.171875 0.15625,0.171875 0.28125,0.171875 z m 0,0"
             transform="translate(170.516,130.032)"
             id="path2768" />
        </g>
        <g
           style="fill:#000000;fill-opacity:1"
           id="g2774">
          <path
             inkscape:connector-curvature="0"
             style="stroke:none;stroke-width:0"
             d="M 1.890625,-2.65625 H 2.6875 l 0.09375,-0.4375 H 1.953125 l 0.1875,-0.828125 c 0.03125,-0.125 0.046875,-0.234375 0.25,-0.375 0.21875,-0.15625 0.453125,-0.15625 0.515625,-0.15625 0.1875,0 0.390625,0.046875 0.578125,0.125 L 3.59375,-4.84375 C 3.421875,-4.875 3.25,-4.90625 3.015625,-4.90625 c -0.734375,0 -1.34375,0.546875 -1.484375,1.171875 L 1.390625,-3.09375 h -0.53125 l -0.09375,0.4375 h 0.53125 L 0.734375,0 h 0.59375 z m 0,0"
             transform="translate(176.742,130.032)"
             id="path2772" />
        </g>
        <g
           style="fill:#000000;fill-opacity:1"
           id="g2778">
          <path
             inkscape:connector-curvature="0"
             style="stroke:none;stroke-width:0"
             d="m 2.125,-5.21875 c -0.125,0 -0.125,0 -0.21875,0.0625 -0.875,0.765625 -1.328125,2.015625 -1.328125,3.421875 0,1.3125 0.40625,2.578125 1.328125,3.390625 C 2,1.734375 2,1.734375 2.125,1.734375 H 2.453125 C 2.4375,1.734375 1.765625,1.15625 1.4375,0.0625 c -0.15625,-0.546875 -0.25,-1.109375 -0.25,-1.796875 0,-2.421875 1.140625,-3.375 1.265625,-3.484375 z m 0,0"
             transform="translate(180.55,130.032)"
             id="path2776" />
        </g>
        <g
           style="fill:#000000;fill-opacity:1"
           id="g2782">
          <path
             inkscape:connector-curvature="0"
             style="stroke:none;stroke-width:0"
             d="m 2.265625,-1.59375 1.671875,-1.5 H 3.328125 L 2.09375,-1.953125 1.328125,-3.09375 h -0.625 l 1.0625,1.5 L 0,0 H 0.625 L 1.953125,-1.3125 2.78125,0 h 0.625 z m 0,0"
             transform="translate(183.432,130.032)"
             id="path2780" />
        </g>
        <g
           style="fill:#000000;fill-opacity:1"
           id="g2786">
          <path
             inkscape:connector-curvature="0"
             style="stroke:none;stroke-width:0"
             d="m 0.75,1.734375 c 0.109375,0 0.125,0 0.21875,-0.0625 0.875,-0.765625 1.3125,-2.015625 1.3125,-3.40625 0,-1.328125 -0.390625,-2.59375 -1.3125,-3.40625 C 0.875,-5.21875 0.859375,-5.21875 0.75,-5.21875 H 0.40625 c 0.03125,0 0.703125,0.578125 1.015625,1.671875 0.171875,0.546875 0.25,1.109375 0.25,1.8125 0,2.40625 -1.125,3.359375 -1.265625,3.46875 z m 0,0"
             transform="translate(187.485,130.032)"
             id="path2784" />
        </g>
        <path
           inkscape:connector-curvature="0"
           style="fill:none;stroke:#000000;stroke-width:0.398;stroke-linecap:butt;stroke-linejoin:miter;stroke-miterlimit:10;stroke-opacity:1"
           d="M -0.00175,-0.001 H 40.459187"
           transform="matrix(1,0,0,-1,149.908,132.374)"
           id="path2788" />
        <g
           style="fill:#000000;fill-opacity:1"
           id="g2792">
          <path
             inkscape:connector-curvature="0"
             style="stroke:none;stroke-width:0"
             d="m 3.6875,-2.078125 c 0.03125,-0.125 0.046875,-0.203125 0.046875,-0.375 0,-0.59375 -0.453125,-0.703125 -0.84375,-0.703125 -0.484375,0 -0.875,0.21875 -1.15625,0.484375 L 2.1875,-4.84375 H 1.609375 L 0.578125,0 H 1.1875 L 1.484375,-1.453125 C 1.59375,-1.875 1.625,-2.09375 1.859375,-2.375 2.03125,-2.59375 2.25,-2.703125 2.5,-2.703125 c 0.34375,0 0.59375,0.125 0.59375,0.453125 0,0.109375 0,0.125 -0.015625,0.171875 L 2.640625,0 h 0.59375 z m 0,0"
             transform="translate(168.166,138.3)"
             id="path2790" />
        </g>
      </g>
    </g>
    <g
       id="g2978"
       ns1:jacobian_sqrt="2.018456"
       ns1:alignment="middle center"
       ns1:scale="5.72160801272"
       ns1:preamble="/home/francois/Documents/Mypapers/InkscapeHeader/header.inc"
       ns1:text="$f(x)$"
       ns1:pdfconverter="pdf2svg"
       ns1:texconverter="pdflatex"
       ns1:version="0.11.0"
       transform="matrix(1.6147648,0,0,1.6147648,-1001.1041,-336.4609)">
      <g
         id="g2976">
        <g
           id="g2962"
           style="fill:#000000;fill-opacity:1">
          <path
             id="path2960"
             transform="translate(148.712,134.765)"
             d="m 2.578125,-3.84375 h 1.09375 L 3.78125,-4.421875 h -1.125 L 2.921875,-5.65625 c 0.09375,-0.5 0.59375,-0.765625 1.09375,-0.765625 0.125,0 0.4375,0.015625 0.765625,0.171875 l 0.140625,-0.671875 c -0.25,-0.0625 -0.515625,-0.109375 -0.765625,-0.109375 -0.984375,0 -1.8125,0.765625 -2,1.65625 L 1.9375,-4.421875 H 1.203125 L 1.09375,-3.84375 H 1.828125 L 1,0 h 0.75 z m 0,0"
             style="stroke:none;stroke-width:0"
             inkscape:connector-curvature="0" />
        </g>
        <g
           id="g2966"
           style="fill:#000000;fill-opacity:1">
          <path
             id="path2964"
             transform="translate(153.919,134.765)"
             d="M 2.703125,-7.484375 C 2.375,-7.171875 1.71875,-6.5625 1.25,-5.34375 0.859375,-4.28125 0.78125,-3.21875 0.78125,-2.5 c 0,3.234375 1.4375,4.546875 1.921875,5 H 3.3125 c -0.484375,-0.484375 -1.75,-1.765625 -1.75,-5 0,-0.546875 0.03125,-1.71875 0.4375,-2.890625 0.40625,-1.15625 0.984375,-1.75 1.3125,-2.09375 z m 0,0"
             style="stroke:none;stroke-width:0"
             inkscape:connector-curvature="0" />
        </g>
        <g
           id="g2970"
           style="fill:#000000;fill-opacity:1">
          <path
             id="path2968"
             transform="translate(157.793,134.765)"
             d="m 3.078125,-2.28125 2.28125,-2.140625 H 4.53125 L 2.859375,-2.78125 1.828125,-4.421875 H 1 L 2.421875,-2.28125 0,0 H 0.8125 L 2.65625,-1.875 3.765625,0 h 0.8125 z m 0,0"
             style="stroke:none;stroke-width:0"
             inkscape:connector-curvature="0" />
        </g>
        <g
           id="g2974"
           style="fill:#000000;fill-opacity:1">
          <path
             id="path2972"
             transform="translate(163.301,134.765)"
             d="m 1.171875,2.5 c 0.3125,-0.3125 0.984375,-0.921875 1.4375,-2.140625 0.40625,-1.0625 0.46875,-2.125 0.46875,-2.859375 0,-3.21875 -1.4375,-4.53125 -1.90625,-4.984375 H 0.5625 C 1.03125,-7 2.296875,-5.71875 2.296875,-2.5 c 0,0.5625 -0.03125,1.734375 -0.4375,2.90625 C 1.453125,1.5625 0.890625,2.15625 0.5625,2.5 Z m 0,0"
             style="stroke:none;stroke-width:0"
             inkscape:connector-curvature="0" />
        </g>
      </g>
    </g>
    <path
       style="fill:none;stroke:#000000;stroke-width:2;stroke-linecap:butt;stroke-linejoin:miter;stroke-miterlimit:4;stroke-dasharray:none;stroke-opacity:1;marker-end:url(#marker6597)"
       d="m -719.66666,-50.279317 c 0,-243.416663 0,-243.416663 0,-243.416663"
       id="path6453"
       inkscape:connector-curvature="0" />
    <path
       inkscape:connector-curvature="0"
       id="path6455"
       d="m -751.41666,-73.416667 c 243.41666,0 243.41666,0 243.41666,0"
       style="fill:none;stroke:#000000;stroke-width:2;stroke-linecap:butt;stroke-linejoin:miter;stroke-miterlimit:4;stroke-dasharray:none;stroke-opacity:1;marker-end:url(#marker1125)" />
    <path
       style="fill:none;stroke:#0000ff;stroke-width:1.2702899;stroke-linecap:butt;stroke-linejoin:miter;stroke-miterlimit:4;stroke-dasharray:none;stroke-opacity:1"
       d="m -740.83333,-91.67023 c 0,0 34.39583,-12.80824 47.625,-34.15531 9.35443,-15.09465 18.99902,-35.74316 26.26934,-64.95606 7.27033,-29.2129 20.31678,-35.83974 34.20685,-3.6595 13.89007,32.18023 30.99404,66.09096 54.05059,59.16186 23.05655,-6.9291 38.93155,-22.8041 54.80655,-70.4291"
       id="path6457"
       inkscape:connector-curvature="0"
       sodipodi:nodetypes="cszzzc" />
    <g
       transform="matrix(1.6147648,0,0,1.6147648,-938.6349,-275.15545)"
       ns1:version="0.11.0"
       ns1:texconverter="pdflatex"
       ns1:pdfconverter="pdf2svg"
       ns1:text="$x$"
       ns1:preamble="/home/francois/Documents/Mypapers/InkscapeHeader/header.inc"
       ns1:scale="7.1520100159"
       ns1:alignment="middle center"
       ns1:jacobian_sqrt="2.52307"
       id="g6465">
      <g
         id="g6463">
        <g
           style="fill:#000000;fill-opacity:1"
           id="g6461">
          <path
             inkscape:connector-curvature="0"
             transform="translate(148.712,134.765)"
             style="stroke:none;stroke-width:0"
             d="m 3.078125,-2.28125 2.28125,-2.140625 H 4.53125 L 2.859375,-2.78125 1.828125,-4.421875 H 1 L 2.421875,-2.28125 0,0 H 0.8125 L 2.65625,-1.875 3.765625,0 h 0.8125 z m 0,0"
             id="path6459" />
        </g>
      </g>
    </g>
    <path
       sodipodi:nodetypes="ccc"
       inkscape:connector-curvature="0"
       id="path6467"
       d="m -695.75966,-77.054696 v 7.559524 0"
       style="fill:none;stroke:#000000;stroke-width:0.74000001;stroke-linecap:butt;stroke-linejoin:miter;stroke-miterlimit:4;stroke-dasharray:none;stroke-opacity:1" />
    <path
       inkscape:connector-curvature="0"
       id="path6469"
       d="m -695.85417,-76.062508 v -47.625002 h -23.81249"
       style="fill:none;stroke:#000000;stroke-width:0.54716396;stroke-linecap:butt;stroke-linejoin:miter;stroke-miterlimit:4;stroke-dasharray:1.09432791, 1.09432791;stroke-dashoffset:0;stroke-opacity:1" />
    <path
       style="fill:none;stroke:#000000;stroke-width:0.74000001;stroke-linecap:butt;stroke-linejoin:miter;stroke-miterlimit:4;stroke-dasharray:none;stroke-opacity:1"
       d="m -616.47917,-75.684532 v 7.559524 0"
       id="path6471"
       inkscape:connector-curvature="0"
       sodipodi:nodetypes="ccc" />
    <path
       style="fill:none;stroke:#000000;stroke-width:0.64059561;stroke-linecap:butt;stroke-linejoin:miter;stroke-miterlimit:4;stroke-dasharray:1.28119124, 1.28119124;stroke-dashoffset:0;stroke-opacity:1"
       d="M -616.47917,-76.062508 V -162.05209 H -719.66666"
       id="path6473"
       inkscape:connector-curvature="0" />
    <g
       id="g6489"
       ns1:jacobian_sqrt="2.018456"
       ns1:alignment="middle center"
       ns1:scale="5.72160801272"
       ns1:preamble="/home/francois/Documents/Mypapers/InkscapeHeader/header.inc"
       ns1:text="$x\\!+\\!h$"
       ns1:pdfconverter="pdf2svg"
       ns1:texconverter="pdflatex"
       ns1:version="0.11.0"
       transform="matrix(1.6147648,0,0,1.6147648,-872.98637,-273.46161)">
      <g
         id="g6487">
        <g
           id="g6477"
           style="fill:#000000;fill-opacity:1">
          <path
             id="path6475"
             transform="translate(148.712,134.765)"
             d="m 3.078125,-2.28125 2.28125,-2.140625 H 4.53125 L 2.859375,-2.78125 1.828125,-4.421875 H 1 L 2.421875,-2.28125 0,0 H 0.8125 L 2.65625,-1.875 3.765625,0 h 0.8125 z m 0,0"
             style="stroke:none;stroke-width:0"
             inkscape:connector-curvature="0" />
        </g>
        <g
           id="g6481"
           style="fill:#000000;fill-opacity:1">
          <path
             id="path6479"
             transform="translate(154.773,134.765)"
             d="m 4.078125,-2.296875 h 2.78125 C 7,-2.296875 7.1875,-2.296875 7.1875,-2.5 7.1875,-2.6875 7,-2.6875 6.859375,-2.6875 h -2.78125 v -2.796875 c 0,-0.140625 0,-0.328125 -0.203125,-0.328125 -0.203125,0 -0.203125,0.1875 -0.203125,0.328125 V -2.6875 h -2.78125 c -0.140625,0 -0.328125,0 -0.328125,0.1875 0,0.203125 0.1875,0.203125 0.328125,0.203125 h 2.78125 V 0.5 c 0,0.140625 0,0.328125 0.203125,0.328125 0.203125,0 0.203125,-0.1875 0.203125,-0.328125 z m 0,0"
             style="stroke:none;stroke-width:0"
             inkscape:connector-curvature="0" />
        </g>
        <g
           id="g6485"
           style="fill:#000000;fill-opacity:1">
          <path
             id="path6483"
             transform="translate(163.075,134.765)"
             d="m 4.96875,-3.03125 c 0.0625,-0.28125 0.0625,-0.359375 0.0625,-0.5 0,-0.609375 -0.296875,-1 -1.09375,-1 -0.75,0 -1.3125,0.4375 -1.5625,0.71875 L 3.015625,-6.921875 H 2.28125 L 0.8125,0 H 1.578125 L 2.0625,-2.265625 c 0.234375,-1.09375 0.703125,-1.65625 1.359375,-1.65625 0.46875,0 0.8125,0.15625 0.8125,0.65625 0,0.03125 -0.03125,0.1875 -0.03125,0.203125 L 3.5625,0 h 0.78125 z m 0,0"
             style="stroke:none;stroke-width:0"
             inkscape:connector-curvature="0" />
        </g>
      </g>
    </g>
    <g
       transform="matrix(1.6147648,0,0,1.6147648,-1021.9316,-377.27987)"
       ns1:version="0.11.0"
       ns1:texconverter="pdflatex"
       ns1:pdfconverter="pdf2svg"
       ns1:text="$f(x\\!+\\!h)$"
       ns1:preamble="/home/francois/Documents/Mypapers/InkscapeHeader/header.inc"
       ns1:scale="5.72160801272"
       ns1:alignment="middle center"
       ns1:jacobian_sqrt="2.018456"
       id="g6517">
      <g
         id="g6515">
        <g
           style="fill:#000000;fill-opacity:1"
           id="g6493">
          <path
             style="stroke:none;stroke-width:0"
             d="m 2.578125,-3.84375 h 1.09375 L 3.78125,-4.421875 h -1.125 L 2.921875,-5.65625 c 0.09375,-0.5 0.59375,-0.765625 1.09375,-0.765625 0.125,0 0.4375,0.015625 0.765625,0.171875 l 0.140625,-0.671875 c -0.25,-0.0625 -0.515625,-0.109375 -0.765625,-0.109375 -0.984375,0 -1.8125,0.765625 -2,1.65625 L 1.9375,-4.421875 H 1.203125 L 1.09375,-3.84375 H 1.828125 L 1,0 h 0.75 z m 0,0"
             transform="translate(148.712,134.765)"
             id="path6491"
             inkscape:connector-curvature="0" />
        </g>
        <g
           style="fill:#000000;fill-opacity:1"
           id="g6497">
          <path
             style="stroke:none;stroke-width:0"
             d="M 2.703125,-7.484375 C 2.375,-7.171875 1.71875,-6.5625 1.25,-5.34375 0.859375,-4.28125 0.78125,-3.21875 0.78125,-2.5 c 0,3.234375 1.4375,4.546875 1.921875,5 H 3.3125 c -0.484375,-0.484375 -1.75,-1.765625 -1.75,-5 0,-0.546875 0.03125,-1.71875 0.4375,-2.890625 0.40625,-1.15625 0.984375,-1.75 1.3125,-2.09375 z m 0,0"
             transform="translate(153.919,134.765)"
             id="path6495"
             inkscape:connector-curvature="0" />
        </g>
        <g
           style="fill:#000000;fill-opacity:1"
           id="g6501">
          <path
             style="stroke:none;stroke-width:0"
             d="m 3.078125,-2.28125 2.28125,-2.140625 H 4.53125 L 2.859375,-2.78125 1.828125,-4.421875 H 1 L 2.421875,-2.28125 0,0 H 0.8125 L 2.65625,-1.875 3.765625,0 h 0.8125 z m 0,0"
             transform="translate(157.793,134.765)"
             id="path6499"
             inkscape:connector-curvature="0" />
        </g>
        <g
           style="fill:#000000;fill-opacity:1"
           id="g6505">
          <path
             style="stroke:none;stroke-width:0"
             d="m 4.078125,-2.296875 h 2.78125 C 7,-2.296875 7.1875,-2.296875 7.1875,-2.5 7.1875,-2.6875 7,-2.6875 6.859375,-2.6875 h -2.78125 v -2.796875 c 0,-0.140625 0,-0.328125 -0.203125,-0.328125 -0.203125,0 -0.203125,0.1875 -0.203125,0.328125 V -2.6875 h -2.78125 c -0.140625,0 -0.328125,0 -0.328125,0.1875 0,0.203125 0.1875,0.203125 0.328125,0.203125 h 2.78125 V 0.5 c 0,0.140625 0,0.328125 0.203125,0.328125 0.203125,0 0.203125,-0.1875 0.203125,-0.328125 z m 0,0"
             transform="translate(163.854,134.765)"
             id="path6503"
             inkscape:connector-curvature="0" />
        </g>
        <g
           style="fill:#000000;fill-opacity:1"
           id="g6509">
          <path
             style="stroke:none;stroke-width:0"
             d="m 4.96875,-3.03125 c 0.0625,-0.28125 0.0625,-0.359375 0.0625,-0.5 0,-0.609375 -0.296875,-1 -1.09375,-1 -0.75,0 -1.3125,0.4375 -1.5625,0.71875 L 3.015625,-6.921875 H 2.28125 L 0.8125,0 H 1.578125 L 2.0625,-2.265625 c 0.234375,-1.09375 0.703125,-1.65625 1.359375,-1.65625 0.46875,0 0.8125,0.15625 0.8125,0.65625 0,0.03125 -0.03125,0.1875 -0.03125,0.203125 L 3.5625,0 h 0.78125 z m 0,0"
             transform="translate(172.156,134.765)"
             id="path6507"
             inkscape:connector-curvature="0" />
        </g>
        <g
           style="fill:#000000;fill-opacity:1"
           id="g6513">
          <path
             style="stroke:none;stroke-width:0"
             d="m 1.171875,2.5 c 0.3125,-0.3125 0.984375,-0.921875 1.4375,-2.140625 0.40625,-1.0625 0.46875,-2.125 0.46875,-2.859375 0,-3.21875 -1.4375,-4.53125 -1.90625,-4.984375 H 0.5625 C 1.03125,-7 2.296875,-5.71875 2.296875,-2.5 c 0,0.5625 -0.03125,1.734375 -0.4375,2.90625 C 1.453125,1.5625 0.890625,2.15625 0.5625,2.5 Z m 0,0"
             transform="translate(177.481,134.765)"
             id="path6511"
             inkscape:connector-curvature="0" />
        </g>
      </g>
    </g>
    <path
       inkscape:transform-center-y="-26.865101"
       inkscape:transform-center-x="-56.212024"
       inkscape:connector-curvature="0"
       id="path6519"
       d="m -735.18756,-103.12359 190.14589,-93.53514"
       style="fill:none;stroke:#d30000;stroke-width:1.54900002;stroke-linecap:butt;stroke-linejoin:miter;stroke-miterlimit:4;stroke-dasharray:none;stroke-opacity:1" />
    <g
       id="g6573"
       ns1:jacobian_sqrt="2.018456"
       ns1:alignment="middle center"
       ns1:scale="5.72160801272"
       ns1:preamble="/home/francois/Documents/Mypapers/InkscapeHeader/header.inc"
       ns1:text="$\\frac{f(x\\!+\\!h) - f(x)}{h}$"
       ns1:pdfconverter="pdf2svg"
       ns1:texconverter="pdflatex"
       ns1:version="0.11.0"
       transform="matrix(2.018456,0,0,2.018456,-918.15743,-501.76942)">
      <g
         id="g6571">
        <g
           id="g6523"
           style="fill:#000000;fill-opacity:1">
          <path
             id="path6521"
             transform="translate(149.908,130.032)"
             d="M 1.890625,-2.65625 H 2.6875 l 0.09375,-0.4375 H 1.953125 l 0.1875,-0.828125 c 0.03125,-0.125 0.046875,-0.234375 0.25,-0.375 0.21875,-0.15625 0.453125,-0.15625 0.515625,-0.15625 0.1875,0 0.390625,0.046875 0.578125,0.125 L 3.59375,-4.84375 C 3.421875,-4.875 3.25,-4.90625 3.015625,-4.90625 c -0.734375,0 -1.34375,0.546875 -1.484375,1.171875 L 1.390625,-3.09375 h -0.53125 l -0.09375,0.4375 h 0.53125 L 0.734375,0 h 0.59375 z m 0,0"
             style="stroke:none;stroke-width:0"
             inkscape:connector-curvature="0" />
        </g>
        <g
           id="g6527"
           style="fill:#000000;fill-opacity:1">
          <path
             id="path6525"
             transform="translate(153.716,130.032)"
             d="m 2.125,-5.21875 c -0.125,0 -0.125,0 -0.21875,0.0625 -0.875,0.765625 -1.328125,2.015625 -1.328125,3.421875 0,1.3125 0.40625,2.578125 1.328125,3.390625 C 2,1.734375 2,1.734375 2.125,1.734375 H 2.453125 C 2.4375,1.734375 1.765625,1.15625 1.4375,0.0625 c -0.15625,-0.546875 -0.25,-1.109375 -0.25,-1.796875 0,-2.421875 1.140625,-3.375 1.265625,-3.484375 z m 0,0"
             style="stroke:none;stroke-width:0"
             inkscape:connector-curvature="0" />
        </g>
        <g
           id="g6531"
           style="fill:#000000;fill-opacity:1">
          <path
             id="path6529"
             transform="translate(156.597,130.032)"
             d="m 2.265625,-1.59375 1.671875,-1.5 H 3.328125 L 2.09375,-1.953125 1.328125,-3.09375 h -0.625 l 1.0625,1.5 L 0,0 H 0.625 L 1.953125,-1.3125 2.78125,0 h 0.625 z m 0,0"
             style="stroke:none;stroke-width:0"
             inkscape:connector-curvature="0" />
        </g>
        <g
           id="g6535"
           style="fill:#000000;fill-opacity:1">
          <path
             id="path6533"
             transform="translate(159.289,130.032)"
             d="m 3.03125,-1.578125 h 2.0625 c 0.09375,0 0.25,0 0.25,-0.15625 0,-0.171875 -0.15625,-0.171875 -0.25,-0.171875 h -2.0625 v -2.046875 c 0,-0.109375 0,-0.25 -0.15625,-0.25 -0.15625,0 -0.15625,0.140625 -0.15625,0.25 v 2.046875 h -2.0625 c -0.09375,0 -0.25,0 -0.25,0.171875 0,0.15625 0.15625,0.15625 0.25,0.15625 h 2.0625 V 0.46875 c 0,0.109375 0,0.25 0.15625,0.25 0.15625,0 0.15625,-0.140625 0.15625,-0.25 z m 0,0"
             style="stroke:none;stroke-width:0"
             inkscape:connector-curvature="0" />
        </g>
        <g
           id="g6539"
           style="fill:#000000;fill-opacity:1">
          <path
             id="path6537"
             transform="translate(163.692,130.032)"
             d="m 3.6875,-2.078125 c 0.03125,-0.125 0.046875,-0.203125 0.046875,-0.375 0,-0.59375 -0.453125,-0.703125 -0.84375,-0.703125 -0.484375,0 -0.875,0.21875 -1.15625,0.484375 L 2.1875,-4.84375 H 1.609375 L 0.578125,0 H 1.1875 L 1.484375,-1.453125 C 1.59375,-1.875 1.625,-2.09375 1.859375,-2.375 2.03125,-2.59375 2.25,-2.703125 2.5,-2.703125 c 0.34375,0 0.59375,0.125 0.59375,0.453125 0,0.109375 0,0.125 -0.015625,0.171875 L 2.640625,0 h 0.59375 z m 0,0"
             style="stroke:none;stroke-width:0"
             inkscape:connector-curvature="0" />
        </g>
        <g
           id="g6543"
           style="fill:#000000;fill-opacity:1">
          <path
             id="path6541"
             transform="translate(167.634,130.032)"
             d="m 0.75,1.734375 c 0.109375,0 0.125,0 0.21875,-0.0625 0.875,-0.765625 1.3125,-2.015625 1.3125,-3.40625 0,-1.328125 -0.390625,-2.59375 -1.3125,-3.40625 C 0.875,-5.21875 0.859375,-5.21875 0.75,-5.21875 H 0.40625 c 0.03125,0 0.703125,0.578125 1.015625,1.671875 0.171875,0.546875 0.25,1.109375 0.25,1.8125 0,2.40625 -1.125,3.359375 -1.265625,3.46875 z m 0,0"
             style="stroke:none;stroke-width:0"
             inkscape:connector-curvature="0" />
        </g>
        <g
           id="g6547"
           style="fill:#000000;fill-opacity:1">
          <path
             id="path6545"
             transform="translate(170.516,130.032)"
             d="m 5.1875,-1.578125 c 0.109375,0 0.28125,0 0.28125,-0.15625 0,-0.1875 -0.171875,-0.1875 -0.28125,-0.1875 H 1.03125 c -0.109375,0 -0.28125,0 -0.28125,0.171875 0,0.171875 0.15625,0.171875 0.28125,0.171875 z m 0,0"
             style="stroke:none;stroke-width:0"
             inkscape:connector-curvature="0" />
        </g>
        <g
           id="g6551"
           style="fill:#000000;fill-opacity:1">
          <path
             id="path6549"
             transform="translate(176.742,130.032)"
             d="M 1.890625,-2.65625 H 2.6875 l 0.09375,-0.4375 H 1.953125 l 0.1875,-0.828125 c 0.03125,-0.125 0.046875,-0.234375 0.25,-0.375 0.21875,-0.15625 0.453125,-0.15625 0.515625,-0.15625 0.1875,0 0.390625,0.046875 0.578125,0.125 L 3.59375,-4.84375 C 3.421875,-4.875 3.25,-4.90625 3.015625,-4.90625 c -0.734375,0 -1.34375,0.546875 -1.484375,1.171875 L 1.390625,-3.09375 h -0.53125 l -0.09375,0.4375 h 0.53125 L 0.734375,0 h 0.59375 z m 0,0"
             style="stroke:none;stroke-width:0"
             inkscape:connector-curvature="0" />
        </g>
        <g
           id="g6555"
           style="fill:#000000;fill-opacity:1">
          <path
             id="path6553"
             transform="translate(180.55,130.032)"
             d="m 2.125,-5.21875 c -0.125,0 -0.125,0 -0.21875,0.0625 -0.875,0.765625 -1.328125,2.015625 -1.328125,3.421875 0,1.3125 0.40625,2.578125 1.328125,3.390625 C 2,1.734375 2,1.734375 2.125,1.734375 H 2.453125 C 2.4375,1.734375 1.765625,1.15625 1.4375,0.0625 c -0.15625,-0.546875 -0.25,-1.109375 -0.25,-1.796875 0,-2.421875 1.140625,-3.375 1.265625,-3.484375 z m 0,0"
             style="stroke:none;stroke-width:0"
             inkscape:connector-curvature="0" />
        </g>
        <g
           id="g6559"
           style="fill:#000000;fill-opacity:1">
          <path
             id="path6557"
             transform="translate(183.432,130.032)"
             d="m 2.265625,-1.59375 1.671875,-1.5 H 3.328125 L 2.09375,-1.953125 1.328125,-3.09375 h -0.625 l 1.0625,1.5 L 0,0 H 0.625 L 1.953125,-1.3125 2.78125,0 h 0.625 z m 0,0"
             style="stroke:none;stroke-width:0"
             inkscape:connector-curvature="0" />
        </g>
        <g
           id="g6563"
           style="fill:#000000;fill-opacity:1">
          <path
             id="path6561"
             transform="translate(187.485,130.032)"
             d="m 0.75,1.734375 c 0.109375,0 0.125,0 0.21875,-0.0625 0.875,-0.765625 1.3125,-2.015625 1.3125,-3.40625 0,-1.328125 -0.390625,-2.59375 -1.3125,-3.40625 C 0.875,-5.21875 0.859375,-5.21875 0.75,-5.21875 H 0.40625 c 0.03125,0 0.703125,0.578125 1.015625,1.671875 0.171875,0.546875 0.25,1.109375 0.25,1.8125 0,2.40625 -1.125,3.359375 -1.265625,3.46875 z m 0,0"
             style="stroke:none;stroke-width:0"
             inkscape:connector-curvature="0" />
        </g>
        <path
           id="path6565"
           transform="matrix(1,0,0,-1,149.908,132.374)"
           d="M -0.00175,-0.001 H 40.459187"
           style="fill:none;stroke:#000000;stroke-width:0.398;stroke-linecap:butt;stroke-linejoin:miter;stroke-miterlimit:10;stroke-opacity:1"
           inkscape:connector-curvature="0" />
        <g
           id="g6569"
           style="fill:#000000;fill-opacity:1">
          <path
             id="path6567"
             transform="translate(168.166,138.3)"
             d="m 3.6875,-2.078125 c 0.03125,-0.125 0.046875,-0.203125 0.046875,-0.375 0,-0.59375 -0.453125,-0.703125 -0.84375,-0.703125 -0.484375,0 -0.875,0.21875 -1.15625,0.484375 L 2.1875,-4.84375 H 1.609375 L 0.578125,0 H 1.1875 L 1.484375,-1.453125 C 1.59375,-1.875 1.625,-2.09375 1.859375,-2.375 2.03125,-2.59375 2.25,-2.703125 2.5,-2.703125 c 0.34375,0 0.59375,0.125 0.59375,0.453125 0,0.109375 0,0.125 -0.015625,0.171875 L 2.640625,0 h 0.59375 z m 0,0"
             style="stroke:none;stroke-width:0"
             inkscape:connector-curvature="0" />
        </g>
      </g>
    </g>
    <g
       transform="matrix(1.6147648,0,0,1.6147648,-1001.1041,-336.4609)"
       ns1:version="0.11.0"
       ns1:texconverter="pdflatex"
       ns1:pdfconverter="pdf2svg"
       ns1:text="$f(x)$"
       ns1:preamble="/home/francois/Documents/Mypapers/InkscapeHeader/header.inc"
       ns1:scale="5.72160801272"
       ns1:alignment="middle center"
       ns1:jacobian_sqrt="2.018456"
       id="g6593">
      <g
         id="g6591">
        <g
           style="fill:#000000;fill-opacity:1"
           id="g6577">
          <path
             inkscape:connector-curvature="0"
             style="stroke:none;stroke-width:0"
             d="m 2.578125,-3.84375 h 1.09375 L 3.78125,-4.421875 h -1.125 L 2.921875,-5.65625 c 0.09375,-0.5 0.59375,-0.765625 1.09375,-0.765625 0.125,0 0.4375,0.015625 0.765625,0.171875 l 0.140625,-0.671875 c -0.25,-0.0625 -0.515625,-0.109375 -0.765625,-0.109375 -0.984375,0 -1.8125,0.765625 -2,1.65625 L 1.9375,-4.421875 H 1.203125 L 1.09375,-3.84375 H 1.828125 L 1,0 h 0.75 z m 0,0"
             transform="translate(148.712,134.765)"
             id="path6575" />
        </g>
        <g
           style="fill:#000000;fill-opacity:1"
           id="g6581">
          <path
             inkscape:connector-curvature="0"
             style="stroke:none;stroke-width:0"
             d="M 2.703125,-7.484375 C 2.375,-7.171875 1.71875,-6.5625 1.25,-5.34375 0.859375,-4.28125 0.78125,-3.21875 0.78125,-2.5 c 0,3.234375 1.4375,4.546875 1.921875,5 H 3.3125 c -0.484375,-0.484375 -1.75,-1.765625 -1.75,-5 0,-0.546875 0.03125,-1.71875 0.4375,-2.890625 0.40625,-1.15625 0.984375,-1.75 1.3125,-2.09375 z m 0,0"
             transform="translate(153.919,134.765)"
             id="path6579" />
        </g>
        <g
           style="fill:#000000;fill-opacity:1"
           id="g6585">
          <path
             inkscape:connector-curvature="0"
             style="stroke:none;stroke-width:0"
             d="m 3.078125,-2.28125 2.28125,-2.140625 H 4.53125 L 2.859375,-2.78125 1.828125,-4.421875 H 1 L 2.421875,-2.28125 0,0 H 0.8125 L 2.65625,-1.875 3.765625,0 h 0.8125 z m 0,0"
             transform="translate(157.793,134.765)"
             id="path6583" />
        </g>
        <g
           style="fill:#000000;fill-opacity:1"
           id="g6589">
          <path
             inkscape:connector-curvature="0"
             style="stroke:none;stroke-width:0"
             d="m 1.171875,2.5 c 0.3125,-0.3125 0.984375,-0.921875 1.4375,-2.140625 0.40625,-1.0625 0.46875,-2.125 0.46875,-2.859375 0,-3.21875 -1.4375,-4.53125 -1.90625,-4.984375 H 0.5625 C 1.03125,-7 2.296875,-5.71875 2.296875,-2.5 c 0,0.5625 -0.03125,1.734375 -0.4375,2.90625 C 1.453125,1.5625 0.890625,2.15625 0.5625,2.5 Z m 0,0"
             transform="translate(163.301,134.765)"
             id="path6587" />
        </g>
      </g>
    </g>
    <path
       style="fill:none;stroke:#000000;stroke-width:2;stroke-linecap:butt;stroke-linejoin:miter;stroke-miterlimit:4;stroke-dasharray:none;stroke-opacity:1;marker-end:url(#marker7059)"
       d="m -418.04147,-50.279317 c 0,-243.416663 0,-243.416663 0,-243.416663"
       id="path6775"
       inkscape:connector-curvature="0" />
    <path
       inkscape:connector-curvature="0"
       id="path6777"
       d="m -449.79147,-73.416667 c 243.41666,0 243.41666,0 243.41666,0"
       style="fill:none;stroke:#000000;stroke-width:2;stroke-linecap:butt;stroke-linejoin:miter;stroke-miterlimit:4;stroke-dasharray:none;stroke-opacity:1;marker-end:url(#marker1125)" />
    <path
       style="fill:none;stroke:#0000ff;stroke-width:1.2702899;stroke-linecap:butt;stroke-linejoin:miter;stroke-miterlimit:4;stroke-dasharray:none;stroke-opacity:1"
       d="m -439.20814,-91.67023 c 0,0 34.39583,-12.80824 47.625,-34.15531 9.35443,-15.09465 18.99902,-35.74316 26.26934,-64.95606 7.27033,-29.2129 20.31678,-35.83974 34.20685,-3.6595 13.89007,32.18023 30.99404,66.09096 54.05059,59.16186 23.05655,-6.9291 38.93155,-22.8041 54.80655,-70.4291"
       id="path6779"
       inkscape:connector-curvature="0"
       sodipodi:nodetypes="cszzzc" />
    <g
       transform="matrix(1.6147648,0,0,1.6147648,-639.33452,-275.44052)"
       ns1:version="0.11.0"
       ns1:texconverter="pdflatex"
       ns1:pdfconverter="pdf2svg"
       ns1:text="$x$"
       ns1:preamble="/home/francois/Documents/Mypapers/InkscapeHeader/header.inc"
       ns1:scale="7.1520100159"
       ns1:alignment="middle center"
       ns1:jacobian_sqrt="2.52307"
       id="g6787">
      <g
         id="g6785">
        <g
           style="fill:#000000;fill-opacity:1"
           id="g6783">
          <path
             inkscape:connector-curvature="0"
             transform="translate(148.712,134.765)"
             style="stroke:none;stroke-width:0"
             d="m 3.078125,-2.28125 2.28125,-2.140625 H 4.53125 L 2.859375,-2.78125 1.828125,-4.421875 H 1 L 2.421875,-2.28125 0,0 H 0.8125 L 2.65625,-1.875 3.765625,0 h 0.8125 z m 0,0"
             id="path6781" />
        </g>
      </g>
    </g>
    <path
       sodipodi:nodetypes="ccc"
       inkscape:connector-curvature="0"
       id="path6789"
       d="m -394.13447,-77.054696 v 7.559524 0"
       style="fill:none;stroke:#000000;stroke-width:0.74000001;stroke-linecap:butt;stroke-linejoin:miter;stroke-miterlimit:4;stroke-dasharray:none;stroke-opacity:1" />
    <path
       inkscape:connector-curvature="0"
       id="path6791"
       d="m -394.22898,-76.062508 v -47.625002 h -23.81249"
       style="fill:none;stroke:#000000;stroke-width:0.54716396;stroke-linecap:butt;stroke-linejoin:miter;stroke-miterlimit:4;stroke-dasharray:1.09432791, 1.09432791;stroke-dashoffset:0;stroke-opacity:1" />
    <g
       transform="matrix(1.6147648,0,0,1.6147648,-720.30629,-377.27987)"
       ns1:version="0.11.0"
       ns1:texconverter="pdflatex"
       ns1:pdfconverter="pdf2svg"
       ns1:text="$f(x\\!+\\!h)$"
       ns1:preamble="/home/francois/Documents/Mypapers/InkscapeHeader/header.inc"
       ns1:scale="5.72160801272"
       ns1:alignment="middle center"
       ns1:jacobian_sqrt="2.018456"
       id="g6839">
      <g
         id="g6837">
        <g
           style="fill:#000000;fill-opacity:1"
           id="g6815">
          <path
             style="stroke:none;stroke-width:0"
             d="m 2.578125,-3.84375 h 1.09375 L 3.78125,-4.421875 h -1.125 L 2.921875,-5.65625 c 0.09375,-0.5 0.59375,-0.765625 1.09375,-0.765625 0.125,0 0.4375,0.015625 0.765625,0.171875 l 0.140625,-0.671875 c -0.25,-0.0625 -0.515625,-0.109375 -0.765625,-0.109375 -0.984375,0 -1.8125,0.765625 -2,1.65625 L 1.9375,-4.421875 H 1.203125 L 1.09375,-3.84375 H 1.828125 L 1,0 h 0.75 z m 0,0"
             transform="translate(148.712,134.765)"
             id="path6813"
             inkscape:connector-curvature="0" />
        </g>
        <g
           style="fill:#000000;fill-opacity:1"
           id="g6819">
          <path
             style="stroke:none;stroke-width:0"
             d="M 2.703125,-7.484375 C 2.375,-7.171875 1.71875,-6.5625 1.25,-5.34375 0.859375,-4.28125 0.78125,-3.21875 0.78125,-2.5 c 0,3.234375 1.4375,4.546875 1.921875,5 H 3.3125 c -0.484375,-0.484375 -1.75,-1.765625 -1.75,-5 0,-0.546875 0.03125,-1.71875 0.4375,-2.890625 0.40625,-1.15625 0.984375,-1.75 1.3125,-2.09375 z m 0,0"
             transform="translate(153.919,134.765)"
             id="path6817"
             inkscape:connector-curvature="0" />
        </g>
        <g
           style="fill:#000000;fill-opacity:1"
           id="g6823">
          <path
             style="stroke:none;stroke-width:0"
             d="m 3.078125,-2.28125 2.28125,-2.140625 H 4.53125 L 2.859375,-2.78125 1.828125,-4.421875 H 1 L 2.421875,-2.28125 0,0 H 0.8125 L 2.65625,-1.875 3.765625,0 h 0.8125 z m 0,0"
             transform="translate(157.793,134.765)"
             id="path6821"
             inkscape:connector-curvature="0" />
        </g>
        <g
           style="fill:#000000;fill-opacity:1"
           id="g6827">
          <path
             style="stroke:none;stroke-width:0"
             d="m 4.078125,-2.296875 h 2.78125 C 7,-2.296875 7.1875,-2.296875 7.1875,-2.5 7.1875,-2.6875 7,-2.6875 6.859375,-2.6875 h -2.78125 v -2.796875 c 0,-0.140625 0,-0.328125 -0.203125,-0.328125 -0.203125,0 -0.203125,0.1875 -0.203125,0.328125 V -2.6875 h -2.78125 c -0.140625,0 -0.328125,0 -0.328125,0.1875 0,0.203125 0.1875,0.203125 0.328125,0.203125 h 2.78125 V 0.5 c 0,0.140625 0,0.328125 0.203125,0.328125 0.203125,0 0.203125,-0.1875 0.203125,-0.328125 z m 0,0"
             transform="translate(163.854,134.765)"
             id="path6825"
             inkscape:connector-curvature="0" />
        </g>
        <g
           style="fill:#000000;fill-opacity:1"
           id="g6831">
          <path
             style="stroke:none;stroke-width:0"
             d="m 4.96875,-3.03125 c 0.0625,-0.28125 0.0625,-0.359375 0.0625,-0.5 0,-0.609375 -0.296875,-1 -1.09375,-1 -0.75,0 -1.3125,0.4375 -1.5625,0.71875 L 3.015625,-6.921875 H 2.28125 L 0.8125,0 H 1.578125 L 2.0625,-2.265625 c 0.234375,-1.09375 0.703125,-1.65625 1.359375,-1.65625 0.46875,0 0.8125,0.15625 0.8125,0.65625 0,0.03125 -0.03125,0.1875 -0.03125,0.203125 L 3.5625,0 h 0.78125 z m 0,0"
             transform="translate(172.156,134.765)"
             id="path6829"
             inkscape:connector-curvature="0" />
        </g>
        <g
           style="fill:#000000;fill-opacity:1"
           id="g6835">
          <path
             style="stroke:none;stroke-width:0"
             d="m 1.171875,2.5 c 0.3125,-0.3125 0.984375,-0.921875 1.4375,-2.140625 0.40625,-1.0625 0.46875,-2.125 0.46875,-2.859375 0,-3.21875 -1.4375,-4.53125 -1.90625,-4.984375 H 0.5625 C 1.03125,-7 2.296875,-5.71875 2.296875,-2.5 c 0,0.5625 -0.03125,1.734375 -0.4375,2.90625 C 1.453125,1.5625 0.890625,2.15625 0.5625,2.5 Z m 0,0"
             transform="translate(177.481,134.765)"
             id="path6833"
             inkscape:connector-curvature="0" />
        </g>
      </g>
    </g>
    <g
       transform="matrix(1.6147648,0,0,1.6147648,-699.47891,-336.4609)"
       ns1:version="0.11.0"
       ns1:texconverter="pdflatex"
       ns1:pdfconverter="pdf2svg"
       ns1:text="$f(x)$"
       ns1:preamble="/home/francois/Documents/Mypapers/InkscapeHeader/header.inc"
       ns1:scale="5.72160801272"
       ns1:alignment="middle center"
       ns1:jacobian_sqrt="2.018456"
       id="g6913">
      <g
         id="g6911">
        <g
           style="fill:#000000;fill-opacity:1"
           id="g6897">
          <path
             inkscape:connector-curvature="0"
             style="stroke:none;stroke-width:0"
             d="m 2.578125,-3.84375 h 1.09375 L 3.78125,-4.421875 h -1.125 L 2.921875,-5.65625 c 0.09375,-0.5 0.59375,-0.765625 1.09375,-0.765625 0.125,0 0.4375,0.015625 0.765625,0.171875 l 0.140625,-0.671875 c -0.25,-0.0625 -0.515625,-0.109375 -0.765625,-0.109375 -0.984375,0 -1.8125,0.765625 -2,1.65625 L 1.9375,-4.421875 H 1.203125 L 1.09375,-3.84375 H 1.828125 L 1,0 h 0.75 z m 0,0"
             transform="translate(148.712,134.765)"
             id="path6895" />
        </g>
        <g
           style="fill:#000000;fill-opacity:1"
           id="g6901">
          <path
             inkscape:connector-curvature="0"
             style="stroke:none;stroke-width:0"
             d="M 2.703125,-7.484375 C 2.375,-7.171875 1.71875,-6.5625 1.25,-5.34375 0.859375,-4.28125 0.78125,-3.21875 0.78125,-2.5 c 0,3.234375 1.4375,4.546875 1.921875,5 H 3.3125 c -0.484375,-0.484375 -1.75,-1.765625 -1.75,-5 0,-0.546875 0.03125,-1.71875 0.4375,-2.890625 0.40625,-1.15625 0.984375,-1.75 1.3125,-2.09375 z m 0,0"
             transform="translate(153.919,134.765)"
             id="path6899" />
        </g>
        <g
           style="fill:#000000;fill-opacity:1"
           id="g6905">
          <path
             inkscape:connector-curvature="0"
             style="stroke:none;stroke-width:0"
             d="m 3.078125,-2.28125 2.28125,-2.140625 H 4.53125 L 2.859375,-2.78125 1.828125,-4.421875 H 1 L 2.421875,-2.28125 0,0 H 0.8125 L 2.65625,-1.875 3.765625,0 h 0.8125 z m 0,0"
             transform="translate(157.793,134.765)"
             id="path6903" />
        </g>
        <g
           style="fill:#000000;fill-opacity:1"
           id="g6909">
          <path
             inkscape:connector-curvature="0"
             style="stroke:none;stroke-width:0"
             d="m 1.171875,2.5 c 0.3125,-0.3125 0.984375,-0.921875 1.4375,-2.140625 0.40625,-1.0625 0.46875,-2.125 0.46875,-2.859375 0,-3.21875 -1.4375,-4.53125 -1.90625,-4.984375 H 0.5625 C 1.03125,-7 2.296875,-5.71875 2.296875,-2.5 c 0,0.5625 -0.03125,1.734375 -0.4375,2.90625 C 1.453125,1.5625 0.890625,2.15625 0.5625,2.5 Z m 0,0"
             transform="translate(163.301,134.765)"
             id="path6907" />
        </g>
      </g>
    </g>
    <path
       inkscape:connector-curvature="0"
       id="path6915"
       d="m -418.04147,-50.279317 c 0,-243.416663 0,-243.416663 0,-243.416663"
       style="fill:none;stroke:#000000;stroke-width:2;stroke-linecap:butt;stroke-linejoin:miter;stroke-miterlimit:4;stroke-dasharray:none;stroke-opacity:1;marker-end:url(#marker7861)" />
    <path
       style="fill:none;stroke:#000000;stroke-width:2;stroke-linecap:butt;stroke-linejoin:miter;stroke-miterlimit:4;stroke-dasharray:none;stroke-opacity:1;marker-end:url(#marker1125)"
       d="m -449.79147,-73.416667 c 243.41666,0 243.41666,0 243.41666,0"
       id="path6917"
       inkscape:connector-curvature="0" />
    <path
       sodipodi:nodetypes="cszzzc"
       inkscape:connector-curvature="0"
       id="path6919"
       d="m -439.20814,-91.67023 c 0,0 34.39583,-12.80824 47.625,-34.15531 9.35443,-15.09465 18.99902,-35.74316 26.26934,-64.95606 7.27033,-29.2129 20.31678,-35.83974 34.20685,-3.6595 13.89007,32.18023 30.99404,66.09096 54.05059,59.16186 23.05655,-6.9291 38.93155,-22.8041 54.80655,-70.4291"
       style="fill:none;stroke:#0000ff;stroke-width:1.2702899;stroke-linecap:butt;stroke-linejoin:miter;stroke-miterlimit:4;stroke-dasharray:none;stroke-opacity:1" />
    <path
       style="fill:none;stroke:#000000;stroke-width:0.74000001;stroke-linecap:butt;stroke-linejoin:miter;stroke-miterlimit:4;stroke-dasharray:none;stroke-opacity:1"
       d="m -394.13447,-77.054696 v 7.559524 0"
       id="path6929"
       inkscape:connector-curvature="0"
       sodipodi:nodetypes="ccc" />
    <path
       style="fill:none;stroke:#000000;stroke-width:0.54716396;stroke-linecap:butt;stroke-linejoin:miter;stroke-miterlimit:4;stroke-dasharray:1.09432791, 1.09432791;stroke-dashoffset:0;stroke-opacity:1"
       d="m -394.22898,-76.062508 v -47.625002 h -23.81249"
       id="path6931"
       inkscape:connector-curvature="0" />
    <g
       id="g6979"
       ns1:jacobian_sqrt="2.018456"
       ns1:alignment="middle center"
       ns1:scale="5.72160801272"
       ns1:preamble="/home/francois/Documents/Mypapers/InkscapeHeader/header.inc"
       ns1:text="$f(x\\!+\\!h)$"
       ns1:pdfconverter="pdf2svg"
       ns1:texconverter="pdflatex"
       ns1:version="0.11.0"
       transform="matrix(1.6147648,0,0,1.6147648,-720.30629,-377.27987)">
      <g
         id="g6977">
        <g
           id="g6955"
           style="fill:#000000;fill-opacity:1">
          <path
             inkscape:connector-curvature="0"
             id="path6953"
             transform="translate(148.712,134.765)"
             d="m 2.578125,-3.84375 h 1.09375 L 3.78125,-4.421875 h -1.125 L 2.921875,-5.65625 c 0.09375,-0.5 0.59375,-0.765625 1.09375,-0.765625 0.125,0 0.4375,0.015625 0.765625,0.171875 l 0.140625,-0.671875 c -0.25,-0.0625 -0.515625,-0.109375 -0.765625,-0.109375 -0.984375,0 -1.8125,0.765625 -2,1.65625 L 1.9375,-4.421875 H 1.203125 L 1.09375,-3.84375 H 1.828125 L 1,0 h 0.75 z m 0,0"
             style="stroke:none;stroke-width:0" />
        </g>
        <g
           id="g6959"
           style="fill:#000000;fill-opacity:1">
          <path
             inkscape:connector-curvature="0"
             id="path6957"
             transform="translate(153.919,134.765)"
             d="M 2.703125,-7.484375 C 2.375,-7.171875 1.71875,-6.5625 1.25,-5.34375 0.859375,-4.28125 0.78125,-3.21875 0.78125,-2.5 c 0,3.234375 1.4375,4.546875 1.921875,5 H 3.3125 c -0.484375,-0.484375 -1.75,-1.765625 -1.75,-5 0,-0.546875 0.03125,-1.71875 0.4375,-2.890625 0.40625,-1.15625 0.984375,-1.75 1.3125,-2.09375 z m 0,0"
             style="stroke:none;stroke-width:0" />
        </g>
        <g
           id="g6963"
           style="fill:#000000;fill-opacity:1">
          <path
             inkscape:connector-curvature="0"
             id="path6961"
             transform="translate(157.793,134.765)"
             d="m 3.078125,-2.28125 2.28125,-2.140625 H 4.53125 L 2.859375,-2.78125 1.828125,-4.421875 H 1 L 2.421875,-2.28125 0,0 H 0.8125 L 2.65625,-1.875 3.765625,0 h 0.8125 z m 0,0"
             style="stroke:none;stroke-width:0" />
        </g>
        <g
           id="g6967"
           style="fill:#000000;fill-opacity:1">
          <path
             inkscape:connector-curvature="0"
             id="path6965"
             transform="translate(163.854,134.765)"
             d="m 4.078125,-2.296875 h 2.78125 C 7,-2.296875 7.1875,-2.296875 7.1875,-2.5 7.1875,-2.6875 7,-2.6875 6.859375,-2.6875 h -2.78125 v -2.796875 c 0,-0.140625 0,-0.328125 -0.203125,-0.328125 -0.203125,0 -0.203125,0.1875 -0.203125,0.328125 V -2.6875 h -2.78125 c -0.140625,0 -0.328125,0 -0.328125,0.1875 0,0.203125 0.1875,0.203125 0.328125,0.203125 h 2.78125 V 0.5 c 0,0.140625 0,0.328125 0.203125,0.328125 0.203125,0 0.203125,-0.1875 0.203125,-0.328125 z m 0,0"
             style="stroke:none;stroke-width:0" />
        </g>
        <g
           id="g6971"
           style="fill:#000000;fill-opacity:1">
          <path
             inkscape:connector-curvature="0"
             id="path6969"
             transform="translate(172.156,134.765)"
             d="m 4.96875,-3.03125 c 0.0625,-0.28125 0.0625,-0.359375 0.0625,-0.5 0,-0.609375 -0.296875,-1 -1.09375,-1 -0.75,0 -1.3125,0.4375 -1.5625,0.71875 L 3.015625,-6.921875 H 2.28125 L 0.8125,0 H 1.578125 L 2.0625,-2.265625 c 0.234375,-1.09375 0.703125,-1.65625 1.359375,-1.65625 0.46875,0 0.8125,0.15625 0.8125,0.65625 0,0.03125 -0.03125,0.1875 -0.03125,0.203125 L 3.5625,0 h 0.78125 z m 0,0"
             style="stroke:none;stroke-width:0" />
        </g>
        <g
           id="g6975"
           style="fill:#000000;fill-opacity:1">
          <path
             inkscape:connector-curvature="0"
             id="path6973"
             transform="translate(177.481,134.765)"
             d="m 1.171875,2.5 c 0.3125,-0.3125 0.984375,-0.921875 1.4375,-2.140625 0.40625,-1.0625 0.46875,-2.125 0.46875,-2.859375 0,-3.21875 -1.4375,-4.53125 -1.90625,-4.984375 H 0.5625 C 1.03125,-7 2.296875,-5.71875 2.296875,-2.5 c 0,0.5625 -0.03125,1.734375 -0.4375,2.90625 C 1.453125,1.5625 0.890625,2.15625 0.5625,2.5 Z m 0,0"
             style="stroke:none;stroke-width:0" />
        </g>
      </g>
    </g>
    <path
       style="fill:none;stroke:#d30000;stroke-width:1.54900002;stroke-linecap:butt;stroke-linejoin:miter;stroke-miterlimit:4;stroke-dasharray:none;stroke-opacity:1"
       d="m -419.34375,-85.795418 121.6875,-173.483232"
       id="path6981"
       inkscape:connector-curvature="0"
       inkscape:transform-center-x="-34.776852"
       inkscape:transform-center-y="-49.552925" />
    <g
       id="g7055"
       ns1:jacobian_sqrt="2.018456"
       ns1:alignment="middle center"
       ns1:scale="5.72160801272"
       ns1:preamble="/home/francois/Documents/Mypapers/InkscapeHeader/header.inc"
       ns1:text="$f(x)$"
       ns1:pdfconverter="pdf2svg"
       ns1:texconverter="pdflatex"
       ns1:version="0.11.0"
       transform="matrix(1.6147648,0,0,1.6147648,-699.47891,-336.4609)">
      <g
         id="g7053">
        <g
           id="g7039"
           style="fill:#000000;fill-opacity:1">
          <path
             id="path7037"
             transform="translate(148.712,134.765)"
             d="m 2.578125,-3.84375 h 1.09375 L 3.78125,-4.421875 h -1.125 L 2.921875,-5.65625 c 0.09375,-0.5 0.59375,-0.765625 1.09375,-0.765625 0.125,0 0.4375,0.015625 0.765625,0.171875 l 0.140625,-0.671875 c -0.25,-0.0625 -0.515625,-0.109375 -0.765625,-0.109375 -0.984375,0 -1.8125,0.765625 -2,1.65625 L 1.9375,-4.421875 H 1.203125 L 1.09375,-3.84375 H 1.828125 L 1,0 h 0.75 z m 0,0"
             style="stroke:none;stroke-width:0"
             inkscape:connector-curvature="0" />
        </g>
        <g
           id="g7043"
           style="fill:#000000;fill-opacity:1">
          <path
             id="path7041"
             transform="translate(153.919,134.765)"
             d="M 2.703125,-7.484375 C 2.375,-7.171875 1.71875,-6.5625 1.25,-5.34375 0.859375,-4.28125 0.78125,-3.21875 0.78125,-2.5 c 0,3.234375 1.4375,4.546875 1.921875,5 H 3.3125 c -0.484375,-0.484375 -1.75,-1.765625 -1.75,-5 0,-0.546875 0.03125,-1.71875 0.4375,-2.890625 0.40625,-1.15625 0.984375,-1.75 1.3125,-2.09375 z m 0,0"
             style="stroke:none;stroke-width:0"
             inkscape:connector-curvature="0" />
        </g>
        <g
           id="g7047"
           style="fill:#000000;fill-opacity:1">
          <path
             id="path7045"
             transform="translate(157.793,134.765)"
             d="m 3.078125,-2.28125 2.28125,-2.140625 H 4.53125 L 2.859375,-2.78125 1.828125,-4.421875 H 1 L 2.421875,-2.28125 0,0 H 0.8125 L 2.65625,-1.875 3.765625,0 h 0.8125 z m 0,0"
             style="stroke:none;stroke-width:0"
             inkscape:connector-curvature="0" />
        </g>
        <g
           id="g7051"
           style="fill:#000000;fill-opacity:1">
          <path
             id="path7049"
             transform="translate(163.301,134.765)"
             d="m 1.171875,2.5 c 0.3125,-0.3125 0.984375,-0.921875 1.4375,-2.140625 0.40625,-1.0625 0.46875,-2.125 0.46875,-2.859375 0,-3.21875 -1.4375,-4.53125 -1.90625,-4.984375 H 0.5625 C 1.03125,-7 2.296875,-5.71875 2.296875,-2.5 c 0,0.5625 -0.03125,1.734375 -0.4375,2.90625 C 1.453125,1.5625 0.890625,2.15625 0.5625,2.5 Z m 0,0"
             style="stroke:none;stroke-width:0"
             inkscape:connector-curvature="0" />
        </g>
      </g>
    </g>
    <g
       id="g7611"
       ns1:jacobian_sqrt="1.614765"
       inkscapeversion="0.92.3"
       ns1:alignment="middle center"
       ns1:scale="4.57728641018"
       ns1:preamble="/home/francois/Documents/Mypapers/InkscapeHeader/header.inc"
       ns1:text="$f\'(x)$"
       ns1:pdfconverter="pdf2svg"
       ns1:texconverter="pdflatex"
       ns1:version="0.11.0"
       transform="matrix(1.614765,0.000000,0.000000,1.614765,-594.070496,-455.545232)">
      <g
         id="g7609">
        <g
           id="g7591"
           style="fill:rgb(0%,0%,0%);fill-opacity:1;">
          <path
             id="path7589"
             transform="translate(148.712,134.765)"
             d="M 2.578125 -3.84375 L 3.671875 -3.84375 L 3.78125 -4.421875 L 2.65625 -4.421875 L 2.921875 -5.65625 C 3.015625 -6.15625 3.515625 -6.421875 4.015625 -6.421875 C 4.140625 -6.421875 4.453125 -6.40625 4.78125 -6.25 L 4.921875 -6.921875 C 4.671875 -6.984375 4.40625 -7.03125 4.15625 -7.03125 C 3.171875 -7.03125 2.34375 -6.265625 2.15625 -5.375 L 1.9375 -4.421875 L 1.203125 -4.421875 L 1.09375 -3.84375 L 1.828125 -3.84375 L 1 0 L 1.75 0 Z M 2.578125 -3.84375 "
             style="stroke:none;stroke-width:0" />
        </g>
        <g
           id="g7595"
           style="fill:rgb(0%,0%,0%);fill-opacity:1;">
          <path
             id="path7593"
             transform="translate(153.919,131.149)"
             d="M 2.015625 -3.296875 C 2.078125 -3.40625 2.078125 -3.46875 2.078125 -3.515625 C 2.078125 -3.734375 1.890625 -3.890625 1.671875 -3.890625 C 1.40625 -3.890625 1.328125 -3.671875 1.296875 -3.5625 L 0.375 -0.546875 C 0.359375 -0.53125 0.328125 -0.453125 0.328125 -0.4375 C 0.328125 -0.359375 0.546875 -0.28125 0.609375 -0.28125 C 0.65625 -0.28125 0.65625 -0.296875 0.703125 -0.40625 Z M 2.015625 -3.296875 "
             style="stroke:none;stroke-width:0" />
        </g>
        <g
           id="g7599"
           style="fill:rgb(0%,0%,0%);fill-opacity:1;">
          <path
             id="path7597"
             transform="translate(156.714,134.765)"
             d="M 2.703125 -7.484375 C 2.375 -7.171875 1.71875 -6.5625 1.25 -5.34375 C 0.859375 -4.28125 0.78125 -3.21875 0.78125 -2.5 C 0.78125 0.734375 2.21875 2.046875 2.703125 2.5 L 3.3125 2.5 C 2.828125 2.015625 1.5625 0.734375 1.5625 -2.5 C 1.5625 -3.046875 1.59375 -4.21875 2 -5.390625 C 2.40625 -6.546875 2.984375 -7.140625 3.3125 -7.484375 Z M 2.703125 -7.484375 "
             style="stroke:none;stroke-width:0" />
        </g>
        <g
           id="g7603"
           style="fill:rgb(0%,0%,0%);fill-opacity:1;">
          <path
             id="path7601"
             transform="translate(160.588,134.765)"
             d="M 3.078125 -2.28125 L 5.359375 -4.421875 L 4.53125 -4.421875 L 2.859375 -2.78125 L 1.828125 -4.421875 L 1 -4.421875 L 2.421875 -2.28125 L 0 0 L 0.8125 0 L 2.65625 -1.875 L 3.765625 0 L 4.578125 0 Z M 3.078125 -2.28125 "
             style="stroke:none;stroke-width:0" />
        </g>
        <g
           id="g7607"
           style="fill:rgb(0%,0%,0%);fill-opacity:1;">
          <path
             id="path7605"
             transform="translate(166.096,134.765)"
             d="M 1.171875 2.5 C 1.484375 2.1875 2.15625 1.578125 2.609375 0.359375 C 3.015625 -0.703125 3.078125 -1.765625 3.078125 -2.5 C 3.078125 -5.71875 1.640625 -7.03125 1.171875 -7.484375 L 0.5625 -7.484375 C 1.03125 -7 2.296875 -5.71875 2.296875 -2.5 C 2.296875 -1.9375 2.265625 -0.765625 1.859375 0.40625 C 1.453125 1.5625 0.890625 2.15625 0.5625 2.5 Z M 1.171875 2.5 "
             style="stroke:none;stroke-width:0" />
        </g>
      </g>
    </g>
  </g>
</svg>
