<?xml version="1.0" encoding="UTF-8" standalone="no"?>
<!-- Created with Inkscape (http://www.inkscape.org/) -->

<svg
   xmlns:ns0="http://www.iki.fi/pav/software/textext/"
   xmlns:dc="http://purl.org/dc/elements/1.1/"
   xmlns:cc="http://creativecommons.org/ns#"
   xmlns:rdf="http://www.w3.org/1999/02/22-rdf-syntax-ns#"
   xmlns:svg="http://www.w3.org/2000/svg"
   xmlns="http://www.w3.org/2000/svg"
   xmlns:xlink="http://www.w3.org/1999/xlink"
   xmlns:sodipodi="http://sodipodi.sourceforge.net/DTD/sodipodi-0.dtd"
   xmlns:inkscape="http://www.inkscape.org/namespaces/inkscape"
   inkscape:version="0.48.3.1 r9886"
   version="1.1"
   id="svg2"
   height="1052.3622047"
   width="744.09448819"
   sodipodi:docname="graddesc.svg"
   inkscape:export-filename="/home/francois/Dropbox-Perso/SIP_Perso/SIPB1_2012/FIGURE/graddesc.png"
   inkscape:export-xdpi="90"
   inkscape:export-ydpi="90">
  <sodipodi:namedview
     id="base"
     pagecolor="#ffffff"
     bordercolor="#666666"
     borderopacity="1.0"
     inkscape:pageopacity="0.0"
     inkscape:pageshadow="2"
     inkscape:zoom="0.35"
     inkscape:cx="-30.714286"
     inkscape:cy="520"
     inkscape:document-units="px"
     inkscape:current-layer="layer1"
     showgrid="true"
     inkscape:window-width="1920"
     inkscape:window-height="1056"
     inkscape:window-x="0"
     inkscape:window-y="24"
     inkscape:window-maximized="1">
    <inkscape:grid
       type="xygrid"
       id="grid2985" />
  </sodipodi:namedview>
  <defs
     id="defs4">
    <marker
       inkscape:stockid="Arrow1Lend"
       orient="auto"
       refY="0.0"
       refX="0.0"
       id="Arrow1Lend"
       style="overflow:visible;">
      <path
         id="path4328"
         d="M 0.0,0.0 L 5.0,-5.0 L -12.5,0.0 L 5.0,5.0 L 0.0,0.0 z "
         style="fill-rule:evenodd;stroke:#000000;stroke-width:1.0pt;"
         transform="scale(0.8) rotate(180) translate(12.5,0)" />
    </marker>
  </defs>
  <metadata
     id="metadata7">
    <rdf:RDF>
      <cc:Work
         rdf:about="">
        <dc:format>image/svg+xml</dc:format>
        <dc:type
           rdf:resource="http://purl.org/dc/dcmitype/StillImage" />
        <dc:title></dc:title>
      </cc:Work>
    </rdf:RDF>
  </metadata>
  <g
     inkscape:label="Layer 1"
     inkscape:groupmode="layer"
     id="layer1">
    <path
       style="fill:none;stroke:#000000;stroke-width:3;stroke-linecap:butt;stroke-linejoin:miter;stroke-opacity:1;stroke-miterlimit:4;stroke-dasharray:none"
       d="m -840,132.36218 c 0,840 0,840 0,840"
       id="path2987"
       inkscape:connector-curvature="0" />
    <path
       style="fill:none;stroke:#000000;stroke-width:3;stroke-linecap:butt;stroke-linejoin:miter;stroke-opacity:1;stroke-miterlimit:4;stroke-dasharray:none"
       d="m -880,932.36218 c 2040,0 2040,0 2040,0"
       id="path2989"
       inkscape:connector-curvature="0" />
    <path
       style="fill:none;stroke:#000000;stroke-width:3;stroke-linecap:butt;stroke-linejoin:miter;stroke-miterlimit:4;stroke-opacity:1;stroke-dasharray:none"
       d="m -840,492.36218 c 0,0 120.41407,-251.53395 240,-280 168.6219,-40.1385 364.77753,70.50781 480,200 64.525555,72.51672 19.64609,203.97614 80,280 85.353315,107.51398 224.14998,180.27146 360,200 121.65116,17.66654 256.12514,-14.26473 360,-80 128.4614,-81.2944 179.39053,-246.03138 280,-360 24.95814,-28.27213 80,-80 80,-80"
       id="path3759"
       inkscape:connector-curvature="0"
       sodipodi:nodetypes="caaaaaac" />
    <path
       inkscape:connector-curvature="0"
       id="path3903"
       d="m 400,932.36218 c 0,-40 0,0 0,0 z"
       style="fill:none;stroke:#000000;stroke-width:1px;stroke-linecap:butt;stroke-linejoin:miter;stroke-opacity:1" />
    <path
       inkscape:connector-curvature="0"
       id="path3905"
       d="m 400,892.36218 c 0,80 0,80 0,80"
       style="fill:none;stroke:#000000;stroke-width:4;stroke-linecap:butt;stroke-linejoin:miter;stroke-opacity:1;stroke-miterlimit:4;stroke-dasharray:none" />
    <g
       id="g3918"
       ns0:preamble="/home/francois/Documents/Mypapers/InkscapeHeader/header.inc"
       ns0:text="$\\bar{x}$"
       transform="matrix(7,0,0,7,-1183.625,93.127808)">
      <defs
         id="defs3920">
        <g
           id="g3922">
          <symbol
             id="textext-da25e2dd-0"
             overflow="visible"
             style="overflow:visible">
            <path
               id="path3925"
               d="m 4.28125,-5.578125 0,-0.296875 -3.59375,0 0,0.296875 z m 0,0"
               style="stroke:none"
               inkscape:connector-curvature="0" />
          </symbol>
          <symbol
             id="textext-da25e2dd-1"
             overflow="visible"
             style="overflow:visible">
            <path
               id="path3928"
               d="M 3.328125,-3.015625 C 3.390625,-3.265625 3.625,-4.1875 4.3125,-4.1875 c 0.046875,0 0.296875,0 0.5,0.125 C 4.53125,-4 4.34375,-3.765625 4.34375,-3.515625 c 0,0.15625 0.109375,0.34375 0.375,0.34375 0.21875,0 0.53125,-0.171875 0.53125,-0.578125 0,-0.515625 -0.578125,-0.65625 -0.921875,-0.65625 -0.578125,0 -0.921875,0.53125 -1.046875,0.75 -0.25,-0.65625 -0.78125,-0.75 -1.078125,-0.75 -1.03125,0 -1.609375,1.28125 -1.609375,1.53125 0,0.109375 0.109375,0.109375 0.125,0.109375 0.078125,0 0.109375,-0.03125 0.125,-0.109375 0.34375,-1.0625 1,-1.3125 1.34375,-1.3125 0.1875,0 0.53125,0.09375 0.53125,0.671875 0,0.3125 -0.171875,0.96875 -0.53125,2.375 -0.15625,0.609375 -0.515625,1.03125 -0.953125,1.03125 -0.0625,0 -0.28125,0 -0.5,-0.125 0.25,-0.0625 0.46875,-0.265625 0.46875,-0.546875 0,-0.265625 -0.21875,-0.34375 -0.359375,-0.34375 -0.3125,0 -0.546875,0.25 -0.546875,0.578125 0,0.453125 0.484375,0.65625 0.921875,0.65625 0.671875,0 1.03125,-0.703125 1.046875,-0.75 0.125,0.359375 0.484375,0.75 1.078125,0.75 1.03125,0 1.59375,-1.28125 1.59375,-1.53125 0,-0.109375 -0.078125,-0.109375 -0.109375,-0.109375 -0.09375,0 -0.109375,0.046875 -0.140625,0.109375 -0.328125,1.078125 -1,1.3125 -1.3125,1.3125 -0.390625,0 -0.546875,-0.3125 -0.546875,-0.65625 0,-0.21875 0.046875,-0.4375 0.15625,-0.875 z m 0,0"
               style="stroke:none"
               inkscape:connector-curvature="0" />
          </symbol>
        </g>
      </defs>
      <g
         id="textext-da25e2dd-2">
        <g
           id="g3931"
           style="fill:#000000;fill-opacity:1">
          <use
             id="use3933"
             y="134.765"
             x="224.065"
             xlink:href="#textext-da25e2dd-0"
             width="744.09448"
             height="1052.3622" />
        </g>
        <g
           id="g3935"
           style="fill:#000000;fill-opacity:1">
          <use
             id="use3937"
             y="134.765"
             x="223.43201"
             xlink:href="#textext-da25e2dd-1"
             width="744.09448"
             height="1052.3622" />
        </g>
      </g>
    </g>
    <g
       transform="matrix(7,0,0,7,-1935.3125,60.346558)"
       ns0:text="$x_0$"
       ns0:preamble="/home/francois/Documents/Mypapers/InkscapeHeader/header.inc"
       id="g4023">
      <defs
         id="defs4025">
        <g
           id="g4027">
          <symbol
             style="overflow:visible"
             overflow="visible"
             id="textext-a7dd3d40-0">
            <path
               inkscape:connector-curvature="0"
               style="stroke:none"
               d="M 3.328125,-3.015625 C 3.390625,-3.265625 3.625,-4.1875 4.3125,-4.1875 c 0.046875,0 0.296875,0 0.5,0.125 C 4.53125,-4 4.34375,-3.765625 4.34375,-3.515625 c 0,0.15625 0.109375,0.34375 0.375,0.34375 0.21875,0 0.53125,-0.171875 0.53125,-0.578125 0,-0.515625 -0.578125,-0.65625 -0.921875,-0.65625 -0.578125,0 -0.921875,0.53125 -1.046875,0.75 -0.25,-0.65625 -0.78125,-0.75 -1.078125,-0.75 -1.03125,0 -1.609375,1.28125 -1.609375,1.53125 0,0.109375 0.109375,0.109375 0.125,0.109375 0.078125,0 0.109375,-0.03125 0.125,-0.109375 0.34375,-1.0625 1,-1.3125 1.34375,-1.3125 0.1875,0 0.53125,0.09375 0.53125,0.671875 0,0.3125 -0.171875,0.96875 -0.53125,2.375 -0.15625,0.609375 -0.515625,1.03125 -0.953125,1.03125 -0.0625,0 -0.28125,0 -0.5,-0.125 0.25,-0.0625 0.46875,-0.265625 0.46875,-0.546875 0,-0.265625 -0.21875,-0.34375 -0.359375,-0.34375 -0.3125,0 -0.546875,0.25 -0.546875,0.578125 0,0.453125 0.484375,0.65625 0.921875,0.65625 0.671875,0 1.03125,-0.703125 1.046875,-0.75 0.125,0.359375 0.484375,0.75 1.078125,0.75 1.03125,0 1.59375,-1.28125 1.59375,-1.53125 0,-0.109375 -0.078125,-0.109375 -0.109375,-0.109375 -0.09375,0 -0.109375,0.046875 -0.140625,0.109375 -0.328125,1.078125 -1,1.3125 -1.3125,1.3125 -0.390625,0 -0.546875,-0.3125 -0.546875,-0.65625 0,-0.21875 0.046875,-0.4375 0.15625,-0.875 z m 0,0"
               id="path4030" />
          </symbol>
          <symbol
             style="overflow:visible"
             overflow="visible"
             id="textext-a7dd3d40-1">
            <path
               inkscape:connector-curvature="0"
               style="stroke:none"
               d="M 3.59375,-2.21875 C 3.59375,-2.984375 3.5,-3.546875 3.1875,-4.03125 2.96875,-4.34375 2.53125,-4.625 1.984375,-4.625 c -1.625,0 -1.625,1.90625 -1.625,2.40625 0,0.5 0,2.359375 1.625,2.359375 1.609375,0 1.609375,-1.859375 1.609375,-2.359375 z M 1.984375,-0.0625 c -0.328125,0 -0.75,-0.1875 -0.890625,-0.75 C 1,-1.21875 1,-1.796875 1,-2.3125 1,-2.828125 1,-3.359375 1.09375,-3.734375 1.25,-4.28125 1.6875,-4.4375 1.984375,-4.4375 c 0.375,0 0.734375,0.234375 0.859375,0.640625 0.109375,0.375 0.125,0.875 0.125,1.484375 0,0.515625 0,1.03125 -0.09375,1.46875 -0.140625,0.640625 -0.609375,0.78125 -0.890625,0.78125 z m 0,0"
               id="path4033" />
          </symbol>
        </g>
      </defs>
      <g
         id="textext-a7dd3d40-2">
        <g
           style="fill:#000000;fill-opacity:1"
           id="g4036">
          <use
             height="1052.3622"
             width="744.09448"
             xlink:href="#textext-a7dd3d40-0"
             x="223.43201"
             y="134.765"
             id="use4038" />
        </g>
        <g
           style="fill:#000000;fill-opacity:1"
           id="g4040">
          <use
             height="1052.3622"
             width="744.09448"
             xlink:href="#textext-a7dd3d40-1"
             x="229.12601"
             y="136.259"
             id="use4042" />
        </g>
      </g>
    </g>
    <path
       inkscape:connector-curvature="0"
       id="path4117"
       d="m -320,932.36218 0,-680 -520,0"
       style="fill:none;stroke:#000000;stroke-width:3;stroke-linecap:butt;stroke-linejoin:miter;stroke-opacity:1;stroke-miterlimit:4;stroke-dasharray:none" />
    <g
       id="g4179"
       transform="matrix(7,0,0,7,-2592.4554,-431.08201)"
       ns0:preamble="/home/francois/Documents/Mypapers/InkscapeHeader/header.inc"
       ns0:text="$f(x_0)$">
      <defs
         id="defs4181">
        <g
           id="g4183">
          <symbol
             id="textext-2c3ddc97-0"
             overflow="visible"
             style="overflow:visible">
            <path
               id="path4186"
               d="m 3.65625,-3.984375 0.859375,0 c 0.203125,0 0.296875,0 0.296875,-0.203125 0,-0.109375 -0.09375,-0.109375 -0.265625,-0.109375 l -0.828125,0 0.203125,-1.140625 c 0.046875,-0.203125 0.1875,-0.90625 0.25,-1.03125 0.078125,-0.1875 0.25,-0.34375 0.46875,-0.34375 0.03125,0 0.296875,0 0.484375,0.1875 -0.4375,0.03125 -0.546875,0.390625 -0.546875,0.53125 0,0.234375 0.1875,0.359375 0.375,0.359375 C 5.21875,-5.734375 5.5,-5.96875 5.5,-6.34375 c 0,-0.453125 -0.453125,-0.6875 -0.859375,-0.6875 -0.34375,0 -0.96875,0.1875 -1.265625,1.171875 -0.0625,0.203125 -0.09375,0.3125 -0.328125,1.5625 l -0.6875,0 c -0.203125,0 -0.3125,0 -0.3125,0.1875 0,0.125 0.09375,0.125 0.28125,0.125 l 0.65625,0 -0.734375,3.9375 c -0.1875,0.96875 -0.359375,1.875 -0.875,1.875 -0.046875,0 -0.28125,0 -0.484375,-0.1875 C 1.359375,1.609375 1.453125,1.25 1.453125,1.109375 1.453125,0.875 1.265625,0.75 1.078125,0.75 0.8125,0.75 0.53125,0.984375 0.53125,1.359375 c 0,0.4375 0.4375,0.6875 0.84375,0.6875 0.546875,0 0.953125,-0.59375 1.125,-0.96875 0.328125,-0.625 0.546875,-1.828125 0.5625,-1.90625 z m 0,0"
               style="stroke:none"
               inkscape:connector-curvature="0" />
          </symbol>
          <symbol
             id="textext-2c3ddc97-1"
             overflow="visible"
             style="overflow:visible">
            <path
               id="path4189"
               d="M 3.328125,-3.015625 C 3.390625,-3.265625 3.625,-4.1875 4.3125,-4.1875 c 0.046875,0 0.296875,0 0.5,0.125 C 4.53125,-4 4.34375,-3.765625 4.34375,-3.515625 c 0,0.15625 0.109375,0.34375 0.375,0.34375 0.21875,0 0.53125,-0.171875 0.53125,-0.578125 0,-0.515625 -0.578125,-0.65625 -0.921875,-0.65625 -0.578125,0 -0.921875,0.53125 -1.046875,0.75 -0.25,-0.65625 -0.78125,-0.75 -1.078125,-0.75 -1.03125,0 -1.609375,1.28125 -1.609375,1.53125 0,0.109375 0.109375,0.109375 0.125,0.109375 0.078125,0 0.109375,-0.03125 0.125,-0.109375 0.34375,-1.0625 1,-1.3125 1.34375,-1.3125 0.1875,0 0.53125,0.09375 0.53125,0.671875 0,0.3125 -0.171875,0.96875 -0.53125,2.375 -0.15625,0.609375 -0.515625,1.03125 -0.953125,1.03125 -0.0625,0 -0.28125,0 -0.5,-0.125 0.25,-0.0625 0.46875,-0.265625 0.46875,-0.546875 0,-0.265625 -0.21875,-0.34375 -0.359375,-0.34375 -0.3125,0 -0.546875,0.25 -0.546875,0.578125 0,0.453125 0.484375,0.65625 0.921875,0.65625 0.671875,0 1.03125,-0.703125 1.046875,-0.75 0.125,0.359375 0.484375,0.75 1.078125,0.75 1.03125,0 1.59375,-1.28125 1.59375,-1.53125 0,-0.109375 -0.078125,-0.109375 -0.109375,-0.109375 -0.09375,0 -0.109375,0.046875 -0.140625,0.109375 -0.328125,1.078125 -1,1.3125 -1.3125,1.3125 -0.390625,0 -0.546875,-0.3125 -0.546875,-0.65625 0,-0.21875 0.046875,-0.4375 0.15625,-0.875 z m 0,0"
               style="stroke:none"
               inkscape:connector-curvature="0" />
          </symbol>
          <symbol
             id="textext-2c3ddc97-2"
             overflow="visible"
             style="overflow:visible">
            <path
               id="path4192"
               d="m 3.296875,2.390625 c 0,-0.03125 0,-0.046875 -0.171875,-0.21875 C 1.890625,0.921875 1.5625,-0.96875 1.5625,-2.5 c 0,-1.734375 0.375,-3.46875 1.609375,-4.703125 0.125,-0.125 0.125,-0.140625 0.125,-0.171875 0,-0.078125 -0.03125,-0.109375 -0.09375,-0.109375 -0.109375,0 -1,0.6875 -1.59375,1.953125 -0.5,1.09375 -0.625,2.203125 -0.625,3.03125 0,0.78125 0.109375,1.984375 0.65625,3.125 C 2.25,1.84375 3.09375,2.5 3.203125,2.5 c 0.0625,0 0.09375,-0.03125 0.09375,-0.109375 z m 0,0"
               style="stroke:none"
               inkscape:connector-curvature="0" />
          </symbol>
          <symbol
             id="textext-2c3ddc97-3"
             overflow="visible"
             style="overflow:visible">
            <path
               id="path4195"
               d="m 2.875,-2.5 c 0,-0.765625 -0.109375,-1.96875 -0.65625,-3.109375 -0.59375,-1.21875 -1.453125,-1.875 -1.546875,-1.875 -0.0625,0 -0.109375,0.046875 -0.109375,0.109375 0,0.03125 0,0.046875 0.1875,0.234375 0.984375,0.984375 1.546875,2.5625 1.546875,4.640625 0,1.71875 -0.359375,3.46875 -1.59375,4.71875 C 0.5625,2.34375 0.5625,2.359375 0.5625,2.390625 0.5625,2.453125 0.609375,2.5 0.671875,2.5 0.765625,2.5 1.671875,1.8125 2.25,0.546875 2.765625,-0.546875 2.875,-1.65625 2.875,-2.5 z m 0,0"
               style="stroke:none"
               inkscape:connector-curvature="0" />
          </symbol>
          <symbol
             id="textext-2c3ddc97-4"
             overflow="visible"
             style="overflow:visible">
            <path
               id="path4198"
               d="M 3.59375,-2.21875 C 3.59375,-2.984375 3.5,-3.546875 3.1875,-4.03125 2.96875,-4.34375 2.53125,-4.625 1.984375,-4.625 c -1.625,0 -1.625,1.90625 -1.625,2.40625 0,0.5 0,2.359375 1.625,2.359375 1.609375,0 1.609375,-1.859375 1.609375,-2.359375 z M 1.984375,-0.0625 c -0.328125,0 -0.75,-0.1875 -0.890625,-0.75 C 1,-1.21875 1,-1.796875 1,-2.3125 1,-2.828125 1,-3.359375 1.09375,-3.734375 1.25,-4.28125 1.6875,-4.4375 1.984375,-4.4375 c 0.375,0 0.734375,0.234375 0.859375,0.640625 0.109375,0.375 0.125,0.875 0.125,1.484375 0,0.515625 0,1.03125 -0.09375,1.46875 -0.140625,0.640625 -0.609375,0.78125 -0.890625,0.78125 z m 0,0"
               style="stroke:none"
               inkscape:connector-curvature="0" />
          </symbol>
        </g>
      </defs>
      <g
         id="textext-2c3ddc97-5">
        <g
           id="g4201"
           style="fill:#000000;fill-opacity:1">
          <use
             id="use4203"
             y="134.765"
             x="223.43201"
             xlink:href="#textext-2c3ddc97-0"
             width="744.09448"
             height="1052.3622" />
        </g>
        <g
           id="g4205"
           style="fill:#000000;fill-opacity:1">
          <use
             id="use4207"
             y="134.765"
             x="229.382"
             xlink:href="#textext-2c3ddc97-2"
             width="744.09448"
             height="1052.3622" />
        </g>
        <g
           id="g4209"
           style="fill:#000000;fill-opacity:1">
          <use
             id="use4211"
             y="134.765"
             x="233.256"
             xlink:href="#textext-2c3ddc97-1"
             width="744.09448"
             height="1052.3622" />
        </g>
        <g
           id="g4213"
           style="fill:#000000;fill-opacity:1">
          <use
             id="use4215"
             y="136.259"
             x="238.95"
             xlink:href="#textext-2c3ddc97-4"
             width="744.09448"
             height="1052.3622" />
        </g>
        <g
           id="g4217"
           style="fill:#000000;fill-opacity:1">
          <use
             id="use4219"
             y="134.765"
             x="243.42"
             xlink:href="#textext-2c3ddc97-3"
             width="744.09448"
             height="1052.3622" />
        </g>
      </g>
    </g>
    <path
       style="fill:none;stroke:#000000;stroke-width:3;stroke-linecap:butt;stroke-linejoin:miter;stroke-miterlimit:4;stroke-opacity:1;stroke-dasharray:none;marker-end:url(#Arrow1Lend)"
       d="m -321.3317,243.00115 c 0.67294,-304.630178 0.67294,-304.630178 0.67294,-304.630178"
       id="path4319"
       inkscape:connector-curvature="0" />
    <g
       ns0:text="$\\nabla_{x_0}f$"
       ns0:preamble="/home/francois/Documents/Mypapers/InkscapeHeader/header.inc"
       transform="matrix(7,0,0,7,-2057.5,-835.18469)"
       id="g4876">
      <defs
         id="defs4878">
        <g
           id="g4880">
          <symbol
             style="overflow:visible"
             overflow="visible"
             id="textext-4c4994fd-0">
            <path
               inkscape:connector-curvature="0"
               style="stroke:none"
               d="M 7.78125,-6.59375 C 7.796875,-6.625 7.828125,-6.6875 7.828125,-6.734375 7.828125,-6.796875 7.8125,-6.8125 7.59375,-6.8125 l -6.890625,0 c -0.21875,0 -0.234375,0.015625 -0.234375,0.078125 0,0.046875 0.03125,0.109375 0.046875,0.140625 L 3.875,0.140625 c 0.078125,0.125 0.109375,0.1875 0.265625,0.1875 0.171875,0 0.203125,-0.0625 0.28125,-0.1875 z m -6.078125,0.5 5.46875,0 -2.71875,5.484375 z m 0,0"
               id="path4883" />
          </symbol>
          <symbol
             style="overflow:visible"
             overflow="visible"
             id="textext-4c4994fd-1">
            <path
               inkscape:connector-curvature="0"
               style="stroke:none"
               d="M 1.734375,-0.734375 C 1.671875,-0.5 1.4375,-0.125 1.078125,-0.125 c -0.015625,0 -0.234375,0 -0.375,-0.09375 0.28125,-0.09375 0.3125,-0.34375 0.3125,-0.390625 0,-0.15625 -0.125,-0.25 -0.28125,-0.25 -0.203125,0 -0.40625,0.15625 -0.40625,0.421875 0,0.34375 0.390625,0.5 0.734375,0.5 0.328125,0 0.609375,-0.1875 0.78125,-0.484375 C 2.015625,-0.0625 2.390625,0.0625 2.671875,0.0625 c 0.8125,0 1.234375,-0.859375 1.234375,-1.0625 0,-0.09375 -0.09375,-0.09375 -0.109375,-0.09375 -0.109375,0 -0.109375,0.046875 -0.140625,0.125 -0.140625,0.484375 -0.5625,0.84375 -0.953125,0.84375 -0.28125,0 -0.421875,-0.1875 -0.421875,-0.453125 0,-0.1875 0.171875,-0.8125 0.359375,-1.59375 C 2.78125,-2.703125 3.09375,-2.875 3.328125,-2.875 c 0.015625,0 0.21875,0 0.375,0.09375 -0.21875,0.0625 -0.3125,0.265625 -0.3125,0.390625 0,0.140625 0.125,0.25 0.28125,0.25 0.15625,0 0.390625,-0.125 0.390625,-0.421875 0,-0.390625 -0.453125,-0.515625 -0.71875,-0.515625 -0.359375,0 -0.640625,0.234375 -0.78125,0.5 -0.125,-0.28125 -0.453125,-0.5 -0.84375,-0.5 C 0.9375,-3.078125 0.5,-2.21875 0.5,-2 c 0,0.078125 0.09375,0.078125 0.109375,0.078125 0.09375,0 0.09375,-0.015625 0.140625,-0.109375 C 0.921875,-2.578125 1.359375,-2.875 1.703125,-2.875 1.9375,-2.875 2.125,-2.75 2.125,-2.421875 2.125,-2.28125 2.03125,-1.9375 1.96875,-1.6875 z m 0,0"
               id="path4886" />
          </symbol>
          <symbol
             style="overflow:visible"
             overflow="visible"
             id="textext-4c4994fd-2">
            <path
               inkscape:connector-curvature="0"
               style="stroke:none"
               d="M 3,-1.59375 C 3,-1.953125 3,-3.3125 1.6875,-3.3125 c -1.296875,0 -1.296875,1.359375 -1.296875,1.71875 0,0.359375 0,1.703125 1.296875,1.703125 C 3,0.109375 3,-1.234375 3,-1.59375 z M 1.6875,-0.0625 C 1.515625,-0.0625 1.09375,-0.125 0.96875,-0.625 0.890625,-0.890625 0.890625,-1.25 0.890625,-1.65625 c 0,-0.375 0,-0.71875 0.078125,-1 0.125,-0.421875 0.515625,-0.5 0.71875,-0.5 0.375,0 0.640625,0.1875 0.734375,0.546875 C 2.5,-2.359375 2.5,-1.953125 2.5,-1.65625 c 0,0.34375 0,0.75 -0.078125,1.046875 C 2.296875,-0.125 1.890625,-0.0625 1.6875,-0.0625 z m 0,0"
               id="path4889" />
          </symbol>
          <symbol
             style="overflow:visible"
             overflow="visible"
             id="textext-4c4994fd-3">
            <path
               inkscape:connector-curvature="0"
               style="stroke:none"
               d="m 3.65625,-3.984375 0.859375,0 c 0.203125,0 0.296875,0 0.296875,-0.203125 0,-0.109375 -0.09375,-0.109375 -0.265625,-0.109375 l -0.828125,0 0.203125,-1.140625 c 0.046875,-0.203125 0.1875,-0.90625 0.25,-1.03125 0.078125,-0.1875 0.25,-0.34375 0.46875,-0.34375 0.03125,0 0.296875,0 0.484375,0.1875 -0.4375,0.03125 -0.546875,0.390625 -0.546875,0.53125 0,0.234375 0.1875,0.359375 0.375,0.359375 C 5.21875,-5.734375 5.5,-5.96875 5.5,-6.34375 c 0,-0.453125 -0.453125,-0.6875 -0.859375,-0.6875 -0.34375,0 -0.96875,0.1875 -1.265625,1.171875 -0.0625,0.203125 -0.09375,0.3125 -0.328125,1.5625 l -0.6875,0 c -0.203125,0 -0.3125,0 -0.3125,0.1875 0,0.125 0.09375,0.125 0.28125,0.125 l 0.65625,0 -0.734375,3.9375 c -0.1875,0.96875 -0.359375,1.875 -0.875,1.875 -0.046875,0 -0.28125,0 -0.484375,-0.1875 C 1.359375,1.609375 1.453125,1.25 1.453125,1.109375 1.453125,0.875 1.265625,0.75 1.078125,0.75 0.8125,0.75 0.53125,0.984375 0.53125,1.359375 c 0,0.4375 0.4375,0.6875 0.84375,0.6875 0.546875,0 0.953125,-0.59375 1.125,-0.96875 0.328125,-0.625 0.546875,-1.828125 0.5625,-1.90625 z m 0,0"
               id="path4892" />
          </symbol>
        </g>
      </defs>
      <g
         id="textext-4c4994fd-4">
        <g
           style="fill:#000000;fill-opacity:1"
           id="g4895">
          <use
             height="1052.3622"
             width="744.09448"
             xlink:href="#textext-4c4994fd-0"
             x="223.43201"
             y="134.765"
             id="use4897" />
        </g>
        <g
           style="fill:#000000;fill-opacity:1"
           id="g4899">
          <use
             height="1052.3622"
             width="744.09448"
             xlink:href="#textext-4c4994fd-1"
             x="231.73399"
             y="136.259"
             id="use4901" />
        </g>
        <g
           style="fill:#000000;fill-opacity:1"
           id="g4903">
          <use
             height="1052.3622"
             width="744.09448"
             xlink:href="#textext-4c4994fd-2"
             x="236.252"
             y="137.255"
             id="use4905" />
        </g>
        <g
           style="fill:#000000;fill-opacity:1"
           id="g4907">
          <use
             height="1052.3622"
             width="744.09448"
             xlink:href="#textext-4c4994fd-3"
             x="240.638"
             y="134.765"
             id="use4909" />
        </g>
      </g>
    </g>
    <path
       inkscape:connector-curvature="0"
       id="path5032"
       d="m -318.13372,267.72548 c 0.0906,304.6309 0.0906,304.6309 0.0906,304.6309"
       style="fill:none;stroke:#ff0000;stroke-width:4;stroke-linecap:butt;stroke-linejoin:miter;stroke-miterlimit:4;stroke-opacity:1;stroke-dasharray:none;marker-end:url(#Arrow1Lend)" />
    <g
       id="g5158"
       transform="matrix(7,0,0,7,-1842.7344,-456.48157)"
       ns0:preamble="/home/francois/Documents/Mypapers/InkscapeHeader/header.inc"
       ns0:text="$-\\nabla_{x_0}f$">
      <defs
         id="defs5160">
        <g
           id="g5162">
          <symbol
             id="textext-1f9e3d01-0"
             overflow="visible"
             style="overflow:visible">
            <path
               id="path5165"
               d="m 6.5625,-2.296875 c 0.171875,0 0.359375,0 0.359375,-0.203125 0,-0.1875 -0.1875,-0.1875 -0.359375,-0.1875 l -5.390625,0 c -0.171875,0 -0.34375,0 -0.34375,0.1875 0,0.203125 0.171875,0.203125 0.34375,0.203125 z m 0,0"
               style="stroke:none"
               inkscape:connector-curvature="0" />
          </symbol>
          <symbol
             id="textext-1f9e3d01-1"
             overflow="visible"
             style="overflow:visible">
            <path
               id="path5168"
               d="M 7.78125,-6.59375 C 7.796875,-6.625 7.828125,-6.6875 7.828125,-6.734375 7.828125,-6.796875 7.8125,-6.8125 7.59375,-6.8125 l -6.890625,0 c -0.21875,0 -0.234375,0.015625 -0.234375,0.078125 0,0.046875 0.03125,0.109375 0.046875,0.140625 L 3.875,0.140625 c 0.078125,0.125 0.109375,0.1875 0.265625,0.1875 0.171875,0 0.203125,-0.0625 0.28125,-0.1875 z m -6.078125,0.5 5.46875,0 -2.71875,5.484375 z m 0,0"
               style="stroke:none"
               inkscape:connector-curvature="0" />
          </symbol>
          <symbol
             id="textext-1f9e3d01-2"
             overflow="visible"
             style="overflow:visible">
            <path
               id="path5171"
               d="M 1.734375,-0.734375 C 1.671875,-0.5 1.4375,-0.125 1.078125,-0.125 c -0.015625,0 -0.234375,0 -0.375,-0.09375 0.28125,-0.09375 0.3125,-0.34375 0.3125,-0.390625 0,-0.15625 -0.125,-0.25 -0.28125,-0.25 -0.203125,0 -0.40625,0.15625 -0.40625,0.421875 0,0.34375 0.390625,0.5 0.734375,0.5 0.328125,0 0.609375,-0.1875 0.78125,-0.484375 C 2.015625,-0.0625 2.390625,0.0625 2.671875,0.0625 c 0.8125,0 1.234375,-0.859375 1.234375,-1.0625 0,-0.09375 -0.09375,-0.09375 -0.109375,-0.09375 -0.109375,0 -0.109375,0.046875 -0.140625,0.125 -0.140625,0.484375 -0.5625,0.84375 -0.953125,0.84375 -0.28125,0 -0.421875,-0.1875 -0.421875,-0.453125 0,-0.1875 0.171875,-0.8125 0.359375,-1.59375 C 2.78125,-2.703125 3.09375,-2.875 3.328125,-2.875 c 0.015625,0 0.21875,0 0.375,0.09375 -0.21875,0.0625 -0.3125,0.265625 -0.3125,0.390625 0,0.140625 0.125,0.25 0.28125,0.25 0.15625,0 0.390625,-0.125 0.390625,-0.421875 0,-0.390625 -0.453125,-0.515625 -0.71875,-0.515625 -0.359375,0 -0.640625,0.234375 -0.78125,0.5 -0.125,-0.28125 -0.453125,-0.5 -0.84375,-0.5 C 0.9375,-3.078125 0.5,-2.21875 0.5,-2 c 0,0.078125 0.09375,0.078125 0.109375,0.078125 0.09375,0 0.09375,-0.015625 0.140625,-0.109375 C 0.921875,-2.578125 1.359375,-2.875 1.703125,-2.875 1.9375,-2.875 2.125,-2.75 2.125,-2.421875 2.125,-2.28125 2.03125,-1.9375 1.96875,-1.6875 z m 0,0"
               style="stroke:none"
               inkscape:connector-curvature="0" />
          </symbol>
          <symbol
             id="textext-1f9e3d01-3"
             overflow="visible"
             style="overflow:visible">
            <path
               id="path5174"
               d="M 3,-1.59375 C 3,-1.953125 3,-3.3125 1.6875,-3.3125 c -1.296875,0 -1.296875,1.359375 -1.296875,1.71875 0,0.359375 0,1.703125 1.296875,1.703125 C 3,0.109375 3,-1.234375 3,-1.59375 z M 1.6875,-0.0625 C 1.515625,-0.0625 1.09375,-0.125 0.96875,-0.625 0.890625,-0.890625 0.890625,-1.25 0.890625,-1.65625 c 0,-0.375 0,-0.71875 0.078125,-1 0.125,-0.421875 0.515625,-0.5 0.71875,-0.5 0.375,0 0.640625,0.1875 0.734375,0.546875 C 2.5,-2.359375 2.5,-1.953125 2.5,-1.65625 c 0,0.34375 0,0.75 -0.078125,1.046875 C 2.296875,-0.125 1.890625,-0.0625 1.6875,-0.0625 z m 0,0"
               style="stroke:none"
               inkscape:connector-curvature="0" />
          </symbol>
          <symbol
             id="textext-1f9e3d01-4"
             overflow="visible"
             style="overflow:visible">
            <path
               id="path5177"
               d="m 3.65625,-3.984375 0.859375,0 c 0.203125,0 0.296875,0 0.296875,-0.203125 0,-0.109375 -0.09375,-0.109375 -0.265625,-0.109375 l -0.828125,0 0.203125,-1.140625 c 0.046875,-0.203125 0.1875,-0.90625 0.25,-1.03125 0.078125,-0.1875 0.25,-0.34375 0.46875,-0.34375 0.03125,0 0.296875,0 0.484375,0.1875 -0.4375,0.03125 -0.546875,0.390625 -0.546875,0.53125 0,0.234375 0.1875,0.359375 0.375,0.359375 C 5.21875,-5.734375 5.5,-5.96875 5.5,-6.34375 c 0,-0.453125 -0.453125,-0.6875 -0.859375,-0.6875 -0.34375,0 -0.96875,0.1875 -1.265625,1.171875 -0.0625,0.203125 -0.09375,0.3125 -0.328125,1.5625 l -0.6875,0 c -0.203125,0 -0.3125,0 -0.3125,0.1875 0,0.125 0.09375,0.125 0.28125,0.125 l 0.65625,0 -0.734375,3.9375 c -0.1875,0.96875 -0.359375,1.875 -0.875,1.875 -0.046875,0 -0.28125,0 -0.484375,-0.1875 C 1.359375,1.609375 1.453125,1.25 1.453125,1.109375 1.453125,0.875 1.265625,0.75 1.078125,0.75 0.8125,0.75 0.53125,0.984375 0.53125,1.359375 c 0,0.4375 0.4375,0.6875 0.84375,0.6875 0.546875,0 0.953125,-0.59375 1.125,-0.96875 0.328125,-0.625 0.546875,-1.828125 0.5625,-1.90625 z m 0,0"
               style="stroke:none"
               inkscape:connector-curvature="0" />
          </symbol>
        </g>
      </defs>
      <g
         id="textext-1f9e3d01-5">
        <g
           id="g5180"
           style="fill:#000000;fill-opacity:1">
          <use
             id="use5182"
             y="134.765"
             x="223.43201"
             xlink:href="#textext-1f9e3d01-0"
             width="744.09448"
             height="1052.3622" />
          <use
             id="use5184"
             y="134.765"
             x="231.18091"
             xlink:href="#textext-1f9e3d01-1"
             width="744.09448"
             height="1052.3622" />
        </g>
        <g
           id="g5186"
           style="fill:#000000;fill-opacity:1">
          <use
             id="use5188"
             y="136.259"
             x="239.483"
             xlink:href="#textext-1f9e3d01-2"
             width="744.09448"
             height="1052.3622" />
        </g>
        <g
           id="g5190"
           style="fill:#000000;fill-opacity:1">
          <use
             id="use5192"
             y="137.255"
             x="244.00101"
             xlink:href="#textext-1f9e3d01-3"
             width="744.09448"
             height="1052.3622" />
        </g>
        <g
           id="g5194"
           style="fill:#000000;fill-opacity:1">
          <use
             id="use5196"
             y="134.765"
             x="248.38699"
             xlink:href="#textext-1f9e3d01-4"
             width="744.09448"
             height="1052.3622" />
        </g>
      </g>
    </g>
    <g
       ns0:text="$x_1 = x_0 -\\nabla_{x_0}f$"
       ns0:preamble="/home/francois/Documents/Mypapers/InkscapeHeader/header.inc"
       transform="matrix(7,0,0,7,-1747.3438,59.362183)"
       id="g5496">
      <defs
         id="defs5498">
        <g
           id="g5500">
          <symbol
             style="overflow:visible"
             overflow="visible"
             id="textext-04862437-0">
            <path
               inkscape:connector-curvature="0"
               style="stroke:none"
               d="M 3.328125,-3.015625 C 3.390625,-3.265625 3.625,-4.1875 4.3125,-4.1875 c 0.046875,0 0.296875,0 0.5,0.125 C 4.53125,-4 4.34375,-3.765625 4.34375,-3.515625 c 0,0.15625 0.109375,0.34375 0.375,0.34375 0.21875,0 0.53125,-0.171875 0.53125,-0.578125 0,-0.515625 -0.578125,-0.65625 -0.921875,-0.65625 -0.578125,0 -0.921875,0.53125 -1.046875,0.75 -0.25,-0.65625 -0.78125,-0.75 -1.078125,-0.75 -1.03125,0 -1.609375,1.28125 -1.609375,1.53125 0,0.109375 0.109375,0.109375 0.125,0.109375 0.078125,0 0.109375,-0.03125 0.125,-0.109375 0.34375,-1.0625 1,-1.3125 1.34375,-1.3125 0.1875,0 0.53125,0.09375 0.53125,0.671875 0,0.3125 -0.171875,0.96875 -0.53125,2.375 -0.15625,0.609375 -0.515625,1.03125 -0.953125,1.03125 -0.0625,0 -0.28125,0 -0.5,-0.125 0.25,-0.0625 0.46875,-0.265625 0.46875,-0.546875 0,-0.265625 -0.21875,-0.34375 -0.359375,-0.34375 -0.3125,0 -0.546875,0.25 -0.546875,0.578125 0,0.453125 0.484375,0.65625 0.921875,0.65625 0.671875,0 1.03125,-0.703125 1.046875,-0.75 0.125,0.359375 0.484375,0.75 1.078125,0.75 1.03125,0 1.59375,-1.28125 1.59375,-1.53125 0,-0.109375 -0.078125,-0.109375 -0.109375,-0.109375 -0.09375,0 -0.109375,0.046875 -0.140625,0.109375 -0.328125,1.078125 -1,1.3125 -1.3125,1.3125 -0.390625,0 -0.546875,-0.3125 -0.546875,-0.65625 0,-0.21875 0.046875,-0.4375 0.15625,-0.875 z m 0,0"
               id="path5503" />
          </symbol>
          <symbol
             style="overflow:visible"
             overflow="visible"
             id="textext-04862437-1">
            <path
               inkscape:connector-curvature="0"
               style="stroke:none"
               d="m 3.65625,-3.984375 0.859375,0 c 0.203125,0 0.296875,0 0.296875,-0.203125 0,-0.109375 -0.09375,-0.109375 -0.265625,-0.109375 l -0.828125,0 0.203125,-1.140625 c 0.046875,-0.203125 0.1875,-0.90625 0.25,-1.03125 0.078125,-0.1875 0.25,-0.34375 0.46875,-0.34375 0.03125,0 0.296875,0 0.484375,0.1875 -0.4375,0.03125 -0.546875,0.390625 -0.546875,0.53125 0,0.234375 0.1875,0.359375 0.375,0.359375 C 5.21875,-5.734375 5.5,-5.96875 5.5,-6.34375 c 0,-0.453125 -0.453125,-0.6875 -0.859375,-0.6875 -0.34375,0 -0.96875,0.1875 -1.265625,1.171875 -0.0625,0.203125 -0.09375,0.3125 -0.328125,1.5625 l -0.6875,0 c -0.203125,0 -0.3125,0 -0.3125,0.1875 0,0.125 0.09375,0.125 0.28125,0.125 l 0.65625,0 -0.734375,3.9375 c -0.1875,0.96875 -0.359375,1.875 -0.875,1.875 -0.046875,0 -0.28125,0 -0.484375,-0.1875 C 1.359375,1.609375 1.453125,1.25 1.453125,1.109375 1.453125,0.875 1.265625,0.75 1.078125,0.75 0.8125,0.75 0.53125,0.984375 0.53125,1.359375 c 0,0.4375 0.4375,0.6875 0.84375,0.6875 0.546875,0 0.953125,-0.59375 1.125,-0.96875 0.328125,-0.625 0.546875,-1.828125 0.5625,-1.90625 z m 0,0"
               id="path5506" />
          </symbol>
          <symbol
             style="overflow:visible"
             overflow="visible"
             id="textext-04862437-2">
            <path
               inkscape:connector-curvature="0"
               style="stroke:none"
               d="m 2.328125,-4.4375 c 0,-0.1875 0,-0.1875 -0.203125,-0.1875 -0.453125,0.4375 -1.078125,0.4375 -1.359375,0.4375 l 0,0.25 c 0.15625,0 0.625,0 1,-0.1875 l 0,3.546875 c 0,0.234375 0,0.328125 -0.6875,0.328125 l -0.265625,0 0,0.25 c 0.125,0 0.984375,-0.03125 1.234375,-0.03125 0.21875,0 1.09375,0.03125 1.25,0.03125 l 0,-0.25 -0.265625,0 c -0.703125,0 -0.703125,-0.09375 -0.703125,-0.328125 z m 0,0"
               id="path5509" />
          </symbol>
          <symbol
             style="overflow:visible"
             overflow="visible"
             id="textext-04862437-3">
            <path
               inkscape:connector-curvature="0"
               style="stroke:none"
               d="M 3.59375,-2.21875 C 3.59375,-2.984375 3.5,-3.546875 3.1875,-4.03125 2.96875,-4.34375 2.53125,-4.625 1.984375,-4.625 c -1.625,0 -1.625,1.90625 -1.625,2.40625 0,0.5 0,2.359375 1.625,2.359375 1.609375,0 1.609375,-1.859375 1.609375,-2.359375 z M 1.984375,-0.0625 c -0.328125,0 -0.75,-0.1875 -0.890625,-0.75 C 1,-1.21875 1,-1.796875 1,-2.3125 1,-2.828125 1,-3.359375 1.09375,-3.734375 1.25,-4.28125 1.6875,-4.4375 1.984375,-4.4375 c 0.375,0 0.734375,0.234375 0.859375,0.640625 0.109375,0.375 0.125,0.875 0.125,1.484375 0,0.515625 0,1.03125 -0.09375,1.46875 -0.140625,0.640625 -0.609375,0.78125 -0.890625,0.78125 z m 0,0"
               id="path5512" />
          </symbol>
          <symbol
             style="overflow:visible"
             overflow="visible"
             id="textext-04862437-4">
            <path
               inkscape:connector-curvature="0"
               style="stroke:none"
               d="m 6.84375,-3.265625 c 0.15625,0 0.34375,0 0.34375,-0.1875 C 7.1875,-3.65625 7,-3.65625 6.859375,-3.65625 l -5.96875,0 c -0.140625,0 -0.328125,0 -0.328125,0.203125 0,0.1875 0.1875,0.1875 0.328125,0.1875 z m 0.015625,1.9375 c 0.140625,0 0.328125,0 0.328125,-0.203125 0,-0.1875 -0.1875,-0.1875 -0.34375,-0.1875 l -5.953125,0 c -0.140625,0 -0.328125,0 -0.328125,0.1875 0,0.203125 0.1875,0.203125 0.328125,0.203125 z m 0,0"
               id="path5515" />
          </symbol>
          <symbol
             style="overflow:visible"
             overflow="visible"
             id="textext-04862437-5">
            <path
               inkscape:connector-curvature="0"
               style="stroke:none"
               d="m 6.5625,-2.296875 c 0.171875,0 0.359375,0 0.359375,-0.203125 0,-0.1875 -0.1875,-0.1875 -0.359375,-0.1875 l -5.390625,0 c -0.171875,0 -0.34375,0 -0.34375,0.1875 0,0.203125 0.171875,0.203125 0.34375,0.203125 z m 0,0"
               id="path5518" />
          </symbol>
          <symbol
             style="overflow:visible"
             overflow="visible"
             id="textext-04862437-6">
            <path
               inkscape:connector-curvature="0"
               style="stroke:none"
               d="M 7.78125,-6.59375 C 7.796875,-6.625 7.828125,-6.6875 7.828125,-6.734375 7.828125,-6.796875 7.8125,-6.8125 7.59375,-6.8125 l -6.890625,0 c -0.21875,0 -0.234375,0.015625 -0.234375,0.078125 0,0.046875 0.03125,0.109375 0.046875,0.140625 L 3.875,0.140625 c 0.078125,0.125 0.109375,0.1875 0.265625,0.1875 0.171875,0 0.203125,-0.0625 0.28125,-0.1875 z m -6.078125,0.5 5.46875,0 -2.71875,5.484375 z m 0,0"
               id="path5521" />
          </symbol>
          <symbol
             style="overflow:visible"
             overflow="visible"
             id="textext-04862437-7">
            <path
               inkscape:connector-curvature="0"
               style="stroke:none"
               d="M 1.734375,-0.734375 C 1.671875,-0.5 1.4375,-0.125 1.078125,-0.125 c -0.015625,0 -0.234375,0 -0.375,-0.09375 0.28125,-0.09375 0.3125,-0.34375 0.3125,-0.390625 0,-0.15625 -0.125,-0.25 -0.28125,-0.25 -0.203125,0 -0.40625,0.15625 -0.40625,0.421875 0,0.34375 0.390625,0.5 0.734375,0.5 0.328125,0 0.609375,-0.1875 0.78125,-0.484375 C 2.015625,-0.0625 2.390625,0.0625 2.671875,0.0625 c 0.8125,0 1.234375,-0.859375 1.234375,-1.0625 0,-0.09375 -0.09375,-0.09375 -0.109375,-0.09375 -0.109375,0 -0.109375,0.046875 -0.140625,0.125 -0.140625,0.484375 -0.5625,0.84375 -0.953125,0.84375 -0.28125,0 -0.421875,-0.1875 -0.421875,-0.453125 0,-0.1875 0.171875,-0.8125 0.359375,-1.59375 C 2.78125,-2.703125 3.09375,-2.875 3.328125,-2.875 c 0.015625,0 0.21875,0 0.375,0.09375 -0.21875,0.0625 -0.3125,0.265625 -0.3125,0.390625 0,0.140625 0.125,0.25 0.28125,0.25 0.15625,0 0.390625,-0.125 0.390625,-0.421875 0,-0.390625 -0.453125,-0.515625 -0.71875,-0.515625 -0.359375,0 -0.640625,0.234375 -0.78125,0.5 -0.125,-0.28125 -0.453125,-0.5 -0.84375,-0.5 C 0.9375,-3.078125 0.5,-2.21875 0.5,-2 c 0,0.078125 0.09375,0.078125 0.109375,0.078125 0.09375,0 0.09375,-0.015625 0.140625,-0.109375 C 0.921875,-2.578125 1.359375,-2.875 1.703125,-2.875 1.9375,-2.875 2.125,-2.75 2.125,-2.421875 2.125,-2.28125 2.03125,-1.9375 1.96875,-1.6875 z m 0,0"
               id="path5524" />
          </symbol>
          <symbol
             style="overflow:visible"
             overflow="visible"
             id="textext-04862437-8">
            <path
               inkscape:connector-curvature="0"
               style="stroke:none"
               d="M 3,-1.59375 C 3,-1.953125 3,-3.3125 1.6875,-3.3125 c -1.296875,0 -1.296875,1.359375 -1.296875,1.71875 0,0.359375 0,1.703125 1.296875,1.703125 C 3,0.109375 3,-1.234375 3,-1.59375 z M 1.6875,-0.0625 C 1.515625,-0.0625 1.09375,-0.125 0.96875,-0.625 0.890625,-0.890625 0.890625,-1.25 0.890625,-1.65625 c 0,-0.375 0,-0.71875 0.078125,-1 0.125,-0.421875 0.515625,-0.5 0.71875,-0.5 0.375,0 0.640625,0.1875 0.734375,0.546875 C 2.5,-2.359375 2.5,-1.953125 2.5,-1.65625 c 0,0.34375 0,0.75 -0.078125,1.046875 C 2.296875,-0.125 1.890625,-0.0625 1.6875,-0.0625 z m 0,0"
               id="path5527" />
          </symbol>
        </g>
      </defs>
      <g
         id="textext-04862437-9">
        <g
           style="fill:#000000;fill-opacity:1"
           id="g5530">
          <use
             height="1052.3622"
             width="744.09448"
             xlink:href="#textext-04862437-0"
             x="223.43201"
             y="134.765"
             id="use5532" />
        </g>
        <g
           style="fill:#000000;fill-opacity:1"
           id="g5534">
          <use
             height="1052.3622"
             width="744.09448"
             xlink:href="#textext-04862437-2"
             x="229.12601"
             y="136.259"
             id="use5536" />
        </g>
        <g
           style="fill:#000000;fill-opacity:1"
           id="g5538">
          <use
             height="1052.3622"
             width="744.09448"
             xlink:href="#textext-04862437-4"
             x="236.36301"
             y="134.765"
             id="use5540" />
        </g>
        <g
           style="fill:#000000;fill-opacity:1"
           id="g5542">
          <use
             height="1052.3622"
             width="744.09448"
             xlink:href="#textext-04862437-0"
             x="246.879"
             y="134.765"
             id="use5544" />
        </g>
        <g
           style="fill:#000000;fill-opacity:1"
           id="g5546">
          <use
             height="1052.3622"
             width="744.09448"
             xlink:href="#textext-04862437-3"
             x="252.573"
             y="136.259"
             id="use5548" />
        </g>
        <g
           style="fill:#000000;fill-opacity:1"
           id="g5550">
          <use
             height="1052.3622"
             width="744.09448"
             xlink:href="#textext-04862437-5"
             x="259.25601"
             y="134.765"
             id="use5552" />
        </g>
        <g
           style="fill:#000000;fill-opacity:1"
           id="g5554">
          <use
             height="1052.3622"
             width="744.09448"
             xlink:href="#textext-04862437-6"
             x="269.21661"
             y="134.765"
             id="use5556" />
        </g>
        <g
           style="fill:#000000;fill-opacity:1"
           id="g5558">
          <use
             height="1052.3622"
             width="744.09448"
             xlink:href="#textext-04862437-7"
             x="277.521"
             y="136.259"
             id="use5560" />
        </g>
        <g
           style="fill:#000000;fill-opacity:1"
           id="g5562">
          <use
             height="1052.3622"
             width="744.09448"
             xlink:href="#textext-04862437-8"
             x="282.039"
             y="137.255"
             id="use5564" />
        </g>
        <g
           style="fill:#000000;fill-opacity:1"
           id="g5566">
          <use
             height="1052.3622"
             width="744.09448"
             xlink:href="#textext-04862437-1"
             x="286.42499"
             y="134.765"
             id="use5568" />
        </g>
      </g>
    </g>
    <path
       inkscape:connector-curvature="0"
       id="path5757"
       d="m 0,932.36218 0,-200 -840,0"
       style="fill:none;stroke:#000000;stroke-width:2;stroke-linecap:butt;stroke-linejoin:miter;stroke-opacity:1;stroke-miterlimit:4;stroke-dasharray:none" />
    <g
       id="g5957"
       transform="matrix(7,0,0,7,-2595.3125,-193.93915)"
       ns0:preamble="/home/francois/Documents/Mypapers/InkscapeHeader/header.inc"
       ns0:text="$f(x_1)$">
      <defs
         id="defs5959">
        <g
           id="g5961">
          <symbol
             id="textext-13ea08f0-0"
             overflow="visible"
             style="overflow:visible">
            <path
               id="path5964"
               d="m 3.65625,-3.984375 0.859375,0 c 0.203125,0 0.296875,0 0.296875,-0.203125 0,-0.109375 -0.09375,-0.109375 -0.265625,-0.109375 l -0.828125,0 0.203125,-1.140625 c 0.046875,-0.203125 0.1875,-0.90625 0.25,-1.03125 0.078125,-0.1875 0.25,-0.34375 0.46875,-0.34375 0.03125,0 0.296875,0 0.484375,0.1875 -0.4375,0.03125 -0.546875,0.390625 -0.546875,0.53125 0,0.234375 0.1875,0.359375 0.375,0.359375 C 5.21875,-5.734375 5.5,-5.96875 5.5,-6.34375 c 0,-0.453125 -0.453125,-0.6875 -0.859375,-0.6875 -0.34375,0 -0.96875,0.1875 -1.265625,1.171875 -0.0625,0.203125 -0.09375,0.3125 -0.328125,1.5625 l -0.6875,0 c -0.203125,0 -0.3125,0 -0.3125,0.1875 0,0.125 0.09375,0.125 0.28125,0.125 l 0.65625,0 -0.734375,3.9375 c -0.1875,0.96875 -0.359375,1.875 -0.875,1.875 -0.046875,0 -0.28125,0 -0.484375,-0.1875 C 1.359375,1.609375 1.453125,1.25 1.453125,1.109375 1.453125,0.875 1.265625,0.75 1.078125,0.75 0.8125,0.75 0.53125,0.984375 0.53125,1.359375 c 0,0.4375 0.4375,0.6875 0.84375,0.6875 0.546875,0 0.953125,-0.59375 1.125,-0.96875 0.328125,-0.625 0.546875,-1.828125 0.5625,-1.90625 z m 0,0"
               style="stroke:none"
               inkscape:connector-curvature="0" />
          </symbol>
          <symbol
             id="textext-13ea08f0-1"
             overflow="visible"
             style="overflow:visible">
            <path
               id="path5967"
               d="M 3.328125,-3.015625 C 3.390625,-3.265625 3.625,-4.1875 4.3125,-4.1875 c 0.046875,0 0.296875,0 0.5,0.125 C 4.53125,-4 4.34375,-3.765625 4.34375,-3.515625 c 0,0.15625 0.109375,0.34375 0.375,0.34375 0.21875,0 0.53125,-0.171875 0.53125,-0.578125 0,-0.515625 -0.578125,-0.65625 -0.921875,-0.65625 -0.578125,0 -0.921875,0.53125 -1.046875,0.75 -0.25,-0.65625 -0.78125,-0.75 -1.078125,-0.75 -1.03125,0 -1.609375,1.28125 -1.609375,1.53125 0,0.109375 0.109375,0.109375 0.125,0.109375 0.078125,0 0.109375,-0.03125 0.125,-0.109375 0.34375,-1.0625 1,-1.3125 1.34375,-1.3125 0.1875,0 0.53125,0.09375 0.53125,0.671875 0,0.3125 -0.171875,0.96875 -0.53125,2.375 -0.15625,0.609375 -0.515625,1.03125 -0.953125,1.03125 -0.0625,0 -0.28125,0 -0.5,-0.125 0.25,-0.0625 0.46875,-0.265625 0.46875,-0.546875 0,-0.265625 -0.21875,-0.34375 -0.359375,-0.34375 -0.3125,0 -0.546875,0.25 -0.546875,0.578125 0,0.453125 0.484375,0.65625 0.921875,0.65625 0.671875,0 1.03125,-0.703125 1.046875,-0.75 0.125,0.359375 0.484375,0.75 1.078125,0.75 1.03125,0 1.59375,-1.28125 1.59375,-1.53125 0,-0.109375 -0.078125,-0.109375 -0.109375,-0.109375 -0.09375,0 -0.109375,0.046875 -0.140625,0.109375 -0.328125,1.078125 -1,1.3125 -1.3125,1.3125 -0.390625,0 -0.546875,-0.3125 -0.546875,-0.65625 0,-0.21875 0.046875,-0.4375 0.15625,-0.875 z m 0,0"
               style="stroke:none"
               inkscape:connector-curvature="0" />
          </symbol>
          <symbol
             id="textext-13ea08f0-2"
             overflow="visible"
             style="overflow:visible">
            <path
               id="path5970"
               d="m 3.296875,2.390625 c 0,-0.03125 0,-0.046875 -0.171875,-0.21875 C 1.890625,0.921875 1.5625,-0.96875 1.5625,-2.5 c 0,-1.734375 0.375,-3.46875 1.609375,-4.703125 0.125,-0.125 0.125,-0.140625 0.125,-0.171875 0,-0.078125 -0.03125,-0.109375 -0.09375,-0.109375 -0.109375,0 -1,0.6875 -1.59375,1.953125 -0.5,1.09375 -0.625,2.203125 -0.625,3.03125 0,0.78125 0.109375,1.984375 0.65625,3.125 C 2.25,1.84375 3.09375,2.5 3.203125,2.5 c 0.0625,0 0.09375,-0.03125 0.09375,-0.109375 z m 0,0"
               style="stroke:none"
               inkscape:connector-curvature="0" />
          </symbol>
          <symbol
             id="textext-13ea08f0-3"
             overflow="visible"
             style="overflow:visible">
            <path
               id="path5973"
               d="m 2.875,-2.5 c 0,-0.765625 -0.109375,-1.96875 -0.65625,-3.109375 -0.59375,-1.21875 -1.453125,-1.875 -1.546875,-1.875 -0.0625,0 -0.109375,0.046875 -0.109375,0.109375 0,0.03125 0,0.046875 0.1875,0.234375 0.984375,0.984375 1.546875,2.5625 1.546875,4.640625 0,1.71875 -0.359375,3.46875 -1.59375,4.71875 C 0.5625,2.34375 0.5625,2.359375 0.5625,2.390625 0.5625,2.453125 0.609375,2.5 0.671875,2.5 0.765625,2.5 1.671875,1.8125 2.25,0.546875 2.765625,-0.546875 2.875,-1.65625 2.875,-2.5 z m 0,0"
               style="stroke:none"
               inkscape:connector-curvature="0" />
          </symbol>
          <symbol
             id="textext-13ea08f0-4"
             overflow="visible"
             style="overflow:visible">
            <path
               id="path5976"
               d="m 2.328125,-4.4375 c 0,-0.1875 0,-0.1875 -0.203125,-0.1875 -0.453125,0.4375 -1.078125,0.4375 -1.359375,0.4375 l 0,0.25 c 0.15625,0 0.625,0 1,-0.1875 l 0,3.546875 c 0,0.234375 0,0.328125 -0.6875,0.328125 l -0.265625,0 0,0.25 c 0.125,0 0.984375,-0.03125 1.234375,-0.03125 0.21875,0 1.09375,0.03125 1.25,0.03125 l 0,-0.25 -0.265625,0 c -0.703125,0 -0.703125,-0.09375 -0.703125,-0.328125 z m 0,0"
               style="stroke:none"
               inkscape:connector-curvature="0" />
          </symbol>
        </g>
      </defs>
      <g
         id="textext-13ea08f0-5">
        <g
           id="g5979"
           style="fill:#000000;fill-opacity:1">
          <use
             id="use5981"
             y="134.765"
             x="223.43201"
             xlink:href="#textext-13ea08f0-0"
             width="744.09448"
             height="1052.3622" />
        </g>
        <g
           id="g5983"
           style="fill:#000000;fill-opacity:1">
          <use
             id="use5985"
             y="134.765"
             x="229.382"
             xlink:href="#textext-13ea08f0-2"
             width="744.09448"
             height="1052.3622" />
        </g>
        <g
           id="g5987"
           style="fill:#000000;fill-opacity:1">
          <use
             id="use5989"
             y="134.765"
             x="233.256"
             xlink:href="#textext-13ea08f0-1"
             width="744.09448"
             height="1052.3622" />
        </g>
        <g
           id="g5991"
           style="fill:#000000;fill-opacity:1">
          <use
             id="use5993"
             y="136.259"
             x="238.95"
             xlink:href="#textext-13ea08f0-4"
             width="744.09448"
             height="1052.3622" />
        </g>
        <g
           id="g5995"
           style="fill:#000000;fill-opacity:1">
          <use
             id="use5997"
             y="134.765"
             x="243.42"
             xlink:href="#textext-13ea08f0-3"
             width="744.09448"
             height="1052.3622" />
        </g>
      </g>
    </g>
  </g>
  <g
     inkscape:transform-center-y="593.5475"
     inkscape:transform-center-x="-350.25889"
     transform="matrix(7,0,0,7,-514.67187,-587.49719)"
     ns0:text="$f(x)$"
     ns0:preamble="/home/francois/Documents/Mypapers/InkscapeHeader/header.inc"
     id="g3841">
    <defs
       id="defs3843">
      <g
         id="g3845">
        <symbol
           style="overflow:visible"
           overflow="visible"
           id="textext-4529278f-0">
          <path
             inkscape:connector-curvature="0"
             style="stroke:none"
             d="m 3.65625,-3.984375 0.859375,0 c 0.203125,0 0.296875,0 0.296875,-0.203125 0,-0.109375 -0.09375,-0.109375 -0.265625,-0.109375 l -0.828125,0 0.203125,-1.140625 c 0.046875,-0.203125 0.1875,-0.90625 0.25,-1.03125 0.078125,-0.1875 0.25,-0.34375 0.46875,-0.34375 0.03125,0 0.296875,0 0.484375,0.1875 -0.4375,0.03125 -0.546875,0.390625 -0.546875,0.53125 0,0.234375 0.1875,0.359375 0.375,0.359375 C 5.21875,-5.734375 5.5,-5.96875 5.5,-6.34375 c 0,-0.453125 -0.453125,-0.6875 -0.859375,-0.6875 -0.34375,0 -0.96875,0.1875 -1.265625,1.171875 -0.0625,0.203125 -0.09375,0.3125 -0.328125,1.5625 l -0.6875,0 c -0.203125,0 -0.3125,0 -0.3125,0.1875 0,0.125 0.09375,0.125 0.28125,0.125 l 0.65625,0 -0.734375,3.9375 c -0.1875,0.96875 -0.359375,1.875 -0.875,1.875 -0.046875,0 -0.28125,0 -0.484375,-0.1875 C 1.359375,1.609375 1.453125,1.25 1.453125,1.109375 1.453125,0.875 1.265625,0.75 1.078125,0.75 0.8125,0.75 0.53125,0.984375 0.53125,1.359375 c 0,0.4375 0.4375,0.6875 0.84375,0.6875 0.546875,0 0.953125,-0.59375 1.125,-0.96875 0.328125,-0.625 0.546875,-1.828125 0.5625,-1.90625 z m 0,0"
             id="path3848" />
        </symbol>
        <symbol
           style="overflow:visible"
           overflow="visible"
           id="textext-4529278f-1">
          <path
             inkscape:connector-curvature="0"
             style="stroke:none"
             d="M 3.328125,-3.015625 C 3.390625,-3.265625 3.625,-4.1875 4.3125,-4.1875 c 0.046875,0 0.296875,0 0.5,0.125 C 4.53125,-4 4.34375,-3.765625 4.34375,-3.515625 c 0,0.15625 0.109375,0.34375 0.375,0.34375 0.21875,0 0.53125,-0.171875 0.53125,-0.578125 0,-0.515625 -0.578125,-0.65625 -0.921875,-0.65625 -0.578125,0 -0.921875,0.53125 -1.046875,0.75 -0.25,-0.65625 -0.78125,-0.75 -1.078125,-0.75 -1.03125,0 -1.609375,1.28125 -1.609375,1.53125 0,0.109375 0.109375,0.109375 0.125,0.109375 0.078125,0 0.109375,-0.03125 0.125,-0.109375 0.34375,-1.0625 1,-1.3125 1.34375,-1.3125 0.1875,0 0.53125,0.09375 0.53125,0.671875 0,0.3125 -0.171875,0.96875 -0.53125,2.375 -0.15625,0.609375 -0.515625,1.03125 -0.953125,1.03125 -0.0625,0 -0.28125,0 -0.5,-0.125 0.25,-0.0625 0.46875,-0.265625 0.46875,-0.546875 0,-0.265625 -0.21875,-0.34375 -0.359375,-0.34375 -0.3125,0 -0.546875,0.25 -0.546875,0.578125 0,0.453125 0.484375,0.65625 0.921875,0.65625 0.671875,0 1.03125,-0.703125 1.046875,-0.75 0.125,0.359375 0.484375,0.75 1.078125,0.75 1.03125,0 1.59375,-1.28125 1.59375,-1.53125 0,-0.109375 -0.078125,-0.109375 -0.109375,-0.109375 -0.09375,0 -0.109375,0.046875 -0.140625,0.109375 -0.328125,1.078125 -1,1.3125 -1.3125,1.3125 -0.390625,0 -0.546875,-0.3125 -0.546875,-0.65625 0,-0.21875 0.046875,-0.4375 0.15625,-0.875 z m 0,0"
             id="path3851" />
        </symbol>
        <symbol
           style="overflow:visible"
           overflow="visible"
           id="textext-4529278f-2">
          <path
             inkscape:connector-curvature="0"
             style="stroke:none"
             d="m 3.296875,2.390625 c 0,-0.03125 0,-0.046875 -0.171875,-0.21875 C 1.890625,0.921875 1.5625,-0.96875 1.5625,-2.5 c 0,-1.734375 0.375,-3.46875 1.609375,-4.703125 0.125,-0.125 0.125,-0.140625 0.125,-0.171875 0,-0.078125 -0.03125,-0.109375 -0.09375,-0.109375 -0.109375,0 -1,0.6875 -1.59375,1.953125 -0.5,1.09375 -0.625,2.203125 -0.625,3.03125 0,0.78125 0.109375,1.984375 0.65625,3.125 C 2.25,1.84375 3.09375,2.5 3.203125,2.5 c 0.0625,0 0.09375,-0.03125 0.09375,-0.109375 z m 0,0"
             id="path3854" />
        </symbol>
        <symbol
           style="overflow:visible"
           overflow="visible"
           id="textext-4529278f-3">
          <path
             inkscape:connector-curvature="0"
             style="stroke:none"
             d="m 2.875,-2.5 c 0,-0.765625 -0.109375,-1.96875 -0.65625,-3.109375 -0.59375,-1.21875 -1.453125,-1.875 -1.546875,-1.875 -0.0625,0 -0.109375,0.046875 -0.109375,0.109375 0,0.03125 0,0.046875 0.1875,0.234375 0.984375,0.984375 1.546875,2.5625 1.546875,4.640625 0,1.71875 -0.359375,3.46875 -1.59375,4.71875 C 0.5625,2.34375 0.5625,2.359375 0.5625,2.390625 0.5625,2.453125 0.609375,2.5 0.671875,2.5 0.765625,2.5 1.671875,1.8125 2.25,0.546875 2.765625,-0.546875 2.875,-1.65625 2.875,-2.5 z m 0,0"
             id="path3857" />
        </symbol>
      </g>
    </defs>
    <g
       id="textext-4529278f-4">
      <g
         style="fill:#000000;fill-opacity:1"
         id="g3860">
        <use
           height="1052.3622"
           width="744.09448"
           xlink:href="#textext-4529278f-0"
           x="223.43201"
           y="134.765"
           id="use3862" />
      </g>
      <g
         style="fill:#000000;fill-opacity:1"
         id="g3864">
        <use
           height="1052.3622"
           width="744.09448"
           xlink:href="#textext-4529278f-2"
           x="229.382"
           y="134.765"
           id="use3866" />
      </g>
      <g
         style="fill:#000000;fill-opacity:1"
         id="g3868">
        <use
           height="1052.3622"
           width="744.09448"
           xlink:href="#textext-4529278f-1"
           x="233.256"
           y="134.765"
           id="use3870" />
      </g>
      <g
         style="fill:#000000;fill-opacity:1"
         id="g3872">
        <use
           height="1052.3622"
           width="744.09448"
           xlink:href="#textext-4529278f-3"
           x="238.95"
           y="134.765"
           id="use3874" />
      </g>
    </g>
  </g>
</svg>
