<?xml version="1.0" encoding="UTF-8" standalone="no"?>
<!-- Created with Inkscape (http://www.inkscape.org/) -->

<svg
   xmlns:ns0="http://www.iki.fi/pav/software/textext/"
   xmlns:dc="http://purl.org/dc/elements/1.1/"
   xmlns:cc="http://creativecommons.org/ns#"
   xmlns:rdf="http://www.w3.org/1999/02/22-rdf-syntax-ns#"
   xmlns:svg="http://www.w3.org/2000/svg"
   xmlns="http://www.w3.org/2000/svg"
   xmlns:xlink="http://www.w3.org/1999/xlink"
   xmlns:sodipodi="http://sodipodi.sourceforge.net/DTD/sodipodi-0.dtd"
   xmlns:inkscape="http://www.inkscape.org/namespaces/inkscape"
   width="744.09448819"
   height="1052.3622047"
   id="svg3766"
   version="1.1"
   inkscape:version="0.48.3.1 r9886"
   sodipodi:docname="pinholecameramotionocclusion.svg"
   inkscape:export-filename="/home/francois/Documents/Courses/VisionAndImageProcessing/lectures/Francois/FIGURES/pinholecameramotionocclusion.png"
   inkscape:export-xdpi="90"
   inkscape:export-ydpi="90">
  <sodipodi:namedview
     id="base"
     pagecolor="#ffffff"
     bordercolor="#ffffff"
     borderopacity="0.0"
     inkscape:pageopacity="0.0"
     inkscape:pageshadow="0"
     inkscape:zoom="0.49497474"
     inkscape:cx="149.31718"
     inkscape:cy="835.1598"
     inkscape:document-units="px"
     inkscape:current-layer="layer1"
     showgrid="false"
     inkscape:window-width="1680"
     inkscape:window-height="1026"
     inkscape:window-x="0"
     inkscape:window-y="24"
     inkscape:window-maximized="1">
    <inkscape:grid
       id="grid3774"
       type="xygrid" />
  </sodipodi:namedview>
  <defs
     id="defs3768">
    <marker
       inkscape:stockid="Arrow1Mend"
       orient="auto"
       refY="0.0"
       refX="0.0"
       id="Arrow1Mend"
       style="overflow:visible;">
      <path
         id="path5437"
         d="M 0.0,0.0 L 5.0,-5.0 L -12.5,0.0 L 5.0,5.0 L 0.0,0.0 z "
         style="fill-rule:evenodd;stroke:#000000;stroke-width:1.0pt;"
         transform="scale(0.4) rotate(180) translate(10,0)" />
    </marker>
    <marker
       inkscape:stockid="Arrow1Lend"
       orient="auto"
       refY="0.0"
       refX="0.0"
       id="Arrow1Lend"
       style="overflow:visible;">
      <path
         id="path4355"
         d="M 0.0,0.0 L 5.0,-5.0 L -12.5,0.0 L 5.0,5.0 L 0.0,0.0 z "
         style="fill-rule:evenodd;stroke:#000000;stroke-width:1.0pt;"
         transform="scale(0.8) rotate(180) translate(12.5,0)" />
    </marker>
    <marker
       inkscape:stockid="Arrow1Lstart"
       orient="auto"
       refY="0.0"
       refX="0.0"
       id="Arrow1Lstart"
       style="overflow:visible">
      <path
         id="path4352"
         d="M 0.0,0.0 L 5.0,-5.0 L -12.5,0.0 L 5.0,5.0 L 0.0,0.0 z "
         style="fill-rule:evenodd;stroke:#000000;stroke-width:1.0pt"
         transform="scale(0.8) translate(12.5,0)" />
    </marker>
  </defs>
  <metadata
     id="metadata3771">
    <rdf:RDF>
      <cc:Work
         rdf:about="">
        <dc:format>image/svg+xml</dc:format>
        <dc:type
           rdf:resource="http://purl.org/dc/dcmitype/StillImage" />
        <dc:title></dc:title>
      </cc:Work>
    </rdf:RDF>
  </metadata>
  <g
     id="layer1"
     inkscape:groupmode="layer"
     inkscape:label="Layer 1">
    <rect
       transform="matrix(0.80198798,-0.59734018,0,1,0,0)"
       y="16.575014"
       x="-448.88452"
       height="825.65094"
       width="1147.1493"
       id="rect3776"
       style="fill:none;stroke:#000000;stroke-width:3.80492043;stroke-miterlimit:4;stroke-opacity:1;stroke-dasharray:none;stroke-dashoffset:0" />
    <path
       inkscape:connector-curvature="0"
       id="path3778"
       d="m -500,412.36218 0,-840"
       style="fill:none;stroke:#000000;stroke-width:3;stroke-linecap:butt;stroke-linejoin:miter;stroke-miterlimit:4;stroke-opacity:1;stroke-dasharray:none;marker-end:url(#Arrow1Lend)" />
    <path
       style="fill:none;stroke:#000000;stroke-width:3;stroke-linecap:butt;stroke-linejoin:miter;stroke-miterlimit:4;stroke-opacity:1;stroke-dasharray:none;marker-end:url(#Arrow1Lend)"
       d="m -500,412.36218 -727.4614,420"
       id="path4288"
       inkscape:connector-curvature="0" />
    <path
       inkscape:connector-curvature="0"
       id="path4290"
       d="m -505.05667,412.36219 142.97049,0"
       style="fill:none;stroke:#000000;stroke-width:3;stroke-linecap:butt;stroke-linejoin:miter;stroke-miterlimit:4;stroke-opacity:1;stroke-dasharray:none" />
    <path
       inkscape:connector-curvature="0"
       id="path4292"
       d="m 120,412.36218 -480,0"
       style="fill:none;stroke:#000000;stroke-width:3;stroke-linecap:butt;stroke-linejoin:miter;stroke-opacity:1;stroke-miterlimit:4;stroke-dasharray:24,24;stroke-dashoffset:0" />
    <path
       inkscape:connector-curvature="0"
       id="path4294"
       d="m 1240,412.36218 -1120,0"
       style="fill:none;stroke:#000000;stroke-width:3;stroke-linecap:butt;stroke-linejoin:miter;stroke-opacity:1;stroke-miterlimit:4;stroke-dasharray:none;marker-start:url(#Arrow1Lstart)" />
    <text
       sodipodi:linespacing="125%"
       id="text4296"
       y="355.21933"
       x="-782.85712"
       style="font-size:72px;font-style:normal;font-weight:normal;line-height:125%;letter-spacing:0px;word-spacing:0px;fill:#000000;fill-opacity:1;stroke:none;font-family:Sans"
       xml:space="preserve"><tspan
         y="355.21933"
         x="-782.85712"
         id="tspan4298"
         sodipodi:role="line" /></text>
    <g
       id="g4314"
       ns0:preamble="/home/francois/Documents/Mypapers/InkscapeHeader/header.inc"
       ns0:text="$O$"
       transform="matrix(8,0,0,8,-2372.2791,-672.41497)">
      <defs
         id="defs4316">
        <g
           id="g4318">
          <symbol
             id="textext-0db4b59d-0"
             overflow="visible"
             style="overflow:visible">
            <path
               id="path4321"
               d="m 7.375,-4.34375 c 0,-1.609375 -1.0625,-2.6875 -2.546875,-2.6875 -2.140625,0 -4.34375,2.265625 -4.34375,4.59375 0,1.65625 1.125,2.65625 2.5625,2.65625 2.109375,0 4.328125,-2.1875 4.328125,-4.5625 z m -4.28125,4.296875 c -0.984375,0 -1.671875,-0.796875 -1.671875,-2.109375 0,-0.453125 0.140625,-1.90625 0.90625,-3.0625 0.6875,-1.046875 1.65625,-1.5625 2.453125,-1.5625 0.8125,0 1.703125,0.5625 1.703125,2.046875 0,0.71875 -0.265625,2.265625 -1.25,3.5 C 4.75,-0.625 3.9375,-0.046875 3.09375,-0.046875 z m 0,0"
               style="stroke:none"
               inkscape:connector-curvature="0" />
          </symbol>
        </g>
      </defs>
      <g
         id="textext-0db4b59d-1">
        <g
           id="g4324"
           style="fill:#000000;fill-opacity:1">
          <use
             id="use4326"
             y="134.765"
             x="223.43201"
             xlink:href="#textext-0db4b59d-0"
             width="744.09448"
             height="1052.3622" />
        </g>
      </g>
    </g>
    <g
       transform="matrix(7,0,0,7,-2842.8571,-54.285714)"
       ns0:text="$x_w$"
       ns0:preamble="/home/francois/Documents/Mypapers/InkscapeHeader/header.inc"
       id="g5188">
      <defs
         id="defs5190">
        <g
           id="g5192">
          <symbol
             style="overflow:visible"
             overflow="visible"
             id="textext-e638bcd4-0">
            <path
               inkscape:connector-curvature="0"
               style="stroke:none"
               d="M 3.328125,-3.015625 C 3.390625,-3.265625 3.625,-4.1875 4.3125,-4.1875 c 0.046875,0 0.296875,0 0.5,0.125 C 4.53125,-4 4.34375,-3.765625 4.34375,-3.515625 c 0,0.15625 0.109375,0.34375 0.375,0.34375 0.21875,0 0.53125,-0.171875 0.53125,-0.578125 0,-0.515625 -0.578125,-0.65625 -0.921875,-0.65625 -0.578125,0 -0.921875,0.53125 -1.046875,0.75 -0.25,-0.65625 -0.78125,-0.75 -1.078125,-0.75 -1.03125,0 -1.609375,1.28125 -1.609375,1.53125 0,0.109375 0.109375,0.109375 0.125,0.109375 0.078125,0 0.109375,-0.03125 0.125,-0.109375 0.34375,-1.0625 1,-1.3125 1.34375,-1.3125 0.1875,0 0.53125,0.09375 0.53125,0.671875 0,0.3125 -0.171875,0.96875 -0.53125,2.375 -0.15625,0.609375 -0.515625,1.03125 -0.953125,1.03125 -0.0625,0 -0.28125,0 -0.5,-0.125 0.25,-0.0625 0.46875,-0.265625 0.46875,-0.546875 0,-0.265625 -0.21875,-0.34375 -0.359375,-0.34375 -0.3125,0 -0.546875,0.25 -0.546875,0.578125 0,0.453125 0.484375,0.65625 0.921875,0.65625 0.671875,0 1.03125,-0.703125 1.046875,-0.75 0.125,0.359375 0.484375,0.75 1.078125,0.75 1.03125,0 1.59375,-1.28125 1.59375,-1.53125 0,-0.109375 -0.078125,-0.109375 -0.109375,-0.109375 -0.09375,0 -0.109375,0.046875 -0.140625,0.109375 -0.328125,1.078125 -1,1.3125 -1.3125,1.3125 -0.390625,0 -0.546875,-0.3125 -0.546875,-0.65625 0,-0.21875 0.046875,-0.4375 0.15625,-0.875 z m 0,0"
               id="path5195" />
          </symbol>
          <symbol
             style="overflow:visible"
             overflow="visible"
             id="textext-e638bcd4-1">
            <path
               inkscape:connector-curvature="0"
               style="stroke:none"
               d="m 3.671875,-2.21875 c 0.046875,-0.1875 0.125,-0.53125 0.125,-0.5625 C 3.796875,-2.921875 3.6875,-3 3.5625,-3 3.4375,-3 3.3125,-2.921875 3.265625,-2.796875 3.25,-2.75 3.171875,-2.453125 3.125,-2.28125 3.03125,-1.875 3.03125,-1.875 2.921875,-1.484375 2.84375,-1.09375 2.828125,-1.03125 2.8125,-0.84375 2.84375,-0.703125 2.78125,-0.5625 2.625,-0.359375 2.53125,-0.25 2.390625,-0.125 2.15625,-0.125 1.875,-0.125 1.53125,-0.21875 1.53125,-0.765625 1.53125,-1.125 1.71875,-1.640625 1.859375,-2 1.984375,-2.296875 2,-2.359375 2,-2.484375 2,-2.8125 1.71875,-3.078125 1.34375,-3.078125 0.640625,-3.078125 0.328125,-2.125 0.328125,-2 c 0,0.078125 0.09375,0.078125 0.125,0.078125 0.09375,0 0.09375,-0.03125 0.125,-0.109375 C 0.75,-2.609375 1.046875,-2.875 1.328125,-2.875 1.4375,-2.875 1.5,-2.796875 1.5,-2.640625 c 0,0.171875 -0.0625,0.3125 -0.09375,0.40625 C 1,-1.21875 1,-1.078125 1,-0.859375 1,-0.03125 1.75,0.0625 2.125,0.0625 c 0.140625,0 0.46875,0 0.78125,-0.453125 C 3.078125,-0.078125 3.453125,0.0625 3.875,0.0625 4.5,0.0625 4.8125,-0.46875 4.953125,-0.75 5.25,-1.34375 5.4375,-2.203125 5.4375,-2.53125 c 0,-0.515625 -0.296875,-0.546875 -0.34375,-0.546875 -0.1875,0 -0.390625,0.1875 -0.390625,0.375 0,0.109375 0.078125,0.171875 0.125,0.203125 C 5,-2.359375 5.09375,-2.15625 5.09375,-1.9375 c 0,0.09375 -0.296875,1.8125 -1.1875,1.8125 -0.5625,0 -0.5625,-0.5 -0.5625,-0.625 0,-0.1875 0.03125,-0.296875 0.125,-0.6875 z m 0,0"
               id="path5198" />
          </symbol>
        </g>
      </defs>
      <g
         id="textext-e638bcd4-2">
        <g
           style="fill:#000000;fill-opacity:1"
           id="g5201">
          <use
             height="1052.3622"
             width="744.09448"
             xlink:href="#textext-e638bcd4-0"
             x="223.43201"
             y="134.765"
             id="use5203" />
        </g>
        <g
           style="fill:#000000;fill-opacity:1"
           id="g5205">
          <use
             height="1052.3622"
             width="744.09448"
             xlink:href="#textext-e638bcd4-1"
             x="229.12601"
             y="136.259"
             id="use5207" />
        </g>
      </g>
    </g>
    <g
       id="g5307"
       transform="matrix(7,0,0,7,-2017.1428,-1362.8571)"
       ns0:preamble="/home/francois/Documents/Mypapers/InkscapeHeader/header.inc"
       ns0:text="$y_w$">
      <defs
         id="defs5309">
        <g
           id="g5311">
          <symbol
             id="textext-433b9b92-0"
             overflow="visible"
             style="overflow:visible">
            <path
               id="path5314"
               d="m 4.84375,-3.796875 c 0.046875,-0.140625 0.046875,-0.15625 0.046875,-0.234375 0,-0.171875 -0.140625,-0.265625 -0.296875,-0.265625 -0.09375,0 -0.25,0.0625 -0.34375,0.203125 -0.015625,0.0625 -0.109375,0.359375 -0.140625,0.546875 -0.078125,0.25 -0.140625,0.53125 -0.203125,0.796875 l -0.453125,1.796875 c -0.03125,0.140625 -0.46875,0.84375 -1.125,0.84375 -0.5,0 -0.609375,-0.4375 -0.609375,-0.8125 C 1.71875,-1.375 1.890625,-2 2.21875,-2.875 2.375,-3.28125 2.421875,-3.390625 2.421875,-3.59375 c 0,-0.4375 -0.3125,-0.8125 -0.8125,-0.8125 -0.953125,0 -1.3125,1.453125 -1.3125,1.53125 0,0.109375 0.09375,0.109375 0.109375,0.109375 0.109375,0 0.109375,-0.03125 0.15625,-0.1875 0.28125,-0.9375 0.671875,-1.234375 1.015625,-1.234375 0.078125,0 0.25,0 0.25,0.3125 0,0.25 -0.109375,0.515625 -0.171875,0.703125 -0.40625,1.0625 -0.578125,1.625 -0.578125,2.09375 0,0.890625 0.625,1.1875 1.21875,1.1875 0.390625,0 0.71875,-0.171875 1,-0.453125 -0.125,0.515625 -0.25,1.015625 -0.640625,1.546875 -0.265625,0.328125 -0.640625,0.625 -1.09375,0.625 -0.140625,0 -0.59375,-0.03125 -0.765625,-0.421875 0.15625,0 0.296875,0 0.421875,-0.125 C 1.328125,1.203125 1.421875,1.0625 1.421875,0.875 1.421875,0.5625 1.15625,0.53125 1.0625,0.53125 0.828125,0.53125 0.5,0.6875 0.5,1.171875 c 0,0.5 0.4375,0.875 1.0625,0.875 1.015625,0 2.046875,-0.90625 2.328125,-2.03125 z m 0,0"
               style="stroke:none"
               inkscape:connector-curvature="0" />
          </symbol>
          <symbol
             id="textext-433b9b92-1"
             overflow="visible"
             style="overflow:visible">
            <path
               id="path5317"
               d="m 3.671875,-2.21875 c 0.046875,-0.1875 0.125,-0.53125 0.125,-0.5625 C 3.796875,-2.921875 3.6875,-3 3.5625,-3 3.4375,-3 3.3125,-2.921875 3.265625,-2.796875 3.25,-2.75 3.171875,-2.453125 3.125,-2.28125 3.03125,-1.875 3.03125,-1.875 2.921875,-1.484375 2.84375,-1.09375 2.828125,-1.03125 2.8125,-0.84375 2.84375,-0.703125 2.78125,-0.5625 2.625,-0.359375 2.53125,-0.25 2.390625,-0.125 2.15625,-0.125 1.875,-0.125 1.53125,-0.21875 1.53125,-0.765625 1.53125,-1.125 1.71875,-1.640625 1.859375,-2 1.984375,-2.296875 2,-2.359375 2,-2.484375 2,-2.8125 1.71875,-3.078125 1.34375,-3.078125 0.640625,-3.078125 0.328125,-2.125 0.328125,-2 c 0,0.078125 0.09375,0.078125 0.125,0.078125 0.09375,0 0.09375,-0.03125 0.125,-0.109375 C 0.75,-2.609375 1.046875,-2.875 1.328125,-2.875 1.4375,-2.875 1.5,-2.796875 1.5,-2.640625 c 0,0.171875 -0.0625,0.3125 -0.09375,0.40625 C 1,-1.21875 1,-1.078125 1,-0.859375 1,-0.03125 1.75,0.0625 2.125,0.0625 c 0.140625,0 0.46875,0 0.78125,-0.453125 C 3.078125,-0.078125 3.453125,0.0625 3.875,0.0625 4.5,0.0625 4.8125,-0.46875 4.953125,-0.75 5.25,-1.34375 5.4375,-2.203125 5.4375,-2.53125 c 0,-0.515625 -0.296875,-0.546875 -0.34375,-0.546875 -0.1875,0 -0.390625,0.1875 -0.390625,0.375 0,0.109375 0.078125,0.171875 0.125,0.203125 C 5,-2.359375 5.09375,-2.15625 5.09375,-1.9375 c 0,0.09375 -0.296875,1.8125 -1.1875,1.8125 -0.5625,0 -0.5625,-0.5 -0.5625,-0.625 0,-0.1875 0.03125,-0.296875 0.125,-0.6875 z m 0,0"
               style="stroke:none"
               inkscape:connector-curvature="0" />
          </symbol>
        </g>
      </defs>
      <g
         id="textext-433b9b92-2">
        <g
           id="g5320"
           style="fill:#000000;fill-opacity:1">
          <use
             id="use5322"
             y="134.765"
             x="223.43201"
             xlink:href="#textext-433b9b92-0"
             width="744.09448"
             height="1052.3622" />
        </g>
        <g
           id="g5324"
           style="fill:#000000;fill-opacity:1">
          <use
             id="use5326"
             y="136.259"
             x="228.317"
             xlink:href="#textext-433b9b92-1"
             width="744.09448"
             height="1052.3622" />
        </g>
      </g>
    </g>
    <g
       ns0:text="$z_w$"
       ns0:preamble="/home/francois/Documents/Mypapers/InkscapeHeader/header.inc"
       transform="matrix(7,0,0,7,-265.71423,-525.71424)"
       id="g5450">
      <defs
         id="defs5452">
        <g
           id="g5454">
          <symbol
             overflow="visible"
             id="textext-e0a3a07d-0">
            <path
               style="stroke:none;"
               d="M 1.328125 -0.828125 C 1.859375 -1.40625 2.15625 -1.65625 2.515625 -1.96875 C 2.515625 -1.96875 3.125 -2.5 3.484375 -2.859375 C 4.4375 -3.78125 4.65625 -4.265625 4.65625 -4.3125 C 4.65625 -4.40625 4.5625 -4.40625 4.546875 -4.40625 C 4.46875 -4.40625 4.453125 -4.390625 4.390625 -4.296875 C 4.09375 -3.8125 3.890625 -3.65625 3.65625 -3.65625 C 3.40625 -3.65625 3.296875 -3.8125 3.140625 -3.984375 C 2.953125 -4.203125 2.78125 -4.40625 2.453125 -4.40625 C 1.703125 -4.40625 1.25 -3.484375 1.25 -3.265625 C 1.25 -3.21875 1.28125 -3.15625 1.359375 -3.15625 C 1.453125 -3.15625 1.46875 -3.203125 1.5 -3.265625 C 1.6875 -3.734375 2.265625 -3.734375 2.34375 -3.734375 C 2.546875 -3.734375 2.734375 -3.671875 2.96875 -3.59375 C 3.375 -3.4375 3.484375 -3.4375 3.734375 -3.4375 C 3.375 -3.015625 2.546875 -2.296875 2.359375 -2.140625 L 1.453125 -1.296875 C 0.78125 -0.625 0.421875 -0.0625 0.421875 0.015625 C 0.421875 0.109375 0.53125 0.109375 0.546875 0.109375 C 0.625 0.109375 0.640625 0.09375 0.703125 -0.015625 C 0.9375 -0.375 1.234375 -0.640625 1.5625 -0.640625 C 1.78125 -0.640625 1.890625 -0.546875 2.140625 -0.265625 C 2.296875 -0.046875 2.484375 0.109375 2.765625 0.109375 C 3.765625 0.109375 4.34375 -1.15625 4.34375 -1.421875 C 4.34375 -1.46875 4.296875 -1.53125 4.21875 -1.53125 C 4.125 -1.53125 4.109375 -1.46875 4.078125 -1.390625 C 3.84375 -0.75 3.203125 -0.5625 2.875 -0.5625 C 2.6875 -0.5625 2.5 -0.625 2.296875 -0.6875 C 1.953125 -0.8125 1.796875 -0.859375 1.59375 -0.859375 C 1.578125 -0.859375 1.421875 -0.859375 1.328125 -0.828125 Z M 1.328125 -0.828125 "
               id="path5457" />
          </symbol>
          <symbol
             overflow="visible"
             id="textext-e0a3a07d-1">
            <path
               style="stroke:none;"
               d="M 3.671875 -2.21875 C 3.71875 -2.40625 3.796875 -2.75 3.796875 -2.78125 C 3.796875 -2.921875 3.6875 -3 3.5625 -3 C 3.4375 -3 3.3125 -2.921875 3.265625 -2.796875 C 3.25 -2.75 3.171875 -2.453125 3.125 -2.28125 C 3.03125 -1.875 3.03125 -1.875 2.921875 -1.484375 C 2.84375 -1.09375 2.828125 -1.03125 2.8125 -0.84375 C 2.84375 -0.703125 2.78125 -0.5625 2.625 -0.359375 C 2.53125 -0.25 2.390625 -0.125 2.15625 -0.125 C 1.875 -0.125 1.53125 -0.21875 1.53125 -0.765625 C 1.53125 -1.125 1.71875 -1.640625 1.859375 -2 C 1.984375 -2.296875 2 -2.359375 2 -2.484375 C 2 -2.8125 1.71875 -3.078125 1.34375 -3.078125 C 0.640625 -3.078125 0.328125 -2.125 0.328125 -2 C 0.328125 -1.921875 0.421875 -1.921875 0.453125 -1.921875 C 0.546875 -1.921875 0.546875 -1.953125 0.578125 -2.03125 C 0.75 -2.609375 1.046875 -2.875 1.328125 -2.875 C 1.4375 -2.875 1.5 -2.796875 1.5 -2.640625 C 1.5 -2.46875 1.4375 -2.328125 1.40625 -2.234375 C 1 -1.21875 1 -1.078125 1 -0.859375 C 1 -0.03125 1.75 0.0625 2.125 0.0625 C 2.265625 0.0625 2.59375 0.0625 2.90625 -0.390625 C 3.078125 -0.078125 3.453125 0.0625 3.875 0.0625 C 4.5 0.0625 4.8125 -0.46875 4.953125 -0.75 C 5.25 -1.34375 5.4375 -2.203125 5.4375 -2.53125 C 5.4375 -3.046875 5.140625 -3.078125 5.09375 -3.078125 C 4.90625 -3.078125 4.703125 -2.890625 4.703125 -2.703125 C 4.703125 -2.59375 4.78125 -2.53125 4.828125 -2.5 C 5 -2.359375 5.09375 -2.15625 5.09375 -1.9375 C 5.09375 -1.84375 4.796875 -0.125 3.90625 -0.125 C 3.34375 -0.125 3.34375 -0.625 3.34375 -0.75 C 3.34375 -0.9375 3.375 -1.046875 3.46875 -1.4375 Z M 3.671875 -2.21875 "
               id="path5460" />
          </symbol>
        </g>
      </defs>
      <g
         id="textext-e0a3a07d-2">
        <g
           style="fill:rgb(0%,0%,0%);fill-opacity:1;"
           id="g5463">
          <use
             xlink:href="#textext-e0a3a07d-0"
             x="223.432"
             y="134.765"
             id="use5465" />
        </g>
        <g
           style="fill:rgb(0%,0%,0%);fill-opacity:1;"
           id="g5467">
          <use
             xlink:href="#textext-e0a3a07d-1"
             x="228.065"
             y="136.259"
             id="use5469" />
        </g>
      </g>
    </g>
    <path
       transform="matrix(1.4438977,0,0,1,2093.4535,640)"
       d="m -1377.1429,-227.63782 a 5.7142859,8.5714283 0 1 1 -11.4286,0 5.7142859,8.5714283 0 1 1 11.4286,0 z"
       sodipodi:ry="8.5714283"
       sodipodi:rx="5.7142859"
       sodipodi:cy="-227.63782"
       sodipodi:cx="-1382.8572"
       id="path5531"
       style="fill:#000000;fill-opacity:1;stroke:#000000;stroke-width:3;stroke-miterlimit:4;stroke-opacity:1;stroke-dasharray:none;stroke-dashoffset:0"
       sodipodi:type="arc" />
    <g
       id="g5672"
       ns0:preamble="/home/francois/Documents/Mypapers/InkscapeHeader/header.inc"
       ns0:text="$P$"
       transform="matrix(7,0,0,7,-1433.4184,-569.23695)">
      <defs
         id="defs5674">
        <g
           id="g5676">
          <symbol
             id="textext-2b6f414f-0"
             overflow="visible"
             style="overflow:visible">
            <path
               id="path5679"
               d="m 3.015625,-3.15625 1.703125,0 c 1.40625,0 2.796875,-1.03125 2.796875,-2.140625 0,-0.78125 -0.65625,-1.515625 -1.96875,-1.515625 l -3.21875,0 c -0.1875,0 -0.296875,0 -0.296875,0.1875 0,0.125 0.078125,0.125 0.28125,0.125 0.125,0 0.3125,0.015625 0.421875,0.015625 0.171875,0.03125 0.21875,0.046875 0.21875,0.171875 0,0.03125 0,0.0625 -0.03125,0.1875 l -1.34375,5.34375 c -0.09375,0.390625 -0.109375,0.46875 -0.90625,0.46875 -0.15625,0 -0.265625,0 -0.265625,0.1875 C 0.40625,0 0.515625,0 0.546875,0 0.828125,0 1.53125,-0.03125 1.8125,-0.03125 c 0.21875,0 0.4375,0.015625 0.640625,0.015625 0.21875,0 0.4375,0.015625 0.640625,0.015625 0.078125,0 0.203125,0 0.203125,-0.203125 0,-0.109375 -0.09375,-0.109375 -0.28125,-0.109375 -0.359375,0 -0.640625,0 -0.640625,-0.171875 0,-0.0625 0.015625,-0.109375 0.03125,-0.171875 z M 3.734375,-6.125 C 3.828125,-6.46875 3.84375,-6.5 4.28125,-6.5 l 0.953125,0 c 0.828125,0 1.359375,0.265625 1.359375,0.953125 0,0.390625 -0.203125,1.25 -0.59375,1.609375 -0.5,0.453125 -1.09375,0.53125 -1.53125,0.53125 l -1.40625,0 z m 0,0"
               style="stroke:none"
               inkscape:connector-curvature="0" />
          </symbol>
        </g>
      </defs>
      <g
         id="textext-2b6f414f-1">
        <g
           id="g5682"
           style="fill:#000000;fill-opacity:1">
          <use
             id="use5684"
             y="134.765"
             x="223.43201"
             xlink:href="#textext-2b6f414f-0"
             width="744.09448"
             height="1052.3622" />
        </g>
      </g>
    </g>
    <path
       style="fill:none;stroke:#000000;stroke-width:3;stroke-linecap:butt;stroke-linejoin:miter;stroke-miterlimit:4;stroke-opacity:1;stroke-dasharray:none;marker-end:url(#Arrow1Lend)"
       d="m 95,412.36218 0,-250"
       id="path5761"
       inkscape:connector-curvature="0" />
    <path
       inkscape:connector-curvature="0"
       id="path5960"
       d="m 95,412.36218 -216.50636,125"
       style="fill:none;stroke:#000000;stroke-width:3;stroke-linecap:butt;stroke-linejoin:miter;stroke-miterlimit:4;stroke-opacity:1;stroke-dasharray:none;marker-end:url(#Arrow1Lend)" />
    <g
       ns0:text="$x_c$"
       ns0:preamble="/home/francois/Documents/Mypapers/InkscapeHeader/header.inc"
       transform="matrix(7,0,0,7,-1672.9219,-368.71594)"
       id="g6065">
      <defs
         id="defs6067">
        <g
           id="g6069">
          <symbol
             overflow="visible"
             id="textext-698a2318-0">
            <path
               style="stroke:none;"
               d="M 3.328125 -3.015625 C 3.390625 -3.265625 3.625 -4.1875 4.3125 -4.1875 C 4.359375 -4.1875 4.609375 -4.1875 4.8125 -4.0625 C 4.53125 -4 4.34375 -3.765625 4.34375 -3.515625 C 4.34375 -3.359375 4.453125 -3.171875 4.71875 -3.171875 C 4.9375 -3.171875 5.25 -3.34375 5.25 -3.75 C 5.25 -4.265625 4.671875 -4.40625 4.328125 -4.40625 C 3.75 -4.40625 3.40625 -3.875 3.28125 -3.65625 C 3.03125 -4.3125 2.5 -4.40625 2.203125 -4.40625 C 1.171875 -4.40625 0.59375 -3.125 0.59375 -2.875 C 0.59375 -2.765625 0.703125 -2.765625 0.71875 -2.765625 C 0.796875 -2.765625 0.828125 -2.796875 0.84375 -2.875 C 1.1875 -3.9375 1.84375 -4.1875 2.1875 -4.1875 C 2.375 -4.1875 2.71875 -4.09375 2.71875 -3.515625 C 2.71875 -3.203125 2.546875 -2.546875 2.1875 -1.140625 C 2.03125 -0.53125 1.671875 -0.109375 1.234375 -0.109375 C 1.171875 -0.109375 0.953125 -0.109375 0.734375 -0.234375 C 0.984375 -0.296875 1.203125 -0.5 1.203125 -0.78125 C 1.203125 -1.046875 0.984375 -1.125 0.84375 -1.125 C 0.53125 -1.125 0.296875 -0.875 0.296875 -0.546875 C 0.296875 -0.09375 0.78125 0.109375 1.21875 0.109375 C 1.890625 0.109375 2.25 -0.59375 2.265625 -0.640625 C 2.390625 -0.28125 2.75 0.109375 3.34375 0.109375 C 4.375 0.109375 4.9375 -1.171875 4.9375 -1.421875 C 4.9375 -1.53125 4.859375 -1.53125 4.828125 -1.53125 C 4.734375 -1.53125 4.71875 -1.484375 4.6875 -1.421875 C 4.359375 -0.34375 3.6875 -0.109375 3.375 -0.109375 C 2.984375 -0.109375 2.828125 -0.421875 2.828125 -0.765625 C 2.828125 -0.984375 2.875 -1.203125 2.984375 -1.640625 Z M 3.328125 -3.015625 "
               id="path6072" />
          </symbol>
          <symbol
             overflow="visible"
             id="textext-698a2318-1">
            <path
               style="stroke:none;"
               d="M 3.046875 -2.671875 C 2.796875 -2.625 2.703125 -2.4375 2.703125 -2.28125 C 2.703125 -2.09375 2.84375 -2.015625 2.96875 -2.015625 C 3.125 -2.015625 3.359375 -2.125 3.359375 -2.46875 C 3.359375 -2.9375 2.828125 -3.078125 2.453125 -3.078125 C 1.40625 -3.078125 0.4375 -2.109375 0.4375 -1.140625 C 0.4375 -0.546875 0.84375 0.0625 1.71875 0.0625 C 2.90625 0.0625 3.453125 -0.625 3.453125 -0.71875 C 3.453125 -0.765625 3.390625 -0.84375 3.328125 -0.84375 C 3.296875 -0.84375 3.28125 -0.828125 3.21875 -0.765625 C 2.671875 -0.125 1.859375 -0.125 1.734375 -0.125 C 1.234375 -0.125 1.015625 -0.46875 1.015625 -0.90625 C 1.015625 -1.09375 1.109375 -1.859375 1.46875 -2.34375 C 1.734375 -2.6875 2.09375 -2.875 2.453125 -2.875 C 2.546875 -2.875 2.875 -2.859375 3.046875 -2.671875 Z M 3.046875 -2.671875 "
               id="path6075" />
          </symbol>
        </g>
      </defs>
      <g
         id="textext-698a2318-2">
        <g
           style="fill:rgb(0%,0%,0%);fill-opacity:1;"
           id="g6078">
          <use
             xlink:href="#textext-698a2318-0"
             x="223.432"
             y="134.765"
             id="use6080" />
        </g>
        <g
           style="fill:rgb(0%,0%,0%);fill-opacity:1;"
           id="g6082">
          <use
             xlink:href="#textext-698a2318-1"
             x="229.126"
             y="136.259"
             id="use6084" />
        </g>
      </g>
    </g>
    <g
       id="g6290"
       transform="matrix(7,0,0,7,-1453.6705,-793.13106)"
       ns0:preamble="/home/francois/Documents/Mypapers/InkscapeHeader/header.inc"
       ns0:text="$y_c$">
      <defs
         id="defs6292">
        <g
           id="g6294">
          <symbol
             id="textext-1d1b4d3e-0"
             overflow="visible">
            <path
               id="path6297"
               d="M 4.84375 -3.796875 C 4.890625 -3.9375 4.890625 -3.953125 4.890625 -4.03125 C 4.890625 -4.203125 4.75 -4.296875 4.59375 -4.296875 C 4.5 -4.296875 4.34375 -4.234375 4.25 -4.09375 C 4.234375 -4.03125 4.140625 -3.734375 4.109375 -3.546875 C 4.03125 -3.296875 3.96875 -3.015625 3.90625 -2.75 L 3.453125 -0.953125 C 3.421875 -0.8125 2.984375 -0.109375 2.328125 -0.109375 C 1.828125 -0.109375 1.71875 -0.546875 1.71875 -0.921875 C 1.71875 -1.375 1.890625 -2 2.21875 -2.875 C 2.375 -3.28125 2.421875 -3.390625 2.421875 -3.59375 C 2.421875 -4.03125 2.109375 -4.40625 1.609375 -4.40625 C 0.65625 -4.40625 0.296875 -2.953125 0.296875 -2.875 C 0.296875 -2.765625 0.390625 -2.765625 0.40625 -2.765625 C 0.515625 -2.765625 0.515625 -2.796875 0.5625 -2.953125 C 0.84375 -3.890625 1.234375 -4.1875 1.578125 -4.1875 C 1.65625 -4.1875 1.828125 -4.1875 1.828125 -3.875 C 1.828125 -3.625 1.71875 -3.359375 1.65625 -3.171875 C 1.25 -2.109375 1.078125 -1.546875 1.078125 -1.078125 C 1.078125 -0.1875 1.703125 0.109375 2.296875 0.109375 C 2.6875 0.109375 3.015625 -0.0625 3.296875 -0.34375 C 3.171875 0.171875 3.046875 0.671875 2.65625 1.203125 C 2.390625 1.53125 2.015625 1.828125 1.5625 1.828125 C 1.421875 1.828125 0.96875 1.796875 0.796875 1.40625 C 0.953125 1.40625 1.09375 1.40625 1.21875 1.28125 C 1.328125 1.203125 1.421875 1.0625 1.421875 0.875 C 1.421875 0.5625 1.15625 0.53125 1.0625 0.53125 C 0.828125 0.53125 0.5 0.6875 0.5 1.171875 C 0.5 1.671875 0.9375 2.046875 1.5625 2.046875 C 2.578125 2.046875 3.609375 1.140625 3.890625 0.015625 Z M 4.84375 -3.796875 "
               style="stroke:none;" />
          </symbol>
          <symbol
             id="textext-1d1b4d3e-1"
             overflow="visible">
            <path
               id="path6300"
               d="M 3.046875 -2.671875 C 2.796875 -2.625 2.703125 -2.4375 2.703125 -2.28125 C 2.703125 -2.09375 2.84375 -2.015625 2.96875 -2.015625 C 3.125 -2.015625 3.359375 -2.125 3.359375 -2.46875 C 3.359375 -2.9375 2.828125 -3.078125 2.453125 -3.078125 C 1.40625 -3.078125 0.4375 -2.109375 0.4375 -1.140625 C 0.4375 -0.546875 0.84375 0.0625 1.71875 0.0625 C 2.90625 0.0625 3.453125 -0.625 3.453125 -0.71875 C 3.453125 -0.765625 3.390625 -0.84375 3.328125 -0.84375 C 3.296875 -0.84375 3.28125 -0.828125 3.21875 -0.765625 C 2.671875 -0.125 1.859375 -0.125 1.734375 -0.125 C 1.234375 -0.125 1.015625 -0.46875 1.015625 -0.90625 C 1.015625 -1.09375 1.109375 -1.859375 1.46875 -2.34375 C 1.734375 -2.6875 2.09375 -2.875 2.453125 -2.875 C 2.546875 -2.875 2.875 -2.859375 3.046875 -2.671875 Z M 3.046875 -2.671875 "
               style="stroke:none;" />
          </symbol>
        </g>
      </defs>
      <g
         id="textext-1d1b4d3e-2">
        <g
           id="g6303"
           style="fill:rgb(0%,0%,0%);fill-opacity:1;">
          <use
             id="use6305"
             y="134.765"
             x="223.432"
             xlink:href="#textext-1d1b4d3e-0" />
        </g>
        <g
           id="g6307"
           style="fill:rgb(0%,0%,0%);fill-opacity:1;">
          <use
             id="use6309"
             y="136.259"
             x="228.317"
             xlink:href="#textext-1d1b4d3e-1" />
        </g>
      </g>
    </g>
    <path
       style="fill:#cc0000;fill-opacity:1;stroke:#000000;stroke-width:2.54580926999999990;stroke-linecap:butt;stroke-linejoin:miter;stroke-miterlimit:4;stroke-opacity:1;stroke-dasharray:none"
       d="m 1063.5473,97.020287 c 0,0 -21.0621,15.650123 -39.68,34.175613 -18.6177,18.52554 -52.13746,50.71729 -69.2362,79.48426 -17.0987,28.767 -33.25139,88.862 -33.25139,88.862 -29.96382,-27.42842 -41.68967,-73.87953 -62.71834,-99.16928 -21.02865,-25.28976 -33.51476,-42.92232 -59.08242,-54.52233 -25.56767,-11.60001 -58.69886,-3.13526 -88.63889,-9.21367 0,0 8.61594,-51.880733 17.97868,-74.300493 9.36273,-22.41976 22.59538,-42.652015 36.36378,-58.7273099 13.76841,-16.0752971 23.51472,-22.9995591 44.0144,-37.5385201 20.49968,-14.538954 80.14499,-46.582688 80.14499,-46.582688 0,0 63.08352,7.542143 84.10064,18.159457 21.01718,10.617312 24.09971,11.266658 41.83195,36.712798 17.7323,25.44615013 48.1728,122.660163 48.1728,122.660163 z"
       id="path4722"
       inkscape:connector-curvature="0"
       sodipodi:nodetypes="czzczzczzzczzc" />
    <path
       style="fill:none;stroke:#000000;stroke-width:1px;stroke-linecap:butt;stroke-linejoin:miter;stroke-opacity:1"
       d="M -508.57143,415.21932 971.4286,-47.637817"
       id="path4810"
       inkscape:connector-curvature="0"
       sodipodi:nodetypes="cc" />
    <path
       sodipodi:type="arc"
       style="fill:#000000;fill-opacity:1;stroke:#000000;stroke-width:3;stroke-miterlimit:4;stroke-opacity:1;stroke-dasharray:none;stroke-dashoffset:0"
       id="path4814"
       sodipodi:cx="-1382.8572"
       sodipodi:cy="-227.63782"
       sodipodi:rx="5.7142859"
       sodipodi:ry="8.5714283"
       d="m -1377.1429,-227.63782 a 5.7142859,8.5714283 0 1 1 -11.4286,0 5.7142859,8.5714283 0 1 1 11.4286,0 z"
       transform="matrix(1.4438977,0,0,1,2956.7043,178.57143)" />
    <path
       style="fill:none;stroke:#000000;stroke-width:1px;stroke-linecap:butt;stroke-linejoin:miter;stroke-opacity:1"
       d="m -545.63018,371.95608 1408.57139,-200"
       id="path4818"
       inkscape:connector-curvature="0"
       sodipodi:nodetypes="cc" />
    <path
       style="opacity:0.1991342;fill:#000000;fill-opacity:1;stroke:#000000;stroke-width:3.636549;stroke-miterlimit:4;stroke-opacity:1;stroke-dasharray:none;stroke-dashoffset:0"
       d="m -357.00456,738.80557 c 0,-346.90553 0.18172,-365.70676 3.53553,-365.79449 1.94454,-0.0509 103.31335,-12.60875 225.26402,-27.90641 l 221.728481,-27.81393 0,41.73542 c 0,39.16966 -0.248396,41.96023 -4.04061,45.39213 -2.222336,2.01119 -4.04061,5.16512 -4.04061,7.00875 0,2.26835 -18.778089,14.17721 -58.083771,36.8361 -31.9460747,18.41624 -71.573591,41.31436 -88.061139,50.88472 l -29.977348,17.40066 1.366029,-8.58794 1.36603,-8.58795 -19.785332,19.62027 c -10.88195,10.79114 -19.27137,20.13426 -18.64315,20.76246 1.42385,1.42385 54.234884,-11.49213 54.234884,-13.26422 0,-0.70983 -3.776011,-2.10162 -8.391135,-3.09288 l -8.391156,-1.80227 88.52587021,-51.0841 C 60.633551,435.29349 88.777532,420.07744 90.219586,421.51949 c 3.407446,3.40744 11.168144,2.39127 14.884334,-1.94891 3.42123,-3.99571 5.95978,-4.04061 228.41521,-4.04061 222.99362,0 224.9499,0.0349 224.30995,3.99623 -0.42659,2.64057 -146.62758,112.7077 -430.97057,324.45531 -236.67875,176.25249 -442.37106,329.47419 -457.09403,340.49259 l -26.76904,20.0335 0,-365.70203 z M -45.949725,582.0722 c 2.596597,-2.54326 2.584233,-2.89752 -0.101015,-2.89752 -1.682632,0 -4.089179,1.02985 -5.347889,2.28856 -3.137716,3.13772 -8.621087,0.68301 -8.621087,-3.85933 0,-2.04483 1.346433,-5.48262 2.992072,-7.63954 2.46352,-3.22893 3.319705,-3.42357 4.846854,-1.10189 2.218153,3.37215 9.036178,1.35591 7.830864,-2.31578 -1.458802,-4.44384 -12.994199,-4.18975 -17.570977,0.38703 -5.140283,5.14029 -5.488543,15.28846 -0.624194,18.18889 4.209326,2.50985 12.468394,0.99173 16.595372,-3.05042 l 0,0 z m -46.899948,-7.22085 c 11.011269,0.8657 13.606633,0.39846 16.004877,-2.88134 4.955788,-6.77744 2.983667,-9.87228 -2.512108,-3.94224 -7.695625,8.30372 -10.172317,4.27375 -6.062269,-9.8643 1.808941,-6.22252 4.172718,-11.31367 5.252834,-11.31367 1.080136,0 1.736593,1.08242 1.458801,2.40539 -0.277792,1.32298 1.085914,2.75334 3.030458,3.17859 2.492208,0.54504 3.535534,-0.4816 3.535534,-3.47894 0,-5.24029 -5.336656,-7.56991 -10.275494,-4.48557 -2.341796,1.46248 -4.123928,1.57839 -4.902371,0.31885 -0.672661,-1.08842 -3.376253,-1.97893 -6.007943,-1.97893 -5.191497,0 -13.921906,9.25358 -11.867126,12.57828 0.68045,1.101 3.32762,-0.59684 5.882598,-3.773 6.52009,-8.10531 9.261786,-4.46823 6.019418,7.98521 -2.907764,11.16817 -7.133356,17.01936 -7.133356,9.87754 0,-5.2471 -2.48491,-5.72302 -6.24236,-1.1956 -2.2926,2.76242 -2.11138,3.67691 1.20988,6.1055 2.14852,1.57103 5.29617,2.27349 6.994825,1.56105 1.698632,-0.71246 4.224842,-1.20602 5.613802,-1.09682 z M -310.53755,412.49951 c 0,-2.38292 -2.80598,-3.03046 -13.13198,-3.03046 -10.326,0 -13.13198,0.64754 -13.13198,3.03046 0,2.38292 2.80598,3.03046 13.13198,3.03046 10.326,0 13.13198,-0.64754 13.13198,-3.03046 z m 47.99026,-0.50508 c 0.61047,-1.849 -2.72847,-2.52538 -12.46656,-2.52538 -10.6579,0 -13.30034,0.62123 -13.30034,3.12686 0,2.54944 2.30213,3.01579 12.46656,2.52539 7.71908,-0.37243 12.78407,-1.56319 13.30034,-3.12687 l 0,0 z m 46.96408,0.50508 c 0,-2.38292 -2.80598,-3.03046 -13.13198,-3.03046 -10.326,0 -13.13198,0.64754 -13.13198,3.03046 0,2.38292 2.80598,3.03046 13.13198,3.03046 10.326,0 13.13198,-0.64754 13.13198,-3.03046 z m 48.48732,0 c 0,-2.38292 -2.80597,-3.03046 -13.13198,-3.03046 -10.326,0 -13.13198,0.64754 -13.13198,3.03046 0,2.38292 2.80598,3.03046 13.13198,3.03046 10.32601,0 13.13198,-0.64754 13.13198,-3.03046 z m 48.48733,0 c 0,-2.38292 -2.80598,-3.03046 -13.13199,-3.03046 -10.326,0 -13.13198,0.64754 -13.13198,3.03046 0,2.38292 2.80598,3.03046 13.13198,3.03046 10.32601,0 13.13199,-0.64754 13.13199,-3.03046 z m 48.487319,0 c 0,-2.38292 -2.805982,-3.03046 -13.131983,-3.03046 -10.326002,0 -13.131983,0.64754 -13.131983,3.03046 0,2.38292 2.805981,3.03046 13.131983,3.03046 10.326001,0 13.131983,-0.64754 13.131983,-3.03046 z m 46.467017,0 c 0,-2.38292 -2.805981,-3.03046 -13.131983,-3.03046 -10.326002,0 -13.131983,0.64754 -13.131983,3.03046 0,2.38292 2.805981,3.03046 13.131983,3.03046 10.326002,0 13.131983,-0.64754 13.131983,-3.03046 z m 48.487322,0 c 0,-2.38292 -2.805981,-3.03046 -13.131983,-3.03046 -10.3260014,0 -13.131983,0.64754 -13.131983,3.03046 0,2.38292 2.8059816,3.03046 13.131983,3.03046 10.326002,0 13.131983,-0.64754 13.131983,-3.03046 z m 48.487322,0 c 0,-2.38292 -2.805981,-3.03046 -13.131983,-3.03046 -10.326001,0 -13.131983,0.64754 -13.131983,3.03046 0,2.38292 2.805982,3.03046 13.131983,3.03046 10.326002,0 13.131983,-0.64754 13.131983,-3.03046 z"
       id="path4824"
       inkscape:connector-curvature="0" />
    <path
       style="opacity:0.1991342;fill:#000000;fill-opacity:1;stroke:#000000;stroke-width:3.636549;stroke-miterlimit:4;stroke-opacity:1;stroke-dasharray:none;stroke-dashoffset:0"
       d="m 106.40541,406.5155 c -0.62336,-1.62445 -2.86767,-3.50399 -4.98736,-4.17675 -3.630057,-1.15214 -3.853969,-3.68022 -3.853969,-43.51347 0,-23.25964 0.500242,-42.29026 1.111649,-42.29026 0.611406,0 63.04519,-7.75315 138.74174,-17.22922 139.02052,-17.40328 140.80554,-17.535 140.93809,-10.3998 0.0824,4.43487 20.96693,51.91902 22.20562,50.48779 0.78329,-0.90506 4.85927,-14.49465 9.05773,-30.19908 4.19846,-15.70443 8.20737,-29.47638 8.9087,-30.60432 1.03595,-1.66612 125.28524,-18.62391 136.4569,-18.62391 2.87415,0 3.20913,7.8029 3.20913,74.75128 l 0,74.75129 -225.32741,0 c -195.81967,0 -225.47586,-0.38678 -226.46082,-2.95355 z m 47.72721,-33.41194 c 0,-1.11117 -1.42497,-2.0203 -3.1666,-2.0203 -2.06907,0 -2.80255,-1.2254 -2.11624,-3.53554 0.57769,-1.94454 1.64665,-6.03566 2.37546,-9.09137 1.18099,-4.95155 2.23519,-5.55666 9.69239,-5.56339 16.9493,-0.0154 28.90271,-13.68996 19.86602,-22.72666 -3.33146,-3.33146 -7.50151,-4.3759 -20.4682,-5.12653 -16.11792,-0.93306 -19.09874,0.055 -13.28749,4.40451 3.15686,2.36278 3.34221,1.15366 -5.22169,34.06283 -1.43374,5.50956 -3.05246,7.57615 -5.93426,7.57615 -2.17951,0 -3.96274,0.90913 -3.96274,2.0203 0,1.11117 5.00025,2.02031 11.11168,2.02031 6.11142,0 11.11167,-0.90914 11.11167,-2.02031 z"
       id="path4826"
       inkscape:connector-curvature="0" />
    <path
       style="opacity:0.19913420000000001;fill:#cdcdcd;fill-opacity:1;stroke:#000000;stroke-width:3.63654900000000003;stroke-miterlimit:4;stroke-opacity:1;stroke-dasharray:none;stroke-dashoffset:0"
       d="m 97.564081,255.54789 0,-56.94653 5.666389,5.42875 c 7.29743,6.99138 8.76153,6.8515 6.16768,-0.58924 -1.15384,-3.30989 -1.74596,-7.07375 -1.31583,-8.36413 0.75584,-2.26755 149.02499,-44.94104 150.61684,-43.34919 1.237,1.23699 -4.56701,11.84898 -25.26188,46.18855 -10.5715,17.5416 -18.69794,32.4168 -18.05875,33.05599 1.95651,1.95651 58.39108,1.11786 67.77527,-1.00717 26.50528,-6.00209 75.41311,17.4705 88.29126,42.37408 2.40728,4.65516 2.50037,6.05316 0.44609,6.69909 -3.30854,1.04032 -266.05224,33.5349 -270.79153,33.48989 -3.282765,-0.0312 -3.535539,-4.10497 -3.535539,-56.98009 z"
       id="path4828"
       inkscape:connector-curvature="0" />
    <path
       style="opacity:0.1991342;fill:#000000;fill-opacity:1;stroke:#000000;stroke-width:3.636549;stroke-miterlimit:4;stroke-opacity:1;stroke-dasharray:none;stroke-dashoffset:0"
       d="m -357.00456,346.85396 0,-23.47358 217.68787,-61.01861 C -19.58836,228.80154 78.967921,201.35092 79.697271,201.3604 c 0.72935,0.009 0.850609,1.8355 0.269448,4.05784 -1.444781,5.52485 1.151513,5.06809 7.890362,-1.38813 l 5.66639,-5.42875 0,57.95668 c 0,53.81473 -0.252679,57.96328 -3.535534,58.04916 -1.944543,0.0509 -103.313351,12.60875 -225.264017,27.90641 l -221.72848,27.81393 0,-23.47358 z"
       id="path4830"
       inkscape:connector-curvature="0" />
    <path
       style="opacity:0.19913420000000001;fill:#000000;fill-opacity:1;stroke:#000000;stroke-width:3.63654900000000003;stroke-miterlimit:4;stroke-opacity:1;stroke-dasharray:none;stroke-dashoffset:0"
       d="m -356.57486,302.77923 0.58045,-17.34622 456.58895,-340.089453 456.58895,-340.089437 0.51374,228.68929 c 0.28256,125.779082 0.28256,228.917779 0,229.197066 -0.28256,0.279307 -40.06121,11.616491 -88.39701,25.19377 l -87.88327,24.685924 -26.26397,-4.08667 -26.26397,-4.08667 -12.75396,5.76991 c -17.45754,7.89779 -36.14817,19.458 -45.83488,28.349 -7.64037,7.01276 -12.26196,8.59082 -84.71824,28.9277 -42.15036,11.83068 -77.63116,21.12883 -78.84623,20.66257 -1.21505,-0.46627 -3.89212,-7.33636 -5.94903,-15.26688 -2.056913,-7.93051 -4.464692,-14.86711 -5.350616,-15.41463 -1.50137,-0.92791 -4.199912,6.87671 -10.226179,29.57567 l -2.470631,9.30605 -193.102864,54.14753 c -106.20657,29.78116 -205.18285,57.53922 -219.94727,61.68462 l -26.84442,7.53709 0.58045,-17.34623 z M 131.88848,161.39462 c 3.00304,-2.43172 6.03421,-9.48475 9.24708,-21.51635 2.62878,-9.84434 4.32658,-18.63184 3.77288,-19.52774 -2.46124,-3.98237 -6.54111,1.31336 -8.80484,11.42882 -2.69813,12.05649 -7.42541,18.688 -10.86784,15.24557 -1.43252,-1.43252 -1.26362,-5.50653 0.53996,-13.02475 2.85562,-11.90356 1.92711,-15.45505 -4.04063,-15.45505 -4.38661,0 -10.89379,8.6287 -9.47355,12.56218 0.56098,1.55365 1.97941,0.3669 3.54468,-2.96573 3.14196,-6.68955 7.10865,-7.49394 4.98139,-1.01015 -0.82026,2.50012 -1.92662,8.40507 -2.45857,13.12212 -0.85602,7.59059 -0.4214,8.77928 3.78112,10.34113 2.61159,0.97058 6.11205,1.24748 7.7788,0.61535 2.57286,-0.97579 2.53642,-0.40184 -0.24138,3.801 -4.00176,6.05473 -9.57013,7.64378 -9.14865,2.61076 0.16425,-1.96157 -1.29233,-3.89529 -3.23687,-4.29713 -2.5902,-0.53526 -3.53554,0.56945 -3.53554,4.13157 0,2.67419 0.60609,5.46828 1.34688,6.20904 2.62017,2.62019 12.40728,1.29857 16.81508,-2.27064 l 0,0 z m 36.57197,-3.67728 c 2.93015,-3.53062 -0.54126,-3.83983 -6.61513,-0.5892 -3.22604,1.72653 -4.83132,1.52969 -7.24999,-0.88898 -2.79515,-2.79515 -2.76684,-3.62489 0.28226,-8.27844 3.41385,-5.21018 7.33625,-6.89524 7.33625,-3.15163 0,1.11116 1.36371,2.0203 3.03046,2.0203 1.68358,0 3.03046,-1.79583 3.03046,-4.04061 0,-3.23532 -1.34688,-4.04061 -6.75794,-4.04061 -13.356,0 -20.43965,17.74582 -8.80209,22.05082 5.27888,1.95279 12.78702,0.48334 15.74572,-3.08165 z"
       id="path4832"
       inkscape:connector-curvature="0" />
    <path
       style="opacity:0.1991342;fill:#000000;fill-opacity:1;stroke:#000000;stroke-width:3.636549;stroke-miterlimit:4;stroke-opacity:1;stroke-dasharray:none;stroke-dashoffset:0"
       d="m 420.8129,270.81752 c 0,-0.69895 2.26415,-7.54757 5.03144,-15.21915 5.57236,-15.44789 15.28135,-31.67535 26.14806,-43.70351 l 7.13327,-7.89567 -9.56908,-18.98845 c -5.26299,-10.44365 -13.03494,-24.17427 -17.27099,-30.5125 -9.11729,-13.64179 -30.0182,-33.56518 -38.20657,-36.41966 -3.1885,-1.11152 -5.27667,-2.54155 -4.64036,-3.17785 0.6363,-0.6363 38.86647,-11.75133 84.95594,-24.700062 l 83.79903,-23.543152 0,94.456594 0,94.45659 -7.57614,1.18641 c -14.87866,2.32997 -121.32729,15.3312 -125.5254,15.3312 -2.35356,0 -4.2792,-0.57187 -4.2792,-1.27079 z"
       id="path4834"
       inkscape:connector-curvature="0" />
    <path
       style="opacity:0.34632036;fill:#000000;fill-opacity:1;stroke:#000000;stroke-width:3.636549;stroke-miterlimit:4;stroke-opacity:1;stroke-dasharray:none;stroke-dashoffset:0"
       d=""
       id="path4836"
       inkscape:connector-curvature="0" />
    <path
       style="opacity:0.34632036;fill:#000000;fill-opacity:1;stroke:#000000;stroke-width:3.636549;stroke-miterlimit:4;stroke-opacity:1;stroke-dasharray:none;stroke-dashoffset:0"
       d=""
       id="path4838"
       inkscape:connector-curvature="0" />
    <path
       style="opacity:0.10822509;fill:#000000;fill-opacity:1;stroke:#000000;stroke-width:2.57142854;stroke-miterlimit:4;stroke-opacity:1;stroke-dasharray:none;stroke-dashoffset:0"
       d="m 175.55791,342.7318 c 1.22185,-2.92429 1.83941,-7.04567 1.3914,-9.28572 -0.85487,-4.27433 0.30381,-5.13264 3.12302,-2.31342 2.89468,2.89467 2.03192,10.34641 -1.59207,13.75098 -4.69921,4.41468 -5.43855,3.87028 -2.92235,-2.15184 z"
       id="path4858"
       inkscape:connector-curvature="0" />
    <path
       style="opacity:0.10822509;fill:#000000;fill-opacity:1;stroke:#000000;stroke-width:2.57142854;stroke-miterlimit:4;stroke-opacity:1;stroke-dasharray:none;stroke-dashoffset:0"
       d="m 153.70847,346.91837 c 0.3772,-1.375 1.44893,-5.875 2.38161,-10 l 1.6958,-7.5 6.64323,0.0219 c 9.3972,0.0309 10.79911,1.28257 9.79785,8.7475 -1.10033,8.20362 -4.90704,11.23062 -14.12344,11.23062 -6.05256,0 -6.98127,-0.36306 -6.39505,-2.5 z"
       id="path4860"
       inkscape:connector-curvature="0" />
    <path
       style="opacity:0.10822509;fill:#000000;fill-opacity:1;stroke:#000000;stroke-width:2.57142854;stroke-miterlimit:4;stroke-opacity:1;stroke-dasharray:none;stroke-dashoffset:0"
       d="m 153.70847,346.91837 c 0.3772,-1.375 1.44893,-5.875 2.38161,-10 l 1.6958,-7.5 6.89833,0 c 7.37382,0 12.18361,3.0093 10.756,6.72961 -0.43805,1.14152 -0.79645,3.01643 -0.79645,4.16645 0,1.15002 -1.57792,3.66888 -3.50649,5.59745 -2.80852,2.80851 -4.96039,3.50649 -10.81055,3.50649 -6.26514,0 -7.20651,-0.3556 -6.61825,-2.5 z"
       id="path4862"
       inkscape:connector-curvature="0" />
    <path
       style="fill:none;stroke:#000000;stroke-width:4;stroke-linecap:butt;stroke-linejoin:miter;stroke-opacity:1;stroke-miterlimit:4;stroke-dasharray:none;marker-end:url(#Arrow1Lend)"
       d="M 962.85714,-53.352103 1065.7143,-210.49496"
       id="path4864"
       inkscape:connector-curvature="0" />
    <g
       id="g4059">
      <path
         sodipodi:type="arc"
         style="fill:#000000;fill-opacity:1;stroke:#000000;stroke-width:3;stroke-miterlimit:4;stroke-opacity:1;stroke-dasharray:none;stroke-dashoffset:0"
         id="path4820"
         sodipodi:cx="-1382.8572"
         sodipodi:cy="-227.63782"
         sodipodi:rx="5.7142859"
         sodipodi:ry="8.5714283"
         d="m -1377.1429,-227.63782 a 5.7142859,8.5714283 0 1 1 -11.4286,0 5.7142859,8.5714283 0 1 1 11.4286,0 z"
         transform="matrix(1.4438977,0,0,1,2856.9357,394.54313)" />
      <path
         inkscape:connector-curvature="0"
         id="path5050"
         d="M 857.96127,170.70183 939.63693,40.885458"
         style="fill:none;stroke:#000000;stroke-width:3.79494905;stroke-linecap:butt;stroke-linejoin:miter;stroke-miterlimit:4;stroke-opacity:1;stroke-dasharray:none;marker-end:url(#Arrow1Lend)" />
    </g>
    <path
       style="opacity:0.10822509;fill:#000000;fill-opacity:1;stroke:#000000;stroke-width:0.53571427;stroke-miterlimit:4;stroke-opacity:1;stroke-dasharray:none;stroke-dashoffset:0"
       d=""
       id="path6068"
       inkscape:connector-curvature="0" />
    <path
       sodipodi:nodetypes="czzczzczzzczzc"
       inkscape:connector-curvature="0"
       id="path3106"
       d="m 1263.5473,137.02029 c 0,0 -21.0621,15.65012 -39.68,34.17561 -18.6177,18.52554 -52.1375,50.71729 -69.2362,79.48426 -17.0987,28.767 -33.2514,88.862 -33.2514,88.862 -29.9638,-27.42842 -41.6897,-73.87953 -62.7183,-99.16928 -21.0287,-25.28976 -33.5148,-42.92232 -59.0825,-54.52233 -25.5676,-11.60001 -58.6988,-3.13526 -88.6388,-9.21367 0,0 8.6159,-51.88073 17.9786,-74.30049 9.3628,-22.41976 22.5954,-42.65202 36.3638,-58.72731 13.7684,-16.0753 23.5147,-22.99956 44.0144,-37.538523 20.4997,-14.538954 80.145,-46.582688 80.145,-46.582688 0,0 63.0835,7.542143 84.1006,18.159457 21.0172,10.617312 24.0998,11.266658 41.832,36.712798 17.7323,25.446146 48.1728,122.660166 48.1728,122.660166 z"
       style="fill:#00cc00;fill-opacity:1;stroke:#000000;stroke-width:2.54580926999999990;stroke-linecap:butt;stroke-linejoin:miter;stroke-miterlimit:4;stroke-opacity:1;stroke-dasharray:none" />
    <path
       style="opacity:0.52380952;fill:#cdcdcd;fill-opacity:1;stroke:#cdcdcd;stroke-width:10.10152531;stroke-miterlimit:4;stroke-opacity:1;stroke-dasharray:60.60915354, 60.60915354;stroke-dashoffset:0"
       d="m 101.41089,267.61004 0.54606,-41.62092 66.67007,-20.94466 c 36.66854,-11.51956 67.23744,-20.74611 67.9309,-20.50346 0.69345,0.24266 -4.53409,10.41786 -11.61676,22.61157 -7.08267,12.19371 -12.87758,23.47584 -12.87758,25.07141 0,2.47462 6.79636,2.70953 46.2379,1.5982 41.91529,-1.18104 47.25998,-0.95119 57.17081,2.45863 15.35202,5.28187 27.5231,11.69456 37.40852,19.70976 8.26121,6.69828 17.95138,18.38383 16.47169,19.86352 -0.70087,0.70087 -261.25691,33.37687 -266.1447,33.37687 -1.71895,0 -2.19754,-11.08528 -1.79691,-41.62092 z"
       id="path3920"
       inkscape:connector-curvature="0" />
    <path
       style="opacity:0.52380952;fill:#cdcdcd;fill-opacity:1;stroke:#cdcdcd;stroke-width:10.10152531;stroke-miterlimit:4;stroke-opacity:1;stroke-dasharray:60.60915354, 60.60915354;stroke-dashoffset:0"
       d="m 101.98256,268.16081 c -0.80574,-22.06653 -0.68655,-40.79158 0.26486,-41.61123 1.50707,-1.29837 17.11135,-6.31621 19.86057,-6.38654 1.89543,-0.0485 21.94871,-6.24644 27.16063,-8.39464 2.86895,-1.18251 6.57997,-2.42981 8.24672,-2.7718 1.66675,-0.34198 19.7555,-6.11241 40.19722,-12.82318 20.44172,-6.71076 37.48805,-12.20138 37.88072,-12.20138 0.39268,0 0.71396,1.87193 0.71396,4.15984 0,2.28792 -0.7258,3.71127 -1.6129,3.16302 -2.05354,-1.26916 -21.02088,34.01968 -19.24155,35.79902 0.72866,0.72866 0.4157,1.32483 -0.69547,1.32483 -1.11117,0 -2.02031,1.36441 -2.02031,3.03202 0,2.61016 6.48858,3.02283 46.63538,2.96597 25.64946,-0.0363 49.36279,0.79161 52.69629,1.83986 15.36549,4.83181 33.06866,13.37319 40.81213,19.69094 8.58906,7.00766 17.92703,18.45121 16.34618,20.03205 -0.47364,0.47365 -8.52776,1.33876 -17.89806,1.92247 -9.3703,0.58371 -26.12826,2.48331 -37.23994,4.22133 -40.87884,6.39404 -59.1374,8.7935 -82.90872,10.89549 -13.37593,1.18277 -32.92238,3.49449 -43.43656,5.13715 -20.8938,3.26431 -62.71889,8.49259 -75.95009,9.49404 l -8.34607,0.63169 -1.46499,-40.12095 z"
       id="path3922"
       inkscape:connector-curvature="0" />
    <path
       style="opacity:0.52380952;fill:#cdcdcd;fill-opacity:1;stroke:#cdcdcd;stroke-width:10.10152531;stroke-miterlimit:4;stroke-opacity:1;stroke-dasharray:60.60915354, 60.60915354;stroke-dashoffset:0"
       d="m 108.99459,307.21039 -5.01733,-1.1768 -1.76489,-37.70994 c -0.97069,-20.74047 -1.25656,-39.03463 -0.63527,-40.6537 0.62252,-1.62225 6.40305,-4.0995 12.87657,-5.51827 6.46082,-1.41597 12.20151,-3.08527 12.7571,-3.70955 0.55558,-0.62428 1.91929,-1.14278 3.03045,-1.15222 4.16423,-0.0354 29.29443,-7.70554 29.29443,-8.94114 0,-0.70814 1.59099,-1.35604 3.53553,-1.43978 1.94454,-0.0837 18.87864,-5.2788 37.63133,-11.5446 18.75268,-6.26579 34.4353,-11.39235 34.85026,-11.39235 2.12439,0 0.21763,5.02496 -4.07592,10.7414 -5.42661,7.22501 -19.41327,34.45472 -19.41327,37.79443 0,1.47105 10.89655,2.07782 33.84011,1.88438 53.97886,-0.45509 71.85207,2.38036 99.0375,15.71157 6.99686,3.43112 24.70619,21.13273 24.70619,24.6954 0,1.15877 -2.04556,2.1671 -4.54569,2.24072 -15.77311,0.46452 -35.37964,2.36808 -52.02285,5.05079 -27.8135,4.48325 -74.0889,10.39217 -102.02541,13.02766 -13.33402,1.25791 -28.33478,3.19085 -33.33504,4.29541 -16.53633,3.65288 -63.61778,8.99419 -68.7238,7.79659 z"
       id="path3924"
       inkscape:connector-curvature="0" />
    <path
       style="opacity:0.52380952;fill:#cdcdcd;fill-opacity:1;stroke:#cdcdcd;stroke-width:10.10152531;stroke-miterlimit:4;stroke-opacity:1;stroke-dasharray:60.60915354, 60.60915354;stroke-dashoffset:0"
       d=""
       id="path3932"
       inkscape:connector-curvature="0" />
    <path
       style="opacity:0.52380952;fill:#cdcdcd;fill-opacity:1;stroke:#cdcdcd;stroke-width:10.10152531;stroke-miterlimit:4;stroke-opacity:1;stroke-dasharray:60.60915354, 60.60915354;stroke-dashoffset:0"
       d="m 116.73552,408.41359 c -5.54013,-0.70112 -11.61399,-3.07729 -14.64721,-5.73016 -5.179307,-4.52986 -5.182122,-4.55087 -5.182122,-38.66603 l 0,-34.13371 6.565992,-1.17762 c 3.6113,-0.6477 65.20535,-9.39438 136.87567,-19.43709 71.67033,-10.0427 132.2934,-18.70712 134.71795,-19.25427 3.29334,-0.7432 4.7503,0.15589 5.76055,3.55488 2.64004,8.88227 17.56743,41.92533 18.94,41.92533 0.76713,0 4.42635,-10.68236 8.13161,-23.73858 3.70524,-13.05622 7.75156,-24.74051 8.99185,-25.96508 1.72021,-1.69843 131.78784,-21.39985 139.13072,-21.07421 0.83337,0.037 1.51523,32.79614 1.51523,72.79818 l 0,72.73098 -215.66758,-0.3174 c -118.61716,-0.17456 -219.92686,-0.85642 -225.13266,-1.51522 z m 37.74936,-34.53287 c 0.68674,-1.11117 -0.16873,-2.0203 -1.90107,-2.0203 -3.41907,0 -3.80205,-2.29404 -1.93852,-11.61169 1.11309,-5.56543 2.05153,-6.15538 11.58811,-7.28485 12.94923,-1.53364 20.33273,-6.75137 21.15436,-14.94925 0.94626,-9.4414 -5.17638,-12.62123 -24.30164,-12.62123 -9.12841,0 -15.71291,0.84661 -15.71291,2.0203 0,1.11117 1.3637,2.02031 3.03045,2.02031 3.90503,0 3.85014,0.91866 -1.27608,21.35755 -2.92302,11.65445 -5.5192,17.81972 -8.08122,19.19087 -2.07608,1.11108 -3.77468,2.8973 -3.77468,3.96937 0,2.58719 19.61092,2.52148 21.2132,-0.0711 z"
       id="path3934"
       inkscape:connector-curvature="0" />
    <path
       style="opacity:0.52380952;fill:#cdcdcd;fill-opacity:1;stroke:#cdcdcd;stroke-width:10.10152531;stroke-miterlimit:4;stroke-opacity:1;stroke-dasharray:60.60915354, 60.60915354;stroke-dashoffset:0"
       d="m 116.73552,408.41359 c -5.54013,-0.70112 -11.61399,-3.07729 -14.64721,-5.73016 -5.179307,-4.52986 -5.182122,-4.55087 -5.182122,-38.66603 l 0,-34.13371 6.565992,-1.17432 c 3.6113,-0.64587 65.20535,-9.39047 136.87567,-19.43242 71.67033,-10.04197 132.15549,-18.67326 134.41147,-19.18066 3.55032,-0.79851 5.41835,2.19139 13.89402,22.23804 5.38573,12.73833 10.38037,23.16059 11.09921,23.16059 0.71883,0 4.41782,-10.94611 8.21996,-24.32469 3.80215,-13.37858 7.87135,-25.05196 9.04266,-25.94084 1.7111,-1.2985 133.55494,-20.75405 139.00536,-20.51234 0.83337,0.037 1.51523,32.79614 1.51523,72.79818 l 0,72.73098 -215.66758,-0.3174 c -118.61716,-0.17456 -219.92686,-0.85642 -225.13266,-1.51522 z m 37.74936,-34.53287 c 0.68674,-1.11117 -0.16873,-2.0203 -1.90107,-2.0203 -3.41907,0 -3.80205,-2.29404 -1.93852,-11.61169 1.11309,-5.56543 2.05153,-6.15538 11.58811,-7.28485 12.94923,-1.53364 20.33273,-6.75137 21.15436,-14.94925 0.94626,-9.4414 -5.17638,-12.62123 -24.30164,-12.62123 -9.12841,0 -15.71291,0.84661 -15.71291,2.0203 0,1.11117 1.3637,2.02031 3.03045,2.02031 3.90503,0 3.85014,0.91866 -1.27608,21.35755 -2.92302,11.65445 -5.5192,17.81972 -8.08122,19.19087 -2.07608,1.11108 -3.77468,2.8973 -3.77468,3.96937 0,2.58719 19.61092,2.52148 21.2132,-0.0711 z"
       id="path3936"
       inkscape:connector-curvature="0" />
    <path
       style="opacity:0.52380952;fill:#cdcdcd;fill-opacity:1;stroke:#cdcdcd;stroke-width:10.10152531;stroke-miterlimit:4;stroke-opacity:1;stroke-dasharray:60.60915354, 60.60915354;stroke-dashoffset:0"
       d="m 256.27456,164.23107 c 2.13784,-4.19053 4.20188,-9.41807 4.58674,-11.61675 0.96381,-5.50612 27.38575,-24.26099 50.34858,-35.73853 l 19.04155,-9.51756 19.1929,3.25965 c 10.55609,1.79281 19.44303,3.44691 19.74875,3.67578 0.30571,0.22886 -1.25297,4.63591 -3.46374,9.79343 -2.42241,5.65125 -5.322,9.37732 -7.29733,9.37732 -1.80277,0 -4.26366,2.61197 -5.46866,5.80437 -1.92211,5.09227 -4.44115,6.48821 -20.53263,11.37828 -10.08795,3.06564 -21.2251,5.80169 -24.74922,6.08011 -3.52411,0.27842 -16.84977,3.795 -29.61256,7.81463 -12.7628,4.01962 -23.76225,7.30841 -24.44323,7.30841 -0.68098,0 0.511,-3.42861 2.64885,-7.61914 z"
       id="path3940"
       inkscape:connector-curvature="0" />
    <path
       style="opacity:0.52380952;fill:#cdcdcd;fill-opacity:1;stroke:#cdcdcd;stroke-width:10.10152531;stroke-miterlimit:4;stroke-opacity:1;stroke-dasharray:60.60915354, 60.60915354;stroke-dashoffset:0"
       d="m 257.53647,161.3153 c 3.64836,-7.87462 4.2626,-10.92783 2.43243,-12.0909 -1.83372,-1.16532 -1.75721,-1.56375 0.30474,-1.58692 1.51425,-0.017 8.31918,-4.21496 15.12207,-9.32878 19.82599,-14.90347 60.9407,-33.17512 65.30623,-29.02252 0.91922,0.8744 7.53889,2.16046 14.71037,2.85792 7.17147,0.69745 13.33099,1.56006 13.68783,1.91689 1.85623,1.85623 -7.79134,19.40342 -10.66813,19.40342 -1.80277,0 -4.26496,2.61541 -5.47154,5.81201 -2.02817,5.37323 -4.03587,6.2942 -26.59355,12.19892 -13.41987,3.5128 -25.50987,6.62895 -26.86667,6.92478 -1.35679,0.29583 -3.03667,1.10763 -3.73305,1.80402 -0.69638,0.69637 -2.54097,0.77694 -4.09908,0.17904 -1.55812,-0.59791 -2.83295,-0.027 -2.83295,1.26859 0,1.29562 -0.7209,1.91014 -1.602,1.36559 -0.88111,-0.54455 -8.34957,1.22007 -16.59658,3.92138 -8.24701,2.70131 -15.66652,4.91147 -16.48779,4.91147 -0.82128,0 0.70317,-4.74071 3.38767,-10.53491 l 0,0 z"
       id="path3942"
       inkscape:connector-curvature="0" />
    <path
       style="opacity:0.52380952;fill:#cdcdcd;fill-opacity:1;stroke:#cdcdcd;stroke-width:10.10152531;stroke-miterlimit:4;stroke-opacity:1;stroke-dasharray:60.60915354, 60.60915354;stroke-dashoffset:0"
       d="m 252.46968,170.88889 c 0,-0.52873 1.81488,-3.938 4.03306,-7.57615 4.58052,-7.51274 5.25428,-13.62473 1.52278,-13.81395 -1.38896,-0.0704 -0.50654,-0.94039 1.96094,-1.93324 2.46748,-0.99285 11.65254,-6.82668 20.41126,-12.96408 8.75871,-6.13739 16.43421,-10.64961 17.05667,-10.02716 0.62245,0.62246 3.25617,-0.26 5.85271,-1.96102 8.68772,-5.69139 32.61677,-13.67454 37.39442,-12.47543 2.55519,0.64131 9.85151,1.6477 16.21404,2.23641 6.36254,0.58872 11.8529,1.35504 12.20081,1.70295 1.84479,1.84479 -7.8229,19.38719 -10.68436,19.38719 -1.80277,0 -4.30569,2.72332 -5.56206,6.05182 -1.76957,4.68812 -3.89245,6.33437 -9.42095,7.3057 -11.48313,2.01754 -50.0965,12.63801 -69.37599,19.08162 -17.70777,5.9183 -21.60333,6.81727 -21.60333,4.98534 z"
       id="path3944"
       inkscape:connector-curvature="0" />
    <path
       style="opacity:0.52380952;fill:#cdcdcd;fill-opacity:1;stroke:#cdcdcd;stroke-width:2.52538133;stroke-miterlimit:4;stroke-opacity:1;stroke-dasharray:15.1522884, 15.1522884;stroke-dashoffset:0"
       d="m 99.639684,212.32346 0,-8.87738 3.137726,2.90498 c 5.27264,4.88154 7.44013,5.75494 9.26838,3.73475 0.92674,-1.02404 0.91809,-1.15101 -0.4268,-6.26433 -2.16439,-8.22914 -3.16308,-7.08852 9.86524,-11.26724 31.15742,-9.99347 132.16313,-38.70577 133.0481,-37.82081 0.12734,0.12734 -1.37426,3.31761 -3.33688,7.08948 -1.96263,3.77187 -3.56842,7.12708 -3.56842,7.45602 0,0.32894 -1.28432,2.81838 -2.85405,5.53208 -3.24099,5.60295 -4.46083,6.42187 -6.3767,4.28094 l -1.12331,-1.25525 -11.61675,3.78996 c -6.38922,2.08448 -20.02628,6.41392 -30.30458,9.62097 -10.2783,3.20705 -18.91511,6.01555 -19.1929,6.2411 -0.6826,0.55423 -8.06617,2.76494 -13.59483,4.07041 -2.4769,0.58486 -5.31796,1.62069 -6.31345,2.30182 -1.69213,1.15778 -12.12097,4.78081 -18.09871,6.28758 -2.15521,0.54325 -2.65165,0.86893 -2.65165,1.73958 0,0.93877 -0.95031,1.36997 -7.68651,3.48777 -4.22758,1.32911 -7.75868,2.20004 -7.84689,1.9354 -0.0882,-0.26465 -0.4363,-0.8552 -0.77352,-1.31233 -0.55733,-0.75551 -1.41767,-0.57574 -9.45197,1.97506 -4.86136,1.54342 -9.12294,2.90086 -9.47018,3.01652 -0.489107,0.16293 -0.631346,-1.78972 -0.631346,-8.66708 z"
       id="path3946"
       inkscape:connector-curvature="0" />
    <path
       style="opacity:0.52380952;fill:#cdcdcd;fill-opacity:1;stroke:#cdcdcd;stroke-width:2.52538133;stroke-miterlimit:4;stroke-opacity:1;stroke-dasharray:15.1522884, 15.1522884;stroke-dashoffset:0"
       d="m 99.639684,212.32346 0,-8.87738 3.137726,2.90498 c 5.27264,4.88154 7.44013,5.75494 9.26838,3.73475 0.92674,-1.02404 0.91809,-1.15101 -0.4268,-6.26433 -2.16439,-8.22914 -3.16308,-7.08852 9.86524,-11.26724 31.15742,-9.99347 132.16313,-38.70577 133.0481,-37.82081 0.12734,0.12734 -1.37426,3.31761 -3.33688,7.08948 -1.96263,3.77187 -3.56842,7.12708 -3.56842,7.45602 0,0.32894 -1.28432,2.81838 -2.85405,5.53208 -3.24099,5.60295 -4.46083,6.42187 -6.3767,4.28094 l -1.12331,-1.25525 -11.61675,3.78996 c -6.38922,2.08448 -20.02628,6.41392 -30.30458,9.62097 -10.2783,3.20705 -18.91511,6.01555 -19.1929,6.2411 -0.6826,0.55423 -8.06617,2.76494 -13.59483,4.07041 -2.4769,0.58486 -5.31796,1.62069 -6.31345,2.30182 -1.69213,1.15778 -12.12097,4.78081 -18.09871,6.28758 -2.15521,0.54325 -2.65165,0.86893 -2.65165,1.73958 0,0.93877 -0.95031,1.36997 -7.68651,3.48777 -4.22758,1.32911 -7.75868,2.20004 -7.84689,1.9354 -0.0882,-0.26465 -0.4363,-0.8552 -0.77352,-1.31233 -0.55733,-0.75551 -1.41767,-0.57574 -9.45197,1.97506 -4.86136,1.54342 -9.12294,2.90086 -9.47018,3.01652 -0.489107,0.16293 -0.631346,-1.78972 -0.631346,-8.66708 z"
       id="path3948"
       inkscape:connector-curvature="0" />
    <path
       style="opacity:0.52380952;fill:#cdcdcd;fill-opacity:1;stroke:#cdcdcd;stroke-width:2.52538133;stroke-miterlimit:4;stroke-opacity:1;stroke-dasharray:15.1522884, 15.1522884;stroke-dashoffset:0"
       d=""
       id="path3950"
       inkscape:connector-curvature="0" />
    <path
       style="opacity:0.52380952;fill:#cdcdcd;fill-opacity:1;stroke:#cdcdcd;stroke-width:2.52538133;stroke-miterlimit:4;stroke-opacity:1;stroke-dasharray:15.1522884, 15.1522884;stroke-dashoffset:0"
       d="m 367.1729,137.1296 c -1.1273,-1.57046 -1.11747,-1.60255 3.20412,-10.45159 1.89493,-3.88013 3.592,-7.92293 3.77127,-8.984 0.55426,-3.28066 1.07059,-3.63403 4.40725,-3.01627 2.32388,0.43024 3.408,0.38203 5.52124,-0.24553 3.44015,-1.02162 3.45638,-1.01854 3.45638,0.65605 0,1.82896 0.9563,2.67217 5.58577,4.9252 3.79398,1.84642 9.56652,5.61845 9.56652,6.25119 0,0.18983 -1.19324,0.61651 -2.65165,0.94818 -4.40042,1.00073 -21.03114,6.6329 -25.88516,8.76628 -5.99283,2.63391 -5.91959,2.62183 -6.97574,1.15049 z"
       id="path3952"
       inkscape:connector-curvature="0" />
    <path
       style="opacity:0.52380952;fill:#cdcdcd;fill-opacity:1;stroke:#cdcdcd;stroke-width:2.52538133;stroke-miterlimit:4;stroke-opacity:1;stroke-dasharray:15.1522884, 15.1522884;stroke-dashoffset:0"
       d="m 367.1729,137.1296 c -1.1273,-1.57046 -1.11747,-1.60255 3.20412,-10.45159 1.89493,-3.88013 3.592,-7.92293 3.77127,-8.984 0.55426,-3.28066 1.07059,-3.63403 4.40725,-3.01627 2.32388,0.43024 3.408,0.38203 5.52124,-0.24553 3.44015,-1.02162 3.45638,-1.01854 3.45638,0.65605 0,1.82896 0.9563,2.67217 5.58577,4.9252 3.79398,1.84642 9.56652,5.61845 9.56652,6.25119 0,0.18983 -1.19324,0.61651 -2.65165,0.94818 -4.40042,1.00073 -21.03114,6.6329 -25.88516,8.76628 -5.99283,2.63391 -5.91959,2.62183 -6.97574,1.15049 z"
       id="path3954"
       inkscape:connector-curvature="0" />
    <path
       style="opacity:0.52380952;fill:#cdcdcd;fill-opacity:1;stroke:#cdcdcd;stroke-width:2.52538133;stroke-miterlimit:4;stroke-opacity:1;stroke-dasharray:15.1522884, 15.1522884;stroke-dashoffset:0"
       d="m 250.61681,172.61896 c 0.47332,-0.90282 1.3673,-2.43699 1.98663,-3.40926 2.28641,-3.58938 8.15558,-15.75902 8.15558,-16.91046 0,-2.22788 -0.46098,-2.73116 -2.2375,-2.44287 -1.22517,0.19881 -1.73432,0.0581 -1.96506,-0.54323 -0.21749,-0.56678 -0.027,-0.81157 0.63153,-0.81157 2.24716,0 10.34587,-4.75671 15.59765,-9.16115 6.88601,-5.775 13.28015,-10.18082 13.89013,-9.57084 0.28032,0.28032 1.48545,-0.18946 3.05664,-1.19153 3.98352,-2.54057 6.43705,-3.64911 8.72375,-3.9415 1.1491,-0.14693 3.66757,-1.18892 5.59662,-2.31554 7.33646,-4.28473 22.11775,-9.83332 30.6745,-11.51457 4.02773,-0.79138 4.54278,-0.78094 11.92623,0.24171 5.65083,0.78267 7.8953,0.92058 8.38381,0.51515 0.48921,-0.406 2.75909,-0.24439 8.51188,0.60604 4.31462,0.63784 7.78272,1.31901 7.70688,1.51372 -0.0759,0.19471 -2.05771,4.78839 -4.40414,10.20817 l -4.26625,9.85416 -2.17882,0.24558 c -3.74819,0.42248 -6.57912,3.0845 -7.50875,7.06073 -0.1786,0.76392 -0.60579,1.38896 -0.94931,1.38896 -0.34352,0 -1.05702,0.47783 -1.58555,1.06186 -1.61609,1.78576 -3.42956,2.43589 -12.46481,4.46863 -9.14667,2.05781 -26.64472,6.66482 -38.38906,10.10734 -3.82746,1.12191 -7.60664,2.03984 -8.39818,2.03984 -0.79154,0 -1.70553,0.32095 -2.03109,0.71323 -0.32557,0.39229 -1.72557,0.9852 -3.11112,1.31759 -1.38555,0.33238 -2.86523,0.95039 -3.28818,1.37334 -0.59905,0.59906 -31.22494,10.67551 -32.60023,10.72605 -0.17839,0.007 0.0629,-0.72675 0.53622,-1.62958 l 0,0 z"
       id="path3956"
       inkscape:connector-curvature="0" />
    <path
       style="opacity:0.52380952;fill:#cdcdcd;fill-opacity:1;stroke:#cdcdcd;stroke-width:2.52538133;stroke-miterlimit:4;stroke-opacity:1;stroke-dasharray:15.1522884, 15.1522884;stroke-dashoffset:0"
       d="m 99.639684,212.32525 0,-8.97537 1.894036,1.82535 c 4.05696,3.90982 5.29464,4.93258 5.68053,4.69408 0.22045,-0.13624 0.53113,0.0919 0.69042,0.507 0.39171,1.0208 3.06822,0.96612 4.11847,-0.0841 0.65196,-0.65196 0.76344,-1.3418 0.50034,-3.09628 -0.18619,-1.24157 -0.54671,-2.73919 -0.80116,-3.32802 -0.25445,-0.58883 -0.78528,-2.49602 -1.17962,-4.2382 l -0.71698,-3.16761 1.85178,-0.78201 c 1.01848,-0.43011 3.21549,-1.12601 4.88224,-1.54644 4.52641,-1.14177 14.57447,-4.27481 15.15229,-4.72456 0.57077,-0.44426 11.91189,-3.84912 14.17953,-4.25701 1.50374,-0.27049 9.34672,-2.61896 21.17581,-6.3408 3.61129,-1.13624 7.30564,-2.16915 8.20967,-2.29537 2.01879,-0.28184 13.70645,-3.63226 14.82328,-4.24928 1.04588,-0.57782 13.37109,-4.06426 15.35284,-4.34286 0.83338,-0.11716 4.24265,-1.03094 7.57615,-2.03061 12.43423,-3.72888 19.60508,-5.77479 20.24039,-5.77479 0.56134,0 8.92396,-2.21587 18.32594,-4.85588 1.48825,-0.41789 2.8057,-0.66 2.92768,-0.53803 0.25222,0.25222 -1.55968,3.96183 -7.07507,14.48528 -2.11109,4.02798 -3.83902,7.38281 -3.83985,7.45517 -10e-4,0.0724 -0.35117,0.80774 -0.77854,1.63418 -1.0803,2.08905 -3.14732,2.55394 -4.4119,0.99225 -0.9119,-1.12615 -1.06994,-1.15175 -3.32405,-0.53847 -1.30164,0.35414 -2.72064,0.71683 -3.15332,0.80597 -1.65592,0.34114 -12.92237,3.9307 -14.36559,4.57697 -2.13525,0.95615 -14.08348,4.7719 -14.9422,4.7719 -1.08289,0 -25.92846,8.21762 -26.25042,8.68227 -0.15479,0.22339 -0.95028,0.49155 -1.76776,0.59593 -3.48322,0.44472 -16.3046,4.52459 -18.40639,5.85708 -2.06115,1.30671 -7.83303,3.32345 -11.08894,3.87456 -3.18034,0.53832 -9.16033,2.8612 -9.63129,3.7412 -0.63139,1.17977 -3.68884,2.54794 -10.14836,4.54127 -5.00097,1.54324 -6.00198,1.57735 -6.00198,0.20454 0,-0.45251 -0.51163,-0.7278 -1.3526,-0.7278 -1.38563,0 -11.83484,3.06359 -14.5573,4.26804 -0.83338,0.3687 -2.02662,0.8246 -2.65165,1.01311 l -1.136426,0.34276 0,-8.97538 z"
       id="path3958"
       inkscape:connector-curvature="0" />
    <path
       style="opacity:0.52380952;fill:#cdcdcd;fill-opacity:1;stroke:#cdcdcd;stroke-width:2.52538133;stroke-miterlimit:4;stroke-opacity:1;stroke-dasharray:15.1522884, 15.1522884;stroke-dashoffset:0"
       d="m 356.08482,232.32143 -0.625,0.0625 -2.65625,0.28125 c -0.45415,0.047 -0.87463,0.10075 -1.25,0.15625 -0.0791,0.0117 -0.14298,0.0191 -0.21875,0.0312 -2.69525,0.34099 -3.1875,0.65613 -3.1875,1.71875 0,0.0767 -0.0236,0.16884 -0.0312,0.25 -0.0143,0.15235 -0.0231,0.30331 -0.0625,0.46875 -0.006,0.0548 -0.0269,0.099 -0.0312,0.15625 -0.12325,0.44783 -0.32869,0.91738 -0.59375,1.40625 -0.0114,0.0211 -0.0196,0.0414 -0.0312,0.0625 -0.0163,0.0251 -0.0457,0.0373 -0.0625,0.0625 -0.0222,0.0394 -0.0395,0.0856 -0.0625,0.125 -1.10647,1.59191 -3.22628,3.42798 -4.8125,4.03125 -0.0499,0.019 -0.10745,0.046 -0.15625,0.0625 -0.20189,0.053 -0.42019,0.0879 -0.625,0.125 -0.21338,0.0358 -0.41828,0.0716 -0.625,0.0937 -0.12331,0.0128 -0.25139,0.024 -0.375,0.0312 -0.47397,0.028 -0.9367,0.0201 -1.40625,-0.0312 -0.46955,-0.0514 -0.92381,-0.15318 -1.375,-0.28125 -0.0834,-0.0237 -0.16753,-0.0675 -0.25,-0.0937 -1.08524,-0.38478 -2.10921,-1.01546 -3.0625,-1.96875 l -0.90625,-0.90625 -0.78125,-1.09375 -1.71875,0.78125 -0.375,0.1875 -0.0937,0.0312 c -0.12231,0.0549 -0.24916,0.10383 -0.375,0.15625 -0.13668,0.0569 -0.26987,0.10349 -0.40625,0.15625 -0.0217,0.008 -0.0408,0.023 -0.0625,0.0312 -0.27188,0.10392 -0.5632,0.20077 -0.8125,0.28125 -0.26941,0.087 -0.50702,0.16926 -0.71875,0.21875 -0.20696,0.0471 -0.37847,0.0608 -0.5,0.0625 -0.1317,0.002 -0.24244,0.0334 -0.34375,0.0625 -0.31695,0.0733 -0.5625,0.21843 -0.5625,0.40625 0,0.02 0.0495,0.13641 0.0625,0.1875 -0.034,0.3706 0.13974,0.884 0.53125,1.5 0.83021,2.22002 2.44089,6.26589 4.0625,10.15625 0.114,0.44755 0.1755,0.79328 0.125,0.875 -0.16126,0.26094 -0.0574,0.46875 0.21875,0.46875 0.0921,0 0.21371,0.12739 0.34375,0.28125 0.0823,0.19499 0.1685,0.40169 0.25,0.59375 0.2587,0.60964 0.56284,1.14457 0.84375,1.59375 0.0907,0.145 0.16339,0.28732 0.25,0.40625 0.0663,0.1026 0.12144,0.19934 0.1875,0.28125 0.0701,0.081 0.1559,0.16355 0.21875,0.21875 0.009,0.008 0.022,0.0235 0.0312,0.0312 0.0362,0.0297 0.092,0.0428 0.125,0.0625 0.062,0.0357 0.10341,0.0625 0.15625,0.0625 0.0428,0 0.10907,0.049 0.1875,0.125 0.54899,0.53207 1.9137,2.82837 3.28125,5.5625 0.65683,1.31319 1.34139,2.56853 1.96875,3.6875 0.35173,0.62736 0.64512,1.17711 0.9375,1.65625 0.11679,0.19139 0.2717,0.433 0.375,0.59375 0.10686,0.18137 0.2936,0.55856 0.375,0.6875 1.22144,1.93487 1.31685,1.96291 2,1.03125 0.21199,-0.2891 0.79295,-1.8435 1.5625,-4 0.21148,-0.57344 0.45379,-1.26834 0.6875,-1.9375 0.11532,-0.33493 0.22465,-0.61742 0.34375,-0.96875 0.36085,-1.05822 0.72755,-2.19128 1.09375,-3.34375 0.0356,-0.10976 0.0894,-0.20226 0.125,-0.3125 1.70336,-5.27805 3.34917,-9.81595 3.6875,-10.09375 0.27733,-0.22771 1.18679,-2.88966 2.1875,-6.25 0.0495,-0.0377 0.1104,-0.0625 0.15625,-0.0625 0.25946,0 0.33546,-0.24129 0.15625,-0.53125 -0.0331,-0.0536 -0.0497,-0.11764 -0.0625,-0.1875 0.0981,-0.33643 0.1828,-0.65338 0.28125,-1 0.0178,-0.0241 0.0434,-0.0394 0.0625,-0.0625 0.33573,-0.40452 0.4639,-0.75 0.3125,-0.75 -0.0566,0 -0.0212,-0.30512 0.0625,-0.71875 l 1.375,-4.8125 0.65625,-2.15625 -0.0625,0 z"
       id="path3962"
       inkscape:connector-curvature="0" />
    <g
       id="g4011"
       transform="translate(29.090496,14.822205)">
      <path
         sodipodi:nodetypes="ccscscsscsc"
         inkscape:connector-curvature="0"
         id="path3969"
         d="m 284.74407,221.52658 c 0,0 47.88175,3.72308 75.30095,-3.81654 37.3444,0.76696 78.2266,29.40157 84.3031,50.28354 6.6435,22.83012 24.2437,60.60916 24.2437,60.60916 0,0 17.8499,-69.69888 27.2741,-91.92388 9.4243,-22.225 29.2944,-41.41626 29.2944,-41.41626 0,0 -18.9364,-45.28965 -38.3857,-63.6396 -19.4494,-18.34995 -17.227,-20.88685 -45.4569,-26.26397 -28.2299,-5.377127 -43.4366,-7.071067 -43.4366,-7.071067 0,0 -56.7378,23.268707 -65.6599,42.426407 -8.922,19.1577 -47.47715,80.81221 -47.47715,80.81221 z"
         style="fill:#00ef00;fill-opacity:1;stroke:#000000;stroke-width:1.79999995;stroke-linecap:butt;stroke-linejoin:miter;stroke-miterlimit:4;stroke-opacity:1;stroke-dasharray:none" />
      <path
         style="fill:#c70000;fill-opacity:1;stroke:#000000;stroke-width:1.79999995;stroke-linecap:butt;stroke-linejoin:miter;stroke-miterlimit:4;stroke-opacity:1;stroke-dasharray:none"
         d="m 184.74407,221.52658 c 0,0 47.88171,3.72308 75.30096,-3.81654 37.3444,0.76696 78.22659,29.40157 84.30309,50.28354 6.6435,22.83012 24.2437,60.60916 24.2437,60.60916 0,0 17.8499,-69.69888 27.2741,-91.92388 9.4243,-22.225 29.2944,-41.41626 29.2944,-41.41626 0,0 -18.9364,-45.28965 -38.3857,-63.6396 -19.4494,-18.34995 -17.227,-20.88685 -45.4569,-26.26397 -28.2299,-5.377127 -43.43658,-7.071067 -43.43658,-7.071067 0,0 -56.73785,23.268707 -65.65991,42.426407 -8.92206,19.1577 -47.47716,80.81221 -47.47716,80.81221 z"
         id="path3971"
         inkscape:connector-curvature="0"
         sodipodi:nodetypes="ccscscsscsc" />
    </g>
    <g
       id="g4048"
       transform="translate(-24.702022,-32.733964)">
      <g
         transform="translate(3.0304576,7.5761441)"
         id="g6062">
        <path
           inkscape:transform-center-y="-135.71429"
           inkscape:transform-center-x="-464.91841"
           sodipodi:type="arc"
           style="fill:#000000;fill-opacity:1;stroke:#000000;stroke-width:3;stroke-miterlimit:4;stroke-opacity:1;stroke-dasharray:none;stroke-dashoffset:0"
           id="path4822"
           sodipodi:cx="-1382.8572"
           sodipodi:cy="-227.63782"
           sodipodi:rx="5.7142859"
           sodipodi:ry="8.5714283"
           d="m -1377.1429,-227.63782 c 0,4.73387 -2.5584,8.57143 -5.7143,8.57143 -3.1559,0 -5.7143,-3.83756 -5.7143,-8.57143 0,-4.73387 2.5584,-8.57143 5.7143,-8.57143 3.1559,0 5.7143,3.83756 5.7143,8.57143 z"
           transform="matrix(1.1377874,0,0,0.79166668,1969.1117,457.21831)" />
        <path
           style="fill:none;stroke:#000000;stroke-width:3.90090632;stroke-linecap:butt;stroke-linejoin:miter;stroke-miterlimit:4;stroke-opacity:1;stroke-dasharray:none;marker-end:url(#Arrow1Mend)"
           d="m 397.16999,272.84012 36.56575,-58.23764"
           id="path5238"
           inkscape:connector-curvature="0" />
      </g>
      <path
         inkscape:connector-curvature="0"
         id="path3938"
         d="m 393.46704,307.75304 c -4.78388,-10.59915 -6.3624,-16.15931 -4.86198,-17.12578 1.22196,-0.7871 3.09303,-0.55982 4.15792,0.50508 3.35662,3.35661 10.88221,2.10501 13.98582,-2.32601 6.05834,-8.64949 6.70865,-2.39722 1.53328,14.74144 -2.91482,9.65267 -5.84678,18.07898 -6.51549,18.72513 -0.6687,0.64614 -4.40349,-5.88779 -8.29955,-14.51986 z"
         style="opacity:0.52380952;fill:#cdcdcd;fill-opacity:1;stroke:#cdcdcd;stroke-width:10.10152531;stroke-miterlimit:4;stroke-opacity:1;stroke-dasharray:60.60915354, 60.60915354;stroke-dashoffset:0" />
    </g>
    <g
       id="g4054"
       transform="translate(-54.548238,16.162449)">
      <g
         transform="translate(8.0812204,18.182746)"
         id="g6058">
        <path
           transform="matrix(1.1377874,0,0,0.79166668,1926.2546,304.36117)"
           d="m -1377.1429,-227.63782 c 0,4.73387 -2.5584,8.57143 -5.7143,8.57143 -3.1559,0 -5.7143,-3.83756 -5.7143,-8.57143 0,-4.73387 2.5584,-8.57143 5.7143,-8.57143 3.1559,0 5.7143,3.83756 5.7143,8.57143 z"
           sodipodi:ry="8.5714283"
           sodipodi:rx="5.7142859"
           sodipodi:cy="-227.63782"
           sodipodi:cx="-1382.8572"
           id="path4816"
           style="fill:#000000;fill-opacity:1;stroke:#000000;stroke-width:3;stroke-miterlimit:4;stroke-opacity:1;stroke-dasharray:none;stroke-dashoffset:0"
           sodipodi:type="arc"
           inkscape:transform-center-x="-464.91841"
           inkscape:transform-center-y="-135.71429" />
        <path
           style="fill:none;stroke:#000000;stroke-width:3.5;stroke-linecap:butt;stroke-linejoin:miter;stroke-miterlimit:4;stroke-opacity:1;stroke-dasharray:none;marker-end:url(#Arrow1Mend)"
           d="M 353.10225,123.79075 384.53082,50.933611"
           id="path5236"
           inkscape:connector-curvature="0" />
      </g>
    </g>
    <path
       sodipodi:type="arc"
       style="fill:#000000;fill-opacity:1;stroke:#000000;stroke-width:3;stroke-miterlimit:4;stroke-opacity:1;stroke-dasharray:none;stroke-dashoffset:0"
       id="path4065"
       sodipodi:cx="-1382.8572"
       sodipodi:cy="-227.63782"
       sodipodi:rx="5.7142859"
       sodipodi:ry="8.5714283"
       d="m -1377.1429,-227.63782 a 5.7142859,8.5714283 0 1 1 -11.4286,0 5.7142859,8.5714283 0 1 1 11.4286,0 z"
       transform="matrix(1.4438977,0,0,1,2996.3368,366.25886)" />
    <path
       sodipodi:nodetypes="cc"
       inkscape:connector-curvature="0"
       id="path4067"
       d="M 997.36232,142.41756 1105.302,186.34743"
       style="fill:none;stroke:#000000;stroke-width:3.79494905;stroke-linecap:butt;stroke-linejoin:miter;stroke-miterlimit:4;stroke-opacity:1;stroke-dasharray:none;marker-end:url(#Arrow1Lend)" />
    <path
       style="fill:none;stroke:#000000;stroke-width:3.79494905;stroke-linecap:butt;stroke-linejoin:miter;stroke-miterlimit:4;stroke-opacity:1;stroke-dasharray:none;marker-end:url(#Arrow1Lend)"
       d="M 997.36232,142.41756 1105.302,186.34743"
       id="path4087"
       inkscape:connector-curvature="0"
       sodipodi:nodetypes="cc" />
    <g
       id="g4097">
      <path
         style="fill:none;stroke:#000000;stroke-width:3.79494905;stroke-linecap:butt;stroke-linejoin:miter;stroke-miterlimit:4;stroke-opacity:1;stroke-dasharray:none;marker-end:url(#Arrow1Lend)"
         d="m 1195.3523,122.21451 107.9395,43.92987"
         id="path4089"
         inkscape:connector-curvature="0"
         sodipodi:nodetypes="cc" />
      <path
         sodipodi:type="arc"
         style="fill:#000000;fill-opacity:1;stroke:#000000;stroke-width:3;stroke-miterlimit:4;stroke-opacity:1;stroke-dasharray:none;stroke-dashoffset:0"
         id="path4095"
         sodipodi:cx="-1382.8572"
         sodipodi:cy="-227.63782"
         sodipodi:rx="5.7142859"
         sodipodi:ry="8.5714283"
         d="m -1377.1429,-227.63782 a 5.7142859,8.5714283 0 1 1 -11.4286,0 5.7142859,8.5714283 0 1 1 11.4286,0 z"
         transform="matrix(1.4438977,0,0,1,3190.0336,346.56089)" />
    </g>
    <g
       id="g4101"
       transform="translate(-690.94435,82.83251)">
      <path
         sodipodi:nodetypes="cc"
         inkscape:connector-curvature="0"
         id="path4103"
         d="m 1195.3523,122.21451 107.9395,43.92987"
         style="fill:none;stroke:#000000;stroke-width:3.79494905;stroke-linecap:butt;stroke-linejoin:miter;stroke-miterlimit:4;stroke-opacity:1;stroke-dasharray:none;marker-end:url(#Arrow1Lend)" />
      <path
         transform="matrix(1.4438977,0,0,1,3190.0336,346.56089)"
         d="m -1377.1429,-227.63782 c 0,4.73387 -2.5584,8.57143 -5.7143,8.57143 -3.1559,0 -5.7143,-3.83756 -5.7143,-8.57143 0,-4.73387 2.5584,-8.57143 5.7143,-8.57143 3.1559,0 5.7143,3.83756 5.7143,8.57143 z"
         sodipodi:ry="8.5714283"
         sodipodi:rx="5.7142859"
         sodipodi:cy="-227.63782"
         sodipodi:cx="-1382.8572"
         id="path4105"
         style="fill:#000000;fill-opacity:1;stroke:#000000;stroke-width:3;stroke-miterlimit:4;stroke-opacity:1;stroke-dasharray:none;stroke-dashoffset:0"
         sodipodi:type="arc" />
    </g>
    <path
       style="fill:#000000;fill-opacity:1;fill-rule:nonzero;stroke:none"
       id="path4123"
       d="m 406.75567,127.99231 c 1.51113,1.17009 2.90607,2.52464 4.51135,3.56788 1.05408,0.81865 2.18773,1.53833 3.12529,2.49518 1.06671,0.85501 1.97484,1.87087 2.96641,2.80665 0.86667,1.00111 1.8905,1.84544 2.62301,2.95475 0.69727,0.92978 1.29469,1.9294 1.92292,2.90644 0.5652,0.98756 1.1016,1.9865 1.64336,2.98767 0.3674,1.00199 1.06079,1.81419 1.55805,2.74456 0.66014,0.88398 1.18614,1.8095 1.6977,2.78401 0.3308,1.14658 1.09143,1.98284 1.71217,2.95931 0.79593,0.87776 1.26674,1.96179 1.84585,2.97641 0.48041,0.90185 1.08163,1.76908 1.82743,2.47217 0.68436,0.72172 1.34286,1.48907 2.10383,2.13364 0.65931,0.83456 1.29767,1.69071 1.92525,2.55145 0.86148,0.86201 1.45082,1.87189 2.06702,2.91282 0.46011,0.97072 1.23175,1.72152 1.77253,2.64039 0.51107,0.84794 1.18842,1.55899 1.80397,2.32553 0.53582,0.93582 1.27075,1.72264 1.79925,2.66077 0.48848,0.5058 0.62272,1.24432 1.04862,1.78538 0.18109,0.23005 0.41231,0.41633 0.60491,0.63684 0.60503,0.92262 1.31937,1.75175 2.02608,2.59395 0.69997,1.1154 1.44121,2.2149 2.02996,3.39425 0.68427,1.00136 1.15057,2.12071 1.72365,3.18111 0.55248,1.05604 1.07214,2.14303 1.84039,3.06194 0.65816,0.9643 1.31222,1.93752 1.8849,2.95781 0.66517,0.96954 1.29374,1.98171 1.79381,3.04776 0.38089,1.03438 0.79703,2.05458 1.27148,3.04936 0.32466,1.02838 0.73369,1.98565 1.28022,2.9118 0.70364,0.85019 1.33555,1.75879 1.96755,2.66284 0.36419,0.64032 0.73214,1.28753 1.1977,1.85971 0,0 -12.76283,7.5904 -12.76283,7.5904 l 0,0 c -0.44662,-0.61121 -0.85199,-1.25307 -1.21423,-1.91828 -0.66213,-0.93353 -1.34456,-1.84944 -2.04395,-2.75558 -0.5689,-0.96278 -1.04166,-1.94744 -1.3423,-3.02864 -0.47613,-1.00182 -0.91631,-2.02233 -1.27514,-3.07164 -0.46188,-1.03676 -1.09539,-1.99715 -1.71725,-2.9432 -0.54734,-0.94885 -1.17582,-1.85375 -1.78252,-2.76341 -0.76628,-1.02648 -1.38575,-2.14931 -1.96346,-3.29062 -0.57099,-1.08269 -1.07547,-2.19644 -1.74822,-3.22617 -0.51456,-1.07708 -1.194,-2.07327 -1.84773,-3.06919 -0.71729,-0.82484 -1.40547,-1.6684 -2.03555,-2.56282 -0.73336,-0.82851 -1.22823,-1.75413 -1.80554,-2.68991 -0.48562,-0.85745 -1.18133,-1.57735 -1.67219,-2.43497 -0.68408,-0.80835 -1.35792,-1.62109 -1.91561,-2.52481 -0.54515,-0.91269 -1.33483,-1.66992 -1.76666,-2.65675 -0.57649,-1.00508 -1.17546,-1.92857 -1.99862,-2.76182 -0.58581,-0.77443 -1.13104,-1.58849 -1.77968,-2.30815 -0.73562,-0.71694 -1.46089,-1.44698 -2.14789,-2.21058 -0.77359,-0.85413 -1.48529,-1.77718 -2.00035,-2.81258 -0.55621,-1.00003 -1.06022,-2.0194 -1.81815,-2.89411 -0.64807,-1.00067 -1.39934,-1.90874 -1.75456,-3.07401 -0.51909,-0.96518 -1.09993,-1.86376 -1.71872,-2.7709 -0.49138,-0.92718 -1.20185,-1.73449 -1.55191,-2.73918 -0.52077,-0.96939 -1.0309,-1.93905 -1.57216,-2.89674 -0.62441,-0.9703 -1.2334,-1.95052 -1.91702,-2.88086 -0.67658,-0.99852 -1.62795,-1.77993 -2.41252,-2.69092 -0.99653,-0.94064 -1.94042,-1.93142 -3.00092,-2.80328 -0.93605,-0.83641 -1.97297,-1.55596 -2.95115,-2.34189 -1.51873,-1.16039 -2.91222,-2.4841 -4.54386,-3.4971 0,0 12.48603,-7.99467 12.48603,-7.99467 z"
       inkscape:connector-curvature="0" />
    <path
       style="fill:#000000;fill-opacity:1;fill-rule:nonzero;stroke:none"
       id="path4125"
       d="m 422.08725,248.4227 c 1.02659,-1.3907 2.14115,-2.69683 3.41114,-3.87136 1.12458,-0.99444 2.25456,-1.99663 3.2804,-3.09411 0.95612,-1.03668 1.57707,-2.3226 2.02692,-3.64678 0.332,-1.39373 0.70957,-2.77492 0.94087,-4.18999 0.0889,-1.29327 0.45068,-2.53676 0.71823,-3.7988 0.31333,-1.33381 1.08573,-2.38343 1.93666,-3.41616 0.66373,-1.08035 1.65481,-1.88518 2.53407,-2.78425 0.79986,-0.90571 1.52505,-1.88536 2.38965,-2.73053 0.34451,-0.66388 1.03169,-0.91952 1.55445,-1.3799 0.24883,-0.21915 0.45351,-0.48464 0.69714,-0.70955 0.76818,-0.97614 1.52451,-1.95844 2.27235,-2.95188 0.70117,-0.89351 1.52191,-1.67942 2.25291,-2.5444 0.70683,-0.73028 1.4772,-1.40325 2.14625,-2.16947 0.85804,-0.81779 1.72056,-1.59299 2.64849,-2.32786 0,0 13.73101,-5.59421 13.73101,-5.59421 l 0,0 c -0.10862,0.10822 -0.73015,0.73855 -0.86959,0.83504 -0.67624,0.46795 -0.37244,0.006 -0.95831,0.61863 -0.14252,0.14892 -0.23147,0.34348 -0.37361,0.49276 -0.12672,0.13308 -0.28484,0.23223 -0.42726,0.34835 -0.78927,0.56716 -1.47598,1.45698 -2.15988,2.15079 -0.89647,0.6638 -1.59302,1.61039 -2.33187,2.43815 -0.89134,0.84311 -1.59462,1.86583 -2.2598,2.88674 -0.58753,0.91689 -1.28745,1.621 -2.24558,2.13137 -0.72668,0.96945 -1.68685,1.75261 -2.44606,2.70384 -0.71612,1.03933 -1.63525,1.8551 -2.57137,2.66897 -0.63008,1.08209 -1.72172,1.78333 -2.09004,3.02143 -0.46663,0.95324 -0.67585,2.51937 -0.87299,3.57613 -0.1724,1.48553 -0.54256,2.91295 -0.85611,4.36791 -0.34067,1.51244 -0.93481,2.93944 -1.76137,4.25288 -0.97699,1.19324 -2.07504,2.2485 -3.21467,3.28269 -1.281,1.05284 -2.61992,2.14448 -3.45013,3.60096 0,0 -13.6519,5.83261 -13.6519,5.83261 z"
       inkscape:connector-curvature="0" />
    <path
       style="fill:none;stroke:#000000;stroke-width:5;stroke-linecap:butt;stroke-linejoin:miter;stroke-opacity:1;stroke-miterlimit:4;stroke-dasharray:none;marker-end:url(#Arrow1Lend)"
       d="m 448.50774,185.65129 220.21325,379.81736 0,0"
       id="path4127"
       inkscape:connector-curvature="0" />
    <text
       xml:space="preserve"
       style="font-size:72px;font-style:normal;font-weight:normal;line-height:125%;letter-spacing:0px;word-spacing:0px;fill:#000000;fill-opacity:1;stroke:none;font-family:Sans"
       x="699.02557"
       y="577.59045"
       id="text4315"
       sodipodi:linespacing="125%"><tspan
         sodipodi:role="line"
         id="tspan4317"
         x="699.02557"
         y="577.59045"
         style="font-size:64px">Occlusion </tspan><tspan
         sodipodi:role="line"
         x="699.02557"
         y="667.59045"
         id="tspan4319"
         style="font-size:64px">boundary</tspan></text>
  </g>
</svg>
