<?xml version="1.0" encoding="UTF-8" standalone="no"?>
<!-- Created with Inkscape (http://www.inkscape.org/) -->

<svg
   xmlns:ns0="http://www.iki.fi/pav/software/textext/"
   xmlns:dc="http://purl.org/dc/elements/1.1/"
   xmlns:cc="http://creativecommons.org/ns#"
   xmlns:rdf="http://www.w3.org/1999/02/22-rdf-syntax-ns#"
   xmlns:svg="http://www.w3.org/2000/svg"
   xmlns="http://www.w3.org/2000/svg"
   xmlns:xlink="http://www.w3.org/1999/xlink"
   xmlns:sodipodi="http://sodipodi.sourceforge.net/DTD/sodipodi-0.dtd"
   xmlns:inkscape="http://www.inkscape.org/namespaces/inkscape"
   width="744.09448819"
   height="1052.3622047"
   id="svg2"
   version="1.1"
   inkscape:version="0.48.3.1 r9886"
   sodipodi:docname="simpletransforms.svg"
   inkscape:export-filename="/home/francois/Documents/Courses/VisionAndImageProcessing/lectures/Francois/FIGURES/simpletransforms.png"
   inkscape:export-xdpi="90"
   inkscape:export-ydpi="90">
  <sodipodi:namedview
     id="base"
     pagecolor="#ffffff"
     bordercolor="#666666"
     borderopacity="1.0"
     inkscape:pageopacity="0.0"
     inkscape:pageshadow="2"
     inkscape:zoom="0.98994949"
     inkscape:cx="201.15382"
     inkscape:cy="701.19128"
     inkscape:document-units="px"
     inkscape:current-layer="layer1"
     showgrid="true"
     inkscape:window-width="1920"
     inkscape:window-height="1056"
     inkscape:window-x="0"
     inkscape:window-y="24"
     inkscape:window-maximized="1">
    <inkscape:grid
       snapvisiblegridlinesonly="true"
       enabled="true"
       visible="true"
       empspacing="5"
       type="xygrid"
       id="grid2985" />
  </sodipodi:namedview>
  <defs
     id="defs4">
    <marker
       inkscape:stockid="Arrow1Lend"
       orient="auto"
       refY="0.0"
       refX="0.0"
       id="Arrow1Lend"
       style="overflow:visible;">
      <path
         id="path3869"
         d="M 0.0,0.0 L 5.0,-5.0 L -12.5,0.0 L 5.0,5.0 L 0.0,0.0 z "
         style="fill-rule:evenodd;stroke:#000000;stroke-width:1.0pt;"
         transform="scale(0.8) rotate(180) translate(12.5,0)" />
    </marker>
    <marker
       inkscape:stockid="Arrow1Lstart"
       orient="auto"
       refY="0.0"
       refX="0.0"
       id="Arrow1Lstart"
       style="overflow:visible">
      <path
         id="path3761"
         d="M 0.0,0.0 L 5.0,-5.0 L -12.5,0.0 L 5.0,5.0 L 0.0,0.0 z "
         style="fill-rule:evenodd;stroke:#000000;stroke-width:1.0pt"
         transform="scale(0.8) translate(12.5,0)" />
    </marker>
  </defs>
  <metadata
     id="metadata7">
    <rdf:RDF>
      <cc:Work
         rdf:about="">
        <dc:format>image/svg+xml</dc:format>
        <dc:type
           rdf:resource="http://purl.org/dc/dcmitype/StillImage" />
        <dc:title />
      </cc:Work>
    </rdf:RDF>
  </metadata>
  <g
     inkscape:label="Layer 1"
     inkscape:groupmode="layer"
     id="layer1">
    <path
       style="fill:none;stroke:#000000;stroke-width:5;stroke-linecap:butt;stroke-linejoin:miter;stroke-miterlimit:4;stroke-opacity:1;stroke-dasharray:none;marker-start:url(#Arrow1Lstart)"
       d="m -1040,12.362183 0,559.999997"
       id="path2987"
       inkscape:connector-curvature="0" />
    <path
       inkscape:connector-curvature="0"
       id="path4216"
       d="m -560,492.36218 -560,0"
       style="fill:none;stroke:#000000;stroke-width:5;stroke-linecap:butt;stroke-linejoin:miter;stroke-miterlimit:4;stroke-opacity:1;stroke-dasharray:none;marker-start:url(#Arrow1Lstart)" />
    <path
       style="fill:none;stroke:#000000;stroke-width:3;stroke-linecap:butt;stroke-linejoin:miter;stroke-opacity:1;stroke-miterlimit:4;stroke-dasharray:none"
       d="m -1040,492.36218 400,-200"
       id="path4218"
       inkscape:connector-curvature="0" />
    <path
       inkscape:connector-curvature="0"
       id="path4220"
       d="M -1040.951,491.81314 -794.5408,118.60806"
       style="fill:none;stroke:#000000;stroke-width:3;stroke-linecap:butt;stroke-linejoin:miter;stroke-miterlimit:4;stroke-opacity:1;stroke-dasharray:none"
       inkscape:transform-center-x="-123.7541"
       inkscape:transform-center-y="-188.65158" />
    <path
       sodipodi:type="arc"
       style="fill:#000000;fill-opacity:1;stroke:#000000;stroke-width:3;stroke-miterlimit:4;stroke-opacity:1;stroke-dasharray:none;stroke-dashoffset:0"
       id="path4222"
       sodipodi:cx="-645"
       sodipodi:cy="77.362183"
       sodipodi:rx="5"
       sodipodi:ry="5"
       d="m -640,77.362183 a 5,5 0 1 1 -10,0 5,5 0 1 1 10,0 z"
       transform="translate(6,214)" />
    <path
       transform="translate(-150,40)"
       d="m -640,77.362183 a 5,5 0 1 1 -10,0 5,5 0 1 1 10,0 z"
       sodipodi:ry="5"
       sodipodi:rx="5"
       sodipodi:cy="77.362183"
       sodipodi:cx="-645"
       id="path4224"
       style="fill:#000000;fill-opacity:1;stroke:#000000;stroke-width:3;stroke-miterlimit:4;stroke-opacity:1;stroke-dasharray:none;stroke-dashoffset:0"
       sodipodi:type="arc" />
    <text
       xml:space="preserve"
       style="font-size:56px;font-style:normal;font-weight:normal;line-height:125%;letter-spacing:0px;word-spacing:0px;fill:#000000;fill-opacity:1;stroke:none;font-family:Sans"
       x="-614.17273"
       y="287.6767"
       id="text4226"
       sodipodi:linespacing="125%"><tspan
         sodipodi:role="line"
         id="tspan4228"
         x="-614.17273"
         y="287.6767" /></text>
    <g
       transform="matrix(7,0,0,7,-2179.6617,-642.74561)"
       ns0:text="$\\bv$"
       ns0:preamble="/home/francois/Documents/Mypapers/InkscapeHeader/header.inc"
       id="g4286">
      <defs
         id="defs4288">
        <g
           id="g4290">
          <symbol
             style="overflow:visible"
             overflow="visible"
             id="textext-5da5165b-0">
            <path
               inkscape:connector-curvature="0"
               style="stroke:none"
               d="m 5.046875,-3.75 c 0.0625,-0.140625 0.09375,-0.203125 0.734375,-0.203125 l 0,-0.46875 C 5.53125,-4.40625 5.25,-4.390625 5,-4.390625 c -0.25,0 -0.703125,-0.03125 -0.90625,-0.03125 l 0,0.46875 c 0.1875,0 0.46875,0.03125 0.46875,0.109375 0,0 0,0.03125 -0.046875,0.109375 l -1.15625,2.5 -1.265625,-2.71875 0.53125,0 0,-0.46875 c -0.328125,0.015625 -1.21875,0.03125 -1.234375,0.03125 -0.28125,0 -0.71875,-0.03125 -1.125,-0.03125 l 0,0.46875 0.625,0 1.75,3.75 c 0.125,0.25 0.25,0.25 0.375,0.25 0.171875,0 0.28125,-0.03125 0.375,-0.25 z m 0,0"
               id="path4293" />
          </symbol>
        </g>
      </defs>
      <g
         id="textext-5da5165b-1">
        <g
           style="fill:#000000;fill-opacity:1"
           id="g4296">
          <use
             height="1052.3622"
             width="744.09448"
             xlink:href="#textext-5da5165b-0"
             x="223.43201"
             y="134.765"
             id="use4298" />
        </g>
      </g>
    </g>
    <g
       id="g4362"
       transform="matrix(7,0,0,7,-2382.7024,-843.76597)"
       ns0:preamble="/home/francois/Documents/Mypapers/InkscapeHeader/header.inc"
       ns0:text="$R_\\theta\\bv$">
      <defs
         id="defs4364">
        <g
           id="g4366">
          <symbol
             id="textext-01a18147-0"
             overflow="visible"
             style="overflow:visible">
            <path
               id="path4369"
               d="m 3.734375,-6.125 c 0.0625,-0.234375 0.09375,-0.328125 0.28125,-0.359375 C 4.109375,-6.5 4.421875,-6.5 4.625,-6.5 c 0.703125,0 1.8125,0 1.8125,0.984375 0,0.34375 -0.15625,1.03125 -0.546875,1.421875 -0.265625,0.25 -0.78125,0.578125 -1.6875,0.578125 l -1.109375,0 z m 1.4375,2.734375 c 1.015625,-0.21875 2.1875,-0.921875 2.1875,-1.921875 0,-0.859375 -0.890625,-1.5 -2.203125,-1.5 l -2.828125,0 c -0.203125,0 -0.296875,0 -0.296875,0.203125 C 2.03125,-6.5 2.125,-6.5 2.3125,-6.5 c 0.015625,0 0.203125,0 0.375,0.015625 0.1875,0.03125 0.265625,0.03125 0.265625,0.171875 0,0.03125 0,0.0625 -0.03125,0.1875 l -1.34375,5.34375 C 1.484375,-0.390625 1.46875,-0.3125 0.671875,-0.3125 0.5,-0.3125 0.40625,-0.3125 0.40625,-0.109375 0.40625,0 0.53125,0 0.546875,0 c 0.28125,0 0.984375,-0.03125 1.25,-0.03125 0.28125,0 1,0.03125 1.28125,0.03125 0.078125,0 0.1875,0 0.1875,-0.203125 0,-0.109375 -0.078125,-0.109375 -0.28125,-0.109375 -0.359375,0 -0.640625,0 -0.640625,-0.171875 0,-0.0625 0.015625,-0.109375 0.03125,-0.171875 l 0.65625,-2.640625 1.1875,0 c 0.90625,0 1.078125,0.5625 1.078125,0.90625 0,0.140625 -0.078125,0.453125 -0.140625,0.6875 C 5.09375,-1.421875 5,-1.0625 5,-0.859375 5,0.21875 6.203125,0.21875 6.328125,0.21875 c 0.84375,0 1.203125,-1 1.203125,-1.140625 0,-0.125 -0.109375,-0.125 -0.125,-0.125 -0.09375,0 -0.109375,0.0625 -0.125,0.140625 C 7.03125,-0.171875 6.59375,0 6.375,0 6.046875,0 5.96875,-0.21875 5.96875,-0.609375 c 0,-0.3125 0.0625,-0.8125 0.109375,-1.140625 0.015625,-0.140625 0.03125,-0.328125 0.03125,-0.46875 0,-0.765625 -0.671875,-1.078125 -0.9375,-1.171875 z m 0,0"
               style="stroke:none"
               inkscape:connector-curvature="0" />
          </symbol>
          <symbol
             id="textext-01a18147-1"
             overflow="visible"
             style="overflow:visible">
            <path
               id="path4372"
               d="m 3.5625,-3.390625 c 0,-0.734375 -0.28125,-1.515625 -0.96875,-1.515625 -1.046875,0 -2.15625,1.875 -2.15625,3.46875 0,0.828125 0.328125,1.5 0.96875,1.5 1.046875,0 2.15625,-1.890625 2.15625,-3.453125 z m -2.34375,0.84375 c 0.359375,-1.5 0.96875,-2.15625 1.375,-2.15625 0.4375,0 0.4375,0.765625 0.4375,0.890625 0,0.28125 -0.046875,0.6875 -0.1875,1.265625 z m 1.5625,0.25 C 2.578125,-1.53125 2.421875,-1.15625 2.203125,-0.8125 2,-0.453125 1.71875,-0.125 1.40625,-0.125 c -0.375,0 -0.4375,-0.53125 -0.4375,-0.90625 0,-0.453125 0.125,-1 0.1875,-1.265625 z m 0,0"
               style="stroke:none"
               inkscape:connector-curvature="0" />
          </symbol>
          <symbol
             id="textext-01a18147-2"
             overflow="visible"
             style="overflow:visible">
            <path
               id="path4375"
               d="m 5.046875,-3.75 c 0.0625,-0.140625 0.09375,-0.203125 0.734375,-0.203125 l 0,-0.46875 C 5.53125,-4.40625 5.25,-4.390625 5,-4.390625 c -0.25,0 -0.703125,-0.03125 -0.90625,-0.03125 l 0,0.46875 c 0.1875,0 0.46875,0.03125 0.46875,0.109375 0,0 0,0.03125 -0.046875,0.109375 l -1.15625,2.5 -1.265625,-2.71875 0.53125,0 0,-0.46875 c -0.328125,0.015625 -1.21875,0.03125 -1.234375,0.03125 -0.28125,0 -0.71875,-0.03125 -1.125,-0.03125 l 0,0.46875 0.625,0 1.75,3.75 c 0.125,0.25 0.25,0.25 0.375,0.25 0.171875,0 0.28125,-0.03125 0.375,-0.25 z m 0,0"
               style="stroke:none"
               inkscape:connector-curvature="0" />
          </symbol>
        </g>
      </defs>
      <g
         id="textext-01a18147-3">
        <g
           id="g4378"
           style="fill:#000000;fill-opacity:1">
          <use
             id="use4380"
             y="134.765"
             x="223.43201"
             xlink:href="#textext-01a18147-0"
             width="744.09448"
             height="1052.3622" />
        </g>
        <g
           id="g4382"
           style="fill:#000000;fill-opacity:1">
          <use
             id="use4384"
             y="136.259"
             x="230.99699"
             xlink:href="#textext-01a18147-1"
             width="744.09448"
             height="1052.3622" />
        </g>
        <g
           id="g4386"
           style="fill:#000000;fill-opacity:1">
          <use
             id="use4388"
             y="134.765"
             x="235.504"
             xlink:href="#textext-01a18147-2"
             width="744.09448"
             height="1052.3622" />
        </g>
      </g>
    </g>
    <path
       style="fill:none;stroke:#000000;stroke-width:3;stroke-linecap:butt;stroke-linejoin:miter;stroke-opacity:1;stroke-miterlimit:4;stroke-dasharray:none"
       d="m -980,402.36218 c 0,0 13.61939,-1.93189 20,0 5.75141,1.74139 11.35242,5.22441 15,10 3.19914,4.18847 4.15577,9.79759 5,15 0.80091,4.93544 0,15 0,15"
       id="path4443"
       inkscape:connector-curvature="0"
       sodipodi:nodetypes="caaac" />
    <g
       ns0:text="$\\theta$"
       ns0:preamble="/home/francois/Documents/Mypapers/InkscapeHeader/header.inc"
       transform="matrix(7,0,0,7,-2502.7024,-535.19454)"
       id="g4518">
      <defs
         id="defs4520">
        <g
           id="g4522">
          <symbol
             style="overflow:visible"
             overflow="visible"
             id="textext-07d522c2-0">
            <path
               inkscape:connector-curvature="0"
               style="stroke:none"
               d="m 4.53125,-4.984375 c 0,-0.65625 -0.171875,-2.046875 -1.1875,-2.046875 -1.390625,0 -2.921875,2.8125 -2.921875,5.09375 0,0.9375 0.28125,2.046875 1.1875,2.046875 1.40625,0 2.921875,-2.859375 2.921875,-5.09375 z M 1.46875,-3.625 C 1.640625,-4.25 1.84375,-5.046875 2.25,-5.765625 2.515625,-6.25 2.875,-6.8125 3.328125,-6.8125 c 0.484375,0 0.546875,0.640625 0.546875,1.203125 0,0.5 -0.078125,1 -0.3125,1.984375 z m 2,0.328125 C 3.359375,-2.84375 3.15625,-2 2.765625,-1.28125 c -0.34375,0.6875 -0.71875,1.171875 -1.15625,1.171875 -0.328125,0 -0.53125,-0.296875 -0.53125,-1.21875 0,-0.421875 0.0625,-1 0.3125,-1.96875 z m 0,0"
               id="path4525" />
          </symbol>
        </g>
      </defs>
      <g
         id="textext-07d522c2-1">
        <g
           style="fill:#000000;fill-opacity:1"
           id="g4528">
          <use
             height="1052.3622"
             width="744.09448"
             xlink:href="#textext-07d522c2-0"
             x="223.43201"
             y="134.765"
             id="use4530" />
        </g>
      </g>
    </g>
    <g
       transform="translate(700,0)"
       id="g4583">
      <path
         style="fill:none;stroke:#000000;stroke-width:5;stroke-linecap:butt;stroke-linejoin:miter;stroke-miterlimit:4;stroke-opacity:1;stroke-dasharray:none;marker-start:url(#Arrow1Lstart)"
         d="m -1040,12.362183 0,559.999997"
         id="path4585"
         inkscape:connector-curvature="0" />
      <path
         inkscape:connector-curvature="0"
         id="path4587"
         d="m -560,492.36218 -560,0"
         style="fill:none;stroke:#000000;stroke-width:5;stroke-linecap:butt;stroke-linejoin:miter;stroke-miterlimit:4;stroke-opacity:1;stroke-dasharray:none;marker-start:url(#Arrow1Lstart)" />
    </g>
    <path
       sodipodi:nodetypes="ccc"
       inkscape:connector-curvature="0"
       id="path4589"
       d="m -340,332.36218 160,0 0,160"
       style="fill:none;stroke:#000000;stroke-width:3;stroke-linecap:butt;stroke-linejoin:miter;stroke-miterlimit:4;stroke-opacity:1;stroke-dasharray:9, 9;stroke-dashoffset:0" />
    <path
       transform="translate(465,255)"
       d="m -640,77.362183 a 5,5 0 1 1 -10,0 5,5 0 1 1 10,0 z"
       sodipodi:ry="5"
       sodipodi:rx="5"
       sodipodi:cy="77.362183"
       sodipodi:cx="-645"
       id="path4591"
       style="fill:#000000;fill-opacity:1;stroke:#000000;stroke-width:3;stroke-miterlimit:4;stroke-opacity:1;stroke-dasharray:none;stroke-dashoffset:0"
       sodipodi:type="arc" />
    <path
       inkscape:connector-curvature="0"
       id="path4593"
       d="m -340,372.36218 380,0 0,120"
       style="fill:none;stroke:#000000;stroke-width:3;stroke-linecap:butt;stroke-linejoin:miter;stroke-miterlimit:4;stroke-opacity:1;stroke-dasharray:12, 12;stroke-dashoffset:0" />
    <path
       sodipodi:type="arc"
       style="fill:#000000;fill-opacity:1;stroke:#000000;stroke-width:3;stroke-miterlimit:4;stroke-opacity:1;stroke-dasharray:none;stroke-dashoffset:0"
       id="path4595"
       sodipodi:cx="-645"
       sodipodi:cy="77.362183"
       sodipodi:rx="5"
       sodipodi:ry="5"
       d="m -640,77.362183 a 5,5 0 1 1 -10,0 5,5 0 1 1 10,0 z"
       transform="translate(685,295)" />
    <path
       inkscape:connector-curvature="0"
       id="path4597"
       d="m -180,332.36218 -160,160 380,-120"
       style="fill:none;stroke:#000000;stroke-width:3;stroke-linecap:butt;stroke-linejoin:miter;stroke-miterlimit:4;stroke-opacity:1;stroke-dasharray:none" />
    <text
       xml:space="preserve"
       style="font-size:56px;font-style:normal;font-weight:normal;line-height:125%;letter-spacing:0px;word-spacing:0px;fill:#000000;fill-opacity:1;stroke:none;font-family:Sans"
       x="-200"
       y="532.36218"
       id="text3705"
       sodipodi:linespacing="125%"><tspan
         sodipodi:role="line"
         id="tspan3707"
         x="-200"
         y="532.36218">1</tspan></text>
    <text
       sodipodi:linespacing="125%"
       id="text3709"
       y="332.36218"
       x="-400"
       style="font-size:56px;font-style:normal;font-weight:normal;line-height:125%;letter-spacing:0px;word-spacing:0px;fill:#000000;fill-opacity:1;stroke:none;font-family:Sans"
       xml:space="preserve"><tspan
         y="332.36218"
         x="-400"
         id="tspan3711"
         sodipodi:role="line">1</tspan></text>
    <g
       ns0:text="$\\udesc{\\alpha}{~~~~~~~~~~~~~~~~}$"
       ns0:preamble="/home/francois/Documents/Mypapers/InkscapeHeader/header.inc"
       transform="matrix(7,0,0,7,-1890.2305,-391.91519)"
       id="g3775">
      <defs
         id="defs3777">
        <g
           id="g3779">
          <symbol
             overflow="visible"
             id="textext-9b89bfec-0"
             style="overflow:visible">
            <path
               style="stroke:none"
               d="m 4.578125,-0.921875 c 0,-0.21875 0,-0.28125 -0.125,-0.28125 -0.609375,0 -1.609375,-0.078125 -2.5,-0.515625 C 0.875,-2.265625 0.46875,-2.890625 0.21875,-3.28125 0.1875,-3.328125 0.125,-3.328125 0,-3.328125 c -0.234375,0 -0.234375,0.015625 -0.234375,0.25 l 0,0.171875 C 1.109375,-0.46875 3.359375,0 4.375,0 4.578125,0 4.578125,-0.015625 4.578125,-0.28125 z m 0,0"
               id="path3782"
               inkscape:connector-curvature="0" />
          </symbol>
          <symbol
             overflow="visible"
             id="textext-9b89bfec-1"
             style="overflow:visible">
            <path
               style="stroke:none"
               d="M 4.71875,1.71875 C 3.375,-0.734375 1.125,-1.203125 0.109375,-1.203125 c -0.203125,0 -0.203125,0.015625 -0.203125,0.28125 l 0,0.640625 c 0,0.234375 0,0.28125 0.140625,0.28125 0.59375,0.015625 1.59375,0.09375 2.484375,0.53125 1.078125,0.53125 1.484375,1.15625 1.734375,1.546875 0.03125,0.0625 0.09375,0.0625 0.21875,0.0625 C 4.71875,2.140625 4.71875,2.125 4.71875,1.875 z m 0,0"
               id="path3785"
               inkscape:connector-curvature="0" />
          </symbol>
          <symbol
             overflow="visible"
             id="textext-9b89bfec-2"
             style="overflow:visible">
            <path
               style="stroke:none"
               d="m 4.578125,-0.921875 c 0,-0.265625 0,-0.28125 -0.203125,-0.28125 -1.015625,0 -3.265625,0.484375 -4.609375,2.921875 l 0,0.15625 c 0,0.25 0,0.265625 0.234375,0.265625 0.1875,0 0.203125,-0.015625 0.25,-0.09375 C 1.0625,0.75 2.4375,0.046875 4.46875,0 4.578125,0 4.578125,-0.0625 4.578125,-0.28125 z m 0,0"
               id="path3788"
               inkscape:connector-curvature="0" />
          </symbol>
          <symbol
             overflow="visible"
             id="textext-9b89bfec-3"
             style="overflow:visible">
            <path
               style="stroke:none"
               d="m 4.71875,-3.078125 c 0,-0.234375 0,-0.25 -0.234375,-0.25 -0.1875,0 -0.203125,0.015625 -0.25,0.078125 -0.8125,1.3125 -2.1875,2.015625 -4.21875,2.046875 -0.109375,0 -0.109375,0.078125 -0.109375,0.28125 l 0,0.640625 c 0,0.265625 0,0.28125 0.203125,0.28125 C 1.125,0 3.375,-0.484375 4.71875,-2.90625 z m 0,0"
               id="path3791"
               inkscape:connector-curvature="0" />
          </symbol>
          <symbol
             overflow="visible"
             id="textext-9b89bfec-4"
             style="overflow:visible">
            <path
               style="stroke:none"
               d="m 3.8125,-0.984375 c 0.640625,-0.65625 0.890625,-1.59375 0.890625,-1.65625 0,-0.09375 -0.078125,-0.09375 -0.109375,-0.09375 C 4.5,-2.734375 4.5,-2.71875 4.453125,-2.5625 4.328125,-2.109375 4.09375,-1.671875 3.796875,-1.296875 3.796875,-1.40625 3.78125,-1.875 3.765625,-1.9375 3.65625,-2.625 3.140625,-3.078125 2.4375,-3.078125 c -1.015625,0 -2,0.953125 -2,1.9375 0,0.640625 0.46875,1.203125 1.265625,1.203125 0.640625,0 1.21875,-0.28125 1.609375,-0.578125 0.171875,0.5 0.515625,0.578125 0.734375,0.578125 0.40625,0 0.65625,-0.328125 0.65625,-0.484375 C 4.703125,-0.5 4.609375,-0.5 4.578125,-0.5 c -0.09375,0 -0.109375,0.03125 -0.125,0.0625 -0.09375,0.265625 -0.3125,0.3125 -0.390625,0.3125 -0.09375,0 -0.21875,0 -0.25,-0.859375 z M 3.265625,-0.75 C 2.578125,-0.1875 2,-0.125 1.734375,-0.125 c -0.46875,0 -0.71875,-0.3125 -0.71875,-0.78125 0,-0.1875 0.09375,-0.953125 0.453125,-1.4375 C 1.796875,-2.765625 2.1875,-2.875 2.4375,-2.875 c 0.546875,0 0.71875,0.53125 0.765625,0.96875 0.046875,0.296875 0.03125,0.796875 0.0625,1.15625 z m 0,0"
               id="path3794"
               inkscape:connector-curvature="0" />
          </symbol>
        </g>
      </defs>
      <g
         id="textext-9b89bfec-5">
        <g
           style="fill:#000000;fill-opacity:1"
           id="g3797">
          <use
             xlink:href="#textext-9b89bfec-0"
             x="223.43201"
             y="138.94901"
             id="use3799"
             width="744.09448"
             height="1052.3622" />
        </g>
        <path
           style="fill:#000000;fill-opacity:1;fill-rule:nonzero;stroke:none"
           d="m 227.91406,138.94922 17.60156,0 0,-1.19531 -17.60156,0 z m 0,0"
           id="path3801"
           inkscape:connector-curvature="0" />
        <g
           style="fill:#000000;fill-opacity:1"
           id="g3803">
          <use
             xlink:href="#textext-9b89bfec-1"
             x="245.51601"
             y="138.94901"
             id="use3805"
             width="744.09448"
             height="1052.3622" />
          <use
             xlink:href="#textext-9b89bfec-2"
             x="249.99918"
             y="138.94901"
             id="use3807"
             width="744.09448"
             height="1052.3622" />
        </g>
        <path
           style="fill:#000000;fill-opacity:1;fill-rule:nonzero;stroke:none"
           d="m 254.48047,138.94922 17.60156,0 0,-1.19531 -17.60156,0 z m 0,0"
           id="path3809"
           inkscape:connector-curvature="0" />
        <g
           style="fill:#000000;fill-opacity:1"
           id="g3811">
          <use
             xlink:href="#textext-9b89bfec-3"
             x="272.08301"
             y="138.94901"
             id="use3813"
             width="744.09448"
             height="1052.3622" />
        </g>
        <g
           style="fill:#000000;fill-opacity:1"
           id="g3815">
          <use
             xlink:href="#textext-9b89bfec-4"
             x="247.409"
             y="147.91499"
             id="use3817"
             width="744.09448"
             height="1052.3622" />
        </g>
      </g>
    </g>
    <g
       id="g4041"
       transform="matrix(7,0,0,7,-2031.6094,-502.82532)"
       ns0:preamble="/home/francois/Documents/Mypapers/InkscapeHeader/header.inc"
       ns0:text="$\\beta\\begin{cases}~\\\\\n\t\\end{cases}$">
      <defs
         id="defs4043">
        <g
           id="g4045">
          <symbol
             id="textext-ad66b49f-0"
             overflow="visible"
             style="overflow:visible">
            <path
               id="path4048"
               d="m 5.734375,-5.671875 c 0,-0.75 -0.546875,-1.359375 -1.359375,-1.359375 -0.578125,0 -0.859375,0.15625 -1.203125,0.40625 C 2.625,-6.21875 2.078125,-5.25 1.890625,-4.5 L 0.296875,1.828125 C 0.296875,1.875 0.34375,1.9375 0.421875,1.9375 0.5,1.9375 0.53125,1.90625 0.53125,1.890625 L 1.234375,-0.875 c 0.1875,0.609375 0.625,0.96875 1.359375,0.96875 C 3.3125,0.09375 4.0625,-0.25 4.515625,-0.6875 5,-1.140625 5.3125,-1.78125 5.3125,-2.515625 c 0,-0.71875 -0.375,-1.25 -0.734375,-1.484375 0.578125,-0.34375 1.15625,-0.953125 1.15625,-1.671875 z M 3.9375,-4.015625 c -0.125,0.046875 -0.234375,0.0625 -0.484375,0.0625 -0.140625,0 -0.328125,0.015625 -0.4375,-0.03125 0.03125,-0.109375 0.390625,-0.078125 0.5,-0.078125 0.203125,0 0.296875,0 0.421875,0.046875 z M 5.171875,-5.90625 c 0,0.703125 -0.375,1.421875 -0.890625,1.734375 C 4,-4.28125 3.8125,-4.296875 3.515625,-4.296875 c -0.21875,0 -0.78125,-0.015625 -0.78125,0.3125 0,0.28125 0.515625,0.25 0.6875,0.25 0.375,0 0.53125,0 0.828125,-0.125 0.375,0.359375 0.421875,0.671875 0.4375,1.125 0.015625,0.578125 -0.21875,1.328125 -0.5,1.71875 C 3.796875,-0.484375 3.125,-0.125 2.5625,-0.125 c -0.765625,0 -1.140625,-0.578125 -1.140625,-1.28125 0,-0.09375 0,-0.25 0.046875,-0.4375 L 2.109375,-4.359375 C 2.328125,-5.21875 3.046875,-6.8125 4.25,-6.8125 c 0.578125,0 0.921875,0.3125 0.921875,0.90625 z m 0,0"
               style="stroke:none"
               inkscape:connector-curvature="0" />
          </symbol>
          <symbol
             id="textext-ad66b49f-1"
             overflow="visible"
             style="overflow:visible">
            <path
               id="path4051"
               d="m 3.703125,11.328125 c 0,-0.640625 0,-0.78125 -0.109375,-1.0625 C 3.296875,9.359375 2.40625,8.828125 1.75,8.578125 2.90625,8.078125 3.46875,7.421875 3.65625,6.71875 3.671875,6.59375 3.703125,6.421875 3.703125,6.375 l 0,-4.484375 c 0,-0.828125 0.65625,-1.46875 1.59375,-1.859375 0.140625,-0.078125 0.15625,-0.078125 0.15625,-0.234375 0,-0.1875 -0.015625,-0.203125 -0.203125,-0.203125 -0.28125,0 -1.03125,0.375 -1.4375,0.6875 -0.328125,0.265625 -0.859375,0.828125 -0.875,1.5 0,0.796875 0,1.609375 0,2.40625 l 0,1.546875 c 0,0.890625 0,1.21875 -0.515625,1.828125 -0.125,0.140625 -0.40625,0.453125 -1.09375,0.78125 -0.125,0.0625 -0.140625,0.0625 -0.140625,0.21875 0,0.15625 0.015625,0.171875 0.203125,0.265625 C 2.453125,9.3125 2.9375,10.15625 2.9375,10.78125 l 0,4.15625 c 0,0.46875 0,1.0625 0.515625,1.578125 0.21875,0.21875 0.421875,0.4375 0.90625,0.6875 0.109375,0.0625 0.625,0.328125 0.890625,0.328125 0.1875,0 0.203125,0 0.203125,-0.203125 0,-0.125 0,-0.15625 -0.09375,-0.1875 -0.578125,-0.25 -1.46875,-0.71875 -1.640625,-1.65625 C 3.703125,15.375 3.703125,15.046875 3.703125,14.8125 z m 0,0"
               style="stroke:none"
               inkscape:connector-curvature="0" />
          </symbol>
        </g>
      </defs>
      <g
         id="textext-ad66b49f-2">
        <g
           id="g4054"
           style="fill:#000000;fill-opacity:1">
          <use
             id="use4056"
             y="136.259"
             x="223.43201"
             xlink:href="#textext-ad66b49f-0"
             width="744.09448"
             height="1052.3622" />
        </g>
        <g
           id="g4058"
           style="fill:#000000;fill-opacity:1">
          <use
             id="use4060"
             y="125.2"
             x="231.25301"
             xlink:href="#textext-ad66b49f-1"
             width="744.09448"
             height="1052.3622" />
        </g>
      </g>
    </g>
    <g
       id="g3082"
       transform="translate(-20,0)">
      <path
         style="fill:none;stroke:#000000;stroke-width:5;stroke-linecap:butt;stroke-linejoin:miter;stroke-miterlimit:4;stroke-opacity:1;stroke-dasharray:none;marker-start:url(#Arrow1Lstart)"
         d="m 340,12.362183 0,559.999997"
         id="path3078"
         inkscape:connector-curvature="0" />
      <path
         inkscape:connector-curvature="0"
         id="path3080"
         d="m 820,492.36218 -560,0"
         style="fill:none;stroke:#000000;stroke-width:5;stroke-linecap:butt;stroke-linejoin:miter;stroke-miterlimit:4;stroke-opacity:1;stroke-dasharray:none;marker-start:url(#Arrow1Lstart)" />
    </g>
    <path
       style="fill:none;stroke:#000000;stroke-width:3.5;stroke-linecap:butt;stroke-linejoin:miter;stroke-miterlimit:4;stroke-opacity:1;stroke-dasharray:28, 7, 3.5, 7;stroke-dashoffset:0;marker-end:url(#Arrow1Lend)"
       d="M 320,492.36218 520,32.362183"
       id="path3086"
       inkscape:connector-curvature="0"
       sodipodi:nodetypes="cc" />
    <text
       xml:space="preserve"
       style="font-size:56px;font-style:normal;font-variant:normal;font-weight:bold;font-stretch:normal;line-height:125%;letter-spacing:0px;word-spacing:0px;fill:#000000;fill-opacity:1;stroke:none;font-family:Verdana;-inkscape-font-specification:Sans Bold"
       x="840"
       y="492.36218"
       id="text4860"
       sodipodi:linespacing="125%"><tspan
         sodipodi:role="line"
         id="tspan4862"
         x="840"
         y="492.36218">x</tspan></text>
    <text
       xml:space="preserve"
       style="font-size:56px;font-style:normal;font-variant:normal;font-weight:bold;font-stretch:normal;line-height:125%;letter-spacing:0px;word-spacing:0px;fill:#000000;fill-opacity:1;stroke:none;font-family:Verdana;-inkscape-font-specification:Sans Bold"
       x="240"
       y="12.362183"
       id="text4864"
       sodipodi:linespacing="125%"><tspan
         sodipodi:role="line"
         id="tspan4866"
         x="240"
         y="12.362183">y</tspan></text>
    <text
       xml:space="preserve"
       style="font-size:56px;font-style:normal;font-variant:normal;font-weight:bold;font-stretch:normal;line-height:125%;letter-spacing:0px;word-spacing:0px;fill:#000000;fill-opacity:1;stroke:none;font-family:Verdana;-inkscape-font-specification:Sans Bold"
       x="520"
       y="12.362183"
       id="text4868"
       sodipodi:linespacing="125%"><tspan
         sodipodi:role="line"
         id="tspan4870"
         x="520"
         y="12.362183">y'</tspan></text>
    <path
       style="fill:none;stroke:#000000;stroke-width:2;stroke-linecap:butt;stroke-linejoin:miter;stroke-opacity:1;stroke-miterlimit:4;stroke-dasharray:none"
       d="m 320,342.36218 c 0,0 7.08824,-5.49905 11.07143,-7.5 2.42232,-1.21685 5.01996,-2.14926 7.67857,-2.67857 5.08727,-1.01284 10.49157,-2.10232 15.53571,-0.89286 5.62897,1.34969 9.56896,2.33888 15,8.75001 5.43104,6.41112 9.82143,13.57142 9.82143,13.57142"
       id="path4872"
       inkscape:connector-curvature="0"
       sodipodi:nodetypes="caaazc" />
    <g
       transform="matrix(7,0,0,7,-1208.5714,-631.42857)"
       ns0:text="$\\theta$"
       ns0:preamble="/home/francois/Documents/Mypapers/InkscapeHeader/header.inc"
       id="g4985">
      <defs
         id="defs4987">
        <g
           id="g4989">
          <symbol
             style="overflow:visible"
             overflow="visible"
             id="textext-a8d91532-0">
            <path
               inkscape:connector-curvature="0"
               style="stroke:none"
               d="m 4.53125,-4.984375 c 0,-0.65625 -0.171875,-2.046875 -1.1875,-2.046875 -1.390625,0 -2.921875,2.8125 -2.921875,5.09375 0,0.9375 0.28125,2.046875 1.1875,2.046875 1.40625,0 2.921875,-2.859375 2.921875,-5.09375 z M 1.46875,-3.625 C 1.640625,-4.25 1.84375,-5.046875 2.25,-5.765625 2.515625,-6.25 2.875,-6.8125 3.328125,-6.8125 c 0.484375,0 0.546875,0.640625 0.546875,1.203125 0,0.5 -0.078125,1 -0.3125,1.984375 z m 2,0.328125 C 3.359375,-2.84375 3.15625,-2 2.765625,-1.28125 c -0.34375,0.6875 -0.71875,1.171875 -1.15625,1.171875 -0.328125,0 -0.53125,-0.296875 -0.53125,-1.21875 0,-0.421875 0.0625,-1 0.3125,-1.96875 z m 0,0"
               id="path4992" />
          </symbol>
        </g>
      </defs>
      <g
         id="textext-a8d91532-1">
        <g
           style="fill:#000000;fill-opacity:1"
           id="g4995">
          <use
             height="1052.3622"
             width="744.09448"
             xlink:href="#textext-a8d91532-0"
             x="223.43201"
             y="134.765"
             id="use4997" />
        </g>
      </g>
    </g>
    <path
       transform="translate(1110,315)"
       d="m -640,77.362183 a 5,5 0 1 1 -10,0 5,5 0 1 1 10,0 z"
       sodipodi:ry="5"
       sodipodi:rx="5"
       sodipodi:cy="77.362183"
       sodipodi:cx="-645"
       id="path5116"
       style="fill:#000000;fill-opacity:1;stroke:#000000;stroke-width:3;stroke-miterlimit:4;stroke-opacity:1;stroke-dasharray:none;stroke-dashoffset:0"
       sodipodi:type="arc" />
    <g
       id="g5118"
       ns0:preamble="/home/francois/Documents/Mypapers/InkscapeHeader/header.inc"
       ns0:text="$\\bv$"
       transform="matrix(7,0,0,7,-1739.6617,-622.74561)">
      <defs
         id="defs5120">
        <g
           id="g5122">
          <symbol
             id="symbol5124"
             overflow="visible"
             style="overflow:visible">
            <path
               id="path5126"
               d="m 5.046875,-3.75 c 0.0625,-0.140625 0.09375,-0.203125 0.734375,-0.203125 l 0,-0.46875 C 5.53125,-4.40625 5.25,-4.390625 5,-4.390625 c -0.25,0 -0.703125,-0.03125 -0.90625,-0.03125 l 0,0.46875 c 0.1875,0 0.46875,0.03125 0.46875,0.109375 0,0 0,0.03125 -0.046875,0.109375 l -1.15625,2.5 -1.265625,-2.71875 0.53125,0 0,-0.46875 c -0.328125,0.015625 -1.21875,0.03125 -1.234375,0.03125 -0.28125,0 -0.71875,-0.03125 -1.125,-0.03125 l 0,0.46875 0.625,0 1.75,3.75 c 0.125,0.25 0.25,0.25 0.375,0.25 0.171875,0 0.28125,-0.03125 0.375,-0.25 z m 0,0"
               style="stroke:none"
               inkscape:connector-curvature="0" />
          </symbol>
        </g>
      </defs>
      <g
         id="g5128">
        <g
           id="g5130"
           style="fill:#000000;fill-opacity:1">
          <use
             id="use5132"
             y="134.765"
             x="223.43201"
             xlink:href="#textext-5da5165b-0"
             width="744.09448"
             height="1052.3622" />
        </g>
      </g>
    </g>
    <g
       id="g5278"
       transform="matrix(7,0,0,7,-1569.9561,-586.38012)"
       ns0:preamble="/home/francois/Documents/Mypapers/InkscapeHeader/header.inc"
       ns0:text="$\\bv\'$">
      <defs
         id="defs5280">
        <g
           id="g5282">
          <symbol
             id="textext-57b2a626-0"
             overflow="visible"
             style="overflow:visible">
            <path
               id="path5285"
               d="m 5.046875,-3.75 c 0.0625,-0.140625 0.09375,-0.203125 0.734375,-0.203125 l 0,-0.46875 C 5.53125,-4.40625 5.25,-4.390625 5,-4.390625 c -0.25,0 -0.703125,-0.03125 -0.90625,-0.03125 l 0,0.46875 c 0.1875,0 0.46875,0.03125 0.46875,0.109375 0,0 0,0.03125 -0.046875,0.109375 l -1.15625,2.5 -1.265625,-2.71875 0.53125,0 0,-0.46875 c -0.328125,0.015625 -1.21875,0.03125 -1.234375,0.03125 -0.28125,0 -0.71875,-0.03125 -1.125,-0.03125 l 0,0.46875 0.625,0 1.75,3.75 c 0.125,0.25 0.25,0.25 0.375,0.25 0.171875,0 0.28125,-0.03125 0.375,-0.25 z m 0,0"
               style="stroke:none"
               inkscape:connector-curvature="0" />
          </symbol>
          <symbol
             id="textext-57b2a626-1"
             overflow="visible"
             style="overflow:visible">
            <path
               id="path5288"
               d="m 2.015625,-3.296875 c 0.0625,-0.109375 0.0625,-0.171875 0.0625,-0.21875 0,-0.21875 -0.1875,-0.375 -0.40625,-0.375 -0.265625,0 -0.34375,0.21875 -0.375,0.328125 L 0.375,-0.546875 c -0.015625,0.015625 -0.046875,0.09375 -0.046875,0.109375 0,0.078125 0.21875,0.15625 0.28125,0.15625 0.046875,0 0.046875,-0.015625 0.09375,-0.125 z m 0,0"
               style="stroke:none"
               inkscape:connector-curvature="0" />
          </symbol>
        </g>
      </defs>
      <g
         id="textext-57b2a626-2">
        <g
           id="g5291"
           style="fill:#000000;fill-opacity:1">
          <use
             id="use5293"
             y="134.765"
             x="223.43201"
             xlink:href="#textext-57b2a626-0"
             width="744.09448"
             height="1052.3622" />
        </g>
        <g
           id="g5295"
           style="fill:#000000;fill-opacity:1">
          <use
             id="use5297"
             y="131.149"
             x="229.638"
             xlink:href="#textext-57b2a626-1"
             width="744.09448"
             height="1052.3622" />
        </g>
      </g>
    </g>
    <path
       style="fill:none;stroke:#000000;stroke-width:3;stroke-linecap:butt;stroke-linejoin:miter;stroke-opacity:1;stroke-miterlimit:4;stroke-dasharray:12,12;stroke-dashoffset:0"
       d="m 320,392.36218 140,0 0,100"
       id="path5437"
       inkscape:connector-curvature="0" />
    <g
       transform="matrix(7,0,0,7,-1149.7326,-566.17707)"
       ns0:text="$\\bv$"
       ns0:preamble="/home/francois/Documents/Mypapers/InkscapeHeader/header.inc"
       id="g5439">
      <defs
         id="defs5441">
        <g
           id="g5443">
          <symbol
             style="overflow:visible"
             overflow="visible"
             id="symbol5445">
            <path
               inkscape:connector-curvature="0"
               style="stroke:none"
               d="m 5.046875,-3.75 c 0.0625,-0.140625 0.09375,-0.203125 0.734375,-0.203125 l 0,-0.46875 C 5.53125,-4.40625 5.25,-4.390625 5,-4.390625 c -0.25,0 -0.703125,-0.03125 -0.90625,-0.03125 l 0,0.46875 c 0.1875,0 0.46875,0.03125 0.46875,0.109375 0,0 0,0.03125 -0.046875,0.109375 l -1.15625,2.5 -1.265625,-2.71875 0.53125,0 0,-0.46875 c -0.328125,0.015625 -1.21875,0.03125 -1.234375,0.03125 -0.28125,0 -0.71875,-0.03125 -1.125,-0.03125 l 0,0.46875 0.625,0 1.75,3.75 c 0.125,0.25 0.25,0.25 0.375,0.25 0.171875,0 0.28125,-0.03125 0.375,-0.25 z m 0,0"
               id="path5447" />
          </symbol>
        </g>
      </defs>
      <g
         id="g5449">
        <g
           style="fill:#000000;fill-opacity:1"
           id="g5451">
          <use
             height="1052.3622"
             width="744.09448"
             xlink:href="#textext-5da5165b-0"
             x="223.43201"
             y="134.765"
             id="use5453" />
        </g>
      </g>
    </g>
    <path
       sodipodi:nodetypes="cc"
       inkscape:connector-curvature="0"
       id="path5455"
       d="M 460,492.36218 660,32.362183"
       style="fill:none;stroke:#000000;stroke-width:3.5;stroke-linecap:butt;stroke-linejoin:miter;stroke-miterlimit:4;stroke-opacity:1;stroke-dasharray:7,14;stroke-dashoffset:0;marker-end:none" />
    <path
       transform="translate(1150,315)"
       d="m -640,77.362183 a 5,5 0 1 1 -10,0 5,5 0 1 1 10,0 z"
       sodipodi:ry="5"
       sodipodi:rx="5"
       sodipodi:cy="77.362183"
       sodipodi:cx="-645"
       id="path5641"
       style="fill:#000000;fill-opacity:1;stroke:#000000;stroke-width:3;stroke-miterlimit:4;stroke-opacity:1;stroke-dasharray:none;stroke-dashoffset:0"
       sodipodi:type="arc" />
    <g
       ns0:text="$\\bv\'$"
       ns0:preamble="/home/francois/Documents/Mypapers/InkscapeHeader/header.inc"
       transform="matrix(7,0,0,7,-1020.4331,-552.03493)"
       id="g5643">
      <defs
         id="defs5645">
        <g
           id="g5647">
          <symbol
             style="overflow:visible"
             overflow="visible"
             id="symbol5649">
            <path
               inkscape:connector-curvature="0"
               style="stroke:none"
               d="m 5.046875,-3.75 c 0.0625,-0.140625 0.09375,-0.203125 0.734375,-0.203125 l 0,-0.46875 C 5.53125,-4.40625 5.25,-4.390625 5,-4.390625 c -0.25,0 -0.703125,-0.03125 -0.90625,-0.03125 l 0,0.46875 c 0.1875,0 0.46875,0.03125 0.46875,0.109375 0,0 0,0.03125 -0.046875,0.109375 l -1.15625,2.5 -1.265625,-2.71875 0.53125,0 0,-0.46875 c -0.328125,0.015625 -1.21875,0.03125 -1.234375,0.03125 -0.28125,0 -0.71875,-0.03125 -1.125,-0.03125 l 0,0.46875 0.625,0 1.75,3.75 c 0.125,0.25 0.25,0.25 0.375,0.25 0.171875,0 0.28125,-0.03125 0.375,-0.25 z m 0,0"
               id="path5651" />
          </symbol>
          <symbol
             style="overflow:visible"
             overflow="visible"
             id="symbol5653">
            <path
               inkscape:connector-curvature="0"
               style="stroke:none"
               d="m 2.015625,-3.296875 c 0.0625,-0.109375 0.0625,-0.171875 0.0625,-0.21875 0,-0.21875 -0.1875,-0.375 -0.40625,-0.375 -0.265625,0 -0.34375,0.21875 -0.375,0.328125 L 0.375,-0.546875 c -0.015625,0.015625 -0.046875,0.09375 -0.046875,0.109375 0,0.078125 0.21875,0.15625 0.28125,0.15625 0.046875,0 0.046875,-0.015625 0.09375,-0.125 z m 0,0"
               id="path5655" />
          </symbol>
        </g>
      </defs>
      <g
         id="g5657">
        <g
           style="fill:#000000;fill-opacity:1"
           id="g5659">
          <use
             height="1052.3622"
             width="744.09448"
             xlink:href="#textext-57b2a626-0"
             x="223.43201"
             y="134.765"
             id="use5661" />
        </g>
        <g
           style="fill:#000000;fill-opacity:1"
           id="g5663">
          <use
             height="1052.3622"
             width="744.09448"
             xlink:href="#textext-57b2a626-1"
             x="229.638"
             y="131.149"
             id="use5665" />
        </g>
      </g>
    </g>
  </g>
</svg>
