<?xml version="1.0" encoding="UTF-8" standalone="no"?>
<!-- Created with Inkscape (http://www.inkscape.org/) -->

<svg
   xmlns:dc="http://purl.org/dc/elements/1.1/"
   xmlns:cc="http://creativecommons.org/ns#"
   xmlns:rdf="http://www.w3.org/1999/02/22-rdf-syntax-ns#"
   xmlns:svg="http://www.w3.org/2000/svg"
   xmlns="http://www.w3.org/2000/svg"
   xmlns:sodipodi="http://sodipodi.sourceforge.net/DTD/sodipodi-0.dtd"
   xmlns:inkscape="http://www.inkscape.org/namespaces/inkscape"
   width="744.09448819"
   height="1052.3622047"
   id="svg2992"
   version="1.1"
   inkscape:version="0.48.3.1 r9886"
   sodipodi:docname="aperturecn1.svg">
  <defs
     id="defs2994" />
  <sodipodi:namedview
     id="base"
     pagecolor="#ffffff"
     bordercolor="#ffffff"
     borderopacity="0.0"
     inkscape:pageopacity="0.0"
     inkscape:pageshadow="0"
     inkscape:zoom="0.35"
     inkscape:cx="517.2276"
     inkscape:cy="537.70129"
     inkscape:document-units="px"
     inkscape:current-layer="layer1"
     showgrid="true"
     inkscape:window-width="1680"
     inkscape:window-height="1026"
     inkscape:window-x="0"
     inkscape:window-y="24"
     inkscape:window-maximized="1">
    <inkscape:grid
       type="xygrid"
       id="grid3002" />
  </sodipodi:namedview>
  <metadata
     id="metadata2997">
    <rdf:RDF>
      <cc:Work
         rdf:about="">
        <dc:format>image/svg+xml</dc:format>
        <dc:type
           rdf:resource="http://purl.org/dc/dcmitype/StillImage" />
        <dc:title></dc:title>
      </cc:Work>
    </rdf:RDF>
  </metadata>
  <g
     inkscape:label="Layer 1"
     inkscape:groupmode="layer"
     id="layer1">
    <rect
       style="fill:#ffffff;fill-opacity:1;stroke:#000000;stroke-width:4;stroke-miterlimit:4;stroke-opacity:1;stroke-dasharray:none;stroke-dashoffset:0"
       id="rect3078"
       width="1280"
       height="1240"
       x="240"
       y="-347.63782" />
    <path
       sodipodi:type="arc"
       style="fill:#ffffff;fill-opacity:1;stroke:#000000;stroke-width:4;stroke-miterlimit:4;stroke-opacity:1;stroke-dasharray:none;stroke-dashoffset:0"
       id="path3851"
       sodipodi:cx="880"
       sodipodi:cy="252.36218"
       sodipodi:rx="560"
       sodipodi:ry="560"
       d="m 1440,252.36218 a 560,560 0 1 1 -1120,0 560,560 0 1 1 1120,0 z"
       transform="translate(0,20)" />
    <path
       style="fill:#0000ff;fill-opacity:1;stroke:#000000;stroke-width:1px;stroke-linecap:butt;stroke-linejoin:miter;stroke-opacity:1"
       d="m 1120,852.36218 80,0 0,-960 -840,0 0,80.000003 760,0 z"
       id="path3888"
       inkscape:connector-curvature="0"
       sodipodi:nodetypes="ccccccc" />
    <path
       style="fill:#000000;fill-opacity:1;stroke:#000000;stroke-width:11.42857170000000089;stroke-miterlimit:4;stroke-opacity:1;stroke-dasharray:none;stroke-dashoffset:0"
       d="m 242.94189,272.66089 0,-615.71428 637.14285,0 637.14286,0 0,615.71428 0,615.71429 -637.14286,0 -637.14285,0 0,-615.71429 z M 960.08474,829.34921 C 1082.3885,811.73335 1190.945,757.31564 1278.5565,669.70409 1498.1939,450.06672 1497.6192,93.59015 1277.2738,-126.01275 1135.3269,-267.48131 935.5036,-321.95132 739.08149,-272.71909 c -95.80123,24.0121 -184.06609,74.54062 -256.26206,146.70096 -85.31741,85.275308 -137.70227,187.05368 -158.87566,308.67902 -7.04027,40.44115 -8.25784,115.59503 -2.57057,158.66786 16.94382,128.32497 70.39458,238.11734 159.63155,327.89669 87.41428,87.9456 196.20845,142.38691 320.50857,160.3846 52.8134,7.64697 104.25654,7.56234 158.57142,-0.26086 l 0,3e-5 z"
       id="path3886"
       inkscape:connector-curvature="0" />
  </g>
</svg>
