<?xml version="1.0" encoding="UTF-8" standalone="no"?>
<!-- Created with Inkscape (http://www.inkscape.org/) -->

<svg
   xmlns:dc="http://purl.org/dc/elements/1.1/"
   xmlns:cc="http://creativecommons.org/ns#"
   xmlns:rdf="http://www.w3.org/1999/02/22-rdf-syntax-ns#"
   xmlns:svg="http://www.w3.org/2000/svg"
   xmlns="http://www.w3.org/2000/svg"
   xmlns:sodipodi="http://sodipodi.sourceforge.net/DTD/sodipodi-0.dtd"
   xmlns:inkscape="http://www.inkscape.org/namespaces/inkscape"
   width="744.09448819"
   height="1052.3622047"
   id="svg2992"
   version="1.1"
   inkscape:version="0.48.3.1 r9886"
   sodipodi:docname="New document 3">
  <defs
     id="defs2994" />
  <sodipodi:namedview
     id="base"
     pagecolor="#ffffff"
     bordercolor="#ffffff"
     borderopacity="0.0"
     inkscape:pageopacity="0.0"
     inkscape:pageshadow="0"
     inkscape:zoom="0.35"
     inkscape:cx="88.656173"
     inkscape:cy="537.70129"
     inkscape:document-units="px"
     inkscape:current-layer="layer1"
     showgrid="true"
     inkscape:window-width="1680"
     inkscape:window-height="1026"
     inkscape:window-x="0"
     inkscape:window-y="24"
     inkscape:window-maximized="1">
    <inkscape:grid
       type="xygrid"
       id="grid3002" />
  </sodipodi:namedview>
  <metadata
     id="metadata2997">
    <rdf:RDF>
      <cc:Work
         rdf:about="">
        <dc:format>image/svg+xml</dc:format>
        <dc:type
           rdf:resource="http://purl.org/dc/dcmitype/StillImage" />
        <dc:title></dc:title>
      </cc:Work>
    </rdf:RDF>
  </metadata>
  <g
     inkscape:label="Layer 1"
     inkscape:groupmode="layer"
     id="layer1">
    <rect
       style="fill:#ffffff;fill-opacity:0.32692319;stroke:#000000;stroke-width:4;stroke-miterlimit:4;stroke-opacity:1;stroke-dasharray:none;stroke-dashoffset:0"
       id="rect3004"
       width="1280"
       height="1240"
       x="-1080"
       y="-347.63782" />
    <path
       sodipodi:type="arc"
       style="fill:#ffffff;fill-opacity:0;stroke:#000000;stroke-width:4;stroke-miterlimit:4;stroke-opacity:1;stroke-dasharray:none;stroke-dashoffset:0"
       id="path3006"
       sodipodi:cx="-440"
       sodipodi:cy="252.36218"
       sodipodi:rx="400"
       sodipodi:ry="400"
       d="m -40,252.36218 a 400,400 0 1 1 -800,0 400,400 0 1 1 800,0 z" />
    <rect
       style="fill:#0000ff;fill-opacity:1;stroke:#000000;stroke-width:4;stroke-miterlimit:4;stroke-opacity:1;stroke-dasharray:none;stroke-dashoffset:0"
       id="rect3853"
       width="120"
       height="920"
       x="-680"
       y="-187.63782" />
    <path
       style="fill:#000000;fill-opacity:1;stroke:#000000;stroke-width:11.42857170000000089;stroke-miterlimit:4;stroke-opacity:1;stroke-dasharray:none;stroke-dashoffset:0"
       d="M -1077.0625 -343.0625 L -1077.0625 272.65625 L -1077.0625 888.375 L -439.90625 888.375 L 197.21875 888.375 L 197.21875 272.65625 L 197.21875 -343.0625 L -439.90625 -343.0625 L -1077.0625 -343.0625 z M -440.5625 -150.40625 C -361.98904 -150.53042 -284.6639 -127.94996 -218.5 -84.375 C -75.560776 9.7635255 -7.957657 182.79496 -48.875 349.8125 C -86.866543 504.88753 -216.06301 624.00378 -374.1875 649.71875 C -434.11587 659.4646 -493.07723 656.10895 -550.5 639.6875 C -581.70211 630.7645 -623.78405 612.89992 -647.0625 598.71875 C -739.25625 542.55446 -805.28577 453.18956 -830.9375 349.8125 C -885.07131 131.65196 -750.71385 -88.944457 -532.78125 -139.71875 C -502.25218 -146.83146 -471.30864 -150.35766 -440.5625 -150.40625 z "
       id="path3850" />
  </g>
</svg>
