<?xml version="1.0" encoding="UTF-8" standalone="no"?>
<!-- Created with Inkscape (http://www.inkscape.org/) -->

<svg
   xmlns:dc="http://purl.org/dc/elements/1.1/"
   xmlns:cc="http://creativecommons.org/ns#"
   xmlns:rdf="http://www.w3.org/1999/02/22-rdf-syntax-ns#"
   xmlns:svg="http://www.w3.org/2000/svg"
   xmlns="http://www.w3.org/2000/svg"
   xmlns:sodipodi="http://sodipodi.sourceforge.net/DTD/sodipodi-0.dtd"
   xmlns:inkscape="http://www.inkscape.org/namespaces/inkscape"
   width="744.09448819"
   height="1052.3622047"
   id="svg2992"
   version="1.1"
   inkscape:version="0.48.3.1 r9886"
   sodipodi:docname="aperture3.svg">
  <defs
     id="defs2994">
    <marker
       inkscape:stockid="Arrow2Mstart"
       orient="auto"
       refY="0.0"
       refX="0.0"
       id="Arrow2Mstart"
       style="overflow:visible">
      <path
         id="path4144"
         style="fill-rule:evenodd;stroke-width:0.62500000;stroke-linejoin:round"
         d="M 8.7185878,4.0337352 L -2.2072895,0.016013256 L 8.7185884,-4.0017078 C 6.9730900,-1.6296469 6.9831476,1.6157441 8.7185878,4.0337352 z "
         transform="scale(0.6) translate(0,0)" />
    </marker>
    <marker
       inkscape:stockid="Arrow1Mstart"
       orient="auto"
       refY="0.0"
       refX="0.0"
       id="Arrow1Mstart"
       style="overflow:visible">
      <path
         id="path4126"
         d="M 0.0,0.0 L 5.0,-5.0 L -12.5,0.0 L 5.0,5.0 L 0.0,0.0 z "
         style="fill-rule:evenodd;stroke:#000000;stroke-width:1.0pt"
         transform="scale(0.4) translate(10,0)" />
    </marker>
    <marker
       inkscape:stockid="Arrow1Mend"
       orient="auto"
       refY="0.0"
       refX="0.0"
       id="Arrow1Mend"
       style="overflow:visible;">
      <path
         id="path4129"
         d="M 0.0,0.0 L 5.0,-5.0 L -12.5,0.0 L 5.0,5.0 L 0.0,0.0 z "
         style="fill-rule:evenodd;stroke:#000000;stroke-width:1.0pt;"
         transform="scale(0.4) rotate(180) translate(10,0)" />
    </marker>
  </defs>
  <sodipodi:namedview
     id="base"
     pagecolor="#ffffff"
     bordercolor="#ffffff"
     borderopacity="0.0"
     inkscape:pageopacity="0.0"
     inkscape:pageshadow="0"
     inkscape:zoom="0.35"
     inkscape:cx="950.35098"
     inkscape:cy="816.0695"
     inkscape:document-units="px"
     inkscape:current-layer="layer1"
     showgrid="true"
     inkscape:window-width="1680"
     inkscape:window-height="1026"
     inkscape:window-x="0"
     inkscape:window-y="24"
     inkscape:window-maximized="1">
    <inkscape:grid
       type="xygrid"
       id="grid3002" />
  </sodipodi:namedview>
  <metadata
     id="metadata2997">
    <rdf:RDF>
      <cc:Work
         rdf:about="">
        <dc:format>image/svg+xml</dc:format>
        <dc:type
           rdf:resource="http://purl.org/dc/dcmitype/StillImage" />
        <dc:title></dc:title>
      </cc:Work>
    </rdf:RDF>
  </metadata>
  <g
     inkscape:label="Layer 1"
     inkscape:groupmode="layer"
     id="layer1">
    <path
       sodipodi:type="arc"
       style="fill:#ffffff;fill-opacity:0;stroke:#000000;stroke-width:4;stroke-miterlimit:4;stroke-opacity:1;stroke-dasharray:none;stroke-dashoffset:0"
       id="path3006"
       sodipodi:cx="-440"
       sodipodi:cy="252.36218"
       sodipodi:rx="400"
       sodipodi:ry="400"
       d="m -40,252.36218 a 400,400 0 1 1 -800,0 400,400 0 1 1 800,0 z" />
    <rect
       style="fill:#0000ff;fill-opacity:1;stroke:#000000;stroke-width:4;stroke-miterlimit:4;stroke-opacity:1;stroke-dasharray:none;stroke-dashoffset:0"
       id="rect3853"
       width="120"
       height="920"
       x="-680"
       y="-187.63782" />
    <rect
       style="fill:#0000ff;fill-opacity:1;stroke:#000000;stroke-width:4;stroke-miterlimit:4;stroke-opacity:1;stroke-dasharray:none;stroke-dashoffset:0"
       id="rect3853-1"
       width="120"
       height="920"
       x="-356"
       y="-187.63782" />
    <path
       inkscape:connector-curvature="0"
       style="fill:#000000;fill-opacity:1;stroke:#000000;stroke-width:11.4285717;stroke-miterlimit:4;stroke-opacity:1;stroke-dasharray:none;stroke-dashoffset:0"
       d="m -1080,-347.63782 0,615.71875 0,615.71877 637.15624,0 637.12496,0 0,-615.71877 0,-615.71875 -637.12496,0 -637.15624,0 z m 636.49999,192.65625 c 78.57346,-0.12417 155.8986,22.45629 222.0625,66.031253 C -78.4983,5.1882026 -10.8952,178.21964 -51.8125,345.23718 -89.8041,500.3122 -219.00052,619.4285 -377.12501,645.1434 c -59.92837,9.7459 -118.88973,6.3903 -176.3125,-10.0312 -31.20211,-8.923 -73.28405,-26.7876 -96.5625,-40.9688 -92.19375,-56.1643 -158.22327,-145.5292 -183.875,-248.90622 -54.13381,-218.16054 80.22365,-438.756957 298.15625,-489.53125 30.52907,-7.11271 61.47261,-10.63891 92.21875,-10.6875 z"
       id="path3850-0" />
    <path
       sodipodi:type="arc"
       style="fill:#ffffff;fill-opacity:0;stroke:#000000;stroke-width:4;stroke-miterlimit:4;stroke-opacity:1;stroke-dasharray:none;stroke-dashoffset:0"
       id="path3006-1"
       sodipodi:cx="-440"
       sodipodi:cy="252.36218"
       sodipodi:rx="400"
       sodipodi:ry="400"
       d="m -40,252.36218 a 400,400 0 1 1 -800,0 400,400 0 1 1 800,0 z" />
    <path
       style="fill:none;stroke:#000000;stroke-width:15;stroke-linecap:butt;stroke-linejoin:miter;stroke-miterlimit:4;stroke-opacity:1;stroke-dasharray:none;marker-end:url(#Arrow2Mstart)"
       d="m -560,52.362183 c 200,0 190,0 190,0"
       id="path4114"
       inkscape:connector-curvature="0"
       sodipodi:nodetypes="cc" />
    <path
       sodipodi:nodetypes="cc"
       inkscape:connector-curvature="0"
       id="path5670"
       d="m -560,52.362183 c 200,0 190,0 190,0"
       style="fill:none;stroke:#000000;stroke-width:15;stroke-linecap:butt;stroke-linejoin:miter;stroke-miterlimit:4;stroke-opacity:1;stroke-dasharray:none;marker-end:url(#Arrow2Mstart)" />
    <path
       style="fill:none;stroke:#000000;stroke-width:15;stroke-linecap:butt;stroke-linejoin:miter;stroke-miterlimit:4;stroke-opacity:1;stroke-dasharray:none;marker-end:url(#Arrow2Mstart)"
       d="m -562,172.36218 c 200,0 190,0 190,0"
       id="path5672"
       inkscape:connector-curvature="0"
       sodipodi:nodetypes="cc" />
    <path
       sodipodi:nodetypes="cc"
       inkscape:connector-curvature="0"
       id="path5674"
       d="m -562,292.36218 c 200,0 190,0 190,0"
       style="fill:none;stroke:#000000;stroke-width:15;stroke-linecap:butt;stroke-linejoin:miter;stroke-miterlimit:4;stroke-opacity:1;stroke-dasharray:none;marker-end:url(#Arrow2Mstart)" />
    <path
       style="fill:none;stroke:#000000;stroke-width:15;stroke-linecap:butt;stroke-linejoin:miter;stroke-miterlimit:4;stroke-opacity:1;stroke-dasharray:none;marker-end:url(#Arrow2Mstart)"
       d="m -562,412.36218 c 200,0 190,0 190,0"
       id="path5676"
       inkscape:connector-curvature="0"
       sodipodi:nodetypes="cc" />
    <path
       d="m -40,252.36218 a 400,400 0 1 1 -800,0 400,400 0 1 1 800,0 z"
       sodipodi:ry="400"
       sodipodi:rx="400"
       sodipodi:cy="252.36218"
       sodipodi:cx="-440"
       id="path3021"
       style="fill:#ffffff;fill-opacity:0;stroke:#000000;stroke-width:4;stroke-miterlimit:4;stroke-opacity:1;stroke-dasharray:none;stroke-dashoffset:0"
       sodipodi:type="arc"
       transform="translate(1560,0)" />
    <rect
       y="-187.63782"
       x="880"
       height="920"
       width="120"
       id="rect3023"
       style="fill:#0000ff;fill-opacity:1;stroke:#000000;stroke-width:4;stroke-miterlimit:4;stroke-opacity:1;stroke-dasharray:none;stroke-dashoffset:0" />
    <rect
       y="-187.63782"
       x="1204"
       height="920"
       width="120"
       id="rect3025"
       style="fill:#0000ff;fill-opacity:1;stroke:#000000;stroke-width:4;stroke-miterlimit:4;stroke-opacity:1;stroke-dasharray:none;stroke-dashoffset:0" />
    <path
       id="path3027"
       d="m 480,-347.63782 0,615.71875 0,615.71877 637.1562,0 637.125,0 0,-615.71877 0,-615.71875 -637.125,0 -637.1562,0 z m 636.5,192.65625 c 78.5734,-0.12417 155.8986,22.45629 222.0625,66.031253 142.9392,94.1385196 210.5423,267.169957 169.625,434.187497 -37.9916,155.07502 -167.188,274.19132 -325.3125,299.90622 -59.9284,9.7459 -118.8897,6.3903 -176.3125,-10.0312 -31.2021,-8.923 -73.28406,-26.7876 -96.56251,-40.9688 -92.19375,-56.1643 -158.22327,-145.5292 -183.875,-248.90622 -54.13381,-218.16054 80.22365,-438.756957 298.15621,-489.53125 30.5291,-7.11271 61.4727,-10.63891 92.2188,-10.6875 z"
       style="fill:#000000;fill-opacity:1;stroke:#000000;stroke-width:11.4285717;stroke-miterlimit:4;stroke-opacity:1;stroke-dasharray:none;stroke-dashoffset:0"
       inkscape:connector-curvature="0" />
    <path
       d="m -40,252.36218 a 400,400 0 1 1 -800,0 400,400 0 1 1 800,0 z"
       sodipodi:ry="400"
       sodipodi:rx="400"
       sodipodi:cy="252.36218"
       sodipodi:cx="-440"
       id="path3029"
       style="fill:#ffffff;fill-opacity:0;stroke:#000000;stroke-width:4;stroke-miterlimit:4;stroke-opacity:1;stroke-dasharray:none;stroke-dashoffset:0"
       sodipodi:type="arc"
       transform="translate(1560,0)" />
    <path
       style="fill:none;stroke:#000000;stroke-width:18.31145668;stroke-linecap:butt;stroke-linejoin:miter;stroke-miterlimit:4;stroke-opacity:1;stroke-dasharray:none;marker-end:url(#Arrow2Mstart)"
       d="M 1000,112.36218 C 1189.4737,-13.953607 1180,-7.6378174 1180,-7.6378174"
       id="path3033"
       inkscape:connector-curvature="0"
       sodipodi:nodetypes="cc" />
    <path
       sodipodi:nodetypes="cc"
       inkscape:connector-curvature="0"
       id="path3054"
       d="m 1000,232.36218 c 189.4737,-126.31579 180,-120 180,-120"
       style="fill:none;stroke:#000000;stroke-width:18.31145668;stroke-linecap:butt;stroke-linejoin:miter;stroke-miterlimit:4;stroke-opacity:1;stroke-dasharray:none;marker-end:url(#Arrow2Mstart)" />
    <path
       style="fill:none;stroke:#000000;stroke-width:18.31145668;stroke-linecap:butt;stroke-linejoin:miter;stroke-miterlimit:4;stroke-opacity:1;stroke-dasharray:none;marker-end:url(#Arrow2Mstart)"
       d="m 1000,352.36218 c 189.4737,-126.31579 180,-120 180,-120"
       id="path3069"
       inkscape:connector-curvature="0"
       sodipodi:nodetypes="cc" />
    <path
       sodipodi:nodetypes="cc"
       inkscape:connector-curvature="0"
       id="path3084"
       d="m 1000,472.36218 c 189.4737,-126.31579 180,-120 180,-120"
       style="fill:none;stroke:#000000;stroke-width:18.31145668;stroke-linecap:butt;stroke-linejoin:miter;stroke-miterlimit:4;stroke-opacity:1;stroke-dasharray:none;marker-end:url(#Arrow2Mstart)" />
  </g>
</svg>
