<?xml version="1.0" encoding="UTF-8" standalone="no"?>
<!-- Created with Inkscape (http://www.inkscape.org/) -->

<svg
   xmlns:dc="http://purl.org/dc/elements/1.1/"
   xmlns:cc="http://creativecommons.org/ns#"
   xmlns:rdf="http://www.w3.org/1999/02/22-rdf-syntax-ns#"
   xmlns:svg="http://www.w3.org/2000/svg"
   xmlns="http://www.w3.org/2000/svg"
   xmlns:sodipodi="http://sodipodi.sourceforge.net/DTD/sodipodi-0.dtd"
   xmlns:inkscape="http://www.inkscape.org/namespaces/inkscape"
   width="744.09448819"
   height="1052.3622047"
   id="svg2"
   version="1.1"
   inkscape:version="0.48.3.1 r9886"
   sodipodi:docname="barberpolemotion.svg"
   inkscape:export-filename="/home/francois/Documents/Courses/VisionAndImageProcessing/lectures/Francois/FIGURES/barberpolemotion.png"
   inkscape:export-xdpi="90"
   inkscape:export-ydpi="90">
  <defs
     id="defs4">
    <marker
       inkscape:stockid="Arrow1Lend"
       orient="auto"
       refY="0.0"
       refX="0.0"
       id="Arrow1Lend"
       style="overflow:visible;">
      <path
         id="path3836"
         d="M 0.0,0.0 L 5.0,-5.0 L -12.5,0.0 L 5.0,5.0 L 0.0,0.0 z "
         style="fill-rule:evenodd;stroke:#000000;stroke-width:1.0pt;"
         transform="scale(0.8) rotate(180) translate(12.5,0)" />
    </marker>
  </defs>
  <sodipodi:namedview
     id="base"
     pagecolor="#ffffff"
     bordercolor="#666666"
     borderopacity="1.0"
     inkscape:pageopacity="0.0"
     inkscape:pageshadow="2"
     inkscape:zoom="0.35"
     inkscape:cx="-322.69773"
     inkscape:cy="908.00454"
     inkscape:document-units="px"
     inkscape:current-layer="layer1"
     showgrid="true"
     inkscape:window-width="1680"
     inkscape:window-height="1026"
     inkscape:window-x="0"
     inkscape:window-y="24"
     inkscape:window-maximized="1">
    <inkscape:grid
       type="xygrid"
       id="grid3801" />
  </sodipodi:namedview>
  <metadata
     id="metadata7">
    <rdf:RDF>
      <cc:Work
         rdf:about="">
        <dc:format>image/svg+xml</dc:format>
        <dc:type
           rdf:resource="http://purl.org/dc/dcmitype/StillImage" />
        <dc:title></dc:title>
      </cc:Work>
    </rdf:RDF>
  </metadata>
  <g
     inkscape:label="Layer 1"
     inkscape:groupmode="layer"
     id="layer1">
    <g
       id="g4413">
      <path
         sodipodi:nodetypes="ccsssssszccccccccc"
         inkscape:connector-curvature="0"
         id="path3803"
         d="m -1040,-107.63782 0,1120.00002 c 0,0 8.6376,15.2881 23.434,20.9594 23.30471,8.9324 35.00464,11.579 49.04062,14.4442 19.54569,3.9898 31.3128,5.2194 45,6.4644 19.83465,1.8042 28.65679,1.069 42.16824,0.8368 13.74166,-0.2362 35.07987,-1.1159 48.77012,-2.3266 14.84856,-1.3131 20.07458,-2.3364 38.78064,-5.0105 15.98462,-2.2851 26.84462,-5.4087 43.17839,-10.6382 16.33376,-5.2295 29.62799,-24.7295 29.62799,-24.7295 l 0,-1120.00002 -40,0 -40,0 -40,0 -40,0 -40,0 -40,0 z"
         style="fill:none;stroke:#000000;stroke-width:4.5;stroke-linecap:butt;stroke-linejoin:miter;stroke-miterlimit:4;stroke-opacity:1;stroke-dasharray:none" />
      <path
         transform="translate(7.561275,-1180.2084)"
         d="m -726.42854,1073.0764 a 161.42857,47.857143 0 1 1 -322.85716,0 161.42857,47.857143 0 1 1 322.85716,0 z"
         sodipodi:ry="47.857143"
         sodipodi:rx="161.42857"
         sodipodi:cy="1073.0764"
         sodipodi:cx="-887.85712"
         id="path3823"
         style="fill:#ffffff;stroke:#000000;stroke-width:4.50000000000000000;stroke-miterlimit:4;stroke-opacity:1;stroke-dasharray:none;stroke-dashoffset:0;fill-opacity:1"
         sodipodi:type="arc" />
    </g>
    <g
       id="g4381"
       transform="matrix(1.4660713,0,0,1.107362,466.47328,-2.3824434)">
      <path
         inkscape:connector-curvature="0"
         id="path3827"
         d="m -996.5714,116.36218 c 0,-131.428569 0,-131.428569 0,-131.428569"
         style="fill:none;stroke:#000000;stroke-width:4;stroke-linecap:butt;stroke-linejoin:miter;stroke-miterlimit:4;stroke-opacity:1;stroke-dasharray:none;marker-end:url(#Arrow1Lend)" />
      <path
         style="fill:none;stroke:#000000;stroke-width:4;stroke-linecap:butt;stroke-linejoin:miter;stroke-miterlimit:4;stroke-opacity:1;stroke-dasharray:none;marker-end:url(#Arrow1Lend)"
         d="m -996.5714,276.36218 c 0,-131.42857 0,-131.42857 0,-131.42857"
         id="path4281"
         inkscape:connector-curvature="0" />
      <path
         inkscape:connector-curvature="0"
         id="path4291"
         d="m -996.5714,436.36218 c 0,-131.42857 0,-131.42857 0,-131.42857"
         style="fill:none;stroke:#000000;stroke-width:4;stroke-linecap:butt;stroke-linejoin:miter;stroke-miterlimit:4;stroke-opacity:1;stroke-dasharray:none;marker-end:url(#Arrow1Lend)" />
      <path
         style="fill:none;stroke:#000000;stroke-width:4;stroke-linecap:butt;stroke-linejoin:miter;stroke-miterlimit:4;stroke-opacity:1;stroke-dasharray:none;marker-end:url(#Arrow1Lend)"
         d="m -996.5714,596.36218 c 0,-131.42857 0,-131.42857 0,-131.42857"
         id="path4301"
         inkscape:connector-curvature="0" />
      <path
         inkscape:connector-curvature="0"
         id="path4311"
         d="m -996.5714,756.36218 c 0,-131.42857 0,-131.42857 0,-131.42857"
         style="fill:none;stroke:#000000;stroke-width:4;stroke-linecap:butt;stroke-linejoin:miter;stroke-miterlimit:4;stroke-opacity:1;stroke-dasharray:none;marker-end:url(#Arrow1Lend)" />
      <path
         style="fill:none;stroke:#000000;stroke-width:4;stroke-linecap:butt;stroke-linejoin:miter;stroke-miterlimit:4;stroke-opacity:1;stroke-dasharray:none;marker-end:url(#Arrow1Lend)"
         d="m -996.5714,916.36218 c 0,-131.42857 0,-131.42857 0,-131.42857"
         id="path4321"
         inkscape:connector-curvature="0" />
      <path
         style="fill:none;stroke:#000000;stroke-width:4;stroke-linecap:butt;stroke-linejoin:miter;stroke-miterlimit:4;stroke-opacity:1;stroke-dasharray:none;marker-end:url(#Arrow1Lend)"
         d="m -956.5714,116.36218 c 0,-131.428569 0,-131.428569 0,-131.428569"
         id="path4273"
         inkscape:connector-curvature="0" />
      <path
         inkscape:connector-curvature="0"
         id="path4275"
         d="m -916.5714,116.36218 c 0,-131.428569 0,-131.428569 0,-131.428569"
         style="fill:none;stroke:#000000;stroke-width:4;stroke-linecap:butt;stroke-linejoin:miter;stroke-miterlimit:4;stroke-opacity:1;stroke-dasharray:none;marker-end:url(#Arrow1Lend)" />
      <path
         style="fill:none;stroke:#000000;stroke-width:4;stroke-linecap:butt;stroke-linejoin:miter;stroke-miterlimit:4;stroke-opacity:1;stroke-dasharray:none;marker-end:url(#Arrow1Lend)"
         d="m -876.5714,116.36218 c 0,-131.428569 0,-131.428569 0,-131.428569"
         id="path4277"
         inkscape:connector-curvature="0" />
      <path
         inkscape:connector-curvature="0"
         id="path4279"
         d="m -836.5714,116.36218 c 0,-131.428569 0,-131.428569 0,-131.428569"
         style="fill:none;stroke:#000000;stroke-width:4;stroke-linecap:butt;stroke-linejoin:miter;stroke-miterlimit:4;stroke-opacity:1;stroke-dasharray:none;marker-end:url(#Arrow1Lend)" />
      <path
         inkscape:connector-curvature="0"
         id="path4283"
         d="m -956.5714,276.36218 c 0,-131.42857 0,-131.42857 0,-131.42857"
         style="fill:none;stroke:#000000;stroke-width:4;stroke-linecap:butt;stroke-linejoin:miter;stroke-miterlimit:4;stroke-opacity:1;stroke-dasharray:none;marker-end:url(#Arrow1Lend)" />
      <path
         style="fill:none;stroke:#000000;stroke-width:4;stroke-linecap:butt;stroke-linejoin:miter;stroke-miterlimit:4;stroke-opacity:1;stroke-dasharray:none;marker-end:url(#Arrow1Lend)"
         d="m -916.5714,276.36218 c 0,-131.42857 0,-131.42857 0,-131.42857"
         id="path4285"
         inkscape:connector-curvature="0" />
      <path
         inkscape:connector-curvature="0"
         id="path4287"
         d="m -876.5714,276.36218 c 0,-131.42857 0,-131.42857 0,-131.42857"
         style="fill:none;stroke:#000000;stroke-width:4;stroke-linecap:butt;stroke-linejoin:miter;stroke-miterlimit:4;stroke-opacity:1;stroke-dasharray:none;marker-end:url(#Arrow1Lend)" />
      <path
         style="fill:none;stroke:#000000;stroke-width:4;stroke-linecap:butt;stroke-linejoin:miter;stroke-miterlimit:4;stroke-opacity:1;stroke-dasharray:none;marker-end:url(#Arrow1Lend)"
         d="m -836.5714,276.36218 c 0,-131.42857 0,-131.42857 0,-131.42857"
         id="path4289"
         inkscape:connector-curvature="0" />
      <path
         style="fill:none;stroke:#000000;stroke-width:4;stroke-linecap:butt;stroke-linejoin:miter;stroke-miterlimit:4;stroke-opacity:1;stroke-dasharray:none;marker-end:url(#Arrow1Lend)"
         d="m -956.5714,436.36218 c 0,-131.42857 0,-131.42857 0,-131.42857"
         id="path4293"
         inkscape:connector-curvature="0" />
      <path
         inkscape:connector-curvature="0"
         id="path4295"
         d="m -916.5714,436.36218 c 0,-131.42857 0,-131.42857 0,-131.42857"
         style="fill:none;stroke:#000000;stroke-width:4;stroke-linecap:butt;stroke-linejoin:miter;stroke-miterlimit:4;stroke-opacity:1;stroke-dasharray:none;marker-end:url(#Arrow1Lend)" />
      <path
         style="fill:none;stroke:#000000;stroke-width:4;stroke-linecap:butt;stroke-linejoin:miter;stroke-miterlimit:4;stroke-opacity:1;stroke-dasharray:none;marker-end:url(#Arrow1Lend)"
         d="m -876.5714,436.36218 c 0,-131.42857 0,-131.42857 0,-131.42857"
         id="path4297"
         inkscape:connector-curvature="0" />
      <path
         inkscape:connector-curvature="0"
         id="path4299"
         d="m -836.5714,436.36218 c 0,-131.42857 0,-131.42857 0,-131.42857"
         style="fill:none;stroke:#000000;stroke-width:4;stroke-linecap:butt;stroke-linejoin:miter;stroke-miterlimit:4;stroke-opacity:1;stroke-dasharray:none;marker-end:url(#Arrow1Lend)" />
      <path
         inkscape:connector-curvature="0"
         id="path4303"
         d="m -956.5714,596.36218 c 0,-131.42857 0,-131.42857 0,-131.42857"
         style="fill:none;stroke:#000000;stroke-width:4;stroke-linecap:butt;stroke-linejoin:miter;stroke-miterlimit:4;stroke-opacity:1;stroke-dasharray:none;marker-end:url(#Arrow1Lend)" />
      <path
         style="fill:none;stroke:#000000;stroke-width:4;stroke-linecap:butt;stroke-linejoin:miter;stroke-miterlimit:4;stroke-opacity:1;stroke-dasharray:none;marker-end:url(#Arrow1Lend)"
         d="m -916.5714,596.36218 c 0,-131.42857 0,-131.42857 0,-131.42857"
         id="path4305"
         inkscape:connector-curvature="0" />
      <path
         inkscape:connector-curvature="0"
         id="path4307"
         d="m -876.5714,596.36218 c 0,-131.42857 0,-131.42857 0,-131.42857"
         style="fill:none;stroke:#000000;stroke-width:4;stroke-linecap:butt;stroke-linejoin:miter;stroke-miterlimit:4;stroke-opacity:1;stroke-dasharray:none;marker-end:url(#Arrow1Lend)" />
      <path
         style="fill:none;stroke:#000000;stroke-width:4;stroke-linecap:butt;stroke-linejoin:miter;stroke-miterlimit:4;stroke-opacity:1;stroke-dasharray:none;marker-end:url(#Arrow1Lend)"
         d="m -836.5714,596.36218 c 0,-131.42857 0,-131.42857 0,-131.42857"
         id="path4309"
         inkscape:connector-curvature="0" />
      <path
         style="fill:none;stroke:#000000;stroke-width:4;stroke-linecap:butt;stroke-linejoin:miter;stroke-miterlimit:4;stroke-opacity:1;stroke-dasharray:none;marker-end:url(#Arrow1Lend)"
         d="m -956.5714,756.36218 c 0,-131.42857 0,-131.42857 0,-131.42857"
         id="path4313"
         inkscape:connector-curvature="0" />
      <path
         inkscape:connector-curvature="0"
         id="path4315"
         d="m -916.5714,756.36218 c 0,-131.42857 0,-131.42857 0,-131.42857"
         style="fill:none;stroke:#000000;stroke-width:4;stroke-linecap:butt;stroke-linejoin:miter;stroke-miterlimit:4;stroke-opacity:1;stroke-dasharray:none;marker-end:url(#Arrow1Lend)" />
      <path
         style="fill:none;stroke:#000000;stroke-width:4;stroke-linecap:butt;stroke-linejoin:miter;stroke-miterlimit:4;stroke-opacity:1;stroke-dasharray:none;marker-end:url(#Arrow1Lend)"
         d="m -876.5714,756.36218 c 0,-131.42857 0,-131.42857 0,-131.42857"
         id="path4317"
         inkscape:connector-curvature="0" />
      <path
         inkscape:connector-curvature="0"
         id="path4319"
         d="m -836.5714,756.36218 c 0,-131.42857 0,-131.42857 0,-131.42857"
         style="fill:none;stroke:#000000;stroke-width:4;stroke-linecap:butt;stroke-linejoin:miter;stroke-miterlimit:4;stroke-opacity:1;stroke-dasharray:none;marker-end:url(#Arrow1Lend)" />
      <path
         inkscape:connector-curvature="0"
         id="path4323"
         d="m -956.5714,916.36218 c 0,-131.42857 0,-131.42857 0,-131.42857"
         style="fill:none;stroke:#000000;stroke-width:4;stroke-linecap:butt;stroke-linejoin:miter;stroke-miterlimit:4;stroke-opacity:1;stroke-dasharray:none;marker-end:url(#Arrow1Lend)" />
      <path
         style="fill:none;stroke:#000000;stroke-width:4;stroke-linecap:butt;stroke-linejoin:miter;stroke-miterlimit:4;stroke-opacity:1;stroke-dasharray:none;marker-end:url(#Arrow1Lend)"
         d="m -916.5714,916.36218 c 0,-131.42857 0,-131.42857 0,-131.42857"
         id="path4325"
         inkscape:connector-curvature="0" />
      <path
         inkscape:connector-curvature="0"
         id="path4327"
         d="m -876.5714,916.36218 c 0,-131.42857 0,-131.42857 0,-131.42857"
         style="fill:none;stroke:#000000;stroke-width:4;stroke-linecap:butt;stroke-linejoin:miter;stroke-miterlimit:4;stroke-opacity:1;stroke-dasharray:none;marker-end:url(#Arrow1Lend)" />
      <path
         style="fill:none;stroke:#000000;stroke-width:4;stroke-linecap:butt;stroke-linejoin:miter;stroke-miterlimit:4;stroke-opacity:1;stroke-dasharray:none;marker-end:url(#Arrow1Lend)"
         d="m -836.5714,916.36218 c 0,-131.42857 0,-131.42857 0,-131.42857"
         id="path4329"
         inkscape:connector-curvature="0" />
    </g>
    <g
       id="g4417"
       transform="translate(-588.5714,0)">
      <path
         style="fill:none;stroke:#000000;stroke-width:4.5;stroke-linecap:butt;stroke-linejoin:miter;stroke-miterlimit:4;stroke-opacity:1;stroke-dasharray:none"
         d="m -1040,-107.63782 0,1120.00002 c 0,0 8.6376,15.2881 23.434,20.9594 23.30471,8.9324 35.00464,11.579 49.04062,14.4442 19.54569,3.9898 31.3128,5.2194 45,6.4644 19.83465,1.8042 28.65679,1.069 42.16824,0.8368 13.74166,-0.2362 35.07987,-1.1159 48.77012,-2.3266 14.84856,-1.3131 20.07458,-2.3364 38.78064,-5.0105 15.98462,-2.2851 26.84462,-5.4087 43.17839,-10.6382 16.33376,-5.2295 29.62799,-24.7295 29.62799,-24.7295 l 0,-1120.00002 -40,0 -40,0 -40,0 -40,0 -40,0 -40,0 z"
         id="path4419"
         inkscape:connector-curvature="0"
         sodipodi:nodetypes="ccsssssszccccccccc" />
      <path
         sodipodi:type="arc"
         style="fill:#ffffff;fill-opacity:1;stroke:#000000;stroke-width:4.5;stroke-miterlimit:4;stroke-opacity:1;stroke-dasharray:none;stroke-dashoffset:0"
         id="path4421"
         sodipodi:cx="-887.85712"
         sodipodi:cy="1073.0764"
         sodipodi:rx="161.42857"
         sodipodi:ry="47.857143"
         d="m -726.42854,1073.0764 c 0,26.4308 -72.27404,47.8572 -161.42858,47.8572 -89.15454,0 -161.42858,-21.4264 -161.42858,-47.8572 0,-26.4308 72.27404,-47.8571 161.42858,-47.8571 89.15454,0 161.42858,21.4263 161.42858,47.8571 z"
         transform="translate(7.561275,-1180.2084)" />
    </g>
    <path
       style="fill:none;stroke:#000000;stroke-width:4.69041586;stroke-linecap:butt;stroke-linejoin:miter;stroke-miterlimit:4;stroke-opacity:1;stroke-dasharray:none;marker-end:url(#Arrow1Lend)"
       d="m -1348.5714,12.362183 c -110,0 -110,0 -110,0"
       id="path4639"
       inkscape:connector-curvature="0" />
    <path
       inkscape:connector-curvature="0"
       id="path4823"
       d="m -1486.5714,12.362183 c -120,0 -120,0 -120,0"
       style="fill:none;stroke:#000000;stroke-width:4.89897966;stroke-linecap:butt;stroke-linejoin:miter;stroke-miterlimit:4;stroke-opacity:1;stroke-dasharray:none;marker-end:url(#Arrow1Lend)" />
    <path
       inkscape:connector-curvature="0"
       id="path4825"
       d="m -1348.5714,92.362183 c -110,0 -110,0 -110,0"
       style="fill:none;stroke:#000000;stroke-width:4.69041586;stroke-linecap:butt;stroke-linejoin:miter;stroke-miterlimit:4;stroke-opacity:1;stroke-dasharray:none;marker-end:url(#Arrow1Lend)" />
    <path
       style="fill:none;stroke:#000000;stroke-width:4.89897966;stroke-linecap:butt;stroke-linejoin:miter;stroke-miterlimit:4;stroke-opacity:1;stroke-dasharray:none;marker-end:url(#Arrow1Lend)"
       d="m -1486.5714,92.362183 c -120,0 -120,0 -120,0"
       id="path4827"
       inkscape:connector-curvature="0" />
    <path
       style="fill:none;stroke:#000000;stroke-width:4.69041586;stroke-linecap:butt;stroke-linejoin:miter;stroke-miterlimit:4;stroke-opacity:1;stroke-dasharray:none;marker-end:url(#Arrow1Lend)"
       d="m -1348.5714,172.36218 c -110,0 -110,0 -110,0"
       id="path4829"
       inkscape:connector-curvature="0" />
    <path
       inkscape:connector-curvature="0"
       id="path4831"
       d="m -1486.5714,172.36218 c -120,0 -120,0 -120,0"
       style="fill:none;stroke:#000000;stroke-width:4.89897966;stroke-linecap:butt;stroke-linejoin:miter;stroke-miterlimit:4;stroke-opacity:1;stroke-dasharray:none;marker-end:url(#Arrow1Lend)" />
    <path
       inkscape:connector-curvature="0"
       id="path4833"
       d="m -1348.5714,252.36218 c -110,0 -110,0 -110,0"
       style="fill:none;stroke:#000000;stroke-width:4.69041586;stroke-linecap:butt;stroke-linejoin:miter;stroke-miterlimit:4;stroke-opacity:1;stroke-dasharray:none;marker-end:url(#Arrow1Lend)" />
    <path
       style="fill:none;stroke:#000000;stroke-width:4.89897966;stroke-linecap:butt;stroke-linejoin:miter;stroke-miterlimit:4;stroke-opacity:1;stroke-dasharray:none;marker-end:url(#Arrow1Lend)"
       d="m -1486.5714,252.36218 c -120,0 -120,0 -120,0"
       id="path4835"
       inkscape:connector-curvature="0" />
    <path
       style="fill:none;stroke:#000000;stroke-width:4.69041586;stroke-linecap:butt;stroke-linejoin:miter;stroke-miterlimit:4;stroke-opacity:1;stroke-dasharray:none;marker-end:url(#Arrow1Lend)"
       d="m -1348.5714,332.36218 c -110,0 -110,0 -110,0"
       id="path4837"
       inkscape:connector-curvature="0" />
    <path
       inkscape:connector-curvature="0"
       id="path4839"
       d="m -1486.5714,332.36218 c -120,0 -120,0 -120,0"
       style="fill:none;stroke:#000000;stroke-width:4.89897966;stroke-linecap:butt;stroke-linejoin:miter;stroke-miterlimit:4;stroke-opacity:1;stroke-dasharray:none;marker-end:url(#Arrow1Lend)" />
    <path
       inkscape:connector-curvature="0"
       id="path4841"
       d="m -1348.5714,412.36218 c -110,0 -110,0 -110,0"
       style="fill:none;stroke:#000000;stroke-width:4.69041586;stroke-linecap:butt;stroke-linejoin:miter;stroke-miterlimit:4;stroke-opacity:1;stroke-dasharray:none;marker-end:url(#Arrow1Lend)" />
    <path
       style="fill:none;stroke:#000000;stroke-width:4.89897966;stroke-linecap:butt;stroke-linejoin:miter;stroke-miterlimit:4;stroke-opacity:1;stroke-dasharray:none;marker-end:url(#Arrow1Lend)"
       d="m -1486.5714,412.36218 c -120,0 -120,0 -120,0"
       id="path4843"
       inkscape:connector-curvature="0" />
    <path
       style="fill:none;stroke:#000000;stroke-width:4.69041586;stroke-linecap:butt;stroke-linejoin:miter;stroke-miterlimit:4;stroke-opacity:1;stroke-dasharray:none;marker-end:url(#Arrow1Lend)"
       d="m -1348.5714,492.36218 c -110,0 -110,0 -110,0"
       id="path4845"
       inkscape:connector-curvature="0" />
    <path
       inkscape:connector-curvature="0"
       id="path4847"
       d="m -1486.5714,492.36218 c -120,0 -120,0 -120,0"
       style="fill:none;stroke:#000000;stroke-width:4.89897966;stroke-linecap:butt;stroke-linejoin:miter;stroke-miterlimit:4;stroke-opacity:1;stroke-dasharray:none;marker-end:url(#Arrow1Lend)" />
    <path
       inkscape:connector-curvature="0"
       id="path4849"
       d="m -1348.5714,572.36218 c -110,0 -110,0 -110,0"
       style="fill:none;stroke:#000000;stroke-width:4.69041586;stroke-linecap:butt;stroke-linejoin:miter;stroke-miterlimit:4;stroke-opacity:1;stroke-dasharray:none;marker-end:url(#Arrow1Lend)" />
    <path
       style="fill:none;stroke:#000000;stroke-width:4.89897966;stroke-linecap:butt;stroke-linejoin:miter;stroke-miterlimit:4;stroke-opacity:1;stroke-dasharray:none;marker-end:url(#Arrow1Lend)"
       d="m -1486.5714,572.36218 c -120,0 -120,0 -120,0"
       id="path4851"
       inkscape:connector-curvature="0" />
    <path
       style="fill:none;stroke:#000000;stroke-width:4.69041586;stroke-linecap:butt;stroke-linejoin:miter;stroke-miterlimit:4;stroke-opacity:1;stroke-dasharray:none;marker-end:url(#Arrow1Lend)"
       d="m -1348.5714,634.36218 c -110,0 -110,0 -110,0"
       id="path4853"
       inkscape:connector-curvature="0" />
    <path
       inkscape:connector-curvature="0"
       id="path4855"
       d="m -1486.5714,634.36218 c -120,0 -120,0 -120,0"
       style="fill:none;stroke:#000000;stroke-width:4.89897966;stroke-linecap:butt;stroke-linejoin:miter;stroke-miterlimit:4;stroke-opacity:1;stroke-dasharray:none;marker-end:url(#Arrow1Lend)" />
    <path
       inkscape:connector-curvature="0"
       id="path4857"
       d="m -1348.5714,714.36218 c -110,0 -110,0 -110,0"
       style="fill:none;stroke:#000000;stroke-width:4.69041586;stroke-linecap:butt;stroke-linejoin:miter;stroke-miterlimit:4;stroke-opacity:1;stroke-dasharray:none;marker-end:url(#Arrow1Lend)" />
    <path
       style="fill:none;stroke:#000000;stroke-width:4.89897966;stroke-linecap:butt;stroke-linejoin:miter;stroke-miterlimit:4;stroke-opacity:1;stroke-dasharray:none;marker-end:url(#Arrow1Lend)"
       d="m -1486.5714,714.36218 c -120,0 -120,0 -120,0"
       id="path4859"
       inkscape:connector-curvature="0" />
    <path
       style="fill:none;stroke:#000000;stroke-width:4.69041586;stroke-linecap:butt;stroke-linejoin:miter;stroke-miterlimit:4;stroke-opacity:1;stroke-dasharray:none;marker-end:url(#Arrow1Lend)"
       d="m -1348.5714,794.36218 c -110,0 -110,0 -110,0"
       id="path4861"
       inkscape:connector-curvature="0" />
    <path
       inkscape:connector-curvature="0"
       id="path4863"
       d="m -1486.5714,794.36218 c -120,0 -120,0 -120,0"
       style="fill:none;stroke:#000000;stroke-width:4.89897966;stroke-linecap:butt;stroke-linejoin:miter;stroke-miterlimit:4;stroke-opacity:1;stroke-dasharray:none;marker-end:url(#Arrow1Lend)" />
    <path
       inkscape:connector-curvature="0"
       id="path4865"
       d="m -1348.5714,874.36218 c -110,0 -110,0 -110,0"
       style="fill:none;stroke:#000000;stroke-width:4.69041586;stroke-linecap:butt;stroke-linejoin:miter;stroke-miterlimit:4;stroke-opacity:1;stroke-dasharray:none;marker-end:url(#Arrow1Lend)" />
    <path
       style="fill:none;stroke:#000000;stroke-width:4.89897966;stroke-linecap:butt;stroke-linejoin:miter;stroke-miterlimit:4;stroke-opacity:1;stroke-dasharray:none;marker-end:url(#Arrow1Lend)"
       d="m -1486.5714,874.36218 c -120,0 -120,0 -120,0"
       id="path4867"
       inkscape:connector-curvature="0" />
    <path
       style="fill:none;stroke:#000000;stroke-width:4.69041586;stroke-linecap:butt;stroke-linejoin:miter;stroke-miterlimit:4;stroke-opacity:1;stroke-dasharray:none;marker-end:url(#Arrow1Lend)"
       d="m -1348.5714,954.36218 c -110,0 -110,0 -110,0"
       id="path4869"
       inkscape:connector-curvature="0" />
    <path
       inkscape:connector-curvature="0"
       id="path4871"
       d="m -1486.5714,954.36218 c -120,0 -120,0 -120,0"
       style="fill:none;stroke:#000000;stroke-width:4.89897966;stroke-linecap:butt;stroke-linejoin:miter;stroke-miterlimit:4;stroke-opacity:1;stroke-dasharray:none;marker-end:url(#Arrow1Lend)" />
    <path
       inkscape:connector-curvature="0"
       id="path4873"
       d="m -1348.5714,1014.3622 c -110,0 -110,0 -110,0"
       style="fill:none;stroke:#000000;stroke-width:4.69041586;stroke-linecap:butt;stroke-linejoin:miter;stroke-miterlimit:4;stroke-opacity:1;stroke-dasharray:none;marker-end:url(#Arrow1Lend)" />
    <path
       style="fill:none;stroke:#000000;stroke-width:4.89897966;stroke-linecap:butt;stroke-linejoin:miter;stroke-miterlimit:4;stroke-opacity:1;stroke-dasharray:none;marker-end:url(#Arrow1Lend)"
       d="m -1486.5714,1014.3622 c -120,0 -120,0 -120,0"
       id="path4875"
       inkscape:connector-curvature="0" />
    <path
       style="fill:none;stroke:#000000;stroke-width:4.69041586;stroke-linecap:butt;stroke-linejoin:miter;stroke-miterlimit:4;stroke-opacity:1;stroke-dasharray:none;marker-end:url(#Arrow1Lend)"
       d="m -1348.5714,1014.3622 c -110,0 -110,0 -110,0"
       id="path4877"
       inkscape:connector-curvature="0" />
    <path
       inkscape:connector-curvature="0"
       id="path4879"
       d="m -1486.5714,1014.3622 c -120,0 -120,0 -120,0"
       style="fill:none;stroke:#000000;stroke-width:4.89897966;stroke-linecap:butt;stroke-linejoin:miter;stroke-miterlimit:4;stroke-opacity:1;stroke-dasharray:none;marker-end:url(#Arrow1Lend)" />
  </g>
</svg>
