<?xml version="1.0" encoding="UTF-8" standalone="no"?>
<!-- Created with Inkscape (http://www.inkscape.org/) -->

<svg
   xmlns:ns0="http://www.iki.fi/pav/software/textext/"
   xmlns:dc="http://purl.org/dc/elements/1.1/"
   xmlns:cc="http://creativecommons.org/ns#"
   xmlns:rdf="http://www.w3.org/1999/02/22-rdf-syntax-ns#"
   xmlns:svg="http://www.w3.org/2000/svg"
   xmlns="http://www.w3.org/2000/svg"
   xmlns:xlink="http://www.w3.org/1999/xlink"
   xmlns:sodipodi="http://sodipodi.sourceforge.net/DTD/sodipodi-0.dtd"
   xmlns:inkscape="http://www.inkscape.org/namespaces/inkscape"
   inkscape:export-ydpi="90"
   inkscape:export-xdpi="90"
   inkscape:export-filename="/home/francois/Dropbox-Perso/VIP/VIP2015/FIGURES/detgraphic.png"
   sodipodi:docname="detgraphic.svg"
   width="744.09448819"
   height="1052.3622047"
   id="svg2"
   version="1.1"
   inkscape:version="0.48.4 r9939">
  <sodipodi:namedview
     id="base"
     pagecolor="#ffffff"
     bordercolor="#ffffff"
     borderopacity="0.0"
     inkscape:pageopacity="0.0"
     inkscape:pageshadow="0"
     inkscape:zoom="0.7"
     inkscape:cx="-1474.1746"
     inkscape:cy="1067.2933"
     inkscape:document-units="px"
     inkscape:current-layer="svg2"
     showgrid="true"
     inkscape:window-width="1920"
     inkscape:window-height="1062"
     inkscape:window-x="0"
     inkscape:window-y="18"
     inkscape:window-maximized="1">
    <inkscape:grid
       id="grid2985"
       type="xygrid" />
  </sodipodi:namedview>
  <defs
     id="defs4">
    <marker
       style="overflow:visible"
       id="Arrow1Lstart"
       refX="0.0"
       refY="0.0"
       orient="auto"
       inkscape:stockid="Arrow1Lstart">
      <path
         transform="scale(0.8) translate(12.5,0)"
         style="fill-rule:evenodd;stroke:#000000;stroke-width:1.0pt"
         d="M 0.0,0.0 L 5.0,-5.0 L -12.5,0.0 L 5.0,5.0 L 0.0,0.0 z "
         id="path3763" />
    </marker>
    <marker
       style="overflow:visible;"
       id="Arrow1Lend"
       refX="0.0"
       refY="0.0"
       orient="auto"
       inkscape:stockid="Arrow1Lend">
      <path
         transform="scale(0.8) rotate(180) translate(12.5,0)"
         style="fill-rule:evenodd;stroke:#000000;stroke-width:1.0pt;"
         d="M 0.0,0.0 L 5.0,-5.0 L -12.5,0.0 L 5.0,5.0 L 0.0,0.0 z "
         id="path3766" />
    </marker>
  </defs>
  <metadata
     id="metadata7">
    <rdf:RDF>
      <cc:Work
         rdf:about="">
        <dc:format>image/svg+xml</dc:format>
        <dc:type
           rdf:resource="http://purl.org/dc/dcmitype/StillImage" />
        <dc:title></dc:title>
      </cc:Work>
    </rdf:RDF>
  </metadata>
  <g
     id="layer1"
     inkscape:groupmode="layer"
     inkscape:label="Layer 1">
    <path
       inkscape:connector-curvature="0"
       id="path2987"
       d="m -1920,-307.63782 0,720"
       style="fill:none;stroke:#000000;stroke-width:2;stroke-linecap:butt;stroke-linejoin:miter;stroke-opacity:1;stroke-miterlimit:4;stroke-dasharray:none;marker-start:url(#Arrow1Lstart)" />
    <path
       inkscape:connector-curvature="0"
       id="path2989"
       d="m -2040,292.36218 840,0"
       style="fill:none;stroke:#000000;stroke-width:2;stroke-linecap:butt;stroke-linejoin:miter;stroke-opacity:1;stroke-miterlimit:4;stroke-dasharray:none;marker-end:url(#Arrow1Lend)" />
    <path
       sodipodi:nodetypes="cc"
       inkscape:connector-curvature="0"
       id="path4389"
       d="m -1760,272.36218 0,40"
       style="fill:none;stroke:#000000;stroke-width:2;stroke-linecap:butt;stroke-linejoin:miter;stroke-miterlimit:4;stroke-opacity:1;stroke-dasharray:none" />
    <path
       inkscape:connector-curvature="0"
       id="path4391"
       d="m -1940,132.36218 40,0"
       style="fill:none;stroke:#000000;stroke-width:2;stroke-linecap:butt;stroke-linejoin:miter;stroke-opacity:1;stroke-miterlimit:4;stroke-dasharray:none" />
  </g>
  <g
     id="g4460"
     ns0:preamble="/home/francois/Documents/Mypapers/InkscapeHeader/header.inc"
     ns0:text="$x$"
     transform="matrix(7,0,0,7,-2828.0863,-664.93692)">
    <defs
       id="defs4462">
      <g
         id="g4464">
        <symbol
           id="textext-a47daebc-0"
           overflow="visible"
           style="overflow:visible">
          <path
             id="path4467"
             d=""
             style="stroke:none"
             inkscape:connector-curvature="0" />
        </symbol>
        <symbol
           id="textext-a47daebc-1"
           overflow="visible"
           style="overflow:visible">
          <path
             id="path4470"
             d="M 3.328125,-3.015625 C 3.390625,-3.265625 3.625,-4.1875 4.3125,-4.1875 c 0.046875,0 0.296875,0 0.5,0.125 C 4.53125,-4 4.34375,-3.765625 4.34375,-3.515625 c 0,0.15625 0.109375,0.34375 0.375,0.34375 0.21875,0 0.53125,-0.171875 0.53125,-0.578125 0,-0.515625 -0.578125,-0.65625 -0.921875,-0.65625 -0.578125,0 -0.921875,0.53125 -1.046875,0.75 -0.25,-0.65625 -0.78125,-0.75 -1.078125,-0.75 -1.03125,0 -1.609375,1.28125 -1.609375,1.53125 0,0.109375 0.109375,0.109375 0.125,0.109375 0.078125,0 0.109375,-0.03125 0.125,-0.109375 0.34375,-1.0625 1,-1.3125 1.34375,-1.3125 0.1875,0 0.53125,0.09375 0.53125,0.671875 0,0.3125 -0.171875,0.96875 -0.53125,2.375 -0.15625,0.609375 -0.515625,1.03125 -0.953125,1.03125 -0.0625,0 -0.28125,0 -0.5,-0.125 0.25,-0.0625 0.46875,-0.265625 0.46875,-0.546875 0,-0.265625 -0.21875,-0.34375 -0.359375,-0.34375 -0.3125,0 -0.546875,0.25 -0.546875,0.578125 0,0.453125 0.484375,0.65625 0.921875,0.65625 0.671875,0 1.03125,-0.703125 1.046875,-0.75 0.125,0.359375 0.484375,0.75 1.078125,0.75 1.03125,0 1.59375,-1.28125 1.59375,-1.53125 0,-0.109375 -0.078125,-0.109375 -0.109375,-0.109375 -0.09375,0 -0.109375,0.046875 -0.140625,0.109375 -0.328125,1.078125 -1,1.3125 -1.3125,1.3125 -0.390625,0 -0.546875,-0.3125 -0.546875,-0.65625 0,-0.21875 0.046875,-0.4375 0.15625,-0.875 z m 0,0"
             style="stroke:none"
             inkscape:connector-curvature="0" />
        </symbol>
      </g>
    </defs>
    <g
       id="textext-a47daebc-2">
      <g
         id="g4473"
         style="fill:#000000;fill-opacity:1">
        <use
           id="use4475"
           y="134.765"
           x="223.43201"
           xlink:href="#textext-a47daebc-1"
           width="744.09448"
           height="1052.3622" />
      </g>
    </g>
  </g>
  <g
     ns0:text="$y$"
     ns0:preamble="/home/francois/Documents/Mypapers/InkscapeHeader/header.inc"
     transform="matrix(7,0,0,7,-3461.452,-1216.4802)"
     id="g4543">
    <defs
       id="defs4545">
      <g
         id="g4547">
        <symbol
           overflow="visible"
           id="textext-802bdcbf-0">
          <path
             style="stroke:none;"
             d=""
             id="path4550" />
        </symbol>
        <symbol
           overflow="visible"
           id="textext-802bdcbf-1">
          <path
             style="stroke:none;"
             d="M 4.84375 -3.796875 C 4.890625 -3.9375 4.890625 -3.953125 4.890625 -4.03125 C 4.890625 -4.203125 4.75 -4.296875 4.59375 -4.296875 C 4.5 -4.296875 4.34375 -4.234375 4.25 -4.09375 C 4.234375 -4.03125 4.140625 -3.734375 4.109375 -3.546875 C 4.03125 -3.296875 3.96875 -3.015625 3.90625 -2.75 L 3.453125 -0.953125 C 3.421875 -0.8125 2.984375 -0.109375 2.328125 -0.109375 C 1.828125 -0.109375 1.71875 -0.546875 1.71875 -0.921875 C 1.71875 -1.375 1.890625 -2 2.21875 -2.875 C 2.375 -3.28125 2.421875 -3.390625 2.421875 -3.59375 C 2.421875 -4.03125 2.109375 -4.40625 1.609375 -4.40625 C 0.65625 -4.40625 0.296875 -2.953125 0.296875 -2.875 C 0.296875 -2.765625 0.390625 -2.765625 0.40625 -2.765625 C 0.515625 -2.765625 0.515625 -2.796875 0.5625 -2.953125 C 0.84375 -3.890625 1.234375 -4.1875 1.578125 -4.1875 C 1.65625 -4.1875 1.828125 -4.1875 1.828125 -3.875 C 1.828125 -3.625 1.71875 -3.359375 1.65625 -3.171875 C 1.25 -2.109375 1.078125 -1.546875 1.078125 -1.078125 C 1.078125 -0.1875 1.703125 0.109375 2.296875 0.109375 C 2.6875 0.109375 3.015625 -0.0625 3.296875 -0.34375 C 3.171875 0.171875 3.046875 0.671875 2.65625 1.203125 C 2.390625 1.53125 2.015625 1.828125 1.5625 1.828125 C 1.421875 1.828125 0.96875 1.796875 0.796875 1.40625 C 0.953125 1.40625 1.09375 1.40625 1.21875 1.28125 C 1.328125 1.203125 1.421875 1.0625 1.421875 0.875 C 1.421875 0.5625 1.15625 0.53125 1.0625 0.53125 C 0.828125 0.53125 0.5 0.6875 0.5 1.171875 C 0.5 1.671875 0.9375 2.046875 1.5625 2.046875 C 2.578125 2.046875 3.609375 1.140625 3.890625 0.015625 Z M 4.84375 -3.796875 "
             id="path4553" />
        </symbol>
      </g>
    </defs>
    <g
       id="textext-802bdcbf-2">
      <g
         style="fill:rgb(0%,0%,0%);fill-opacity:1;"
         id="g4556">
        <use
           xlink:href="#textext-802bdcbf-1"
           x="223.432"
           y="134.765"
           id="use4558" />
      </g>
    </g>
  </g>
  <path
     sodipodi:nodetypes="cc"
     inkscape:connector-curvature="0"
     id="path4592"
     d="m -1920,292.36218 320,-160"
     style="fill:none;stroke:#000000;stroke-width:2;stroke-linecap:butt;stroke-linejoin:miter;stroke-miterlimit:4;stroke-opacity:1;stroke-dasharray:none;marker-start:none;marker-end:url(#Arrow1Lend)" />
  <g
     id="g5000"
     ns0:preamble="/home/francois/Documents/Mypapers/InkscapeHeader/header.inc"
     ns0:text="$v = \\begin{bmatrix}2\\\\1\\end{bmatrix}$"
     transform="matrix(5.25,0,0,5.25,-2877.3527,-471.08417)">
    <defs
       id="defs5002">
      <g
         id="g5004">
        <symbol
           id="textext-e170ef8f-0"
           overflow="visible"
           style="overflow:visible">
          <path
             id="path5007"
             d=""
             style="stroke:none"
             inkscape:connector-curvature="0" />
        </symbol>
        <symbol
           id="textext-e170ef8f-1"
           overflow="visible"
           style="overflow:visible">
          <path
             id="path5010"
             d="m 4.671875,-3.703125 c 0,-0.546875 -0.265625,-0.703125 -0.4375,-0.703125 -0.25,0 -0.5,0.265625 -0.5,0.484375 0,0.125 0.046875,0.1875 0.15625,0.296875 0.21875,0.203125 0.34375,0.453125 0.34375,0.8125 0,0.421875 -0.609375,2.703125 -1.765625,2.703125 -0.515625,0 -0.75,-0.34375 -0.75,-0.875 0,-0.546875 0.28125,-1.28125 0.578125,-2.109375 0.078125,-0.171875 0.125,-0.3125 0.125,-0.5 0,-0.4375 -0.3125,-0.8125 -0.8125,-0.8125 -0.9375,0 -1.3125,1.453125 -1.3125,1.53125 0,0.109375 0.09375,0.109375 0.109375,0.109375 0.109375,0 0.109375,-0.03125 0.15625,-0.1875 0.296875,-1 0.71875,-1.234375 1.015625,-1.234375 0.078125,0 0.25,0 0.25,0.3125 0,0.25 -0.109375,0.53125 -0.171875,0.703125 -0.4375,1.15625 -0.5625,1.609375 -0.5625,2.046875 0,1.078125 0.875,1.234375 1.328125,1.234375 1.671875,0 2.25,-3.296875 2.25,-3.8125 z m 0,0"
             style="stroke:none"
             inkscape:connector-curvature="0" />
        </symbol>
        <symbol
           id="textext-e170ef8f-2"
           overflow="visible"
           style="overflow:visible">
          <path
             id="path5013"
             d=""
             style="stroke:none"
             inkscape:connector-curvature="0" />
        </symbol>
        <symbol
           id="textext-e170ef8f-3"
           overflow="visible"
           style="overflow:visible">
          <path
             id="path5016"
             d="m 6.84375,-3.265625 c 0.15625,0 0.34375,0 0.34375,-0.1875 C 7.1875,-3.65625 7,-3.65625 6.859375,-3.65625 l -5.96875,0 c -0.140625,0 -0.328125,0 -0.328125,0.203125 0,0.1875 0.1875,0.1875 0.328125,0.1875 z m 0.015625,1.9375 c 0.140625,0 0.328125,0 0.328125,-0.203125 0,-0.1875 -0.1875,-0.1875 -0.34375,-0.1875 l -5.953125,0 c -0.140625,0 -0.328125,0 -0.328125,0.1875 0,0.203125 0.1875,0.203125 0.328125,0.203125 z m 0,0"
             style="stroke:none"
             inkscape:connector-curvature="0" />
        </symbol>
        <symbol
           id="textext-e170ef8f-4"
           overflow="visible"
           style="overflow:visible">
          <path
             id="path5019"
             d="m 1.265625,-0.765625 1.0625,-1.03125 c 1.546875,-1.375 2.140625,-1.90625 2.140625,-2.90625 0,-1.140625 -0.890625,-1.9375 -2.109375,-1.9375 -1.125,0 -1.859375,0.921875 -1.859375,1.8125 0,0.546875 0.5,0.546875 0.53125,0.546875 0.171875,0 0.515625,-0.109375 0.515625,-0.53125 0,-0.25 -0.1875,-0.515625 -0.53125,-0.515625 -0.078125,0 -0.09375,0 -0.125,0.015625 0.21875,-0.65625 0.765625,-1.015625 1.34375,-1.015625 0.90625,0 1.328125,0.8125 1.328125,1.625 C 3.5625,-3.90625 3.078125,-3.125 2.515625,-2.5 l -1.90625,2.125 C 0.5,-0.265625 0.5,-0.234375 0.5,0 l 3.703125,0 0.265625,-1.734375 -0.234375,0 C 4.171875,-1.4375 4.109375,-1 4,-0.84375 3.9375,-0.765625 3.28125,-0.765625 3.0625,-0.765625 z m 0,0"
             style="stroke:none"
             inkscape:connector-curvature="0" />
        </symbol>
        <symbol
           id="textext-e170ef8f-5"
           overflow="visible"
           style="overflow:visible">
          <path
             id="path5022"
             d="m 2.9375,-6.375 c 0,-0.25 0,-0.265625 -0.234375,-0.265625 C 2.078125,-6 1.203125,-6 0.890625,-6 l 0,0.3125 c 0.203125,0 0.78125,0 1.296875,-0.265625 l 0,5.171875 c 0,0.359375 -0.03125,0.46875 -0.921875,0.46875 l -0.3125,0 0,0.3125 c 0.34375,-0.03125 1.203125,-0.03125 1.609375,-0.03125 0.390625,0 1.265625,0 1.609375,0.03125 l 0,-0.3125 -0.3125,0 c -0.90625,0 -0.921875,-0.109375 -0.921875,-0.46875 z m 0,0"
             style="stroke:none"
             inkscape:connector-curvature="0" />
        </symbol>
        <symbol
           id="textext-e170ef8f-6"
           overflow="visible"
           style="overflow:visible">
          <path
             id="path5025"
             d=""
             style="stroke:none"
             inkscape:connector-curvature="0" />
        </symbol>
        <symbol
           id="textext-e170ef8f-7"
           overflow="visible"
           style="overflow:visible">
          <path
             id="path5028"
             d="m 2.5,23.515625 2.609375,0 0,-0.546875 -2.0625,0 0,-22.8125 2.0625,0 0,-0.5625 -2.609375,0 z m 0,0"
             style="stroke:none"
             inkscape:connector-curvature="0" />
        </symbol>
        <symbol
           id="textext-e170ef8f-8"
           overflow="visible"
           style="overflow:visible">
          <path
             id="path5031"
             d="m 2.21875,22.96875 -2.078125,0 0,0.546875 2.625,0 0,-23.921875 -2.625,0 0,0.5625 2.078125,0 z m 0,0"
             style="stroke:none"
             inkscape:connector-curvature="0" />
        </symbol>
      </g>
    </defs>
    <g
       id="textext-e170ef8f-9">
      <g
         id="g5034"
         style="fill:#000000;fill-opacity:1">
        <use
           id="use5036"
           y="139.248"
           x="223.43201"
           xlink:href="#textext-e170ef8f-1"
           width="744.09448"
           height="1052.3622" />
      </g>
      <g
         id="g5038"
         style="fill:#000000;fill-opacity:1">
        <use
           id="use5040"
           y="139.248"
           x="231.386"
           xlink:href="#textext-e170ef8f-3"
           width="744.09448"
           height="1052.3622" />
      </g>
      <g
         id="g5042"
         style="fill:#000000;fill-opacity:1">
        <use
           id="use5044"
           y="125.2"
           x="241.90199"
           xlink:href="#textext-e170ef8f-7"
           width="744.09448"
           height="1052.3622" />
      </g>
      <g
         id="g5046"
         style="fill:#000000;fill-opacity:1">
        <use
           id="use5048"
           y="133.17101"
           x="247.16"
           xlink:href="#textext-e170ef8f-4"
           width="744.09448"
           height="1052.3622" />
      </g>
      <g
         id="g5050"
         style="fill:#000000;fill-opacity:1">
        <use
           id="use5052"
           y="145.12601"
           x="247.16"
           xlink:href="#textext-e170ef8f-5"
           width="744.09448"
           height="1052.3622" />
      </g>
      <g
         id="g5054"
         style="fill:#000000;fill-opacity:1">
        <use
           id="use5056"
           y="125.2"
           x="252.14101"
           xlink:href="#textext-e170ef8f-8"
           width="744.09448"
           height="1052.3622" />
      </g>
    </g>
  </g>
  <path
     style="fill:none;stroke:#000000;stroke-width:2;stroke-linecap:butt;stroke-linejoin:miter;stroke-opacity:1;stroke-miterlimit:4;stroke-dasharray:none;marker-end:url(#Arrow1Lend)"
     d="M -1920,292.36218 -1760,52.362183"
     id="path5126"
     inkscape:connector-curvature="0" />
  <g
     ns0:text="$w = \\begin{bmatrix}1\\\\1.5\\end{bmatrix}$"
     ns0:preamble="/home/francois/Documents/Mypapers/InkscapeHeader/header.inc"
     transform="matrix(5.25,0,0,5.25,-3167.3527,-732.51274)"
     id="g5454">
    <defs
       id="defs5456">
      <g
         id="g5458">
        <symbol
           style="overflow:visible"
           overflow="visible"
           id="textext-2fc1fe8a-0">
          <path
             inkscape:connector-curvature="0"
             style="stroke:none"
             d=""
             id="path5461" />
        </symbol>
        <symbol
           style="overflow:visible"
           overflow="visible"
           id="textext-2fc1fe8a-1">
          <path
             inkscape:connector-curvature="0"
             style="stroke:none"
             d="M 4.609375,-3.375 C 4.65625,-3.59375 4.75,-3.96875 4.75,-4.03125 c 0,-0.171875 -0.140625,-0.265625 -0.28125,-0.265625 -0.125,0 -0.296875,0.078125 -0.375,0.28125 -0.03125,0.0625 -0.5,1.96875 -0.5625,2.234375 C 3.453125,-1.484375 3.4375,-1.3125 3.4375,-1.125 c 0,0.109375 0,0.125 0.015625,0.171875 -0.234375,0.53125 -0.53125,0.84375 -0.921875,0.84375 -0.796875,0 -0.796875,-0.734375 -0.796875,-0.90625 0,-0.3125 0.046875,-0.703125 0.515625,-1.9375 0.109375,-0.296875 0.171875,-0.4375 0.171875,-0.640625 0,-0.4375 -0.328125,-0.8125 -0.8125,-0.8125 -0.953125,0 -1.3125,1.453125 -1.3125,1.53125 0,0.109375 0.09375,0.109375 0.109375,0.109375 0.109375,0 0.109375,-0.03125 0.15625,-0.1875 C 0.84375,-3.875 1.21875,-4.1875 1.578125,-4.1875 c 0.09375,0 0.25,0.015625 0.25,0.328125 0,0.25 -0.109375,0.53125 -0.1875,0.703125 -0.4375,1.171875 -0.546875,1.625 -0.546875,2.015625 0,0.90625 0.65625,1.25 1.40625,1.25 0.171875,0 0.640625,0 1.03125,-0.703125 0.265625,0.640625 0.953125,0.703125 1.25,0.703125 0.75,0 1.1875,-0.625 1.453125,-1.21875 0.328125,-0.78125 0.65625,-2.125 0.65625,-2.59375 0,-0.546875 -0.265625,-0.703125 -0.4375,-0.703125 -0.25,0 -0.5,0.265625 -0.5,0.484375 0,0.125 0.0625,0.1875 0.140625,0.265625 0.109375,0.109375 0.359375,0.359375 0.359375,0.84375 0,0.34375 -0.28125,1.3125 -0.546875,1.828125 -0.25,0.53125 -0.609375,0.875 -1.09375,0.875 -0.46875,0 -0.734375,-0.296875 -0.734375,-0.875 0,-0.265625 0.0625,-0.578125 0.109375,-0.71875 z m 0,0"
             id="path5464" />
        </symbol>
        <symbol
           style="overflow:visible"
           overflow="visible"
           id="textext-2fc1fe8a-2">
          <path
             inkscape:connector-curvature="0"
             style="stroke:none"
             d="m 1.90625,-0.53125 c 0,-0.28125 -0.234375,-0.53125 -0.515625,-0.53125 -0.296875,0 -0.53125,0.25 -0.53125,0.53125 C 0.859375,-0.234375 1.09375,0 1.390625,0 1.671875,0 1.90625,-0.234375 1.90625,-0.53125 z m 0,0"
             id="path5467" />
        </symbol>
        <symbol
           style="overflow:visible"
           overflow="visible"
           id="textext-2fc1fe8a-3">
          <path
             inkscape:connector-curvature="0"
             style="stroke:none"
             d=""
             id="path5470" />
        </symbol>
        <symbol
           style="overflow:visible"
           overflow="visible"
           id="textext-2fc1fe8a-4">
          <path
             inkscape:connector-curvature="0"
             style="stroke:none"
             d="m 6.84375,-3.265625 c 0.15625,0 0.34375,0 0.34375,-0.1875 C 7.1875,-3.65625 7,-3.65625 6.859375,-3.65625 l -5.96875,0 c -0.140625,0 -0.328125,0 -0.328125,0.203125 0,0.1875 0.1875,0.1875 0.328125,0.1875 z m 0.015625,1.9375 c 0.140625,0 0.328125,0 0.328125,-0.203125 0,-0.1875 -0.1875,-0.1875 -0.34375,-0.1875 l -5.953125,0 c -0.140625,0 -0.328125,0 -0.328125,0.1875 0,0.203125 0.1875,0.203125 0.328125,0.203125 z m 0,0"
             id="path5473" />
        </symbol>
        <symbol
           style="overflow:visible"
           overflow="visible"
           id="textext-2fc1fe8a-5">
          <path
             inkscape:connector-curvature="0"
             style="stroke:none"
             d="m 2.9375,-6.375 c 0,-0.25 0,-0.265625 -0.234375,-0.265625 C 2.078125,-6 1.203125,-6 0.890625,-6 l 0,0.3125 c 0.203125,0 0.78125,0 1.296875,-0.265625 l 0,5.171875 c 0,0.359375 -0.03125,0.46875 -0.921875,0.46875 l -0.3125,0 0,0.3125 c 0.34375,-0.03125 1.203125,-0.03125 1.609375,-0.03125 0.390625,0 1.265625,0 1.609375,0.03125 l 0,-0.3125 -0.3125,0 c -0.90625,0 -0.921875,-0.109375 -0.921875,-0.46875 z m 0,0"
             id="path5476" />
        </symbol>
        <symbol
           style="overflow:visible"
           overflow="visible"
           id="textext-2fc1fe8a-6">
          <path
             inkscape:connector-curvature="0"
             style="stroke:none"
             d="m 4.46875,-2 c 0,-1.1875 -0.8125,-2.1875 -1.890625,-2.1875 -0.46875,0 -0.90625,0.15625 -1.265625,0.515625 l 0,-1.953125 c 0.203125,0.0625 0.53125,0.125 0.84375,0.125 1.234375,0 1.9375,-0.90625 1.9375,-1.03125 0,-0.0625 -0.03125,-0.109375 -0.109375,-0.109375 0,0 -0.03125,0 -0.078125,0.03125 C 3.703125,-6.515625 3.21875,-6.3125 2.546875,-6.3125 2.15625,-6.3125 1.6875,-6.390625 1.21875,-6.59375 1.140625,-6.625 1.125,-6.625 1.109375,-6.625 1,-6.625 1,-6.546875 1,-6.390625 L 1,-3.4375 c 0,0.171875 0,0.25 0.140625,0.25 0.078125,0 0.09375,-0.015625 0.140625,-0.078125 C 1.390625,-3.421875 1.75,-3.96875 2.5625,-3.96875 c 0.515625,0 0.765625,0.453125 0.84375,0.640625 0.15625,0.375 0.1875,0.75 0.1875,1.25 0,0.359375 0,0.953125 -0.25,1.375 C 3.109375,-0.3125 2.734375,-0.0625 2.28125,-0.0625 c -0.71875,0 -1.296875,-0.53125 -1.46875,-1.109375 0.03125,0 0.0625,0.015625 0.171875,0.015625 0.328125,0 0.5,-0.25 0.5,-0.484375 0,-0.25 -0.171875,-0.5 -0.5,-0.5 C 0.84375,-2.140625 0.5,-2.0625 0.5,-1.609375 0.5,-0.75 1.1875,0.21875 2.296875,0.21875 3.453125,0.21875 4.46875,-0.734375 4.46875,-2 z m 0,0"
             id="path5479" />
        </symbol>
        <symbol
           style="overflow:visible"
           overflow="visible"
           id="textext-2fc1fe8a-7">
          <path
             inkscape:connector-curvature="0"
             style="stroke:none"
             d=""
             id="path5482" />
        </symbol>
        <symbol
           style="overflow:visible"
           overflow="visible"
           id="textext-2fc1fe8a-8">
          <path
             inkscape:connector-curvature="0"
             style="stroke:none"
             d="m 2.5,23.515625 2.609375,0 0,-0.546875 -2.0625,0 0,-22.8125 2.0625,0 0,-0.5625 -2.609375,0 z m 0,0"
             id="path5485" />
        </symbol>
        <symbol
           style="overflow:visible"
           overflow="visible"
           id="textext-2fc1fe8a-9">
          <path
             inkscape:connector-curvature="0"
             style="stroke:none"
             d="m 2.21875,22.96875 -2.078125,0 0,0.546875 2.625,0 0,-23.921875 -2.625,0 0,0.5625 2.078125,0 z m 0,0"
             id="path5488" />
        </symbol>
      </g>
    </defs>
    <g
       id="textext-2fc1fe8a-10">
      <g
         style="fill:#000000;fill-opacity:1"
         id="g5491">
        <use
           height="1052.3622"
           width="744.09448"
           xlink:href="#textext-2fc1fe8a-1"
           x="223.43201"
           y="139.248"
           id="use5493" />
      </g>
      <g
         style="fill:#000000;fill-opacity:1"
         id="g5495">
        <use
           height="1052.3622"
           width="744.09448"
           xlink:href="#textext-2fc1fe8a-4"
           x="233.60001"
           y="139.248"
           id="use5497" />
      </g>
      <g
         style="fill:#000000;fill-opacity:1"
         id="g5499">
        <use
           height="1052.3622"
           width="744.09448"
           xlink:href="#textext-2fc1fe8a-8"
           x="244.116"
           y="125.2"
           id="use5501" />
      </g>
      <g
         style="fill:#000000;fill-opacity:1"
         id="g5503">
        <use
           height="1052.3622"
           width="744.09448"
           xlink:href="#textext-2fc1fe8a-5"
           x="253.248"
           y="133.17101"
           id="use5505" />
      </g>
      <g
         style="fill:#000000;fill-opacity:1"
         id="g5507">
        <use
           height="1052.3622"
           width="744.09448"
           xlink:href="#textext-2fc1fe8a-5"
           x="249.37399"
           y="145.12601"
           id="use5509" />
      </g>
      <g
         style="fill:#000000;fill-opacity:1"
         id="g5511">
        <use
           height="1052.3622"
           width="744.09448"
           xlink:href="#textext-2fc1fe8a-2"
           x="254.355"
           y="145.12601"
           id="use5513" />
      </g>
      <g
         style="fill:#000000;fill-opacity:1"
         id="g5515">
        <use
           height="1052.3622"
           width="744.09448"
           xlink:href="#textext-2fc1fe8a-6"
           x="257.12299"
           y="145.12601"
           id="use5517" />
      </g>
      <g
         style="fill:#000000;fill-opacity:1"
         id="g5519">
        <use
           height="1052.3622"
           width="744.09448"
           xlink:href="#textext-2fc1fe8a-9"
           x="262.104"
           y="125.2"
           id="use5521" />
      </g>
    </g>
  </g>
  <g
     id="g4475"
     transform="matrix(5.25,0,0,5.25,-3027.3527,-928.22702)"
     ns0:preamble="/home/francois/Documents/Mypapers/InkscapeHeader/header.inc"
     ns0:text="$A = \\begin{bmatrix}2 &amp; 1\\\\1 &amp; 1.5\\end{bmatrix} = [v \\,\\,w]$">
    <defs
       id="defs4477">
      <g
         id="g4479">
        <symbol
           id="textext-7193e21e-0"
           overflow="visible"
           style="overflow:visible">
          <path
             id="path4482"
             d=""
             style="stroke:none"
             inkscape:connector-curvature="0" />
        </symbol>
        <symbol
           id="textext-7193e21e-1"
           overflow="visible"
           style="overflow:visible">
          <path
             id="path4485"
             d="M 1.78125,-1.140625 C 1.390625,-0.484375 1,-0.34375 0.5625,-0.3125 0.4375,-0.296875 0.34375,-0.296875 0.34375,-0.109375 0.34375,-0.046875 0.40625,0 0.484375,0 0.75,0 1.0625,-0.03125 1.328125,-0.03125 c 0.34375,0 0.6875,0.03125 1,0.03125 0.0625,0 0.1875,0 0.1875,-0.1875 0,-0.109375 -0.078125,-0.125 -0.15625,-0.125 -0.21875,-0.015625 -0.46875,-0.09375 -0.46875,-0.34375 0,-0.125 0.0625,-0.234375 0.140625,-0.375 l 0.765625,-1.265625 2.5,0 c 0.015625,0.203125 0.15625,1.5625 0.15625,1.65625 0,0.296875 -0.515625,0.328125 -0.71875,0.328125 C 4.59375,-0.3125 4.5,-0.3125 4.5,-0.109375 4.5,0 4.609375,0 4.640625,0 5.046875,0 5.46875,-0.03125 5.875,-0.03125 6.125,-0.03125 6.765625,0 7.015625,0 7.0625,0 7.1875,0 7.1875,-0.203125 7.1875,-0.3125 7.09375,-0.3125 6.953125,-0.3125 6.34375,-0.3125 6.34375,-0.375 6.3125,-0.671875 l -0.609375,-6.21875 c -0.015625,-0.203125 -0.015625,-0.25 -0.1875,-0.25 -0.15625,0 -0.203125,0.078125 -0.265625,0.171875 z M 2.984375,-2.609375 4.9375,-5.90625 5.265625,-2.609375 z m 0,0"
             style="stroke:none"
             inkscape:connector-curvature="0" />
        </symbol>
        <symbol
           id="textext-7193e21e-2"
           overflow="visible"
           style="overflow:visible">
          <path
             id="path4488"
             d="m 1.90625,-0.53125 c 0,-0.28125 -0.234375,-0.53125 -0.515625,-0.53125 -0.296875,0 -0.53125,0.25 -0.53125,0.53125 C 0.859375,-0.234375 1.09375,0 1.390625,0 1.671875,0 1.90625,-0.234375 1.90625,-0.53125 z m 0,0"
             style="stroke:none"
             inkscape:connector-curvature="0" />
        </symbol>
        <symbol
           id="textext-7193e21e-3"
           overflow="visible"
           style="overflow:visible">
          <path
             id="path4491"
             d="m 4.671875,-3.703125 c 0,-0.546875 -0.265625,-0.703125 -0.4375,-0.703125 -0.25,0 -0.5,0.265625 -0.5,0.484375 0,0.125 0.046875,0.1875 0.15625,0.296875 0.21875,0.203125 0.34375,0.453125 0.34375,0.8125 0,0.421875 -0.609375,2.703125 -1.765625,2.703125 -0.515625,0 -0.75,-0.34375 -0.75,-0.875 0,-0.546875 0.28125,-1.28125 0.578125,-2.109375 0.078125,-0.171875 0.125,-0.3125 0.125,-0.5 0,-0.4375 -0.3125,-0.8125 -0.8125,-0.8125 -0.9375,0 -1.3125,1.453125 -1.3125,1.53125 0,0.109375 0.09375,0.109375 0.109375,0.109375 0.109375,0 0.109375,-0.03125 0.15625,-0.1875 0.296875,-1 0.71875,-1.234375 1.015625,-1.234375 0.078125,0 0.25,0 0.25,0.3125 0,0.25 -0.109375,0.53125 -0.171875,0.703125 -0.4375,1.15625 -0.5625,1.609375 -0.5625,2.046875 0,1.078125 0.875,1.234375 1.328125,1.234375 1.671875,0 2.25,-3.296875 2.25,-3.8125 z m 0,0"
             style="stroke:none"
             inkscape:connector-curvature="0" />
        </symbol>
        <symbol
           id="textext-7193e21e-4"
           overflow="visible"
           style="overflow:visible">
          <path
             id="path4494"
             d="M 4.609375,-3.375 C 4.65625,-3.59375 4.75,-3.96875 4.75,-4.03125 c 0,-0.171875 -0.140625,-0.265625 -0.28125,-0.265625 -0.125,0 -0.296875,0.078125 -0.375,0.28125 -0.03125,0.0625 -0.5,1.96875 -0.5625,2.234375 C 3.453125,-1.484375 3.4375,-1.3125 3.4375,-1.125 c 0,0.109375 0,0.125 0.015625,0.171875 -0.234375,0.53125 -0.53125,0.84375 -0.921875,0.84375 -0.796875,0 -0.796875,-0.734375 -0.796875,-0.90625 0,-0.3125 0.046875,-0.703125 0.515625,-1.9375 0.109375,-0.296875 0.171875,-0.4375 0.171875,-0.640625 0,-0.4375 -0.328125,-0.8125 -0.8125,-0.8125 -0.953125,0 -1.3125,1.453125 -1.3125,1.53125 0,0.109375 0.09375,0.109375 0.109375,0.109375 0.109375,0 0.109375,-0.03125 0.15625,-0.1875 C 0.84375,-3.875 1.21875,-4.1875 1.578125,-4.1875 c 0.09375,0 0.25,0.015625 0.25,0.328125 0,0.25 -0.109375,0.53125 -0.1875,0.703125 -0.4375,1.171875 -0.546875,1.625 -0.546875,2.015625 0,0.90625 0.65625,1.25 1.40625,1.25 0.171875,0 0.640625,0 1.03125,-0.703125 0.265625,0.640625 0.953125,0.703125 1.25,0.703125 0.75,0 1.1875,-0.625 1.453125,-1.21875 0.328125,-0.78125 0.65625,-2.125 0.65625,-2.59375 0,-0.546875 -0.265625,-0.703125 -0.4375,-0.703125 -0.25,0 -0.5,0.265625 -0.5,0.484375 0,0.125 0.0625,0.1875 0.140625,0.265625 0.109375,0.109375 0.359375,0.359375 0.359375,0.84375 0,0.34375 -0.28125,1.3125 -0.546875,1.828125 -0.25,0.53125 -0.609375,0.875 -1.09375,0.875 -0.46875,0 -0.734375,-0.296875 -0.734375,-0.875 0,-0.265625 0.0625,-0.578125 0.109375,-0.71875 z m 0,0"
             style="stroke:none"
             inkscape:connector-curvature="0" />
        </symbol>
        <symbol
           id="textext-7193e21e-5"
           overflow="visible"
           style="overflow:visible">
          <path
             id="path4497"
             d=""
             style="stroke:none"
             inkscape:connector-curvature="0" />
        </symbol>
        <symbol
           id="textext-7193e21e-6"
           overflow="visible"
           style="overflow:visible">
          <path
             id="path4500"
             d="m 6.84375,-3.265625 c 0.15625,0 0.34375,0 0.34375,-0.1875 C 7.1875,-3.65625 7,-3.65625 6.859375,-3.65625 l -5.96875,0 c -0.140625,0 -0.328125,0 -0.328125,0.203125 0,0.1875 0.1875,0.1875 0.328125,0.1875 z m 0.015625,1.9375 c 0.140625,0 0.328125,0 0.328125,-0.203125 0,-0.1875 -0.1875,-0.1875 -0.34375,-0.1875 l -5.953125,0 c -0.140625,0 -0.328125,0 -0.328125,0.1875 0,0.203125 0.1875,0.203125 0.328125,0.203125 z m 0,0"
             style="stroke:none"
             inkscape:connector-curvature="0" />
        </symbol>
        <symbol
           id="textext-7193e21e-7"
           overflow="visible"
           style="overflow:visible">
          <path
             id="path4503"
             d="m 1.265625,-0.765625 1.0625,-1.03125 c 1.546875,-1.375 2.140625,-1.90625 2.140625,-2.90625 0,-1.140625 -0.890625,-1.9375 -2.109375,-1.9375 -1.125,0 -1.859375,0.921875 -1.859375,1.8125 0,0.546875 0.5,0.546875 0.53125,0.546875 0.171875,0 0.515625,-0.109375 0.515625,-0.53125 0,-0.25 -0.1875,-0.515625 -0.53125,-0.515625 -0.078125,0 -0.09375,0 -0.125,0.015625 0.21875,-0.65625 0.765625,-1.015625 1.34375,-1.015625 0.90625,0 1.328125,0.8125 1.328125,1.625 C 3.5625,-3.90625 3.078125,-3.125 2.515625,-2.5 l -1.90625,2.125 C 0.5,-0.265625 0.5,-0.234375 0.5,0 l 3.703125,0 0.265625,-1.734375 -0.234375,0 C 4.171875,-1.4375 4.109375,-1 4,-0.84375 3.9375,-0.765625 3.28125,-0.765625 3.0625,-0.765625 z m 0,0"
             style="stroke:none"
             inkscape:connector-curvature="0" />
        </symbol>
        <symbol
           id="textext-7193e21e-8"
           overflow="visible"
           style="overflow:visible">
          <path
             id="path4506"
             d="m 2.9375,-6.375 c 0,-0.25 0,-0.265625 -0.234375,-0.265625 C 2.078125,-6 1.203125,-6 0.890625,-6 l 0,0.3125 c 0.203125,0 0.78125,0 1.296875,-0.265625 l 0,5.171875 c 0,0.359375 -0.03125,0.46875 -0.921875,0.46875 l -0.3125,0 0,0.3125 c 0.34375,-0.03125 1.203125,-0.03125 1.609375,-0.03125 0.390625,0 1.265625,0 1.609375,0.03125 l 0,-0.3125 -0.3125,0 c -0.90625,0 -0.921875,-0.109375 -0.921875,-0.46875 z m 0,0"
             style="stroke:none"
             inkscape:connector-curvature="0" />
        </symbol>
        <symbol
           id="textext-7193e21e-9"
           overflow="visible"
           style="overflow:visible">
          <path
             id="path4509"
             d="m 4.46875,-2 c 0,-1.1875 -0.8125,-2.1875 -1.890625,-2.1875 -0.46875,0 -0.90625,0.15625 -1.265625,0.515625 l 0,-1.953125 c 0.203125,0.0625 0.53125,0.125 0.84375,0.125 1.234375,0 1.9375,-0.90625 1.9375,-1.03125 0,-0.0625 -0.03125,-0.109375 -0.109375,-0.109375 0,0 -0.03125,0 -0.078125,0.03125 C 3.703125,-6.515625 3.21875,-6.3125 2.546875,-6.3125 2.15625,-6.3125 1.6875,-6.390625 1.21875,-6.59375 1.140625,-6.625 1.125,-6.625 1.109375,-6.625 1,-6.625 1,-6.546875 1,-6.390625 L 1,-3.4375 c 0,0.171875 0,0.25 0.140625,0.25 0.078125,0 0.09375,-0.015625 0.140625,-0.078125 C 1.390625,-3.421875 1.75,-3.96875 2.5625,-3.96875 c 0.515625,0 0.765625,0.453125 0.84375,0.640625 0.15625,0.375 0.1875,0.75 0.1875,1.25 0,0.359375 0,0.953125 -0.25,1.375 C 3.109375,-0.3125 2.734375,-0.0625 2.28125,-0.0625 c -0.71875,0 -1.296875,-0.53125 -1.46875,-1.109375 0.03125,0 0.0625,0.015625 0.171875,0.015625 0.328125,0 0.5,-0.25 0.5,-0.484375 0,-0.25 -0.171875,-0.5 -0.5,-0.5 C 0.84375,-2.140625 0.5,-2.0625 0.5,-1.609375 0.5,-0.75 1.1875,0.21875 2.296875,0.21875 3.453125,0.21875 4.46875,-0.734375 4.46875,-2 z m 0,0"
             style="stroke:none"
             inkscape:connector-curvature="0" />
        </symbol>
        <symbol
           id="textext-7193e21e-10"
           overflow="visible"
           style="overflow:visible">
          <path
             id="path4512"
             d="m 2.546875,2.5 0,-0.40625 -0.96875,0 0,-9.171875 0.96875,0 0,-0.40625 -1.375,0 0,9.984375 z m 0,0"
             style="stroke:none"
             inkscape:connector-curvature="0" />
        </symbol>
        <symbol
           id="textext-7193e21e-11"
           overflow="visible"
           style="overflow:visible">
          <path
             id="path4515"
             d="m 1.578125,-7.484375 -1.359375,0 0,0.40625 0.96875,0 0,9.171875 -0.96875,0 0,0.40625 1.359375,0 z m 0,0"
             style="stroke:none"
             inkscape:connector-curvature="0" />
        </symbol>
        <symbol
           id="textext-7193e21e-12"
           overflow="visible"
           style="overflow:visible">
          <path
             id="path4518"
             d=""
             style="stroke:none"
             inkscape:connector-curvature="0" />
        </symbol>
        <symbol
           id="textext-7193e21e-13"
           overflow="visible"
           style="overflow:visible">
          <path
             id="path4521"
             d="m 2.5,23.515625 2.609375,0 0,-0.546875 -2.0625,0 0,-22.8125 2.0625,0 0,-0.5625 -2.609375,0 z m 0,0"
             style="stroke:none"
             inkscape:connector-curvature="0" />
        </symbol>
        <symbol
           id="textext-7193e21e-14"
           overflow="visible"
           style="overflow:visible">
          <path
             id="path4524"
             d="m 2.21875,22.96875 -2.078125,0 0,0.546875 2.625,0 0,-23.921875 -2.625,0 0,0.5625 2.078125,0 z m 0,0"
             style="stroke:none"
             inkscape:connector-curvature="0" />
        </symbol>
      </g>
    </defs>
    <g
       id="textext-7193e21e-15">
      <g
         id="g4527"
         style="fill:#000000;fill-opacity:1">
        <use
           id="use4529"
           y="139.248"
           x="223.43201"
           xlink:href="#textext-7193e21e-1"
           width="744.09448"
           height="1052.3622" />
      </g>
      <g
         id="g4531"
         style="fill:#000000;fill-opacity:1">
        <use
           id="use4533"
           y="139.248"
           x="233.67101"
           xlink:href="#textext-7193e21e-6"
           width="744.09448"
           height="1052.3622" />
      </g>
      <g
         id="g4535"
         style="fill:#000000;fill-opacity:1">
        <use
           id="use4537"
           y="125.2"
           x="244.188"
           xlink:href="#textext-7193e21e-13"
           width="744.09448"
           height="1052.3622" />
      </g>
      <g
         id="g4539"
         style="fill:#000000;fill-opacity:1">
        <use
           id="use4541"
           y="133.17101"
           x="249.446"
           xlink:href="#textext-7193e21e-7"
           width="744.09448"
           height="1052.3622" />
      </g>
      <g
         id="g4544"
         style="fill:#000000;fill-opacity:1">
        <use
           id="use4546"
           y="133.17101"
           x="268.26535"
           xlink:href="#textext-7193e21e-8"
           width="744.09448"
           height="1052.3622" />
      </g>
      <g
         id="g4548"
         style="fill:#000000;fill-opacity:1">
        <use
           id="use4550"
           y="145.12601"
           x="249.446"
           xlink:href="#textext-7193e21e-8"
           width="744.09448"
           height="1052.3622" />
      </g>
      <g
         id="g4552"
         style="fill:#000000;fill-opacity:1">
        <use
           id="use4554"
           y="145.12601"
           x="264.38989"
           xlink:href="#textext-7193e21e-8"
           width="744.09448"
           height="1052.3622" />
      </g>
      <g
         id="g4557"
         style="fill:#000000;fill-opacity:1">
        <use
           id="use4559"
           y="145.12601"
           x="269.371"
           xlink:href="#textext-7193e21e-2"
           width="744.09448"
           height="1052.3622" />
      </g>
      <g
         id="g4561"
         style="fill:#000000;fill-opacity:1">
        <use
           id="use4563"
           y="145.12601"
           x="272.138"
           xlink:href="#textext-7193e21e-9"
           width="744.09448"
           height="1052.3622" />
      </g>
      <g
         id="g4565"
         style="fill:#000000;fill-opacity:1">
        <use
           id="use4567"
           y="125.2"
           x="277.12"
           xlink:href="#textext-7193e21e-14"
           width="744.09448"
           height="1052.3622" />
      </g>
      <g
         id="g4569"
         style="fill:#000000;fill-opacity:1">
        <use
           id="use4571"
           y="139.248"
           x="285.14499"
           xlink:href="#textext-7193e21e-6"
           width="744.09448"
           height="1052.3622" />
      </g>
      <g
         id="g4573"
         style="fill:#000000;fill-opacity:1">
        <use
           id="use4575"
           y="139.248"
           x="295.66351"
           xlink:href="#textext-7193e21e-10"
           width="744.09448"
           height="1052.3622" />
      </g>
      <g
         id="g4577"
         style="fill:#000000;fill-opacity:1">
        <use
           id="use4579"
           y="139.248"
           x="298.42899"
           xlink:href="#textext-7193e21e-3"
           width="744.09448"
           height="1052.3622" />
      </g>
      <g
         id="g4581"
         style="fill:#000000;fill-opacity:1">
        <use
           id="use4583"
           y="139.248"
           x="306.93408"
           xlink:href="#textext-7193e21e-4"
           width="744.09448"
           height="1052.3622" />
      </g>
      <g
         id="g4585"
         style="fill:#000000;fill-opacity:1">
        <use
           id="use4587"
           y="139.248"
           x="314.336"
           xlink:href="#textext-7193e21e-11"
           width="744.09448"
           height="1052.3622" />
      </g>
    </g>
  </g>
  <path
     style="fill:none;stroke:#000000;stroke-width:2;stroke-linecap:butt;stroke-linejoin:miter;stroke-miterlimit:4;stroke-opacity:1;stroke-dasharray:none;marker-start:none;marker-end:none"
     d="m -1761.4286,56.647894 320,-160.000004"
     id="path5073"
     inkscape:connector-curvature="0"
     sodipodi:nodetypes="cc" />
  <path
     inkscape:connector-curvature="0"
     id="path5075"
     d="m -1602.8571,136.64789 160,-239.99999"
     style="fill:none;stroke:#000000;stroke-width:2;stroke-linecap:butt;stroke-linejoin:miter;stroke-miterlimit:4;stroke-opacity:1;stroke-dasharray:none;marker-end:none" />
  <path
     style="fill:#00ff00;stroke:#00ff00;stroke-width:2.85714293000000019;stroke-miterlimit:4;stroke-opacity:1;stroke-dasharray:none;stroke-dashoffset:0;fill-opacity:1"
     d="m -1913.0317,286.34925 c 0,-0.39475 31.7752,-48.37798 70.6117,-106.62937 69.4697,-104.198783 70.6274,-105.827712 71.5852,-100.722383 0.5354,2.854086 1.4103,4.9193 1.9441,4.589357 0.5339,-0.329929 2.7967,-6.313786 5.0286,-13.297429 l 4.0578,-12.697542 154.8149,-77.403488 c 85.1481,-42.571915 154.8148,-77.079401 154.8148,-76.683303 0,0.396098 -34.0162,51.738425 -75.5916,114.094059 l -75.5916,113.373879 -14.0512,2.52314 c -18.6654,3.35167 -19.2603,3.64427 -12.8786,6.33424 l 5.3106,2.23847 -145.0274,72.49907 c -79.765,39.87449 -145.0273,72.17608 -145.0273,71.7813 z"
     id="path6409"
     inkscape:connector-curvature="0" />
</svg>
