<?xml version="1.0" encoding="UTF-8" standalone="no"?>
<!-- Created with Inkscape (http://www.inkscape.org/) -->

<svg
   xmlns:ns0="http://www.iki.fi/pav/software/textext/"
   xmlns:dc="http://purl.org/dc/elements/1.1/"
   xmlns:cc="http://creativecommons.org/ns#"
   xmlns:rdf="http://www.w3.org/1999/02/22-rdf-syntax-ns#"
   xmlns:svg="http://www.w3.org/2000/svg"
   xmlns="http://www.w3.org/2000/svg"
   xmlns:xlink="http://www.w3.org/1999/xlink"
   xmlns:sodipodi="http://sodipodi.sourceforge.net/DTD/sodipodi-0.dtd"
   xmlns:inkscape="http://www.inkscape.org/namespaces/inkscape"
   width="744.09448819"
   height="1052.3622047"
   id="svg2"
   version="1.1"
   inkscape:version="0.48.3.1 r9886"
   sodipodi:docname="diffpoints.svg"
   inkscape:export-filename="/home/francois/Documents/Courses/VisionAndImageProcessing/lectures/Francois/FIGURES/diffpoints.png"
   inkscape:export-xdpi="90"
   inkscape:export-ydpi="90">
  <sodipodi:namedview
     id="base"
     pagecolor="#ffffff"
     bordercolor="#666666"
     borderopacity="1.0"
     inkscape:pageopacity="0.0"
     inkscape:pageshadow="2"
     inkscape:zoom="0.86"
     inkscape:cx="275.5487"
     inkscape:cy="292.25818"
     inkscape:document-units="px"
     inkscape:current-layer="layer1"
     showgrid="true"
     inkscape:window-width="1680"
     inkscape:window-height="1026"
     inkscape:window-x="0"
     inkscape:window-y="24"
     inkscape:window-maximized="1">
    <inkscape:grid
       type="xygrid"
       id="grid2985" />
  </sodipodi:namedview>
  <defs
     id="defs4">
    <marker
       inkscape:stockid="Arrow1Lstart"
       orient="auto"
       refY="0.0"
       refX="0.0"
       id="Arrow1Lstart"
       style="overflow:visible">
      <path
         id="path3761"
         d="M 0.0,0.0 L 5.0,-5.0 L -12.5,0.0 L 5.0,5.0 L 0.0,0.0 z "
         style="fill-rule:evenodd;stroke:#000000;stroke-width:1.0pt"
         transform="scale(0.8) translate(12.5,0)" />
    </marker>
  </defs>
  <metadata
     id="metadata7">
    <rdf:RDF>
      <cc:Work
         rdf:about="">
        <dc:format>image/svg+xml</dc:format>
        <dc:type
           rdf:resource="http://purl.org/dc/dcmitype/StillImage" />
        <dc:title></dc:title>
      </cc:Work>
    </rdf:RDF>
  </metadata>
  <g
     inkscape:label="Layer 1"
     inkscape:groupmode="layer"
     id="layer1">
    <path
       style="fill:none;stroke:#000000;stroke-width:5;stroke-linecap:butt;stroke-linejoin:miter;stroke-miterlimit:4;stroke-opacity:1;stroke-dasharray:none;marker-start:url(#Arrow1Lstart)"
       d="M 0,412.36218 0,1132.3622"
       id="path2987"
       inkscape:connector-curvature="0" />
    <path
       inkscape:connector-curvature="0"
       id="path4385"
       d="m 620,1052.3622 -720,0"
       style="fill:none;stroke:#000000;stroke-width:5;stroke-linecap:butt;stroke-linejoin:miter;stroke-miterlimit:4;stroke-opacity:1;stroke-dasharray:none;marker-start:url(#Arrow1Lstart)" />
    <g
       id="g4391"
       style="stroke-width:7;stroke-miterlimit:4;stroke-dasharray:none"
       transform="translate(1080,310)">
      <path
         inkscape:connector-curvature="0"
         id="path4387"
         d="m -690,442.36218 c 0,20 0,20 0,20"
         style="fill:none;stroke:#000000;stroke-width:7;stroke-linecap:butt;stroke-linejoin:miter;stroke-miterlimit:4;stroke-opacity:1;stroke-dasharray:none" />
      <path
         inkscape:connector-curvature="0"
         id="path4389"
         d="m -700,452.36218 20,0"
         style="fill:none;stroke:#000000;stroke-width:7;stroke-linecap:butt;stroke-linejoin:miter;stroke-miterlimit:4;stroke-opacity:1;stroke-dasharray:none" />
    </g>
    <g
       transform="translate(800,400)"
       style="stroke-width:7;stroke-miterlimit:4;stroke-dasharray:none"
       id="g4395">
      <path
         style="fill:none;stroke:#000000;stroke-width:7;stroke-linecap:butt;stroke-linejoin:miter;stroke-miterlimit:4;stroke-opacity:1;stroke-dasharray:none"
         d="m -690,442.36218 c 0,20 0,20 0,20"
         id="path4397"
         inkscape:connector-curvature="0" />
      <path
         style="fill:none;stroke:#000000;stroke-width:7;stroke-linecap:butt;stroke-linejoin:miter;stroke-miterlimit:4;stroke-opacity:1;stroke-dasharray:none"
         d="m -700,452.36218 20,0"
         id="path4399"
         inkscape:connector-curvature="0" />
    </g>
    <g
       transform="matrix(8,0,0,8,-1338.625,-333.13782)"
       ns0:text="$P_1$\n"
       ns0:preamble="/home/francois/Documents/Mypapers/InkscapeHeader/header.inc"
       id="g4417">
      <defs
         id="defs4419">
        <g
           id="g4421">
          <symbol
             style="overflow:visible"
             overflow="visible"
             id="textext-6569f2d8-0">
            <path
               inkscape:connector-curvature="0"
               style="stroke:none"
               d="m 3.015625,-3.15625 1.703125,0 c 1.40625,0 2.796875,-1.03125 2.796875,-2.140625 0,-0.78125 -0.65625,-1.515625 -1.96875,-1.515625 l -3.21875,0 c -0.1875,0 -0.296875,0 -0.296875,0.1875 0,0.125 0.078125,0.125 0.28125,0.125 0.125,0 0.3125,0.015625 0.421875,0.015625 0.171875,0.03125 0.21875,0.046875 0.21875,0.171875 0,0.03125 0,0.0625 -0.03125,0.1875 l -1.34375,5.34375 c -0.09375,0.390625 -0.109375,0.46875 -0.90625,0.46875 -0.15625,0 -0.265625,0 -0.265625,0.1875 C 0.40625,0 0.515625,0 0.546875,0 0.828125,0 1.53125,-0.03125 1.8125,-0.03125 c 0.21875,0 0.4375,0.015625 0.640625,0.015625 0.21875,0 0.4375,0.015625 0.640625,0.015625 0.078125,0 0.203125,0 0.203125,-0.203125 0,-0.109375 -0.09375,-0.109375 -0.28125,-0.109375 -0.359375,0 -0.640625,0 -0.640625,-0.171875 0,-0.0625 0.015625,-0.109375 0.03125,-0.171875 z M 3.734375,-6.125 C 3.828125,-6.46875 3.84375,-6.5 4.28125,-6.5 l 0.953125,0 c 0.828125,0 1.359375,0.265625 1.359375,0.953125 0,0.390625 -0.203125,1.25 -0.59375,1.609375 -0.5,0.453125 -1.09375,0.53125 -1.53125,0.53125 l -1.40625,0 z m 0,0"
               id="path4424" />
          </symbol>
          <symbol
             style="overflow:visible"
             overflow="visible"
             id="textext-6569f2d8-1">
            <path
               inkscape:connector-curvature="0"
               style="stroke:none"
               d="m 2.328125,-4.4375 c 0,-0.1875 0,-0.1875 -0.203125,-0.1875 -0.453125,0.4375 -1.078125,0.4375 -1.359375,0.4375 l 0,0.25 c 0.15625,0 0.625,0 1,-0.1875 l 0,3.546875 c 0,0.234375 0,0.328125 -0.6875,0.328125 l -0.265625,0 0,0.25 c 0.125,0 0.984375,-0.03125 1.234375,-0.03125 0.21875,0 1.09375,0.03125 1.25,0.03125 l 0,-0.25 -0.265625,0 c -0.703125,0 -0.703125,-0.09375 -0.703125,-0.328125 z m 0,0"
               id="path4427" />
          </symbol>
        </g>
      </defs>
      <g
         id="textext-6569f2d8-2">
        <g
           style="fill:#000000;fill-opacity:1"
           id="g4430">
          <use
             height="1052.3622"
             width="744.09448"
             xlink:href="#textext-6569f2d8-0"
             x="223.43201"
             y="134.765"
             id="use4432" />
        </g>
        <g
           style="fill:#000000;fill-opacity:1"
           id="g4434">
          <use
             height="1052.3622"
             width="744.09448"
             xlink:href="#textext-6569f2d8-1"
             x="229.828"
             y="136.259"
             id="use4436" />
        </g>
      </g>
    </g>
    <g
       id="g4516"
       transform="matrix(8,0,0,8,-1761.8808,-155.23084)"
       ns0:preamble="/home/francois/Documents/Mypapers/InkscapeHeader/header.inc"
       ns0:text="$P_2$\n">
      <defs
         id="defs4518">
        <g
           id="g4520">
          <symbol
             id="textext-81d833d0-0"
             overflow="visible"
             style="overflow:visible">
            <path
               id="path4523"
               d="m 3.015625,-3.15625 1.703125,0 c 1.40625,0 2.796875,-1.03125 2.796875,-2.140625 0,-0.78125 -0.65625,-1.515625 -1.96875,-1.515625 l -3.21875,0 c -0.1875,0 -0.296875,0 -0.296875,0.1875 0,0.125 0.078125,0.125 0.28125,0.125 0.125,0 0.3125,0.015625 0.421875,0.015625 0.171875,0.03125 0.21875,0.046875 0.21875,0.171875 0,0.03125 0,0.0625 -0.03125,0.1875 l -1.34375,5.34375 c -0.09375,0.390625 -0.109375,0.46875 -0.90625,0.46875 -0.15625,0 -0.265625,0 -0.265625,0.1875 C 0.40625,0 0.515625,0 0.546875,0 0.828125,0 1.53125,-0.03125 1.8125,-0.03125 c 0.21875,0 0.4375,0.015625 0.640625,0.015625 0.21875,0 0.4375,0.015625 0.640625,0.015625 0.078125,0 0.203125,0 0.203125,-0.203125 0,-0.109375 -0.09375,-0.109375 -0.28125,-0.109375 -0.359375,0 -0.640625,0 -0.640625,-0.171875 0,-0.0625 0.015625,-0.109375 0.03125,-0.171875 z M 3.734375,-6.125 C 3.828125,-6.46875 3.84375,-6.5 4.28125,-6.5 l 0.953125,0 c 0.828125,0 1.359375,0.265625 1.359375,0.953125 0,0.390625 -0.203125,1.25 -0.59375,1.609375 -0.5,0.453125 -1.09375,0.53125 -1.53125,0.53125 l -1.40625,0 z m 0,0"
               style="stroke:none"
               inkscape:connector-curvature="0" />
          </symbol>
          <symbol
             id="textext-81d833d0-1"
             overflow="visible"
             style="overflow:visible">
            <path
               id="path4526"
               d="m 3.515625,-1.265625 -0.234375,0 c -0.015625,0.15625 -0.09375,0.5625 -0.1875,0.625 -0.046875,0.046875 -0.578125,0.046875 -0.6875,0.046875 l -1.28125,0 c 0.734375,-0.640625 0.984375,-0.84375 1.390625,-1.171875 0.515625,-0.40625 1,-0.84375 1,-1.5 0,-0.84375 -0.734375,-1.359375 -1.625,-1.359375 -0.859375,0 -1.453125,0.609375 -1.453125,1.25 0,0.34375 0.296875,0.390625 0.375,0.390625 0.15625,0 0.359375,-0.125 0.359375,-0.375 0,-0.125 -0.046875,-0.375 -0.40625,-0.375 C 0.984375,-4.21875 1.453125,-4.375 1.78125,-4.375 c 0.703125,0 1.0625,0.546875 1.0625,1.109375 0,0.609375 -0.4375,1.078125 -0.65625,1.328125 L 0.515625,-0.265625 C 0.4375,-0.203125 0.4375,-0.1875 0.4375,0 l 2.875,0 z m 0,0"
               style="stroke:none"
               inkscape:connector-curvature="0" />
          </symbol>
        </g>
      </defs>
      <g
         id="textext-81d833d0-2">
        <g
           id="g4529"
           style="fill:#000000;fill-opacity:1">
          <use
             id="use4531"
             y="134.765"
             x="223.43201"
             xlink:href="#textext-81d833d0-0"
             width="744.09448"
             height="1052.3622" />
        </g>
        <g
           id="g4533"
           style="fill:#000000;fill-opacity:1">
          <use
             id="use4535"
             y="136.259"
             x="229.828"
             xlink:href="#textext-81d833d0-1"
             width="744.09448"
             height="1052.3622" />
        </g>
      </g>
    </g>
    <path
       style="fill:none;stroke:#ff0000;stroke-width:5;stroke-linecap:butt;stroke-linejoin:miter;stroke-opacity:1;stroke-miterlimit:4;stroke-dasharray:none;marker-end:none;marker-start:url(#Arrow1Lstart)"
       d="m 120,852.36218 270,-90"
       id="path4575"
       inkscape:connector-curvature="0" />
    <path
       style="fill:none;stroke:#000000;stroke-width:4;stroke-linecap:butt;stroke-linejoin:miter;stroke-opacity:1;stroke-miterlimit:4;stroke-dasharray:32,32;stroke-dashoffset:0"
       d="m 390,1052.3622 0,-290.00002 -390,0"
       id="path4941"
       inkscape:connector-curvature="0" />
    <path
       style="fill:none;stroke:#000000;stroke-width:4;stroke-linecap:butt;stroke-linejoin:miter;stroke-opacity:1;stroke-miterlimit:4;stroke-dasharray:32,32;stroke-dashoffset:0"
       d="m 110,1052.3622 0,-200.00002 -110,0"
       id="path4943"
       inkscape:connector-curvature="0" />
    <text
       xml:space="preserve"
       style="font-size:72px;font-style:normal;font-weight:normal;line-height:125%;letter-spacing:0px;word-spacing:0px;fill:#000000;fill-opacity:1;stroke:none;font-family:Sans"
       x="367.44186"
       y="1115.153"
       id="text4945"
       sodipodi:linespacing="125%"><tspan
         sodipodi:role="line"
         id="tspan4947"
         x="367.44186"
         y="1115.153">4</tspan></text>
    <text
       xml:space="preserve"
       style="font-size:72px;font-style:normal;font-weight:normal;line-height:125%;letter-spacing:0px;word-spacing:0px;fill:#000000;fill-opacity:1;stroke:none;font-family:Sans"
       x="-53.488373"
       y="775.61798"
       id="text4949"
       sodipodi:linespacing="125%"><tspan
         sodipodi:role="line"
         id="tspan4951"
         x="-53.488373"
         y="775.61798">3</tspan></text>
    <text
       xml:space="preserve"
       style="font-size:72px;font-style:normal;font-weight:normal;line-height:125%;letter-spacing:0px;word-spacing:0px;fill:#000000;fill-opacity:1;stroke:none;font-family:Sans"
       x="80"
       y="1112.3622"
       id="text4953"
       sodipodi:linespacing="125%"><tspan
         sodipodi:role="line"
         id="tspan4955"
         x="80"
         y="1112.3622">1</tspan></text>
    <text
       xml:space="preserve"
       style="font-size:72px;font-style:normal;font-weight:normal;line-height:125%;letter-spacing:0px;word-spacing:0px;fill:#000000;fill-opacity:1;stroke:none;font-family:Sans"
       x="-60"
       y="872.36218"
       id="text4957"
       sodipodi:linespacing="125%"><tspan
         sodipodi:role="line"
         id="tspan4959"
         x="-60"
         y="872.36218">2</tspan></text>
  </g>
</svg>
