<?xml version="1.0" encoding="UTF-8" standalone="no"?>
<!-- Created with Inkscape (http://www.inkscape.org/) -->

<svg
   xmlns:ns0="http://www.iki.fi/pav/software/textext/"
   xmlns:dc="http://purl.org/dc/elements/1.1/"
   xmlns:cc="http://creativecommons.org/ns#"
   xmlns:rdf="http://www.w3.org/1999/02/22-rdf-syntax-ns#"
   xmlns:svg="http://www.w3.org/2000/svg"
   xmlns="http://www.w3.org/2000/svg"
   xmlns:xlink="http://www.w3.org/1999/xlink"
   xmlns:sodipodi="http://sodipodi.sourceforge.net/DTD/sodipodi-0.dtd"
   xmlns:inkscape="http://www.inkscape.org/namespaces/inkscape"
   width="210mm"
   height="297mm"
   id="svg2"
   sodipodi:version="0.32"
   inkscape:version="0.48.3.1 r9886"
   sodipodi:docname="longcrbe.svg"
   inkscape:output_extension="org.inkscape.output.svg.inkscape"
   inkscape:export-filename="/home/francois/Dropbox-Perso/SIP_Perso/SIPB1_2012/FIGURE/longcrbe.png"
   inkscape:export-xdpi="90"
   inkscape:export-ydpi="90"
   version="1.1">
  <sodipodi:namedview
     id="base"
     pagecolor="#ffffff"
     bordercolor="#666666"
     borderopacity="1.0"
     inkscape:pageopacity="0.0"
     inkscape:pageshadow="2"
     inkscape:zoom="1.4"
     inkscape:cx="613.82898"
     inkscape:cy="127.16883"
     inkscape:document-units="px"
     inkscape:current-layer="layer1"
     showgrid="false"
     inkscape:window-width="1278"
     inkscape:window-height="954"
     inkscape:window-x="0"
     inkscape:window-y="26"
     inkscape:window-maximized="0">
    <inkscape:grid
       id="grid2383"
       type="xygrid" />
  </sodipodi:namedview>
  <defs
     id="defs4">
    <marker
       style="overflow:visible"
       id="Arrow1Lstart"
       refX="0.0"
       refY="0.0"
       orient="auto"
       inkscape:stockid="Arrow1Lstart">
      <path
         transform="scale(0.8) translate(12.5,0)"
         style="fill-rule:evenodd;stroke:#000000;stroke-width:1.0pt"
         d="M 0.0,0.0 L 5.0,-5.0 L -12.5,0.0 L 5.0,5.0 L 0.0,0.0 z "
         id="path4401" />
    </marker>
    <marker
       style="overflow:visible;"
       id="Arrow1Lend"
       refX="0.0"
       refY="0.0"
       orient="auto"
       inkscape:stockid="Arrow1Lend">
      <path
         transform="scale(0.8) rotate(180) translate(12.5,0)"
         style="fill-rule:evenodd;stroke:#000000;stroke-width:1.0pt;"
         d="M 0.0,0.0 L 5.0,-5.0 L -12.5,0.0 L 5.0,5.0 L 0.0,0.0 z "
         id="path4404" />
    </marker>
    <inkscape:perspective
       id="perspective10"
       inkscape:persp3d-origin="372.04724 : 350.78739 : 1"
       inkscape:vp_z="744.09448 : 526.18109 : 1"
       inkscape:vp_y="0 : 1000 : 0"
       inkscape:vp_x="0 : 526.18109 : 1"
       sodipodi:type="inkscape:persp3d" />
  </defs>
  <metadata
     id="metadata7">
    <rdf:RDF>
      <cc:Work
         rdf:about="">
        <dc:format>image/svg+xml</dc:format>
        <dc:type
           rdf:resource="http://purl.org/dc/dcmitype/StillImage" />
        <dc:title />
      </cc:Work>
    </rdf:RDF>
  </metadata>
  <g
     id="layer1"
     inkscape:groupmode="layer"
     inkscape:label="Calque 1">
    <path
       sodipodi:nodetypes="cccc"
       id="path2385"
       d="M -338.28571,850.07647 C -290.00484,685.04383 -207.13414,476.45987 -100.40754,459.09605 C 20.171649,440.60922 222.66215,218.9135 268.85714,272.93361 C 314.86341,323.06873 930.34945,1373.0288 982.12759,851.0773"
       style="fill:none;fill-rule:evenodd;stroke:#000000;stroke-width:3;stroke-linecap:butt;stroke-linejoin:miter;stroke-opacity:1;stroke-miterlimit:4;stroke-dasharray:none" />
    <path
       transform="matrix(1.9969555,0,0,2.9959408,460.35364,291.03617)"
       d="M -397.14286,187.36218 A 2.8571429,2.1428571 0 1 1 -402.85714,187.36218 A 2.8571429,2.1428571 0 1 1 -397.14286,187.36218 z"
       sodipodi:ry="2.1428571"
       sodipodi:rx="2.8571429"
       sodipodi:cy="187.36218"
       sodipodi:cx="-400"
       id="path2389"
       style="fill:#ff0000;fill-rule:evenodd;stroke:#000000;stroke-width:1px;stroke-linecap:butt;stroke-linejoin:miter;stroke-opacity:1"
       sodipodi:type="arc" />
    <path
       transform="matrix(1.9969555,0,0,2.9959408,578.06791,-1.5352543)"
       d="M -397.14286,187.36218 A 2.8571429,2.1428571 0 1 1 -402.85714,187.36218 A 2.8571429,2.1428571 0 1 1 -397.14286,187.36218 z"
       sodipodi:ry="2.1428571"
       sodipodi:rx="2.8571429"
       sodipodi:cy="187.36218"
       sodipodi:cx="-400"
       id="path2391"
       style="fill:#ff0000;fill-rule:evenodd;stroke:#000000;stroke-width:1px;stroke-linecap:butt;stroke-linejoin:miter;stroke-opacity:1"
       sodipodi:type="arc" />
    <path
       transform="matrix(1.9969555,0,0,2.9959408,700.7822,-101.24954)"
       d="M -397.14286,187.36218 A 2.8571429,2.1428571 0 1 1 -402.85714,187.36218 A 2.8571429,2.1428571 0 1 1 -397.14286,187.36218 z"
       sodipodi:ry="2.1428571"
       sodipodi:rx="2.8571429"
       sodipodi:cy="187.36218"
       sodipodi:cx="-400"
       id="path2393"
       style="fill:#ff0000;fill-rule:evenodd;stroke:#000000;stroke-width:1px;stroke-linecap:butt;stroke-linejoin:miter;stroke-opacity:1"
       sodipodi:type="arc" />
    <path
       transform="matrix(1.9969555,0,0,2.9959408,819.35363,-162.3924)"
       d="M -397.14286,187.36218 A 2.8571429,2.1428571 0 1 1 -402.85714,187.36218 A 2.8571429,2.1428571 0 1 1 -397.14286,187.36218 z"
       sodipodi:ry="2.1428571"
       sodipodi:rx="2.8571429"
       sodipodi:cy="187.36218"
       sodipodi:cx="-400"
       id="path2395"
       style="fill:#ff0000;fill-rule:evenodd;stroke:#000000;stroke-width:1px;stroke-linecap:butt;stroke-linejoin:miter;stroke-opacity:1"
       sodipodi:type="arc" />
    <path
       transform="matrix(1.9969555,0,0,2.9959408,934.35363,-239.67811)"
       d="M -397.14286,187.36218 A 2.8571429,2.1428571 0 1 1 -402.85714,187.36218 A 2.8571429,2.1428571 0 1 1 -397.14286,187.36218 z"
       sodipodi:ry="2.1428571"
       sodipodi:rx="2.8571429"
       sodipodi:cy="187.36218"
       sodipodi:cx="-400"
       id="path2397"
       style="fill:#ff0000;fill-rule:evenodd;stroke:#000000;stroke-width:1px;stroke-linecap:butt;stroke-linejoin:miter;stroke-opacity:1"
       sodipodi:type="arc" />
    <path
       transform="matrix(1.9969555,0,0,2.9959408,1056.4965,-294.10669)"
       d="M -397.14286,187.36218 A 2.8571429,2.1428571 0 1 1 -402.85714,187.36218 A 2.8571429,2.1428571 0 1 1 -397.14286,187.36218 z"
       sodipodi:ry="2.1428571"
       sodipodi:rx="2.8571429"
       sodipodi:cy="187.36218"
       sodipodi:cx="-400"
       id="path2399"
       style="fill:#ff0000;fill-rule:evenodd;stroke:#000000;stroke-width:1px;stroke-linecap:butt;stroke-linejoin:miter;stroke-opacity:1"
       sodipodi:type="arc" />
    <path
       transform="matrix(1.9969555,0,0,2.9959408,1167.925,-139.96382)"
       d="M -397.14286,187.36218 A 2.8571429,2.1428571 0 1 1 -402.85714,187.36218 A 2.8571429,2.1428571 0 1 1 -397.14286,187.36218 z"
       sodipodi:ry="2.1428571"
       sodipodi:rx="2.8571429"
       sodipodi:cy="187.36218"
       sodipodi:cx="-400"
       id="path2401"
       style="fill:#ff0000;fill-rule:evenodd;stroke:#000000;stroke-width:1px;stroke-linecap:butt;stroke-linejoin:miter;stroke-opacity:1"
       sodipodi:type="arc" />
    <path
       transform="matrix(1.9969555,0,0,2.9959408,1299.3536,51.6076)"
       d="M -397.14286,187.36218 A 2.8571429,2.1428571 0 1 1 -402.85714,187.36218 A 2.8571429,2.1428571 0 1 1 -397.14286,187.36218 z"
       sodipodi:ry="2.1428571"
       sodipodi:rx="2.8571429"
       sodipodi:cy="187.36218"
       sodipodi:cx="-400"
       id="path2403"
       style="fill:#ff0000;fill-rule:evenodd;stroke:#000000;stroke-width:1px;stroke-linecap:butt;stroke-linejoin:miter;stroke-opacity:1"
       sodipodi:type="arc" />
    <path
       transform="matrix(1.9969555,0,0,2.9959408,1419.3536,213.32188)"
       d="M -397.14286,187.36218 A 2.8571429,2.1428571 0 1 1 -402.85714,187.36218 A 2.8571429,2.1428571 0 1 1 -397.14286,187.36218 z"
       sodipodi:ry="2.1428571"
       sodipodi:rx="2.8571429"
       sodipodi:cy="187.36218"
       sodipodi:cx="-400"
       id="path2405"
       style="fill:#ff0000;fill-rule:evenodd;stroke:#000000;stroke-width:1px;stroke-linecap:butt;stroke-linejoin:miter;stroke-opacity:1"
       sodipodi:type="arc" />
    <path
       transform="matrix(1.9969555,0,0,2.9959408,1540.2108,347.03617)"
       d="M -397.14286,187.36218 A 2.8571429,2.1428571 0 1 1 -402.85714,187.36218 A 2.8571429,2.1428571 0 1 1 -397.14286,187.36218 z"
       sodipodi:ry="2.1428571"
       sodipodi:rx="2.8571429"
       sodipodi:cy="187.36218"
       sodipodi:cx="-400"
       id="path2407"
       style="fill:#ff0000;fill-rule:evenodd;stroke:#000000;stroke-width:1px;stroke-linecap:butt;stroke-linejoin:miter;stroke-opacity:1"
       sodipodi:type="arc" />
    <path
       transform="matrix(1.9969555,0,0,2.9959408,1662.7822,431.6076)"
       d="M -397.14286,187.36218 A 2.8571429,2.1428571 0 1 1 -402.85714,187.36218 A 2.8571429,2.1428571 0 1 1 -397.14286,187.36218 z"
       sodipodi:ry="2.1428571"
       sodipodi:rx="2.8571429"
       sodipodi:cy="187.36218"
       sodipodi:cx="-400"
       id="path2409"
       style="fill:#ff0000;fill-rule:evenodd;stroke:#000000;stroke-width:1px;stroke-linecap:butt;stroke-linejoin:miter;stroke-opacity:1"
       sodipodi:type="arc" />
    <path
       transform="matrix(1.9969555,0,0,2.9959408,1780.7822,289.6076)"
       d="M -397.14286,187.36218 A 2.8571429,2.1428571 0 1 1 -402.85714,187.36218 A 2.8571429,2.1428571 0 1 1 -397.14286,187.36218 z"
       sodipodi:ry="2.1428571"
       sodipodi:rx="2.8571429"
       sodipodi:cy="187.36218"
       sodipodi:cx="-400"
       id="path2411"
       style="fill:#ff0000;fill-rule:evenodd;stroke:#000000;stroke-width:1px;stroke-linecap:butt;stroke-linejoin:miter;stroke-opacity:1"
       sodipodi:type="arc" />
    <path
       inkscape:connector-curvature="0"
       inkscape:connection-end-point="d4"
       inkscape:connection-start-point="d4"
       inkscape:connection-end="#path2391"
       inkscape:connection-start="#path2389"
       inkscape:connector-type="polyline"
       id="path2449"
       d="M -336.07489,846.51227 -223.06796,565.64066"
       style="fill:none;stroke:#ff0000;stroke-width:3;stroke-linecap:butt;stroke-linejoin:miter;stroke-miterlimit:4;stroke-opacity:1;stroke-dasharray:none" />
    <path
       inkscape:connector-curvature="0"
       inkscape:connection-end-point="d4"
       inkscape:connection-start-point="d4"
       inkscape:connection-end="#path2393"
       inkscape:connection-start="#path2391"
       inkscape:connector-type="polyline"
       id="path2451"
       d="m -216.08842,556.0319 113.46255,-92.19658"
       style="fill:none;stroke:#ff0000;stroke-width:3;stroke-linecap:butt;stroke-linejoin:miter;stroke-miterlimit:4;stroke-opacity:1;stroke-dasharray:none" />
    <path
       inkscape:connector-curvature="0"
       inkscape:connection-end-point="d4"
       inkscape:connection-start-point="d4"
       inkscape:connection-end="#path2395"
       inkscape:connection-start="#path2393"
       inkscape:connector-type="polyline"
       id="path2453"
       d="M -92.811906,457.40116 15.383336,401.60891"
       style="fill:none;stroke:#ff0000;stroke-width:3;stroke-linecap:butt;stroke-linejoin:miter;stroke-miterlimit:4;stroke-opacity:1;stroke-dasharray:none" />
    <path
       inkscape:connector-curvature="0"
       inkscape:connection-end-point="d4"
       inkscape:connection-start-point="d4"
       inkscape:connection-start="#path2395"
       inkscape:connection-end="#path2397"
       inkscape:connector-type="polyline"
       id="path2455"
       d="M 25.470554,395.64115 130.67231,324.94035"
       style="fill:none;stroke:#ff0000;stroke-width:3;stroke-linecap:butt;stroke-linejoin:miter;stroke-miterlimit:4;stroke-opacity:1;stroke-dasharray:none;display:inline" />
    <path
       inkscape:connector-curvature="0"
       inkscape:connection-end-point="d4"
       inkscape:connection-start-point="d4"
       inkscape:connection-end="#path2399"
       inkscape:connection-start="#path2397"
       inkscape:connector-type="polyline"
       id="path2457"
       d="M 140.87757,319.2834 252.40816,269.58381"
       style="fill:none;stroke:#ff0000;stroke-width:3;stroke-linecap:butt;stroke-linejoin:miter;stroke-miterlimit:4;stroke-opacity:1;stroke-dasharray:none" />
    <path
       inkscape:connector-curvature="0"
       inkscape:connection-end-point="d4"
       inkscape:connection-start-point="d4"
       inkscape:connection-end="#path2399"
       inkscape:connection-start="#path2399"
       inkscape:connector-type="polyline"
       id="path2459"
       d="m 257.7143,267.21932 0,0"
       style="fill:none;stroke:#000000;stroke-width:1px;stroke-linecap:butt;stroke-linejoin:miter;stroke-opacity:1" />
    <path
       inkscape:connector-curvature="0"
       inkscape:connection-end-point="d4"
       inkscape:connection-start-point="d4"
       inkscape:connection-start="#path2399"
       inkscape:connection-end="#path2401"
       inkscape:connector-type="polyline"
       id="path2461"
       d="M 261.31469,272.19986 365.54241,416.38165"
       style="fill:none;stroke:#ff0000;stroke-width:3;stroke-linecap:butt;stroke-linejoin:miter;stroke-miterlimit:4;stroke-opacity:1;stroke-dasharray:none;display:inline" />
    <path
       inkscape:connection-start="#path2401"
       inkscape:connection-start-point="d4"
       inkscape:connection-end="#path2403"
       inkscape:connection-end-point="d4"
       inkscape:connector-curvature="0"
       inkscape:connector-type="polyline"
       id="path2463"
       d="M 372.62942,426.44431 497.08478,607.85149"
       style="fill:none;stroke:#ff0000;stroke-width:3;stroke-linecap:butt;stroke-linejoin:miter;stroke-miterlimit:4;stroke-opacity:1;stroke-dasharray:none" />
    <path
       inkscape:connector-curvature="0"
       inkscape:connection-end-point="d4"
       inkscape:connection-start-point="d4"
       inkscape:connection-start="#path2403"
       inkscape:connection-end="#path2405"
       inkscape:connector-type="polyline"
       id="path2465"
       d="M 504.22829,617.8617 616.91451,769.7198"
       style="fill:none;stroke:#ff0000;stroke-width:3;stroke-linecap:butt;stroke-linejoin:miter;stroke-miterlimit:4;stroke-opacity:1;stroke-dasharray:none" />
    <path
       inkscape:connector-curvature="0"
       inkscape:connection-end-point="d4"
       inkscape:connection-start-point="d4"
       inkscape:connection-end="#path2407"
       inkscape:connection-start="#path2405"
       inkscape:connector-type="polyline"
       id="path2467"
       d="M 624.63972,779.149 737.36028,903.86106"
       style="fill:none;stroke:#ff0000;stroke-width:3;stroke-linecap:butt;stroke-linejoin:miter;stroke-miterlimit:4;stroke-opacity:1;stroke-dasharray:none" />
    <path
       inkscape:connector-curvature="0"
       inkscape:connection-end-point="d4"
       inkscape:connection-start-point="d4"
       inkscape:connection-end="#path2409"
       inkscape:connection-start="#path2407"
       inkscape:connector-type="polyline"
       id="path2469"
       d="m 746.29322,911.71865 112.84216,77.85848"
       style="fill:none;stroke:#ff0000;stroke-width:3;stroke-linecap:butt;stroke-linejoin:miter;stroke-miterlimit:4;stroke-opacity:1;stroke-dasharray:none;display:inline" />
    <path
       inkscape:connector-curvature="0"
       inkscape:connection-end-point="d4"
       inkscape:connection-start-point="d4"
       inkscape:connection-end="#path2409"
       inkscape:connection-start="#path2409"
       inkscape:connector-type="polyline"
       id="path2471"
       d="m 864,992.93361 0,0"
       style="fill:none;stroke:#000000;stroke-width:1px;stroke-linecap:butt;stroke-linejoin:miter;stroke-opacity:1" />
    <path
       inkscape:connector-curvature="0"
       inkscape:connector-type="polyline"
       id="path2473"
       d="m 860.1258,991.33042 129.83105,38.03388"
       style="fill:none;stroke:#ff0000;stroke-width:1.74375546;stroke-linecap:butt;stroke-linejoin:miter;stroke-miterlimit:4;stroke-opacity:1;stroke-dasharray:none" />
    <g
       ns0:text="$C$"
       ns0:preamble="/home/francois/Documents/Mypapers/InkscapeHeader/header.inc"
       transform="matrix(8,0,0,8,-2008.1832,-604.07122)"
       id="g3930">
      <defs
         id="defs3932">
        <g
           id="g3934">
          <symbol
             style="overflow:visible"
             overflow="visible"
             id="textext-8e483f96-0">
            <path
               inkscape:connector-curvature="0"
               style="stroke:none"
               d="m 7.578125,-6.921875 c 0,-0.03125 -0.015625,-0.109375 -0.109375,-0.109375 -0.03125,0 -0.046875,0.015625 -0.15625,0.125 L 6.625,-6.140625 C 6.53125,-6.28125 6.078125,-7.03125 4.96875,-7.03125 2.734375,-7.03125 0.5,-4.828125 0.5,-2.515625 0.5,-0.875 1.671875,0.21875 3.203125,0.21875 c 0.859375,0 1.625,-0.390625 2.15625,-0.859375 0.921875,-0.8125 1.09375,-1.71875 1.09375,-1.75 C 6.453125,-2.5 6.34375,-2.5 6.328125,-2.5 c -0.0625,0 -0.109375,0.03125 -0.125,0.109375 -0.09375,0.28125 -0.328125,1 -1.015625,1.578125 -0.6875,0.546875 -1.3125,0.71875 -1.828125,0.71875 -0.890625,0 -1.953125,-0.515625 -1.953125,-2.0625 0,-0.578125 0.203125,-2.1875 1.203125,-3.359375 0.609375,-0.703125 1.546875,-1.203125 2.4375,-1.203125 1.015625,0 1.609375,0.765625 1.609375,1.921875 0,0.40625 -0.03125,0.40625 -0.03125,0.515625 0,0.09375 0.109375,0.09375 0.140625,0.09375 0.125,0 0.125,-0.015625 0.1875,-0.203125 z m 0,0"
               id="path3937" />
          </symbol>
        </g>
      </defs>
      <g
         id="textext-8e483f96-1">
        <g
           style="fill:#000000;fill-opacity:1"
           id="g3940">
          <use
             height="1052.3622"
             width="744.09448"
             xlink:href="#textext-8e483f96-0"
             x="223.43201"
             y="134.765"
             id="use3942" />
        </g>
      </g>
    </g>
    <g
       id="g4040"
       transform="matrix(6.9419709,0,0,6.5835733,-1500.5053,-364.95482)"
       ns0:preamble="/home/francois/Documents/Mypapers/InkscapeHeader/header.inc"
       ns0:text="$C(p)$">
      <defs
         id="defs4042">
        <g
           id="g4044">
          <symbol
             id="textext-a1910503-0"
             overflow="visible"
             style="overflow:visible">
            <path
               id="path4047"
               d="m 7.578125,-6.921875 c 0,-0.03125 -0.015625,-0.109375 -0.109375,-0.109375 -0.03125,0 -0.046875,0.015625 -0.15625,0.125 L 6.625,-6.140625 C 6.53125,-6.28125 6.078125,-7.03125 4.96875,-7.03125 2.734375,-7.03125 0.5,-4.828125 0.5,-2.515625 0.5,-0.875 1.671875,0.21875 3.203125,0.21875 c 0.859375,0 1.625,-0.390625 2.15625,-0.859375 0.921875,-0.8125 1.09375,-1.71875 1.09375,-1.75 C 6.453125,-2.5 6.34375,-2.5 6.328125,-2.5 c -0.0625,0 -0.109375,0.03125 -0.125,0.109375 -0.09375,0.28125 -0.328125,1 -1.015625,1.578125 -0.6875,0.546875 -1.3125,0.71875 -1.828125,0.71875 -0.890625,0 -1.953125,-0.515625 -1.953125,-2.0625 0,-0.578125 0.203125,-2.1875 1.203125,-3.359375 0.609375,-0.703125 1.546875,-1.203125 2.4375,-1.203125 1.015625,0 1.609375,0.765625 1.609375,1.921875 0,0.40625 -0.03125,0.40625 -0.03125,0.515625 0,0.09375 0.109375,0.09375 0.140625,0.09375 0.125,0 0.125,-0.015625 0.1875,-0.203125 z m 0,0"
               style="stroke:none"
               inkscape:connector-curvature="0" />
          </symbol>
          <symbol
             id="textext-a1910503-1"
             overflow="visible"
             style="overflow:visible">
            <path
               id="path4050"
               d="M 0.453125,1.21875 C 0.375,1.5625 0.34375,1.625 -0.09375,1.625 c -0.109375,0 -0.21875,0 -0.21875,0.1875 0,0.078125 0.046875,0.125 0.125,0.125 0.265625,0 0.5625,-0.03125 0.828125,-0.03125 0.34375,0 0.671875,0.03125 1,0.03125 0.046875,0 0.171875,0 0.171875,-0.203125 C 1.8125,1.625 1.71875,1.625 1.578125,1.625 c -0.5,0 -0.5,-0.0625 -0.5,-0.15625 0,-0.125 0.421875,-1.75 0.484375,-2 0.125,0.296875 0.40625,0.640625 0.921875,0.640625 1.15625,0 2.40625,-1.453125 2.40625,-2.921875 0,-0.9375 -0.578125,-1.59375 -1.328125,-1.59375 -0.5,0 -0.984375,0.359375 -1.3125,0.75 -0.09375,-0.546875 -0.53125,-0.75 -0.890625,-0.75 -0.46875,0 -0.65625,0.390625 -0.734375,0.5625 C 0.4375,-3.5 0.3125,-2.90625 0.3125,-2.875 c 0,0.109375 0.09375,0.109375 0.109375,0.109375 0.109375,0 0.109375,-0.015625 0.171875,-0.234375 0.171875,-0.703125 0.375,-1.1875 0.734375,-1.1875 0.171875,0 0.3125,0.078125 0.3125,0.453125 0,0.234375 -0.03125,0.34375 -0.078125,0.515625 z m 1.75,-4.328125 C 2.265625,-3.375 2.546875,-3.65625 2.71875,-3.8125 c 0.359375,-0.296875 0.640625,-0.375 0.8125,-0.375 0.390625,0 0.640625,0.34375 0.640625,0.9375 0,0.59375 -0.328125,1.734375 -0.515625,2.109375 -0.34375,0.703125 -0.8125,1.03125 -1.1875,1.03125 C 1.8125,-0.109375 1.6875,-0.9375 1.6875,-1 c 0,-0.015625 0,-0.03125 0.03125,-0.15625 z m 0,0"
               style="stroke:none"
               inkscape:connector-curvature="0" />
          </symbol>
          <symbol
             id="textext-a1910503-2"
             overflow="visible"
             style="overflow:visible">
            <path
               id="path4053"
               d="m 3.296875,2.390625 c 0,-0.03125 0,-0.046875 -0.171875,-0.21875 C 1.890625,0.921875 1.5625,-0.96875 1.5625,-2.5 c 0,-1.734375 0.375,-3.46875 1.609375,-4.703125 0.125,-0.125 0.125,-0.140625 0.125,-0.171875 0,-0.078125 -0.03125,-0.109375 -0.09375,-0.109375 -0.109375,0 -1,0.6875 -1.59375,1.953125 -0.5,1.09375 -0.625,2.203125 -0.625,3.03125 0,0.78125 0.109375,1.984375 0.65625,3.125 C 2.25,1.84375 3.09375,2.5 3.203125,2.5 c 0.0625,0 0.09375,-0.03125 0.09375,-0.109375 z m 0,0"
               style="stroke:none"
               inkscape:connector-curvature="0" />
          </symbol>
          <symbol
             id="textext-a1910503-3"
             overflow="visible"
             style="overflow:visible">
            <path
               id="path4056"
               d="m 2.875,-2.5 c 0,-0.765625 -0.109375,-1.96875 -0.65625,-3.109375 -0.59375,-1.21875 -1.453125,-1.875 -1.546875,-1.875 -0.0625,0 -0.109375,0.046875 -0.109375,0.109375 0,0.03125 0,0.046875 0.1875,0.234375 0.984375,0.984375 1.546875,2.5625 1.546875,4.640625 0,1.71875 -0.359375,3.46875 -1.59375,4.71875 C 0.5625,2.34375 0.5625,2.359375 0.5625,2.390625 0.5625,2.453125 0.609375,2.5 0.671875,2.5 0.765625,2.5 1.671875,1.8125 2.25,0.546875 2.765625,-0.546875 2.875,-1.65625 2.875,-2.5 z m 0,0"
               style="stroke:none"
               inkscape:connector-curvature="0" />
          </symbol>
        </g>
      </defs>
      <g
         id="textext-a1910503-4">
        <g
           id="g4059"
           style="fill:#000000;fill-opacity:1">
          <use
             id="use4061"
             y="134.765"
             x="223.43201"
             xlink:href="#textext-a1910503-0"
             width="744.09448"
             height="1052.3622" />
        </g>
        <g
           id="g4063"
           style="fill:#000000;fill-opacity:1">
          <use
             id="use4065"
             y="134.765"
             x="231.265"
             xlink:href="#textext-a1910503-2"
             width="744.09448"
             height="1052.3622" />
        </g>
        <g
           id="g4067"
           style="fill:#000000;fill-opacity:1">
          <use
             id="use4069"
             y="134.765"
             x="235.14"
             xlink:href="#textext-a1910503-1"
             width="744.09448"
             height="1052.3622" />
        </g>
        <g
           id="g4071"
           style="fill:#000000;fill-opacity:1">
          <use
             id="use4073"
             y="134.765"
             x="240.15199"
             xlink:href="#textext-a1910503-3"
             width="744.09448"
             height="1052.3622" />
        </g>
      </g>
    </g>
    <path
       inkscape:connector-curvature="0"
       id="path4395"
       d="M 664.68037,415.96608 C 438.4062,500.81889 438.4062,500.81889 438.4062,500.81889"
       style="fill:none;stroke:#ff0000;stroke-width:3;stroke-linecap:butt;stroke-linejoin:miter;stroke-miterlimit:4;stroke-opacity:1;stroke-dasharray:none;marker-end:url(#Arrow1Lend)" />
    <path
       inkscape:connector-curvature="0"
       id="path4841"
       d="M 354.98853,431.56988 C 198.57592,504.7512 198.57592,504.7512 198.57592,504.7512"
       style="fill:none;stroke:#000000;stroke-width:3;stroke-linecap:butt;stroke-linejoin:miter;stroke-miterlimit:4;stroke-opacity:1;stroke-dasharray:none;marker-start:url(#Arrow1Lstart)" />
    <g
       ns0:text="$C(p+dp)$"
       ns0:preamble="/home/francois/Documents/Mypapers/InkscapeHeader/header.inc"
       transform="matrix(6.9419709,0,0,6.5835733,-1340.292,-149.81784)"
       id="g3253">
      <defs
         id="defs3255">
        <g
           id="g3257">
          <symbol
             overflow="visible"
             id="textext-e46d8187-0"
             style="overflow:visible">
            <path
               style="stroke:none"
               d="m 7.578125,-6.921875 c 0,-0.03125 -0.015625,-0.109375 -0.109375,-0.109375 -0.03125,0 -0.046875,0.015625 -0.15625,0.125 L 6.625,-6.140625 C 6.53125,-6.28125 6.078125,-7.03125 4.96875,-7.03125 2.734375,-7.03125 0.5,-4.828125 0.5,-2.515625 0.5,-0.875 1.671875,0.21875 3.203125,0.21875 c 0.859375,0 1.625,-0.390625 2.15625,-0.859375 0.921875,-0.8125 1.09375,-1.71875 1.09375,-1.75 C 6.453125,-2.5 6.34375,-2.5 6.328125,-2.5 c -0.0625,0 -0.109375,0.03125 -0.125,0.109375 -0.09375,0.28125 -0.328125,1 -1.015625,1.578125 -0.6875,0.546875 -1.3125,0.71875 -1.828125,0.71875 -0.890625,0 -1.953125,-0.515625 -1.953125,-2.0625 0,-0.578125 0.203125,-2.1875 1.203125,-3.359375 0.609375,-0.703125 1.546875,-1.203125 2.4375,-1.203125 1.015625,0 1.609375,0.765625 1.609375,1.921875 0,0.40625 -0.03125,0.40625 -0.03125,0.515625 0,0.09375 0.109375,0.09375 0.140625,0.09375 0.125,0 0.125,-0.015625 0.1875,-0.203125 z m 0,0"
               id="path3260"
               inkscape:connector-curvature="0" />
          </symbol>
          <symbol
             overflow="visible"
             id="textext-e46d8187-1"
             style="overflow:visible">
            <path
               style="stroke:none"
               d="M 0.453125,1.21875 C 0.375,1.5625 0.34375,1.625 -0.09375,1.625 c -0.109375,0 -0.21875,0 -0.21875,0.1875 0,0.078125 0.046875,0.125 0.125,0.125 0.265625,0 0.5625,-0.03125 0.828125,-0.03125 0.34375,0 0.671875,0.03125 1,0.03125 0.046875,0 0.171875,0 0.171875,-0.203125 C 1.8125,1.625 1.71875,1.625 1.578125,1.625 c -0.5,0 -0.5,-0.0625 -0.5,-0.15625 0,-0.125 0.421875,-1.75 0.484375,-2 0.125,0.296875 0.40625,0.640625 0.921875,0.640625 1.15625,0 2.40625,-1.453125 2.40625,-2.921875 0,-0.9375 -0.578125,-1.59375 -1.328125,-1.59375 -0.5,0 -0.984375,0.359375 -1.3125,0.75 -0.09375,-0.546875 -0.53125,-0.75 -0.890625,-0.75 -0.46875,0 -0.65625,0.390625 -0.734375,0.5625 C 0.4375,-3.5 0.3125,-2.90625 0.3125,-2.875 c 0,0.109375 0.09375,0.109375 0.109375,0.109375 0.109375,0 0.109375,-0.015625 0.171875,-0.234375 0.171875,-0.703125 0.375,-1.1875 0.734375,-1.1875 0.171875,0 0.3125,0.078125 0.3125,0.453125 0,0.234375 -0.03125,0.34375 -0.078125,0.515625 z m 1.75,-4.328125 C 2.265625,-3.375 2.546875,-3.65625 2.71875,-3.8125 c 0.359375,-0.296875 0.640625,-0.375 0.8125,-0.375 0.390625,0 0.640625,0.34375 0.640625,0.9375 0,0.59375 -0.328125,1.734375 -0.515625,2.109375 -0.34375,0.703125 -0.8125,1.03125 -1.1875,1.03125 C 1.8125,-0.109375 1.6875,-0.9375 1.6875,-1 c 0,-0.015625 0,-0.03125 0.03125,-0.15625 z m 0,0"
               id="path3263"
               inkscape:connector-curvature="0" />
          </symbol>
          <symbol
             overflow="visible"
             id="textext-e46d8187-2"
             style="overflow:visible">
            <path
               style="stroke:none"
               d="m 5.140625,-6.8125 c 0,0 0,-0.109375 -0.125,-0.109375 -0.15625,0 -1.09375,0.09375 -1.265625,0.109375 -0.078125,0.015625 -0.140625,0.0625 -0.140625,0.1875 0,0.125 0.09375,0.125 0.234375,0.125 0.484375,0 0.5,0.0625 0.5,0.171875 L 4.3125,-6.125 3.71875,-3.765625 C 3.53125,-4.140625 3.25,-4.40625 2.796875,-4.40625 c -1.15625,0 -2.390625,1.46875 -2.390625,2.921875 0,0.9375 0.546875,1.59375 1.3125,1.59375 0.203125,0 0.703125,-0.046875 1.296875,-0.75 0.078125,0.421875 0.4375,0.75 0.90625,0.75 0.359375,0 0.578125,-0.234375 0.75,-0.546875 0.15625,-0.359375 0.296875,-0.96875 0.296875,-0.984375 0,-0.109375 -0.09375,-0.109375 -0.125,-0.109375 -0.09375,0 -0.109375,0.046875 -0.140625,0.1875 -0.171875,0.640625 -0.34375,1.234375 -0.75,1.234375 -0.28125,0 -0.296875,-0.265625 -0.296875,-0.453125 0,-0.25 0.015625,-0.3125 0.046875,-0.484375 z m -2.0625,5.625 C 3.015625,-1 3.015625,-0.984375 2.875,-0.8125 2.4375,-0.265625 2.03125,-0.109375 1.75,-0.109375 c -0.5,0 -0.640625,-0.546875 -0.640625,-0.9375 0,-0.5 0.3125,-1.71875 0.546875,-2.1875 0.3125,-0.578125 0.75,-0.953125 1.15625,-0.953125 0.640625,0 0.78125,0.8125 0.78125,0.875 0,0.0625 -0.015625,0.125 -0.03125,0.171875 z m 0,0"
               id="path3266"
               inkscape:connector-curvature="0" />
          </symbol>
          <symbol
             overflow="visible"
             id="textext-e46d8187-3"
             style="overflow:visible">
            <path
               style="stroke:none"
               d="m 3.296875,2.390625 c 0,-0.03125 0,-0.046875 -0.171875,-0.21875 C 1.890625,0.921875 1.5625,-0.96875 1.5625,-2.5 c 0,-1.734375 0.375,-3.46875 1.609375,-4.703125 0.125,-0.125 0.125,-0.140625 0.125,-0.171875 0,-0.078125 -0.03125,-0.109375 -0.09375,-0.109375 -0.109375,0 -1,0.6875 -1.59375,1.953125 -0.5,1.09375 -0.625,2.203125 -0.625,3.03125 0,0.78125 0.109375,1.984375 0.65625,3.125 C 2.25,1.84375 3.09375,2.5 3.203125,2.5 c 0.0625,0 0.09375,-0.03125 0.09375,-0.109375 z m 0,0"
               id="path3269"
               inkscape:connector-curvature="0" />
          </symbol>
          <symbol
             overflow="visible"
             id="textext-e46d8187-4"
             style="overflow:visible">
            <path
               style="stroke:none"
               d="m 4.078125,-2.296875 2.78125,0 C 7,-2.296875 7.1875,-2.296875 7.1875,-2.5 7.1875,-2.6875 7,-2.6875 6.859375,-2.6875 l -2.78125,0 0,-2.796875 c 0,-0.140625 0,-0.328125 -0.203125,-0.328125 -0.203125,0 -0.203125,0.1875 -0.203125,0.328125 l 0,2.796875 -2.78125,0 c -0.140625,0 -0.328125,0 -0.328125,0.1875 0,0.203125 0.1875,0.203125 0.328125,0.203125 l 2.78125,0 0,2.796875 c 0,0.140625 0,0.328125 0.203125,0.328125 0.203125,0 0.203125,-0.1875 0.203125,-0.328125 z m 0,0"
               id="path3272"
               inkscape:connector-curvature="0" />
          </symbol>
          <symbol
             overflow="visible"
             id="textext-e46d8187-5"
             style="overflow:visible">
            <path
               style="stroke:none"
               d="m 2.875,-2.5 c 0,-0.765625 -0.109375,-1.96875 -0.65625,-3.109375 -0.59375,-1.21875 -1.453125,-1.875 -1.546875,-1.875 -0.0625,0 -0.109375,0.046875 -0.109375,0.109375 0,0.03125 0,0.046875 0.1875,0.234375 0.984375,0.984375 1.546875,2.5625 1.546875,4.640625 0,1.71875 -0.359375,3.46875 -1.59375,4.71875 C 0.5625,2.34375 0.5625,2.359375 0.5625,2.390625 0.5625,2.453125 0.609375,2.5 0.671875,2.5 0.765625,2.5 1.671875,1.8125 2.25,0.546875 2.765625,-0.546875 2.875,-1.65625 2.875,-2.5 z m 0,0"
               id="path3275"
               inkscape:connector-curvature="0" />
          </symbol>
        </g>
      </defs>
      <g
         id="textext-e46d8187-6">
        <g
           style="fill:#000000;fill-opacity:1"
           id="g3278">
          <use
             xlink:href="#textext-e46d8187-0"
             x="223.43201"
             y="134.765"
             id="use3280"
             width="744.09448"
             height="1052.3622" />
        </g>
        <g
           style="fill:#000000;fill-opacity:1"
           id="g3282">
          <use
             xlink:href="#textext-e46d8187-3"
             x="231.265"
             y="134.765"
             id="use3284"
             width="744.09448"
             height="1052.3622" />
        </g>
        <g
           style="fill:#000000;fill-opacity:1"
           id="g3286">
          <use
             xlink:href="#textext-e46d8187-1"
             x="235.14"
             y="134.765"
             id="use3288"
             width="744.09448"
             height="1052.3622" />
        </g>
        <g
           style="fill:#000000;fill-opacity:1"
           id="g3290">
          <use
             xlink:href="#textext-e46d8187-4"
             x="242.366"
             y="134.765"
             id="use3292"
             width="744.09448"
             height="1052.3622" />
        </g>
        <g
           style="fill:#000000;fill-opacity:1"
           id="g3294">
          <use
             xlink:href="#textext-e46d8187-2"
             x="252.32899"
             y="134.765"
             id="use3296"
             width="744.09448"
             height="1052.3622" />
          <use
             xlink:href="#textext-e46d8187-1"
             x="257.51453"
             y="134.765"
             id="use3298"
             width="744.09448"
             height="1052.3622" />
        </g>
        <g
           style="fill:#000000;fill-opacity:1"
           id="g3300">
          <use
             xlink:href="#textext-e46d8187-5"
             x="262.526"
             y="134.765"
             id="use3302"
             width="744.09448"
             height="1052.3622" />
        </g>
      </g>
    </g>
    <path
       inkscape:connector-curvature="0"
       id="path3434"
       d="m 393.95949,684.66666 c 2.0203,-8.08122 94.95434,-58.58885 94.95434,-58.58885"
       style="fill:none;stroke:#000000;stroke-width:3;stroke-linecap:butt;stroke-linejoin:miter;stroke-opacity:1;stroke-miterlimit:4;stroke-dasharray:none;marker-end:url(#Arrow1Lend)" />
    <g
       id="g4497"
       transform="matrix(6.9419709,0,0,6.5835733,-1104.5255,-494.25435)"
       ns0:preamble="/home/francois/Documents/Mypapers/InkscapeHeader/header.inc"
       ns0:text="\\color{red}\n$C(p)+ C\'(p)dp$">
      <defs
         id="defs4499">
        <g
           id="g4501">
          <symbol
             id="textext-e3f2af88-0"
             overflow="visible"
             style="overflow:visible">
            <path
               id="path4504"
               d="m 7.578125,-6.921875 c 0,-0.03125 -0.015625,-0.109375 -0.109375,-0.109375 -0.03125,0 -0.046875,0.015625 -0.15625,0.125 L 6.625,-6.140625 C 6.53125,-6.28125 6.078125,-7.03125 4.96875,-7.03125 2.734375,-7.03125 0.5,-4.828125 0.5,-2.515625 0.5,-0.875 1.671875,0.21875 3.203125,0.21875 c 0.859375,0 1.625,-0.390625 2.15625,-0.859375 0.921875,-0.8125 1.09375,-1.71875 1.09375,-1.75 C 6.453125,-2.5 6.34375,-2.5 6.328125,-2.5 c -0.0625,0 -0.109375,0.03125 -0.125,0.109375 -0.09375,0.28125 -0.328125,1 -1.015625,1.578125 -0.6875,0.546875 -1.3125,0.71875 -1.828125,0.71875 -0.890625,0 -1.953125,-0.515625 -1.953125,-2.0625 0,-0.578125 0.203125,-2.1875 1.203125,-3.359375 0.609375,-0.703125 1.546875,-1.203125 2.4375,-1.203125 1.015625,0 1.609375,0.765625 1.609375,1.921875 0,0.40625 -0.03125,0.40625 -0.03125,0.515625 0,0.09375 0.109375,0.09375 0.140625,0.09375 0.125,0 0.125,-0.015625 0.1875,-0.203125 z m 0,0"
               style="stroke:none"
               inkscape:connector-curvature="0" />
          </symbol>
          <symbol
             id="textext-e3f2af88-1"
             overflow="visible"
             style="overflow:visible">
            <path
               id="path4507"
               d="M 0.453125,1.21875 C 0.375,1.5625 0.34375,1.625 -0.09375,1.625 c -0.109375,0 -0.21875,0 -0.21875,0.1875 0,0.078125 0.046875,0.125 0.125,0.125 0.265625,0 0.5625,-0.03125 0.828125,-0.03125 0.34375,0 0.671875,0.03125 1,0.03125 0.046875,0 0.171875,0 0.171875,-0.203125 C 1.8125,1.625 1.71875,1.625 1.578125,1.625 c -0.5,0 -0.5,-0.0625 -0.5,-0.15625 0,-0.125 0.421875,-1.75 0.484375,-2 0.125,0.296875 0.40625,0.640625 0.921875,0.640625 1.15625,0 2.40625,-1.453125 2.40625,-2.921875 0,-0.9375 -0.578125,-1.59375 -1.328125,-1.59375 -0.5,0 -0.984375,0.359375 -1.3125,0.75 -0.09375,-0.546875 -0.53125,-0.75 -0.890625,-0.75 -0.46875,0 -0.65625,0.390625 -0.734375,0.5625 C 0.4375,-3.5 0.3125,-2.90625 0.3125,-2.875 c 0,0.109375 0.09375,0.109375 0.109375,0.109375 0.109375,0 0.109375,-0.015625 0.171875,-0.234375 0.171875,-0.703125 0.375,-1.1875 0.734375,-1.1875 0.171875,0 0.3125,0.078125 0.3125,0.453125 0,0.234375 -0.03125,0.34375 -0.078125,0.515625 z m 1.75,-4.328125 C 2.265625,-3.375 2.546875,-3.65625 2.71875,-3.8125 c 0.359375,-0.296875 0.640625,-0.375 0.8125,-0.375 0.390625,0 0.640625,0.34375 0.640625,0.9375 0,0.59375 -0.328125,1.734375 -0.515625,2.109375 -0.34375,0.703125 -0.8125,1.03125 -1.1875,1.03125 C 1.8125,-0.109375 1.6875,-0.9375 1.6875,-1 c 0,-0.015625 0,-0.03125 0.03125,-0.15625 z m 0,0"
               style="stroke:none"
               inkscape:connector-curvature="0" />
          </symbol>
          <symbol
             id="textext-e3f2af88-2"
             overflow="visible"
             style="overflow:visible">
            <path
               id="path4510"
               d="m 5.140625,-6.8125 c 0,0 0,-0.109375 -0.125,-0.109375 -0.15625,0 -1.09375,0.09375 -1.265625,0.109375 -0.078125,0.015625 -0.140625,0.0625 -0.140625,0.1875 0,0.125 0.09375,0.125 0.234375,0.125 0.484375,0 0.5,0.0625 0.5,0.171875 L 4.3125,-6.125 3.71875,-3.765625 C 3.53125,-4.140625 3.25,-4.40625 2.796875,-4.40625 c -1.15625,0 -2.390625,1.46875 -2.390625,2.921875 0,0.9375 0.546875,1.59375 1.3125,1.59375 0.203125,0 0.703125,-0.046875 1.296875,-0.75 0.078125,0.421875 0.4375,0.75 0.90625,0.75 0.359375,0 0.578125,-0.234375 0.75,-0.546875 0.15625,-0.359375 0.296875,-0.96875 0.296875,-0.984375 0,-0.109375 -0.09375,-0.109375 -0.125,-0.109375 -0.09375,0 -0.109375,0.046875 -0.140625,0.1875 -0.171875,0.640625 -0.34375,1.234375 -0.75,1.234375 -0.28125,0 -0.296875,-0.265625 -0.296875,-0.453125 0,-0.25 0.015625,-0.3125 0.046875,-0.484375 z m -2.0625,5.625 C 3.015625,-1 3.015625,-0.984375 2.875,-0.8125 2.4375,-0.265625 2.03125,-0.109375 1.75,-0.109375 c -0.5,0 -0.640625,-0.546875 -0.640625,-0.9375 0,-0.5 0.3125,-1.71875 0.546875,-2.1875 0.3125,-0.578125 0.75,-0.953125 1.15625,-0.953125 0.640625,0 0.78125,0.8125 0.78125,0.875 0,0.0625 -0.015625,0.125 -0.03125,0.171875 z m 0,0"
               style="stroke:none"
               inkscape:connector-curvature="0" />
          </symbol>
          <symbol
             id="textext-e3f2af88-3"
             overflow="visible"
             style="overflow:visible">
            <path
               id="path4513"
               d="m 3.296875,2.390625 c 0,-0.03125 0,-0.046875 -0.171875,-0.21875 C 1.890625,0.921875 1.5625,-0.96875 1.5625,-2.5 c 0,-1.734375 0.375,-3.46875 1.609375,-4.703125 0.125,-0.125 0.125,-0.140625 0.125,-0.171875 0,-0.078125 -0.03125,-0.109375 -0.09375,-0.109375 -0.109375,0 -1,0.6875 -1.59375,1.953125 -0.5,1.09375 -0.625,2.203125 -0.625,3.03125 0,0.78125 0.109375,1.984375 0.65625,3.125 C 2.25,1.84375 3.09375,2.5 3.203125,2.5 c 0.0625,0 0.09375,-0.03125 0.09375,-0.109375 z m 0,0"
               style="stroke:none"
               inkscape:connector-curvature="0" />
          </symbol>
          <symbol
             id="textext-e3f2af88-4"
             overflow="visible"
             style="overflow:visible">
            <path
               id="path4516"
               d="m 2.875,-2.5 c 0,-0.765625 -0.109375,-1.96875 -0.65625,-3.109375 -0.59375,-1.21875 -1.453125,-1.875 -1.546875,-1.875 -0.0625,0 -0.109375,0.046875 -0.109375,0.109375 0,0.03125 0,0.046875 0.1875,0.234375 0.984375,0.984375 1.546875,2.5625 1.546875,4.640625 0,1.71875 -0.359375,3.46875 -1.59375,4.71875 C 0.5625,2.34375 0.5625,2.359375 0.5625,2.390625 0.5625,2.453125 0.609375,2.5 0.671875,2.5 0.765625,2.5 1.671875,1.8125 2.25,0.546875 2.765625,-0.546875 2.875,-1.65625 2.875,-2.5 z m 0,0"
               style="stroke:none"
               inkscape:connector-curvature="0" />
          </symbol>
          <symbol
             id="textext-e3f2af88-5"
             overflow="visible"
             style="overflow:visible">
            <path
               id="path4519"
               d="m 4.078125,-2.296875 2.78125,0 C 7,-2.296875 7.1875,-2.296875 7.1875,-2.5 7.1875,-2.6875 7,-2.6875 6.859375,-2.6875 l -2.78125,0 0,-2.796875 c 0,-0.140625 0,-0.328125 -0.203125,-0.328125 -0.203125,0 -0.203125,0.1875 -0.203125,0.328125 l 0,2.796875 -2.78125,0 c -0.140625,0 -0.328125,0 -0.328125,0.1875 0,0.203125 0.1875,0.203125 0.328125,0.203125 l 2.78125,0 0,2.796875 c 0,0.140625 0,0.328125 0.203125,0.328125 0.203125,0 0.203125,-0.1875 0.203125,-0.328125 z m 0,0"
               style="stroke:none"
               inkscape:connector-curvature="0" />
          </symbol>
          <symbol
             id="textext-e3f2af88-6"
             overflow="visible"
             style="overflow:visible">
            <path
               id="path4522"
               d="m 2.015625,-3.296875 c 0.0625,-0.109375 0.0625,-0.171875 0.0625,-0.21875 0,-0.21875 -0.1875,-0.375 -0.40625,-0.375 -0.265625,0 -0.34375,0.21875 -0.375,0.328125 L 0.375,-0.546875 c -0.015625,0.015625 -0.046875,0.09375 -0.046875,0.109375 0,0.078125 0.21875,0.15625 0.28125,0.15625 0.046875,0 0.046875,-0.015625 0.09375,-0.125 z m 0,0"
               style="stroke:none"
               inkscape:connector-curvature="0" />
          </symbol>
        </g>
      </defs>
      <g
         id="textext-e3f2af88-7">
        <g
           id="g4525"
           style="fill:#ff0000;fill-opacity:1">
          <use
             id="use4527"
             y="134.765"
             x="223.43201"
             xlink:href="#textext-e3f2af88-0"
             width="744.09448"
             height="1052.3622" />
        </g>
        <g
           id="g4529"
           style="fill:#ff0000;fill-opacity:1">
          <use
             id="use4531"
             y="134.765"
             x="231.265"
             xlink:href="#textext-e3f2af88-3"
             width="744.09448"
             height="1052.3622" />
        </g>
        <g
           id="g4533"
           style="fill:#ff0000;fill-opacity:1">
          <use
             id="use4535"
             y="134.765"
             x="235.14"
             xlink:href="#textext-e3f2af88-1"
             width="744.09448"
             height="1052.3622" />
        </g>
        <g
           id="g4537"
           style="fill:#ff0000;fill-opacity:1">
          <use
             id="use4539"
             y="134.765"
             x="240.15199"
             xlink:href="#textext-e3f2af88-4"
             width="744.09448"
             height="1052.3622" />
        </g>
        <g
           id="g4541"
           style="fill:#ff0000;fill-opacity:1">
          <use
             id="use4543"
             y="134.765"
             x="246.23816"
             xlink:href="#textext-e3f2af88-5"
             width="744.09448"
             height="1052.3622" />
        </g>
        <g
           id="g4545"
           style="fill:#ff0000;fill-opacity:1">
          <use
             id="use4547"
             y="134.765"
             x="256.203"
             xlink:href="#textext-e3f2af88-0"
             width="744.09448"
             height="1052.3622" />
        </g>
        <g
           id="g4549"
           style="fill:#ff0000;fill-opacity:1">
          <use
             id="use4551"
             y="131.149"
             x="264.03601"
             xlink:href="#textext-e3f2af88-6"
             width="744.09448"
             height="1052.3622" />
        </g>
        <g
           id="g4553"
           style="fill:#ff0000;fill-opacity:1">
          <use
             id="use4555"
             y="134.765"
             x="266.83099"
             xlink:href="#textext-e3f2af88-3"
             width="744.09448"
             height="1052.3622" />
        </g>
        <g
           id="g4557"
           style="fill:#ff0000;fill-opacity:1">
          <use
             id="use4559"
             y="134.765"
             x="270.70499"
             xlink:href="#textext-e3f2af88-1"
             width="744.09448"
             height="1052.3622" />
        </g>
        <g
           id="g4561"
           style="fill:#ff0000;fill-opacity:1">
          <use
             id="use4563"
             y="134.765"
             x="275.71799"
             xlink:href="#textext-e3f2af88-4"
             width="744.09448"
             height="1052.3622" />
        </g>
        <g
           id="g4565"
           style="fill:#ff0000;fill-opacity:1">
          <use
             id="use4567"
             y="134.765"
             x="279.59201"
             xlink:href="#textext-e3f2af88-2"
             width="744.09448"
             height="1052.3622" />
          <use
             id="use4569"
             y="134.765"
             x="284.77753"
             xlink:href="#textext-e3f2af88-1"
             width="744.09448"
             height="1052.3622" />
        </g>
      </g>
    </g>
  </g>
</svg>
