<?xml version="1.0" encoding="UTF-8" standalone="no"?>
<!-- Created with Inkscape (http://www.inkscape.org/) -->

<svg
   xmlns:dc="http://purl.org/dc/elements/1.1/"
   xmlns:cc="http://creativecommons.org/ns#"
   xmlns:rdf="http://www.w3.org/1999/02/22-rdf-syntax-ns#"
   xmlns:svg="http://www.w3.org/2000/svg"
   xmlns="http://www.w3.org/2000/svg"
   xmlns:sodipodi="http://sodipodi.sourceforge.net/DTD/sodipodi-0.dtd"
   xmlns:inkscape="http://www.inkscape.org/namespaces/inkscape"
   width="744.09448819"
   height="1052.3622047"
   id="svg2"
   version="1.1"
   inkscape:version="0.48.3.1 r9886"
   sodipodi:docname="oliphantpinhole.svg"
   inkscape:export-filename="/home/francois/Documents/Courses/VisionAndImageProcessing/lectures/Francois/FIGURES/oliphantpinhole.png"
   inkscape:export-xdpi="90"
   inkscape:export-ydpi="90">
  <defs
     id="defs4" />
  <sodipodi:namedview
     id="base"
     pagecolor="#ffffff"
     bordercolor="#666666"
     borderopacity="1.0"
     inkscape:pageopacity="0.0"
     inkscape:pageshadow="2"
     inkscape:zoom="0.35"
     inkscape:cx="250.7866"
     inkscape:cy="802.01881"
     inkscape:document-units="px"
     inkscape:current-layer="layer1"
     showgrid="true"
     inkscape:window-width="1680"
     inkscape:window-height="1026"
     inkscape:window-x="0"
     inkscape:window-y="24"
     inkscape:window-maximized="1">
    <inkscape:grid
       type="xygrid"
       id="grid2985" />
  </sodipodi:namedview>
  <metadata
     id="metadata7">
    <rdf:RDF>
      <cc:Work
         rdf:about="">
        <dc:format>image/svg+xml</dc:format>
        <dc:type
           rdf:resource="http://purl.org/dc/dcmitype/StillImage" />
        <dc:title></dc:title>
      </cc:Work>
    </rdf:RDF>
  </metadata>
  <g
     inkscape:label="Layer 1"
     inkscape:groupmode="layer"
     id="layer1">
    <path
       style="fill:none;stroke:#000000;stroke-width:1px;stroke-linecap:butt;stroke-linejoin:miter;stroke-opacity:1"
       d="m -840,1052.3622 200,0 c 0,0 -15.30734,-83.04483 0,-120.00002 14.4319,-34.84168 45.15832,-65.5681 80,-80 12.31839,-5.10245 27.68161,-5.10245 40,0 34.84168,14.4319 65.5681,45.15832 80,80 15.30734,36.95519 0,120.00002 0,120.00002 l 200,0 c 0,0 12.81458,-161.03302 0,-240.00002 -6.75388,-41.61926 -14.4069,-86.49222 -40,-120 -29.18062,-38.20474 -78.4203,-55.87036 -120,-80 -25.78664,-14.96457 -50.98332,-33.15009 -80,-40 -38.92996,-9.19011 -81.07004,-9.19011 -120,0 -29.01668,6.84991 -54.21336,25.03544 -80,40 -41.5797,24.12964 -90.81938,41.79526 -120,80 -25.5931,33.50778 -33.24612,78.38074 -40,120 -12.81458,78.967 0,240.00002 0,240.00002 z"
       id="path2987"
       inkscape:connector-curvature="0"
       sodipodi:nodetypes="ccaaaaccaaaaaaaac" />
    <g
       id="g3976">
      <g
         id="g3972">
        <path
           style="fill:#646464;fill-opacity:1;stroke:none"
           d="m -839.68922,1025.3622 c -9.08259,-136.55416 -2.13968,-231.8839 21.38095,-293.57145 15.77774,-41.38026 38.45999,-63.08105 101.45079,-97.06099 21.76447,-11.74069 51.14319,-28.1845 65.28605,-36.54181 14.14286,-8.3573 34.08575,-17.74752 44.31754,-20.86714 37.60401,-11.4653 96.61795,-11.49099 133.94029,-0.0583 10.38677,3.1817 32.36431,13.59927 48.839,23.15016 16.47469,9.55088 43.47469,24.58393 60,33.40678 16.52531,8.82284 37.24354,20.89099 46.04051,26.8181 17.22072,11.60277 40.29223,35.59025 47.34035,49.21983 16.07563,31.08684 27.37594,79.43623 32.60637,139.50925 3.19983,36.75083 2.0216,137.91014 -2.13306,183.13837 l -1.77157,19.2858 -98.07146,0 c -77.21003,0 -97.8092,-0.7598 -96.83848,-3.5715 0.67814,-1.9643 2.56174,-18.4345 4.18577,-36.6006 5.63677,-63.05153 -3.08943,-91.98441 -38.28483,-126.93861 -50.42111,-50.07551 -87.46834,-50.05248 -137.31329,0.0854 -11.77176,11.84094 -23.52638,27.12194 -28.57142,37.14285 -8.4896,16.8628 -8.57143,17.47543 -8.57143,64.1682 0,25.92856 0.93214,51.32146 2.07143,56.42856 l 2.07142,9.2857 -98.10854,0 -98.10855,0 -1.75784,-26.4285 0,-10e-5 z"
           id="path2989"
           inkscape:connector-curvature="0" />
        <path
           style="fill:#787878;fill-opacity:1;stroke:none"
           d="m -373.7533,1013.0857 c -79.31272,1.126 -144.28378,-22.2661 -169.09841,-59.73157 -10.71334,-16.17516 -41.26359,-84.38872 -41.26359,-92.13465 0,-1.89714 -0.41671,-14.98469 -9.38701,-22.35135 -28.93305,-23.76064 -42.9689,-21.8235 -78.41176,-40.00752 -27.25741,-13.98446 -43.62256,-29.86296 -65.51287,-29.86296 -25.16777,0 -17.06804,-8.44702 -64.9343,3.78868 -14.54109,3.71703 -16.05255,26.92911 -19.97166,30.41663 -6.37146,5.66981 -8.99566,6.20611 -24.79486,5.06735 -12.583,-0.90696 -21.7973,-3.48389 -32.01,-8.9521 -18.0697,-9.67522 -89.76134,-57.27107 -101.78104,-77.80233 -33.8117,-50.98847 -28.0022,-118.06566 -20.6725,-143.50825 11.43005,-39.61028 14.81224,-79.62782 30.01488,-115.10626 20.0219,-46.76341 25.63747,-60.37881 70.49323,-66.12025 37.71819,-4.82785 41.15338,-1.11971 55.38646,7.03686 27.87314,15.97331 19.22797,7.82954 52.94687,42.35416 28.78149,29.46918 39.33033,44.3788 59.7954,84.51416 12.72034,24.94668 30.01093,51.04621 35.1741,53.0941 1.28218,0.50855 -17.07475,49.56432 10.00048,7.42551 10.38034,-16.15554 -22.95607,26.63387 -46.00465,-14.88361 -12.61498,-22.72343 -33.22905,-71.94428 -35.33285,-77.95109 -5.77299,-16.48317 20.64008,-52.93395 40.62547,-72.80925 17.04344,-16.94955 27.97685,-30.527 49.33821,-48.71829 19.02376,-16.2006 35.51593,-25.27532 43.9162,-29.7588 46.03714,-24.57147 125.07116,-33.14661 166.21847,-20.08634 45.49467,14.44013 127.26266,41.62763 151.16001,101.22827 16.35002,40.77729 16.4792,85.49688 -8.92464,130.17123 -15.37043,27.02996 -69.00701,30.78129 -61.78684,30.78129 6.57382,0 37.97704,-9.2929 81.47235,-67.85037 21.85698,-29.42586 44.63978,-59.43452 50.62851,-66.68592 12.85121,-15.56077 41.95869,-35.39685 66.41271,-45.25873 51.51762,-20.77614 83.89373,-7.23441 121.124347,50.6618 32.70767,50.86269 49.86537,100.3012 46.95338,135.29211 -3.78472,45.47722 -30.77776,103.76525 -64.43928,139.14846 -33.236427,34.93636 -63.854077,52.26413 -120.619047,68.26316 -24.01338,6.76811 -28.42086,7.1274 -91.61397,7.46821 -63.02579,0.33989 -67.67994,0.71678 -91.92518,7.44418 -43.51152,12.07324 -75.10686,26.41945 -84.40209,38.32363 -7.07337,9.05872 -16.10358,19.79513 -8.81042,37.75207 7.29317,17.95694 23.14975,34.96429 32.28024,40.58134 32.08191,19.73673 60.08803,29.02307 83.29079,30.28462 26.42273,1.43662 13.12479,2.25435 39.55211,-1.76259 26.42733,-4.01695 30.74406,-7.1218 51.71231,-12.9635 118.68438,-33.06519 -11.91666,2.13482 42.04083,-16.17008 63.89628,-19.94831 89.8998,-33.01127 139.697853,-66.83116 -14.240223,-94.87551 72.661846,12.17174 11.859414,86.30904 -60.802437,74.13731 -21.064857,-14.74337 -87.432167,16.59587 -66.3673,31.33924 -123.65277,42.17824 -202.96549,43.30424 z"
           id="path3761"
           inkscape:connector-curvature="0"
           sodipodi:nodetypes="zssssssssscccssssssssssssssssssssssssszsszscczsz" />
      </g>
      <path
         d="m -646.49765,609.91534 a 34.345188,26.263966 0 1 1 -68.69037,0 34.345188,26.263966 0 1 1 68.69037,0 z"
         sodipodi:ry="26.263966"
         sodipodi:rx="34.345188"
         sodipodi:cy="609.91534"
         sodipodi:cx="-680.84283"
         id="path3763"
         style="fill:#ffffff;fill-opacity:1;stroke:none"
         sodipodi:type="arc" />
      <path
         transform="translate(240,0)"
         sodipodi:type="arc"
         style="fill:#ffffff;fill-opacity:1;stroke:none"
         id="path3765"
         sodipodi:cx="-680.84283"
         sodipodi:cy="609.91534"
         sodipodi:rx="34.345188"
         sodipodi:ry="26.263966"
         d="m -646.49765,609.91534 a 34.345188,26.263966 0 1 1 -68.69037,0 34.345188,26.263966 0 1 1 68.69037,0 z" />
    </g>
    <rect
       style="fill:#ffffff;fill-opacity:1;stroke:none"
       id="rect3797"
       width="171.42857"
       height="248.57143"
       x="-200"
       y="-681.92352" />
    <rect
       style="fill:#ffffff;fill-opacity:1;stroke:none"
       id="rect3799"
       width="65.714256"
       height="191.42857"
       x="-505.71423"
       y="-499.06641" />
    <g
       id="g3820"
       transform="matrix(0.8660254,0.5,-0.5,0.8660254,459.00141,395.91247)">
      <path
         transform="translate(80,-80)"
         d="m -840,-367.63782 c 0,55.22848 -35.81722,100 -80,100 -44.18278,0 -80,-44.77152 -80,-100 0,-55.22847 35.81722,-100 80,-100 44.18278,0 80,44.77153 80,100 z"
         sodipodi:ry="100"
         sodipodi:rx="80"
         sodipodi:cy="-367.63782"
         sodipodi:cx="-920"
         id="path3806"
         style="fill:#ffffff;fill-opacity:1;stroke:#000000;stroke-width:3;stroke-miterlimit:4;stroke-opacity:1;stroke-dasharray:none;stroke-dashoffset:0"
         sodipodi:type="arc" />
      <rect
         y="-627.63782"
         x="-880"
         height="120"
         width="80"
         id="rect3801"
         style="fill:#ffffff;fill-opacity:1;stroke:#000000;stroke-width:3;stroke-miterlimit:4;stroke-opacity:1;stroke-dasharray:none;stroke-dashoffset:0" />
      <path
         inkscape:connector-curvature="0"
         id="path3808"
         d="m -878.30406,-567.55445 0,-58.33631 38.3858,0 38.3858,0 0,58.33631 0,58.33631 -38.3858,0 -38.3858,0 0,-58.33631 z"
         style="fill:#e9dd33;fill-opacity:1;stroke:#000000;stroke-width:0.75761443;stroke-miterlimit:4;stroke-opacity:1;stroke-dasharray:none;stroke-dashoffset:0" />
      <path
         inkscape:connector-curvature="0"
         id="path3810"
         d="m -845.60037,-349.5055 c -0.41669,-0.0553 -1.72357,-0.22686 -2.90419,-0.38132 -11.38834,-1.48996 -23.67832,-6.90863 -33.55387,-14.79394 -3.3138,-2.64597 -10.58077,-9.95531 -13.26647,-13.34382 -8.99004,-11.34262 -15.64315,-25.13333 -19.45053,-40.31745 -6.18842,-24.67992 -4.17905,-52.43629 5.42887,-74.99182 6.43665,-15.11065 14.88785,-26.81701 26.30741,-36.44025 l 1.4521,-1.22368 0,12.53132 0,12.53131 41.54016,0 41.54017,0 0.0655,-12.51224 0.0655,-12.51224 1.76777,1.4441 c 2.48058,2.02639 8.48013,8.08842 10.88905,11.00246 11.98233,14.49481 20.13936,33.74911 22.92798,54.12045 0.87055,6.35951 1.01665,8.78773 1.01044,16.79378 -0.005,5.99041 -0.12322,9.28481 -0.43894,12.19564 -1.58269,14.59194 -5.29191,27.62968 -11.28153,39.654 -4.86515,9.76691 -10.46081,17.65433 -17.67743,24.9174 -9.75608,9.81887 -21.12857,16.50346 -33.33503,19.59386 -5.26637,1.33333 -7.79996,1.64243 -14.26841,1.74078 -3.3335,0.0507 -6.40184,0.0469 -6.81853,-0.008 l 0,0 z"
         style="fill:#fff3d1;fill-opacity:1;stroke:#000000;stroke-width:0.75761443;stroke-miterlimit:4;stroke-opacity:1;stroke-dasharray:none;stroke-dashoffset:0" />
      <path
         inkscape:connector-curvature="0"
         id="path3812"
         d="m -865,-507.63782 -10,40 -15,35"
         style="fill:none;stroke:#000000;stroke-width:3;stroke-linecap:butt;stroke-linejoin:miter;stroke-miterlimit:4;stroke-opacity:1;stroke-dasharray:none" />
      <path
         style="fill:none;stroke:#000000;stroke-width:3;stroke-linecap:butt;stroke-linejoin:miter;stroke-miterlimit:4;stroke-opacity:1;stroke-dasharray:none"
         d="m -820,-507.63782 10,40 15,35"
         id="path3814"
         inkscape:connector-curvature="0" />
      <path
         inkscape:connector-curvature="0"
         id="path3816"
         d="m -890,-432.63782 c 1.58882,-0.0385 0.71437,-1.59316 1.3183,-2.19708 0.11904,-0.11905 0.34535,0.0532 0.50507,0 0.29009,-0.0967 0.35038,-0.60292 0.50508,-0.75762 0.1331,-0.1331 0.34846,-0.14812 0.50508,-0.25254 0.0991,-0.066 0.16835,-0.16836 0.25253,-0.25253 0.25254,-0.0842 0.51952,-0.1335 0.75762,-0.25254 0.30304,-0.15153 0.45457,-0.60609 0.75761,-0.75762 0.15059,-0.0753 0.35449,0.0753 0.50508,0 0.21296,-0.10648 0.30697,-0.373 0.50508,-0.50507 0.07,-0.0467 0.17267,0.0266 0.25253,0 0.35715,-0.11905 0.67344,-0.33672 1.01016,-0.50508 0.16836,-0.0842 0.32246,-0.20689 0.50507,-0.25254 0.16333,-0.0408 0.34175,0.0408 0.50508,0 0.18261,-0.0457 0.33031,-0.18263 0.50508,-0.25254 0.24715,-0.0989 0.51951,-0.13349 0.75761,-0.25253 0.10648,-0.0532 0.142,-0.20833 0.25254,-0.25254 0.32225,-0.1289 0.68088,-0.14278 1.01015,-0.25254 0.35714,-0.11905 0.64818,-0.40165 1.01015,-0.50508 0.41272,-0.11792 0.85549,-0.1168 1.26269,-0.25253 0.11294,-0.0377 0.14201,-0.20833 0.25254,-0.25254 0.32226,-0.12891 0.68517,-0.13067 1.01015,-0.25254 0.3525,-0.13219 0.64494,-0.41377 1.01016,-0.50508 0.65841,-0.1646 1.35901,-0.0999 2.0203,-0.25254 0.44171,-0.10193 0.82291,-0.39513 1.26269,-0.50507 0.245,-0.0612 0.50762,0.0357 0.75762,0 0.34359,-0.0491 0.66656,-0.20346 1.01015,-0.25254 0.25,-0.0357 0.50508,0 0.75761,0 0.67344,0 1.34687,0 2.02031,0 0.17565,0 1.17136,-0.0457 1.26269,0 0.10648,0.0532 0.16836,0.16836 0.25254,0.25254 0.0842,0.0842 0.1993,0.14606 0.25254,0.25254 0.0376,0.0753 -0.0377,0.17724 0,0.25253 0.0532,0.10648 0.1865,0.15349 0.25253,0.25254 0.31082,0.46623 0.4468,1.04901 0.75762,1.51523 0.066,0.0991 0.1865,0.15349 0.25254,0.25254 0.0842,0.16836 0.16836,0.33672 0.25253,0.50508 0,0.0842 -0.0376,0.17724 0,0.25253 0.0532,0.10648 0.18651,0.15349 0.25254,0.25254 0.10441,0.15662 0.16836,0.33672 0.25254,0.50508 0.0842,0.16836 0.19302,0.3265 0.25254,0.50507 0.0266,0.0799 -0.0266,0.17268 0,0.25254 0.60975,1.82924 -0.0728,-0.39815 0.50508,0.75762 0.0376,0.0753 -0.0376,0.17724 0,0.25254 0.13573,0.27147 0.36934,0.48614 0.50507,0.75761 0.0376,0.0753 -0.0266,0.17268 0,0.25254 0.0595,0.17857 0.19302,0.3265 0.25254,0.50507 0.0266,0.0799 -0.0376,0.17725 0,0.25254 0.0532,0.10648 0.1993,0.14606 0.25254,0.25254 0.0753,0.15059 -0.0532,0.34536 0,0.50508 0.0595,0.17857 0.19301,0.3265 0.25254,0.50507 0.0785,0.23557 -0.0778,1.02929 0,1.26269 0.0376,0.11294 0.25253,0.13349 0.25253,0.25254 0,0.11905 -0.19929,0.14606 -0.25253,0.25254 -0.0402,0.0805 0,1.03699 0,1.26269 0,0.67344 0,1.34687 0,2.02031 0,0.16835 0,0.33671 0,0.50507 0,0.16836 0.0753,0.35449 0,0.50508 -0.0376,0.0753 -0.2149,-0.0753 -0.25254,0 -0.0753,0.15058 0.0532,0.34536 0,0.50507 -0.0376,0.11294 -0.1993,0.14606 -0.25254,0.25254 -0.0376,0.0753 0.0376,0.17725 0,0.25254 -0.0532,0.10648 -0.21489,0.1396 -0.25254,0.25254 -0.0532,0.15972 0.0532,0.34536 0,0.50508 -0.0376,0.11293 -0.16836,0.16835 -0.25254,0.25253 -0.25671,0.25671 -0.40315,0.34991 -0.50507,0.75762 -0.0408,0.16333 0.0532,0.34536 0,0.50507 -0.0376,0.11294 -0.18651,0.15349 -0.25254,0.25254 -0.0314,0.047 -0.48889,0.99397 -0.50508,1.01015 -0.61336,0.61337 -0.37083,-0.0751 -0.75761,0.50508 -0.10441,0.15662 -0.1396,0.35449 -0.25254,0.50508 -0.14286,0.19047 -0.373,0.30697 -0.50508,0.50507 -0.0467,0.07 0.0467,0.1825 0,0.25254 -0.43692,0.65538 -0.45122,0.385 -1.01015,0.75762 -0.19811,0.13207 -0.29212,0.39859 -0.50507,0.50507 -0.0753,0.0376 -0.17725,-0.0376 -0.25254,0 -0.21296,0.10648 -0.29212,0.3986 -0.50508,0.50508 -0.1118,0.0559 -0.53401,-0.1118 -0.75761,0 -0.0753,0.0376 0.0753,0.21489 0,0.25254 -0.30117,0.15058 -0.68349,-0.0817 -1.01016,0 -0.18261,0.0457 -0.32246,0.20688 -0.50507,0.25254 -0.17694,0.0442 -1.42379,0 -1.51523,0 -0.33672,0 -0.67344,0 -1.01015,0 -0.16836,0 -0.34175,0.0408 -0.50508,0 -0.18261,-0.0457 -0.3265,-0.19302 -0.50508,-0.25254 -0.0983,-0.0328 -0.71842,0.0392 -0.75761,0 -0.0595,-0.0595 0.0595,-0.19302 0,-0.25254 -0.0595,-0.0595 -0.19302,0.0595 -0.25254,0 -0.0595,-0.0595 0.0595,-0.19302 0,-0.25254 -0.0595,-0.0595 -0.19301,0.0595 -0.25254,0 -0.0595,-0.0595 0.0376,-0.17725 0,-0.25254 -0.0532,-0.10648 -0.1993,-0.14606 -0.25254,-0.25254 -0.0376,-0.0753 0.0595,-0.19301 0,-0.25253 -0.0595,-0.0595 -0.19301,0.0595 -0.25253,0 -0.0595,-0.0595 0,-0.16836 0,-0.25254 0,-0.16836 0.0934,-0.365 0,-0.50508 -0.10442,-0.15662 -0.40067,-0.0959 -0.50508,-0.25254 -0.0869,-0.13029 0.0759,-1.2875 0,-1.51523 -0.0376,-0.11293 -0.21489,-0.13959 -0.25254,-0.25253 -0.0532,-0.15972 0.0408,-0.34175 0,-0.50508 -0.0456,-0.18261 -0.20688,-0.32247 -0.25254,-0.50508 -0.0427,-0.1709 0,-1.60525 0,-1.76776 0,-0.4209 -0.0825,-0.84997 0,-1.26269 0.0369,-0.18458 0.20689,-0.32247 0.25254,-0.50508 0.0408,-0.16333 -0.0408,-0.34174 0,-0.50508 0.0913,-0.36522 0.41377,-0.64493 0.50508,-1.01015 0.44972,-1.79888 -0.76431,1.27943 0.25254,-1.26269 0.0699,-0.17477 0.1396,-0.35449 0.25253,-0.50508 0.49334,-0.65778 0.51311,-0.27661 0.75762,-1.01015 0.10976,-0.32927 0.0973,-0.69971 0.25254,-1.01015 0.10648,-0.21296 0.35634,-0.31916 0.50507,-0.50508 0.4583,-0.29526 0.46311,-0.87001 0.75762,-1.26269 0.14286,-0.19047 0.35634,-0.31915 0.50507,-0.50507 0.18961,-0.23701 0.31548,-0.52061 0.50508,-0.75762 0.29747,-0.37184 0.76516,-0.60182 1.01015,-1.01015 0.83757,-2.51269 -0.35714,0.47619 0.75762,-1.01015 0.15972,-0.21296 0.0928,-0.54466 0.25254,-0.75762 0.11293,-0.15058 0.37197,-0.11944 0.50507,-0.25254 0.1331,-0.1331 0.11944,-0.37197 0.25254,-0.50507 0.1331,-0.1331 0.34367,-0.1557 0.50508,-0.25254 0.26026,-0.15616 0.49735,-0.34892 0.75761,-0.50508 0.32281,-0.19368 0.70898,-0.2792 1.01015,-0.50507 0.19048,-0.14286 0.33672,-0.33672 0.50508,-0.50508 0.33672,-0.0842 0.69971,-0.0973 1.01015,-0.25254 0.21296,-0.10648 0.29212,-0.39859 0.50508,-0.50507 0.31044,-0.15522 0.67642,-0.15719 1.01015,-0.25254 0.25596,-0.0731 0.50508,-0.16836 0.75762,-0.25254 1.81649,-0.6055 -0.45194,0.12913 1.76776,-0.50508 0.71957,-0.20559 0.97829,-0.39229 1.76777,-0.50507 0.25,-0.0357 0.50851,0.0415 0.75761,0 0.26258,-0.0438 0.49305,-0.22314 0.75762,-0.25254 0.50199,-0.0558 1.01015,0 1.51523,0 0.92597,0 1.85194,0 2.77792,0 0.0612,0 0.74949,-0.008 0.75761,0 0.1331,0.1331 0.11944,0.37198 0.25254,0.50508 0.0595,0.0595 0.19301,-0.0595 0.25254,0 0.0595,0.0595 -0.0595,0.19301 0,0.25253 0.0595,0.0595 0.19301,-0.0595 0.25254,0 0.0595,0.0595 -0.0467,0.1825 0,0.25254 0.16835,0.16836 0.33671,0.33672 0.50507,0.50508 0,0.0842 -0.0376,0.17724 0,0.25254 0.53895,1.07789 -0.0339,-0.57282 0.50508,0.50507 0.11905,0.2381 0.13349,0.51952 0.25254,0.75762 0.0532,0.10648 0.21489,0.1396 0.25253,0.25254 0.0532,0.15971 -0.0408,0.34174 0,0.50507 0.0457,0.18261 0.16836,0.33672 0.25254,0.50508 0.0842,0.16836 0.14813,0.34846 0.25254,0.50507 0.066,0.0991 0.1993,0.14606 0.25254,0.25254 0.23809,0.47619 0.30735,1.02091 0.50507,1.51523 0.0699,0.17477 0.21563,0.3205 0.25254,0.50508 0.0495,0.24763 0,0.50507 0,0.75761 0,0.0842 -0.0376,0.17725 0,0.25254 0.13574,0.27147 0.39236,0.47581 0.50508,0.75761 0.0965,0.2413 -0.0767,1.20826 0,1.51523 0.0457,0.18261 0.21562,0.3205 0.25254,0.50508 0.0533,0.26668 0,1.40255 0,1.76777 0,0.67343 0,1.34687 0,2.0203 0,0.16836 0,0.33672 0,0.50508 0,0.16836 0.0408,0.34174 0,0.50507 -0.7154,1.43081 0.0941,-0.37646 -0.25254,1.01016 0.15221,0.45708 -0.4091,0.46967 -0.50508,0.75761 -0.0532,0.15972 0.0532,0.34536 0,0.50508 -0.0376,0.11294 -0.1865,0.15348 -0.25254,0.25254 -0.18517,0.27776 -0.58357,1.34118 -0.75761,1.51522 -0.1331,0.1331 -0.34846,0.14813 -0.50508,0.25254 -0.53163,0.35443 -0.70027,1.14029 -1.26269,1.51523 -0.15661,0.10441 -0.34846,0.14813 -0.50507,0.25254 -0.0991,0.066 -0.15349,0.1865 -0.25254,0.25254 -0.15662,0.10441 -0.34846,0.14812 -0.50508,0.25254 -0.57788,0.38525 0.15791,0.1999 -0.75761,0.50507 -0.0799,0.0266 -0.17268,-0.0266 -0.25254,0 -0.35714,0.11905 -0.65301,0.38603 -1.01015,0.50508 -0.15895,0.053 -1.03506,0 -1.26269,0 -0.17565,0 -1.17137,0.0457 -1.26269,0 -0.10648,-0.0532 -0.14606,-0.1993 -0.25254,-0.25254 -0.0753,-0.0377 -0.19302,0.0595 -0.25254,0 -0.0595,-0.0595 0.0753,-0.21489 0,-0.25254 -0.15058,-0.0753 -0.34536,0.0532 -0.50508,0 -0.11293,-0.0376 -0.16836,-0.16836 -0.25253,-0.25254 -0.0842,-0.0842 -0.16836,-0.16836 -0.25254,-0.25253 -0.19726,-0.19726 -0.61234,-0.5397 -0.75762,-0.75762 -0.10441,-0.15662 -0.1396,-0.35449 -0.25254,-0.50508 -0.14285,-0.19047 -0.36221,-0.3146 -0.50507,-0.50507 -0.11294,-0.15059 -0.16836,-0.33672 -0.25254,-0.50508 -0.16836,-0.16836 -0.35634,-0.31915 -0.50508,-0.50507 -0.54122,-0.67653 -0.87813,-1.50373 -1.26269,-2.27285 -0.28389,-0.56778 -0.63134,-1.13641 -0.75761,-1.76776 -0.066,-0.33018 0,-0.67344 0,-1.01016 0,-0.58925 0,-1.17851 0,-1.76776 0,-1.01016 0,-2.02031 0,-3.03046 0,-0.4209 -0.0825,-0.84997 0,-1.26269 0.0369,-0.18458 0.20688,-0.32247 0.25254,-0.50508 0.0408,-0.16333 -0.0408,-0.34174 0,-0.50507 0.0457,-0.18262 0.16836,-0.33672 0.25254,-0.50508 0.24871,-0.49743 0.55114,-0.99907 0.75761,-1.51523 0.0989,-0.24716 0.11558,-0.52935 0.25254,-0.75761 0.1225,-0.20417 0.38258,-0.30092 0.50507,-0.50508 0.13696,-0.22826 0.0643,-0.56938 0.25254,-0.75761 0.18823,-0.18824 0.54975,-0.0863 0.75762,-0.25254 0.237,-0.18961 0.29046,-0.543 0.50507,-0.75762 0.29762,-0.29762 0.69059,-0.4837 1.01016,-0.75761 0.27116,-0.23243 0.46699,-0.55003 0.75761,-0.75762 0.30634,-0.21881 0.69692,-0.29625 1.01015,-0.50507 0.19811,-0.13207 0.30091,-0.38258 0.50508,-0.50508 0.62058,-0.37235 1.10735,-0.17487 1.76777,-0.50507 0.21295,-0.10648 0.30091,-0.38258 0.50507,-0.50508 0.872,-0.5232 0.61019,-0.0715 1.51523,-0.25254 0.18458,-0.0369 0.32247,-0.20688 0.50508,-0.25254 0.16333,-0.0408 0.33671,0 0.50507,0 0.4209,0 0.8418,0 1.26269,0 0.67344,0 1.34687,0 2.02031,0 0.25254,0 0.50998,-0.0495 0.75761,0 0.18458,0.0369 0.32651,0.19302 0.50508,0.25254 0.0799,0.0266 0.17087,-0.0204 0.25254,0 0.25825,0.0646 0.49504,0.20878 0.75761,0.25254 0.2491,0.0415 0.50851,-0.0415 0.75762,0 0.25253,0.0842 0.50507,0.16836 0.75761,0.25254 0.0842,0.0842 0.1396,0.21489 0.25254,0.25254 0.15972,0.0532 0.33672,0 0.50508,0 0.25253,0.16835 0.47581,0.39235 0.75761,0.50507 0.15632,0.0625 0.33672,0 0.50508,0 0.33671,0.16836 0.66061,0.36526 1.01015,0.50508 0.63134,0.25254 -0.25254,-0.50508 0.75761,0 0.50508,0.25254 0.37881,0.50507 0.75762,0.75761 0.15662,0.10441 0.37197,0.11944 0.50507,0.25254 0.0595,0.0595 -0.0467,0.1825 0,0.25254 0.2988,0.44819 0.93481,0.82551 1.26269,1.26269 0.11294,0.15058 0.14813,0.34846 0.25254,0.50508 0.066,0.099 0.18651,0.15348 0.25254,0.25253 0.10441,0.15662 0.14813,0.34846 0.25254,0.50508 0.066,0.099 0.1865,0.15348 0.25254,0.25254 0.10441,0.15662 0.11944,0.37197 0.25254,0.50507 0.13309,0.1331 0.40823,0.0911 0.50507,0.25254 0.17857,0.29762 0.0973,0.69972 0.25254,1.01015 0.10648,0.21296 0.3986,0.29212 0.50508,0.50508 0.0753,0.15059 -0.0408,0.34175 0,0.50508 0.0457,0.18261 0.19301,0.3265 0.25253,0.50507 0.10976,0.32927 0.12364,0.6879 0.25254,1.01016 0.0442,0.11053 0.16836,0.16835 0.25254,0.25253 0.16836,0.33672 0.38603,0.65301 0.50508,1.01016 0.0532,0.15972 -0.033,0.33998 0,0.50507 0.71227,2.13683 -0.005,-0.27986 0.25253,1.26269 0.0571,0.34236 0.19548,0.6678 0.25254,1.01016 0.0277,0.16606 0,0.33671 0,0.50507 0,0.25254 0,0.50508 0,0.75762 0,0.75761 0,1.51523 0,2.27284 0,0.17118 0.0424,2.06097 0,2.27284 -0.0369,0.18458 -0.18263,0.33031 -0.25254,0.50508 -0.0989,0.24716 -0.20033,0.49658 -0.25253,0.75761 -0.033,0.16509 0.0408,0.34175 0,0.50508 -0.14378,0.57512 -0.3917,0.55275 -0.75762,1.01015 -1.0888,0.0938 -0.23308,0.90004 -0.50507,1.26269 -0.18211,0.24281 -0.543,0.29046 -0.75762,0.50508 -0.1331,0.1331 -0.11944,0.37198 -0.25254,0.50508 -0.1331,0.1331 -0.34846,0.14812 -0.50507,0.25253 -0.37881,0.25254 -0.25254,0.50508 -0.75762,0.75762 -0.15058,0.0753 -0.34174,-0.0408 -0.50507,0 -0.45708,-0.15221 -0.46968,0.4091 -0.75762,0.50508 -0.12269,0.0409 -1.50994,0 -1.76776,0 -0.36522,0 -1.50109,0.0533 -1.76777,0 -0.18458,-0.0369 -0.33672,-0.16836 -0.50508,-0.25254 -0.33672,-0.16836 -0.67343,-0.33672 -1.01015,-0.50508 -0.16836,-0.0842 -0.35449,-0.1396 -0.50508,-0.25254 -0.19047,-0.14285 -0.31915,-0.35634 -0.50507,-0.50507 -0.23701,-0.18961 -0.52717,-0.30756 -0.75762,-0.50508 -0.45194,-0.38738 -0.84179,-0.84179 -1.26269,-1.26269 -0.33672,-0.33672 -0.67343,-0.67344 -1.01015,-1.01015 -0.33672,-0.33672 -0.70025,-0.64861 -1.01015,-1.01016 -0.19753,-0.23044 -0.33672,-0.50507 -0.50508,-0.75761 -0.16836,-0.25254 -0.36934,-0.48614 -0.50508,-0.75761 -0.11904,-0.2381 -0.15367,-0.51046 -0.25253,-0.75762 -0.0699,-0.17477 -0.19302,-0.3265 -0.25254,-0.50508 -0.10976,-0.32926 -0.14278,-0.68088 -0.25254,-1.01015 -0.0595,-0.17857 -0.20689,-0.32246 -0.25254,-0.50507 -0.0408,-0.16334 0.0408,-0.34175 0,-0.50508 -0.0457,-0.18261 -0.22159,-0.31941 -0.25254,-0.50508 -0.0554,-0.33213 0,-0.67343 0,-1.01015 0,-0.84179 0,-1.68359 0,-2.52538 0,-1.26269 0,-2.52538 0,-3.78807 0,-0.58926 -0.0489,-1.18055 0,-1.76777 0.0909,-1.09108 0.70888,-2.63172 1.01016,-3.53553 1.47383,-4.42149 -0.39546,1.0875 1.01015,-2.77792 0.18194,-0.50035 0.26698,-1.03904 0.50507,-1.51523 0.27148,-0.54294 0.70899,-0.98818 1.01016,-1.51523 0.0418,-0.0731 -0.0595,-0.19302 0,-0.25254 0.21461,-0.21461 0.51063,-0.32866 0.75761,-0.50508 0.3425,-0.24464 0.67344,-0.50507 1.01015,-0.75761 0.4209,-0.25254 0.85429,-0.48534 1.26269,-0.75761 0.35021,-0.23348 0.64065,-0.55607 1.01016,-0.75762 0.56281,-0.30699 1.2269,-0.41343 1.76776,-0.75761 0.40175,-0.25566 0.57665,-0.81311 1.01016,-1.01016 0.54188,-0.24631 1.19262,-0.0992 1.76776,-0.25253 0.69495,-0.18532 1.33031,-0.55468 2.02031,-0.75762 3.24228,-0.95361 1.20668,-0.15034 4.04061,-0.75761 0.59923,-0.12841 1.16327,-0.40433 1.76777,-0.50508 0.41517,-0.0692 0.84179,0 1.26269,0 0.92597,0 1.85194,0 2.77792,0 0.33671,0 0.67343,0 1.01015,0 0.58925,0 1.18536,-0.0896 1.76777,0 0.5262,0.081 1.00637,0.34851 1.51522,0.50508 0.58574,0.18022 1.18204,0.32485 1.76777,0.50507 0.50886,0.15657 0.99142,0.40984 1.51523,0.50508 0.41411,0.0753 0.86041,-0.12378 1.26269,0 4.64839,1.43027 0.44385,0.47787 2.77792,1.51523 0.0519,0.0231 3.00303,0.99519 3.03046,1.01015 1.23737,0.67493 1.23243,1.18797 2.27284,2.02031 0.0657,0.0526 0.19302,-0.0595 0.25254,0 0.21462,0.21461 0.29046,0.543 0.50508,0.75761 0.1331,0.1331 0.37197,0.11944 0.50507,0.25254 0.009,0.009 0.47884,0.96642 0.50508,1.01015 0.21612,0.3602 0.6133,0.82974 0.75761,1.26269 0.10976,0.32927 0.15719,0.67643 0.25254,1.01016 0.14626,0.51191 0.33672,1.01015 0.50508,1.51522 0.16836,0.50508 0.33671,1.01016 0.50507,1.51523 0.0842,0.25254 0.20878,0.49504 0.25254,0.75762 0.10379,0.4123 -0.0692,0.84752 0,1.26269 0.0571,0.34236 0.19548,0.66779 0.25254,1.01015 0.0277,0.16607 0,0.33672 0,0.50508 0,0.50507 0,1.01015 0,1.51523 0,0.25253 0,0.50507 0,0.75761 0,0.25254 0.0495,0.50998 0,0.75761 -0.0369,0.18458 -0.20689,0.32247 -0.25254,0.50508 -0.4258,1.70319 0.91864,-1.41271 -0.25254,1.51523 -0.0442,0.11053 -0.18111,0.1573 -0.25253,0.25254 -0.18211,0.24281 -0.33672,0.50507 -0.50508,0.75761 -0.16836,0.25254 -0.36934,0.48615 -0.50508,0.75762 -0.0986,0.19724 -0.28441,1.04203 -0.50507,1.26269 -0.1331,0.1331 -0.33672,0.16836 -0.50508,0.25254 -0.25254,0.25253 -0.53451,0.47873 -0.75761,0.75761 -0.11759,0.14698 -0.16836,0.33672 -0.25254,0.50508 -0.16836,0.25253 -0.31548,0.52061 -0.50508,0.75761 -0.66175,0.82718 -0.4653,0.3102 -1.51523,1.01015 -2.33867,1.55912 2.40065,-0.97495 -1.51523,1.26269 -0.23112,0.13207 -0.51294,0.14768 -0.75761,0.25254 -0.72713,0.0869 -1.14397,0.74281 -1.76777,1.01015 -0.31901,0.13673 -0.68088,0.14279 -1.01015,0.25254 -0.17857,0.0595 -0.33672,0.16836 -0.50508,0.25254 -0.25253,0.0842 -0.50165,0.17941 -0.75761,0.25254 -0.33373,0.0954 -0.68517,0.13067 -1.01015,0.25254 -0.3525,0.13218 -0.65301,0.38603 -1.01016,0.50507 -0.15971,0.0532 -0.33671,0 -0.50507,0 -0.25254,0 -0.50508,0 -0.75762,0 -0.1974,0 -1.62972,0.046 -1.76776,0 -0.17857,-0.0595 -0.32651,-0.19301 -0.50508,-0.25254 -0.75176,-0.25058 0.51816,0.59798 -0.75761,-0.25253 -0.0991,-0.066 -0.16836,-0.16836 -0.25254,-0.25254 -0.16836,-0.16836 -0.33672,-0.33672 -0.50508,-0.50508 -0.0842,-0.0842 -0.1865,-0.15348 -0.25254,-0.25254 -0.10441,-0.15661 -0.14812,-0.34845 -0.25253,-0.50507 -0.066,-0.0991 -0.18651,-0.15349 -0.25254,-0.25254 -0.10441,-0.15662 -0.13495,-0.35809 -0.25254,-0.50508 -0.57099,-0.71373 -0.76641,-0.53145 -1.01015,-1.26269 -0.10976,-0.32927 -0.15719,-0.67642 -0.25254,-1.01015 -0.0731,-0.25596 -0.21489,-0.49409 -0.25254,-0.75761 -0.0476,-0.33334 0.0418,-0.67604 0,-1.01016 -0.043,-0.3444 -0.21421,-0.66519 -0.25254,-1.01015 -0.0465,-0.41832 0,-0.84179 0,-1.26269 0,-0.50508 0,-1.01015 0,-1.51523 0,-0.58925 0,-1.17851 0,-1.76777 0,-0.58925 -0.0833,-1.18443 0,-1.76776 0.0867,-0.60668 0.4374,-1.15868 0.50508,-1.76777 0.43,-3.86999 -0.43001,-1.55611 0.25254,-4.79822 0.19772,-0.93921 0.51335,-1.84973 0.75761,-2.77792 0.17666,-0.67131 0.33672,-1.34687 0.50508,-2.02031 0.16836,-0.67343 0.37715,-1.33803 0.50507,-2.0203 0.12508,-0.66706 0.0777,-1.36455 0.25254,-2.02031 1.14244,-4.28415 0.28118,0.36318 1.51523,-3.03046 0.17499,-0.48121 0.1054,-1.02478 0.25254,-1.51523 0.26209,-0.87365 0.45989,-0.96497 1.01015,-1.51522 0.0842,-0.0842 0.1865,-0.15349 0.25254,-0.25254 0.10441,-0.15662 0.11944,-0.37198 0.25254,-0.50508 0.1331,-0.1331 0.34846,-0.14813 0.50507,-0.25254 0.22989,-0.15326 0.53378,-0.64569 0.75762,-0.75761 0.0753,-0.0376 0.19301,0.0595 0.25254,0 0.0595,-0.0595 -0.0595,-0.31206 0,-0.25254 0.1331,0.1331 0.14812,0.34846 0.25253,0.50508 0.066,0.099 0.2149,0.1396 0.25254,0.25254 0.0532,0.15971 -0.0753,0.35449 0,0.50507 0.10648,0.21296 0.3986,0.29212 0.50508,0.50508 0.15522,0.31044 0.14278,0.68088 0.25254,1.01015 0.17608,0.52825 0.55066,0.99784 0.75761,1.51523 0.29608,0.7402 0.46154,1.53264 0.75762,2.27284 0.32408,0.8102 0.63522,1.0412 0.75761,2.02031 0.0418,0.33411 -0.0554,0.67801 0,1.01015 -0.20985,0.47239 0.44555,0.46 0.50508,0.75761 0.066,0.33018 -0.0476,0.67682 0,1.01016 0.0753,0.52704 0.37595,0.99872 0.50507,1.51523 0.0204,0.0817 -0.0204,0.17087 0,0.25253 0.0646,0.25825 0.20033,0.49659 0.25254,0.75762 0.0495,0.24763 -0.0612,0.51261 0,0.75761 0.0646,0.25825 0.20033,0.49659 0.25254,0.75762 0.066,0.33018 0,0.67343 0,1.01015 0,0.33672 0.066,0.67997 0,1.01015 -0.0522,0.26103 -0.18798,0.49937 -0.25254,0.75762 -0.0204,0.0817 0.0204,0.17087 0,0.25253 -0.0646,0.25826 -0.17941,0.50166 -0.25254,0.75762 -0.0954,0.33373 -0.12363,0.6879 -0.25254,1.01015 -0.0442,0.11053 -0.22366,0.13705 -0.25253,0.25254 -0.0612,0.245 0.0799,0.51804 0,0.75761 -0.096,0.28794 -0.34892,0.49736 -0.50508,0.75762 -0.0968,0.16141 -0.16836,0.33672 -0.25254,0.50507 -0.25254,0.50508 -0.50507,1.01016 -0.75761,1.51523 -0.0842,0.16836 -0.1396,0.3545 -0.25254,0.50508 -0.14286,0.19048 -0.36222,0.3146 -0.50508,0.50508 -0.11294,0.15058 -0.11944,0.37197 -0.25254,0.50507 -0.26619,0.2662 -0.70898,0.2792 -1.01015,0.50508 -0.19047,0.14286 -0.3146,0.36222 -0.50507,0.50507 -0.15059,0.11294 -0.34367,0.1557 -0.50508,0.25254 -0.26026,0.15616 -0.5148,0.32297 -0.75761,0.50508 -0.0952,0.0714 -0.1573,0.18111 -0.25254,0.25254 -0.0927,0.0695 -0.99562,0.7042 -1.26269,0.75761 -0.24764,0.0495 -0.50852,-0.0415 -0.75762,0 -0.52515,0.0875 -0.98547,0.4521 -1.51523,0.50508 -0.83761,0.0838 -1.68358,0 -2.52538,0 -0.42089,0 -0.84179,0 -1.26269,0 -0.16836,0 -0.33999,0.033 -0.50508,0 -0.26102,-0.0522 -0.49658,-0.20033 -0.75761,-0.25254 -0.58368,-0.11674 -1.17548,-0.19331 -1.76777,-0.25254 -0.25128,-0.0251 -0.51479,0.0694 -0.75761,0 -0.36198,-0.10342 -0.65301,-0.38603 -1.01015,-0.50507 -0.15972,-0.0532 -0.34536,0.0532 -0.50508,0 -0.35714,-0.11905 -0.66062,-0.36527 -1.01015,-0.50508 -0.49432,-0.19773 -1.02872,-0.28885 -1.51523,-0.50508 -0.27735,-0.12327 -0.48615,-0.36934 -0.75762,-0.50507 -0.23809,-0.11905 -0.54465,-0.0928 -0.75761,-0.25254 -0.15058,-0.11294 -0.15569,-0.34367 -0.25254,-0.50508 -0.15615,-0.26026 -0.36934,-0.48614 -0.50507,-0.75761 -0.11905,-0.2381 -0.16836,-0.50508 -0.25254,-0.75762 -0.0842,-0.25253 -0.22314,-0.49304 -0.25254,-0.75761 -0.0558,-0.50199 0,-1.01015 0,-1.51523 0,-0.50508 0,-1.01015 0,-1.51523 0,-0.75761 0,-1.51523 0,-2.27284 0,-0.4209 -0.0595,-0.84603 0,-1.26269 0.0521,-0.36462 0.8567,-3.83279 1.01015,-4.29315 0.20273,-0.60819 0.55489,-1.15958 0.75762,-1.76777 0.84963,-2.5489 0.0258,-1.41508 1.26269,-3.53553 0.30586,-0.52434 0.55332,-1.1155 1.01015,-1.51523 0.2612,-0.22855 0.69418,-0.10892 1.01015,-0.25254 0.61785,-0.28084 1.15156,-0.72575 1.76777,-1.01015 1.43952,-0.66439 2.17916,-0.5151 3.78807,-1.01015 0.35982,-0.11072 0.65034,-0.39437 1.01015,-0.50508 3.4619,-1.0652 1.03825,-0.0648 4.04061,-0.75761 1.03753,-0.23943 1.98284,-0.81968 3.03046,-1.01016 0.41411,-0.0753 0.8418,0 1.26269,0 0.4209,0 0.8418,0 1.26269,0 0.67344,0 1.36291,-0.14609 2.02031,0 0.29628,0.0658 0.47864,0.38552 0.75761,0.50508 0.31902,0.13672 0.68089,0.14278 1.01016,0.25254 0.43005,0.14335 0.82016,0.40673 1.26269,0.50507 3.09533,0.68786 -0.53404,-0.72448 1.51522,0.50508 0.22827,0.13696 0.51046,0.15367 0.75762,0.25254 0.17477,0.0699 0.33031,0.18263 0.50508,0.25254 0.24715,0.0989 0.52935,0.11558 0.75761,0.25253 1.26269,0.75762 0,0.25254 0.75761,0.75762 0.31324,0.20882 0.69692,0.29625 1.01016,0.50508 0.10375,0.0692 0.68844,0.65386 0.75761,0.75761 0.47842,-0.0288 0.16836,0.58926 0.25254,0.75761 0.0532,0.10648 0.1865,0.15349 0.25254,0.25254 0.10441,0.15662 0.16836,0.33672 0.25254,0.50508 0.0842,0.16836 0.19301,0.3265 0.25253,0.50507 0.0532,0.15972 -0.0532,0.34536 0,0.50508 0.11905,0.35714 0.41377,0.64493 0.50508,1.01015 0.0408,0.16334 -0.0408,0.34175 0,0.50508 0.0457,0.18261 0.20689,0.32247 0.25254,0.50508 0.0408,0.16333 0,0.33671 0,0.50507 0,0.4209 0,0.8418 0,1.26269 0,0.16836 -0.033,0.33999 0,0.50508 0.0522,0.26103 0.18797,0.49936 0.25254,0.75761 0.0204,0.0817 0,0.16836 0,0.25254 0,0.4209 0,0.8418 0,1.26269 0,1.17851 0,2.35703 0,3.53554 0,0.84179 0,1.68358 0,2.52538 0,0.33672 0.066,0.67997 0,1.01015 0.49124,0.70162 -0.41377,0.64493 -0.50508,1.01015 -0.0612,0.245 0.0495,0.50998 0,0.75762 -0.002,0.0119 -0.49111,0.97524 -0.50508,1.01015 -0.0131,0.0327 -0.50008,1.50691 -0.50507,1.51523 -0.1225,0.20416 -0.36222,0.3146 -0.50508,0.50507 -0.22588,0.30117 -0.31139,0.68734 -0.50508,1.01016 -0.15615,0.26026 -0.33671,0.50507 -0.50507,0.75761 -0.16836,0.25254 -0.31077,0.52445 -0.50508,0.75762 -0.22864,0.27436 -0.52243,0.48883 -0.75761,0.75761 -0.35494,0.40565 -0.62902,0.88155 -1.01015,1.26269 -0.29762,0.29762 -0.68682,0.48816 -1.01016,0.75762 -1.2658,1.05483 0.50407,-0.0835 -1.51523,1.26269 -0.15661,0.10441 -0.35809,0.13495 -0.50507,0.25253 -0.27888,0.22311 -0.43818,0.5979 -0.75762,0.75762 -0.22587,0.11294 -0.50998,-0.0495 -0.75761,0 -0.36915,0.0738 -0.64493,0.41377 -1.01015,0.50508 -0.16334,0.0408 -0.33672,0 -0.50508,0 -0.0842,0 -0.19301,0.0595 -0.25254,0 -0.1331,-0.1331 -0.14812,-0.34846 -0.25254,-0.50508 -0.066,-0.099 -0.19929,-0.14606 -0.25253,-0.25254 -0.23503,-0.47004 -0.44745,-1.61688 -0.50508,-2.0203 -0.0238,-0.16667 0.0408,-0.34175 0,-0.50508 -0.4627,-1.85078 -0.17412,1.87271 -0.50508,-1.76777 -0.0457,-0.503 0,-1.01015 0,-1.51523 0,-2.0203 0,-4.04061 0,-6.06091 0,-0.67344 -0.0516,-1.34886 0,-2.02031 0.0622,-0.8081 0.57803,-2.35699 0.75762,-3.03045 0.17886,-0.67073 0.30093,-1.35684 0.50507,-2.02031 0.51396,-1.67037 0.55253,-1.00251 1.26269,-2.77792 0.12891,-0.32225 0.0973,-0.69971 0.25254,-1.01015 0.18823,-0.37646 0.55321,-0.64222 0.75762,-1.01015 0.22015,-0.39628 0.28492,-0.86642 0.50507,-1.26269 0.26005,-0.46809 1.34618,-1.75682 1.76777,-2.02031 0.29432,-0.18395 0.71583,-0.0686 1.01015,-0.25254 0.40381,-0.25238 0.6292,-0.72444 1.01016,-1.01015 1.051,-0.78825 0.79248,-0.26997 1.76776,-0.75761 0.17965,-0.0898 0.32543,-0.41526 0.50508,-0.50508 0.0753,-0.0376 0.16836,0 0.25254,0 0.58925,0 1.17851,0 1.76776,0 0.11374,0 0.68076,-0.0384 0.75762,0 0.10648,0.0532 0.15348,0.1865 0.25254,0.25254 0.15661,0.10441 0.33671,0.16836 0.50507,0.25254 0.16836,0.0842 0.32651,0.19301 0.50508,0.25253 0.7193,0.23977 -0.40611,-0.91118 1.01015,0.50508 0.30759,0.30759 0.1183,0.56422 0.50508,0.75761 0.23809,0.11905 0.51952,0.13349 0.75761,0.25254 0.10648,0.0532 0.14606,0.1993 0.25254,0.25254 0.0753,0.0376 0.16836,0 0.25254,0 0.25254,0.16836 0.5148,0.32297 0.75761,0.50508 0.0952,0.0714 0.16836,0.16836 0.25254,0.25253 1.68126,1.68127 -0.67111,-0.6711 1.01015,1.01016 0.33672,0.33671 0.71268,0.63831 1.01016,1.01015 0.11758,0.14698 0.1396,0.35449 0.25253,0.50508 0.89692,1.19588 0.27888,0.19986 0.50508,-0.25254 0.0532,-0.10648 0.16836,0.16836 0.25254,0.25254 0.0842,0.0842 0.1865,0.15348 0.25254,0.25253 0.10441,0.15662 0.14812,0.34846 0.25253,0.50508 0.13208,0.19811 0.37301,0.30697 0.50508,0.50508 0.10441,0.15661 0.11944,0.37197 0.25254,0.50507 0.0595,0.0595 0.19301,-0.0595 0.25254,0 0.0595,0.0595 -0.0376,0.17725 0,0.25254 0.0532,0.10648 0.1993,0.14606 0.25254,0.25254 0.0376,0.0753 -0.0376,0.17725 0,0.25254 0.0532,0.10648 0.21489,0.1396 0.25253,0.25254 0.0532,0.15971 -0.0408,0.34174 0,0.50507 0.0457,0.18261 0.19302,0.32651 0.25254,0.50508 0.0266,0.0799 -0.0376,0.17724 0,0.25254 0.0532,0.10648 0.1993,0.14605 0.25254,0.25253 0.0376,0.0753 0,0.16836 0,0.25254 0,0.0842 0,0.16836 0,0.25254 0,0.50508 0,1.01015 0,1.51523 0,0.84179 0,1.68359 0,2.52538 0,0.0433 0.0309,1.42262 0,1.51523 -0.0376,0.11294 -0.21489,0.1396 -0.25254,0.25254 -0.0532,0.15972 0.033,0.33998 0,0.50507 -0.26275,1.31376 -0.16836,0.25254 -0.50507,1.26269 -0.0266,0.0799 0.0266,0.17268 0,0.25254 -0.30518,0.91553 -0.11983,0.17973 -0.50508,0.75762 -0.10441,0.15661 -0.14813,0.34846 -0.25254,0.50507 -0.066,0.0991 -0.1993,0.14606 -0.25254,0.25254 -0.0376,0.0753 0.0376,0.17725 0,0.25254 -0.0532,0.10648 -0.1993,0.14606 -0.25254,0.25254 -0.0376,0.0753 0.0376,0.17724 0,0.25254 -0.0532,0.10648 -0.16835,0.16835 -0.25253,0.25253 -0.0842,0.0842 -0.14606,0.1993 -0.25254,0.25254 -0.0753,0.0377 -0.19302,-0.0595 -0.25254,0 -0.0595,0.0595 0.0595,0.19302 0,0.25254 -0.11905,0.11905 -0.38461,-0.11761 -0.50508,0 -0.45034,0.43967 -0.81458,0.95965 -1.22187,1.43947"
         style="fill:none;stroke:#000000;stroke-width:3;stroke-linecap:butt;stroke-linejoin:miter;stroke-miterlimit:4;stroke-opacity:1;stroke-dasharray:none" />
    </g>
    <rect
       style="fill:#dfded9;fill-opacity:1;stroke:#00ff00;stroke-width:2.37725043;stroke-miterlimit:4;stroke-opacity:1;stroke-dasharray:none;stroke-dashoffset:0"
       id="rect3843"
       width="675.37341"
       height="1099.7482"
       x="1125.6226"
       y="629.35956"
       transform="matrix(0.88839735,-0.45907532,0,1,0,0)" />
    <path
       style="fill:none;stroke:#000000;stroke-width:1px;stroke-linecap:butt;stroke-linejoin:miter;stroke-opacity:1"
       d="M 80,532.36218 z"
       id="path3869"
       inkscape:connector-curvature="0" />
    <g
       id="g4006"
       transform="matrix(0.59183673,0,0,0.99868152,459.79592,65.611791)">
      <path
         inkscape:connector-curvature="0"
         id="path3960"
         d="M 642.4138,-173.47834 640,492.36218"
         style="fill:none;stroke:#000000;stroke-width:7;stroke-linecap:butt;stroke-linejoin:miter;stroke-miterlimit:4;stroke-opacity:1;stroke-dasharray:none"
         sodipodi:nodetypes="cc" />
      <path
         inkscape:connector-curvature="0"
         id="path3962"
         d="m 640,532.36218 2.4138,615.90222"
         style="fill:none;stroke:#000000;stroke-width:7;stroke-linecap:butt;stroke-linejoin:miter;stroke-miterlimit:4;stroke-opacity:1;stroke-dasharray:none"
         sodipodi:nodetypes="cc" />
    </g>
    <g
       id="g3983"
       transform="matrix(-0.59541217,0.35914362,0,-0.6220579,990.38425,1101.1327)">
      <g
         id="g3985">
        <path
           inkscape:connector-curvature="0"
           id="path3987"
           d="m -839.68922,1025.3622 c -9.08259,-136.55416 -2.13968,-231.8839 21.38095,-293.57145 15.77774,-41.38026 38.45999,-63.08105 101.45079,-97.06099 21.76447,-11.74069 51.14319,-28.1845 65.28605,-36.54181 14.14286,-8.3573 34.08575,-17.74752 44.31754,-20.86714 37.60401,-11.4653 96.61795,-11.49099 133.94029,-0.0583 10.38677,3.1817 32.36431,13.59927 48.839,23.15016 16.47469,9.55088 43.47469,24.58393 60,33.40678 16.52531,8.82284 37.24354,20.89099 46.04051,26.8181 17.22072,11.60277 40.29223,35.59025 47.34035,49.21983 16.07563,31.08684 27.37594,79.43623 32.60637,139.50925 3.19983,36.75083 2.0216,137.91014 -2.13306,183.13837 l -1.77157,19.2858 -98.07146,0 c -77.21003,0 -97.8092,-0.7598 -96.83848,-3.5715 0.67814,-1.9643 2.56174,-18.4345 4.18577,-36.6006 5.63677,-63.05153 -3.08943,-91.98441 -38.28483,-126.93861 -50.42111,-50.07551 -87.46834,-50.05248 -137.31329,0.0854 -11.77176,11.84094 -23.52638,27.12194 -28.57142,37.14285 -8.4896,16.8628 -8.57143,17.47543 -8.57143,64.1682 0,25.92856 0.93214,51.32146 2.07143,56.42856 l 2.07142,9.2857 -98.10854,0 -98.10855,0 -1.75784,-26.4285 0,-10e-5 z"
           style="fill:#646464;fill-opacity:1;stroke:none" />
        <path
           sodipodi:nodetypes="zssssssssscccssssssssssssssssssssssssszsszscczsz"
           inkscape:connector-curvature="0"
           id="path3989"
           d="m -373.7533,1013.0857 c -79.31272,1.126 -144.28378,-22.2661 -169.09841,-59.73157 -10.71334,-16.17516 -41.26359,-84.38872 -41.26359,-92.13465 0,-1.89714 -0.41671,-14.98469 -9.38701,-22.35135 -28.93305,-23.76064 -42.9689,-21.8235 -78.41176,-40.00752 -27.25741,-13.98446 -43.62256,-29.86296 -65.51287,-29.86296 -25.16777,0 -17.06804,-8.44702 -64.9343,3.78868 -14.54109,3.71703 -16.05255,26.92911 -19.97166,30.41663 -6.37146,5.66981 -8.99566,6.20611 -24.79486,5.06735 -12.583,-0.90696 -21.7973,-3.48389 -32.01,-8.9521 -18.0697,-9.67522 -89.76134,-57.27107 -101.78104,-77.80233 -33.8117,-50.98847 -28.0022,-118.06566 -20.6725,-143.50825 11.43005,-39.61028 14.81224,-79.62782 30.01488,-115.10626 20.0219,-46.76341 25.63747,-60.37881 70.49323,-66.12025 37.71819,-4.82785 41.15338,-1.11971 55.38646,7.03686 27.87314,15.97331 19.22797,7.82954 52.94687,42.35416 28.78149,29.46918 39.33033,44.3788 59.7954,84.51416 12.72034,24.94668 30.01093,51.04621 35.1741,53.0941 1.28218,0.50855 -17.07475,49.56432 10.00048,7.42551 10.38034,-16.15554 -22.95607,26.63387 -46.00465,-14.88361 -12.61498,-22.72343 -33.22905,-71.94428 -35.33285,-77.95109 -5.77299,-16.48317 20.64008,-52.93395 40.62547,-72.80925 17.04344,-16.94955 27.97685,-30.527 49.33821,-48.71829 19.02376,-16.2006 35.51593,-25.27532 43.9162,-29.7588 46.03714,-24.57147 125.07116,-33.14661 166.21847,-20.08634 45.49467,14.44013 127.26266,41.62763 151.16001,101.22827 16.35002,40.77729 16.4792,85.49688 -8.92464,130.17123 -15.37043,27.02996 -69.00701,30.78129 -61.78684,30.78129 6.57382,0 37.97704,-9.2929 81.47235,-67.85037 21.85698,-29.42586 44.63978,-59.43452 50.62851,-66.68592 12.85121,-15.56077 41.95869,-35.39685 66.41271,-45.25873 51.51762,-20.77614 83.89373,-7.23441 121.124347,50.6618 32.70767,50.86269 49.86537,100.3012 46.95338,135.29211 -3.78472,45.47722 -30.77776,103.76525 -64.43928,139.14846 -33.236427,34.93636 -63.854077,52.26413 -120.619047,68.26316 -24.01338,6.76811 -28.42086,7.1274 -91.61397,7.46821 -63.02579,0.33989 -67.67994,0.71678 -91.92518,7.44418 -43.51152,12.07324 -75.10686,26.41945 -84.40209,38.32363 -7.07337,9.05872 -16.10358,19.79513 -8.81042,37.75207 7.29317,17.95694 23.14975,34.96429 32.28024,40.58134 32.08191,19.73673 60.08803,29.02307 83.29079,30.28462 26.42273,1.43662 13.12479,2.25435 39.55211,-1.76259 26.42733,-4.01695 30.74406,-7.1218 51.71231,-12.9635 118.68438,-33.06519 -11.91666,2.13482 42.04083,-16.17008 63.89628,-19.94831 89.8998,-33.01127 139.697853,-66.83116 -14.240223,-94.87551 72.661846,12.17174 11.859414,86.30904 -60.802437,74.13731 -21.064857,-14.74337 -87.432167,16.59587 -66.3673,31.33924 -123.65277,42.17824 -202.96549,43.30424 z"
           style="fill:#787878;fill-opacity:1;stroke:none" />
      </g>
      <path
         sodipodi:type="arc"
         style="fill:#ffffff;fill-opacity:1;stroke:none"
         id="path3991"
         sodipodi:cx="-680.84283"
         sodipodi:cy="609.91534"
         sodipodi:rx="34.345188"
         sodipodi:ry="26.263966"
         d="m -646.49765,609.91534 c 0,14.50519 -15.37686,26.26397 -34.34518,26.26397 -18.96833,0 -34.34519,-11.75878 -34.34519,-26.26397 0,-14.50518 15.37686,-26.26396 34.34519,-26.26396 18.96832,0 34.34518,11.75878 34.34518,26.26396 z" />
      <path
         d="m -646.49765,609.91534 c 0,14.50519 -15.37686,26.26397 -34.34518,26.26397 -18.96833,0 -34.34519,-11.75878 -34.34519,-26.26397 0,-14.50518 15.37686,-26.26396 34.34519,-26.26396 18.96832,0 34.34518,11.75878 34.34518,26.26396 z"
         sodipodi:ry="26.263966"
         sodipodi:rx="34.345188"
         sodipodi:cy="609.91534"
         sodipodi:cx="-680.84283"
         id="path3993"
         style="fill:#ffffff;fill-opacity:1;stroke:none"
         sodipodi:type="arc"
         transform="translate(240,0)" />
    </g>
    <path
       style="fill:none;stroke:#000000;stroke-width:3;stroke-linecap:butt;stroke-linejoin:miter;stroke-opacity:1;stroke-miterlimit:4;stroke-dasharray:none"
       d="m -80,-307.63782 3.228412,1202.41621 C 391.26575,735.84772 521.11314,687.85936 1060.6602,496.77828"
       id="path3966"
       inkscape:connector-curvature="0"
       sodipodi:nodetypes="ccc" />
    <path
       style="fill:none;stroke:#000000;stroke-width:3;stroke-linecap:butt;stroke-linejoin:miter;stroke-opacity:1;stroke-miterlimit:4;stroke-dasharray:none"
       d="M -80,-307.63782 -509.11688,381.62089 1360,652.36218"
       id="path3964"
       inkscape:connector-curvature="0"
       sodipodi:nodetypes="ccc" />
  </g>
</svg>
