<?xml version="1.0" encoding="UTF-8" standalone="no"?>
<!-- Created with Inkscape (http://www.inkscape.org/) -->

<svg
   xmlns:dc="http://purl.org/dc/elements/1.1/"
   xmlns:cc="http://creativecommons.org/ns#"
   xmlns:rdf="http://www.w3.org/1999/02/22-rdf-syntax-ns#"
   xmlns:svg="http://www.w3.org/2000/svg"
   xmlns="http://www.w3.org/2000/svg"
   xmlns:sodipodi="http://sodipodi.sourceforge.net/DTD/sodipodi-0.dtd"
   xmlns:inkscape="http://www.inkscape.org/namespaces/inkscape"
   width="744.09448819"
   height="1052.3622047"
   id="svg2"
   version="1.1"
   inkscape:version="0.48.3.1 r9886"
   sodipodi:docname="New document 1">
  <defs
     id="defs4" />
  <sodipodi:namedview
     id="base"
     pagecolor="#ffffff"
     bordercolor="#666666"
     borderopacity="1.0"
     inkscape:pageopacity="0.0"
     inkscape:pageshadow="2"
     inkscape:zoom="0.35"
     inkscape:cx="-308.6745"
     inkscape:cy="427.9453"
     inkscape:document-units="px"
     inkscape:current-layer="layer1"
     showgrid="false"
     inkscape:window-width="1680"
     inkscape:window-height="1026"
     inkscape:window-x="0"
     inkscape:window-y="24"
     inkscape:window-maximized="1">
    <inkscape:grid
       type="xygrid"
       id="grid2985" />
  </sodipodi:namedview>
  <metadata
     id="metadata7">
    <rdf:RDF>
      <cc:Work
         rdf:about="">
        <dc:format>image/svg+xml</dc:format>
        <dc:type
           rdf:resource="http://purl.org/dc/dcmitype/StillImage" />
        <dc:title></dc:title>
      </cc:Work>
    </rdf:RDF>
  </metadata>
  <g
     inkscape:label="Layer 1"
     inkscape:groupmode="layer"
     id="layer1">
    <path
       style="fill:none;stroke:#000000;stroke-width:1px;stroke-linecap:butt;stroke-linejoin:miter;stroke-opacity:1"
       d="m -840,1052.3622 200,0 c 0,0 -15.30734,-83.04483 0,-120.00002 14.4319,-34.84168 45.15832,-65.5681 80,-80 12.31839,-5.10245 27.68161,-5.10245 40,0 34.84168,14.4319 65.5681,45.15832 80,80 15.30734,36.95519 0,120.00002 0,120.00002 l 200,0 c 0,0 12.81458,-161.03302 0,-240.00002 -6.75388,-41.61926 -14.4069,-86.49222 -40,-120 -29.18062,-38.20474 -78.4203,-55.87036 -120,-80 -25.78664,-14.96457 -50.98332,-33.15009 -80,-40 -38.92996,-9.19011 -81.07004,-9.19011 -120,0 -29.01668,6.84991 -54.21336,25.03544 -80,40 -41.5797,24.12964 -90.81938,41.79526 -120,80 -25.5931,33.50778 -33.24612,78.38074 -40,120 -12.81458,78.967 0,240.00002 0,240.00002 z"
       id="path2987"
       inkscape:connector-curvature="0"
       sodipodi:nodetypes="ccaaaaccaaaaaaaac" />
    <path
       style="fill:#646464;fill-opacity:1;stroke:none;stroke-width:8.57142829999999911;stroke-miterlimit:4;stroke-opacity:1;stroke-dasharray:34.28571429000000137, 34.28571429000000137;stroke-dashoffset:0"
       d="m -839.68922,1025.3622 c -9.08259,-136.55416 -2.13968,-231.8839 21.38095,-293.57145 15.77774,-41.38026 38.45999,-63.08105 101.45079,-97.06099 21.76447,-11.74069 51.14319,-28.1845 65.28605,-36.54181 14.14286,-8.3573 34.08575,-17.74752 44.31754,-20.86714 37.60401,-11.4653 96.61795,-11.49099 133.94029,-0.0583 10.38677,3.1817 32.36431,13.59927 48.839,23.15016 16.47469,9.55088 43.47469,24.58393 60,33.40678 16.52531,8.82284 37.24354,20.89099 46.04051,26.8181 17.22072,11.60277 40.29223,35.59025 47.34035,49.21983 16.07563,31.08684 27.37594,79.43623 32.60637,139.50925 3.19983,36.75083 2.0216,137.91014 -2.13306,183.13837 l -1.77157,19.2858 -98.07146,0 c -77.21003,0 -97.8092,-0.7598 -96.83848,-3.5715 0.67814,-1.9643 2.56174,-18.4345 4.18577,-36.6006 5.63677,-63.05153 -3.08943,-91.98441 -38.28483,-126.93861 -50.42111,-50.07551 -87.46834,-50.05248 -137.31329,0.0854 -11.77176,11.84094 -23.52638,27.12194 -28.57142,37.14285 -8.4896,16.8628 -8.57143,17.47543 -8.57143,64.1682 0,25.92856 0.93214,51.32146 2.07143,56.42856 l 2.07142,9.2857 -98.10854,0 -98.10855,0 -1.75784,-26.4285 0,-10e-5 z"
       id="path2989"
       inkscape:connector-curvature="0" />
    <path
       style="fill:#787878;fill-opacity:1;stroke:none"
       d="m -373.7533,1013.0857 c -79.31272,1.126 -144.28378,-22.2661 -169.09841,-59.73157 -10.71334,-16.17516 -41.26359,-84.38872 -41.26359,-92.13465 0,-1.89714 -0.41671,-14.98469 -9.38701,-22.35135 -28.93305,-23.76064 -42.9689,-21.8235 -78.41176,-40.00752 -27.25741,-13.98446 -43.62256,-29.86296 -65.51287,-29.86296 -25.16777,0 -17.06804,-8.44702 -64.9343,3.78868 -14.54109,3.71703 -16.05255,26.92911 -19.97166,30.41663 -6.37146,5.66981 -8.99566,6.20611 -24.79486,5.06735 -12.583,-0.90696 -21.7973,-3.48389 -32.01,-8.9521 -18.0697,-9.67522 -89.76134,-57.27107 -101.78104,-77.80233 -33.8117,-50.98847 -28.0022,-118.06566 -20.6725,-143.50825 11.43005,-39.61028 14.81224,-79.62782 30.01488,-115.10626 20.0219,-46.76341 25.63747,-60.37881 70.49323,-66.12025 37.71819,-4.82785 41.15338,-1.11971 55.38646,7.03686 27.87314,15.97331 19.22797,7.82954 52.94687,42.35416 28.78149,29.46918 39.33033,44.3788 59.7954,84.51416 12.72034,24.94668 30.01093,51.04621 35.1741,53.0941 1.28218,0.50855 -17.07475,49.56432 10.00048,7.42551 10.38034,-16.15554 -22.95607,26.63387 -46.00465,-14.88361 -12.61498,-22.72343 -33.22905,-71.94428 -35.33285,-77.95109 -5.77299,-16.48317 20.64008,-52.93395 40.62547,-72.80925 17.04344,-16.94955 27.97685,-30.527 49.33821,-48.71829 19.02376,-16.2006 35.51593,-25.27532 43.9162,-29.7588 46.03714,-24.57147 125.07116,-33.14661 166.21847,-20.08634 45.49467,14.44013 127.26266,41.62763 151.16001,101.22827 16.35002,40.77729 16.4792,85.49688 -8.92464,130.17123 -15.37043,27.02996 -69.00701,30.78129 -61.78684,30.78129 6.57382,0 37.97704,-9.2929 81.47235,-67.85037 21.85698,-29.42586 44.63978,-59.43452 50.62851,-66.68592 12.85121,-15.56077 41.95869,-35.39685 66.41271,-45.25873 51.51762,-20.77614 83.89373,-7.23441 121.124347,50.6618 32.70767,50.86269 49.86537,100.3012 46.95338,135.29211 -3.78472,45.47722 -30.77776,103.76525 -64.43928,139.14846 -33.236427,34.93636 -63.854077,52.26413 -120.619047,68.26316 -24.01338,6.76811 -28.42086,7.1274 -91.61397,7.46821 -63.02579,0.33989 -67.67994,0.71678 -91.92518,7.44418 -43.51152,12.07324 -75.10686,26.41945 -84.40209,38.32363 -7.07337,9.05872 -16.10358,19.79513 -8.81042,37.75207 7.29317,17.95694 23.14975,34.96429 32.28024,40.58134 32.08191,19.73673 60.08803,29.02307 83.29079,30.28462 26.42273,1.43662 13.12479,2.25435 39.55211,-1.76259 26.42733,-4.01695 30.74406,-7.1218 51.71231,-12.9635 118.68438,-33.06519 -11.91666,2.13482 42.04083,-16.17008 63.89628,-19.94831 89.8998,-33.01127 139.697853,-66.83116 -14.240223,-94.87551 72.661846,12.17174 11.859414,86.30904 -60.802437,74.13731 -21.064857,-14.74337 -87.432167,16.59587 -66.3673,31.33924 -123.65277,42.17824 -202.96549,43.30424 z"
       id="path3761"
       inkscape:connector-curvature="0"
       sodipodi:nodetypes="zssssssssscccssssssssssssssssssssssssszsszscczsz" />
    <path
       sodipodi:type="arc"
       style="fill:#ffffff;fill-opacity:1;stroke:none"
       id="path3763"
       sodipodi:cx="-680.84283"
       sodipodi:cy="609.91534"
       sodipodi:rx="34.345188"
       sodipodi:ry="26.263966"
       d="m -646.49765,609.91534 a 34.345188,26.263966 0 1 1 -68.69037,0 34.345188,26.263966 0 1 1 68.69037,0 z" />
    <path
       d="m -646.49765,609.91534 a 34.345188,26.263966 0 1 1 -68.69037,0 34.345188,26.263966 0 1 1 68.69037,0 z"
       sodipodi:ry="26.263966"
       sodipodi:rx="34.345188"
       sodipodi:cy="609.91534"
       sodipodi:cx="-680.84283"
       id="path3765"
       style="fill:#ffffff;fill-opacity:1;stroke:none"
       sodipodi:type="arc"
       transform="translate(240,0)" />
  </g>
</svg>
