<?xml version="1.0" encoding="UTF-8" standalone="no"?>
<!-- Created with Inkscape (http://www.inkscape.org/) -->

<svg
   xmlns:ns0="http://www.iki.fi/pav/software/textext/"
   xmlns:dc="http://purl.org/dc/elements/1.1/"
   xmlns:cc="http://creativecommons.org/ns#"
   xmlns:rdf="http://www.w3.org/1999/02/22-rdf-syntax-ns#"
   xmlns:svg="http://www.w3.org/2000/svg"
   xmlns="http://www.w3.org/2000/svg"
   xmlns:xlink="http://www.w3.org/1999/xlink"
   xmlns:sodipodi="http://sodipodi.sourceforge.net/DTD/sodipodi-0.dtd"
   xmlns:inkscape="http://www.inkscape.org/namespaces/inkscape"
   width="744.09448819"
   height="1052.3622047"
   id="svg2"
   version="1.1"
   inkscape:version="0.48.4 r9939"
   sodipodi:docname="parallelepided.svg"
   inkscape:export-filename="/home/francois/Documents/Courses/VisionAndImageProcessing/lectures/Francois/FIGURES/parallelepided.png"
   inkscape:export-xdpi="90"
   inkscape:export-ydpi="90">
  <sodipodi:namedview
     id="base"
     pagecolor="#ffffff"
     bordercolor="#ffffff"
     borderopacity="0.0"
     inkscape:pageopacity="0.0"
     inkscape:pageshadow="0"
     inkscape:zoom="0.35"
     inkscape:cx="-586.3663"
     inkscape:cy="879.80993"
     inkscape:document-units="px"
     inkscape:current-layer="layer1"
     showgrid="true"
     inkscape:window-width="1920"
     inkscape:window-height="1062"
     inkscape:window-x="0"
     inkscape:window-y="18"
     inkscape:window-maximized="1">
    <inkscape:grid
       id="grid2985"
       type="xygrid" />
  </sodipodi:namedview>
  <defs
     id="defs4">
    <inkscape:perspective
       id="perspective5141"
       inkscape:persp3d-origin="1040.6187 : 553.64453 : 1"
       inkscape:vp_z="-1208.8846 : 879.34281 : 1"
       inkscape:vp_y="0 : 1000 : 0"
       inkscape:vp_x="668.57143 : 729.03823 : 1"
       sodipodi:type="inkscape:persp3d" />
    <marker
       style="overflow:visible;"
       id="Arrow1Lend"
       refX="0.0"
       refY="0.0"
       orient="auto"
       inkscape:stockid="Arrow1Lend">
      <path
         transform="scale(0.8) rotate(180) translate(12.5,0)"
         style="fill-rule:evenodd;stroke:#000000;stroke-width:1.0pt;"
         d="M 0.0,0.0 L 5.0,-5.0 L -12.5,0.0 L 5.0,5.0 L 0.0,0.0 z "
         id="path3948" />
    </marker>
  </defs>
  <metadata
     id="metadata7">
    <rdf:RDF>
      <cc:Work
         rdf:about="">
        <dc:format>image/svg+xml</dc:format>
        <dc:type
           rdf:resource="http://purl.org/dc/dcmitype/StillImage" />
        <dc:title></dc:title>
      </cc:Work>
    </rdf:RDF>
  </metadata>
  <g
     id="layer1"
     inkscape:groupmode="layer"
     inkscape:label="Layer 1">
    <path
       inkscape:connector-curvature="0"
       id="path2987"
       d="m -1560,-307.63782 0,840"
       style="fill:none;stroke:#000000;stroke-width:3;stroke-linecap:butt;stroke-linejoin:miter;stroke-opacity:1;stroke-miterlimit:4;stroke-dasharray:none" />
    <path
       sodipodi:nodetypes="ccc"
       inkscape:connector-curvature="0"
       id="path3757"
       d="m -1640,612.36218 c 0,0 -400,400.00002 80,-80 l 680,0"
       style="fill:none;stroke:#000000;stroke-width:3;stroke-linecap:butt;stroke-linejoin:miter;stroke-miterlimit:4;stroke-opacity:1;stroke-dasharray:none" />
    <path
       inkscape:connector-curvature="0"
       id="path5193"
       d="M -1560,532.36218 -1440,52.362183"
       style="fill:none;stroke:#000000;stroke-width:3;stroke-linecap:butt;stroke-linejoin:miter;stroke-opacity:1;marker-end:url(#Arrow1Lend);stroke-miterlimit:4;stroke-dasharray:none" />
    <path
       inkscape:connector-curvature="0"
       id="path5390"
       d="m -1560,532.36218 600,-140"
       style="fill:none;stroke:#000000;stroke-width:3;stroke-linecap:butt;stroke-linejoin:miter;stroke-opacity:1;marker-end:url(#Arrow1Lend);stroke-miterlimit:4;stroke-dasharray:none" />
    <path
       inkscape:connector-curvature="0"
       id="path5756"
       d="m -1560,532.36218 360,-280"
       style="fill:none;stroke:#000000;stroke-width:3;stroke-linecap:butt;stroke-linejoin:miter;stroke-opacity:1;marker-end:url(#Arrow1Lend);stroke-miterlimit:4;stroke-dasharray:none" />
    <path
       style="fill:none;stroke:#000000;stroke-width:3;stroke-linecap:butt;stroke-linejoin:miter;stroke-miterlimit:4;stroke-opacity:1;stroke-dasharray:none;marker-end:none"
       d="m -1440,52.36218 600,-140"
       id="path5940"
       inkscape:connector-curvature="0" />
    <path
       style="fill:none;stroke:#000000;stroke-width:3;stroke-linecap:butt;stroke-linejoin:miter;stroke-miterlimit:4;stroke-opacity:1;stroke-dasharray:none;marker-end:none"
       d="M -960,392.36218 -840,-87.637817"
       id="path6124"
       inkscape:connector-curvature="0" />
    <path
       inkscape:connector-curvature="0"
       id="path6308"
       d="m -1200,254.36218 600,-140"
       style="fill:none;stroke:#000000;stroke-width:3;stroke-linecap:butt;stroke-linejoin:miter;stroke-miterlimit:4;stroke-opacity:1;stroke-dasharray:none;marker-end:none" />
    <path
       inkscape:connector-curvature="0"
       id="path6310"
       d="m -598.36539,111.53977 120,-479.99999"
       style="fill:none;stroke:#000000;stroke-width:3;stroke-linecap:butt;stroke-linejoin:miter;stroke-miterlimit:4;stroke-opacity:1;stroke-dasharray:none;marker-end:none" />
    <path
       style="fill:none;stroke:#000000;stroke-width:3;stroke-linecap:butt;stroke-linejoin:miter;stroke-miterlimit:4;stroke-opacity:1;stroke-dasharray:none;marker-end:none"
       d="m -1196.3757,252.96113 120,-479.99999"
       id="path6312"
       inkscape:connector-curvature="0" />
    <path
       inkscape:connector-curvature="0"
       id="path6314"
       d="m -1074.3248,-226.43992 600.00002,-140"
       style="fill:none;stroke:#000000;stroke-width:3;stroke-linecap:butt;stroke-linejoin:miter;stroke-miterlimit:4;stroke-opacity:1;stroke-dasharray:none;marker-end:none" />
    <path
       style="fill:none;stroke:#000000;stroke-width:3;stroke-linecap:butt;stroke-linejoin:miter;stroke-miterlimit:4;stroke-opacity:1;stroke-dasharray:none;marker-end:none"
       d="m -964.01,390.94082 360,-280"
       id="path6316"
       inkscape:connector-curvature="0" />
    <path
       inkscape:connector-curvature="0"
       id="path6500"
       d="m -838.75108,-85.851181 360,-279.999999"
       style="fill:none;stroke:#000000;stroke-width:3;stroke-linecap:butt;stroke-linejoin:miter;stroke-miterlimit:4;stroke-opacity:1;stroke-dasharray:none;marker-end:none" />
    <path
       style="fill:none;stroke:#000000;stroke-width:3;stroke-linecap:butt;stroke-linejoin:miter;stroke-miterlimit:4;stroke-opacity:1;stroke-dasharray:none;marker-end:none"
       d="m -1440.802,51.529565 360,-279.999995"
       id="path6502"
       inkscape:connector-curvature="0" />
    <path
       inkscape:connector-curvature="0"
       id="path6518"
       d="m -1389.4948,403.85072 c 85.4465,-66.46981 156.9899,-121.86325 158.9855,-123.09654 2.746,-1.69717 3.155,-0.35694 1.6818,5.5124 -2.913,11.6067 2.3165,7.96267 16.7,-11.63665 l 12.6357,-17.21783 142.5947,-33.28301 c 78.42713,-18.30566 142.84756,-33.03021 143.15656,-32.72124 1.52211,1.52213 -47.53803,191.46545 -50.12026,194.04769 -1.66912,1.6691 -12.84063,2.76854 -25.26369,2.48632 l -22.27141,-0.50596 7.1429,5.71383 c 3.9285,3.1426 6.08191,5.74241 4.78526,5.77735 -1.29666,0.035 -123.57716,28.34925 -271.73456,62.92068 -148.1573,34.57143 -270.3383,62.85714 -271.5133,62.85714 -1.175,0 67.7743,-54.38438 153.2208,-120.85418 z"
       style="fill:#00ff00;fill-opacity:1;stroke:#00ff00;stroke-width:8.57142829999999911;stroke-miterlimit:4;stroke-opacity:1;stroke-dasharray:none;stroke-dashoffset:0;opacity:0.36238532" />
    <path
       inkscape:connector-curvature="0"
       id="path6520"
       d="m -1191.5661,245.00024 c 0.7577,-2.51957 15.7646,-62.4382 33.3489,-133.15248 17.5842,-70.714288 32.1573,-128.844794 32.3847,-129.178905 0.5926,-0.870614 280.04601,-66.096596 280.66961,-65.509836 0.28543,0.26844 -14.4474,60.40835 -32.73931,133.644245 l -33.25806,133.156176 -57.26066,13.2839 c -31.49338,7.30616 -94.89458,22.07108 -140.89168,32.81093 -68.0416,15.88706 -83.3742,18.67309 -82.2535,14.94597 z"
       style="opacity:0.36238535;fill:#00ff00;fill-opacity:1;stroke:#00ff00;stroke-width:8.5714283;stroke-miterlimit:4;stroke-opacity:1;stroke-dasharray:none;stroke-dashoffset:0" />
    <path
       inkscape:connector-curvature="0"
       id="path6522"
       d="m -1552.8245,519.32636 c 0,-1.7716 23.9357,-98.95777 53.1903,-215.96926 52.5575,-210.217031 53.2532,-212.672805 58.4764,-206.414465 5.2261,6.261795 5.2872,6.056225 5.3811,-18.108626 l 0.095,-24.44232 150.2636,-35.055988 c 82.645,-19.28079422 150.7065,-34.613058 151.2479,-34.071699 1.5998,1.599807 -63.6042,259.830218 -66.242,262.341058 -1.3268,1.26294 -12.5668,6.52798 -24.9777,11.70009 -21.0424,8.76921 -22.055,9.57392 -15.0046,11.92407 7.088,2.36265 -2.2205,10.12157 -148.8632,124.08288 -86.0332,66.85946 -158.0311,122.839 -159.9954,124.399 -2.4225,1.92386 -3.5715,1.80009 -3.5715,-0.38474 z"
       style="opacity:0.36238535;fill:#00ff00;fill-opacity:1;stroke:#00ff00;stroke-width:8.5714283;stroke-miterlimit:4;stroke-opacity:1;stroke-dasharray:none;stroke-dashoffset:0" />
    <path
       inkscape:connector-curvature="0"
       id="path6524"
       d="m -1421.3959,41.038104 c 2.3572,-2.245992 79.938,-62.834012 172.4019,-134.640049 140.8997,-109.420515 167.8256,-129.260805 166.3212,-122.553365 -0.9873,4.40169 -12.3539,49.72988 -25.2591,100.72931 l -23.464,92.726241 -137.1428,32.0365055 C -1431.438,47.389926 -1427.1228,46.495006 -1421.3959,41.038104 z"
       style="opacity:0.36238535;fill:#00ff00;fill-opacity:1;stroke:#00ff00;stroke-width:8.5714283;stroke-miterlimit:4;stroke-opacity:1;stroke-dasharray:none;stroke-dashoffset:0" />
    <path
       inkscape:connector-curvature="0"
       id="path6526"
       d="m -1123.4894,-27.646414 c 0.6682,-1.849628 12.0003,-46.755828 25.1825,-99.791546 13.1821,-53.03571 24.6298,-96.43058 25.4393,-96.43304 0.8094,-0.002 130.63878,-30.15683 288.50963,-67.0097 157.87085,-36.85288 287.34683,-66.69634 287.72434,-66.3188 0.37754,0.37753 -75.9522,60.29783 -169.62163,133.15622 l -170.30806,132.469784 -138.84485,32.351025 c -76.36463,17.793057 -141.19643,32.933315 -144.07053,33.645 -3.1858,0.788886 -4.7514,-0.02 -4.0107,-2.068943 z"
       style="opacity:0.36238535;fill:#00ff00;fill-opacity:1;stroke:#00ff00;stroke-width:8.5714283;stroke-miterlimit:4;stroke-opacity:1;stroke-dasharray:none;stroke-dashoffset:0" />
    <path
       inkscape:connector-curvature="0"
       id="path6528"
       d="m -903.25109,177.23682 c 0.89868,-2.96398 15.9352,-62.60335 33.41449,-132.531919 l 31.78053,-127.142857 174.53733,-135.714284 c 95.99554,-74.64286 175.4586,-136.09531 176.58457,-136.56101 1.12597,-0.4657 -22.94197,99.17716 -53.48432,221.42857 -65.92371,263.87212 -60.69163,243.74758 -63.22131,243.17158 -1.123,-0.25571 -5.25609,1.04143 -9.18466,2.88252 -3.92857,1.84111 -68.21428,17.5518 -142.85714,34.91268 -74.64286,17.36086 -138.74935,32.3254 -142.45887,33.25449 -5.62283,1.40831 -6.47283,0.79297 -5.11062,-3.69977 l 0,0 z"
       style="opacity:0.36238535;fill:#00ff00;fill-opacity:1;stroke:#00ff00;stroke-width:8.5714283;stroke-miterlimit:4;stroke-opacity:1;stroke-dasharray:none;stroke-dashoffset:0" />
    <path
       inkscape:connector-curvature="0"
       id="path6530"
       d="m -952.13997,372.56204 c 0.71271,-1.96428 11.36162,-44.09138 23.66424,-93.61578 l 22.36839,-90.04435 137.22988,-31.98626 c 75.47643,-17.59244 137.66803,-31.54811 138.20354,-31.01259 1.10886,1.10887 -318.58062,250.23041 -321.11247,250.23041 -0.90719,0 -1.0663,-1.60714 -0.35358,-3.57143 z"
       style="opacity:0.36238535;fill:#00ff00;fill-opacity:1;stroke:#00ff00;stroke-width:8.5714283;stroke-miterlimit:4;stroke-opacity:1;stroke-dasharray:none;stroke-dashoffset:0" />
    <path
       style="fill:none;stroke:#000000;stroke-width:3;stroke-linecap:butt;stroke-linejoin:miter;stroke-miterlimit:4;stroke-opacity:1;stroke-dasharray:none"
       d="m -1640,612.36218 c 0,0 -400,400.00002 80,-80 l 680,0"
       id="path6532"
       inkscape:connector-curvature="0"
       sodipodi:nodetypes="ccc" />
    <path
       inkscape:connector-curvature="0"
       id="path6534"
       d="m -1560,532.36218 440,-400"
       style="fill:none;stroke:#000000;stroke-width:1px;stroke-linecap:butt;stroke-linejoin:miter;stroke-opacity:1" />
    <g
       id="g6568"
       ns0:preamble="/home/francois/Documents/Mypapers/InkscapeHeader/header.inc"
       ns0:text="$v_1$"
       transform="matrix(7,0,0,7,-2588.5714,-474.28571)">
      <defs
         id="defs6570">
        <g
           id="g6572">
          <symbol
             id="textext-7dabbda0-0"
             overflow="visible"
             style="overflow:visible">
            <path
               id="path6575"
               d=""
               style="stroke:none"
               inkscape:connector-curvature="0" />
          </symbol>
          <symbol
             id="textext-7dabbda0-1"
             overflow="visible"
             style="overflow:visible">
            <path
               id="path6578"
               d="m 4.671875,-3.703125 c 0,-0.546875 -0.265625,-0.703125 -0.4375,-0.703125 -0.25,0 -0.5,0.265625 -0.5,0.484375 0,0.125 0.046875,0.1875 0.15625,0.296875 0.21875,0.203125 0.34375,0.453125 0.34375,0.8125 0,0.421875 -0.609375,2.703125 -1.765625,2.703125 -0.515625,0 -0.75,-0.34375 -0.75,-0.875 0,-0.546875 0.28125,-1.28125 0.578125,-2.109375 0.078125,-0.171875 0.125,-0.3125 0.125,-0.5 0,-0.4375 -0.3125,-0.8125 -0.8125,-0.8125 -0.9375,0 -1.3125,1.453125 -1.3125,1.53125 0,0.109375 0.09375,0.109375 0.109375,0.109375 0.109375,0 0.109375,-0.03125 0.15625,-0.1875 0.296875,-1 0.71875,-1.234375 1.015625,-1.234375 0.078125,0 0.25,0 0.25,0.3125 0,0.25 -0.109375,0.53125 -0.171875,0.703125 -0.4375,1.15625 -0.5625,1.609375 -0.5625,2.046875 0,1.078125 0.875,1.234375 1.328125,1.234375 1.671875,0 2.25,-3.296875 2.25,-3.8125 z m 0,0"
               style="stroke:none"
               inkscape:connector-curvature="0" />
          </symbol>
          <symbol
             id="textext-7dabbda0-2"
             overflow="visible"
             style="overflow:visible">
            <path
               id="path6581"
               d=""
               style="stroke:none"
               inkscape:connector-curvature="0" />
          </symbol>
          <symbol
             id="textext-7dabbda0-3"
             overflow="visible"
             style="overflow:visible">
            <path
               id="path6584"
               d="m 2.328125,-4.4375 c 0,-0.1875 0,-0.1875 -0.203125,-0.1875 -0.453125,0.4375 -1.078125,0.4375 -1.359375,0.4375 l 0,0.25 c 0.15625,0 0.625,0 1,-0.1875 l 0,3.546875 c 0,0.234375 0,0.328125 -0.6875,0.328125 l -0.265625,0 0,0.25 c 0.125,0 0.984375,-0.03125 1.234375,-0.03125 0.21875,0 1.09375,0.03125 1.25,0.03125 l 0,-0.25 -0.265625,0 c -0.703125,0 -0.703125,-0.09375 -0.703125,-0.328125 z m 0,0"
               style="stroke:none"
               inkscape:connector-curvature="0" />
          </symbol>
        </g>
      </defs>
      <g
         id="textext-7dabbda0-4">
        <g
           id="g6587"
           style="fill:#000000;fill-opacity:1">
          <use
             id="use6589"
             y="134.765"
             x="223.43201"
             xlink:href="#textext-7dabbda0-1"
             width="744.09448"
             height="1052.3622" />
        </g>
        <g
           id="g6591"
           style="fill:#000000;fill-opacity:1">
          <use
             id="use6593"
             y="136.259"
             x="228.261"
             xlink:href="#textext-7dabbda0-3"
             width="744.09448"
             height="1052.3622" />
        </g>
      </g>
    </g>
    <g
       ns0:text="$v_2$"
       ns0:preamble="/home/francois/Documents/Mypapers/InkscapeHeader/header.inc"
       transform="matrix(7,0,0,7,-2817.1428,-571.42857)"
       id="g6721">
      <defs
         id="defs6723">
        <g
           id="g6725">
          <symbol
             overflow="visible"
             id="textext-b6f13e5b-0">
            <path
               style="stroke:none;"
               d=""
               id="path6728" />
          </symbol>
          <symbol
             overflow="visible"
             id="textext-b6f13e5b-1">
            <path
               style="stroke:none;"
               d="M 4.671875 -3.703125 C 4.671875 -4.25 4.40625 -4.40625 4.234375 -4.40625 C 3.984375 -4.40625 3.734375 -4.140625 3.734375 -3.921875 C 3.734375 -3.796875 3.78125 -3.734375 3.890625 -3.625 C 4.109375 -3.421875 4.234375 -3.171875 4.234375 -2.8125 C 4.234375 -2.390625 3.625 -0.109375 2.46875 -0.109375 C 1.953125 -0.109375 1.71875 -0.453125 1.71875 -0.984375 C 1.71875 -1.53125 2 -2.265625 2.296875 -3.09375 C 2.375 -3.265625 2.421875 -3.40625 2.421875 -3.59375 C 2.421875 -4.03125 2.109375 -4.40625 1.609375 -4.40625 C 0.671875 -4.40625 0.296875 -2.953125 0.296875 -2.875 C 0.296875 -2.765625 0.390625 -2.765625 0.40625 -2.765625 C 0.515625 -2.765625 0.515625 -2.796875 0.5625 -2.953125 C 0.859375 -3.953125 1.28125 -4.1875 1.578125 -4.1875 C 1.65625 -4.1875 1.828125 -4.1875 1.828125 -3.875 C 1.828125 -3.625 1.71875 -3.34375 1.65625 -3.171875 C 1.21875 -2.015625 1.09375 -1.5625 1.09375 -1.125 C 1.09375 -0.046875 1.96875 0.109375 2.421875 0.109375 C 4.09375 0.109375 4.671875 -3.1875 4.671875 -3.703125 Z M 4.671875 -3.703125 "
               id="path6731" />
          </symbol>
          <symbol
             overflow="visible"
             id="textext-b6f13e5b-2">
            <path
               style="stroke:none;"
               d=""
               id="path6734" />
          </symbol>
          <symbol
             overflow="visible"
             id="textext-b6f13e5b-3">
            <path
               style="stroke:none;"
               d="M 3.515625 -1.265625 L 3.28125 -1.265625 C 3.265625 -1.109375 3.1875 -0.703125 3.09375 -0.640625 C 3.046875 -0.59375 2.515625 -0.59375 2.40625 -0.59375 L 1.125 -0.59375 C 1.859375 -1.234375 2.109375 -1.4375 2.515625 -1.765625 C 3.03125 -2.171875 3.515625 -2.609375 3.515625 -3.265625 C 3.515625 -4.109375 2.78125 -4.625 1.890625 -4.625 C 1.03125 -4.625 0.4375 -4.015625 0.4375 -3.375 C 0.4375 -3.03125 0.734375 -2.984375 0.8125 -2.984375 C 0.96875 -2.984375 1.171875 -3.109375 1.171875 -3.359375 C 1.171875 -3.484375 1.125 -3.734375 0.765625 -3.734375 C 0.984375 -4.21875 1.453125 -4.375 1.78125 -4.375 C 2.484375 -4.375 2.84375 -3.828125 2.84375 -3.265625 C 2.84375 -2.65625 2.40625 -2.1875 2.1875 -1.9375 L 0.515625 -0.265625 C 0.4375 -0.203125 0.4375 -0.1875 0.4375 0 L 3.3125 0 Z M 3.515625 -1.265625 "
               id="path6737" />
          </symbol>
        </g>
      </defs>
      <g
         id="textext-b6f13e5b-4">
        <g
           style="fill:rgb(0%,0%,0%);fill-opacity:1;"
           id="g6740">
          <use
             xlink:href="#textext-b6f13e5b-1"
             x="223.432"
             y="134.765"
             id="use6742" />
        </g>
        <g
           style="fill:rgb(0%,0%,0%);fill-opacity:1;"
           id="g6744">
          <use
             xlink:href="#textext-b6f13e5b-3"
             x="228.261"
             y="136.259"
             id="use6746" />
        </g>
      </g>
    </g>
    <g
       id="g6906"
       transform="matrix(7,0,0,7,-3085.7142,-785.71428)"
       ns0:preamble="/home/francois/Documents/Mypapers/InkscapeHeader/header.inc"
       ns0:text="$v_3$">
      <defs
         id="defs6908">
        <g
           id="g6910">
          <symbol
             id="textext-56341fb3-0"
             overflow="visible">
            <path
               id="path6913"
               d=""
               style="stroke:none;" />
          </symbol>
          <symbol
             id="textext-56341fb3-1"
             overflow="visible">
            <path
               id="path6916"
               d="M 4.671875 -3.703125 C 4.671875 -4.25 4.40625 -4.40625 4.234375 -4.40625 C 3.984375 -4.40625 3.734375 -4.140625 3.734375 -3.921875 C 3.734375 -3.796875 3.78125 -3.734375 3.890625 -3.625 C 4.109375 -3.421875 4.234375 -3.171875 4.234375 -2.8125 C 4.234375 -2.390625 3.625 -0.109375 2.46875 -0.109375 C 1.953125 -0.109375 1.71875 -0.453125 1.71875 -0.984375 C 1.71875 -1.53125 2 -2.265625 2.296875 -3.09375 C 2.375 -3.265625 2.421875 -3.40625 2.421875 -3.59375 C 2.421875 -4.03125 2.109375 -4.40625 1.609375 -4.40625 C 0.671875 -4.40625 0.296875 -2.953125 0.296875 -2.875 C 0.296875 -2.765625 0.390625 -2.765625 0.40625 -2.765625 C 0.515625 -2.765625 0.515625 -2.796875 0.5625 -2.953125 C 0.859375 -3.953125 1.28125 -4.1875 1.578125 -4.1875 C 1.65625 -4.1875 1.828125 -4.1875 1.828125 -3.875 C 1.828125 -3.625 1.71875 -3.34375 1.65625 -3.171875 C 1.21875 -2.015625 1.09375 -1.5625 1.09375 -1.125 C 1.09375 -0.046875 1.96875 0.109375 2.421875 0.109375 C 4.09375 0.109375 4.671875 -3.1875 4.671875 -3.703125 Z M 4.671875 -3.703125 "
               style="stroke:none;" />
          </symbol>
          <symbol
             id="textext-56341fb3-2"
             overflow="visible">
            <path
               id="path6919"
               d=""
               style="stroke:none;" />
          </symbol>
          <symbol
             id="textext-56341fb3-3"
             overflow="visible">
            <path
               id="path6922"
               d="M 1.90625 -2.328125 C 2.453125 -2.328125 2.84375 -1.953125 2.84375 -1.203125 C 2.84375 -0.34375 2.328125 -0.078125 1.9375 -0.078125 C 1.65625 -0.078125 1.03125 -0.15625 0.75 -0.578125 C 1.078125 -0.578125 1.15625 -0.8125 1.15625 -0.96875 C 1.15625 -1.1875 0.984375 -1.34375 0.765625 -1.34375 C 0.578125 -1.34375 0.375 -1.21875 0.375 -0.9375 C 0.375 -0.28125 1.09375 0.140625 1.9375 0.140625 C 2.90625 0.140625 3.578125 -0.515625 3.578125 -1.203125 C 3.578125 -1.75 3.140625 -2.296875 2.375 -2.453125 C 3.09375 -2.71875 3.359375 -3.234375 3.359375 -3.671875 C 3.359375 -4.21875 2.734375 -4.625 1.953125 -4.625 C 1.1875 -4.625 0.59375 -4.25 0.59375 -3.6875 C 0.59375 -3.453125 0.75 -3.328125 0.953125 -3.328125 C 1.171875 -3.328125 1.3125 -3.484375 1.3125 -3.671875 C 1.3125 -3.875 1.171875 -4.03125 0.953125 -4.046875 C 1.203125 -4.34375 1.671875 -4.421875 1.9375 -4.421875 C 2.25 -4.421875 2.6875 -4.265625 2.6875 -3.671875 C 2.6875 -3.375 2.59375 -3.046875 2.40625 -2.84375 C 2.1875 -2.578125 1.984375 -2.5625 1.640625 -2.53125 C 1.46875 -2.515625 1.453125 -2.515625 1.421875 -2.515625 C 1.40625 -2.515625 1.34375 -2.5 1.34375 -2.421875 C 1.34375 -2.328125 1.40625 -2.328125 1.53125 -2.328125 Z M 1.90625 -2.328125 "
               style="stroke:none;" />
          </symbol>
        </g>
      </defs>
      <g
         id="textext-56341fb3-4">
        <g
           id="g6925"
           style="fill:rgb(0%,0%,0%);fill-opacity:1;">
          <use
             id="use6927"
             y="134.765"
             x="223.432"
             xlink:href="#textext-56341fb3-1" />
        </g>
        <g
           id="g6929"
           style="fill:rgb(0%,0%,0%);fill-opacity:1;">
          <use
             id="use6931"
             y="136.259"
             x="228.261"
             xlink:href="#textext-56341fb3-3" />
        </g>
      </g>
    </g>
  </g>
</svg>
