<?xml version="1.0" encoding="UTF-8" standalone="no"?>
<!-- Created with Inkscape (http://www.inkscape.org/) -->

<svg
   xmlns:ns0="http://www.iki.fi/pav/software/textext/"
   xmlns:dc="http://purl.org/dc/elements/1.1/"
   xmlns:cc="http://creativecommons.org/ns#"
   xmlns:rdf="http://www.w3.org/1999/02/22-rdf-syntax-ns#"
   xmlns:svg="http://www.w3.org/2000/svg"
   xmlns="http://www.w3.org/2000/svg"
   xmlns:xlink="http://www.w3.org/1999/xlink"
   xmlns:sodipodi="http://sodipodi.sourceforge.net/DTD/sodipodi-0.dtd"
   xmlns:inkscape="http://www.inkscape.org/namespaces/inkscape"
   width="744.09448819"
   height="1052.3622047"
   id="svg3766"
   version="1.1"
   inkscape:version="0.48.3.1 r9886"
   sodipodi:docname="pinholecameramotion.svg"
   inkscape:export-filename="/home/francois/Documents/Courses/VisionAndImageProcessing/lectures/Francois/FIGURES/pinholecameramotion.png"
   inkscape:export-xdpi="90"
   inkscape:export-ydpi="90">
  <sodipodi:namedview
     id="base"
     pagecolor="#ffffff"
     bordercolor="#ffffff"
     borderopacity="0.0"
     inkscape:pageopacity="0.0"
     inkscape:pageshadow="0"
     inkscape:zoom="0.35"
     inkscape:cx="916.27157"
     inkscape:cy="684.61017"
     inkscape:document-units="px"
     inkscape:current-layer="layer1"
     showgrid="false"
     inkscape:window-width="1680"
     inkscape:window-height="1026"
     inkscape:window-x="0"
     inkscape:window-y="24"
     inkscape:window-maximized="1">
    <inkscape:grid
       type="xygrid"
       id="grid3774" />
  </sodipodi:namedview>
  <defs
     id="defs3768">
    <marker
       style="overflow:visible;"
       id="Arrow1Lend"
       refX="0.0"
       refY="0.0"
       orient="auto"
       inkscape:stockid="Arrow1Lend">
      <path
         transform="scale(0.8) rotate(180) translate(12.5,0)"
         style="fill-rule:evenodd;stroke:#000000;stroke-width:1.0pt;"
         d="M 0.0,0.0 L 5.0,-5.0 L -12.5,0.0 L 5.0,5.0 L 0.0,0.0 z "
         id="path4355" />
    </marker>
    <marker
       style="overflow:visible"
       id="Arrow1Lstart"
       refX="0.0"
       refY="0.0"
       orient="auto"
       inkscape:stockid="Arrow1Lstart">
      <path
         transform="scale(0.8) translate(12.5,0)"
         style="fill-rule:evenodd;stroke:#000000;stroke-width:1.0pt"
         d="M 0.0,0.0 L 5.0,-5.0 L -12.5,0.0 L 5.0,5.0 L 0.0,0.0 z "
         id="path4352" />
    </marker>
  </defs>
  <metadata
     id="metadata3771">
    <rdf:RDF>
      <cc:Work
         rdf:about="">
        <dc:format>image/svg+xml</dc:format>
        <dc:type
           rdf:resource="http://purl.org/dc/dcmitype/StillImage" />
        <dc:title></dc:title>
      </cc:Work>
    </rdf:RDF>
  </metadata>
  <g
     inkscape:label="Layer 1"
     inkscape:groupmode="layer"
     id="layer1">
    <rect
       style="fill:none;stroke:#000000;stroke-width:3.22370791;stroke-miterlimit:4;stroke-opacity:1;stroke-dasharray:none;stroke-dashoffset:0"
       id="rect3776"
       width="1062.3232"
       height="640"
       x="-415.69171"
       y="110.09694"
       transform="matrix(0.86602641,-0.49999826,0,1,0,0)" />
    <path
       style="fill:none;stroke:#000000;stroke-width:3;stroke-linecap:butt;stroke-linejoin:miter;stroke-opacity:1;stroke-miterlimit:4;stroke-dasharray:none;marker-end:url(#Arrow1Lend)"
       d="m -680,412.36218 0,-840"
       id="path3778"
       inkscape:connector-curvature="0" />
    <path
       inkscape:connector-curvature="0"
       id="path4288"
       d="m -680,412.36218 -727.4614,420"
       style="fill:none;stroke:#000000;stroke-width:3;stroke-linecap:butt;stroke-linejoin:miter;stroke-miterlimit:4;stroke-opacity:1;stroke-dasharray:none;marker-end:url(#Arrow1Lend)" />
    <path
       style="fill:none;stroke:#000000;stroke-width:3;stroke-linecap:butt;stroke-linejoin:miter;stroke-opacity:1;stroke-miterlimit:4;stroke-dasharray:none"
       d="m -680,412.36218 320,0"
       id="path4290"
       inkscape:connector-curvature="0" />
    <path
       style="fill:none;stroke:#000000;stroke-width:3;stroke-linecap:butt;stroke-linejoin:miter;stroke-opacity:1;stroke-miterlimit:4;stroke-dasharray:24,24;stroke-dashoffset:0"
       d="m 120,412.36218 -480,0"
       id="path4292"
       inkscape:connector-curvature="0" />
    <path
       style="fill:none;stroke:#000000;stroke-width:3;stroke-linecap:butt;stroke-linejoin:miter;stroke-opacity:1;stroke-miterlimit:4;stroke-dasharray:none;marker-start:url(#Arrow1Lstart)"
       d="m 1240,412.36218 -1120,0"
       id="path4294"
       inkscape:connector-curvature="0" />
    <text
       xml:space="preserve"
       style="font-size:72px;font-style:normal;font-weight:normal;line-height:125%;letter-spacing:0px;word-spacing:0px;fill:#000000;fill-opacity:1;stroke:none;font-family:Sans"
       x="-782.85712"
       y="355.21933"
       id="text4296"
       sodipodi:linespacing="125%"><tspan
         sodipodi:role="line"
         id="tspan4298"
         x="-782.85712"
         y="355.21933" /></text>
    <g
       transform="matrix(8,0,0,8,-2468.8128,-577.80726)"
       ns0:text="$O$"
       ns0:preamble="/home/francois/Documents/Mypapers/InkscapeHeader/header.inc"
       id="g4314">
      <defs
         id="defs4316">
        <g
           id="g4318">
          <symbol
             style="overflow:visible"
             overflow="visible"
             id="textext-0db4b59d-0">
            <path
               inkscape:connector-curvature="0"
               style="stroke:none"
               d="m 7.375,-4.34375 c 0,-1.609375 -1.0625,-2.6875 -2.546875,-2.6875 -2.140625,0 -4.34375,2.265625 -4.34375,4.59375 0,1.65625 1.125,2.65625 2.5625,2.65625 2.109375,0 4.328125,-2.1875 4.328125,-4.5625 z m -4.28125,4.296875 c -0.984375,0 -1.671875,-0.796875 -1.671875,-2.109375 0,-0.453125 0.140625,-1.90625 0.90625,-3.0625 0.6875,-1.046875 1.65625,-1.5625 2.453125,-1.5625 0.8125,0 1.703125,0.5625 1.703125,2.046875 0,0.71875 -0.265625,2.265625 -1.25,3.5 C 4.75,-0.625 3.9375,-0.046875 3.09375,-0.046875 z m 0,0"
               id="path4321" />
          </symbol>
        </g>
      </defs>
      <g
         id="textext-0db4b59d-1">
        <g
           style="fill:#000000;fill-opacity:1"
           id="g4324">
          <use
             height="1052.3622"
             width="744.09448"
             xlink:href="#textext-0db4b59d-0"
             x="223.43201"
             y="134.765"
             id="use4326" />
        </g>
      </g>
    </g>
    <g
       id="g5188"
       ns0:preamble="/home/francois/Documents/Mypapers/InkscapeHeader/header.inc"
       ns0:text="$x_w$"
       transform="matrix(7,0,0,7,-3022.8571,-54.285714)">
      <defs
         id="defs5190">
        <g
           id="g5192">
          <symbol
             id="textext-e638bcd4-0"
             overflow="visible"
             style="overflow:visible">
            <path
               id="path5195"
               d="M 3.328125,-3.015625 C 3.390625,-3.265625 3.625,-4.1875 4.3125,-4.1875 c 0.046875,0 0.296875,0 0.5,0.125 C 4.53125,-4 4.34375,-3.765625 4.34375,-3.515625 c 0,0.15625 0.109375,0.34375 0.375,0.34375 0.21875,0 0.53125,-0.171875 0.53125,-0.578125 0,-0.515625 -0.578125,-0.65625 -0.921875,-0.65625 -0.578125,0 -0.921875,0.53125 -1.046875,0.75 -0.25,-0.65625 -0.78125,-0.75 -1.078125,-0.75 -1.03125,0 -1.609375,1.28125 -1.609375,1.53125 0,0.109375 0.109375,0.109375 0.125,0.109375 0.078125,0 0.109375,-0.03125 0.125,-0.109375 0.34375,-1.0625 1,-1.3125 1.34375,-1.3125 0.1875,0 0.53125,0.09375 0.53125,0.671875 0,0.3125 -0.171875,0.96875 -0.53125,2.375 -0.15625,0.609375 -0.515625,1.03125 -0.953125,1.03125 -0.0625,0 -0.28125,0 -0.5,-0.125 0.25,-0.0625 0.46875,-0.265625 0.46875,-0.546875 0,-0.265625 -0.21875,-0.34375 -0.359375,-0.34375 -0.3125,0 -0.546875,0.25 -0.546875,0.578125 0,0.453125 0.484375,0.65625 0.921875,0.65625 0.671875,0 1.03125,-0.703125 1.046875,-0.75 0.125,0.359375 0.484375,0.75 1.078125,0.75 1.03125,0 1.59375,-1.28125 1.59375,-1.53125 0,-0.109375 -0.078125,-0.109375 -0.109375,-0.109375 -0.09375,0 -0.109375,0.046875 -0.140625,0.109375 -0.328125,1.078125 -1,1.3125 -1.3125,1.3125 -0.390625,0 -0.546875,-0.3125 -0.546875,-0.65625 0,-0.21875 0.046875,-0.4375 0.15625,-0.875 z m 0,0"
               style="stroke:none"
               inkscape:connector-curvature="0" />
          </symbol>
          <symbol
             id="textext-e638bcd4-1"
             overflow="visible"
             style="overflow:visible">
            <path
               id="path5198"
               d="m 3.671875,-2.21875 c 0.046875,-0.1875 0.125,-0.53125 0.125,-0.5625 C 3.796875,-2.921875 3.6875,-3 3.5625,-3 3.4375,-3 3.3125,-2.921875 3.265625,-2.796875 3.25,-2.75 3.171875,-2.453125 3.125,-2.28125 3.03125,-1.875 3.03125,-1.875 2.921875,-1.484375 2.84375,-1.09375 2.828125,-1.03125 2.8125,-0.84375 2.84375,-0.703125 2.78125,-0.5625 2.625,-0.359375 2.53125,-0.25 2.390625,-0.125 2.15625,-0.125 1.875,-0.125 1.53125,-0.21875 1.53125,-0.765625 1.53125,-1.125 1.71875,-1.640625 1.859375,-2 1.984375,-2.296875 2,-2.359375 2,-2.484375 2,-2.8125 1.71875,-3.078125 1.34375,-3.078125 0.640625,-3.078125 0.328125,-2.125 0.328125,-2 c 0,0.078125 0.09375,0.078125 0.125,0.078125 0.09375,0 0.09375,-0.03125 0.125,-0.109375 C 0.75,-2.609375 1.046875,-2.875 1.328125,-2.875 1.4375,-2.875 1.5,-2.796875 1.5,-2.640625 c 0,0.171875 -0.0625,0.3125 -0.09375,0.40625 C 1,-1.21875 1,-1.078125 1,-0.859375 1,-0.03125 1.75,0.0625 2.125,0.0625 c 0.140625,0 0.46875,0 0.78125,-0.453125 C 3.078125,-0.078125 3.453125,0.0625 3.875,0.0625 4.5,0.0625 4.8125,-0.46875 4.953125,-0.75 5.25,-1.34375 5.4375,-2.203125 5.4375,-2.53125 c 0,-0.515625 -0.296875,-0.546875 -0.34375,-0.546875 -0.1875,0 -0.390625,0.1875 -0.390625,0.375 0,0.109375 0.078125,0.171875 0.125,0.203125 C 5,-2.359375 5.09375,-2.15625 5.09375,-1.9375 c 0,0.09375 -0.296875,1.8125 -1.1875,1.8125 -0.5625,0 -0.5625,-0.5 -0.5625,-0.625 0,-0.1875 0.03125,-0.296875 0.125,-0.6875 z m 0,0"
               style="stroke:none"
               inkscape:connector-curvature="0" />
          </symbol>
        </g>
      </defs>
      <g
         id="textext-e638bcd4-2">
        <g
           id="g5201"
           style="fill:#000000;fill-opacity:1">
          <use
             id="use5203"
             y="134.765"
             x="223.43201"
             xlink:href="#textext-e638bcd4-0"
             width="744.09448"
             height="1052.3622" />
        </g>
        <g
           id="g5205"
           style="fill:#000000;fill-opacity:1">
          <use
             id="use5207"
             y="136.259"
             x="229.12601"
             xlink:href="#textext-e638bcd4-1"
             width="744.09448"
             height="1052.3622" />
        </g>
      </g>
    </g>
    <g
       ns0:text="$y_w$"
       ns0:preamble="/home/francois/Documents/Mypapers/InkscapeHeader/header.inc"
       transform="matrix(7,0,0,7,-2197.1428,-1362.8571)"
       id="g5307">
      <defs
         id="defs5309">
        <g
           id="g5311">
          <symbol
             overflow="visible"
             id="textext-433b9b92-0">
            <path
               style="stroke:none;"
               d="M 4.84375 -3.796875 C 4.890625 -3.9375 4.890625 -3.953125 4.890625 -4.03125 C 4.890625 -4.203125 4.75 -4.296875 4.59375 -4.296875 C 4.5 -4.296875 4.34375 -4.234375 4.25 -4.09375 C 4.234375 -4.03125 4.140625 -3.734375 4.109375 -3.546875 C 4.03125 -3.296875 3.96875 -3.015625 3.90625 -2.75 L 3.453125 -0.953125 C 3.421875 -0.8125 2.984375 -0.109375 2.328125 -0.109375 C 1.828125 -0.109375 1.71875 -0.546875 1.71875 -0.921875 C 1.71875 -1.375 1.890625 -2 2.21875 -2.875 C 2.375 -3.28125 2.421875 -3.390625 2.421875 -3.59375 C 2.421875 -4.03125 2.109375 -4.40625 1.609375 -4.40625 C 0.65625 -4.40625 0.296875 -2.953125 0.296875 -2.875 C 0.296875 -2.765625 0.390625 -2.765625 0.40625 -2.765625 C 0.515625 -2.765625 0.515625 -2.796875 0.5625 -2.953125 C 0.84375 -3.890625 1.234375 -4.1875 1.578125 -4.1875 C 1.65625 -4.1875 1.828125 -4.1875 1.828125 -3.875 C 1.828125 -3.625 1.71875 -3.359375 1.65625 -3.171875 C 1.25 -2.109375 1.078125 -1.546875 1.078125 -1.078125 C 1.078125 -0.1875 1.703125 0.109375 2.296875 0.109375 C 2.6875 0.109375 3.015625 -0.0625 3.296875 -0.34375 C 3.171875 0.171875 3.046875 0.671875 2.65625 1.203125 C 2.390625 1.53125 2.015625 1.828125 1.5625 1.828125 C 1.421875 1.828125 0.96875 1.796875 0.796875 1.40625 C 0.953125 1.40625 1.09375 1.40625 1.21875 1.28125 C 1.328125 1.203125 1.421875 1.0625 1.421875 0.875 C 1.421875 0.5625 1.15625 0.53125 1.0625 0.53125 C 0.828125 0.53125 0.5 0.6875 0.5 1.171875 C 0.5 1.671875 0.9375 2.046875 1.5625 2.046875 C 2.578125 2.046875 3.609375 1.140625 3.890625 0.015625 Z M 4.84375 -3.796875 "
               id="path5314" />
          </symbol>
          <symbol
             overflow="visible"
             id="textext-433b9b92-1">
            <path
               style="stroke:none;"
               d="M 3.671875 -2.21875 C 3.71875 -2.40625 3.796875 -2.75 3.796875 -2.78125 C 3.796875 -2.921875 3.6875 -3 3.5625 -3 C 3.4375 -3 3.3125 -2.921875 3.265625 -2.796875 C 3.25 -2.75 3.171875 -2.453125 3.125 -2.28125 C 3.03125 -1.875 3.03125 -1.875 2.921875 -1.484375 C 2.84375 -1.09375 2.828125 -1.03125 2.8125 -0.84375 C 2.84375 -0.703125 2.78125 -0.5625 2.625 -0.359375 C 2.53125 -0.25 2.390625 -0.125 2.15625 -0.125 C 1.875 -0.125 1.53125 -0.21875 1.53125 -0.765625 C 1.53125 -1.125 1.71875 -1.640625 1.859375 -2 C 1.984375 -2.296875 2 -2.359375 2 -2.484375 C 2 -2.8125 1.71875 -3.078125 1.34375 -3.078125 C 0.640625 -3.078125 0.328125 -2.125 0.328125 -2 C 0.328125 -1.921875 0.421875 -1.921875 0.453125 -1.921875 C 0.546875 -1.921875 0.546875 -1.953125 0.578125 -2.03125 C 0.75 -2.609375 1.046875 -2.875 1.328125 -2.875 C 1.4375 -2.875 1.5 -2.796875 1.5 -2.640625 C 1.5 -2.46875 1.4375 -2.328125 1.40625 -2.234375 C 1 -1.21875 1 -1.078125 1 -0.859375 C 1 -0.03125 1.75 0.0625 2.125 0.0625 C 2.265625 0.0625 2.59375 0.0625 2.90625 -0.390625 C 3.078125 -0.078125 3.453125 0.0625 3.875 0.0625 C 4.5 0.0625 4.8125 -0.46875 4.953125 -0.75 C 5.25 -1.34375 5.4375 -2.203125 5.4375 -2.53125 C 5.4375 -3.046875 5.140625 -3.078125 5.09375 -3.078125 C 4.90625 -3.078125 4.703125 -2.890625 4.703125 -2.703125 C 4.703125 -2.59375 4.78125 -2.53125 4.828125 -2.5 C 5 -2.359375 5.09375 -2.15625 5.09375 -1.9375 C 5.09375 -1.84375 4.796875 -0.125 3.90625 -0.125 C 3.34375 -0.125 3.34375 -0.625 3.34375 -0.75 C 3.34375 -0.9375 3.375 -1.046875 3.46875 -1.4375 Z M 3.671875 -2.21875 "
               id="path5317" />
          </symbol>
        </g>
      </defs>
      <g
         id="textext-433b9b92-2">
        <g
           style="fill:rgb(0%,0%,0%);fill-opacity:1;"
           id="g5320">
          <use
             xlink:href="#textext-433b9b92-0"
             x="223.432"
             y="134.765"
             id="use5322" />
        </g>
        <g
           style="fill:rgb(0%,0%,0%);fill-opacity:1;"
           id="g5324">
          <use
             xlink:href="#textext-433b9b92-1"
             x="228.317"
             y="136.259"
             id="use5326" />
        </g>
      </g>
    </g>
    <g
       id="g5450"
       transform="matrix(7,0,0,7,-265.71423,-525.71424)"
       ns0:preamble="/home/francois/Documents/Mypapers/InkscapeHeader/header.inc"
       ns0:text="$z_w$">
      <defs
         id="defs5452">
        <g
           id="g5454">
          <symbol
             id="textext-e0a3a07d-0"
             overflow="visible">
            <path
               id="path5457"
               d="M 1.328125 -0.828125 C 1.859375 -1.40625 2.15625 -1.65625 2.515625 -1.96875 C 2.515625 -1.96875 3.125 -2.5 3.484375 -2.859375 C 4.4375 -3.78125 4.65625 -4.265625 4.65625 -4.3125 C 4.65625 -4.40625 4.5625 -4.40625 4.546875 -4.40625 C 4.46875 -4.40625 4.453125 -4.390625 4.390625 -4.296875 C 4.09375 -3.8125 3.890625 -3.65625 3.65625 -3.65625 C 3.40625 -3.65625 3.296875 -3.8125 3.140625 -3.984375 C 2.953125 -4.203125 2.78125 -4.40625 2.453125 -4.40625 C 1.703125 -4.40625 1.25 -3.484375 1.25 -3.265625 C 1.25 -3.21875 1.28125 -3.15625 1.359375 -3.15625 C 1.453125 -3.15625 1.46875 -3.203125 1.5 -3.265625 C 1.6875 -3.734375 2.265625 -3.734375 2.34375 -3.734375 C 2.546875 -3.734375 2.734375 -3.671875 2.96875 -3.59375 C 3.375 -3.4375 3.484375 -3.4375 3.734375 -3.4375 C 3.375 -3.015625 2.546875 -2.296875 2.359375 -2.140625 L 1.453125 -1.296875 C 0.78125 -0.625 0.421875 -0.0625 0.421875 0.015625 C 0.421875 0.109375 0.53125 0.109375 0.546875 0.109375 C 0.625 0.109375 0.640625 0.09375 0.703125 -0.015625 C 0.9375 -0.375 1.234375 -0.640625 1.5625 -0.640625 C 1.78125 -0.640625 1.890625 -0.546875 2.140625 -0.265625 C 2.296875 -0.046875 2.484375 0.109375 2.765625 0.109375 C 3.765625 0.109375 4.34375 -1.15625 4.34375 -1.421875 C 4.34375 -1.46875 4.296875 -1.53125 4.21875 -1.53125 C 4.125 -1.53125 4.109375 -1.46875 4.078125 -1.390625 C 3.84375 -0.75 3.203125 -0.5625 2.875 -0.5625 C 2.6875 -0.5625 2.5 -0.625 2.296875 -0.6875 C 1.953125 -0.8125 1.796875 -0.859375 1.59375 -0.859375 C 1.578125 -0.859375 1.421875 -0.859375 1.328125 -0.828125 Z M 1.328125 -0.828125 "
               style="stroke:none;" />
          </symbol>
          <symbol
             id="textext-e0a3a07d-1"
             overflow="visible">
            <path
               id="path5460"
               d="M 3.671875 -2.21875 C 3.71875 -2.40625 3.796875 -2.75 3.796875 -2.78125 C 3.796875 -2.921875 3.6875 -3 3.5625 -3 C 3.4375 -3 3.3125 -2.921875 3.265625 -2.796875 C 3.25 -2.75 3.171875 -2.453125 3.125 -2.28125 C 3.03125 -1.875 3.03125 -1.875 2.921875 -1.484375 C 2.84375 -1.09375 2.828125 -1.03125 2.8125 -0.84375 C 2.84375 -0.703125 2.78125 -0.5625 2.625 -0.359375 C 2.53125 -0.25 2.390625 -0.125 2.15625 -0.125 C 1.875 -0.125 1.53125 -0.21875 1.53125 -0.765625 C 1.53125 -1.125 1.71875 -1.640625 1.859375 -2 C 1.984375 -2.296875 2 -2.359375 2 -2.484375 C 2 -2.8125 1.71875 -3.078125 1.34375 -3.078125 C 0.640625 -3.078125 0.328125 -2.125 0.328125 -2 C 0.328125 -1.921875 0.421875 -1.921875 0.453125 -1.921875 C 0.546875 -1.921875 0.546875 -1.953125 0.578125 -2.03125 C 0.75 -2.609375 1.046875 -2.875 1.328125 -2.875 C 1.4375 -2.875 1.5 -2.796875 1.5 -2.640625 C 1.5 -2.46875 1.4375 -2.328125 1.40625 -2.234375 C 1 -1.21875 1 -1.078125 1 -0.859375 C 1 -0.03125 1.75 0.0625 2.125 0.0625 C 2.265625 0.0625 2.59375 0.0625 2.90625 -0.390625 C 3.078125 -0.078125 3.453125 0.0625 3.875 0.0625 C 4.5 0.0625 4.8125 -0.46875 4.953125 -0.75 C 5.25 -1.34375 5.4375 -2.203125 5.4375 -2.53125 C 5.4375 -3.046875 5.140625 -3.078125 5.09375 -3.078125 C 4.90625 -3.078125 4.703125 -2.890625 4.703125 -2.703125 C 4.703125 -2.59375 4.78125 -2.53125 4.828125 -2.5 C 5 -2.359375 5.09375 -2.15625 5.09375 -1.9375 C 5.09375 -1.84375 4.796875 -0.125 3.90625 -0.125 C 3.34375 -0.125 3.34375 -0.625 3.34375 -0.75 C 3.34375 -0.9375 3.375 -1.046875 3.46875 -1.4375 Z M 3.671875 -2.21875 "
               style="stroke:none;" />
          </symbol>
        </g>
      </defs>
      <g
         id="textext-e0a3a07d-2">
        <g
           id="g5463"
           style="fill:rgb(0%,0%,0%);fill-opacity:1;">
          <use
             id="use5465"
             y="134.765"
             x="223.432"
             xlink:href="#textext-e0a3a07d-0" />
        </g>
        <g
           id="g5467"
           style="fill:rgb(0%,0%,0%);fill-opacity:1;">
          <use
             id="use5469"
             y="136.259"
             x="228.065"
             xlink:href="#textext-e0a3a07d-1" />
        </g>
      </g>
    </g>
    <path
       sodipodi:type="arc"
       style="fill:#000000;fill-opacity:1;stroke:#000000;stroke-width:3;stroke-miterlimit:4;stroke-opacity:1;stroke-dasharray:none;stroke-dashoffset:0"
       id="path5531"
       sodipodi:cx="-1382.8572"
       sodipodi:cy="-227.63782"
       sodipodi:rx="5.7142859"
       sodipodi:ry="8.5714283"
       d="m -1377.1429,-227.63782 a 5.7142859,8.5714283 0 1 1 -11.4286,0 5.7142859,8.5714283 0 1 1 11.4286,0 z"
       transform="matrix(1.4438977,0,0,1,2093.4535,640)" />
    <path
       style="fill:none;stroke:#000000;stroke-width:3;stroke-linecap:butt;stroke-linejoin:miter;stroke-miterlimit:4;stroke-opacity:1;stroke-dasharray:none"
       d="m 451.42857,806.6479 c 0,0 153.96464,-95.50141 202.85714,-168.57143 33.83826,-50.5714 37.62077,-115.76415 54.28572,-174.28572 23.97705,-84.19917 25.54395,-176.49918 65.71428,-254.28571 C 803.43695,153.05607 846.94132,102.72771 897.14286,63.790754 966.4799,10.012066 1050.1841,-25.460969 1134.2857,-50.49496 1374.5395,-122.00984 1880,-147.63782 1880,-147.63782"
       id="path5533"
       inkscape:connector-curvature="0"
       sodipodi:nodetypes="caaaaac" />
    <path
       style="fill:none;stroke:#000000;stroke-width:1px;stroke-linecap:butt;stroke-linejoin:miter;stroke-opacity:1"
       d="M -685.71429,415.21933 448.57143,803.79075"
       id="path5535"
       inkscape:connector-curvature="0" />
    <path
       sodipodi:nodetypes="cc"
       style="fill:none;stroke:#000000;stroke-width:1px;stroke-linecap:butt;stroke-linejoin:miter;stroke-opacity:1"
       d="M -674.28571,409.50504 1880,-147.63782"
       id="path5537"
       inkscape:connector-curvature="0" />
    <path
       style="fill:none;stroke:#000000;stroke-width:1px;stroke-linecap:butt;stroke-linejoin:miter;stroke-opacity:1"
       d="M -682.85714,412.36218 705.71429,460.93361"
       id="path5541"
       inkscape:connector-curvature="0" />
    <path
       style="fill:none;stroke:#000000;stroke-width:1px;stroke-linecap:butt;stroke-linejoin:miter;stroke-opacity:1"
       d="m -685.71429,409.50504 1571.42858,-340"
       id="path5545"
       inkscape:connector-curvature="0" />
    <path
       style="fill:none;stroke:#000000;stroke-width:3;stroke-linecap:butt;stroke-linejoin:miter;stroke-miterlimit:4;stroke-opacity:1;stroke-dasharray:none"
       d="m -255.71429,560.93361 c 0,0 104.36308,-29.60767 127.14286,-51.42857 22.77978,-21.8209 45.452604,-39.68652 61.428571,-77.14286 19.779401,-46.37365 16.830105,-65.48413 46.838283,-114.20758 24.9613646,-40.52909 56.226666,-61.73764 96.137806,-81.89415 29.74623,-15.02288 54.29468,-25.37023 89.88106,-31.04112 46.0075,-7.33157 183.77354,-13.65678 130,-11.42856"
       id="path5549"
       inkscape:connector-curvature="0"
       sodipodi:nodetypes="csssssc" />
    <g
       transform="matrix(7,0,0,7,-1457.1719,-547.52844)"
       ns0:text="$P$"
       ns0:preamble="/home/francois/Documents/Mypapers/InkscapeHeader/header.inc"
       id="g5672">
      <defs
         id="defs5674">
        <g
           id="g5676">
          <symbol
             style="overflow:visible"
             overflow="visible"
             id="textext-2b6f414f-0">
            <path
               inkscape:connector-curvature="0"
               style="stroke:none"
               d="m 3.015625,-3.15625 1.703125,0 c 1.40625,0 2.796875,-1.03125 2.796875,-2.140625 0,-0.78125 -0.65625,-1.515625 -1.96875,-1.515625 l -3.21875,0 c -0.1875,0 -0.296875,0 -0.296875,0.1875 0,0.125 0.078125,0.125 0.28125,0.125 0.125,0 0.3125,0.015625 0.421875,0.015625 0.171875,0.03125 0.21875,0.046875 0.21875,0.171875 0,0.03125 0,0.0625 -0.03125,0.1875 l -1.34375,5.34375 c -0.09375,0.390625 -0.109375,0.46875 -0.90625,0.46875 -0.15625,0 -0.265625,0 -0.265625,0.1875 C 0.40625,0 0.515625,0 0.546875,0 0.828125,0 1.53125,-0.03125 1.8125,-0.03125 c 0.21875,0 0.4375,0.015625 0.640625,0.015625 0.21875,0 0.4375,0.015625 0.640625,0.015625 0.078125,0 0.203125,0 0.203125,-0.203125 0,-0.109375 -0.09375,-0.109375 -0.28125,-0.109375 -0.359375,0 -0.640625,0 -0.640625,-0.171875 0,-0.0625 0.015625,-0.109375 0.03125,-0.171875 z M 3.734375,-6.125 C 3.828125,-6.46875 3.84375,-6.5 4.28125,-6.5 l 0.953125,0 c 0.828125,0 1.359375,0.265625 1.359375,0.953125 0,0.390625 -0.203125,1.25 -0.59375,1.609375 -0.5,0.453125 -1.09375,0.53125 -1.53125,0.53125 l -1.40625,0 z m 0,0"
               id="path5679" />
          </symbol>
        </g>
      </defs>
      <g
         id="textext-2b6f414f-1">
        <g
           style="fill:#000000;fill-opacity:1"
           id="g5682">
          <use
             height="1052.3622"
             width="744.09448"
             xlink:href="#textext-2b6f414f-0"
             x="223.43201"
             y="134.765"
             id="use5684" />
        </g>
      </g>
    </g>
    <path
       inkscape:connector-curvature="0"
       id="path5761"
       d="m 95,412.36218 0,-250"
       style="fill:none;stroke:#000000;stroke-width:3;stroke-linecap:butt;stroke-linejoin:miter;stroke-miterlimit:4;stroke-opacity:1;stroke-dasharray:none;marker-end:url(#Arrow1Lend)" />
    <path
       style="fill:none;stroke:#000000;stroke-width:3;stroke-linecap:butt;stroke-linejoin:miter;stroke-miterlimit:4;stroke-opacity:1;stroke-dasharray:none;marker-end:url(#Arrow1Lend)"
       d="m 95,412.36218 -216.50636,125"
       id="path5960"
       inkscape:connector-curvature="0" />
    <g
       id="g6065"
       transform="matrix(7,0,0,7,-1672.9219,-368.71594)"
       ns0:preamble="/home/francois/Documents/Mypapers/InkscapeHeader/header.inc"
       ns0:text="$x_c$">
      <defs
         id="defs6067">
        <g
           id="g6069">
          <symbol
             id="textext-698a2318-0"
             overflow="visible">
            <path
               id="path6072"
               d="M 3.328125 -3.015625 C 3.390625 -3.265625 3.625 -4.1875 4.3125 -4.1875 C 4.359375 -4.1875 4.609375 -4.1875 4.8125 -4.0625 C 4.53125 -4 4.34375 -3.765625 4.34375 -3.515625 C 4.34375 -3.359375 4.453125 -3.171875 4.71875 -3.171875 C 4.9375 -3.171875 5.25 -3.34375 5.25 -3.75 C 5.25 -4.265625 4.671875 -4.40625 4.328125 -4.40625 C 3.75 -4.40625 3.40625 -3.875 3.28125 -3.65625 C 3.03125 -4.3125 2.5 -4.40625 2.203125 -4.40625 C 1.171875 -4.40625 0.59375 -3.125 0.59375 -2.875 C 0.59375 -2.765625 0.703125 -2.765625 0.71875 -2.765625 C 0.796875 -2.765625 0.828125 -2.796875 0.84375 -2.875 C 1.1875 -3.9375 1.84375 -4.1875 2.1875 -4.1875 C 2.375 -4.1875 2.71875 -4.09375 2.71875 -3.515625 C 2.71875 -3.203125 2.546875 -2.546875 2.1875 -1.140625 C 2.03125 -0.53125 1.671875 -0.109375 1.234375 -0.109375 C 1.171875 -0.109375 0.953125 -0.109375 0.734375 -0.234375 C 0.984375 -0.296875 1.203125 -0.5 1.203125 -0.78125 C 1.203125 -1.046875 0.984375 -1.125 0.84375 -1.125 C 0.53125 -1.125 0.296875 -0.875 0.296875 -0.546875 C 0.296875 -0.09375 0.78125 0.109375 1.21875 0.109375 C 1.890625 0.109375 2.25 -0.59375 2.265625 -0.640625 C 2.390625 -0.28125 2.75 0.109375 3.34375 0.109375 C 4.375 0.109375 4.9375 -1.171875 4.9375 -1.421875 C 4.9375 -1.53125 4.859375 -1.53125 4.828125 -1.53125 C 4.734375 -1.53125 4.71875 -1.484375 4.6875 -1.421875 C 4.359375 -0.34375 3.6875 -0.109375 3.375 -0.109375 C 2.984375 -0.109375 2.828125 -0.421875 2.828125 -0.765625 C 2.828125 -0.984375 2.875 -1.203125 2.984375 -1.640625 Z M 3.328125 -3.015625 "
               style="stroke:none;" />
          </symbol>
          <symbol
             id="textext-698a2318-1"
             overflow="visible">
            <path
               id="path6075"
               d="M 3.046875 -2.671875 C 2.796875 -2.625 2.703125 -2.4375 2.703125 -2.28125 C 2.703125 -2.09375 2.84375 -2.015625 2.96875 -2.015625 C 3.125 -2.015625 3.359375 -2.125 3.359375 -2.46875 C 3.359375 -2.9375 2.828125 -3.078125 2.453125 -3.078125 C 1.40625 -3.078125 0.4375 -2.109375 0.4375 -1.140625 C 0.4375 -0.546875 0.84375 0.0625 1.71875 0.0625 C 2.90625 0.0625 3.453125 -0.625 3.453125 -0.71875 C 3.453125 -0.765625 3.390625 -0.84375 3.328125 -0.84375 C 3.296875 -0.84375 3.28125 -0.828125 3.21875 -0.765625 C 2.671875 -0.125 1.859375 -0.125 1.734375 -0.125 C 1.234375 -0.125 1.015625 -0.46875 1.015625 -0.90625 C 1.015625 -1.09375 1.109375 -1.859375 1.46875 -2.34375 C 1.734375 -2.6875 2.09375 -2.875 2.453125 -2.875 C 2.546875 -2.875 2.875 -2.859375 3.046875 -2.671875 Z M 3.046875 -2.671875 "
               style="stroke:none;" />
          </symbol>
        </g>
      </defs>
      <g
         id="textext-698a2318-2">
        <g
           id="g6078"
           style="fill:rgb(0%,0%,0%);fill-opacity:1;">
          <use
             id="use6080"
             y="134.765"
             x="223.432"
             xlink:href="#textext-698a2318-0" />
        </g>
        <g
           id="g6082"
           style="fill:rgb(0%,0%,0%);fill-opacity:1;">
          <use
             id="use6084"
             y="136.259"
             x="229.126"
             xlink:href="#textext-698a2318-1" />
        </g>
      </g>
    </g>
    <g
       ns0:text="$y_c$"
       ns0:preamble="/home/francois/Documents/Mypapers/InkscapeHeader/header.inc"
       transform="matrix(7,0,0,7,-1453.6705,-793.13106)"
       id="g6290">
      <defs
         id="defs6292">
        <g
           id="g6294">
          <symbol
             overflow="visible"
             id="textext-1d1b4d3e-0">
            <path
               style="stroke:none;"
               d="M 4.84375 -3.796875 C 4.890625 -3.9375 4.890625 -3.953125 4.890625 -4.03125 C 4.890625 -4.203125 4.75 -4.296875 4.59375 -4.296875 C 4.5 -4.296875 4.34375 -4.234375 4.25 -4.09375 C 4.234375 -4.03125 4.140625 -3.734375 4.109375 -3.546875 C 4.03125 -3.296875 3.96875 -3.015625 3.90625 -2.75 L 3.453125 -0.953125 C 3.421875 -0.8125 2.984375 -0.109375 2.328125 -0.109375 C 1.828125 -0.109375 1.71875 -0.546875 1.71875 -0.921875 C 1.71875 -1.375 1.890625 -2 2.21875 -2.875 C 2.375 -3.28125 2.421875 -3.390625 2.421875 -3.59375 C 2.421875 -4.03125 2.109375 -4.40625 1.609375 -4.40625 C 0.65625 -4.40625 0.296875 -2.953125 0.296875 -2.875 C 0.296875 -2.765625 0.390625 -2.765625 0.40625 -2.765625 C 0.515625 -2.765625 0.515625 -2.796875 0.5625 -2.953125 C 0.84375 -3.890625 1.234375 -4.1875 1.578125 -4.1875 C 1.65625 -4.1875 1.828125 -4.1875 1.828125 -3.875 C 1.828125 -3.625 1.71875 -3.359375 1.65625 -3.171875 C 1.25 -2.109375 1.078125 -1.546875 1.078125 -1.078125 C 1.078125 -0.1875 1.703125 0.109375 2.296875 0.109375 C 2.6875 0.109375 3.015625 -0.0625 3.296875 -0.34375 C 3.171875 0.171875 3.046875 0.671875 2.65625 1.203125 C 2.390625 1.53125 2.015625 1.828125 1.5625 1.828125 C 1.421875 1.828125 0.96875 1.796875 0.796875 1.40625 C 0.953125 1.40625 1.09375 1.40625 1.21875 1.28125 C 1.328125 1.203125 1.421875 1.0625 1.421875 0.875 C 1.421875 0.5625 1.15625 0.53125 1.0625 0.53125 C 0.828125 0.53125 0.5 0.6875 0.5 1.171875 C 0.5 1.671875 0.9375 2.046875 1.5625 2.046875 C 2.578125 2.046875 3.609375 1.140625 3.890625 0.015625 Z M 4.84375 -3.796875 "
               id="path6297" />
          </symbol>
          <symbol
             overflow="visible"
             id="textext-1d1b4d3e-1">
            <path
               style="stroke:none;"
               d="M 3.046875 -2.671875 C 2.796875 -2.625 2.703125 -2.4375 2.703125 -2.28125 C 2.703125 -2.09375 2.84375 -2.015625 2.96875 -2.015625 C 3.125 -2.015625 3.359375 -2.125 3.359375 -2.46875 C 3.359375 -2.9375 2.828125 -3.078125 2.453125 -3.078125 C 1.40625 -3.078125 0.4375 -2.109375 0.4375 -1.140625 C 0.4375 -0.546875 0.84375 0.0625 1.71875 0.0625 C 2.90625 0.0625 3.453125 -0.625 3.453125 -0.71875 C 3.453125 -0.765625 3.390625 -0.84375 3.328125 -0.84375 C 3.296875 -0.84375 3.28125 -0.828125 3.21875 -0.765625 C 2.671875 -0.125 1.859375 -0.125 1.734375 -0.125 C 1.234375 -0.125 1.015625 -0.46875 1.015625 -0.90625 C 1.015625 -1.09375 1.109375 -1.859375 1.46875 -2.34375 C 1.734375 -2.6875 2.09375 -2.875 2.453125 -2.875 C 2.546875 -2.875 2.875 -2.859375 3.046875 -2.671875 Z M 3.046875 -2.671875 "
               id="path6300" />
          </symbol>
        </g>
      </defs>
      <g
         id="textext-1d1b4d3e-2">
        <g
           style="fill:rgb(0%,0%,0%);fill-opacity:1;"
           id="g6303">
          <use
             xlink:href="#textext-1d1b4d3e-0"
             x="223.432"
             y="134.765"
             id="use6305" />
        </g>
        <g
           style="fill:rgb(0%,0%,0%);fill-opacity:1;"
           id="g6307">
          <use
             xlink:href="#textext-1d1b4d3e-1"
             x="228.317"
             y="136.259"
             id="use6309" />
        </g>
      </g>
    </g>
    <g
       id="g3725"
       ns0:preamble="/home/francois/Documents/Mypapers/InkscapeHeader/header.inc"
       ns0:text="$$\n\\bf M_w(t) = \\begin{pmatrix}\nx_w(t)\\\\\ny_w(t)\\\\\nz_w(t)\n\\end{pmatrix}\n$$"
       transform="matrix(11.488004,0,0,11.488004,-2947.2647,-1543.907)">
      <defs
         id="defs3727">
        <g
           id="g3729">
          <symbol
             id="textext-21e22cd8-0"
             overflow="visible"
             style="overflow:visible">
            <path
               id="path3732"
               d="M 5.4375,-1.3125 3.046875,-6.59375 c -0.109375,-0.25 -0.21875,-0.25 -0.4375,-0.25 l -2.203125,0 0,0.46875 1.0625,0 0,5.625 c 0,0.21875 0,0.21875 -0.28125,0.25 -0.234375,0.03125 -0.265625,0.03125 -0.546875,0.03125 l -0.234375,0 0,0.46875 c 0.375,-0.03125 0.9375,-0.03125 1.328125,-0.03125 0.421875,0 0.9375,0 1.34375,0.03125 l 0,-0.46875 -0.25,0 C 2.65625,-0.46875 2.484375,-0.484375 2.296875,-0.5 2.015625,-0.53125 2,-0.53125 2,-0.75 l 0,-5.484375 0.015625,0 L 4.71875,-0.25 C 4.8125,-0.046875 4.9375,0 5.046875,0 5.25,0 5.328125,-0.15625 5.359375,-0.234375 l 2.78125,-6.140625 0.015625,0 0,5.90625 -1.078125,0 0,0.46875 c 0.359375,-0.03125 1.28125,-0.03125 1.6875,-0.03125 0.421875,0 1.359375,0 1.71875,0.03125 l 0,-0.46875 -1.078125,0 0,-5.90625 1.078125,0 0,-0.46875 -2.203125,0 c -0.21875,0 -0.34375,0 -0.453125,0.25 z m 0,0"
               style="stroke:none"
               inkscape:connector-curvature="0" />
          </symbol>
          <symbol
             id="textext-21e22cd8-1"
             overflow="visible"
             style="overflow:visible">
            <path
               id="path3735"
               d="m 1.03125,-3.953125 0,2.734375 c 0,1.0625 0.859375,1.28125 1.578125,1.28125 0.75,0 1.203125,-0.578125 1.203125,-1.296875 l 0,-0.53125 -0.46875,0 0,0.515625 c 0,0.671875 -0.328125,0.90625 -0.609375,0.90625 -0.578125,0 -0.578125,-0.640625 -0.578125,-0.859375 l 0,-2.75 1.46875,0 0,-0.46875 -1.46875,0 0,-1.90625 -0.46875,0 c 0,1 -0.484375,1.984375 -1.484375,2.015625 l 0,0.359375 z m 0,0"
               style="stroke:none"
               inkscape:connector-curvature="0" />
          </symbol>
          <symbol
             id="textext-21e22cd8-2"
             overflow="visible"
             style="overflow:visible">
            <path
               id="path3738"
               d="M 5.78125,-2.578125 C 5.828125,-2.671875 5.828125,-2.671875 5.953125,-2.6875 6.0625,-2.703125 6.109375,-2.703125 6.25,-2.703125 l 0,-0.390625 c -0.1875,0.015625 -0.375,0.03125 -0.578125,0.03125 -0.234375,0 -0.46875,-0.015625 -0.71875,-0.03125 l 0,0.390625 c 0.203125,0 0.265625,0.015625 0.375,0.046875 l -0.8125,1.875 -0.84375,-1.921875 0.359375,0 0,-0.390625 C 4,-3.09375 3.5,-3.0625 3.203125,-3.0625 3,-3.0625 2.703125,-3.078125 2.5,-3.09375 l 0,0.390625 0.421875,0 C 3,-2.546875 3,-2.53125 3,-2.515625 3,-2.484375 2.96875,-2.4375 2.96875,-2.421875 l -0.640625,1.46875 -0.765625,-1.75 0.359375,0 0,-0.390625 c -0.3125,0.015625 -0.609375,0.03125 -0.90625,0.03125 -0.265625,0 -0.75,-0.03125 -0.78125,-0.03125 l 0,0.390625 0.40625,0 1.109375,2.5625 c 0.09375,0.1875 0.1875,0.1875 0.359375,0.1875 0.15625,0 0.265625,0 0.34375,-0.1875 l 0.78125,-1.8125 0.78125,1.796875 c 0.09375,0.203125 0.1875,0.203125 0.359375,0.203125 0.15625,0 0.265625,0 0.34375,-0.1875 z m 0,0"
               style="stroke:none"
               inkscape:connector-curvature="0" />
          </symbol>
          <symbol
             id="textext-21e22cd8-3"
             overflow="visible"
             style="overflow:visible">
            <path
               id="path3741"
               d="m 3.296875,2.390625 c 0,-0.03125 0,-0.046875 -0.171875,-0.21875 C 1.890625,0.921875 1.5625,-0.96875 1.5625,-2.5 c 0,-1.734375 0.375,-3.46875 1.609375,-4.703125 0.125,-0.125 0.125,-0.140625 0.125,-0.171875 0,-0.078125 -0.03125,-0.109375 -0.09375,-0.109375 -0.109375,0 -1,0.6875 -1.59375,1.953125 -0.5,1.09375 -0.625,2.203125 -0.625,3.03125 0,0.78125 0.109375,1.984375 0.65625,3.125 C 2.25,1.84375 3.09375,2.5 3.203125,2.5 c 0.0625,0 0.09375,-0.03125 0.09375,-0.109375 z m 0,0"
               style="stroke:none"
               inkscape:connector-curvature="0" />
          </symbol>
          <symbol
             id="textext-21e22cd8-4"
             overflow="visible"
             style="overflow:visible">
            <path
               id="path3744"
               d="m 2.875,-2.5 c 0,-0.765625 -0.109375,-1.96875 -0.65625,-3.109375 -0.59375,-1.21875 -1.453125,-1.875 -1.546875,-1.875 -0.0625,0 -0.109375,0.046875 -0.109375,0.109375 0,0.03125 0,0.046875 0.1875,0.234375 0.984375,0.984375 1.546875,2.5625 1.546875,4.640625 0,1.71875 -0.359375,3.46875 -1.59375,4.71875 C 0.5625,2.34375 0.5625,2.359375 0.5625,2.390625 0.5625,2.453125 0.609375,2.5 0.671875,2.5 0.765625,2.5 1.671875,1.8125 2.25,0.546875 2.765625,-0.546875 2.875,-1.65625 2.875,-2.5 z m 0,0"
               style="stroke:none"
               inkscape:connector-curvature="0" />
          </symbol>
          <symbol
             id="textext-21e22cd8-5"
             overflow="visible"
             style="overflow:visible">
            <path
               id="path3747"
               d="m 6.84375,-3.265625 c 0.15625,0 0.34375,0 0.34375,-0.1875 C 7.1875,-3.65625 7,-3.65625 6.859375,-3.65625 l -5.96875,0 c -0.140625,0 -0.328125,0 -0.328125,0.203125 0,0.1875 0.1875,0.1875 0.328125,0.1875 z m 0.015625,1.9375 c 0.140625,0 0.328125,0 0.328125,-0.203125 0,-0.1875 -0.1875,-0.1875 -0.34375,-0.1875 l -5.953125,0 c -0.140625,0 -0.328125,0 -0.328125,0.1875 0,0.203125 0.1875,0.203125 0.328125,0.203125 z m 0,0"
               style="stroke:none"
               inkscape:connector-curvature="0" />
          </symbol>
          <symbol
             id="textext-21e22cd8-6"
             overflow="visible"
             style="overflow:visible">
            <path
               id="path3750"
               d="M 3.734375,17.640625 C 3.953125,17.640625 4,17.640625 4,17.5 4.03125,10.515625 4.828125,4.71875 8.328125,-0.15625 c 0.0625,-0.09375 0.0625,-0.109375 0.0625,-0.140625 0,-0.09375 -0.0625,-0.09375 -0.21875,-0.09375 -0.171875,0 -0.1875,0 -0.203125,0.015625 -0.046875,0.03125 -1.3125,1.484375 -2.3125,3.5 -1.3125,2.625 -2.140625,5.640625 -2.515625,9.28125 -0.03125,0.296875 -0.234375,2.375 -0.234375,4.734375 l 0,0.390625 c 0,0.109375 0.0625,0.109375 0.28125,0.109375 z m 0,0"
               style="stroke:none"
               inkscape:connector-curvature="0" />
          </symbol>
          <symbol
             id="textext-21e22cd8-7"
             overflow="visible"
             style="overflow:visible">
            <path
               id="path3753"
               d="m 3.1875,-0.5 c -0.21875,0 -0.28125,0 -0.28125,0.109375 L 2.90625,0 c 0,6.09375 1.078125,9.65625 1.390625,10.671875 C 4.96875,12.875 6.078125,15.21875 7.75,17.265625 7.890625,17.453125 7.9375,17.5 7.96875,17.515625 8,17.53125 8,17.53125 8.171875,17.53125 c 0.15625,0 0.21875,0 0.21875,-0.09375 0,-0.01563 0,-0.04687 -0.0625,-0.125 C 5.015625,12.703125 4.015625,7.15625 4,-0.359375 4,-0.5 3.953125,-0.5 3.734375,-0.5 z m 0,0"
               style="stroke:none"
               inkscape:connector-curvature="0" />
          </symbol>
          <symbol
             id="textext-21e22cd8-8"
             overflow="visible"
             style="overflow:visible">
            <path
               id="path3756"
               d="M 5.8125,17.140625 C 5.8125,11.0625 4.71875,7.484375 4.421875,6.484375 3.734375,4.265625 2.625,1.9375 0.96875,-0.125 0.8125,-0.296875 0.78125,-0.34375 0.734375,-0.375 c -0.015625,0 -0.03125,-0.015625 -0.1875,-0.015625 -0.140625,0 -0.234375,0 -0.234375,0.09375 0,0.03125 0,0.046875 0.140625,0.234375 3.46875,4.84375 4.234375,10.8125 4.25,17.5625 0,0.140625 0.0625,0.140625 0.28125,0.140625 l 0.546875,0 c 0.203125,0 0.265625,0 0.28125,-0.109375 z m 0,0"
               style="stroke:none"
               inkscape:connector-curvature="0" />
          </symbol>
          <symbol
             id="textext-21e22cd8-9"
             overflow="visible"
             style="overflow:visible">
            <path
               id="path3759"
               d="M 5.8125,-0.390625 C 5.796875,-0.5 5.734375,-0.5 5.53125,-0.5 l -0.546875,0 c -0.21875,0 -0.28125,0 -0.28125,0.140625 0,1.03125 -0.015625,3.40625 -0.265625,5.875 C 3.890625,10.671875 2.578125,14.25 0.390625,17.3125 0.3125,17.390625 0.3125,17.421875 0.3125,17.4375 c 0,0.09375 0.09375,0.09375 0.234375,0.09375 0.15625,0 0.1875,0 0.203125,-0.01563 C 0.78125,17.48438 2.046875,16.03125 3.0625,14.03125 4.375,11.390625 5.203125,8.375 5.578125,4.75 5.609375,4.4375 5.8125,2.359375 5.8125,0 z m 0,0"
               style="stroke:none"
               inkscape:connector-curvature="0" />
          </symbol>
          <symbol
             id="textext-21e22cd8-10"
             overflow="visible"
             style="overflow:visible">
            <path
               id="path3762"
               d="M 3.328125,-3.015625 C 3.390625,-3.265625 3.625,-4.1875 4.3125,-4.1875 c 0.046875,0 0.296875,0 0.5,0.125 C 4.53125,-4 4.34375,-3.765625 4.34375,-3.515625 c 0,0.15625 0.109375,0.34375 0.375,0.34375 0.21875,0 0.53125,-0.171875 0.53125,-0.578125 0,-0.515625 -0.578125,-0.65625 -0.921875,-0.65625 -0.578125,0 -0.921875,0.53125 -1.046875,0.75 -0.25,-0.65625 -0.78125,-0.75 -1.078125,-0.75 -1.03125,0 -1.609375,1.28125 -1.609375,1.53125 0,0.109375 0.109375,0.109375 0.125,0.109375 0.078125,0 0.109375,-0.03125 0.125,-0.109375 0.34375,-1.0625 1,-1.3125 1.34375,-1.3125 0.1875,0 0.53125,0.09375 0.53125,0.671875 0,0.3125 -0.171875,0.96875 -0.53125,2.375 -0.15625,0.609375 -0.515625,1.03125 -0.953125,1.03125 -0.0625,0 -0.28125,0 -0.5,-0.125 0.25,-0.0625 0.46875,-0.265625 0.46875,-0.546875 0,-0.265625 -0.21875,-0.34375 -0.359375,-0.34375 -0.3125,0 -0.546875,0.25 -0.546875,0.578125 0,0.453125 0.484375,0.65625 0.921875,0.65625 0.671875,0 1.03125,-0.703125 1.046875,-0.75 0.125,0.359375 0.484375,0.75 1.078125,0.75 1.03125,0 1.59375,-1.28125 1.59375,-1.53125 0,-0.109375 -0.078125,-0.109375 -0.109375,-0.109375 -0.09375,0 -0.109375,0.046875 -0.140625,0.109375 -0.328125,1.078125 -1,1.3125 -1.3125,1.3125 -0.390625,0 -0.546875,-0.3125 -0.546875,-0.65625 0,-0.21875 0.046875,-0.4375 0.15625,-0.875 z m 0,0"
               style="stroke:none"
               inkscape:connector-curvature="0" />
          </symbol>
          <symbol
             id="textext-21e22cd8-11"
             overflow="visible"
             style="overflow:visible">
            <path
               id="path3765"
               d="m 2.046875,-3.984375 0.9375,0 c 0.203125,0 0.3125,0 0.3125,-0.203125 0,-0.109375 -0.109375,-0.109375 -0.28125,-0.109375 l -0.875,0 C 2.5,-5.71875 2.546875,-5.90625 2.546875,-5.96875 c 0,-0.171875 -0.125,-0.265625 -0.296875,-0.265625 -0.03125,0 -0.3125,0 -0.390625,0.359375 l -0.390625,1.578125 -0.9375,0 c -0.203125,0 -0.296875,0 -0.296875,0.1875 0,0.125 0.078125,0.125 0.28125,0.125 l 0.875,0 C 0.671875,-1.15625 0.625,-0.984375 0.625,-0.8125 0.625,-0.265625 1,0.109375 1.546875,0.109375 2.5625,0.109375 3.125,-1.34375 3.125,-1.421875 3.125,-1.53125 3.046875,-1.53125 3.015625,-1.53125 2.921875,-1.53125 2.90625,-1.5 2.859375,-1.390625 2.4375,-0.34375 1.90625,-0.109375 1.5625,-0.109375 c -0.203125,0 -0.3125,-0.125 -0.3125,-0.453125 0,-0.25 0.03125,-0.3125 0.0625,-0.484375 z m 0,0"
               style="stroke:none"
               inkscape:connector-curvature="0" />
          </symbol>
          <symbol
             id="textext-21e22cd8-12"
             overflow="visible"
             style="overflow:visible">
            <path
               id="path3768"
               d="m 4.84375,-3.796875 c 0.046875,-0.140625 0.046875,-0.15625 0.046875,-0.234375 0,-0.171875 -0.140625,-0.265625 -0.296875,-0.265625 -0.09375,0 -0.25,0.0625 -0.34375,0.203125 -0.015625,0.0625 -0.109375,0.359375 -0.140625,0.546875 -0.078125,0.25 -0.140625,0.53125 -0.203125,0.796875 l -0.453125,1.796875 c -0.03125,0.140625 -0.46875,0.84375 -1.125,0.84375 -0.5,0 -0.609375,-0.4375 -0.609375,-0.8125 C 1.71875,-1.375 1.890625,-2 2.21875,-2.875 2.375,-3.28125 2.421875,-3.390625 2.421875,-3.59375 c 0,-0.4375 -0.3125,-0.8125 -0.8125,-0.8125 -0.953125,0 -1.3125,1.453125 -1.3125,1.53125 0,0.109375 0.09375,0.109375 0.109375,0.109375 0.109375,0 0.109375,-0.03125 0.15625,-0.1875 0.28125,-0.9375 0.671875,-1.234375 1.015625,-1.234375 0.078125,0 0.25,0 0.25,0.3125 0,0.25 -0.109375,0.515625 -0.171875,0.703125 -0.40625,1.0625 -0.578125,1.625 -0.578125,2.09375 0,0.890625 0.625,1.1875 1.21875,1.1875 0.390625,0 0.71875,-0.171875 1,-0.453125 -0.125,0.515625 -0.25,1.015625 -0.640625,1.546875 -0.265625,0.328125 -0.640625,0.625 -1.09375,0.625 -0.140625,0 -0.59375,-0.03125 -0.765625,-0.421875 0.15625,0 0.296875,0 0.421875,-0.125 C 1.328125,1.203125 1.421875,1.0625 1.421875,0.875 1.421875,0.5625 1.15625,0.53125 1.0625,0.53125 0.828125,0.53125 0.5,0.6875 0.5,1.171875 c 0,0.5 0.4375,0.875 1.0625,0.875 1.015625,0 2.046875,-0.90625 2.328125,-2.03125 z m 0,0"
               style="stroke:none"
               inkscape:connector-curvature="0" />
          </symbol>
          <symbol
             id="textext-21e22cd8-13"
             overflow="visible"
             style="overflow:visible">
            <path
               id="path3771"
               d="m 1.328125,-0.828125 c 0.53125,-0.578125 0.828125,-0.828125 1.1875,-1.140625 0,0 0.609375,-0.53125 0.96875,-0.890625 C 4.4375,-3.78125 4.65625,-4.265625 4.65625,-4.3125 c 0,-0.09375 -0.09375,-0.09375 -0.109375,-0.09375 -0.078125,0 -0.09375,0.015625 -0.15625,0.109375 -0.296875,0.484375 -0.5,0.640625 -0.734375,0.640625 -0.25,0 -0.359375,-0.15625 -0.515625,-0.328125 -0.1875,-0.21875 -0.359375,-0.421875 -0.6875,-0.421875 -0.75,0 -1.203125,0.921875 -1.203125,1.140625 0,0.046875 0.03125,0.109375 0.109375,0.109375 0.09375,0 0.109375,-0.046875 0.140625,-0.109375 0.1875,-0.46875 0.765625,-0.46875 0.84375,-0.46875 0.203125,0 0.390625,0.0625 0.625,0.140625 0.40625,0.15625 0.515625,0.15625 0.765625,0.15625 -0.359375,0.421875 -1.1875,1.140625 -1.375,1.296875 l -0.90625,0.84375 C 0.78125,-0.625 0.421875,-0.0625 0.421875,0.015625 c 0,0.09375 0.109375,0.09375 0.125,0.09375 0.078125,0 0.09375,-0.015625 0.15625,-0.125 0.234375,-0.359375 0.53125,-0.625 0.859375,-0.625 0.21875,0 0.328125,0.09375 0.578125,0.375 0.15625,0.21875 0.34375,0.375 0.625,0.375 1,0 1.578125,-1.265625 1.578125,-1.53125 0,-0.046875 -0.046875,-0.109375 -0.125,-0.109375 -0.09375,0 -0.109375,0.0625 -0.140625,0.140625 C 3.84375,-0.75 3.203125,-0.5625 2.875,-0.5625 c -0.1875,0 -0.375,-0.0625 -0.578125,-0.125 -0.34375,-0.125 -0.5,-0.171875 -0.703125,-0.171875 -0.015625,0 -0.171875,0 -0.265625,0.03125 z m 0,0"
               style="stroke:none"
               inkscape:connector-curvature="0" />
          </symbol>
          <symbol
             id="textext-21e22cd8-14"
             overflow="visible"
             style="overflow:visible">
            <path
               id="path3774"
               d="m 3.671875,-2.21875 c 0.046875,-0.1875 0.125,-0.53125 0.125,-0.5625 C 3.796875,-2.921875 3.6875,-3 3.5625,-3 3.4375,-3 3.3125,-2.921875 3.265625,-2.796875 3.25,-2.75 3.171875,-2.453125 3.125,-2.28125 3.03125,-1.875 3.03125,-1.875 2.921875,-1.484375 2.84375,-1.09375 2.828125,-1.03125 2.8125,-0.84375 2.84375,-0.703125 2.78125,-0.5625 2.625,-0.359375 2.53125,-0.25 2.390625,-0.125 2.15625,-0.125 1.875,-0.125 1.53125,-0.21875 1.53125,-0.765625 1.53125,-1.125 1.71875,-1.640625 1.859375,-2 1.984375,-2.296875 2,-2.359375 2,-2.484375 2,-2.8125 1.71875,-3.078125 1.34375,-3.078125 0.640625,-3.078125 0.328125,-2.125 0.328125,-2 c 0,0.078125 0.09375,0.078125 0.125,0.078125 0.09375,0 0.09375,-0.03125 0.125,-0.109375 C 0.75,-2.609375 1.046875,-2.875 1.328125,-2.875 1.4375,-2.875 1.5,-2.796875 1.5,-2.640625 c 0,0.171875 -0.0625,0.3125 -0.09375,0.40625 C 1,-1.21875 1,-1.078125 1,-0.859375 1,-0.03125 1.75,0.0625 2.125,0.0625 c 0.140625,0 0.46875,0 0.78125,-0.453125 C 3.078125,-0.078125 3.453125,0.0625 3.875,0.0625 4.5,0.0625 4.8125,-0.46875 4.953125,-0.75 5.25,-1.34375 5.4375,-2.203125 5.4375,-2.53125 c 0,-0.515625 -0.296875,-0.546875 -0.34375,-0.546875 -0.1875,0 -0.390625,0.1875 -0.390625,0.375 0,0.109375 0.078125,0.171875 0.125,0.203125 C 5,-2.359375 5.09375,-2.15625 5.09375,-1.9375 c 0,0.09375 -0.296875,1.8125 -1.1875,1.8125 -0.5625,0 -0.5625,-0.5 -0.5625,-0.625 0,-0.1875 0.03125,-0.296875 0.125,-0.6875 z m 0,0"
               style="stroke:none"
               inkscape:connector-curvature="0" />
          </symbol>
        </g>
      </defs>
      <g
         id="textext-21e22cd8-15">
        <g
           id="g3777"
           style="fill:#000000;fill-opacity:1">
          <use
             id="use3779"
             y="145.226"
             x="353.08499"
             xlink:href="#textext-21e22cd8-0"
             width="744.09448"
             height="1052.3622" />
        </g>
        <g
           id="g3781"
           style="fill:#000000;fill-opacity:1">
          <use
             id="use3783"
             y="146.72"
             x="363.961"
             xlink:href="#textext-21e22cd8-2"
             width="744.09448"
             height="1052.3622" />
        </g>
        <g
           id="g3785"
           style="fill:#000000;fill-opacity:1">
          <use
             id="use3787"
             y="145.226"
             x="371.078"
             xlink:href="#textext-21e22cd8-3"
             width="744.09448"
             height="1052.3622" />
        </g>
        <g
           id="g3789"
           style="fill:#000000;fill-opacity:1">
          <use
             id="use3791"
             y="145.226"
             x="374.953"
             xlink:href="#textext-21e22cd8-1"
             width="744.09448"
             height="1052.3622" />
        </g>
        <g
           id="g3793"
           style="fill:#000000;fill-opacity:1">
          <use
             id="use3795"
             y="145.226"
             x="379.40799"
             xlink:href="#textext-21e22cd8-4"
             width="744.09448"
             height="1052.3622" />
        </g>
        <g
           id="g3797"
           style="fill:#000000;fill-opacity:1">
          <use
             id="use3799"
             y="145.226"
             x="386.05206"
             xlink:href="#textext-21e22cd8-5"
             width="744.09448"
             height="1052.3622" />
        </g>
        <g
           id="g3801"
           style="fill:#000000;fill-opacity:1">
          <use
             id="use3803"
             y="125.2"
             x="396.56601"
             xlink:href="#textext-21e22cd8-6"
             width="744.09448"
             height="1052.3622" />
        </g>
        <g
           id="g3805"
           style="fill:#000000;fill-opacity:1">
          <use
             id="use3807"
             y="143.133"
             x="396.56601"
             xlink:href="#textext-21e22cd8-7"
             width="744.09448"
             height="1052.3622" />
        </g>
        <g
           id="g3809"
           style="fill:#000000;fill-opacity:1">
          <use
             id="use3811"
             y="133.17101"
             x="405.28299"
             xlink:href="#textext-21e22cd8-10"
             width="744.09448"
             height="1052.3622" />
        </g>
        <g
           id="g3813"
           style="fill:#000000;fill-opacity:1">
          <use
             id="use3815"
             y="134.66499"
             x="410.97699"
             xlink:href="#textext-21e22cd8-14"
             width="744.09448"
             height="1052.3622" />
        </g>
        <g
           id="g3817"
           style="fill:#000000;fill-opacity:1">
          <use
             id="use3819"
             y="133.17101"
             x="417.42599"
             xlink:href="#textext-21e22cd8-3"
             width="744.09448"
             height="1052.3622" />
        </g>
        <g
           id="g3821"
           style="fill:#000000;fill-opacity:1">
          <use
             id="use3823"
             y="133.17101"
             x="421.30099"
             xlink:href="#textext-21e22cd8-11"
             width="744.09448"
             height="1052.3622" />
        </g>
        <g
           id="g3825"
           style="fill:#000000;fill-opacity:1">
          <use
             id="use3827"
             y="133.17101"
             x="424.89801"
             xlink:href="#textext-21e22cd8-4"
             width="744.09448"
             height="1052.3622" />
        </g>
        <g
           id="g3829"
           style="fill:#000000;fill-opacity:1">
          <use
             id="use3831"
             y="145.12601"
             x="405.68799"
             xlink:href="#textext-21e22cd8-12"
             width="744.09448"
             height="1052.3622" />
        </g>
        <g
           id="g3833"
           style="fill:#000000;fill-opacity:1">
          <use
             id="use3835"
             y="146.62"
             x="410.57199"
             xlink:href="#textext-21e22cd8-14"
             width="744.09448"
             height="1052.3622" />
        </g>
        <g
           id="g3837"
           style="fill:#000000;fill-opacity:1">
          <use
             id="use3839"
             y="145.12601"
             x="417.022"
             xlink:href="#textext-21e22cd8-3"
             width="744.09448"
             height="1052.3622" />
        </g>
        <g
           id="g3841"
           style="fill:#000000;fill-opacity:1">
          <use
             id="use3843"
             y="145.12601"
             x="420.896"
             xlink:href="#textext-21e22cd8-11"
             width="744.09448"
             height="1052.3622" />
        </g>
        <g
           id="g3845"
           style="fill:#000000;fill-opacity:1">
          <use
             id="use3847"
             y="145.12601"
             x="424.49399"
             xlink:href="#textext-21e22cd8-4"
             width="744.09448"
             height="1052.3622" />
        </g>
        <g
           id="g3849"
           style="fill:#000000;fill-opacity:1">
          <use
             id="use3851"
             y="157.08099"
             x="405.814"
             xlink:href="#textext-21e22cd8-13"
             width="744.09448"
             height="1052.3622" />
        </g>
        <g
           id="g3853"
           style="fill:#000000;fill-opacity:1">
          <use
             id="use3855"
             y="158.575"
             x="410.44699"
             xlink:href="#textext-21e22cd8-14"
             width="744.09448"
             height="1052.3622" />
        </g>
        <g
           id="g3857"
           style="fill:#000000;fill-opacity:1">
          <use
             id="use3859"
             y="157.08099"
             x="416.896"
             xlink:href="#textext-21e22cd8-3"
             width="744.09448"
             height="1052.3622" />
        </g>
        <g
           id="g3861"
           style="fill:#000000;fill-opacity:1">
          <use
             id="use3863"
             y="157.08099"
             x="420.76999"
             xlink:href="#textext-21e22cd8-11"
             width="744.09448"
             height="1052.3622" />
        </g>
        <g
           id="g3865"
           style="fill:#000000;fill-opacity:1">
          <use
             id="use3867"
             y="157.08099"
             x="424.36801"
             xlink:href="#textext-21e22cd8-4"
             width="744.09448"
             height="1052.3622" />
        </g>
        <g
           id="g3869"
           style="fill:#000000;fill-opacity:1">
          <use
             id="use3871"
             y="125.2"
             x="428.77301"
             xlink:href="#textext-21e22cd8-8"
             width="744.09448"
             height="1052.3622" />
        </g>
        <g
           id="g3873"
           style="fill:#000000;fill-opacity:1">
          <use
             id="use3875"
             y="143.133"
             x="428.77301"
             xlink:href="#textext-21e22cd8-9"
             width="744.09448"
             height="1052.3622" />
        </g>
      </g>
    </g>
    <g
       id="g3483"
       transform="matrix(10.598547,0,0,10.598547,-3545.0149,-815.71101)"
       ns0:preamble="/home/francois/Documents/Mypapers/InkscapeHeader/header.inc"
       ns0:text="$$\nM_c(t) = \n\\begin{pmatrix}\nx_c(t)\\\\\ny_c(t)\n\\end{pmatrix}\n= \\frac{f}{z_w(t)}\n\\begin{pmatrix}\nx_w(t)\\\\\ny_w(t)\n\\end{pmatrix}\n$$">
      <defs
         id="defs3485">
        <g
           id="g3487">
          <symbol
             id="textext-3cbf6ac5-0"
             overflow="visible"
             style="overflow:visible">
            <path
               id="path3490"
               d="M 9.234375,-6.046875 C 9.328125,-6.40625 9.34375,-6.5 10.09375,-6.5 c 0.21875,0 0.3125,0 0.3125,-0.203125 0,-0.109375 -0.09375,-0.109375 -0.265625,-0.109375 l -1.3125,0 c -0.265625,0 -0.28125,0 -0.390625,0.1875 L 4.796875,-0.9375 4.015625,-6.578125 C 3.984375,-6.8125 3.96875,-6.8125 3.703125,-6.8125 l -1.359375,0 c -0.1875,0 -0.296875,0 -0.296875,0.1875 0,0.125 0.09375,0.125 0.28125,0.125 0.140625,0 0.3125,0.015625 0.4375,0.015625 0.15625,0.03125 0.21875,0.046875 0.21875,0.171875 0,0.03125 -0.015625,0.0625 -0.046875,0.1875 l -1.265625,5.0625 c -0.09375,0.40625 -0.265625,0.71875 -1.078125,0.75 -0.046875,0 -0.171875,0.015625 -0.171875,0.1875 0,0.09375 0.0625,0.125 0.140625,0.125 0.3125,0 0.65625,-0.03125 1,-0.03125 C 1.890625,-0.03125 2.25,0 2.578125,0 c 0.046875,0 0.1875,0 0.1875,-0.203125 0,-0.109375 -0.109375,-0.109375 -0.1875,-0.109375 -0.5625,0 -0.671875,-0.203125 -0.671875,-0.4375 0,-0.0625 0,-0.125 0.03125,-0.234375 l 1.359375,-5.421875 0.015625,0 0.859375,6.171875 C 4.1875,-0.109375 4.203125,0 4.3125,0 4.421875,0 4.484375,-0.109375 4.53125,-0.171875 l 4.03125,-6.3125 0.015625,0 -1.4375,5.703125 c -0.09375,0.390625 -0.109375,0.46875 -0.90625,0.46875 -0.15625,0 -0.265625,0 -0.265625,0.1875 C 5.96875,0 6.078125,0 6.109375,0 6.390625,0 7.0625,-0.03125 7.34375,-0.03125 7.75,-0.03125 8.1875,0 8.59375,0 8.65625,0 8.78125,0 8.78125,-0.203125 8.78125,-0.3125 8.6875,-0.3125 8.5,-0.3125 c -0.359375,0 -0.640625,0 -0.640625,-0.171875 0,-0.046875 0,-0.0625 0.046875,-0.25 z m 0,0"
               style="stroke:none"
               inkscape:connector-curvature="0" />
          </symbol>
          <symbol
             id="textext-3cbf6ac5-1"
             overflow="visible"
             style="overflow:visible">
            <path
               id="path3493"
               d="m 2.046875,-3.984375 0.9375,0 c 0.203125,0 0.3125,0 0.3125,-0.203125 0,-0.109375 -0.109375,-0.109375 -0.28125,-0.109375 l -0.875,0 C 2.5,-5.71875 2.546875,-5.90625 2.546875,-5.96875 c 0,-0.171875 -0.125,-0.265625 -0.296875,-0.265625 -0.03125,0 -0.3125,0 -0.390625,0.359375 l -0.390625,1.578125 -0.9375,0 c -0.203125,0 -0.296875,0 -0.296875,0.1875 0,0.125 0.078125,0.125 0.28125,0.125 l 0.875,0 C 0.671875,-1.15625 0.625,-0.984375 0.625,-0.8125 0.625,-0.265625 1,0.109375 1.546875,0.109375 2.5625,0.109375 3.125,-1.34375 3.125,-1.421875 3.125,-1.53125 3.046875,-1.53125 3.015625,-1.53125 2.921875,-1.53125 2.90625,-1.5 2.859375,-1.390625 2.4375,-0.34375 1.90625,-0.109375 1.5625,-0.109375 c -0.203125,0 -0.3125,-0.125 -0.3125,-0.453125 0,-0.25 0.03125,-0.3125 0.0625,-0.484375 z m 0,0"
               style="stroke:none"
               inkscape:connector-curvature="0" />
          </symbol>
          <symbol
             id="textext-3cbf6ac5-2"
             overflow="visible"
             style="overflow:visible">
            <path
               id="path3496"
               d="M 3.328125,-3.015625 C 3.390625,-3.265625 3.625,-4.1875 4.3125,-4.1875 c 0.046875,0 0.296875,0 0.5,0.125 C 4.53125,-4 4.34375,-3.765625 4.34375,-3.515625 c 0,0.15625 0.109375,0.34375 0.375,0.34375 0.21875,0 0.53125,-0.171875 0.53125,-0.578125 0,-0.515625 -0.578125,-0.65625 -0.921875,-0.65625 -0.578125,0 -0.921875,0.53125 -1.046875,0.75 -0.25,-0.65625 -0.78125,-0.75 -1.078125,-0.75 -1.03125,0 -1.609375,1.28125 -1.609375,1.53125 0,0.109375 0.109375,0.109375 0.125,0.109375 0.078125,0 0.109375,-0.03125 0.125,-0.109375 0.34375,-1.0625 1,-1.3125 1.34375,-1.3125 0.1875,0 0.53125,0.09375 0.53125,0.671875 0,0.3125 -0.171875,0.96875 -0.53125,2.375 -0.15625,0.609375 -0.515625,1.03125 -0.953125,1.03125 -0.0625,0 -0.28125,0 -0.5,-0.125 0.25,-0.0625 0.46875,-0.265625 0.46875,-0.546875 0,-0.265625 -0.21875,-0.34375 -0.359375,-0.34375 -0.3125,0 -0.546875,0.25 -0.546875,0.578125 0,0.453125 0.484375,0.65625 0.921875,0.65625 0.671875,0 1.03125,-0.703125 1.046875,-0.75 0.125,0.359375 0.484375,0.75 1.078125,0.75 1.03125,0 1.59375,-1.28125 1.59375,-1.53125 0,-0.109375 -0.078125,-0.109375 -0.109375,-0.109375 -0.09375,0 -0.109375,0.046875 -0.140625,0.109375 -0.328125,1.078125 -1,1.3125 -1.3125,1.3125 -0.390625,0 -0.546875,-0.3125 -0.546875,-0.65625 0,-0.21875 0.046875,-0.4375 0.15625,-0.875 z m 0,0"
               style="stroke:none"
               inkscape:connector-curvature="0" />
          </symbol>
          <symbol
             id="textext-3cbf6ac5-3"
             overflow="visible"
             style="overflow:visible">
            <path
               id="path3499"
               d="m 4.84375,-3.796875 c 0.046875,-0.140625 0.046875,-0.15625 0.046875,-0.234375 0,-0.171875 -0.140625,-0.265625 -0.296875,-0.265625 -0.09375,0 -0.25,0.0625 -0.34375,0.203125 -0.015625,0.0625 -0.109375,0.359375 -0.140625,0.546875 -0.078125,0.25 -0.140625,0.53125 -0.203125,0.796875 l -0.453125,1.796875 c -0.03125,0.140625 -0.46875,0.84375 -1.125,0.84375 -0.5,0 -0.609375,-0.4375 -0.609375,-0.8125 C 1.71875,-1.375 1.890625,-2 2.21875,-2.875 2.375,-3.28125 2.421875,-3.390625 2.421875,-3.59375 c 0,-0.4375 -0.3125,-0.8125 -0.8125,-0.8125 -0.953125,0 -1.3125,1.453125 -1.3125,1.53125 0,0.109375 0.09375,0.109375 0.109375,0.109375 0.109375,0 0.109375,-0.03125 0.15625,-0.1875 0.28125,-0.9375 0.671875,-1.234375 1.015625,-1.234375 0.078125,0 0.25,0 0.25,0.3125 0,0.25 -0.109375,0.515625 -0.171875,0.703125 -0.40625,1.0625 -0.578125,1.625 -0.578125,2.09375 0,0.890625 0.625,1.1875 1.21875,1.1875 0.390625,0 0.71875,-0.171875 1,-0.453125 -0.125,0.515625 -0.25,1.015625 -0.640625,1.546875 -0.265625,0.328125 -0.640625,0.625 -1.09375,0.625 -0.140625,0 -0.59375,-0.03125 -0.765625,-0.421875 0.15625,0 0.296875,0 0.421875,-0.125 C 1.328125,1.203125 1.421875,1.0625 1.421875,0.875 1.421875,0.5625 1.15625,0.53125 1.0625,0.53125 0.828125,0.53125 0.5,0.6875 0.5,1.171875 c 0,0.5 0.4375,0.875 1.0625,0.875 1.015625,0 2.046875,-0.90625 2.328125,-2.03125 z m 0,0"
               style="stroke:none"
               inkscape:connector-curvature="0" />
          </symbol>
          <symbol
             id="textext-3cbf6ac5-4"
             overflow="visible"
             style="overflow:visible">
            <path
               id="path3502"
               d="m 3.65625,-3.984375 0.859375,0 c 0.203125,0 0.296875,0 0.296875,-0.203125 0,-0.109375 -0.09375,-0.109375 -0.265625,-0.109375 l -0.828125,0 0.203125,-1.140625 c 0.046875,-0.203125 0.1875,-0.90625 0.25,-1.03125 0.078125,-0.1875 0.25,-0.34375 0.46875,-0.34375 0.03125,0 0.296875,0 0.484375,0.1875 -0.4375,0.03125 -0.546875,0.390625 -0.546875,0.53125 0,0.234375 0.1875,0.359375 0.375,0.359375 C 5.21875,-5.734375 5.5,-5.96875 5.5,-6.34375 c 0,-0.453125 -0.453125,-0.6875 -0.859375,-0.6875 -0.34375,0 -0.96875,0.1875 -1.265625,1.171875 -0.0625,0.203125 -0.09375,0.3125 -0.328125,1.5625 l -0.6875,0 c -0.203125,0 -0.3125,0 -0.3125,0.1875 0,0.125 0.09375,0.125 0.28125,0.125 l 0.65625,0 -0.734375,3.9375 c -0.1875,0.96875 -0.359375,1.875 -0.875,1.875 -0.046875,0 -0.28125,0 -0.484375,-0.1875 C 1.359375,1.609375 1.453125,1.25 1.453125,1.109375 1.453125,0.875 1.265625,0.75 1.078125,0.75 0.8125,0.75 0.53125,0.984375 0.53125,1.359375 c 0,0.4375 0.4375,0.6875 0.84375,0.6875 0.546875,0 0.953125,-0.59375 1.125,-0.96875 0.328125,-0.625 0.546875,-1.828125 0.5625,-1.90625 z m 0,0"
               style="stroke:none"
               inkscape:connector-curvature="0" />
          </symbol>
          <symbol
             id="textext-3cbf6ac5-5"
             overflow="visible"
             style="overflow:visible">
            <path
               id="path3505"
               d="m 1.328125,-0.828125 c 0.53125,-0.578125 0.828125,-0.828125 1.1875,-1.140625 0,0 0.609375,-0.53125 0.96875,-0.890625 C 4.4375,-3.78125 4.65625,-4.265625 4.65625,-4.3125 c 0,-0.09375 -0.09375,-0.09375 -0.109375,-0.09375 -0.078125,0 -0.09375,0.015625 -0.15625,0.109375 -0.296875,0.484375 -0.5,0.640625 -0.734375,0.640625 -0.25,0 -0.359375,-0.15625 -0.515625,-0.328125 -0.1875,-0.21875 -0.359375,-0.421875 -0.6875,-0.421875 -0.75,0 -1.203125,0.921875 -1.203125,1.140625 0,0.046875 0.03125,0.109375 0.109375,0.109375 0.09375,0 0.109375,-0.046875 0.140625,-0.109375 0.1875,-0.46875 0.765625,-0.46875 0.84375,-0.46875 0.203125,0 0.390625,0.0625 0.625,0.140625 0.40625,0.15625 0.515625,0.15625 0.765625,0.15625 -0.359375,0.421875 -1.1875,1.140625 -1.375,1.296875 l -0.90625,0.84375 C 0.78125,-0.625 0.421875,-0.0625 0.421875,0.015625 c 0,0.09375 0.109375,0.09375 0.125,0.09375 0.078125,0 0.09375,-0.015625 0.15625,-0.125 0.234375,-0.359375 0.53125,-0.625 0.859375,-0.625 0.21875,0 0.328125,0.09375 0.578125,0.375 0.15625,0.21875 0.34375,0.375 0.625,0.375 1,0 1.578125,-1.265625 1.578125,-1.53125 0,-0.046875 -0.046875,-0.109375 -0.125,-0.109375 -0.09375,0 -0.109375,0.0625 -0.140625,0.140625 C 3.84375,-0.75 3.203125,-0.5625 2.875,-0.5625 c -0.1875,0 -0.375,-0.0625 -0.578125,-0.125 -0.34375,-0.125 -0.5,-0.171875 -0.703125,-0.171875 -0.015625,0 -0.171875,0 -0.265625,0.03125 z m 0,0"
               style="stroke:none"
               inkscape:connector-curvature="0" />
          </symbol>
          <symbol
             id="textext-3cbf6ac5-6"
             overflow="visible"
             style="overflow:visible">
            <path
               id="path3508"
               d="m 3.046875,-2.671875 c -0.25,0.046875 -0.34375,0.234375 -0.34375,0.390625 0,0.1875 0.140625,0.265625 0.265625,0.265625 0.15625,0 0.390625,-0.109375 0.390625,-0.453125 0,-0.46875 -0.53125,-0.609375 -0.90625,-0.609375 -1.046875,0 -2.015625,0.96875 -2.015625,1.9375 0,0.59375 0.40625,1.203125 1.28125,1.203125 1.1875,0 1.734375,-0.6875 1.734375,-0.78125 0,-0.046875 -0.0625,-0.125 -0.125,-0.125 -0.03125,0 -0.046875,0.015625 -0.109375,0.078125 C 2.671875,-0.125 1.859375,-0.125 1.734375,-0.125 c -0.5,0 -0.71875,-0.34375 -0.71875,-0.78125 0,-0.1875 0.09375,-0.953125 0.453125,-1.4375 0.265625,-0.34375 0.625,-0.53125 0.984375,-0.53125 0.09375,0 0.421875,0.015625 0.59375,0.203125 z m 0,0"
               style="stroke:none"
               inkscape:connector-curvature="0" />
          </symbol>
          <symbol
             id="textext-3cbf6ac5-7"
             overflow="visible"
             style="overflow:visible">
            <path
               id="path3511"
               d="m 3.671875,-2.21875 c 0.046875,-0.1875 0.125,-0.53125 0.125,-0.5625 C 3.796875,-2.921875 3.6875,-3 3.5625,-3 3.4375,-3 3.3125,-2.921875 3.265625,-2.796875 3.25,-2.75 3.171875,-2.453125 3.125,-2.28125 3.03125,-1.875 3.03125,-1.875 2.921875,-1.484375 2.84375,-1.09375 2.828125,-1.03125 2.8125,-0.84375 2.84375,-0.703125 2.78125,-0.5625 2.625,-0.359375 2.53125,-0.25 2.390625,-0.125 2.15625,-0.125 1.875,-0.125 1.53125,-0.21875 1.53125,-0.765625 1.53125,-1.125 1.71875,-1.640625 1.859375,-2 1.984375,-2.296875 2,-2.359375 2,-2.484375 2,-2.8125 1.71875,-3.078125 1.34375,-3.078125 0.640625,-3.078125 0.328125,-2.125 0.328125,-2 c 0,0.078125 0.09375,0.078125 0.125,0.078125 0.09375,0 0.09375,-0.03125 0.125,-0.109375 C 0.75,-2.609375 1.046875,-2.875 1.328125,-2.875 1.4375,-2.875 1.5,-2.796875 1.5,-2.640625 c 0,0.171875 -0.0625,0.3125 -0.09375,0.40625 C 1,-1.21875 1,-1.078125 1,-0.859375 1,-0.03125 1.75,0.0625 2.125,0.0625 c 0.140625,0 0.46875,0 0.78125,-0.453125 C 3.078125,-0.078125 3.453125,0.0625 3.875,0.0625 4.5,0.0625 4.8125,-0.46875 4.953125,-0.75 5.25,-1.34375 5.4375,-2.203125 5.4375,-2.53125 c 0,-0.515625 -0.296875,-0.546875 -0.34375,-0.546875 -0.1875,0 -0.390625,0.1875 -0.390625,0.375 0,0.109375 0.078125,0.171875 0.125,0.203125 C 5,-2.359375 5.09375,-2.15625 5.09375,-1.9375 c 0,0.09375 -0.296875,1.8125 -1.1875,1.8125 -0.5625,0 -0.5625,-0.5 -0.5625,-0.625 0,-0.1875 0.03125,-0.296875 0.125,-0.6875 z m 0,0"
               style="stroke:none"
               inkscape:connector-curvature="0" />
          </symbol>
          <symbol
             id="textext-3cbf6ac5-8"
             overflow="visible"
             style="overflow:visible">
            <path
               id="path3514"
               d="m 3.296875,2.390625 c 0,-0.03125 0,-0.046875 -0.171875,-0.21875 C 1.890625,0.921875 1.5625,-0.96875 1.5625,-2.5 c 0,-1.734375 0.375,-3.46875 1.609375,-4.703125 0.125,-0.125 0.125,-0.140625 0.125,-0.171875 0,-0.078125 -0.03125,-0.109375 -0.09375,-0.109375 -0.109375,0 -1,0.6875 -1.59375,1.953125 -0.5,1.09375 -0.625,2.203125 -0.625,3.03125 0,0.78125 0.109375,1.984375 0.65625,3.125 C 2.25,1.84375 3.09375,2.5 3.203125,2.5 c 0.0625,0 0.09375,-0.03125 0.09375,-0.109375 z m 0,0"
               style="stroke:none"
               inkscape:connector-curvature="0" />
          </symbol>
          <symbol
             id="textext-3cbf6ac5-9"
             overflow="visible"
             style="overflow:visible">
            <path
               id="path3517"
               d="m 2.875,-2.5 c 0,-0.765625 -0.109375,-1.96875 -0.65625,-3.109375 -0.59375,-1.21875 -1.453125,-1.875 -1.546875,-1.875 -0.0625,0 -0.109375,0.046875 -0.109375,0.109375 0,0.03125 0,0.046875 0.1875,0.234375 0.984375,0.984375 1.546875,2.5625 1.546875,4.640625 0,1.71875 -0.359375,3.46875 -1.59375,4.71875 C 0.5625,2.34375 0.5625,2.359375 0.5625,2.390625 0.5625,2.453125 0.609375,2.5 0.671875,2.5 0.765625,2.5 1.671875,1.8125 2.25,0.546875 2.765625,-0.546875 2.875,-1.65625 2.875,-2.5 z m 0,0"
               style="stroke:none"
               inkscape:connector-curvature="0" />
          </symbol>
          <symbol
             id="textext-3cbf6ac5-10"
             overflow="visible"
             style="overflow:visible">
            <path
               id="path3520"
               d="m 6.84375,-3.265625 c 0.15625,0 0.34375,0 0.34375,-0.1875 C 7.1875,-3.65625 7,-3.65625 6.859375,-3.65625 l -5.96875,0 c -0.140625,0 -0.328125,0 -0.328125,0.203125 0,0.1875 0.1875,0.1875 0.328125,0.1875 z m 0.015625,1.9375 c 0.140625,0 0.328125,0 0.328125,-0.203125 0,-0.1875 -0.1875,-0.1875 -0.34375,-0.1875 l -5.953125,0 c -0.140625,0 -0.328125,0 -0.328125,0.1875 0,0.203125 0.1875,0.203125 0.328125,0.203125 z m 0,0"
               style="stroke:none"
               inkscape:connector-curvature="0" />
          </symbol>
          <symbol
             id="textext-3cbf6ac5-11"
             overflow="visible"
             style="overflow:visible">
            <path
               id="path3523"
               d="m 6.984375,23.421875 c 0,-0.04687 -0.03125,-0.0625 -0.046875,-0.09375 -0.375,-0.375 -1.03125,-1.03125 -1.703125,-2.109375 C 3.625,18.640625 2.90625,15.40625 2.90625,11.5625 c 0,-2.6875 0.359375,-6.140625 2,-9.109375 C 5.6875,1.03125 6.515625,0.21875 6.953125,-0.21875 c 0.03125,-0.03125 0.03125,-0.046875 0.03125,-0.078125 0,-0.109375 -0.078125,-0.109375 -0.21875,-0.109375 -0.140625,0 -0.15625,0 -0.3125,0.15625 -3.328125,3.046875 -4.375,7.609375 -4.375,11.796875 0,3.921875 0.890625,7.875 3.421875,10.859375 0.203125,0.21875 0.578125,0.625 0.984375,0.984375 0.125,0.125 0.140625,0.125 0.28125,0.125 0.140625,0 0.21875,0 0.21875,-0.09375 z m 0,0"
               style="stroke:none"
               inkscape:connector-curvature="0" />
          </symbol>
          <symbol
             id="textext-3cbf6ac5-12"
             overflow="visible"
             style="overflow:visible">
            <path
               id="path3526"
               d="M 5.25,11.5625 C 5.25,7.640625 4.359375,3.703125 1.828125,0.71875 1.625,0.484375 1.25,0.078125 0.84375,-0.28125 c -0.125,-0.125 -0.140625,-0.125 -0.28125,-0.125 -0.125,0 -0.21875,0 -0.21875,0.109375 0,0.03125 0.046875,0.078125 0.0625,0.09375 0.34375,0.359375 1.015625,1.03125 1.6875,2.109375 1.609375,2.5625 2.328125,5.8125 2.328125,9.640625 0,2.6875 -0.359375,6.140625 -2,9.125 -0.78125,1.40625 -1.609375,2.234375 -2.03125,2.65625 -0.015625,0.03125 -0.046875,0.0625 -0.046875,0.09375 0,0.09375 0.09375,0.09375 0.21875,0.09375 0.140625,0 0.15625,0 0.3125,-0.15625 C 4.203125,20.328125 5.25,15.765625 5.25,11.5625 z m 0,0"
               style="stroke:none"
               inkscape:connector-curvature="0" />
          </symbol>
        </g>
      </defs>
      <g
         id="textext-3cbf6ac5-13">
        <g
           id="g3529"
           style="fill:#000000;fill-opacity:1">
          <use
             id="use3531"
             y="139.248"
             x="319.26801"
             xlink:href="#textext-3cbf6ac5-0"
             width="744.09448"
             height="1052.3622" />
        </g>
        <g
           id="g3533"
           style="fill:#000000;fill-opacity:1">
          <use
             id="use3535"
             y="140.742"
             x="328.93301"
             xlink:href="#textext-3cbf6ac5-6"
             width="744.09448"
             height="1052.3622" />
        </g>
        <g
           id="g3537"
           style="fill:#000000;fill-opacity:1">
          <use
             id="use3539"
             y="139.248"
             x="332.991"
             xlink:href="#textext-3cbf6ac5-8"
             width="744.09448"
             height="1052.3622" />
        </g>
        <g
           id="g3541"
           style="fill:#000000;fill-opacity:1">
          <use
             id="use3543"
             y="139.248"
             x="336.866"
             xlink:href="#textext-3cbf6ac5-1"
             width="744.09448"
             height="1052.3622" />
        </g>
        <g
           id="g3545"
           style="fill:#000000;fill-opacity:1">
          <use
             id="use3547"
             y="139.248"
             x="340.46301"
             xlink:href="#textext-3cbf6ac5-9"
             width="744.09448"
             height="1052.3622" />
        </g>
        <g
           id="g3549"
           style="fill:#000000;fill-opacity:1">
          <use
             id="use3551"
             y="139.248"
             x="347.10706"
             xlink:href="#textext-3cbf6ac5-10"
             width="744.09448"
             height="1052.3622" />
        </g>
        <g
           id="g3553"
           style="fill:#000000;fill-opacity:1">
          <use
             id="use3555"
             y="125.2"
             x="357.621"
             xlink:href="#textext-3cbf6ac5-11"
             width="744.09448"
             height="1052.3622" />
        </g>
        <g
           id="g3557"
           style="fill:#000000;fill-opacity:1">
          <use
             id="use3559"
             y="133.17101"
             x="364.95499"
             xlink:href="#textext-3cbf6ac5-2"
             width="744.09448"
             height="1052.3622" />
        </g>
        <g
           id="g3561"
           style="fill:#000000;fill-opacity:1">
          <use
             id="use3563"
             y="134.66499"
             x="370.64899"
             xlink:href="#textext-3cbf6ac5-6"
             width="744.09448"
             height="1052.3622" />
        </g>
        <g
           id="g3565"
           style="fill:#000000;fill-opacity:1">
          <use
             id="use3567"
             y="133.17101"
             x="374.707"
             xlink:href="#textext-3cbf6ac5-8"
             width="744.09448"
             height="1052.3622" />
        </g>
        <g
           id="g3569"
           style="fill:#000000;fill-opacity:1">
          <use
             id="use3571"
             y="133.17101"
             x="378.582"
             xlink:href="#textext-3cbf6ac5-1"
             width="744.09448"
             height="1052.3622" />
        </g>
        <g
           id="g3573"
           style="fill:#000000;fill-opacity:1">
          <use
             id="use3575"
             y="133.17101"
             x="382.17899"
             xlink:href="#textext-3cbf6ac5-9"
             width="744.09448"
             height="1052.3622" />
        </g>
        <g
           id="g3577"
           style="fill:#000000;fill-opacity:1">
          <use
             id="use3579"
             y="145.12601"
             x="365.35999"
             xlink:href="#textext-3cbf6ac5-3"
             width="744.09448"
             height="1052.3622" />
        </g>
        <g
           id="g3581"
           style="fill:#000000;fill-opacity:1">
          <use
             id="use3583"
             y="146.62"
             x="370.24399"
             xlink:href="#textext-3cbf6ac5-6"
             width="744.09448"
             height="1052.3622" />
        </g>
        <g
           id="g3585"
           style="fill:#000000;fill-opacity:1">
          <use
             id="use3587"
             y="145.12601"
             x="374.30301"
             xlink:href="#textext-3cbf6ac5-8"
             width="744.09448"
             height="1052.3622" />
        </g>
        <g
           id="g3589"
           style="fill:#000000;fill-opacity:1">
          <use
             id="use3591"
             y="145.12601"
             x="378.177"
             xlink:href="#textext-3cbf6ac5-1"
             width="744.09448"
             height="1052.3622" />
        </g>
        <g
           id="g3593"
           style="fill:#000000;fill-opacity:1">
          <use
             id="use3595"
             y="145.12601"
             x="381.77499"
             xlink:href="#textext-3cbf6ac5-9"
             width="744.09448"
             height="1052.3622" />
        </g>
        <g
           id="g3597"
           style="fill:#000000;fill-opacity:1">
          <use
             id="use3599"
             y="125.2"
             x="386.05399"
             xlink:href="#textext-3cbf6ac5-12"
             width="744.09448"
             height="1052.3622" />
        </g>
        <g
           id="g3601"
           style="fill:#000000;fill-opacity:1">
          <use
             id="use3603"
             y="139.248"
             x="396.155"
             xlink:href="#textext-3cbf6ac5-10"
             width="744.09448"
             height="1052.3622" />
        </g>
        <g
           id="g3605"
           style="fill:#000000;fill-opacity:1">
          <use
             id="use3607"
             y="132.508"
             x="416.10599"
             xlink:href="#textext-3cbf6ac5-4"
             width="744.09448"
             height="1052.3622" />
        </g>
        <path
           id="path3609"
           transform="matrix(1,0,0,-1,407.866,136.757)"
           d="m -0.366,0.257 23,0"
           style="fill:none;stroke:#000000;stroke-width:1;stroke-linecap:butt;stroke-linejoin:miter;stroke-miterlimit:10;stroke-opacity:1"
           inkscape:connector-curvature="0" />
        <g
           id="g3611"
           style="fill:#000000;fill-opacity:1">
          <use
             id="use3613"
             y="146.082"
             x="407.866"
             xlink:href="#textext-3cbf6ac5-5"
             width="744.09448"
             height="1052.3622" />
        </g>
        <g
           id="g3615"
           style="fill:#000000;fill-opacity:1">
          <use
             id="use3617"
             y="147.576"
             x="412.49899"
             xlink:href="#textext-3cbf6ac5-7"
             width="744.09448"
             height="1052.3622" />
        </g>
        <g
           id="g3619"
           style="fill:#000000;fill-opacity:1">
          <use
             id="use3621"
             y="146.082"
             x="418.94901"
             xlink:href="#textext-3cbf6ac5-8"
             width="744.09448"
             height="1052.3622" />
        </g>
        <g
           id="g3623"
           style="fill:#000000;fill-opacity:1">
          <use
             id="use3625"
             y="146.082"
             x="422.823"
             xlink:href="#textext-3cbf6ac5-1"
             width="744.09448"
             height="1052.3622" />
        </g>
        <g
           id="g3627"
           style="fill:#000000;fill-opacity:1">
          <use
             id="use3629"
             y="146.082"
             x="426.42099"
             xlink:href="#textext-3cbf6ac5-9"
             width="744.09448"
             height="1052.3622" />
        </g>
        <g
           id="g3631"
           style="fill:#000000;fill-opacity:1">
          <use
             id="use3633"
             y="125.2"
             x="433.151"
             xlink:href="#textext-3cbf6ac5-11"
             width="744.09448"
             height="1052.3622" />
        </g>
        <g
           id="g3635"
           style="fill:#000000;fill-opacity:1">
          <use
             id="use3637"
             y="133.17101"
             x="440.48401"
             xlink:href="#textext-3cbf6ac5-2"
             width="744.09448"
             height="1052.3622" />
        </g>
        <g
           id="g3639"
           style="fill:#000000;fill-opacity:1">
          <use
             id="use3641"
             y="134.66499"
             x="446.17801"
             xlink:href="#textext-3cbf6ac5-7"
             width="744.09448"
             height="1052.3622" />
        </g>
        <g
           id="g3643"
           style="fill:#000000;fill-opacity:1">
          <use
             id="use3645"
             y="133.17101"
             x="452.62799"
             xlink:href="#textext-3cbf6ac5-8"
             width="744.09448"
             height="1052.3622" />
        </g>
        <g
           id="g3647"
           style="fill:#000000;fill-opacity:1">
          <use
             id="use3649"
             y="133.17101"
             x="456.50201"
             xlink:href="#textext-3cbf6ac5-1"
             width="744.09448"
             height="1052.3622" />
        </g>
        <g
           id="g3651"
           style="fill:#000000;fill-opacity:1">
          <use
             id="use3653"
             y="133.17101"
             x="460.10001"
             xlink:href="#textext-3cbf6ac5-9"
             width="744.09448"
             height="1052.3622" />
        </g>
        <g
           id="g3655"
           style="fill:#000000;fill-opacity:1">
          <use
             id="use3657"
             y="145.12601"
             x="440.88901"
             xlink:href="#textext-3cbf6ac5-3"
             width="744.09448"
             height="1052.3622" />
        </g>
        <g
           id="g3659"
           style="fill:#000000;fill-opacity:1">
          <use
             id="use3661"
             y="146.62"
             x="445.77399"
             xlink:href="#textext-3cbf6ac5-7"
             width="744.09448"
             height="1052.3622" />
        </g>
        <g
           id="g3663"
           style="fill:#000000;fill-opacity:1">
          <use
             id="use3665"
             y="145.12601"
             x="452.22299"
             xlink:href="#textext-3cbf6ac5-8"
             width="744.09448"
             height="1052.3622" />
        </g>
        <g
           id="g3667"
           style="fill:#000000;fill-opacity:1">
          <use
             id="use3669"
             y="145.12601"
             x="456.09698"
             xlink:href="#textext-3cbf6ac5-1"
             width="744.09448"
             height="1052.3622" />
        </g>
        <g
           id="g3671"
           style="fill:#000000;fill-opacity:1">
          <use
             id="use3673"
             y="145.12601"
             x="459.69501"
             xlink:href="#textext-3cbf6ac5-9"
             width="744.09448"
             height="1052.3622" />
        </g>
        <g
           id="g3675"
           style="fill:#000000;fill-opacity:1">
          <use
             id="use3677"
             y="125.2"
             x="463.974"
             xlink:href="#textext-3cbf6ac5-12"
             width="744.09448"
             height="1052.3622" />
        </g>
      </g>
    </g>
  </g>
</svg>
