<?xml version="1.0" encoding="UTF-8" standalone="no"?>
<!-- Created with Inkscape (http://www.inkscape.org/) -->

<svg
   xmlns:ns0="http://www.iki.fi/pav/software/textext/"
   xmlns:dc="http://purl.org/dc/elements/1.1/"
   xmlns:cc="http://creativecommons.org/ns#"
   xmlns:rdf="http://www.w3.org/1999/02/22-rdf-syntax-ns#"
   xmlns:svg="http://www.w3.org/2000/svg"
   xmlns="http://www.w3.org/2000/svg"
   xmlns:xlink="http://www.w3.org/1999/xlink"
   xmlns:sodipodi="http://sodipodi.sourceforge.net/DTD/sodipodi-0.dtd"
   xmlns:inkscape="http://www.inkscape.org/namespaces/inkscape"
   width="744.09448819"
   height="1052.3622047"
   id="svg3766"
   version="1.1"
   inkscape:version="0.48.3.1 r9886"
   sodipodi:docname="pinholepapa.svg"
   inkscape:export-filename="/home/francois/Documents/Courses/VisionAndImageProcessing/lectures/Francois/FIGURES/pinholepara.png"
   inkscape:export-xdpi="90"
   inkscape:export-ydpi="90">
  <sodipodi:namedview
     id="base"
     pagecolor="#ffffff"
     bordercolor="#ffffff"
     borderopacity="0.0"
     inkscape:pageopacity="0.0"
     inkscape:pageshadow="0"
     inkscape:zoom="0.35"
     inkscape:cx="518.86201"
     inkscape:cy="814.99386"
     inkscape:document-units="px"
     inkscape:current-layer="layer1"
     showgrid="true"
     inkscape:window-width="1680"
     inkscape:window-height="1026"
     inkscape:window-x="0"
     inkscape:window-y="24"
     inkscape:window-maximized="1">
    <inkscape:grid
       id="grid3774"
       type="xygrid" />
  </sodipodi:namedview>
  <defs
     id="defs3768">
    <marker
       inkscape:stockid="Arrow1Lend"
       orient="auto"
       refY="0.0"
       refX="0.0"
       id="Arrow1Lend"
       style="overflow:visible;">
      <path
         id="path4355"
         d="M 0.0,0.0 L 5.0,-5.0 L -12.5,0.0 L 5.0,5.0 L 0.0,0.0 z "
         style="fill-rule:evenodd;stroke:#000000;stroke-width:1.0pt;"
         transform="scale(0.8) rotate(180) translate(12.5,0)" />
    </marker>
    <marker
       inkscape:stockid="Arrow1Lstart"
       orient="auto"
       refY="0.0"
       refX="0.0"
       id="Arrow1Lstart"
       style="overflow:visible">
      <path
         id="path4352"
         d="M 0.0,0.0 L 5.0,-5.0 L -12.5,0.0 L 5.0,5.0 L 0.0,0.0 z "
         style="fill-rule:evenodd;stroke:#000000;stroke-width:1.0pt"
         transform="scale(0.8) translate(12.5,0)" />
    </marker>
  </defs>
  <metadata
     id="metadata3771">
    <rdf:RDF>
      <cc:Work
         rdf:about="">
        <dc:format>image/svg+xml</dc:format>
        <dc:type
           rdf:resource="http://purl.org/dc/dcmitype/StillImage" />
        <dc:title></dc:title>
      </cc:Work>
    </rdf:RDF>
  </metadata>
  <g
     id="layer1"
     inkscape:groupmode="layer"
     inkscape:label="Layer 1">
    <rect
       transform="matrix(0.86272814,-0.50566803,0,1,0,0)"
       y="123.29072"
       x="-347.7341"
       height="593.23346"
       width="973.65552"
       id="rect3776"
       style="fill:none;stroke:#000000;stroke-width:2.97134328;stroke-miterlimit:4;stroke-opacity:1;stroke-dasharray:none;stroke-dashoffset:0" />
    <path
       inkscape:connector-curvature="0"
       id="path3778"
       d="m -395.7143,412.36218 -4.2857,-620"
       style="fill:none;stroke:#000000;stroke-width:3;stroke-linecap:butt;stroke-linejoin:miter;stroke-miterlimit:4;stroke-opacity:1;stroke-dasharray:none;marker-end:url(#Arrow1Lend)"
       sodipodi:nodetypes="cc" />
    <path
       style="fill:none;stroke:#000000;stroke-width:3;stroke-linecap:butt;stroke-linejoin:miter;stroke-miterlimit:4;stroke-opacity:1;stroke-dasharray:none;marker-end:url(#Arrow1Lend)"
       d="m -395.7143,412.36218 -404.2857,240"
       id="path4288"
       inkscape:connector-curvature="0"
       sodipodi:nodetypes="cc" />
    <path
       inkscape:connector-curvature="0"
       id="path4294"
       d="m 1224,412.36218 -1120,0"
       style="fill:none;stroke:#000000;stroke-width:3;stroke-linecap:butt;stroke-linejoin:miter;stroke-miterlimit:4;stroke-opacity:1;stroke-dasharray:none;marker-start:url(#Arrow1Lstart)" />
    <text
       sodipodi:linespacing="125%"
       id="text4296"
       y="355.21933"
       x="-782.85712"
       style="font-size:72px;font-style:normal;font-weight:normal;line-height:125%;letter-spacing:0px;word-spacing:0px;fill:#000000;fill-opacity:1;stroke:none;font-family:Sans"
       xml:space="preserve"><tspan
         y="355.21933"
         x="-782.85712"
         id="tspan4298"
         sodipodi:role="line" /></text>
    <g
       id="g4314"
       ns0:preamble="/home/francois/Documents/Mypapers/InkscapeHeader/header.inc"
       ns0:text="$O$"
       transform="matrix(8,0,0,8,-2267.9936,-672.41497)">
      <defs
         id="defs4316">
        <g
           id="g4318">
          <symbol
             id="textext-0db4b59d-0"
             overflow="visible"
             style="overflow:visible">
            <path
               id="path4321"
               d="m 7.375,-4.34375 c 0,-1.609375 -1.0625,-2.6875 -2.546875,-2.6875 -2.140625,0 -4.34375,2.265625 -4.34375,4.59375 0,1.65625 1.125,2.65625 2.5625,2.65625 2.109375,0 4.328125,-2.1875 4.328125,-4.5625 z m -4.28125,4.296875 c -0.984375,0 -1.671875,-0.796875 -1.671875,-2.109375 0,-0.453125 0.140625,-1.90625 0.90625,-3.0625 0.6875,-1.046875 1.65625,-1.5625 2.453125,-1.5625 0.8125,0 1.703125,0.5625 1.703125,2.046875 0,0.71875 -0.265625,2.265625 -1.25,3.5 C 4.75,-0.625 3.9375,-0.046875 3.09375,-0.046875 z m 0,0"
               style="stroke:none"
               inkscape:connector-curvature="0" />
          </symbol>
        </g>
      </defs>
      <g
         id="textext-0db4b59d-1">
        <g
           id="g4324"
           style="fill:#000000;fill-opacity:1">
          <use
             id="use4326"
             y="134.765"
             x="223.43201"
             xlink:href="#textext-0db4b59d-0"
             width="744.09448"
             height="1052.3622" />
        </g>
      </g>
    </g>
    <g
       transform="matrix(7,0,0,7,-2305.7145,-277.14286)"
       ns0:text="$x_w$"
       ns0:preamble="/home/francois/Documents/Mypapers/InkscapeHeader/header.inc"
       id="g5188">
      <defs
         id="defs5190">
        <g
           id="g5192">
          <symbol
             style="overflow:visible"
             overflow="visible"
             id="textext-e638bcd4-0">
            <path
               inkscape:connector-curvature="0"
               style="stroke:none"
               d="M 3.328125,-3.015625 C 3.390625,-3.265625 3.625,-4.1875 4.3125,-4.1875 c 0.046875,0 0.296875,0 0.5,0.125 C 4.53125,-4 4.34375,-3.765625 4.34375,-3.515625 c 0,0.15625 0.109375,0.34375 0.375,0.34375 0.21875,0 0.53125,-0.171875 0.53125,-0.578125 0,-0.515625 -0.578125,-0.65625 -0.921875,-0.65625 -0.578125,0 -0.921875,0.53125 -1.046875,0.75 -0.25,-0.65625 -0.78125,-0.75 -1.078125,-0.75 -1.03125,0 -1.609375,1.28125 -1.609375,1.53125 0,0.109375 0.109375,0.109375 0.125,0.109375 0.078125,0 0.109375,-0.03125 0.125,-0.109375 0.34375,-1.0625 1,-1.3125 1.34375,-1.3125 0.1875,0 0.53125,0.09375 0.53125,0.671875 0,0.3125 -0.171875,0.96875 -0.53125,2.375 -0.15625,0.609375 -0.515625,1.03125 -0.953125,1.03125 -0.0625,0 -0.28125,0 -0.5,-0.125 0.25,-0.0625 0.46875,-0.265625 0.46875,-0.546875 0,-0.265625 -0.21875,-0.34375 -0.359375,-0.34375 -0.3125,0 -0.546875,0.25 -0.546875,0.578125 0,0.453125 0.484375,0.65625 0.921875,0.65625 0.671875,0 1.03125,-0.703125 1.046875,-0.75 0.125,0.359375 0.484375,0.75 1.078125,0.75 1.03125,0 1.59375,-1.28125 1.59375,-1.53125 0,-0.109375 -0.078125,-0.109375 -0.109375,-0.109375 -0.09375,0 -0.109375,0.046875 -0.140625,0.109375 -0.328125,1.078125 -1,1.3125 -1.3125,1.3125 -0.390625,0 -0.546875,-0.3125 -0.546875,-0.65625 0,-0.21875 0.046875,-0.4375 0.15625,-0.875 z m 0,0"
               id="path5195" />
          </symbol>
          <symbol
             style="overflow:visible"
             overflow="visible"
             id="textext-e638bcd4-1">
            <path
               inkscape:connector-curvature="0"
               style="stroke:none"
               d="m 3.671875,-2.21875 c 0.046875,-0.1875 0.125,-0.53125 0.125,-0.5625 C 3.796875,-2.921875 3.6875,-3 3.5625,-3 3.4375,-3 3.3125,-2.921875 3.265625,-2.796875 3.25,-2.75 3.171875,-2.453125 3.125,-2.28125 3.03125,-1.875 3.03125,-1.875 2.921875,-1.484375 2.84375,-1.09375 2.828125,-1.03125 2.8125,-0.84375 2.84375,-0.703125 2.78125,-0.5625 2.625,-0.359375 2.53125,-0.25 2.390625,-0.125 2.15625,-0.125 1.875,-0.125 1.53125,-0.21875 1.53125,-0.765625 1.53125,-1.125 1.71875,-1.640625 1.859375,-2 1.984375,-2.296875 2,-2.359375 2,-2.484375 2,-2.8125 1.71875,-3.078125 1.34375,-3.078125 0.640625,-3.078125 0.328125,-2.125 0.328125,-2 c 0,0.078125 0.09375,0.078125 0.125,0.078125 0.09375,0 0.09375,-0.03125 0.125,-0.109375 C 0.75,-2.609375 1.046875,-2.875 1.328125,-2.875 1.4375,-2.875 1.5,-2.796875 1.5,-2.640625 c 0,0.171875 -0.0625,0.3125 -0.09375,0.40625 C 1,-1.21875 1,-1.078125 1,-0.859375 1,-0.03125 1.75,0.0625 2.125,0.0625 c 0.140625,0 0.46875,0 0.78125,-0.453125 C 3.078125,-0.078125 3.453125,0.0625 3.875,0.0625 4.5,0.0625 4.8125,-0.46875 4.953125,-0.75 5.25,-1.34375 5.4375,-2.203125 5.4375,-2.53125 c 0,-0.515625 -0.296875,-0.546875 -0.34375,-0.546875 -0.1875,0 -0.390625,0.1875 -0.390625,0.375 0,0.109375 0.078125,0.171875 0.125,0.203125 C 5,-2.359375 5.09375,-2.15625 5.09375,-1.9375 c 0,0.09375 -0.296875,1.8125 -1.1875,1.8125 -0.5625,0 -0.5625,-0.5 -0.5625,-0.625 0,-0.1875 0.03125,-0.296875 0.125,-0.6875 z m 0,0"
               id="path5198" />
          </symbol>
        </g>
      </defs>
      <g
         id="textext-e638bcd4-2">
        <g
           style="fill:#000000;fill-opacity:1"
           id="g5201">
          <use
             height="1052.3622"
             width="744.09448"
             xlink:href="#textext-e638bcd4-0"
             x="223.43201"
             y="134.765"
             id="use5203" />
        </g>
        <g
           style="fill:#000000;fill-opacity:1"
           id="g5205">
          <use
             height="1052.3622"
             width="744.09448"
             xlink:href="#textext-e638bcd4-1"
             x="229.12601"
             y="136.259"
             id="use5207"
             transform="translate(-1.4285715,0)" />
        </g>
      </g>
    </g>
    <g
       id="g5307"
       transform="matrix(7,0,0,7,-1927.143,-1105.7142)"
       ns0:preamble="/home/francois/Documents/Mypapers/InkscapeHeader/header.inc"
       ns0:text="$y_w$">
      <defs
         id="defs5309">
        <g
           id="g5311">
          <symbol
             id="textext-433b9b92-0"
             overflow="visible"
             style="overflow:visible">
            <path
               id="path5314"
               d="m 4.84375,-3.796875 c 0.046875,-0.140625 0.046875,-0.15625 0.046875,-0.234375 0,-0.171875 -0.140625,-0.265625 -0.296875,-0.265625 -0.09375,0 -0.25,0.0625 -0.34375,0.203125 -0.015625,0.0625 -0.109375,0.359375 -0.140625,0.546875 -0.078125,0.25 -0.140625,0.53125 -0.203125,0.796875 l -0.453125,1.796875 c -0.03125,0.140625 -0.46875,0.84375 -1.125,0.84375 -0.5,0 -0.609375,-0.4375 -0.609375,-0.8125 C 1.71875,-1.375 1.890625,-2 2.21875,-2.875 2.375,-3.28125 2.421875,-3.390625 2.421875,-3.59375 c 0,-0.4375 -0.3125,-0.8125 -0.8125,-0.8125 -0.953125,0 -1.3125,1.453125 -1.3125,1.53125 0,0.109375 0.09375,0.109375 0.109375,0.109375 0.109375,0 0.109375,-0.03125 0.15625,-0.1875 0.28125,-0.9375 0.671875,-1.234375 1.015625,-1.234375 0.078125,0 0.25,0 0.25,0.3125 0,0.25 -0.109375,0.515625 -0.171875,0.703125 -0.40625,1.0625 -0.578125,1.625 -0.578125,2.09375 0,0.890625 0.625,1.1875 1.21875,1.1875 0.390625,0 0.71875,-0.171875 1,-0.453125 -0.125,0.515625 -0.25,1.015625 -0.640625,1.546875 -0.265625,0.328125 -0.640625,0.625 -1.09375,0.625 -0.140625,0 -0.59375,-0.03125 -0.765625,-0.421875 0.15625,0 0.296875,0 0.421875,-0.125 C 1.328125,1.203125 1.421875,1.0625 1.421875,0.875 1.421875,0.5625 1.15625,0.53125 1.0625,0.53125 0.828125,0.53125 0.5,0.6875 0.5,1.171875 c 0,0.5 0.4375,0.875 1.0625,0.875 1.015625,0 2.046875,-0.90625 2.328125,-2.03125 z m 0,0"
               style="stroke:none"
               inkscape:connector-curvature="0" />
          </symbol>
          <symbol
             id="textext-433b9b92-1"
             overflow="visible"
             style="overflow:visible">
            <path
               id="path5317"
               d="m 3.671875,-2.21875 c 0.046875,-0.1875 0.125,-0.53125 0.125,-0.5625 C 3.796875,-2.921875 3.6875,-3 3.5625,-3 3.4375,-3 3.3125,-2.921875 3.265625,-2.796875 3.25,-2.75 3.171875,-2.453125 3.125,-2.28125 3.03125,-1.875 3.03125,-1.875 2.921875,-1.484375 2.84375,-1.09375 2.828125,-1.03125 2.8125,-0.84375 2.84375,-0.703125 2.78125,-0.5625 2.625,-0.359375 2.53125,-0.25 2.390625,-0.125 2.15625,-0.125 1.875,-0.125 1.53125,-0.21875 1.53125,-0.765625 1.53125,-1.125 1.71875,-1.640625 1.859375,-2 1.984375,-2.296875 2,-2.359375 2,-2.484375 2,-2.8125 1.71875,-3.078125 1.34375,-3.078125 0.640625,-3.078125 0.328125,-2.125 0.328125,-2 c 0,0.078125 0.09375,0.078125 0.125,0.078125 0.09375,0 0.09375,-0.03125 0.125,-0.109375 C 0.75,-2.609375 1.046875,-2.875 1.328125,-2.875 1.4375,-2.875 1.5,-2.796875 1.5,-2.640625 c 0,0.171875 -0.0625,0.3125 -0.09375,0.40625 C 1,-1.21875 1,-1.078125 1,-0.859375 1,-0.03125 1.75,0.0625 2.125,0.0625 c 0.140625,0 0.46875,0 0.78125,-0.453125 C 3.078125,-0.078125 3.453125,0.0625 3.875,0.0625 4.5,0.0625 4.8125,-0.46875 4.953125,-0.75 5.25,-1.34375 5.4375,-2.203125 5.4375,-2.53125 c 0,-0.515625 -0.296875,-0.546875 -0.34375,-0.546875 -0.1875,0 -0.390625,0.1875 -0.390625,0.375 0,0.109375 0.078125,0.171875 0.125,0.203125 C 5,-2.359375 5.09375,-2.15625 5.09375,-1.9375 c 0,0.09375 -0.296875,1.8125 -1.1875,1.8125 -0.5625,0 -0.5625,-0.5 -0.5625,-0.625 0,-0.1875 0.03125,-0.296875 0.125,-0.6875 z m 0,0"
               style="stroke:none"
               inkscape:connector-curvature="0" />
          </symbol>
        </g>
      </defs>
      <g
         id="textext-433b9b92-2">
        <g
           id="g5320"
           style="fill:#000000;fill-opacity:1">
          <use
             id="use5322"
             y="134.765"
             x="223.43201"
             xlink:href="#textext-433b9b92-0"
             width="744.09448"
             height="1052.3622" />
        </g>
        <g
           id="g5324"
           style="fill:#000000;fill-opacity:1">
          <use
             id="use5326"
             y="136.259"
             x="228.317"
             xlink:href="#textext-433b9b92-1"
             width="744.09448"
             height="1052.3622" />
        </g>
      </g>
    </g>
    <g
       ns0:text="$z_w$"
       ns0:preamble="/home/francois/Documents/Mypapers/InkscapeHeader/header.inc"
       transform="matrix(7,0,0,7,-265.71423,-525.71424)"
       id="g5450">
      <defs
         id="defs5452">
        <g
           id="g5454">
          <symbol
             overflow="visible"
             id="textext-e0a3a07d-0">
            <path
               style="stroke:none;"
               d="M 1.328125 -0.828125 C 1.859375 -1.40625 2.15625 -1.65625 2.515625 -1.96875 C 2.515625 -1.96875 3.125 -2.5 3.484375 -2.859375 C 4.4375 -3.78125 4.65625 -4.265625 4.65625 -4.3125 C 4.65625 -4.40625 4.5625 -4.40625 4.546875 -4.40625 C 4.46875 -4.40625 4.453125 -4.390625 4.390625 -4.296875 C 4.09375 -3.8125 3.890625 -3.65625 3.65625 -3.65625 C 3.40625 -3.65625 3.296875 -3.8125 3.140625 -3.984375 C 2.953125 -4.203125 2.78125 -4.40625 2.453125 -4.40625 C 1.703125 -4.40625 1.25 -3.484375 1.25 -3.265625 C 1.25 -3.21875 1.28125 -3.15625 1.359375 -3.15625 C 1.453125 -3.15625 1.46875 -3.203125 1.5 -3.265625 C 1.6875 -3.734375 2.265625 -3.734375 2.34375 -3.734375 C 2.546875 -3.734375 2.734375 -3.671875 2.96875 -3.59375 C 3.375 -3.4375 3.484375 -3.4375 3.734375 -3.4375 C 3.375 -3.015625 2.546875 -2.296875 2.359375 -2.140625 L 1.453125 -1.296875 C 0.78125 -0.625 0.421875 -0.0625 0.421875 0.015625 C 0.421875 0.109375 0.53125 0.109375 0.546875 0.109375 C 0.625 0.109375 0.640625 0.09375 0.703125 -0.015625 C 0.9375 -0.375 1.234375 -0.640625 1.5625 -0.640625 C 1.78125 -0.640625 1.890625 -0.546875 2.140625 -0.265625 C 2.296875 -0.046875 2.484375 0.109375 2.765625 0.109375 C 3.765625 0.109375 4.34375 -1.15625 4.34375 -1.421875 C 4.34375 -1.46875 4.296875 -1.53125 4.21875 -1.53125 C 4.125 -1.53125 4.109375 -1.46875 4.078125 -1.390625 C 3.84375 -0.75 3.203125 -0.5625 2.875 -0.5625 C 2.6875 -0.5625 2.5 -0.625 2.296875 -0.6875 C 1.953125 -0.8125 1.796875 -0.859375 1.59375 -0.859375 C 1.578125 -0.859375 1.421875 -0.859375 1.328125 -0.828125 Z M 1.328125 -0.828125 "
               id="path5457" />
          </symbol>
          <symbol
             overflow="visible"
             id="textext-e0a3a07d-1">
            <path
               style="stroke:none;"
               d="M 3.671875 -2.21875 C 3.71875 -2.40625 3.796875 -2.75 3.796875 -2.78125 C 3.796875 -2.921875 3.6875 -3 3.5625 -3 C 3.4375 -3 3.3125 -2.921875 3.265625 -2.796875 C 3.25 -2.75 3.171875 -2.453125 3.125 -2.28125 C 3.03125 -1.875 3.03125 -1.875 2.921875 -1.484375 C 2.84375 -1.09375 2.828125 -1.03125 2.8125 -0.84375 C 2.84375 -0.703125 2.78125 -0.5625 2.625 -0.359375 C 2.53125 -0.25 2.390625 -0.125 2.15625 -0.125 C 1.875 -0.125 1.53125 -0.21875 1.53125 -0.765625 C 1.53125 -1.125 1.71875 -1.640625 1.859375 -2 C 1.984375 -2.296875 2 -2.359375 2 -2.484375 C 2 -2.8125 1.71875 -3.078125 1.34375 -3.078125 C 0.640625 -3.078125 0.328125 -2.125 0.328125 -2 C 0.328125 -1.921875 0.421875 -1.921875 0.453125 -1.921875 C 0.546875 -1.921875 0.546875 -1.953125 0.578125 -2.03125 C 0.75 -2.609375 1.046875 -2.875 1.328125 -2.875 C 1.4375 -2.875 1.5 -2.796875 1.5 -2.640625 C 1.5 -2.46875 1.4375 -2.328125 1.40625 -2.234375 C 1 -1.21875 1 -1.078125 1 -0.859375 C 1 -0.03125 1.75 0.0625 2.125 0.0625 C 2.265625 0.0625 2.59375 0.0625 2.90625 -0.390625 C 3.078125 -0.078125 3.453125 0.0625 3.875 0.0625 C 4.5 0.0625 4.8125 -0.46875 4.953125 -0.75 C 5.25 -1.34375 5.4375 -2.203125 5.4375 -2.53125 C 5.4375 -3.046875 5.140625 -3.078125 5.09375 -3.078125 C 4.90625 -3.078125 4.703125 -2.890625 4.703125 -2.703125 C 4.703125 -2.59375 4.78125 -2.53125 4.828125 -2.5 C 5 -2.359375 5.09375 -2.15625 5.09375 -1.9375 C 5.09375 -1.84375 4.796875 -0.125 3.90625 -0.125 C 3.34375 -0.125 3.34375 -0.625 3.34375 -0.75 C 3.34375 -0.9375 3.375 -1.046875 3.46875 -1.4375 Z M 3.671875 -2.21875 "
               id="path5460" />
          </symbol>
        </g>
      </defs>
      <g
         id="textext-e0a3a07d-2">
        <g
           style="fill:rgb(0%,0%,0%);fill-opacity:1;"
           id="g5463">
          <use
             xlink:href="#textext-e0a3a07d-0"
             x="223.432"
             y="134.765"
             id="use5465" />
        </g>
        <g
           style="fill:rgb(0%,0%,0%);fill-opacity:1;"
           id="g5467">
          <use
             xlink:href="#textext-e0a3a07d-1"
             x="228.065"
             y="136.259"
             id="use5469" />
        </g>
      </g>
    </g>
    <path
       transform="matrix(1.4438977,0,0,1,2093.4535,640)"
       d="m -1377.1429,-227.63782 a 5.7142859,8.5714283 0 1 1 -11.4286,0 5.7142859,8.5714283 0 1 1 11.4286,0 z"
       sodipodi:ry="8.5714283"
       sodipodi:rx="5.7142859"
       sodipodi:cy="-227.63782"
       sodipodi:cx="-1382.8572"
       id="path5531"
       style="fill:#000000;fill-opacity:1;stroke:#000000;stroke-width:3;stroke-miterlimit:4;stroke-opacity:1;stroke-dasharray:none;stroke-dashoffset:0"
       sodipodi:type="arc" />
    <g
       id="g5672"
       ns0:preamble="/home/francois/Documents/Mypapers/InkscapeHeader/header.inc"
       ns0:text="$P$"
       transform="matrix(7,0,0,7,-1433.4184,-569.23695)">
      <defs
         id="defs5674">
        <g
           id="g5676">
          <symbol
             id="textext-2b6f414f-0"
             overflow="visible"
             style="overflow:visible">
            <path
               id="path5679"
               d="m 3.015625,-3.15625 1.703125,0 c 1.40625,0 2.796875,-1.03125 2.796875,-2.140625 0,-0.78125 -0.65625,-1.515625 -1.96875,-1.515625 l -3.21875,0 c -0.1875,0 -0.296875,0 -0.296875,0.1875 0,0.125 0.078125,0.125 0.28125,0.125 0.125,0 0.3125,0.015625 0.421875,0.015625 0.171875,0.03125 0.21875,0.046875 0.21875,0.171875 0,0.03125 0,0.0625 -0.03125,0.1875 l -1.34375,5.34375 c -0.09375,0.390625 -0.109375,0.46875 -0.90625,0.46875 -0.15625,0 -0.265625,0 -0.265625,0.1875 C 0.40625,0 0.515625,0 0.546875,0 0.828125,0 1.53125,-0.03125 1.8125,-0.03125 c 0.21875,0 0.4375,0.015625 0.640625,0.015625 0.21875,0 0.4375,0.015625 0.640625,0.015625 0.078125,0 0.203125,0 0.203125,-0.203125 0,-0.109375 -0.09375,-0.109375 -0.28125,-0.109375 -0.359375,0 -0.640625,0 -0.640625,-0.171875 0,-0.0625 0.015625,-0.109375 0.03125,-0.171875 z M 3.734375,-6.125 C 3.828125,-6.46875 3.84375,-6.5 4.28125,-6.5 l 0.953125,0 c 0.828125,0 1.359375,0.265625 1.359375,0.953125 0,0.390625 -0.203125,1.25 -0.59375,1.609375 -0.5,0.453125 -1.09375,0.53125 -1.53125,0.53125 l -1.40625,0 z m 0,0"
               style="stroke:none"
               inkscape:connector-curvature="0" />
          </symbol>
        </g>
      </defs>
      <g
         id="textext-2b6f414f-1">
        <g
           id="g5682"
           style="fill:#000000;fill-opacity:1">
          <use
             id="use5684"
             y="134.765"
             x="223.43201"
             xlink:href="#textext-2b6f414f-0"
             width="744.09448"
             height="1052.3622" />
        </g>
      </g>
    </g>
    <path
       style="fill:none;stroke:#000000;stroke-width:3;stroke-linecap:butt;stroke-linejoin:miter;stroke-miterlimit:4;stroke-opacity:1;stroke-dasharray:none;marker-end:url(#Arrow1Lend)"
       d="m 95,412.36218 0,-250"
       id="path5761"
       inkscape:connector-curvature="0" />
    <path
       inkscape:connector-curvature="0"
       id="path5960"
       d="m 95,412.36218 -216.50636,125"
       style="fill:none;stroke:#000000;stroke-width:3;stroke-linecap:butt;stroke-linejoin:miter;stroke-miterlimit:4;stroke-opacity:1;stroke-dasharray:none;marker-end:url(#Arrow1Lend)" />
    <g
       ns0:text="$x_c$"
       ns0:preamble="/home/francois/Documents/Mypapers/InkscapeHeader/header.inc"
       transform="matrix(7,0,0,7,-1672.9219,-368.71594)"
       id="g6065">
      <defs
         id="defs6067">
        <g
           id="g6069">
          <symbol
             overflow="visible"
             id="textext-698a2318-0">
            <path
               style="stroke:none;"
               d="M 3.328125 -3.015625 C 3.390625 -3.265625 3.625 -4.1875 4.3125 -4.1875 C 4.359375 -4.1875 4.609375 -4.1875 4.8125 -4.0625 C 4.53125 -4 4.34375 -3.765625 4.34375 -3.515625 C 4.34375 -3.359375 4.453125 -3.171875 4.71875 -3.171875 C 4.9375 -3.171875 5.25 -3.34375 5.25 -3.75 C 5.25 -4.265625 4.671875 -4.40625 4.328125 -4.40625 C 3.75 -4.40625 3.40625 -3.875 3.28125 -3.65625 C 3.03125 -4.3125 2.5 -4.40625 2.203125 -4.40625 C 1.171875 -4.40625 0.59375 -3.125 0.59375 -2.875 C 0.59375 -2.765625 0.703125 -2.765625 0.71875 -2.765625 C 0.796875 -2.765625 0.828125 -2.796875 0.84375 -2.875 C 1.1875 -3.9375 1.84375 -4.1875 2.1875 -4.1875 C 2.375 -4.1875 2.71875 -4.09375 2.71875 -3.515625 C 2.71875 -3.203125 2.546875 -2.546875 2.1875 -1.140625 C 2.03125 -0.53125 1.671875 -0.109375 1.234375 -0.109375 C 1.171875 -0.109375 0.953125 -0.109375 0.734375 -0.234375 C 0.984375 -0.296875 1.203125 -0.5 1.203125 -0.78125 C 1.203125 -1.046875 0.984375 -1.125 0.84375 -1.125 C 0.53125 -1.125 0.296875 -0.875 0.296875 -0.546875 C 0.296875 -0.09375 0.78125 0.109375 1.21875 0.109375 C 1.890625 0.109375 2.25 -0.59375 2.265625 -0.640625 C 2.390625 -0.28125 2.75 0.109375 3.34375 0.109375 C 4.375 0.109375 4.9375 -1.171875 4.9375 -1.421875 C 4.9375 -1.53125 4.859375 -1.53125 4.828125 -1.53125 C 4.734375 -1.53125 4.71875 -1.484375 4.6875 -1.421875 C 4.359375 -0.34375 3.6875 -0.109375 3.375 -0.109375 C 2.984375 -0.109375 2.828125 -0.421875 2.828125 -0.765625 C 2.828125 -0.984375 2.875 -1.203125 2.984375 -1.640625 Z M 3.328125 -3.015625 "
               id="path6072" />
          </symbol>
          <symbol
             overflow="visible"
             id="textext-698a2318-1">
            <path
               style="stroke:none;"
               d="M 3.046875 -2.671875 C 2.796875 -2.625 2.703125 -2.4375 2.703125 -2.28125 C 2.703125 -2.09375 2.84375 -2.015625 2.96875 -2.015625 C 3.125 -2.015625 3.359375 -2.125 3.359375 -2.46875 C 3.359375 -2.9375 2.828125 -3.078125 2.453125 -3.078125 C 1.40625 -3.078125 0.4375 -2.109375 0.4375 -1.140625 C 0.4375 -0.546875 0.84375 0.0625 1.71875 0.0625 C 2.90625 0.0625 3.453125 -0.625 3.453125 -0.71875 C 3.453125 -0.765625 3.390625 -0.84375 3.328125 -0.84375 C 3.296875 -0.84375 3.28125 -0.828125 3.21875 -0.765625 C 2.671875 -0.125 1.859375 -0.125 1.734375 -0.125 C 1.234375 -0.125 1.015625 -0.46875 1.015625 -0.90625 C 1.015625 -1.09375 1.109375 -1.859375 1.46875 -2.34375 C 1.734375 -2.6875 2.09375 -2.875 2.453125 -2.875 C 2.546875 -2.875 2.875 -2.859375 3.046875 -2.671875 Z M 3.046875 -2.671875 "
               id="path6075" />
          </symbol>
        </g>
      </defs>
      <g
         id="textext-698a2318-2">
        <g
           style="fill:rgb(0%,0%,0%);fill-opacity:1;"
           id="g6078">
          <use
             xlink:href="#textext-698a2318-0"
             x="223.432"
             y="134.765"
             id="use6080" />
        </g>
        <g
           style="fill:rgb(0%,0%,0%);fill-opacity:1;"
           id="g6082">
          <use
             xlink:href="#textext-698a2318-1"
             x="229.126"
             y="136.259"
             id="use6084" />
        </g>
      </g>
    </g>
    <g
       id="g6290"
       transform="matrix(7,0,0,7,-1453.6705,-793.13106)"
       ns0:preamble="/home/francois/Documents/Mypapers/InkscapeHeader/header.inc"
       ns0:text="$y_c$">
      <defs
         id="defs6292">
        <g
           id="g6294">
          <symbol
             id="textext-1d1b4d3e-0"
             overflow="visible">
            <path
               id="path6297"
               d="M 4.84375 -3.796875 C 4.890625 -3.9375 4.890625 -3.953125 4.890625 -4.03125 C 4.890625 -4.203125 4.75 -4.296875 4.59375 -4.296875 C 4.5 -4.296875 4.34375 -4.234375 4.25 -4.09375 C 4.234375 -4.03125 4.140625 -3.734375 4.109375 -3.546875 C 4.03125 -3.296875 3.96875 -3.015625 3.90625 -2.75 L 3.453125 -0.953125 C 3.421875 -0.8125 2.984375 -0.109375 2.328125 -0.109375 C 1.828125 -0.109375 1.71875 -0.546875 1.71875 -0.921875 C 1.71875 -1.375 1.890625 -2 2.21875 -2.875 C 2.375 -3.28125 2.421875 -3.390625 2.421875 -3.59375 C 2.421875 -4.03125 2.109375 -4.40625 1.609375 -4.40625 C 0.65625 -4.40625 0.296875 -2.953125 0.296875 -2.875 C 0.296875 -2.765625 0.390625 -2.765625 0.40625 -2.765625 C 0.515625 -2.765625 0.515625 -2.796875 0.5625 -2.953125 C 0.84375 -3.890625 1.234375 -4.1875 1.578125 -4.1875 C 1.65625 -4.1875 1.828125 -4.1875 1.828125 -3.875 C 1.828125 -3.625 1.71875 -3.359375 1.65625 -3.171875 C 1.25 -2.109375 1.078125 -1.546875 1.078125 -1.078125 C 1.078125 -0.1875 1.703125 0.109375 2.296875 0.109375 C 2.6875 0.109375 3.015625 -0.0625 3.296875 -0.34375 C 3.171875 0.171875 3.046875 0.671875 2.65625 1.203125 C 2.390625 1.53125 2.015625 1.828125 1.5625 1.828125 C 1.421875 1.828125 0.96875 1.796875 0.796875 1.40625 C 0.953125 1.40625 1.09375 1.40625 1.21875 1.28125 C 1.328125 1.203125 1.421875 1.0625 1.421875 0.875 C 1.421875 0.5625 1.15625 0.53125 1.0625 0.53125 C 0.828125 0.53125 0.5 0.6875 0.5 1.171875 C 0.5 1.671875 0.9375 2.046875 1.5625 2.046875 C 2.578125 2.046875 3.609375 1.140625 3.890625 0.015625 Z M 4.84375 -3.796875 "
               style="stroke:none;" />
          </symbol>
          <symbol
             id="textext-1d1b4d3e-1"
             overflow="visible">
            <path
               id="path6300"
               d="M 3.046875 -2.671875 C 2.796875 -2.625 2.703125 -2.4375 2.703125 -2.28125 C 2.703125 -2.09375 2.84375 -2.015625 2.96875 -2.015625 C 3.125 -2.015625 3.359375 -2.125 3.359375 -2.46875 C 3.359375 -2.9375 2.828125 -3.078125 2.453125 -3.078125 C 1.40625 -3.078125 0.4375 -2.109375 0.4375 -1.140625 C 0.4375 -0.546875 0.84375 0.0625 1.71875 0.0625 C 2.90625 0.0625 3.453125 -0.625 3.453125 -0.71875 C 3.453125 -0.765625 3.390625 -0.84375 3.328125 -0.84375 C 3.296875 -0.84375 3.28125 -0.828125 3.21875 -0.765625 C 2.671875 -0.125 1.859375 -0.125 1.734375 -0.125 C 1.234375 -0.125 1.015625 -0.46875 1.015625 -0.90625 C 1.015625 -1.09375 1.109375 -1.859375 1.46875 -2.34375 C 1.734375 -2.6875 2.09375 -2.875 2.453125 -2.875 C 2.546875 -2.875 2.875 -2.859375 3.046875 -2.671875 Z M 3.046875 -2.671875 "
               style="stroke:none;" />
          </symbol>
        </g>
      </defs>
      <g
         id="textext-1d1b4d3e-2">
        <g
           id="g6303"
           style="fill:rgb(0%,0%,0%);fill-opacity:1;">
          <use
             id="use6305"
             y="134.765"
             x="223.432"
             xlink:href="#textext-1d1b4d3e-0" />
        </g>
        <g
           id="g6307"
           style="fill:rgb(0%,0%,0%);fill-opacity:1;">
          <use
             id="use6309"
             y="136.259"
             x="228.317"
             xlink:href="#textext-1d1b4d3e-1" />
        </g>
      </g>
    </g>
    <path
       sodipodi:type="arc"
       style="fill:#000000;fill-opacity:1;stroke:#000000;stroke-width:3;stroke-miterlimit:4;stroke-opacity:1;stroke-dasharray:none;stroke-dashoffset:0"
       id="path8664"
       sodipodi:cx="-1382.8572"
       sodipodi:cy="-227.63782"
       sodipodi:rx="5.7142859"
       sodipodi:ry="8.5714283"
       d="m -1377.1429,-227.63782 a 5.7142859,8.5714283 0 1 1 -11.4286,0 5.7142859,8.5714283 0 1 1 11.4286,0 z"
       transform="matrix(1.4438977,0,0,1,2023.4535,725)" />
    <path
       transform="matrix(1.4438977,0,0,1,2206.7043,483.57143)"
       d="m -1377.1429,-227.63782 a 5.7142859,8.5714283 0 1 1 -11.4286,0 5.7142859,8.5714283 0 1 1 11.4286,0 z"
       sodipodi:ry="8.5714283"
       sodipodi:rx="5.7142859"
       sodipodi:cy="-227.63782"
       sodipodi:cx="-1382.8572"
       id="path8666"
       style="fill:#000000;fill-opacity:1;stroke:#000000;stroke-width:3;stroke-miterlimit:4;stroke-opacity:1;stroke-dasharray:none;stroke-dashoffset:0"
       sodipodi:type="arc" />
    <path
       style="fill:none;stroke:#000000;stroke-width:3;stroke-linecap:butt;stroke-linejoin:miter;stroke-opacity:1;stroke-miterlimit:4;stroke-dasharray:24,24;stroke-dashoffset:0"
       d="m -400,412.36218 480,0"
       id="path3629"
       inkscape:connector-curvature="0" />
    <path
       style="fill:none;stroke:#000000;stroke-width:3;stroke-linecap:butt;stroke-linejoin:miter;stroke-opacity:1;stroke-miterlimit:4;stroke-dasharray:none"
       d="M 500,592.36218 840,92.362183"
       id="path4411"
       inkscape:connector-curvature="0" />
    <path
       inkscape:connector-curvature="0"
       id="path4413"
       d="M 940,592.36218 1280,92.362183"
       style="fill:none;stroke:#000000;stroke-width:3;stroke-linecap:butt;stroke-linejoin:miter;stroke-miterlimit:4;stroke-opacity:1;stroke-dasharray:none" />
    <path
       style="fill:none;stroke:#000000;stroke-width:1px;stroke-linecap:butt;stroke-linejoin:miter;stroke-opacity:1"
       d="m -400,412.36218 900,180"
       id="path4417"
       inkscape:connector-curvature="0" />
    <path
       style="fill:none;stroke:#000000;stroke-width:1px;stroke-linecap:butt;stroke-linejoin:miter;stroke-opacity:1"
       d="M 840,92.362183 -400,412.36218 1280,92.362183"
       id="path4419"
       inkscape:connector-curvature="0"
       sodipodi:nodetypes="ccc" />
    <path
       style="fill:none;stroke:#000000;stroke-width:1px;stroke-linecap:butt;stroke-linejoin:miter;stroke-opacity:1"
       d="m -400,412.36218 1340,180"
       id="path4456"
       inkscape:connector-curvature="0" />
    <path
       style="fill:none;stroke:#000000;stroke-width:3;stroke-linecap:butt;stroke-linejoin:miter;stroke-miterlimit:4;stroke-opacity:1;stroke-dasharray:none"
       d="m 26,499.36218 185,-244"
       id="path4458"
       inkscape:connector-curvature="0"
       sodipodi:nodetypes="cc" />
    <path
       transform="matrix(1.4438977,0,0,1,2104.4535,707)"
       d="m -1377.1429,-227.63782 a 5.7142859,8.5714283 0 1 1 -11.4286,0 5.7142859,8.5714283 0 1 1 11.4286,0 z"
       sodipodi:ry="8.5714283"
       sodipodi:rx="5.7142859"
       sodipodi:cy="-227.63782"
       sodipodi:cx="-1382.8572"
       id="path4460"
       style="fill:#000000;fill-opacity:1;stroke:#000000;stroke-width:3;stroke-miterlimit:4;stroke-opacity:1;stroke-dasharray:none;stroke-dashoffset:0"
       sodipodi:type="arc" />
    <path
       sodipodi:type="arc"
       style="fill:#000000;fill-opacity:1;stroke:#000000;stroke-width:3;stroke-miterlimit:4;stroke-opacity:1;stroke-dasharray:none;stroke-dashoffset:0"
       id="path4462"
       sodipodi:cx="-1382.8572"
       sodipodi:cy="-227.63782"
       sodipodi:rx="5.7142859"
       sodipodi:ry="8.5714283"
       d="m -1377.1429,-227.63782 a 5.7142859,8.5714283 0 1 1 -11.4286,0 5.7142859,8.5714283 0 1 1 11.4286,0 z"
       transform="matrix(1.4438977,0,0,1,2228.4535,520)" />
    <path
       style="fill:none;stroke:#000000;stroke-width:3;stroke-linecap:butt;stroke-linejoin:miter;stroke-miterlimit:4;stroke-opacity:1;stroke-dasharray:none"
       d="m 107,480.36218 125,-188"
       id="path4464"
       inkscape:connector-curvature="0"
       sodipodi:nodetypes="cc" />
  </g>
</svg>
