<?xml version="1.0" encoding="UTF-8" standalone="no"?>
<!-- Created with Inkscape (http://www.inkscape.org/) -->

<svg
   xmlns:ns0="http://www.iki.fi/pav/software/textext/"
   xmlns:dc="http://purl.org/dc/elements/1.1/"
   xmlns:cc="http://creativecommons.org/ns#"
   xmlns:rdf="http://www.w3.org/1999/02/22-rdf-syntax-ns#"
   xmlns:svg="http://www.w3.org/2000/svg"
   xmlns="http://www.w3.org/2000/svg"
   xmlns:xlink="http://www.w3.org/1999/xlink"
   xmlns:sodipodi="http://sodipodi.sourceforge.net/DTD/sodipodi-0.dtd"
   xmlns:inkscape="http://www.inkscape.org/namespaces/inkscape"
   width="210mm"
   height="297mm"
   viewBox="0 0 744.09448819 1052.3622047"
   id="svg2"
   version="1.1"
   inkscape:version="0.91 r13725"
   sodipodi:docname="specularreflec.svg"
   inkscape:export-filename="/home/francois/Dropbox/Courses/VisionAndImageProcessing/lectures/Francois/FIGURES/specularreflec.svg.png"
   inkscape:export-xdpi="90"
   inkscape:export-ydpi="90">
  <sodipodi:namedview
     id="base"
     pagecolor="#ffffff"
     bordercolor="#666666"
     borderopacity="1.0"
     inkscape:pageopacity="0.0"
     inkscape:pageshadow="2"
     inkscape:zoom="0.35"
     inkscape:cx="-1179.7676"
     inkscape:cy="435.75084"
     inkscape:document-units="px"
     inkscape:current-layer="layer1"
     showgrid="true"
     inkscape:window-width="1680"
     inkscape:window-height="1026"
     inkscape:window-x="0"
     inkscape:window-y="54"
     inkscape:window-maximized="1"
     showguides="false">
    <inkscape:grid
       type="xygrid"
       id="grid4136" />
  </sodipodi:namedview>
  <defs
     id="defs4">
    <marker
       inkscape:stockid="Arrow1Lend"
       orient="auto"
       refY="0.0"
       refX="0.0"
       id="marker4838"
       style="overflow:visible;"
       inkscape:isstock="true">
      <path
         id="path4840"
         d="M 0.0,0.0 L 5.0,-5.0 L -12.5,0.0 L 5.0,5.0 L 0.0,0.0 z "
         style="fill-rule:evenodd;stroke:#ff0000;stroke-width:1pt;stroke-opacity:1;fill:#ff0000;fill-opacity:1"
         transform="scale(0.8) rotate(180) translate(12.5,0)" />
    </marker>
    <marker
       inkscape:isstock="true"
       style="overflow:visible;"
       id="marker4520"
       refX="0.0"
       refY="0.0"
       orient="auto"
       inkscape:stockid="Arrow1Lend"
       inkscape:collect="always">
      <path
         transform="scale(0.8) rotate(180) translate(12.5,0)"
         style="fill-rule:evenodd;stroke:#000000;stroke-width:1pt;stroke-opacity:1;fill:#000000;fill-opacity:1"
         d="M 0.0,0.0 L 5.0,-5.0 L -12.5,0.0 L 5.0,5.0 L 0.0,0.0 z "
         id="path4522" />
    </marker>
    <marker
       inkscape:stockid="Arrow1Lend"
       orient="auto"
       refY="0.0"
       refX="0.0"
       id="marker4466"
       style="overflow:visible;"
       inkscape:isstock="true">
      <path
         id="path4468"
         d="M 0.0,0.0 L 5.0,-5.0 L -12.5,0.0 L 5.0,5.0 L 0.0,0.0 z "
         style="fill-rule:evenodd;stroke:#000000;stroke-width:1pt;stroke-opacity:1;fill:#000000;fill-opacity:1"
         transform="scale(0.8) rotate(180) translate(12.5,0)" />
    </marker>
    <marker
       inkscape:stockid="Arrow1Lend"
       orient="auto"
       refY="0.0"
       refX="0.0"
       id="Arrow1Lend"
       style="overflow:visible;"
       inkscape:isstock="true"
       inkscape:collect="always">
      <path
         id="path4179"
         d="M 0.0,0.0 L 5.0,-5.0 L -12.5,0.0 L 5.0,5.0 L 0.0,0.0 z "
         style="fill-rule:evenodd;stroke:#000000;stroke-width:1pt;stroke-opacity:1;fill:#000000;fill-opacity:1"
         transform="scale(0.8) rotate(180) translate(12.5,0)" />
    </marker>
  </defs>
  <metadata
     id="metadata7">
    <rdf:RDF>
      <cc:Work
         rdf:about="">
        <dc:format>image/svg+xml</dc:format>
        <dc:type
           rdf:resource="http://purl.org/dc/dcmitype/StillImage" />
        <dc:title></dc:title>
      </cc:Work>
    </rdf:RDF>
  </metadata>
  <g
     inkscape:label="Layer 1"
     inkscape:groupmode="layer"
     id="layer1">
    <path
       style="fill:none;fill-rule:evenodd;stroke:#000000;stroke-width:1px;stroke-linecap:butt;stroke-linejoin:miter;stroke-opacity:1"
       d="m -1160,772.3622 c 0,0 155.8093,-161.39415 240,-200 84.19066,-38.60585 165.46448,-41.20187 240,-40 74.53552,1.20187 122.35928,2.87116 200,40 77.64072,37.12884 240,200 240,200 z"
       id="path4138"
       inkscape:connector-curvature="0"
       sodipodi:nodetypes="czzzcc" />
    <path
       style="fill:#a0a0a0;stroke:none;stroke-width:1px;stroke-linecap:butt;stroke-linejoin:miter;stroke-opacity:1"
       d="m -1108.6532,725.36837 c 90.0592,-88.08569 157.02382,-138.81864 211.18261,-159.99368 63.00785,-24.63484 126.1071,-33.08165 227.77485,-30.49117 151.56485,3.86186 202.65414,28.89029 365.8386,179.22292 23.57143,21.71502 46.6334,43.44885 51.24883,48.29738 l 8.39168,8.81553 -455.53454,-0.12018 -455.53453,-0.12018 46.6325,-45.61062 z"
       id="path4140"
       inkscape:connector-curvature="0" />
    <path
       style="fill:#a0a0a0;stroke:none;stroke-width:1px;stroke-linecap:butt;stroke-linejoin:miter;stroke-opacity:1"
       d="m -1104.7882,723.98413 c 100.3681,-97.55909 165.23782,-144.48027 227.21039,-164.3445 11.31078,-3.62547 19.88161,-7.69757 19.04632,-9.04912 -0.83531,-1.35154 2.12472,-1.65896 6.5778,-0.68316 6.52592,1.43002 7.26518,1.12703 3.81083,-1.5619 -3.50534,-2.72862 -2.98508,-3.0455 2.85715,-1.74024 3.92857,0.87772 12.23897,0.781 18.46757,-0.21492 9.29345,-1.48599 10.3184,-2.23029 5.71428,-4.14967 -3.46257,-1.44349 -0.14143,-1.80454 8.67529,-0.9431 10.24548,1.00104 12.66963,0.63385 8.57143,-1.29831 -4.01337,-1.89218 -0.18629,-2.35299 12.85714,-1.54809 12.51214,0.77211 15.77483,0.40978 10,-1.11053 -8.2304,-2.16677 17.22211,-2.01335 130,0.78357 30.70211,0.76142 59.92463,3.16091 75.71429,6.21699 14.14285,2.73734 29.2106,4.94842 33.48388,4.9135 4.27329,-0.0349 7.00512,1.17346 6.07077,2.68528 -1.02628,1.66059 0.84663,1.94086 4.73106,0.70799 4.67031,-1.4823 5.84311,-1.09136 4.28571,1.42857 -1.5574,2.51993 -0.3846,2.91087 4.28572,1.42857 4.03651,-1.28113 5.77106,-0.97476 4.65991,0.82309 -2.32823,3.76715 5.41412,6.62648 11.76866,4.3463 2.75,-0.98677 4.03143,-0.72786 2.84766,0.57535 -1.1838,1.30322 7.99125,7.78935 20.38903,14.41362 51.58117,27.56041 114.05102,77.79527 204.9898,164.84164 l 35.07262,33.57143 -456.81097,0 -456.81094,0 51.5346,-50.09236 z"
       id="path4142"
       inkscape:connector-curvature="0" />
    <path
       style="fill:#a0a0a0;stroke:none;stroke-width:1px;stroke-linecap:butt;stroke-linejoin:miter;stroke-opacity:1"
       d="m -1114.5325,733.09297 c 109.1437,-106.23937 171.39859,-151.97349 235.67536,-173.13349 10.60714,-3.49188 19.28571,-7.55426 19.28571,-9.02751 0,-1.47325 3.53572,-1.90729 7.85714,-0.96453 6.28543,1.37122 6.99986,1.06167 3.57143,-1.5475 -3.36377,-2.55997 -2.13454,-2.8797 5.71429,-1.48631 7.66034,1.35993 8.99728,1.04145 5.71428,-1.36121 -3.25805,-2.38441 -1.54531,-2.71727 7.14286,-1.38815 8.87354,1.35747 10.47043,1.02408 7.14286,-1.49127 -3.30843,-2.50088 -1.35386,-2.83692 8.57143,-1.47365 9.82911,1.35006 11.8478,1.01409 8.57143,-1.42652 -3.26089,-2.42908 -0.52803,-2.81359 11.42857,-1.608 10.22823,1.03133 13.71934,0.70537 10,-0.93366 -3.50777,-1.54579 9.73131,-2.10391 34.28571,-1.44538 22,0.59003 65.71429,1.70527 97.14286,2.47831 33.89066,0.8336 65.84054,3.16306 78.51766,5.72472 11.75614,2.37555 23.81,3.54628 26.78637,2.60162 3.78731,-1.20205 4.768,-0.67627 3.2674,1.75176 -1.5574,2.51993 -0.3846,2.91087 4.28571,1.42858 4.67032,-1.4823 5.84312,-1.09136 4.28572,1.42857 -1.5574,2.51993 -0.3846,2.91087 4.28571,1.42857 4.67031,-1.4823 5.84311,-1.09136 4.28571,1.42857 -1.5574,2.51993 -0.3846,2.91087 4.28572,1.42857 4.81774,-1.52909 5.86448,-1.12591 4.1748,1.60802 -1.60337,2.59431 -0.88106,3.12152 2.49937,1.82433 2.61491,-1.00344 4.7544,-0.61942 4.7544,0.85337 0,1.47279 1.92857,1.93774 4.28571,1.03321 2.35715,-0.90452 4.28572,-0.14543 4.28572,1.68687 0,1.83229 1.28571,2.53683 2.85714,1.56563 1.57143,-0.9712 2.85714,-0.52043 2.85714,1.0017 0,1.52214 9.32143,7.89188 20.71429,14.15499 41.86077,23.01253 96.25134,65.94249 167.5938,132.28016 22.64089,21.05259 47.04143,43.74172 54.22346,50.42029 l 13.0582,12.14286 -457.75592,0 -457.75594,0 42.1039,-40.98352 z"
       id="path4144"
       inkscape:connector-curvature="0" />
    <path
       style="fill:#a0a0a0;stroke:none;stroke-width:1px;stroke-linecap:butt;stroke-linejoin:miter;stroke-opacity:1"
       d="m -1113.3207,731.35471 c 57.1809,-55.05612 93.6635,-87.08051 130.56546,-114.61017 29.16473,-21.75751 74.21479,-47.26816 95.35298,-53.99585 6.02898,-1.91886 9.94542,-4.70506 8.92791,-6.35141 -1.16208,-1.88029 0.49511,-2.20052 4.61721,-0.89222 4.67031,1.4823 5.84311,1.09136 4.28571,-1.42857 -1.53963,-2.49115 -0.43214,-2.92596 3.92792,-1.54213 3.75628,1.1922 6.07208,0.69067 6.07208,-1.31501 0,-2.00569 2.3158,-2.50721 6.07209,-1.31501 4.44751,1.41158 5.48011,0.9694 3.85957,-1.65273 -1.6624,-2.68981 -0.27114,-3.09265 5.59588,-1.62015 5.692,1.4286 7.23589,1.03346 5.69618,-1.45787 -1.55023,-2.50833 0.32434,-2.93035 7.04548,-1.58612 6.41912,1.28382 8.56452,0.87172 7.17409,-1.37803 -1.4104,-2.28208 1.1068,-2.62981 8.71065,-1.20332 8.07078,1.51409 10.16529,1.15037 8.538,-1.48266 -1.64088,-2.65497 1.19438,-3.04462 11.8616,-1.63013 7.70983,1.02233 12.53155,0.90197 10.71486,-0.26747 -4.65166,-2.99444 139.8924,-1.22053 176.16017,2.16191 16.5,1.53884 33.21429,2.05751 37.14286,1.1526 5.84297,-1.34587 6.36294,-1.03646 2.85714,1.70025 -3.43477,2.68127 -2.4138,3.02267 5.14203,1.71944 5.18526,-0.89435 8.80403,-0.61688 8.04169,0.6166 -0.76235,1.23348 3.2666,2.24269 8.9532,2.24269 5.6866,0 10.82948,1.47063 11.42863,3.26806 0.59914,1.79744 2.93485,2.55988 5.19048,1.69432 2.2556,-0.86556 4.10112,-0.19083 4.10112,1.49941 0,1.69023 1.92857,2.33309 4.28571,1.42857 2.35714,-0.90452 4.28571,-0.14543 4.28571,1.68686 0,1.8323 1.28572,2.53683 2.85715,1.56563 1.57143,-0.97119 2.85714,-0.44457 2.85714,1.17029 0,1.61485 1.7628,2.25964 3.91731,1.43287 2.15452,-0.82677 5.8586,0.43807 8.23129,2.81076 2.37269,2.37269 5.10991,3.51806 6.08269,2.54527 0.9728,-0.97279 1.76871,-0.30906 1.76871,1.47495 0,1.78402 1.98114,2.48343 4.40254,1.55425 2.42143,-0.92918 4.02857,-0.3246 3.57143,1.34351 -0.45711,1.66811 6.84929,7.6909 16.23643,13.38398 42.42571,25.73019 98.40706,70.97321 165.58803,133.82497 18.74628,17.53825 34.85208,31.88773 35.79068,31.88773 0.9386,0 6.6432,5.46428 12.67692,12.14285 l 10.97031,12.14286 -457.96377,0 -457.96377,0 44.3705,-42.72178 z"
       id="path4146"
       inkscape:connector-curvature="0" />
    <path
       style="fill:#a0a0a0;stroke:none;stroke-width:1px;stroke-linecap:butt;stroke-linejoin:miter;stroke-opacity:1"
       d="m -1156.7143,773.04293 c 0,-2.18381 116.8616,-111.00555 138.5714,-129.03802 41.95313,-34.84671 84.31017,-62.3709 116.30418,-75.57602 8.97289,-3.70345 15.50697,-8.01917 14.5313,-9.59783 -1.05713,-1.71047 0.14655,-2.13197 2.98158,-1.04407 2.61493,1.00345 4.75441,0.49244 4.75441,-1.13556 0,-1.71794 2.54796,-2.15132 6.07209,-1.03281 4.49928,1.42802 5.48797,0.98209 3.817,-1.72157 -1.59449,-2.57995 -0.88915,-3.12464 2.40785,-1.85945 2.5646,0.98413 5.49206,0.44775 6.50543,-1.19194 1.0134,-1.6397 4.27063,-2.34631 7.23832,-1.57025 2.96768,0.77607 4.7624,0.3862 3.98825,-0.86637 -1.74205,-2.81873 17.57815,-6.69435 21.44823,-4.30251 1.54469,0.95467 2.80855,0.22825 2.80855,-1.61427 0,-2.09708 3.20585,-2.87953 8.57142,-2.09203 4.71429,0.69191 8.57143,0.0599 8.57143,-1.40439 0,-1.46433 5.03472,-2.18227 11.18823,-1.59544 6.16874,0.58828 10.47606,-0.0854 9.6008,-1.50156 -0.92126,-1.49064 7.27283,-1.82898 19.52606,-0.80623 11.61243,0.96926 58.67157,2.10143 104.57588,2.51594 45.90432,0.41451 81.26146,1.73912 78.57143,2.94358 -2.69003,1.20446 0.66795,1.49556 7.46215,0.6469 6.88008,-0.85939 11.65902,-0.41993 10.78645,0.99189 -0.86165,1.39421 3.22229,2.57403 9.07546,2.62183 11.07897,0.0905 58.2696,16.02264 64.31717,21.7143 1.90729,1.79505 5.07494,3.3923 7.03923,3.54944 8.23466,0.65877 9.54111,1.2753 7.99694,3.77382 -0.89431,1.44703 5.36286,6.62959 13.90483,11.51682 32.64197,18.67584 87.53889,62.81931 151.85403,122.10817 20.77894,19.15506 38.34911,34.25818 39.04483,33.56248 1.12828,-1.12831 10.05711,7.97386 26.21363,26.72262 l 5.44283,6.31609 -457.58569,0 c -251.67213,0 -457.5857,-0.4651 -457.5857,-1.03356 z"
       id="path4148"
       inkscape:connector-curvature="0" />
    <path
       style="fill:#a0a0a0;stroke:none;stroke-width:1px;stroke-linecap:butt;stroke-linejoin:miter;stroke-opacity:1"
       d="m -1119.5714,736.65786 c 80.3464,-77.382 135.0289,-122.6917 180.65304,-149.68835 12.99796,-7.69112 24.06389,-15.03215 24.59096,-16.31339 0.52707,-1.28123 2.03787,-1.66232 3.35733,-0.84685 3.11542,1.92544 17.11293,-4.44523 17.11293,-7.78859 0,-1.41193 1.28571,-1.77253 2.85714,-0.80133 1.57143,0.97119 2.85714,0.26665 2.85714,-1.56564 0,-1.83229 1.92857,-2.59138 4.28572,-1.68686 2.35714,0.90452 4.28571,0.31258 4.28571,-1.31542 0,-1.71794 2.54796,-2.15132 6.07209,-1.03281 3.75697,1.19242 5.39814,0.83675 4.30445,-0.93286 -2.0962,-3.39173 36.41235,-13.47675 40.8908,-10.70891 1.66012,1.026 3.01838,0.68645 3.01838,-0.75455 0,-2.519 28.33685,-6.87773 69.6168,-10.70833 14.95865,-1.3881 19.11057,-1.00129 17.48497,1.62899 -1.64989,2.66958 13.93834,3.21235 68.95463,2.40095 39.09754,-0.57662 66.58645,-0.1435 61.08645,0.96249 -5.98894,1.20431 -1.97788,1.51982 10,0.78662 14.09077,-0.86255 18.73375,-0.36874 15.71429,1.67131 -3.07214,2.07566 -1.2518,2.37102 6.42857,1.04304 7.33286,-1.26788 10.71429,-0.79726 10.71429,1.4912 0,1.83905 1.33925,2.51603 2.97611,1.50439 6.40366,-3.95768 92.9324,27.99346 89.75103,33.141 -0.74683,1.20839 6.53757,6.99328 16.18751,12.85532 20.11406,12.21863 63.58537,45.60537 91.79963,70.5037 10.60714,9.36053 19.28572,16.32083 19.28572,15.46735 0,-0.85348 6.62857,5.45697 14.73017,14.02321 8.1016,8.56624 15.17303,15.13213 15.71428,14.59087 0.54126,-0.54126 9.15623,6.83732 19.1444,16.39684 9.98815,9.55953 22.11355,20.29798 26.94532,23.86323 4.83177,3.56526 12.83908,11.60097 17.79408,17.85715 l 9.00906,11.37486 -458.09723,-0.13515 -458.09727,-0.13516 38.5715,-37.14832 z M -744.57143,535.0414 c -1.96428,-0.7926 -5.17857,-0.7926 -7.14286,0 -1.96428,0.79261 -0.35714,1.44111 3.57143,1.44111 3.92857,0 5.53572,-0.6485 3.57143,-1.44111 z"
       id="path4150"
       inkscape:connector-curvature="0" />
    <path
       style="fill:#a0a0a0;stroke:none;stroke-width:1px;stroke-linecap:butt;stroke-linejoin:miter;stroke-opacity:1"
       d="m -1118.1429,735.19661 c 22,-21.22417 57.0358,-53.53059 77.8572,-71.79203 20.8214,-18.26145 37.8571,-34.25943 37.8571,-35.55108 0,-1.29164 0.9643,-2.0385 2.1429,-1.65969 1.17856,0.37881 10.91452,-5.5862 21.63547,-13.25558 10.72094,-7.66939 29.62842,-20.03613 42.01662,-27.48165 12.3882,-7.44553 21.61652,-14.54251 20.50737,-15.77108 -1.10914,-1.22856 0.23338,-1.42639 2.98338,-0.43962 2.75,0.98677 5,0.58912 5,-0.88368 0,-1.47279 1.7628,-2.00135 3.91732,-1.17458 2.15453,0.82677 6.01167,-0.59114 8.57143,-3.1509 2.55976,-2.55976 4.6738,-3.59798 4.69786,-2.30717 0.024,1.29082 1.14183,0.61424 2.48392,-1.5035 1.34209,-2.11774 5.82149,-4.04631 9.95423,-4.28571 4.13273,-0.2394 7.51499,-1.29244 7.51607,-2.34009 0.003,-2.44293 44.00423,-12.78857 70.00203,-16.45884 33.53111,-4.7338 73.45423,-6.34249 71.31023,-2.87342 -1.33072,2.15314 17.69934,2.77347 64.16974,2.09178 36.3338,-0.53299 63.78606,0.0161 61.00503,1.22024 -2.78103,1.20412 1.858,1.40802 10.30894,0.45311 10.79535,-1.21982 14.78957,-0.80453 13.4294,1.39627 -1.32225,2.13947 0.82623,2.58004 6.77749,1.38979 5.78826,-1.15765 8.71346,-0.60701 8.71346,1.64022 0,1.86059 1.33925,2.5552 2.97611,1.54356 6.39446,-3.95199 93.02137,27.84949 89.84809,32.98399 -0.76826,1.24307 4.20671,5.54403 11.05551,9.55769 17.081,10.01015 52.19017,36.29937 84.69171,63.41592 14.92858,12.45514 27.78572,22.66554 28.57143,22.68978 0.78572,0.0243 7.66983,6.7389 15.29806,14.92148 7.6282,8.18257 14.69963,14.66628 15.71429,14.40824 1.01462,-0.25803 8.35025,5.89381 16.30134,13.67077 7.95111,7.77697 21.6912,20.2558 30.53351,27.73072 8.84235,7.47493 18.81729,17.43922 22.16657,22.14286 l 6.08963,8.55208 -458.05171,-0.14524 -458.05173,-0.14523 40,-38.58941 z"
       id="path4152"
       inkscape:connector-curvature="0" />
    <path
       style="fill:#a0a0a0;stroke:none;stroke-width:1px;stroke-linecap:butt;stroke-linejoin:miter;stroke-opacity:1"
       d="m -1121,737.86263 c 20.4286,-19.76903 52.5307,-49.60111 71.3381,-66.29349 18.8073,-16.69239 37.8705,-33.88551 42.3626,-38.20694 4.4921,-4.32142 8.54602,-7.85714 9.00874,-7.85714 0.46272,0 17.20613,-10.92857 37.20759,-24.28571 20.00145,-13.35715 37.59984,-24.28572 39.10753,-24.28572 1.50769,0 2.0299,-1.15099 1.16047,-2.55775 -1.89756,-3.07032 6.38071,-6.70759 10.0728,-4.42575 1.42962,0.88355 2.59931,0.28521 2.59931,-1.32963 0,-1.61486 1.7628,-2.25965 3.91732,-1.43288 2.15453,0.82677 5.97723,-0.5567 8.49491,-3.07438 18.1743,-18.17429 169.66797,-42.30211 179.68689,-28.61804 1.30523,1.78274 2.11565,1.51633 2.14285,-0.70442 0.0546,-4.45864 13.27486,-4.73213 15.99498,-0.3309 1.42182,2.30054 16.03562,2.83542 50.37942,1.84395 26.60718,-0.76812 47.11938,-0.61922 45.58263,0.33089 -1.53671,0.95012 5.11843,1.90358 14.7892,2.11881 27.92629,0.62152 114.17346,29.6927 118.04829,39.79032 0.75203,1.95973 8.66931,8.38557 17.59397,14.27966 8.92469,5.89408 23.61954,16.37665 32.65526,23.2946 9.03571,6.91794 16.42857,11.68669 16.42857,10.5972 0,-1.08948 2.718,1.47451 6.04,5.69776 3.32203,4.22325 6.52383,7.19483 7.11514,6.60352 0.59132,-0.59131 9.12329,6.39845 18.95997,15.53279 9.83669,9.13434 19.1706,16.62249 20.74203,16.64033 1.57143,0.0177 8.39277,6.46038 15.15852,14.31675 6.76577,7.85638 13.71385,14.28432 15.4402,14.28432 1.72637,0 7.59354,5.20433 13.0382,11.56518 5.44465,6.36086 10.38994,11.07464 10.98948,10.47508 1.56294,-1.56295 46.69469,40.99168 49.97534,47.12166 2.63166,4.91731 -15.71277,5.11835 -455.21551,4.98871 l -457.9577,-0.13507 37.1429,-35.94371 z"
       id="path4154"
       inkscape:connector-curvature="0" />
    <path
       style="fill:#a0a0a0;stroke:none;stroke-width:1px;stroke-linecap:butt;stroke-linejoin:miter;stroke-opacity:1"
       d="m -1121,737.74537 c 20.4286,-19.84707 54.5,-51.57897 75.7143,-70.51532 21.2143,-18.93635 41.4643,-37.54462 45,-41.35171 3.5357,-3.80709 6.42856,-6.11971 6.42856,-5.13916 0,2.37516 65.72424,-40.54121 72.25415,-47.18026 4.53715,-4.61296 10.53218,-6.56128 17.03156,-5.53506 1.17857,0.18609 2.14286,-0.94737 2.14286,-2.5188 0,-1.57143 0.96428,-2.65857 2.14286,-2.41587 1.17857,0.24268 7.28571,-1.83955 13.57142,-4.62722 35.50332,-15.74544 119.1524,-28.72104 165.82232,-25.72226 15.65488,1.0059 52.24911,2.19268 81.32054,2.63728 34.80734,0.53231 59.6868,2.33781 72.85714,5.28723 36.8968,8.26281 98.57143,32.51153 98.57143,38.7555 0,1.3144 9,8.37442 20,15.68892 11,7.31451 20,12.50356 20,11.53124 0,-0.97233 2.52866,1.26742 5.61923,4.97723 3.09057,3.7098 5.662,5.49473 5.71429,3.96651 0.0523,-1.52823 2.09654,0.0789 4.54277,3.57142 2.44626,3.49251 5.79694,6.35002 7.44594,6.35002 1.64903,0 5.57986,3.282 8.73514,7.29332 3.15532,4.01133 6.22426,6.806 6.81989,6.21037 0.59563,-0.59562 7.19906,4.6595 14.67429,11.67806 7.47522,7.01855 17.07805,14.91583 21.33965,17.54949 4.2616,2.63366 13.04943,10.81083 19.52855,18.17148 6.47908,7.36065 13.44688,13.383 15.48397,13.383 2.03708,0 7.20051,4.58444 11.47428,10.18765 4.27377,5.60321 8.48229,9.47586 9.35226,8.60589 1.82097,-1.82095 48.3588,42.97211 52.45894,50.49217 2.59129,4.75268 -19.92645,4.99393 -455.23154,4.87723 l -457.9577,-0.12277 37.1429,-36.08558 z"
       id="path4156"
       inkscape:connector-curvature="0" />
    <path
       style="fill:#a0a0a0;stroke:none;stroke-width:1px;stroke-linecap:butt;stroke-linejoin:miter;stroke-opacity:1"
       d="m -1108.1429,724.67208 c 27.5,-27.04186 50.8155,-48.86172 51.8121,-48.48858 0.9966,0.37314 7.1037,-5.06242 13.5714,-12.07902 6.4677,-7.0166 11.7594,-11.88926 11.7594,-10.82812 0,1.06113 7.2772,-5.46491 16.1716,-14.50231 8.8944,-9.0374 20.45357,-18.22072 25.68698,-20.40738 5.23341,-2.18666 12.77111,-7.23156 16.75044,-11.21089 3.97932,-3.97932 8.1702,-7.28 9.31306,-7.33485 3.89331,-0.18683 34.93506,-20.37103 34.93506,-22.71574 0,-2.66633 15.76224,-9.69537 21.74136,-9.69537 2.18511,0 3.97293,-0.96584 3.97293,-2.14631 0,-6.62204 77.79946,-26.03125 124.77283,-31.12801 32.98708,-3.5792 126.65405,-2.80315 126.65508,1.04937 3.7e-4,1.42546 9.41155,1.68415 21.48086,0.59046 45.99097,-4.16759 139.95509,22.08613 163.8648,45.78408 3.72549,3.69247 7.76931,6.09818 8.98634,5.34603 1.217,-0.75216 3.0206,0.73765 4.00795,3.31068 0.98737,2.57304 2.45294,4.02053 3.2568,3.21666 0.80388,-0.80388 5.45008,2.26421 10.32488,6.81797 4.87483,4.55376 9.48932,7.65355 10.25443,6.88843 0.76511,-0.76511 3.76017,1.44706 6.65566,4.91595 2.89551,3.46889 5.30731,5.05671 5.3596,3.52849 0.0523,-1.52823 2.09654,0.0789 4.54277,3.57142 2.44626,3.49251 5.79694,6.35002 7.44594,6.35002 1.64903,0 5.57986,3.282 8.73514,7.29332 3.15532,4.01133 6.2404,6.78985 6.85578,6.1745 0.61534,-0.61536 7.81751,5.03961 16.00482,12.56659 8.18732,7.52699 15.44349,13.12794 16.12486,12.44656 0.6814,-0.68138 8.43977,6.21717 17.24089,15.33011 8.80108,9.11294 19.57777,18.78936 23.94817,21.50315 9.97928,6.19664 67.19228,61.12836 70.91837,68.09062 2.66214,4.97425 -14.28266,5.16216 -455.1926,5.04789 l -457.9577,-0.1187 50,-49.16702 z"
       id="path4158"
       inkscape:connector-curvature="0" />
    <path
       style="fill:#a0a0a0;stroke:none;stroke-width:1px;stroke-linecap:butt;stroke-linejoin:miter;stroke-opacity:1"
       d="m -1125.1277,740.65695 c 17.9845,-18.38074 33.5149,-33.21596 34.512,-32.96714 0.9971,0.24883 9.3542,-7.50617 18.5714,-17.2333 9.2172,-9.72713 17.6449,-17.4179 18.7282,-17.0906 1.0833,0.32731 6.3495,-4.52177 11.7027,-10.77573 5.3531,-6.25396 10.8954,-11.40034 12.3161,-11.43641 1.4206,-0.0361 9.4657,-7.06299 17.878,-15.61537 8.4122,-8.55238 17.73364,-16.3238 20.71426,-17.26981 2.98063,-0.94602 5.41933,-2.99498 5.41933,-4.55326 0,-1.55827 1.12396,-2.13857 2.49769,-1.28956 1.37373,0.84901 5.79438,-1.51161 9.82366,-5.24582 4.02928,-3.73421 7.84666,-6.26878 8.48306,-5.63238 0.6364,0.6364 4.57289,-2.00857 8.74777,-5.87771 4.17487,-3.86914 7.59067,-6.38065 7.59067,-5.58113 0,0.79953 3.78723,-0.78349 8.41605,-3.5178 4.62883,-2.73432 7.86867,-5.85718 7.19964,-6.93969 -3.7367,-6.0461 71.51714,-32.17943 115.81288,-40.21824 42.83992,-7.7746 159.94446,-11.2568 167.6746,-4.98594 3.27495,2.65672 4.1538,2.77488 2.70523,0.36372 -1.47125,-2.44891 -0.072,-3.55768 4.45155,-3.52768 5.3174,0.0353 5.76582,0.58443 2.31148,2.83093 -2.9066,1.89029 1.23074,2.25138 12.85714,1.12213 42.68598,-4.14602 142.34372,24.70555 162.52472,47.05197 2.96,3.27763 6.361,5.35417 7.55774,4.61454 1.19674,-0.73963 2.94443,0.65789 3.88369,3.10561 0.93928,2.44772 2.86785,3.73343 4.28571,2.85714 1.41789,-0.87629 3.34646,0.40942 4.28572,2.85714 0.93928,2.44772 2.86785,3.73344 4.28571,2.85715 1.41789,-0.87629 3.31517,0.32793 4.21623,2.67605 0.90106,2.34812 3.29794,4.2693 5.3264,4.2693 2.02846,0 5.37217,2.69663 7.43048,5.99251 2.05832,3.29588 4.50226,5.23263 5.431,4.30389 0.92875,-0.92874 3.484,0.87463 5.67835,4.00749 2.19434,3.13286 5.53611,5.69611 7.42614,5.69611 1.89003,0 5.04231,2.57143 7.00506,5.71429 1.96274,3.14285 5.44105,5.71428 7.7296,5.71428 2.28854,0 5.59608,2.68155 7.35014,5.95899 1.75403,3.27745 3.89851,5.24962 4.76554,4.38261 0.867,-0.86701 4.15469,1.70142 7.30597,5.70763 3.15129,4.00621 7.98386,8.14118 10.73906,9.18882 9.03163,3.43422 109.04906,96.78025 114.54523,106.90481 2.57986,4.75239 -19.95646,5 -455.08534,5 l -457.79966,0 32.6991,-33.41954 z"
       id="path4160"
       inkscape:connector-curvature="0" />
    <path
       style="fill:#a0a0a0;stroke:none;stroke-width:1px;stroke-linecap:butt;stroke-linejoin:miter;stroke-opacity:1"
       d="m -1123.6135,739.15563 c 18.7232,-19.20647 34.8646,-34.68231 35.8698,-34.39075 1.0053,0.29156 8.7196,-6.79671 17.1429,-15.75171 8.4233,-8.955 16.3593,-16.30059 17.6355,-16.32354 1.2762,-0.0228 8.0262,-6.34492 15,-14.04883 6.9738,-7.70392 12.6796,-13.2407 12.6796,-12.30396 0,0.93674 6.5935,-4.61861 14.6522,-12.34523 8.0587,-7.72662 17.0587,-14.81219 19.99999,-15.74572 2.94129,-0.93353 5.3478,-2.97228 5.3478,-4.53056 0,-1.55827 1.12396,-2.13857 2.49769,-1.28956 1.37373,0.84901 5.60076,-1.32511 9.3934,-4.83138 3.79263,-3.50627 10.38295,-7.95462 14.64516,-9.88522 4.2622,-1.93059 7.74946,-4.89933 7.74946,-6.59719 0,-1.69786 1.12396,-2.39237 2.49769,-1.54336 1.37374,0.84902 6.17378,-1.86321 10.66677,-6.02717 16.87285,-15.63723 69.49054,-34.83569 121.12125,-44.19315 68.51689,-12.41789 208.22392,-9.87458 263.93598,4.80485 40.7162,10.7282 90.34974,32.18658 90.34974,39.06146 0,1.44523 1.2212,1.87295 2.7138,0.95048 1.49257,-0.92247 4.12851,0.96623 5.85763,4.19711 1.72911,3.23089 4.23034,5.20285 5.55825,4.38215 1.32792,-0.8207 3.18292,0.51049 4.12218,2.95821 0.93928,2.44772 2.86785,3.73344 4.28571,2.85715 1.41789,-0.87629 3.31517,0.32793 4.21623,2.67605 0.90106,2.34812 3.46966,4.2693 5.708,4.2693 2.23831,0 4.80974,1.92857 5.71428,4.28572 0.90452,2.35714 3.56826,4.28571 5.91943,4.28571 2.35117,0 5.65106,2.57143 7.33306,5.71429 1.682,3.14285 4.89629,5.71428 7.14286,5.71428 2.24657,0 5.46085,2.57143 7.14285,5.71429 1.682,3.14285 4.98189,5.71428 7.33306,5.71428 2.35117,0 5.01492,1.92857 5.91943,4.28572 0.90454,2.35714 2.87474,4.28571 4.37826,4.28571 1.50354,0 6.1874,3.14922 10.4086,6.99827 4.22123,3.84905 19.88923,17.65265 34.8178,30.67467 34.14328,29.7828 85.41925,79.29814 88.95283,85.89849 2.54414,4.75224 -20.00415,5 -455.0372,5 l -457.71399,0 34.042,-34.92086 z"
       id="path4162"
       inkscape:connector-curvature="0" />
    <path
       style="fill:#a0a0a0;stroke:none;stroke-width:1px;stroke-linecap:butt;stroke-linejoin:miter;stroke-opacity:1"
       d="m -1123.6135,739.07649 c 18.7232,-19.25 36.135,-35.86475 38.693,-36.92167 2.5581,-1.05692 10.2723,-8.44914 17.1429,-16.42717 6.8705,-7.97802 14.0605,-14.50613 15.9778,-14.5069 1.9172,-7.7e-4 6.4172,-3.98453 10,-8.85279 7.1253,-9.68186 54.91088,-49.1984 62.94266,-52.05075 2.75,-0.97661 5,-3.17761 5,-4.8911 0,-1.71349 1.28571,-2.32082 2.85714,-1.34962 1.57143,0.9712 2.85714,0.40422 2.85714,-1.25995 0,-1.66417 1.92857,-3.02576 4.28572,-3.02576 2.35714,0 6.85714,-2.57143 10,-5.71429 3.14285,-3.14286 6.03571,-5.63129 6.42857,-5.52986 2.7609,0.71285 10.4163,-4.06938 9.32943,-5.82798 -1.61516,-2.61338 35.40752,-19.88861 61.42517,-28.66172 54.14194,-18.25658 108.64377,-24.18293 202.65003,-22.03551 77.24445,1.76453 105.45511,5.50262 147.29714,19.51783 29.95263,10.03279 69.34914,30.24479 73.28437,37.59786 1.50103,2.80468 3.81563,4.42794 5.14354,3.60724 1.32792,-0.8207 3.18292,0.51049 4.12218,2.95821 0.93928,2.44772 3.01165,3.64456 4.60528,2.65964 1.59363,-0.98491 3.62432,0.10329 4.51263,2.41821 0.88831,2.31492 4.78897,5.00553 8.66811,5.97913 3.87912,0.97361 6.28163,3.01821 5.33892,4.54357 -0.94272,1.52536 0.22651,2.77338 2.59831,2.77338 2.3718,0 5.62289,2.25 7.2246,5 1.60175,2.75 2.95135,3.80415 2.99912,2.34255 0.0477,-1.4616 3.6226,1.21502 7.94403,5.94805 4.32142,4.73303 9.78571,9.30255 12.14285,10.1545 11.01849,3.98244 145.71429,127.93481 145.71429,134.09203 0,1.36881 -203.2808,2.46287 -457.61346,2.46287 l -457.61347,0 34.042,-35 z"
       id="path4164"
       inkscape:connector-curvature="0" />
    <path
       style="fill:#a0a0a0;stroke:none;stroke-width:1px;stroke-linecap:butt;stroke-linejoin:miter;stroke-opacity:1"
       d="m -1123.6135,739.07649 c 18.7232,-19.25 37.3405,-37.08679 41.3719,-39.63731 4.0314,-2.55052 11.5323,-9.94338 16.6686,-16.42857 5.1364,-6.48519 10.5166,-11.79126 11.9559,-11.79126 1.4394,0 10.0105,-7.39286 19.047,-16.42857 18.3528,-18.35136 50.06158,-43.57143 54.78165,-43.57143 1.69079,0 3.07416,-1.35132 3.07416,-3.00294 0,-1.65161 4.37189,-4.82962 9.71532,-7.06225 5.34342,-2.23262 12.00158,-6.34558 14.79591,-9.13992 2.79434,-2.79433 6.18363,-5.08061 7.53176,-5.08061 1.34814,0 3.41865,-1.56544 4.60115,-3.47876 2.70592,-4.37827 38.86725,-21.15735 63.35586,-29.39751 54.2942,-18.26942 108.69029,-24.18321 202.69035,-22.03594 77.1494,1.76236 105.47065,5.50661 147.06968,19.44358 29.4176,9.85579 65.28226,27.8183 76.66855,38.39879 4.32142,4.0156 7.85714,6.49191 7.85714,5.50291 0,-0.98899 3.69554,1.20898 8.21228,4.88438 4.51678,3.6754 11.80558,9.25398 16.19735,12.39684 40.11763,28.70922 175.59037,151.29288 175.59037,158.88446 0,1.4768 -191.98003,2.54411 -457.61346,2.54411 l -457.61347,0 34.042,-35 z"
       id="path4166"
       inkscape:connector-curvature="0" />
    <path
       style="fill:#a0a0a0;stroke:none;stroke-width:1px;stroke-linecap:butt;stroke-linejoin:miter;stroke-opacity:1"
       d="m -1159.5714,771.05073 c 0,-1.66417 1.1281,-2.32851 2.507,-1.47632 1.3789,0.8522 17.9985,-14.17906 36.9324,-33.40281 41.044,-41.67231 86.9187,-84.96079 110.5606,-104.32777 24.08413,-19.72927 63.37142,-46.30065 65.4237,-44.24838 0.94552,0.94553 1.71913,0.13759 1.71913,-1.79541 0,-4.97215 48.26003,-27.18818 77.14286,-35.51195 44.99985,-12.96856 74.8548,-16.74638 144.6348,-18.30199 162.98837,-3.63348 223.67074,15.0006 328.59305,100.90291 56.25397,46.05644 149.62929,132.67439 149.62929,138.80095 0,1.31259 -206.35714,2.38653 -458.57143,2.38653 -320.8464,0 -458.5714,-0.90874 -458.5714,-3.02576 z"
       id="path4168"
       inkscape:connector-curvature="0" />
    <path
       style="fill:none;fill-rule:evenodd;stroke:#000000;stroke-width:3;stroke-linecap:butt;stroke-linejoin:miter;stroke-opacity:1;stroke-miterlimit:4;stroke-dasharray:none;marker-end:url(#Arrow1Lend)"
       d="m -720,532.3622 -320,-360"
       id="path4170"
       inkscape:connector-curvature="0" />
    <path
       style="fill:none;fill-rule:evenodd;stroke:#000000;stroke-width:3;stroke-linecap:butt;stroke-linejoin:miter;stroke-opacity:1;stroke-miterlimit:4;stroke-dasharray:none;marker-end:url(#marker4466)"
       d="m -720,532.3622 c 0,-400 0,-400 0,-400"
       id="path4464"
       inkscape:connector-curvature="0" />
    <path
       inkscape:connector-curvature="0"
       id="path4518"
       d="m -722.5064,532.85241 320.00003,-360"
       style="fill:none;fill-rule:evenodd;stroke:#000000;stroke-width:3;stroke-linecap:butt;stroke-linejoin:miter;stroke-miterlimit:4;stroke-dasharray:none;stroke-opacity:1;marker-end:url(#marker4520)" />
    <path
       style="fill:none;fill-rule:evenodd;stroke:#ff0000;stroke-width:4.4;stroke-linecap:butt;stroke-linejoin:miter;stroke-opacity:1;stroke-miterlimit:4;stroke-dasharray:none;marker-end:url(#marker4838)"
       d="m -720,532.3622 480,-360"
       id="path4830"
       inkscape:connector-curvature="0" />
    <g
       transform="matrix(10,0,0,10,-3343.6049,-1160.6653)"
       ns0:text="$\\vec{s}$"
       ns0:preamble="/home/francois/Documents/Mypapers/InkscapeHeader/header.inc"
       id="g5044">
      <defs
         id="defs5046">
        <g
           id="g5048">
          <symbol
             style="overflow:visible"
             overflow="visible"
             id="textext-d7372fc6-0">
            <path
               inkscape:connector-curvature="0"
               style="stroke:none"
               d=""
               id="path5051" />
          </symbol>
          <symbol
             style="overflow:visible"
             overflow="visible"
             id="textext-d7372fc6-1">
            <path
               inkscape:connector-curvature="0"
               style="stroke:none"
               d="m 5.359375,-5.9375 c -0.140625,0.140625 -0.46875,0.421875 -0.46875,0.59375 0,0.09375 0.09375,0.203125 0.1875,0.203125 0.09375,0 0.140625,-0.078125 0.203125,-0.140625 C 5.390625,-5.421875 5.625,-5.703125 6.0625,-5.921875 6.125,-5.96875 6.234375,-6.015625 6.234375,-6.125 6.234375,-6.234375 6.15625,-6.28125 6.09375,-6.328125 5.875,-6.484375 5.765625,-6.65625 5.6875,-6.890625 5.65625,-6.984375 5.625,-7.125 5.484375,-7.125 c -0.140625,0 -0.203125,0.140625 -0.203125,0.21875 0,0.046875 0.078125,0.359375 0.234375,0.578125 l -3.359375,0 c -0.15625,0 -0.34375,0 -0.34375,0.203125 0,0.1875 0.1875,0.1875 0.34375,0.1875 z m 0,0"
               id="path5054" />
          </symbol>
          <symbol
             style="overflow:visible"
             overflow="visible"
             id="textext-d7372fc6-2">
            <path
               inkscape:connector-curvature="0"
               style="stroke:none"
               d="M 3.890625,-3.734375 C 3.625,-3.71875 3.421875,-3.5 3.421875,-3.28125 c 0,0.140625 0.09375,0.296875 0.3125,0.296875 0.21875,0 0.453125,-0.171875 0.453125,-0.5625 C 4.1875,-4 3.765625,-4.40625 3,-4.40625 c -1.3125,0 -1.6875,1.015625 -1.6875,1.453125 0,0.78125 0.734375,0.921875 1.03125,0.984375 0.515625,0.109375 1.03125,0.21875 1.03125,0.765625 0,0.25 -0.21875,1.09375 -1.421875,1.09375 -0.140625,0 -0.90625,0 -1.140625,-0.53125 0.390625,0.046875 0.640625,-0.25 0.640625,-0.53125 0,-0.21875 -0.171875,-0.34375 -0.375,-0.34375 -0.265625,0 -0.5625,0.203125 -0.5625,0.65625 0,0.5625 0.578125,0.96875 1.421875,0.96875 1.625,0 2.015625,-1.203125 2.015625,-1.65625 0,-0.359375 -0.1875,-0.609375 -0.3125,-0.71875 -0.265625,-0.28125 -0.5625,-0.34375 -1,-0.421875 -0.359375,-0.078125 -0.75,-0.15625 -0.75,-0.609375 C 1.890625,-3.578125 2.125,-4.1875 3,-4.1875 c 0.25,0 0.75,0.078125 0.890625,0.453125 z m 0,0"
               id="path5057" />
          </symbol>
        </g>
      </defs>
      <g
         id="textext-d7372fc6-3">
        <g
           style="fill:#000000;fill-opacity:1"
           id="g5060">
          <use
             height="100%"
             width="100%"
             xlink:href="#textext-d7372fc6-1"
             x="223.064"
             y="134.765"
             id="use5062" />
        </g>
        <g
           style="fill:#000000;fill-opacity:1"
           id="g5064">
          <use
             height="100%"
             width="100%"
             xlink:href="#textext-d7372fc6-2"
             x="223.43262"
             y="134.765"
             id="use5066" />
        </g>
      </g>
    </g>
    <g
       id="g5256"
       transform="matrix(10,0,0,10,-2977.9297,-1220.2643)"
       ns0:preamble="/home/francois/Documents/Mypapers/InkscapeHeader/header.inc"
       ns0:text="$\\vec{n}$">
      <defs
         id="defs5258">
        <g
           id="g5260">
          <symbol
             id="textext-69ad63dd-0"
             overflow="visible"
             style="overflow:visible">
            <path
               id="path5263"
               d=""
               style="stroke:none"
               inkscape:connector-curvature="0" />
          </symbol>
          <symbol
             id="textext-69ad63dd-1"
             overflow="visible"
             style="overflow:visible">
            <path
               id="path5266"
               d="m 5.359375,-5.9375 c -0.140625,0.140625 -0.46875,0.421875 -0.46875,0.59375 0,0.09375 0.09375,0.203125 0.1875,0.203125 0.09375,0 0.140625,-0.078125 0.203125,-0.140625 C 5.390625,-5.421875 5.625,-5.703125 6.0625,-5.921875 6.125,-5.96875 6.234375,-6.015625 6.234375,-6.125 6.234375,-6.234375 6.15625,-6.28125 6.09375,-6.328125 5.875,-6.484375 5.765625,-6.65625 5.6875,-6.890625 5.65625,-6.984375 5.625,-7.125 5.484375,-7.125 c -0.140625,0 -0.203125,0.140625 -0.203125,0.21875 0,0.046875 0.078125,0.359375 0.234375,0.578125 l -3.359375,0 c -0.15625,0 -0.34375,0 -0.34375,0.203125 0,0.1875 0.1875,0.1875 0.34375,0.1875 z m 0,0"
               style="stroke:none"
               inkscape:connector-curvature="0" />
          </symbol>
          <symbol
             id="textext-69ad63dd-2"
             overflow="visible"
             style="overflow:visible">
            <path
               id="path5269"
               d="m 0.875,-0.59375 c -0.03125,0.15625 -0.09375,0.390625 -0.09375,0.4375 0,0.171875 0.140625,0.265625 0.296875,0.265625 0.125,0 0.296875,-0.078125 0.375,-0.28125 0,-0.015625 0.125,-0.484375 0.1875,-0.734375 l 0.21875,-0.890625 C 1.90625,-2.03125 1.96875,-2.25 2.03125,-2.46875 c 0.03125,-0.171875 0.109375,-0.46875 0.125,-0.5 0.140625,-0.3125 0.671875,-1.21875 1.625,-1.21875 0.453125,0 0.53125,0.375 0.53125,0.703125 0,0.609375 -0.484375,1.890625 -0.640625,2.3125 C 3.578125,-0.9375 3.5625,-0.8125 3.5625,-0.703125 c 0,0.46875 0.359375,0.8125 0.828125,0.8125 0.9375,0 1.296875,-1.453125 1.296875,-1.53125 0,-0.109375 -0.078125,-0.109375 -0.109375,-0.109375 -0.109375,0 -0.109375,0.03125 -0.15625,0.1875 -0.203125,0.671875 -0.53125,1.234375 -1.015625,1.234375 -0.171875,0 -0.234375,-0.09375 -0.234375,-0.328125 0,-0.25 0.078125,-0.484375 0.171875,-0.703125 0.1875,-0.53125 0.609375,-1.625 0.609375,-2.203125 0,-0.65625 -0.421875,-1.0625 -1.140625,-1.0625 -0.90625,0 -1.390625,0.640625 -1.5625,0.875 -0.046875,-0.5625 -0.453125,-0.875 -0.921875,-0.875 -0.453125,0 -0.640625,0.390625 -0.734375,0.5625 C 0.421875,-3.5 0.296875,-2.90625 0.296875,-2.875 c 0,0.109375 0.09375,0.109375 0.109375,0.109375 0.109375,0 0.109375,-0.015625 0.171875,-0.234375 0.171875,-0.703125 0.375,-1.1875 0.734375,-1.1875 0.1875,0 0.296875,0.125 0.296875,0.453125 0,0.21875 -0.03125,0.328125 -0.15625,0.84375 z m 0,0"
               style="stroke:none"
               inkscape:connector-curvature="0" />
          </symbol>
        </g>
      </defs>
      <g
         id="textext-69ad63dd-3">
        <g
           id="g5272"
           style="fill:#000000;fill-opacity:1">
          <use
             id="use5274"
             y="134.765"
             x="223.16499"
             xlink:href="#textext-69ad63dd-1"
             width="100%"
             height="100%" />
        </g>
        <g
           id="g5276"
           style="fill:#000000;fill-opacity:1">
          <use
             id="use5278"
             y="134.765"
             x="223.43399"
             xlink:href="#textext-69ad63dd-2"
             width="100%"
             height="100%" />
        </g>
      </g>
    </g>
    <g
       ns0:text="$\\vec{r}$"
       ns0:preamble="/home/francois/Documents/Mypapers/InkscapeHeader/header.inc"
       transform="matrix(10,0,0,10,-2689.3192,-1179.2367)"
       id="g5430">
      <defs
         id="defs5432">
        <g
           id="g5434">
          <symbol
             style="overflow:visible"
             overflow="visible"
             id="textext-a7fc0a44-0">
            <path
               inkscape:connector-curvature="0"
               style="stroke:none"
               d=""
               id="path5437" />
          </symbol>
          <symbol
             style="overflow:visible"
             overflow="visible"
             id="textext-a7fc0a44-1">
            <path
               inkscape:connector-curvature="0"
               style="stroke:none"
               d="m 5.359375,-5.9375 c -0.140625,0.140625 -0.46875,0.421875 -0.46875,0.59375 0,0.09375 0.09375,0.203125 0.1875,0.203125 0.09375,0 0.140625,-0.078125 0.203125,-0.140625 C 5.390625,-5.421875 5.625,-5.703125 6.0625,-5.921875 6.125,-5.96875 6.234375,-6.015625 6.234375,-6.125 6.234375,-6.234375 6.15625,-6.28125 6.09375,-6.328125 5.875,-6.484375 5.765625,-6.65625 5.6875,-6.890625 5.65625,-6.984375 5.625,-7.125 5.484375,-7.125 c -0.140625,0 -0.203125,0.140625 -0.203125,0.21875 0,0.046875 0.078125,0.359375 0.234375,0.578125 l -3.359375,0 c -0.15625,0 -0.34375,0 -0.34375,0.203125 0,0.1875 0.1875,0.1875 0.34375,0.1875 z m 0,0"
               id="path5440" />
          </symbol>
          <symbol
             style="overflow:visible"
             overflow="visible"
             id="textext-a7fc0a44-2">
            <path
               inkscape:connector-curvature="0"
               style="stroke:none"
               d="m 0.875,-0.59375 c -0.03125,0.15625 -0.09375,0.390625 -0.09375,0.4375 0,0.171875 0.140625,0.265625 0.296875,0.265625 0.125,0 0.296875,-0.078125 0.375,-0.28125 C 1.46875,-0.203125 1.796875,-1.5625 1.84375,-1.75 c 0.078125,-0.328125 0.265625,-1.015625 0.3125,-1.296875 0.046875,-0.125 0.328125,-0.59375 0.5625,-0.8125 0.078125,-0.0625 0.375,-0.328125 0.796875,-0.328125 0.265625,0 0.40625,0.125 0.421875,0.125 -0.296875,0.046875 -0.515625,0.28125 -0.515625,0.546875 0,0.15625 0.109375,0.34375 0.375,0.34375 0.265625,0 0.546875,-0.234375 0.546875,-0.59375 0,-0.34375 -0.3125,-0.640625 -0.828125,-0.640625 C 2.875,-4.40625 2.4375,-3.921875 2.25,-3.640625 2.15625,-4.09375 1.796875,-4.40625 1.328125,-4.40625 0.875,-4.40625 0.6875,-4.015625 0.59375,-3.84375 0.421875,-3.5 0.296875,-2.90625 0.296875,-2.875 c 0,0.109375 0.09375,0.109375 0.109375,0.109375 0.109375,0 0.109375,-0.015625 0.171875,-0.234375 0.171875,-0.703125 0.375,-1.1875 0.734375,-1.1875 0.15625,0 0.296875,0.078125 0.296875,0.453125 0,0.21875 -0.03125,0.328125 -0.15625,0.84375 z m 0,0"
               id="path5443" />
          </symbol>
        </g>
      </defs>
      <g
         id="textext-a7fc0a44-3">
        <g
           style="fill:#000000;fill-opacity:1"
           id="g5446">
          <use
             height="100%"
             width="100%"
             xlink:href="#textext-a7fc0a44-1"
             x="223.114"
             y="134.765"
             id="use5448" />
        </g>
        <g
           style="fill:#000000;fill-opacity:1"
           id="g5450">
          <use
             height="100%"
             width="100%"
             xlink:href="#textext-a7fc0a44-2"
             x="223.4328"
             y="134.765"
             id="use5452" />
        </g>
      </g>
    </g>
    <g
       id="g5632"
       transform="matrix(10,0,0,10,-2547.7173,-1042.3687)"
       ns0:preamble="/home/francois/Documents/Mypapers/InkscapeHeader/header.inc"
       ns0:text="\\color{red}{$\\vec{v}$}">
      <defs
         id="defs5634">
        <g
           id="g5636">
          <symbol
             id="textext-a675cd87-0"
             overflow="visible"
             style="overflow:visible">
            <path
               id="path5639"
               d=""
               style="stroke:none"
               inkscape:connector-curvature="0" />
          </symbol>
          <symbol
             id="textext-a675cd87-1"
             overflow="visible"
             style="overflow:visible">
            <path
               id="path5642"
               d="m 5.359375,-5.9375 c -0.140625,0.140625 -0.46875,0.421875 -0.46875,0.59375 0,0.09375 0.09375,0.203125 0.1875,0.203125 0.09375,0 0.140625,-0.078125 0.203125,-0.140625 C 5.390625,-5.421875 5.625,-5.703125 6.0625,-5.921875 6.125,-5.96875 6.234375,-6.015625 6.234375,-6.125 6.234375,-6.234375 6.15625,-6.28125 6.09375,-6.328125 5.875,-6.484375 5.765625,-6.65625 5.6875,-6.890625 5.65625,-6.984375 5.625,-7.125 5.484375,-7.125 c -0.140625,0 -0.203125,0.140625 -0.203125,0.21875 0,0.046875 0.078125,0.359375 0.234375,0.578125 l -3.359375,0 c -0.15625,0 -0.34375,0 -0.34375,0.203125 0,0.1875 0.1875,0.1875 0.34375,0.1875 z m 0,0"
               style="stroke:none"
               inkscape:connector-curvature="0" />
          </symbol>
          <symbol
             id="textext-a675cd87-2"
             overflow="visible"
             style="overflow:visible">
            <path
               id="path5645"
               d="m 4.671875,-3.703125 c 0,-0.546875 -0.265625,-0.703125 -0.4375,-0.703125 -0.25,0 -0.5,0.265625 -0.5,0.484375 0,0.125 0.046875,0.1875 0.15625,0.296875 0.21875,0.203125 0.34375,0.453125 0.34375,0.8125 0,0.421875 -0.609375,2.703125 -1.765625,2.703125 -0.515625,0 -0.75,-0.34375 -0.75,-0.875 0,-0.546875 0.28125,-1.28125 0.578125,-2.109375 0.078125,-0.171875 0.125,-0.3125 0.125,-0.5 0,-0.4375 -0.3125,-0.8125 -0.8125,-0.8125 -0.9375,0 -1.3125,1.453125 -1.3125,1.53125 0,0.109375 0.09375,0.109375 0.109375,0.109375 0.109375,0 0.109375,-0.03125 0.15625,-0.1875 0.296875,-1 0.71875,-1.234375 1.015625,-1.234375 0.078125,0 0.25,0 0.25,0.3125 0,0.25 -0.109375,0.53125 -0.171875,0.703125 -0.4375,1.15625 -0.5625,1.609375 -0.5625,2.046875 0,1.078125 0.875,1.234375 1.328125,1.234375 1.671875,0 2.25,-3.296875 2.25,-3.8125 z m 0,0"
               style="stroke:none"
               inkscape:connector-curvature="0" />
          </symbol>
        </g>
      </defs>
      <g
         id="textext-a675cd87-3">
        <g
           id="g5648"
           style="fill:#ff0000;fill-opacity:1">
          <use
             id="use5650"
             y="134.765"
             x="223.045"
             xlink:href="#textext-a675cd87-1"
             width="100%"
             height="100%" />
        </g>
        <g
           id="g5652"
           style="fill:#ff0000;fill-opacity:1">
          <use
             id="use5654"
             y="134.765"
             x="223.43355"
             xlink:href="#textext-a675cd87-2"
             width="100%"
             height="100%" />
        </g>
      </g>
    </g>
    <path
       style="fill:none;fill-rule:evenodd;stroke:#000000;stroke-width:4.30000019;stroke-linecap:butt;stroke-linejoin:miter;stroke-miterlimit:4;stroke-dasharray:none;stroke-opacity:1"
       d="m -800,445.21932 c 0,0 12.35154,-14.4873 20,-20 12.09328,-8.71635 25.49166,-16.57505 40,-20 6.48833,-1.53169 20,0 20,0"
       id="path5744"
       inkscape:connector-curvature="0"
       sodipodi:nodetypes="cssc" />
    <g
       ns0:text="$\\theta$"
       ns0:preamble="/home/francois/Documents/Mypapers/InkscapeHeader/header.inc"
       transform="matrix(10,0,0,10,-3045.0335,-957.80815)"
       id="g5865">
      <defs
         id="defs5867">
        <g
           id="g5869">
          <symbol
             style="overflow:visible"
             overflow="visible"
             id="textext-07d522c2-0">
            <path
               inkscape:connector-curvature="0"
               style="stroke:none"
               d=""
               id="path5872" />
          </symbol>
          <symbol
             style="overflow:visible"
             overflow="visible"
             id="textext-07d522c2-1">
            <path
               inkscape:connector-curvature="0"
               style="stroke:none"
               d="m 4.53125,-4.984375 c 0,-0.65625 -0.171875,-2.046875 -1.1875,-2.046875 -1.390625,0 -2.921875,2.8125 -2.921875,5.09375 0,0.9375 0.28125,2.046875 1.1875,2.046875 1.40625,0 2.921875,-2.859375 2.921875,-5.09375 z M 1.46875,-3.625 C 1.640625,-4.25 1.84375,-5.046875 2.25,-5.765625 2.515625,-6.25 2.875,-6.8125 3.328125,-6.8125 c 0.484375,0 0.546875,0.640625 0.546875,1.203125 0,0.5 -0.078125,1 -0.3125,1.984375 z m 2,0.328125 C 3.359375,-2.84375 3.15625,-2 2.765625,-1.28125 c -0.34375,0.6875 -0.71875,1.171875 -1.15625,1.171875 -0.328125,0 -0.53125,-0.296875 -0.53125,-1.21875 0,-0.421875 0.0625,-1 0.3125,-1.96875 z m 0,0"
               id="path5875" />
          </symbol>
        </g>
      </defs>
      <g
         id="textext-07d522c2-2">
        <g
           style="fill:#000000;fill-opacity:1"
           id="g5878">
          <use
             height="100%"
             width="100%"
             xlink:href="#textext-07d522c2-1"
             x="223.43201"
             y="134.765"
             id="use5880" />
        </g>
      </g>
    </g>
    <path
       sodipodi:nodetypes="cssc"
       inkscape:connector-curvature="0"
       id="path5981"
       d="m -638.53677,439.50503 c 0,0 -12.35154,-14.4873 -20,-20 -12.09328,-8.71635 -25.49166,-16.57505 -40,-20 -6.48833,-1.53169 -20,0 -20,0"
       style="fill:none;fill-rule:evenodd;stroke:#000000;stroke-width:4.30000019;stroke-linecap:butt;stroke-linejoin:miter;stroke-miterlimit:4;stroke-dasharray:none;stroke-opacity:1" />
    <g
       id="g5983"
       transform="matrix(10,0,0,10,-2907.8906,-956.37958)"
       ns0:preamble="/home/francois/Documents/Mypapers/InkscapeHeader/header.inc"
       ns0:text="$\\theta$">
      <defs
         id="defs5985">
        <g
           id="g5987">
          <symbol
             id="symbol5989"
             overflow="visible"
             style="overflow:visible">
            <path
               id="path5991"
               d=""
               style="stroke:none"
               inkscape:connector-curvature="0" />
          </symbol>
          <symbol
             id="symbol5993"
             overflow="visible"
             style="overflow:visible">
            <path
               id="path5995"
               d="m 4.53125,-4.984375 c 0,-0.65625 -0.171875,-2.046875 -1.1875,-2.046875 -1.390625,0 -2.921875,2.8125 -2.921875,5.09375 0,0.9375 0.28125,2.046875 1.1875,2.046875 1.40625,0 2.921875,-2.859375 2.921875,-5.09375 z M 1.46875,-3.625 C 1.640625,-4.25 1.84375,-5.046875 2.25,-5.765625 2.515625,-6.25 2.875,-6.8125 3.328125,-6.8125 c 0.484375,0 0.546875,0.640625 0.546875,1.203125 0,0.5 -0.078125,1 -0.3125,1.984375 z m 2,0.328125 C 3.359375,-2.84375 3.15625,-2 2.765625,-1.28125 c -0.34375,0.6875 -0.71875,1.171875 -1.15625,1.171875 -0.328125,0 -0.53125,-0.296875 -0.53125,-1.21875 0,-0.421875 0.0625,-1 0.3125,-1.96875 z m 0,0"
               style="stroke:none"
               inkscape:connector-curvature="0" />
          </symbol>
        </g>
      </defs>
      <g
         id="g5997">
        <g
           id="g5999"
           style="fill:#000000;fill-opacity:1">
          <use
             id="use6001"
             y="134.765"
             x="223.43201"
             xlink:href="#textext-07d522c2-1"
             width="100%"
             height="100%" />
        </g>
      </g>
    </g>
    <path
       sodipodi:nodetypes="czzc"
       inkscape:connector-curvature="0"
       id="path6003"
       d="m -605.08137,405.35948 c 0,0 11.49664,1.80463 14.64721,4.04061 3.15057,2.23598 3.17321,3.61937 4.54568,6.56599 1.37247,2.94662 3.03046,11.11168 3.03046,11.11168"
       style="fill:none;fill-rule:evenodd;stroke:#ff0000;stroke-width:4;stroke-linecap:butt;stroke-linejoin:miter;stroke-opacity:1;stroke-miterlimit:4;stroke-dasharray:none" />
    <g
       id="g6176"
       transform="matrix(10,0,0,10,-2807.3265,-880.74429)"
       ns0:preamble="/home/francois/Documents/Mypapers/InkscapeHeader/header.inc"
       ns0:text="\\color{red}{$\\phi$}">
      <defs
         id="defs6178">
        <g
           id="g6180">
          <symbol
             id="textext-bd724935-0"
             overflow="visible"
             style="overflow:visible">
            <path
               id="path6183"
               d=""
               style="stroke:none"
               inkscape:connector-curvature="0" />
          </symbol>
          <symbol
             id="textext-bd724935-1"
             overflow="visible"
             style="overflow:visible">
            <path
               id="path6186"
               d="M 1.6875,1.6875 C 1.65625,1.828125 1.640625,1.84375 1.640625,1.890625 c 0,0.21875 0.1875,0.28125 0.296875,0.28125 0.046875,0 0.265625,-0.03125 0.359375,-0.265625 C 2.328125,1.828125 2.375,1.5 2.65625,0.09375 c 0.078125,0 0.15625,0.015625 0.328125,0.015625 1.65625,0 3.1875,-1.5625 3.1875,-3.140625 0,-0.78125 -0.390625,-1.375 -1.140625,-1.375 -1.4375,0 -2.046875,1.9375 -2.640625,3.875 C 1.3125,-0.734375 0.75,-1.28125 0.75,-2 c 0,-0.28125 0.234375,-1.375 0.828125,-2.0625 0.09375,-0.09375 0.09375,-0.109375 0.09375,-0.140625 0,-0.03125 -0.03125,-0.09375 -0.125,-0.09375 -0.28125,0 -1.046875,1.453125 -1.046875,2.40625 0,0.9375 0.65625,1.65625 1.71875,1.90625 z m 1.390625,-2.15625 c -0.09375,0 -0.109375,0 -0.1875,-0.015625 -0.125,0 -0.125,0 -0.125,-0.03125 0,-0.015625 0.171875,-0.9375 0.1875,-1.078125 0.3125,-1.28125 1.09375,-2.234375 1.984375,-2.234375 0.6875,0 0.953125,0.53125 0.953125,1.015625 0,1.125 -1.28125,2.34375 -2.8125,2.34375 z m 0,0"
               style="stroke:none"
               inkscape:connector-curvature="0" />
          </symbol>
        </g>
      </defs>
      <g
         id="textext-bd724935-2">
        <g
           id="g6189"
           style="fill:#ff0000;fill-opacity:1">
          <use
             id="use6191"
             y="134.765"
             x="223.43201"
             xlink:href="#textext-bd724935-1"
             width="100%"
             height="100%" />
        </g>
      </g>
    </g>
    <circle
       style="opacity:1;fill:#ffff09;fill-opacity:0.83163267;stroke:#49ff00;stroke-width:4;stroke-miterlimit:4;stroke-dasharray:none;stroke-dashoffset:0;stroke-opacity:1"
       id="path6314"
       cx="-1135.0352"
       cy="65.819519"
       r="30.304577" />
    <path
       style="fill:none;fill-rule:evenodd;stroke:#ffe200;stroke-width:5;stroke-linecap:butt;stroke-linejoin:miter;stroke-miterlimit:4;stroke-dasharray:none;stroke-opacity:1"
       d="M -1183.5224,9.2509691 C -1154.228,37.53524 -1154.228,37.53524 -1154.228,37.53524"
       id="path6316"
       inkscape:connector-curvature="0" />
    <path
       style="fill:none;fill-rule:evenodd;stroke:#ffe200;stroke-width:5;stroke-linecap:butt;stroke-linejoin:miter;stroke-miterlimit:4;stroke-dasharray:none;stroke-opacity:1"
       d="m -1133.0147,32.484477 0,-35.3553389"
       id="path6318"
       inkscape:connector-curvature="0" />
    <path
       style="fill:none;fill-rule:evenodd;stroke:#ffe200;stroke-width:5;stroke-linecap:butt;stroke-linejoin:miter;stroke-miterlimit:4;stroke-dasharray:none;stroke-opacity:1"
       d="m -1117.8625,39.555545 27.2742,-31.3147289"
       id="path6320"
       inkscape:connector-curvature="0" />
    <path
       style="fill:none;fill-rule:evenodd;stroke:#ffe200;stroke-width:5;stroke-linecap:butt;stroke-linejoin:miter;stroke-miterlimit:4;stroke-dasharray:none;stroke-opacity:1"
       d="m -1102.7102,55.717986 37.3757,-9.091373"
       id="path6322"
       inkscape:connector-curvature="0" />
    <path
       style="fill:none;fill-rule:evenodd;stroke:#ffe200;stroke-width:5;stroke-linecap:butt;stroke-linejoin:miter;stroke-miterlimit:4;stroke-dasharray:none;stroke-opacity:1"
       d="m -1104.7305,76.931189 24.2437,13.131988"
       id="path6324"
       inkscape:connector-curvature="0" />
    <path
       style="fill:none;fill-rule:evenodd;stroke:#ffe200;stroke-width:5;stroke-linecap:butt;stroke-linejoin:miter;stroke-miterlimit:4;stroke-dasharray:none;stroke-opacity:1"
       d="m -1129.9843,99.154547 5.0508,24.243663"
       id="path6326"
       inkscape:connector-curvature="0" />
    <path
       style="fill:none;fill-rule:evenodd;stroke:#ffe200;stroke-width:5;stroke-linecap:butt;stroke-linejoin:miter;stroke-miterlimit:4;stroke-dasharray:none;stroke-opacity:1"
       d="m -1153.2178,91.073327 -20.203,23.233513"
       id="path6328"
       inkscape:connector-curvature="0" />
    <path
       style="fill:none;fill-rule:evenodd;stroke:#ffe200;stroke-width:5;stroke-linecap:butt;stroke-linejoin:miter;stroke-miterlimit:4;stroke-dasharray:none;stroke-opacity:1"
       d="m -1168.3701,69.860122 -31.3147,-6.060916"
       id="path6330"
       inkscape:connector-curvature="0" />
    <g
       id="g6356"
       style="stroke-width:8;stroke-miterlimit:4;stroke-dasharray:none;stroke:#ff0000;stroke-opacity:1"
       transform="matrix(0.51785714,0,0,0.51785714,1007.8572,-6.1825157)">
      <path
         inkscape:connector-curvature="0"
         id="path6352"
         d="m -2360,212.36218 0,160 120,-40 0,-80 -120,-40"
         style="fill:none;fill-rule:evenodd;stroke:#ff0000;stroke-width:8;stroke-linecap:butt;stroke-linejoin:miter;stroke-miterlimit:4;stroke-dasharray:none;stroke-opacity:1" />
      <path
         inkscape:connector-curvature="0"
         id="path6354"
         d="m -2240,372.36218 0,-160 200,0 0,160 z"
         style="fill:none;fill-rule:evenodd;stroke:#ff0000;stroke-width:8;stroke-linecap:butt;stroke-linejoin:miter;stroke-miterlimit:4;stroke-dasharray:none;stroke-opacity:1" />
    </g>
  </g>
</svg>
