<?xml version="1.0" encoding="UTF-8" standalone="no"?>
<!-- Created with Inkscape (http://www.inkscape.org/) -->

<svg
   xmlns:ns0="http://www.iki.fi/pav/software/textext/"
   xmlns:dc="http://purl.org/dc/elements/1.1/"
   xmlns:cc="http://creativecommons.org/ns#"
   xmlns:rdf="http://www.w3.org/1999/02/22-rdf-syntax-ns#"
   xmlns:svg="http://www.w3.org/2000/svg"
   xmlns="http://www.w3.org/2000/svg"
   xmlns:xlink="http://www.w3.org/1999/xlink"
   xmlns:sodipodi="http://sodipodi.sourceforge.net/DTD/sodipodi-0.dtd"
   xmlns:inkscape="http://www.inkscape.org/namespaces/inkscape"
   width="744.09448819"
   height="1052.3622047"
   id="svg2"
   version="1.1"
   inkscape:version="0.48.4 r9939"
   sodipodi:docname="surfacediffgeom.svg"
   inkscape:export-filename="/home/francois/Documents/Courses/VisionAndImageProcessing/lectures/Francois/FIGURES/reflectance.png"
   inkscape:export-xdpi="90"
   inkscape:export-ydpi="90">
  <sodipodi:namedview
     id="base"
     pagecolor="#ffffff"
     bordercolor="#ffffff"
     borderopacity="0.0"
     inkscape:pageopacity="0.0"
     inkscape:pageshadow="0"
     inkscape:zoom="0.35"
     inkscape:cx="-528.85659"
     inkscape:cy="800.75961"
     inkscape:document-units="px"
     inkscape:current-layer="layer1"
     showgrid="true"
     inkscape:window-width="1680"
     inkscape:window-height="1032"
     inkscape:window-x="0"
     inkscape:window-y="18"
     inkscape:window-maximized="1"
     showguides="true"
     inkscape:guide-bbox="true">
    <inkscape:grid
       id="grid4594"
       type="xygrid" />
  </sodipodi:namedview>
  <defs
     id="defs4">
    <marker
       style="overflow:visible"
       id="Arrow2Lstart"
       refX="0.0"
       refY="0.0"
       orient="auto"
       inkscape:stockid="Arrow2Lstart">
      <path
         transform="scale(1.1) translate(1,0)"
         d="M 8.7185878,4.0337352 L -2.2072895,0.016013256 L 8.7185884,-4.0017078 C 6.9730900,-1.6296469 6.9831476,1.6157441 8.7185878,4.0337352 z "
         style="fill-rule:evenodd;stroke-width:0.62500000;stroke-linejoin:round"
         id="path4986" />
    </marker>
    <marker
       inkscape:stockid="Arrow1Lend"
       orient="auto"
       refY="0.0"
       refX="0.0"
       id="Arrow1Lend"
       style="overflow:visible;">
      <path
         id="path3766"
         d="M 0.0,0.0 L 5.0,-5.0 L -12.5,0.0 L 5.0,5.0 L 0.0,0.0 z "
         style="fill-rule:evenodd;stroke:#000000;stroke-width:1.0pt;"
         transform="scale(0.8) rotate(180) translate(12.5,0)" />
    </marker>
  </defs>
  <metadata
     id="metadata7">
    <rdf:RDF>
      <cc:Work
         rdf:about="">
        <dc:format>image/svg+xml</dc:format>
        <dc:type
           rdf:resource="http://purl.org/dc/dcmitype/StillImage" />
        <dc:title />
      </cc:Work>
    </rdf:RDF>
  </metadata>
  <g
     inkscape:label="Layer 1"
     inkscape:groupmode="layer"
     id="layer1">
    <g
       id="g4020"
       transform="translate(-1231.4286,-814.28571)"
       style="fill:#56f278;fill-opacity:1;opacity:0.43119266">
      <rect
         transform="matrix(1,0,-0.58852313,0.80848038,0,0)"
         y="1061.3448"
         x="1174.1628"
         height="908.22943"
         width="1131.4465"
         id="rect3067"
         style="fill:#56f278;stroke:#000000;stroke-width:3.59526776999999997;stroke-miterlimit:4;stroke-opacity:1;stroke-dasharray:none;stroke-dashoffset:0;fill-opacity:1" />
      <path
         inkscape:connector-curvature="0"
         id="path4018"
         d="m 31.70182,1575.1792 c 6.01712,-8.4005 125.29352,-172.3291 265.05866,-364.2857 l 254.11844,-349.01193 561.05018,0 c 448.0674,0 560.6227,0.71921 558.9277,3.57143 -1.1674,1.96429 -120.2523,165.8929 -264.633,364.2857 l -262.5105,360.7143 -561.47583,0 -561.47587,0 10.94022,-15.2738 z"
         style="opacity:0.30733948000000000;fill:#56f278;fill-opacity:1;stroke:none" />
    </g>
    <path
       style="opacity:0.47706424;fill:#c0dbbd;fill-opacity:1;stroke:none"
       d="m -207.35796,809.15492 c 0,-7.51515 -36.05783,-113.80795 -48.50586,-142.98763 -30.71848,-72.00783 -44.76997,-93.9622 -90.49011,-141.38386 -59.46072,-61.6736 -128.83143,-111.31431 -227.69589,-162.93597 -105.03155,-54.8418 -166.58273,-74.71774 -314.73671,-101.634 -31.42857,-5.70989 -57.64053,-10.84666 -58.24879,-11.41506 -3.21819,-3.00728 16.30075,-163.260112 24.33133,-199.763112 22.81575,-103.709058 77.40053,-231.846808 134.36401,-315.419438 27.3994,-40.19841 87.06711,-120.10315 94.64548,-126.74566 5.76613,-5.05407 90.47091,-12.49353 174.90797,-15.36183 60.36057,-2.05043 102.503,1.06817 163.24545,12.08041 44.61003,8.08752 139.3848,31.20878 143.08243,34.90639 1.26097,1.26099 -14.43265,90.60098 -34.87474,198.5333 -20.44209,107.932313 -37.16743,198.178399 -37.16743,200.546856 0,2.368429 1.02354,4.306257 2.27454,4.306257 1.251,0 18.10666,-83.892857 37.45703,-186.428573 19.3504,-102.53571 36.47623,-193.03861 38.05746,-201.11756 l 2.87491,-14.68898 36.0966,12.23507 c 175.5612049,59.50711 310.73189,140.26021 432.50692,258.386472 51.40817,49.867828 70.3988,72.490657 110.4824,131.613571 40.74097,60.092517 115.00417,187.280767 151.24874,259.038997 l 6.00866,11.89615 -20.64649,3.3266 c -59.94203,9.65794 -135.75905,35.45128 -230.64648,78.46702 -128.3358,58.17909 -240.609174,130.72483 -308.915488,199.60658 -41.822571,42.17494 -118.840662,138.14722 -164.931912,205.5218 -9.3464,13.66228 -14.72403,17.10131 -14.72403,9.4162 z m -80,-711.559061 c 0,-2.357143 1.28571,-4.285714 2.85714,-4.285714 1.57143,0 2.85714,1.928571 2.85714,4.285714 0,2.993201 3.01589,4.285711 10,4.285711 5.5,0 10,-0.72585 10,-1.61303 0,-0.887167 -4.01788,-4.993852 -8.92862,-9.125967 l -8.92863,-7.512943 7.50005,-6.451257 c 9.32269,-8.019057 9.38098,-9.582514 0.3572,-9.582514 -4.44445,0 -7.14285,1.619057 -7.14285,4.285714 0,2.357143 -1.28572,4.285715 -2.85715,4.285715 -1.57142,0 -2.85714,-1.928572 -2.85714,-4.285715 0,-2.9932 -3.01588,-4.285714 -10,-4.285714 -5.5,0 -10,0.704514 -10,1.565629 0,0.861085 3.53572,4.718228 7.85714,8.571428 l 7.85715,7.0058 -7.85715,7.0058 c -9.93871,8.861854 -9.84885,10.137054 0.71429,10.137054 5.71429,0 8.57143,-1.42857 8.57143,-4.285711 z"
       id="path4016"
       inkscape:connector-curvature="0" />
    <g
       ns0:text="$[u,v]^\\top$"
       ns0:preamble="/home/francois/Documents/Mypapers/InkscapeHeader/header.inc"
       transform="matrix(7,0,0,7,-1831.5476,-473.2849)"
       id="g4382">
      <defs
         id="defs4384">
        <g
           id="g4386">
          <symbol
             overflow="visible"
             id="textext-b160a699-0">
            <path
               style="stroke:none;"
               d=""
               id="path4389" />
          </symbol>
          <symbol
             overflow="visible"
             id="textext-b160a699-1">
            <path
               style="stroke:none;"
               d="M 2.546875 2.5 L 2.546875 2.09375 L 1.578125 2.09375 L 1.578125 -7.078125 L 2.546875 -7.078125 L 2.546875 -7.484375 L 1.171875 -7.484375 L 1.171875 2.5 Z M 2.546875 2.5 "
               id="path4392" />
          </symbol>
          <symbol
             overflow="visible"
             id="textext-b160a699-2">
            <path
               style="stroke:none;"
               d="M 1.578125 -7.484375 L 0.21875 -7.484375 L 0.21875 -7.078125 L 1.1875 -7.078125 L 1.1875 2.09375 L 0.21875 2.09375 L 0.21875 2.5 L 1.578125 2.5 Z M 1.578125 -7.484375 "
               id="path4395" />
          </symbol>
          <symbol
             overflow="visible"
             id="textext-b160a699-3">
            <path
               style="stroke:none;"
               d=""
               id="path4398" />
          </symbol>
          <symbol
             overflow="visible"
             id="textext-b160a699-4">
            <path
               style="stroke:none;"
               d="M 3.484375 -0.5625 C 3.59375 -0.15625 3.953125 0.109375 4.375 0.109375 C 4.71875 0.109375 4.953125 -0.125 5.109375 -0.4375 C 5.28125 -0.796875 5.40625 -1.40625 5.40625 -1.421875 C 5.40625 -1.53125 5.328125 -1.53125 5.296875 -1.53125 C 5.1875 -1.53125 5.1875 -1.484375 5.15625 -1.34375 C 5.015625 -0.78125 4.828125 -0.109375 4.40625 -0.109375 C 4.203125 -0.109375 4.09375 -0.234375 4.09375 -0.5625 C 4.09375 -0.78125 4.21875 -1.25 4.296875 -1.609375 L 4.578125 -2.6875 C 4.609375 -2.828125 4.703125 -3.203125 4.75 -3.359375 C 4.796875 -3.59375 4.890625 -3.96875 4.890625 -4.03125 C 4.890625 -4.203125 4.75 -4.296875 4.609375 -4.296875 C 4.5625 -4.296875 4.296875 -4.28125 4.21875 -3.953125 C 4.03125 -3.21875 3.59375 -1.46875 3.46875 -0.953125 C 3.453125 -0.90625 3.0625 -0.109375 2.328125 -0.109375 C 1.8125 -0.109375 1.71875 -0.5625 1.71875 -0.921875 C 1.71875 -1.484375 2 -2.265625 2.25 -2.953125 C 2.375 -3.265625 2.421875 -3.40625 2.421875 -3.59375 C 2.421875 -4.03125 2.109375 -4.40625 1.609375 -4.40625 C 0.65625 -4.40625 0.296875 -2.953125 0.296875 -2.875 C 0.296875 -2.765625 0.390625 -2.765625 0.40625 -2.765625 C 0.515625 -2.765625 0.515625 -2.796875 0.5625 -2.953125 C 0.8125 -3.8125 1.203125 -4.1875 1.578125 -4.1875 C 1.671875 -4.1875 1.828125 -4.171875 1.828125 -3.859375 C 1.828125 -3.625 1.71875 -3.328125 1.65625 -3.1875 C 1.28125 -2.1875 1.078125 -1.578125 1.078125 -1.09375 C 1.078125 -0.140625 1.765625 0.109375 2.296875 0.109375 C 2.953125 0.109375 3.3125 -0.34375 3.484375 -0.5625 Z M 3.484375 -0.5625 "
               id="path4401" />
          </symbol>
          <symbol
             overflow="visible"
             id="textext-b160a699-5">
            <path
               style="stroke:none;"
               d="M 2.03125 -0.015625 C 2.03125 -0.671875 1.78125 -1.0625 1.390625 -1.0625 C 1.0625 -1.0625 0.859375 -0.8125 0.859375 -0.53125 C 0.859375 -0.265625 1.0625 0 1.390625 0 C 1.5 0 1.640625 -0.046875 1.734375 -0.125 C 1.765625 -0.15625 1.78125 -0.15625 1.78125 -0.15625 C 1.796875 -0.15625 1.796875 -0.15625 1.796875 -0.015625 C 1.796875 0.734375 1.453125 1.328125 1.125 1.65625 C 1.015625 1.765625 1.015625 1.78125 1.015625 1.8125 C 1.015625 1.890625 1.0625 1.921875 1.109375 1.921875 C 1.21875 1.921875 2.03125 1.15625 2.03125 -0.015625 Z M 2.03125 -0.015625 "
               id="path4404" />
          </symbol>
          <symbol
             overflow="visible"
             id="textext-b160a699-6">
            <path
               style="stroke:none;"
               d="M 4.671875 -3.703125 C 4.671875 -4.25 4.40625 -4.40625 4.234375 -4.40625 C 3.984375 -4.40625 3.734375 -4.140625 3.734375 -3.921875 C 3.734375 -3.796875 3.78125 -3.734375 3.890625 -3.625 C 4.109375 -3.421875 4.234375 -3.171875 4.234375 -2.8125 C 4.234375 -2.390625 3.625 -0.109375 2.46875 -0.109375 C 1.953125 -0.109375 1.71875 -0.453125 1.71875 -0.984375 C 1.71875 -1.53125 2 -2.265625 2.296875 -3.09375 C 2.375 -3.265625 2.421875 -3.40625 2.421875 -3.59375 C 2.421875 -4.03125 2.109375 -4.40625 1.609375 -4.40625 C 0.671875 -4.40625 0.296875 -2.953125 0.296875 -2.875 C 0.296875 -2.765625 0.390625 -2.765625 0.40625 -2.765625 C 0.515625 -2.765625 0.515625 -2.796875 0.5625 -2.953125 C 0.859375 -3.953125 1.28125 -4.1875 1.578125 -4.1875 C 1.65625 -4.1875 1.828125 -4.1875 1.828125 -3.875 C 1.828125 -3.625 1.71875 -3.34375 1.65625 -3.171875 C 1.21875 -2.015625 1.09375 -1.5625 1.09375 -1.125 C 1.09375 -0.046875 1.96875 0.109375 2.421875 0.109375 C 4.09375 0.109375 4.671875 -3.1875 4.671875 -3.703125 Z M 4.671875 -3.703125 "
               id="path4407" />
          </symbol>
          <symbol
             overflow="visible"
             id="textext-b160a699-7">
            <path
               style="stroke:none;"
               d=""
               id="path4410" />
          </symbol>
          <symbol
             overflow="visible"
             id="textext-b160a699-8">
            <path
               style="stroke:none;"
               d="M 3.28125 -4.5 L 5.40625 -4.5 C 5.515625 -4.5 5.6875 -4.5 5.6875 -4.65625 C 5.6875 -4.84375 5.53125 -4.84375 5.40625 -4.84375 L 0.8125 -4.84375 C 0.703125 -4.84375 0.53125 -4.84375 0.53125 -4.671875 C 0.53125 -4.5 0.703125 -4.5 0.8125 -4.5 L 2.9375 -4.5 L 2.9375 -0.265625 C 2.9375 -0.15625 2.9375 0 3.109375 0 C 3.28125 0 3.28125 -0.171875 3.28125 -0.265625 Z M 3.28125 -4.5 "
               id="path4413" />
          </symbol>
        </g>
      </defs>
      <g
         id="textext-b160a699-9">
        <g
           style="fill:rgb(0%,0%,0%);fill-opacity:1;"
           id="g4416">
          <use
             xlink:href="#textext-b160a699-1"
             x="223.432"
             y="134.765"
             id="use4418" />
        </g>
        <g
           style="fill:rgb(0%,0%,0%);fill-opacity:1;"
           id="g4420">
          <use
             xlink:href="#textext-b160a699-4"
             x="226.2"
             y="134.765"
             id="use4422" />
          <use
             xlink:href="#textext-b160a699-5"
             x="231.903589"
             y="134.765"
             id="use4424" />
        </g>
        <g
           style="fill:rgb(0%,0%,0%);fill-opacity:1;"
           id="g4426">
          <use
             xlink:href="#textext-b160a699-6"
             x="236.334953"
             y="134.765"
             id="use4428" />
        </g>
        <g
           style="fill:rgb(0%,0%,0%);fill-opacity:1;"
           id="g4430">
          <use
             xlink:href="#textext-b160a699-2"
             x="241.517"
             y="134.765"
             id="use4432" />
        </g>
        <g
           style="fill:rgb(0%,0%,0%);fill-opacity:1;"
           id="g4434">
          <use
             xlink:href="#textext-b160a699-8"
             x="244.284"
             y="131.149"
             id="use4436" />
        </g>
      </g>
    </g>
    <path
       style="fill:none;stroke:#000000;stroke-width:2.8;stroke-linecap:butt;stroke-linejoin:miter;stroke-opacity:1;stroke-miterlimit:4;stroke-dasharray:none"
       d="m -951.42857,252.36218 c 0,0 196.28888,28.62344 285.71428,68.57143 130.01031,58.07803 261.80056,132.21106 351.42858,242.85714 59.11681,72.97989 108.57142,260 108.57142,260 0,0 129.167502,-190.90969 217.142861,-262.85714 C 133.46271,461.13242 280.43249,391.99736 428.57143,338.07647 c 34.75319,-12.64977 108.57143,-22.85714 108.57143,-22.85714 0,0 -128.24653,-255.275615 -222.85715,-360.000005 C 230.51545,-137.50588 127.89103,-215.47066 17.142857,-273.3521 -113.92496,-341.85341 -259.24948,-387.16195 -405.71429,-407.63781 c -95.30606,-13.32385 -288.57142,8.57142 -288.57142,8.57142 0,0 -95.25959,119.05636 -131.42857,185.71429 -40.56995,74.76871 -72.6195,154.881949 -94.28572,237.142854 -19.58814,74.370989 -31.42857,228.571426 -31.42857,228.571426 z"
       id="path2985"
       inkscape:connector-curvature="0"
       sodipodi:nodetypes="caacaacaaacaac" />
    <path
       transform="translate(299.00515,193.94929)"
       d="m -580.83772,275.0498 a 8.0812206,6.5659914 0 1 1 -16.16245,0 8.0812206,6.5659914 0 1 1 16.16245,0 z"
       sodipodi:ry="6.5659914"
       sodipodi:rx="8.0812206"
       sodipodi:cy="275.0498"
       sodipodi:cx="-588.91895"
       id="path3863"
       style="fill:#000000;fill-opacity:1;stroke:#000000;stroke-width:3;stroke-miterlimit:4;stroke-opacity:1;stroke-dasharray:none;stroke-dashoffset:0"
       sodipodi:type="arc" />
    <path
       style="fill:none;stroke:#000000;stroke-width:2.78519726;stroke-linecap:butt;stroke-linejoin:miter;stroke-miterlimit:4;stroke-opacity:1;stroke-dasharray:none;marker-end:url(#Arrow1Lend)"
       d="M -288.09729,95.219324 -200,-421.92353"
       id="path3757"
       inkscape:connector-curvature="0" />
    <g
       transform="matrix(7,0,0,7,-1802.8571,-1437.1429)"
       ns0:text="$\\bn(\\bx)$"
       ns0:preamble="/home/francois/Documents/Mypapers/InkscapeHeader/header.inc"
       id="g4630">
      <defs
         id="defs4632">
        <g
           id="g4634">
          <symbol
             style="overflow:visible"
             overflow="visible"
             id="textext-66969718-0">
            <path
               inkscape:connector-curvature="0"
               style="stroke:none"
               d=""
               id="path4637" />
          </symbol>
          <symbol
             style="overflow:visible"
             overflow="visible"
             id="textext-66969718-1">
            <path
               inkscape:connector-curvature="0"
               style="stroke:none"
               d="m 1.140625,-3.546875 0,3.078125 -0.6875,0 0,0.46875 c 0.28125,-0.015625 0.875,-0.03125 1.25,-0.03125 0.390625,0 0.984375,0.015625 1.25,0.03125 l 0,-0.46875 -0.6875,0 0,-2.078125 c 0,-1.09375 0.859375,-1.578125 1.5,-1.578125 0.328125,0 0.546875,0.203125 0.546875,0.96875 l 0,2.6875 -0.6875,0 0,0.46875 c 0.265625,-0.015625 0.875,-0.03125 1.25,-0.03125 0.390625,0 0.984375,0.015625 1.25,0.03125 l 0,-0.46875 -0.6875,0 0,-2.578125 c 0,-1.046875 -0.53125,-1.4375 -1.53125,-1.4375 -0.953125,0 -1.484375,0.5625 -1.75,1.078125 l 0,-1.078125 -1.703125,0.078125 0,0.46875 c 0.609375,0 0.6875,0 0.6875,0.390625 z m 0,0"
               id="path4640" />
          </symbol>
          <symbol
             style="overflow:visible"
             overflow="visible"
             id="textext-66969718-2">
            <path
               inkscape:connector-curvature="0"
               style="stroke:none"
               d="M 3.453125,-2.453125 4.609375,-3.75 C 4.75,-3.890625 4.8125,-3.953125 5.625,-3.953125 l 0,-0.46875 c -0.34375,0.015625 -0.859375,0.03125 -0.90625,0.03125 -0.25,0 -0.75,-0.03125 -1.03125,-0.03125 l 0,0.46875 c 0.140625,0 0.265625,0.015625 0.375,0.078125 -0.03125,0.0625 -0.03125,0.09375 -0.078125,0.125 l -0.828125,0.9375 -0.984375,-1.140625 0.40625,0 0,-0.46875 c -0.265625,0 -0.890625,0.03125 -1.21875,0.03125 -0.3125,0 -0.765625,-0.03125 -1.09375,-0.03125 l 0,0.46875 0.71875,0 1.546875,1.828125 -1.3125,1.46875 c -0.15625,0.1875 -0.515625,0.1875 -1,0.1875 l 0,0.46875 c 0.34375,-0.015625 0.875,-0.03125 0.921875,-0.03125 0.25,0 0.828125,0.015625 1.015625,0.03125 l 0,-0.46875 c -0.171875,0 -0.359375,-0.046875 -0.359375,-0.109375 0,-0.015625 0,-0.015625 0.0625,-0.09375 l 0.96875,-1.09375 1.09375,1.296875 -0.390625,0 0,0.46875 c 0.265625,-0.015625 0.875,-0.03125 1.203125,-0.03125 0.3125,0 0.765625,0.015625 1.09375,0.03125 l 0,-0.46875 -0.703125,0 z m 0,0"
               id="path4643" />
          </symbol>
          <symbol
             style="overflow:visible"
             overflow="visible"
             id="textext-66969718-3">
            <path
               inkscape:connector-curvature="0"
               style="stroke:none"
               d=""
               id="path4646" />
          </symbol>
          <symbol
             style="overflow:visible"
             overflow="visible"
             id="textext-66969718-4">
            <path
               inkscape:connector-curvature="0"
               style="stroke:none"
               d="m 3.296875,2.390625 c 0,-0.03125 0,-0.046875 -0.171875,-0.21875 C 1.890625,0.921875 1.5625,-0.96875 1.5625,-2.5 c 0,-1.734375 0.375,-3.46875 1.609375,-4.703125 0.125,-0.125 0.125,-0.140625 0.125,-0.171875 0,-0.078125 -0.03125,-0.109375 -0.09375,-0.109375 -0.109375,0 -1,0.6875 -1.59375,1.953125 -0.5,1.09375 -0.625,2.203125 -0.625,3.03125 0,0.78125 0.109375,1.984375 0.65625,3.125 C 2.25,1.84375 3.09375,2.5 3.203125,2.5 c 0.0625,0 0.09375,-0.03125 0.09375,-0.109375 z m 0,0"
               id="path4649" />
          </symbol>
          <symbol
             style="overflow:visible"
             overflow="visible"
             id="textext-66969718-5">
            <path
               inkscape:connector-curvature="0"
               style="stroke:none"
               d="m 2.875,-2.5 c 0,-0.765625 -0.109375,-1.96875 -0.65625,-3.109375 -0.59375,-1.21875 -1.453125,-1.875 -1.546875,-1.875 -0.0625,0 -0.109375,0.046875 -0.109375,0.109375 0,0.03125 0,0.046875 0.1875,0.234375 0.984375,0.984375 1.546875,2.5625 1.546875,4.640625 0,1.71875 -0.359375,3.46875 -1.59375,4.71875 C 0.5625,2.34375 0.5625,2.359375 0.5625,2.390625 0.5625,2.453125 0.609375,2.5 0.671875,2.5 0.765625,2.5 1.671875,1.8125 2.25,0.546875 2.765625,-0.546875 2.875,-1.65625 2.875,-2.5 z m 0,0"
               id="path4652" />
          </symbol>
        </g>
      </defs>
      <g
         id="textext-66969718-6">
        <g
           style="fill:#000000;fill-opacity:1"
           id="g4655">
          <use
             height="1052.3622"
             width="744.09448"
             xlink:href="#textext-66969718-1"
             x="223.43201"
             y="134.765"
             id="use4657" />
        </g>
        <g
           style="fill:#000000;fill-opacity:1"
           id="g4659">
          <use
             height="1052.3622"
             width="744.09448"
             xlink:href="#textext-66969718-4"
             x="229.797"
             y="134.765"
             id="use4661" />
        </g>
        <g
           style="fill:#000000;fill-opacity:1"
           id="g4663">
          <use
             height="1052.3622"
             width="744.09448"
             xlink:href="#textext-66969718-2"
             x="233.67101"
             y="134.765"
             id="use4665" />
        </g>
        <g
           style="fill:#000000;fill-opacity:1"
           id="g4667">
          <use
             height="1052.3622"
             width="744.09448"
             xlink:href="#textext-66969718-5"
             x="239.718"
             y="134.765"
             id="use4669" />
        </g>
      </g>
    </g>
    <path
       inkscape:connector-curvature="0"
       id="path4202"
       d="M -291.62768,103.86605 -484.66516,378.98719"
       style="fill:none;stroke:#000000;stroke-width:2.20000005;stroke-linecap:butt;stroke-linejoin:miter;stroke-miterlimit:4;stroke-opacity:1;stroke-dasharray:none;marker-end:url(#Arrow1Lend)" />
    <path
       inkscape:connector-curvature="0"
       id="path4386"
       d="M -291.42857,95.219325 -48.811376,172.27061"
       style="fill:none;stroke:#000000;stroke-width:3;stroke-linecap:butt;stroke-linejoin:miter;stroke-miterlimit:4;stroke-opacity:1;stroke-dasharray:none;marker-end:url(#Arrow1Lend)" />
    <g
       id="g4661"
       ns0:preamble="/home/francois/Documents/Mypapers/InkscapeHeader/header.inc"
       ns0:text="$S_u$"
       transform="matrix(7,0,0,7,-1734.2857,-731.42857)">
      <defs
         id="defs4663">
        <g
           id="g4665">
          <symbol
             id="textext-757d0f06-0"
             overflow="visible"
             style="overflow:visible">
            <path
               id="path4668"
               d=""
               style="stroke:none"
               inkscape:connector-curvature="0" />
          </symbol>
          <symbol
             id="textext-757d0f06-1"
             overflow="visible"
             style="overflow:visible">
            <path
               id="path4671"
               d="m 6.4375,-6.921875 c 0,-0.03125 -0.03125,-0.109375 -0.125,-0.109375 -0.046875,0 -0.046875,0.015625 -0.171875,0.15625 L 5.65625,-6.3125 c -0.25,-0.46875 -0.765625,-0.71875 -1.421875,-0.71875 -1.265625,0 -2.453125,1.15625 -2.453125,2.359375 0,0.796875 0.515625,1.265625 1.03125,1.40625 l 1.0625,0.28125 c 0.375,0.09375 0.921875,0.25 0.921875,1.0625 0,0.890625 -0.8125,1.828125 -1.796875,1.828125 -0.640625,0 -1.75,-0.21875 -1.75,-1.453125 0,-0.234375 0.0625,-0.484375 0.0625,-0.53125 0.015625,-0.046875 0.015625,-0.0625 0.015625,-0.078125 0,-0.09375 -0.0625,-0.109375 -0.109375,-0.109375 -0.046875,0 -0.078125,0.015625 -0.109375,0.046875 -0.03125,0.03125 -0.59375,2.3125 -0.59375,2.34375 0,0.046875 0.046875,0.09375 0.109375,0.09375 0.046875,0 0.0625,-0.015625 0.1875,-0.15625 L 1.296875,-0.5 c 0.421875,0.578125 1.109375,0.71875 1.6875,0.71875 1.359375,0 2.53125,-1.328125 2.53125,-2.5625 0,-0.6875 -0.34375,-1.03125 -0.484375,-1.171875 C 4.796875,-3.734375 4.640625,-3.78125 3.765625,-4 3.53125,-4.0625 3.1875,-4.171875 3.09375,-4.1875 2.828125,-4.28125 2.484375,-4.5625 2.484375,-5.09375 c 0,-0.8125 0.796875,-1.65625 1.75,-1.65625 0.8125,0 1.421875,0.4375 1.421875,1.546875 0,0.3125 -0.03125,0.5 -0.03125,0.5625 0,0 0,0.09375 0.109375,0.09375 0.109375,0 0.125,-0.03125 0.15625,-0.203125 z m 0,0"
               style="stroke:none"
               inkscape:connector-curvature="0" />
          </symbol>
          <symbol
             id="textext-757d0f06-2"
             overflow="visible"
             style="overflow:visible">
            <path
               id="path4674"
               d=""
               style="stroke:none"
               inkscape:connector-curvature="0" />
          </symbol>
          <symbol
             id="textext-757d0f06-3"
             overflow="visible"
             style="overflow:visible">
            <path
               id="path4677"
               d="M 2.953125,-1.125 C 2.90625,-0.984375 2.84375,-0.71875 2.84375,-0.71875 2.703125,-0.5 2.421875,-0.125 2,-0.125 c -0.484375,0 -0.484375,-0.453125 -0.484375,-0.578125 0,-0.40625 0.1875,-0.90625 0.390625,-1.421875 C 1.953125,-2.265625 2,-2.359375 2,-2.46875 2,-2.84375 1.6875,-3.078125 1.34375,-3.078125 0.640625,-3.078125 0.328125,-2.125 0.328125,-2 c 0,0.078125 0.09375,0.078125 0.125,0.078125 0.09375,0 0.09375,-0.03125 0.125,-0.109375 0.15625,-0.5625 0.46875,-0.84375 0.734375,-0.84375 0.125,0 0.171875,0.078125 0.171875,0.234375 0,0.171875 -0.046875,0.3125 -0.125,0.46875 -0.375,0.96875 -0.375,1.171875 -0.375,1.359375 0,0.109375 0,0.4375 0.265625,0.65625 0.203125,0.171875 0.46875,0.21875 0.71875,0.21875 0.4375,0 0.671875,-0.234375 0.90625,-0.453125 C 3.03125,0.0625 3.484375,0.0625 3.578125,0.0625 3.8125,0.0625 4,-0.0625 4.125,-0.296875 4.28125,-0.578125 4.375,-0.96875 4.375,-1 c 0,-0.09375 -0.09375,-0.09375 -0.109375,-0.09375 -0.109375,0 -0.109375,0.03125 -0.15625,0.21875 -0.09375,0.328125 -0.21875,0.75 -0.515625,0.75 -0.171875,0 -0.234375,-0.15625 -0.234375,-0.34375 0,-0.109375 0.0625,-0.375 0.109375,-0.546875 0.046875,-0.1875 0.125,-0.46875 0.15625,-0.625 l 0.15625,-0.625 C 3.828125,-2.4375 3.90625,-2.75 3.90625,-2.78125 3.90625,-2.921875 3.796875,-3 3.671875,-3 c -0.25,0 -0.3125,0.203125 -0.359375,0.421875 z m 0,0"
               style="stroke:none"
               inkscape:connector-curvature="0" />
          </symbol>
        </g>
      </defs>
      <g
         id="textext-757d0f06-4">
        <g
           id="g4680"
           style="fill:#000000;fill-opacity:1">
          <use
             id="use4682"
             y="134.765"
             x="223.43201"
             xlink:href="#textext-757d0f06-1"
             width="744.09448"
             height="1052.3622" />
        </g>
        <g
           id="g4684"
           style="fill:#000000;fill-opacity:1">
          <use
             id="use4686"
             y="136.259"
             x="229.541"
             xlink:href="#textext-757d0f06-3"
             width="744.09448"
             height="1052.3622" />
        </g>
      </g>
    </g>
    <g
       ns0:text="$S_v$"
       ns0:preamble="/home/francois/Documents/Mypapers/InkscapeHeader/header.inc"
       transform="matrix(7,0,0,7,-1620,-945.71428)"
       id="g4906">
      <defs
         id="defs4908">
        <g
           id="g4910">
          <symbol
             style="overflow:visible"
             overflow="visible"
             id="textext-82394580-0">
            <path
               inkscape:connector-curvature="0"
               style="stroke:none"
               d=""
               id="path4913" />
          </symbol>
          <symbol
             style="overflow:visible"
             overflow="visible"
             id="textext-82394580-1">
            <path
               inkscape:connector-curvature="0"
               style="stroke:none"
               d="m 6.4375,-6.921875 c 0,-0.03125 -0.03125,-0.109375 -0.125,-0.109375 -0.046875,0 -0.046875,0.015625 -0.171875,0.15625 L 5.65625,-6.3125 c -0.25,-0.46875 -0.765625,-0.71875 -1.421875,-0.71875 -1.265625,0 -2.453125,1.15625 -2.453125,2.359375 0,0.796875 0.515625,1.265625 1.03125,1.40625 l 1.0625,0.28125 c 0.375,0.09375 0.921875,0.25 0.921875,1.0625 0,0.890625 -0.8125,1.828125 -1.796875,1.828125 -0.640625,0 -1.75,-0.21875 -1.75,-1.453125 0,-0.234375 0.0625,-0.484375 0.0625,-0.53125 0.015625,-0.046875 0.015625,-0.0625 0.015625,-0.078125 0,-0.09375 -0.0625,-0.109375 -0.109375,-0.109375 -0.046875,0 -0.078125,0.015625 -0.109375,0.046875 -0.03125,0.03125 -0.59375,2.3125 -0.59375,2.34375 0,0.046875 0.046875,0.09375 0.109375,0.09375 0.046875,0 0.0625,-0.015625 0.1875,-0.15625 L 1.296875,-0.5 c 0.421875,0.578125 1.109375,0.71875 1.6875,0.71875 1.359375,0 2.53125,-1.328125 2.53125,-2.5625 0,-0.6875 -0.34375,-1.03125 -0.484375,-1.171875 C 4.796875,-3.734375 4.640625,-3.78125 3.765625,-4 3.53125,-4.0625 3.1875,-4.171875 3.09375,-4.1875 2.828125,-4.28125 2.484375,-4.5625 2.484375,-5.09375 c 0,-0.8125 0.796875,-1.65625 1.75,-1.65625 0.8125,0 1.421875,0.4375 1.421875,1.546875 0,0.3125 -0.03125,0.5 -0.03125,0.5625 0,0 0,0.09375 0.109375,0.09375 0.109375,0 0.125,-0.03125 0.15625,-0.203125 z m 0,0"
               id="path4916" />
          </symbol>
          <symbol
             style="overflow:visible"
             overflow="visible"
             id="textext-82394580-2">
            <path
               inkscape:connector-curvature="0"
               style="stroke:none"
               d=""
               id="path4919" />
          </symbol>
          <symbol
             style="overflow:visible"
             overflow="visible"
             id="textext-82394580-3">
            <path
               inkscape:connector-curvature="0"
               style="stroke:none"
               d="m 3.71875,-2.53125 c 0,-0.546875 -0.328125,-0.546875 -0.34375,-0.546875 -0.1875,0 -0.375,0.1875 -0.375,0.375 0,0.109375 0.0625,0.171875 0.109375,0.203125 0.125,0.109375 0.265625,0.28125 0.265625,0.5625 0,0.3125 -0.46875,1.8125 -1.296875,1.8125 -0.5625,0 -0.5625,-0.5 -0.5625,-0.625 0,-0.3125 0.125,-0.703125 0.390625,-1.359375 C 1.953125,-2.25 2,-2.359375 2,-2.46875 2,-2.84375 1.6875,-3.078125 1.34375,-3.078125 0.640625,-3.078125 0.328125,-2.125 0.328125,-2 c 0,0.078125 0.09375,0.078125 0.125,0.078125 0.09375,0 0.09375,-0.03125 0.125,-0.109375 C 0.734375,-2.59375 1.03125,-2.875 1.3125,-2.875 c 0.125,0 0.171875,0.078125 0.171875,0.234375 0,0.171875 -0.046875,0.3125 -0.125,0.46875 -0.296875,0.78125 -0.375,1.078125 -0.375,1.328125 0,0.6875 0.546875,0.90625 1.078125,0.90625 1.171875,0 1.65625,-2.015625 1.65625,-2.59375 z m 0,0"
               id="path4922" />
          </symbol>
        </g>
      </defs>
      <g
         id="textext-82394580-4">
        <g
           style="fill:#000000;fill-opacity:1"
           id="g4925">
          <use
             height="1052.3622"
             width="744.09448"
             xlink:href="#textext-82394580-1"
             x="223.43201"
             y="134.765"
             id="use4927" />
        </g>
        <g
           style="fill:#000000;fill-opacity:1"
           id="g4929">
          <use
             height="1052.3622"
             width="744.09448"
             xlink:href="#textext-82394580-3"
             x="229.541"
             y="136.259"
             id="use4931" />
        </g>
      </g>
    </g>
    <path
       inkscape:connector-curvature="0"
       id="path3087"
       d="m -291.42857,466.6479 2.85714,-377.14286"
       style="fill:none;stroke:#000000;stroke-width:2.62811279;stroke-linecap:butt;stroke-linejoin:miter;stroke-miterlimit:4;stroke-opacity:1;stroke-dasharray:2.62811277, 2.62811277;stroke-dashoffset:0" />
    <path
       sodipodi:type="arc"
       style="fill:#000000;fill-opacity:1;stroke:#000000;stroke-width:3;stroke-miterlimit:4;stroke-opacity:1;stroke-dasharray:none;stroke-dashoffset:0"
       id="path3865"
       sodipodi:cx="-588.91895"
       sodipodi:cy="275.0498"
       sodipodi:rx="8.0812206"
       sodipodi:ry="6.5659914"
       d="m -580.83772,275.0498 a 8.0812206,6.5659914 0 1 1 -16.16245,0 8.0812206,6.5659914 0 1 1 16.16245,0 z"
       transform="translate(299.00515,-176.05071)" />
    <g
       id="g3941"
       transform="matrix(7,0,0,7,-1756.7963,-838.96012)"
       ns0:preamble="/home/francois/Documents/Mypapers/InkscapeHeader/header.inc"
       ns0:text="$[u,v,z(u,v)]^\\top$">
      <defs
         id="defs3943">
        <g
           id="g3945">
          <symbol
             id="textext-d44c7b35-0"
             overflow="visible"
             style="overflow:visible">
            <path
               id="path3948"
               d=""
               style="stroke:none"
               inkscape:connector-curvature="0" />
          </symbol>
          <symbol
             id="textext-d44c7b35-1"
             overflow="visible"
             style="overflow:visible">
            <path
               id="path3951"
               d="m 2.546875,2.5 0,-0.40625 -0.96875,0 0,-9.171875 0.96875,0 0,-0.40625 -1.375,0 0,9.984375 z m 0,0"
               style="stroke:none"
               inkscape:connector-curvature="0" />
          </symbol>
          <symbol
             id="textext-d44c7b35-2"
             overflow="visible"
             style="overflow:visible">
            <path
               id="path3954"
               d="m 3.296875,2.390625 c 0,-0.03125 0,-0.046875 -0.171875,-0.21875 C 1.890625,0.921875 1.5625,-0.96875 1.5625,-2.5 c 0,-1.734375 0.375,-3.46875 1.609375,-4.703125 0.125,-0.125 0.125,-0.140625 0.125,-0.171875 0,-0.078125 -0.03125,-0.109375 -0.09375,-0.109375 -0.109375,0 -1,0.6875 -1.59375,1.953125 -0.5,1.09375 -0.625,2.203125 -0.625,3.03125 0,0.78125 0.109375,1.984375 0.65625,3.125 C 2.25,1.84375 3.09375,2.5 3.203125,2.5 c 0.0625,0 0.09375,-0.03125 0.09375,-0.109375 z m 0,0"
               style="stroke:none"
               inkscape:connector-curvature="0" />
          </symbol>
          <symbol
             id="textext-d44c7b35-3"
             overflow="visible"
             style="overflow:visible">
            <path
               id="path3957"
               d="m 2.875,-2.5 c 0,-0.765625 -0.109375,-1.96875 -0.65625,-3.109375 -0.59375,-1.21875 -1.453125,-1.875 -1.546875,-1.875 -0.0625,0 -0.109375,0.046875 -0.109375,0.109375 0,0.03125 0,0.046875 0.1875,0.234375 0.984375,0.984375 1.546875,2.5625 1.546875,4.640625 0,1.71875 -0.359375,3.46875 -1.59375,4.71875 C 0.5625,2.34375 0.5625,2.359375 0.5625,2.390625 0.5625,2.453125 0.609375,2.5 0.671875,2.5 0.765625,2.5 1.671875,1.8125 2.25,0.546875 2.765625,-0.546875 2.875,-1.65625 2.875,-2.5 z m 0,0"
               style="stroke:none"
               inkscape:connector-curvature="0" />
          </symbol>
          <symbol
             id="textext-d44c7b35-4"
             overflow="visible"
             style="overflow:visible">
            <path
               id="path3960"
               d="m 1.578125,-7.484375 -1.359375,0 0,0.40625 0.96875,0 0,9.171875 -0.96875,0 0,0.40625 1.359375,0 z m 0,0"
               style="stroke:none"
               inkscape:connector-curvature="0" />
          </symbol>
          <symbol
             id="textext-d44c7b35-5"
             overflow="visible"
             style="overflow:visible">
            <path
               id="path3963"
               d=""
               style="stroke:none"
               inkscape:connector-curvature="0" />
          </symbol>
          <symbol
             id="textext-d44c7b35-6"
             overflow="visible"
             style="overflow:visible">
            <path
               id="path3966"
               d="M 3.484375,-0.5625 C 3.59375,-0.15625 3.953125,0.109375 4.375,0.109375 4.71875,0.109375 4.953125,-0.125 5.109375,-0.4375 5.28125,-0.796875 5.40625,-1.40625 5.40625,-1.421875 c 0,-0.109375 -0.078125,-0.109375 -0.109375,-0.109375 -0.109375,0 -0.109375,0.046875 -0.140625,0.1875 -0.140625,0.5625 -0.328125,1.234375 -0.75,1.234375 -0.203125,0 -0.3125,-0.125 -0.3125,-0.453125 0,-0.21875 0.125,-0.6875 0.203125,-1.046875 L 4.578125,-2.6875 C 4.609375,-2.828125 4.703125,-3.203125 4.75,-3.359375 4.796875,-3.59375 4.890625,-3.96875 4.890625,-4.03125 c 0,-0.171875 -0.140625,-0.265625 -0.28125,-0.265625 -0.046875,0 -0.3125,0.015625 -0.390625,0.34375 -0.1875,0.734375 -0.625,2.484375 -0.75,3 -0.015625,0.046875 -0.40625,0.84375 -1.140625,0.84375 -0.515625,0 -0.609375,-0.453125 -0.609375,-0.8125 0,-0.5625 0.28125,-1.34375 0.53125,-2.03125 0.125,-0.3125 0.171875,-0.453125 0.171875,-0.640625 0,-0.4375 -0.3125,-0.8125 -0.8125,-0.8125 -0.953125,0 -1.3125,1.453125 -1.3125,1.53125 0,0.109375 0.09375,0.109375 0.109375,0.109375 0.109375,0 0.109375,-0.03125 0.15625,-0.1875 0.25,-0.859375 0.640625,-1.234375 1.015625,-1.234375 0.09375,0 0.25,0.015625 0.25,0.328125 0,0.234375 -0.109375,0.53125 -0.171875,0.671875 -0.375,1 -0.578125,1.609375 -0.578125,2.09375 0,0.953125 0.6875,1.203125 1.21875,1.203125 0.65625,0 1.015625,-0.453125 1.1875,-0.671875 z m 0,0"
               style="stroke:none"
               inkscape:connector-curvature="0" />
          </symbol>
          <symbol
             id="textext-d44c7b35-7"
             overflow="visible"
             style="overflow:visible">
            <path
               id="path3969"
               d="m 2.03125,-0.015625 c 0,-0.65625 -0.25,-1.046875 -0.640625,-1.046875 -0.328125,0 -0.53125,0.25 -0.53125,0.53125 C 0.859375,-0.265625 1.0625,0 1.390625,0 1.5,0 1.640625,-0.046875 1.734375,-0.125 1.765625,-0.15625 1.78125,-0.15625 1.78125,-0.15625 c 0.015625,0 0.015625,0 0.015625,0.140625 0,0.75 -0.34375,1.34375 -0.671875,1.671875 -0.109375,0.109375 -0.109375,0.125 -0.109375,0.15625 0,0.078125 0.046875,0.109375 0.09375,0.109375 0.109375,0 0.921875,-0.765625 0.921875,-1.9375 z m 0,0"
               style="stroke:none"
               inkscape:connector-curvature="0" />
          </symbol>
          <symbol
             id="textext-d44c7b35-8"
             overflow="visible"
             style="overflow:visible">
            <path
               id="path3972"
               d="m 4.671875,-3.703125 c 0,-0.546875 -0.265625,-0.703125 -0.4375,-0.703125 -0.25,0 -0.5,0.265625 -0.5,0.484375 0,0.125 0.046875,0.1875 0.15625,0.296875 0.21875,0.203125 0.34375,0.453125 0.34375,0.8125 0,0.421875 -0.609375,2.703125 -1.765625,2.703125 -0.515625,0 -0.75,-0.34375 -0.75,-0.875 0,-0.546875 0.28125,-1.28125 0.578125,-2.109375 0.078125,-0.171875 0.125,-0.3125 0.125,-0.5 0,-0.4375 -0.3125,-0.8125 -0.8125,-0.8125 -0.9375,0 -1.3125,1.453125 -1.3125,1.53125 0,0.109375 0.09375,0.109375 0.109375,0.109375 0.109375,0 0.109375,-0.03125 0.15625,-0.1875 0.296875,-1 0.71875,-1.234375 1.015625,-1.234375 0.078125,0 0.25,0 0.25,0.3125 0,0.25 -0.109375,0.53125 -0.171875,0.703125 -0.4375,1.15625 -0.5625,1.609375 -0.5625,2.046875 0,1.078125 0.875,1.234375 1.328125,1.234375 1.671875,0 2.25,-3.296875 2.25,-3.8125 z m 0,0"
               style="stroke:none"
               inkscape:connector-curvature="0" />
          </symbol>
          <symbol
             id="textext-d44c7b35-9"
             overflow="visible"
             style="overflow:visible">
            <path
               id="path3975"
               d="m 1.328125,-0.828125 c 0.53125,-0.578125 0.828125,-0.828125 1.1875,-1.140625 0,0 0.609375,-0.53125 0.96875,-0.890625 C 4.4375,-3.78125 4.65625,-4.265625 4.65625,-4.3125 c 0,-0.09375 -0.09375,-0.09375 -0.109375,-0.09375 -0.078125,0 -0.09375,0.015625 -0.15625,0.109375 -0.296875,0.484375 -0.5,0.640625 -0.734375,0.640625 -0.25,0 -0.359375,-0.15625 -0.515625,-0.328125 -0.1875,-0.21875 -0.359375,-0.421875 -0.6875,-0.421875 -0.75,0 -1.203125,0.921875 -1.203125,1.140625 0,0.046875 0.03125,0.109375 0.109375,0.109375 0.09375,0 0.109375,-0.046875 0.140625,-0.109375 0.1875,-0.46875 0.765625,-0.46875 0.84375,-0.46875 0.203125,0 0.390625,0.0625 0.625,0.140625 0.40625,0.15625 0.515625,0.15625 0.765625,0.15625 -0.359375,0.421875 -1.1875,1.140625 -1.375,1.296875 l -0.90625,0.84375 C 0.78125,-0.625 0.421875,-0.0625 0.421875,0.015625 c 0,0.09375 0.109375,0.09375 0.125,0.09375 0.078125,0 0.09375,-0.015625 0.15625,-0.125 0.234375,-0.359375 0.53125,-0.625 0.859375,-0.625 0.21875,0 0.328125,0.09375 0.578125,0.375 0.15625,0.21875 0.34375,0.375 0.625,0.375 1,0 1.578125,-1.265625 1.578125,-1.53125 0,-0.046875 -0.046875,-0.109375 -0.125,-0.109375 -0.09375,0 -0.109375,0.0625 -0.140625,0.140625 C 3.84375,-0.75 3.203125,-0.5625 2.875,-0.5625 c -0.1875,0 -0.375,-0.0625 -0.578125,-0.125 -0.34375,-0.125 -0.5,-0.171875 -0.703125,-0.171875 -0.015625,0 -0.171875,0 -0.265625,0.03125 z m 0,0"
               style="stroke:none"
               inkscape:connector-curvature="0" />
          </symbol>
          <symbol
             id="textext-d44c7b35-10"
             overflow="visible"
             style="overflow:visible">
            <path
               id="path3978"
               d=""
               style="stroke:none"
               inkscape:connector-curvature="0" />
          </symbol>
          <symbol
             id="textext-d44c7b35-11"
             overflow="visible"
             style="overflow:visible">
            <path
               id="path3981"
               d="m 3.28125,-4.5 2.125,0 c 0.109375,0 0.28125,0 0.28125,-0.15625 0,-0.1875 -0.15625,-0.1875 -0.28125,-0.1875 l -4.59375,0 c -0.109375,0 -0.28125,0 -0.28125,0.171875 C 0.53125,-4.5 0.703125,-4.5 0.8125,-4.5 l 2.125,0 0,4.234375 C 2.9375,-0.15625 2.9375,0 3.109375,0 3.28125,0 3.28125,-0.171875 3.28125,-0.265625 z m 0,0"
               style="stroke:none"
               inkscape:connector-curvature="0" />
          </symbol>
        </g>
      </defs>
      <g
         id="textext-d44c7b35-12">
        <g
           id="g3984"
           style="fill:#000000;fill-opacity:1">
          <use
             id="use3986"
             y="134.765"
             x="223.43201"
             xlink:href="#textext-d44c7b35-1"
             width="744.09448"
             height="1052.3622" />
        </g>
        <g
           id="g3988"
           style="fill:#000000;fill-opacity:1">
          <use
             id="use3990"
             y="134.765"
             x="226.2"
             xlink:href="#textext-d44c7b35-6"
             width="744.09448"
             height="1052.3622" />
          <use
             id="use3992"
             y="134.765"
             x="231.90359"
             xlink:href="#textext-d44c7b35-7"
             width="744.09448"
             height="1052.3622" />
        </g>
        <g
           id="g3994"
           style="fill:#000000;fill-opacity:1">
          <use
             id="use3996"
             y="134.765"
             x="236.33495"
             xlink:href="#textext-d44c7b35-8"
             width="744.09448"
             height="1052.3622" />
        </g>
        <g
           id="g3998"
           style="fill:#000000;fill-opacity:1">
          <use
             id="use4000"
             y="134.765"
             x="241.51251"
             xlink:href="#textext-d44c7b35-7"
             width="744.09448"
             height="1052.3622" />
        </g>
        <g
           id="g4002"
           style="fill:#000000;fill-opacity:1">
          <use
             id="use4004"
             y="134.765"
             x="245.94388"
             xlink:href="#textext-d44c7b35-9"
             width="744.09448"
             height="1052.3622" />
        </g>
        <g
           id="g4006"
           style="fill:#000000;fill-opacity:1">
          <use
             id="use4008"
             y="134.765"
             x="251.01601"
             xlink:href="#textext-d44c7b35-2"
             width="744.09448"
             height="1052.3622" />
        </g>
        <g
           id="g4010"
           style="fill:#000000;fill-opacity:1">
          <use
             id="use4012"
             y="134.765"
             x="254.89101"
             xlink:href="#textext-d44c7b35-6"
             width="744.09448"
             height="1052.3622" />
          <use
             id="use4014"
             y="134.765"
             x="260.59457"
             xlink:href="#textext-d44c7b35-7"
             width="744.09448"
             height="1052.3622" />
        </g>
        <g
           id="g4016"
           style="fill:#000000;fill-opacity:1">
          <use
             id="use4018"
             y="134.765"
             x="265.02594"
             xlink:href="#textext-d44c7b35-8"
             width="744.09448"
             height="1052.3622" />
        </g>
        <g
           id="g4021"
           style="fill:#000000;fill-opacity:1">
          <use
             id="use4023"
             y="134.765"
             x="270.20801"
             xlink:href="#textext-d44c7b35-3"
             width="744.09448"
             height="1052.3622" />
          <use
             id="use4025"
             y="134.765"
             x="274.08246"
             xlink:href="#textext-d44c7b35-4"
             width="744.09448"
             height="1052.3622" />
        </g>
        <g
           id="g4027"
           style="fill:#000000;fill-opacity:1">
          <use
             id="use4029"
             y="131.149"
             x="276.85001"
             xlink:href="#textext-d44c7b35-11"
             width="744.09448"
             height="1052.3622" />
        </g>
      </g>
    </g>
    <path
       inkscape:connector-curvature="0"
       id="path4596"
       d="m -920,452.36218 0,160 0,0"
       style="fill:none;stroke:#000000;stroke-width:4.29999999999999982;stroke-linecap:butt;stroke-linejoin:miter;stroke-opacity:1;stroke-miterlimit:4;stroke-dasharray:none;marker-start:url(#Arrow2Lstart)" />
    <path
       inkscape:connector-curvature="0"
       id="path4598"
       d="m -1000,692.36218 80,-80 160,0"
       style="fill:none;stroke:#000000;stroke-width:4.29999999999999982;stroke-linecap:butt;stroke-linejoin:miter;stroke-opacity:1;stroke-miterlimit:4;stroke-dasharray:none;marker-end:url(#Arrow1Lend);marker-start:url(#Arrow2Lstart)" />
    <g
       id="g6043"
       transform="matrix(7,0,0,7,-2573.9392,-196.10298)"
       ns0:preamble="/home/francois/Documents/Mypapers/InkscapeHeader/header.inc"
       ns0:text="$u$">
      <defs
         id="defs6045">
        <g
           id="g6047">
          <symbol
             id="textext-862500b9-0"
             overflow="visible">
            <path
               id="path6050"
               d=""
               style="stroke:none;" />
          </symbol>
          <symbol
             id="textext-862500b9-1"
             overflow="visible">
            <path
               id="path6053"
               d="M 3.484375 -0.5625 C 3.59375 -0.15625 3.953125 0.109375 4.375 0.109375 C 4.71875 0.109375 4.953125 -0.125 5.109375 -0.4375 C 5.28125 -0.796875 5.40625 -1.40625 5.40625 -1.421875 C 5.40625 -1.53125 5.328125 -1.53125 5.296875 -1.53125 C 5.1875 -1.53125 5.1875 -1.484375 5.15625 -1.34375 C 5.015625 -0.78125 4.828125 -0.109375 4.40625 -0.109375 C 4.203125 -0.109375 4.09375 -0.234375 4.09375 -0.5625 C 4.09375 -0.78125 4.21875 -1.25 4.296875 -1.609375 L 4.578125 -2.6875 C 4.609375 -2.828125 4.703125 -3.203125 4.75 -3.359375 C 4.796875 -3.59375 4.890625 -3.96875 4.890625 -4.03125 C 4.890625 -4.203125 4.75 -4.296875 4.609375 -4.296875 C 4.5625 -4.296875 4.296875 -4.28125 4.21875 -3.953125 C 4.03125 -3.21875 3.59375 -1.46875 3.46875 -0.953125 C 3.453125 -0.90625 3.0625 -0.109375 2.328125 -0.109375 C 1.8125 -0.109375 1.71875 -0.5625 1.71875 -0.921875 C 1.71875 -1.484375 2 -2.265625 2.25 -2.953125 C 2.375 -3.265625 2.421875 -3.40625 2.421875 -3.59375 C 2.421875 -4.03125 2.109375 -4.40625 1.609375 -4.40625 C 0.65625 -4.40625 0.296875 -2.953125 0.296875 -2.875 C 0.296875 -2.765625 0.390625 -2.765625 0.40625 -2.765625 C 0.515625 -2.765625 0.515625 -2.796875 0.5625 -2.953125 C 0.8125 -3.8125 1.203125 -4.1875 1.578125 -4.1875 C 1.671875 -4.1875 1.828125 -4.171875 1.828125 -3.859375 C 1.828125 -3.625 1.71875 -3.328125 1.65625 -3.1875 C 1.28125 -2.1875 1.078125 -1.578125 1.078125 -1.09375 C 1.078125 -0.140625 1.765625 0.109375 2.296875 0.109375 C 2.953125 0.109375 3.3125 -0.34375 3.484375 -0.5625 Z M 3.484375 -0.5625 "
               style="stroke:none;" />
          </symbol>
        </g>
      </defs>
      <g
         id="textext-862500b9-2">
        <g
           id="g6056"
           style="fill:rgb(0%,0%,0%);fill-opacity:1;">
          <use
             id="use6058"
             y="134.765"
             x="223.432"
             xlink:href="#textext-862500b9-1" />
        </g>
      </g>
    </g>
    <g
       ns0:text="$v$"
       ns0:preamble="/home/francois/Documents/Mypapers/InkscapeHeader/header.inc"
       transform="matrix(7,0,0,7,-2293.9392,-316.10298)"
       id="g6424">
      <defs
         id="defs6426">
        <g
           id="g6428">
          <symbol
             overflow="visible"
             id="textext-169c1880-0">
            <path
               style="stroke:none;"
               d=""
               id="path6431" />
          </symbol>
          <symbol
             overflow="visible"
             id="textext-169c1880-1">
            <path
               style="stroke:none;"
               d="M 4.671875 -3.703125 C 4.671875 -4.25 4.40625 -4.40625 4.234375 -4.40625 C 3.984375 -4.40625 3.734375 -4.140625 3.734375 -3.921875 C 3.734375 -3.796875 3.78125 -3.734375 3.890625 -3.625 C 4.109375 -3.421875 4.234375 -3.171875 4.234375 -2.8125 C 4.234375 -2.390625 3.625 -0.109375 2.46875 -0.109375 C 1.953125 -0.109375 1.71875 -0.453125 1.71875 -0.984375 C 1.71875 -1.53125 2 -2.265625 2.296875 -3.09375 C 2.375 -3.265625 2.421875 -3.40625 2.421875 -3.59375 C 2.421875 -4.03125 2.109375 -4.40625 1.609375 -4.40625 C 0.671875 -4.40625 0.296875 -2.953125 0.296875 -2.875 C 0.296875 -2.765625 0.390625 -2.765625 0.40625 -2.765625 C 0.515625 -2.765625 0.515625 -2.796875 0.5625 -2.953125 C 0.859375 -3.953125 1.28125 -4.1875 1.578125 -4.1875 C 1.65625 -4.1875 1.828125 -4.1875 1.828125 -3.875 C 1.828125 -3.625 1.71875 -3.34375 1.65625 -3.171875 C 1.21875 -2.015625 1.09375 -1.5625 1.09375 -1.125 C 1.09375 -0.046875 1.96875 0.109375 2.421875 0.109375 C 4.09375 0.109375 4.671875 -3.1875 4.671875 -3.703125 Z M 4.671875 -3.703125 "
               id="path6434" />
          </symbol>
        </g>
      </defs>
      <g
         id="textext-169c1880-2">
        <g
           style="fill:rgb(0%,0%,0%);fill-opacity:1;"
           id="g6437">
          <use
             xlink:href="#textext-169c1880-1"
             x="223.432"
             y="134.765"
             id="use6439" />
        </g>
      </g>
    </g>
    <g
       id="g6825"
       transform="matrix(7,0,0,7,-2473.9392,-476.10298)"
       ns0:preamble="/home/francois/Documents/Mypapers/InkscapeHeader/header.inc"
       ns0:text="$z$">
      <defs
         id="defs6827">
        <g
           id="g6829">
          <symbol
             id="textext-f7a32bd7-0"
             overflow="visible">
            <path
               id="path6832"
               d=""
               style="stroke:none;" />
          </symbol>
          <symbol
             id="textext-f7a32bd7-1"
             overflow="visible">
            <path
               id="path6835"
               d="M 1.328125 -0.828125 C 1.859375 -1.40625 2.15625 -1.65625 2.515625 -1.96875 C 2.515625 -1.96875 3.125 -2.5 3.484375 -2.859375 C 4.4375 -3.78125 4.65625 -4.265625 4.65625 -4.3125 C 4.65625 -4.40625 4.5625 -4.40625 4.546875 -4.40625 C 4.46875 -4.40625 4.453125 -4.390625 4.390625 -4.296875 C 4.09375 -3.8125 3.890625 -3.65625 3.65625 -3.65625 C 3.40625 -3.65625 3.296875 -3.8125 3.140625 -3.984375 C 2.953125 -4.203125 2.78125 -4.40625 2.453125 -4.40625 C 1.703125 -4.40625 1.25 -3.484375 1.25 -3.265625 C 1.25 -3.21875 1.28125 -3.15625 1.359375 -3.15625 C 1.453125 -3.15625 1.46875 -3.203125 1.5 -3.265625 C 1.6875 -3.734375 2.265625 -3.734375 2.34375 -3.734375 C 2.546875 -3.734375 2.734375 -3.671875 2.96875 -3.59375 C 3.375 -3.4375 3.484375 -3.4375 3.734375 -3.4375 C 3.375 -3.015625 2.546875 -2.296875 2.359375 -2.140625 L 1.453125 -1.296875 C 0.78125 -0.625 0.421875 -0.0625 0.421875 0.015625 C 0.421875 0.109375 0.53125 0.109375 0.546875 0.109375 C 0.625 0.109375 0.640625 0.09375 0.703125 -0.015625 C 0.9375 -0.375 1.234375 -0.640625 1.5625 -0.640625 C 1.78125 -0.640625 1.890625 -0.546875 2.140625 -0.265625 C 2.296875 -0.046875 2.484375 0.109375 2.765625 0.109375 C 3.765625 0.109375 4.34375 -1.15625 4.34375 -1.421875 C 4.34375 -1.46875 4.296875 -1.53125 4.21875 -1.53125 C 4.125 -1.53125 4.109375 -1.46875 4.078125 -1.390625 C 3.84375 -0.75 3.203125 -0.5625 2.875 -0.5625 C 2.6875 -0.5625 2.5 -0.625 2.296875 -0.6875 C 1.953125 -0.8125 1.796875 -0.859375 1.59375 -0.859375 C 1.578125 -0.859375 1.421875 -0.859375 1.328125 -0.828125 Z M 1.328125 -0.828125 "
               style="stroke:none;" />
          </symbol>
        </g>
      </defs>
      <g
         id="textext-f7a32bd7-2">
        <g
           id="g6838"
           style="fill:rgb(0%,0%,0%);fill-opacity:1;">
          <use
             id="use6840"
             y="134.765"
             x="223.432"
             xlink:href="#textext-f7a32bd7-1" />
        </g>
      </g>
    </g>
  </g>
</svg>
