<?xml version="1.0" encoding="UTF-8" standalone="no"?>
<!-- Created with Inkscape (http://www.inkscape.org/) -->

<svg
   xmlns:ns0="http://www.iki.fi/pav/software/textext/"
   xmlns:dc="http://purl.org/dc/elements/1.1/"
   xmlns:cc="http://creativecommons.org/ns#"
   xmlns:rdf="http://www.w3.org/1999/02/22-rdf-syntax-ns#"
   xmlns:svg="http://www.w3.org/2000/svg"
   xmlns="http://www.w3.org/2000/svg"
   xmlns:xlink="http://www.w3.org/1999/xlink"
   xmlns:sodipodi="http://sodipodi.sourceforge.net/DTD/sodipodi-0.dtd"
   xmlns:inkscape="http://www.inkscape.org/namespaces/inkscape"
   width="744.09448819"
   height="1052.3622047"
   id="svg2"
   version="1.1"
   inkscape:version="0.48.4 r9939"
   sodipodi:docname="universe.svg"
   inkscape:export-filename="/home/francois/Documents/Courses/VisionAndImageProcessing/lectures/Francois/FIGURES/universe.png"
   inkscape:export-xdpi="90"
   inkscape:export-ydpi="90">
  <sodipodi:namedview
     id="base"
     pagecolor="#ffffff"
     bordercolor="#ffffff"
     borderopacity="0.0"
     inkscape:pageopacity="0.0"
     inkscape:pageshadow="0"
     inkscape:zoom="0.7"
     inkscape:cx="-1443.5267"
     inkscape:cy="974.27865"
     inkscape:document-units="px"
     inkscape:current-layer="layer1"
     showgrid="true"
     inkscape:window-width="1920"
     inkscape:window-height="1056"
     inkscape:window-x="1680"
     inkscape:window-y="51"
     inkscape:window-maximized="1">
    <inkscape:grid
       type="xygrid"
       id="grid2985" />
  </sodipodi:namedview>
  <defs
     id="defs4" />
  <metadata
     id="metadata7">
    <rdf:RDF>
      <cc:Work
         rdf:about="">
        <dc:format>image/svg+xml</dc:format>
        <dc:type
           rdf:resource="http://purl.org/dc/dcmitype/StillImage" />
        <dc:title></dc:title>
      </cc:Work>
    </rdf:RDF>
  </metadata>
  <g
     inkscape:label="Layer 1"
     inkscape:groupmode="layer"
     id="layer1">
    <rect
       style="fill:#ffff00;fill-opacity:1;stroke:#000000;stroke-width:4;stroke-miterlimit:3;stroke-opacity:1;stroke-dasharray:none;stroke-dashoffset:0"
       id="rect2987"
       width="960"
       height="880"
       x="-1778.5714"
       y="-287.63782" />
    <path
       style="opacity:0.53669727;fill:#ff3400;fill-opacity:1;stroke:none"
       d="m -1048.8933,332.5018 c -6.3116,-3.33326 -11.588,-10.70143 -19.3932,-27.08138 -8.7229,-18.30572 -14.1944,-24.65632 -26.4002,-30.64198 -18.5396,-9.09168 -38.9773,-12.97528 -91.0621,-17.30377 -34.4631,-2.86404 -48.8095,-2.31563 -81.4285,3.11276 -18.2234,3.03269 -28.5954,3.94494 -45.7143,4.0207 -25.9777,0.115 -30.5749,-1.30817 -43.3965,-13.43429 -15.2742,-14.44571 -20.4542,-32.97522 -17.9007,-64.03254 0.6916,-8.41077 2.2485,-30.07803 3.4598,-48.14946 3.9362,-58.721383 10.1542,-83.760804 27.1482,-109.323458 7.7038,-11.588179 25.0085,-28.1705215 36.3094,-34.7938325 39.3918,-23.0869085 107.5326,-29.3837085 187.9512,-17.3683385 72.0641,10.76711 127.60534,32.3204795 173.62754,67.377908 43.7859,33.354016 62.1306,73.611151 47.7187,104.717771 -4.4767,9.66268 -15.4903,23.51917 -26.802,33.7206 -12.3216,11.11214 -24.4905,25.40088 -31.184,36.6162 -3.1243,5.23504 -11.4572,22.27075 -18.5175,37.85714 -16.1637,35.68304 -25.3808,52.39659 -34.59924,62.73943 -12.2504,13.74461 -27.673,18.37976 -39.8166,11.96654 l 0,0 z"
       id="path3761"
       inkscape:connector-curvature="0" />
    <path
       style="opacity:0.69266058;fill:#1d57ee;fill-opacity:1;stroke:none"
       d="m -1226.4771,558.40572 c -30.0887,-6.24518 -55.127,-18.91365 -73.6635,-37.27101 -23.3874,-23.16144 -28.7392,-41.89254 -19.761,-69.16304 1.5743,-4.78176 10.1469,-23.47981 19.0504,-41.55124 8.9034,-18.07143 17.5364,-37.03572 19.1844,-42.14286 3.8107,-11.80938 6.5988,-29.87157 9.4822,-61.42857 3.5504,-38.85671 7.1316,-54.01133 19.2425,-81.42857 15.889,-35.97021 31.6478,-55.6106 52.1934,-65.04894 15.9041,-7.3061 23.0781,-8.52526 50,-8.49704 20.4289,0.0214 26.1562,0.52382 36.064,3.16358 24.9758,6.6544 46.8482,17.60595 60.9112,30.49828 9.4377,8.65209 19.6346,25.7783 25.056,42.08284 12.9295,38.88493 11.4168,76.84949 -5.1071,128.17011 -11.5495,35.87114 -21.7948,55.53724 -50.9542,97.80719 -18.4268,26.71177 -22.729,33.80852 -33.149,54.68112 -15.3899,30.82823 -26.5391,43.36683 -43.3161,48.71433 -13.8298,4.4081 -47.311,5.13375 -65.2332,1.41382 l 0,0 z"
       id="path3778"
       inkscape:connector-curvature="0" />
    <path
       style="opacity:0.73853215;fill:#70e117;fill-opacity:1;stroke:none"
       d="m -1486.1801,157.64336 c -9.2581,-3.30227 -16.5251,-9.3882 -31.8798,-26.69844 -23.7121,-26.73209 -32.3055,-32.073989 -49.7134,-30.90354 -8.5015,0.5716 -13.2253,2.07851 -29.5638,9.43101 -24.6542,11.09461 -31.4101,12.65454 -41.7669,9.64374 -22.4089,-6.51445 -44.8245,-31.363609 -64.5454,-71.552849 -10.7256,-21.85765 -14.1146,-34.7814 -14.048,-53.5714297 0.044,-12.4991203 0.7029,-16.9054303 3.9508,-26.4285703 9.573,-28.06913 22.456,-46.5225 66.1882,-94.806921 8.9596,-9.89219 25.6739,-30.21458 37.1428,-45.16087 33.769,-44.00743 46.329,-57.52096 65.6617,-70.64682 14.2251,-9.65809 24.1203,-13.14508 39.7195,-13.99689 10.7363,-0.58627 14.3889,-0.18276 22.1429,2.44619 26.2981,8.91626 51.5162,35.24149 60.037,62.67293 5.8887,18.95801 3.5669,24.79132 -18.417,46.26979 -17.8398,17.42963 -19.44,21.10782 -19.4259,44.65116 0.016,26.082001 3.3366,39.002231 23.8668,92.8571413 5.0919,13.35714 11.9087,32.7104597 15.1483,43.0073597 3.2396,10.2969 9.103,25.93213 13.0298,34.74496 12.8655,28.87428 14.3705,39.341499 7.5848,52.753149 -4.8671,9.6197 -17.5454,21.27079 -29.6082,27.20927 -18.3276,9.02265 -42.852,12.5926 -55.5042,8.07963 z"
       id="path3804"
       inkscape:connector-curvature="0" />
    <g
       transform="matrix(7,0,0,5.6534772,-2455.7718,-993.80796)"
       ns0:text="$\\Omega$"
       ns0:preamble="/home/francois/Documents/Mypapers/InkscapeHeader/header.inc"
       id="g3827">
      <defs
         id="defs3829">
        <g
           id="g3831">
          <symbol
             style="overflow:visible"
             overflow="visible"
             id="textext-01dd5d41-0">
            <path
               inkscape:connector-curvature="0"
               style="stroke:none"
               d=""
               id="path3834" />
          </symbol>
          <symbol
             style="overflow:visible"
             overflow="visible"
             id="textext-01dd5d41-1">
            <path
               inkscape:connector-curvature="0"
               style="stroke:none"
               d="m 6.75,-1.609375 -0.25,0 c -0.046875,0.25 -0.09375,0.484375 -0.1875,0.71875 -0.046875,0.15625 -0.078125,0.25 -0.65625,0.25 l -0.796875,0 C 5,-1.203125 5.296875,-1.6875 5.75,-2.34375 c 0.46875,-0.703125 0.875,-1.390625 0.875,-2.1875 0,-1.375 -1.34375,-2.5 -3.03125,-2.5 -1.703125,0 -3.03125,1.140625 -3.03125,2.5 0,0.796875 0.40625,1.484375 0.875,2.1875 0.4375,0.65625 0.75,1.140625 0.890625,1.703125 l -0.796875,0 C 0.953125,-0.640625 0.921875,-0.734375 0.875,-0.875 0.78125,-1.109375 0.734375,-1.359375 0.6875,-1.609375 l -0.25,0 L 0.765625,0 2.359375,0 c 0.21875,0 0.25,0 0.25,-0.203125 0,-0.703125 -0.3125,-1.578125 -0.53125,-2.21875 -0.21875,-0.578125 -0.5,-1.359375 -0.5,-2.109375 0,-1.59375 1.109375,-2.28125 2.015625,-2.28125 0.953125,0 2.015625,0.71875 2.015625,2.28125 0,0.75 -0.28125,1.5 -0.5625,2.3125 -0.15625,0.421875 -0.46875,1.328125 -0.46875,2.015625 C 4.578125,0 4.609375,0 4.828125,0 l 1.59375,0 z m 0,0"
               id="path3837" />
          </symbol>
        </g>
      </defs>
      <g
         id="textext-01dd5d41-2">
        <g
           style="fill:#000000;fill-opacity:1"
           id="g3840">
          <use
             height="1052.3622"
             width="744.09448"
             xlink:href="#textext-01dd5d41-1"
             x="223.43201"
             y="134.765"
             id="use3842" />
        </g>
      </g>
    </g>
    <g
       id="g3902"
       transform="matrix(7,0,0,5.6534772,-3132.9147,-895.23653)"
       ns0:preamble="/home/francois/Documents/Mypapers/InkscapeHeader/header.inc"
       ns0:text="$A$">
      <defs
         id="defs3904">
        <g
           id="g3906">
          <symbol
             id="textext-ee4aad65-0"
             overflow="visible"
             style="overflow:visible">
            <path
               id="path3909"
               d=""
               style="stroke:none"
               inkscape:connector-curvature="0" />
          </symbol>
          <symbol
             id="textext-ee4aad65-1"
             overflow="visible"
             style="overflow:visible">
            <path
               id="path3912"
               d="M 1.78125,-1.140625 C 1.390625,-0.484375 1,-0.34375 0.5625,-0.3125 0.4375,-0.296875 0.34375,-0.296875 0.34375,-0.109375 0.34375,-0.046875 0.40625,0 0.484375,0 0.75,0 1.0625,-0.03125 1.328125,-0.03125 c 0.34375,0 0.6875,0.03125 1,0.03125 0.0625,0 0.1875,0 0.1875,-0.1875 0,-0.109375 -0.078125,-0.125 -0.15625,-0.125 -0.21875,-0.015625 -0.46875,-0.09375 -0.46875,-0.34375 0,-0.125 0.0625,-0.234375 0.140625,-0.375 l 0.765625,-1.265625 2.5,0 c 0.015625,0.203125 0.15625,1.5625 0.15625,1.65625 0,0.296875 -0.515625,0.328125 -0.71875,0.328125 C 4.59375,-0.3125 4.5,-0.3125 4.5,-0.109375 4.5,0 4.609375,0 4.640625,0 5.046875,0 5.46875,-0.03125 5.875,-0.03125 6.125,-0.03125 6.765625,0 7.015625,0 7.0625,0 7.1875,0 7.1875,-0.203125 7.1875,-0.3125 7.09375,-0.3125 6.953125,-0.3125 6.34375,-0.3125 6.34375,-0.375 6.3125,-0.671875 l -0.609375,-6.21875 c -0.015625,-0.203125 -0.015625,-0.25 -0.1875,-0.25 -0.15625,0 -0.203125,0.078125 -0.265625,0.171875 z M 2.984375,-2.609375 4.9375,-5.90625 5.265625,-2.609375 z m 0,0"
               style="stroke:none"
               inkscape:connector-curvature="0" />
          </symbol>
        </g>
      </defs>
      <g
         id="textext-ee4aad65-2">
        <g
           id="g3915"
           style="fill:#000000;fill-opacity:1">
          <use
             id="use3917"
             y="134.765"
             x="223.43201"
             xlink:href="#textext-ee4aad65-1"
             width="744.09448"
             height="1052.3622" />
        </g>
      </g>
    </g>
    <g
       ns0:text="$B$"
       ns0:preamble="/home/francois/Documents/Mypapers/InkscapeHeader/header.inc"
       transform="matrix(7,0,0,5.6534772,-2794.3433,-708.09367)"
       id="g3997">
      <defs
         id="defs3999">
        <g
           id="g4001">
          <symbol
             style="overflow:visible"
             overflow="visible"
             id="textext-25aeb44f-0">
            <path
               inkscape:connector-curvature="0"
               style="stroke:none"
               d=""
               id="path4004" />
          </symbol>
          <symbol
             style="overflow:visible"
             overflow="visible"
             id="textext-25aeb44f-1">
            <path
               inkscape:connector-curvature="0"
               style="stroke:none"
               d="M 1.59375,-0.78125 C 1.5,-0.390625 1.46875,-0.3125 0.6875,-0.3125 c -0.171875,0 -0.265625,0 -0.265625,0.203125 C 0.421875,0 0.515625,0 0.6875,0 L 4.25,0 C 5.828125,0 7,-1.171875 7,-2.15625 7,-2.875 6.421875,-3.453125 5.453125,-3.5625 6.484375,-3.75 7.53125,-4.484375 7.53125,-5.4375 c 0,-0.734375 -0.65625,-1.375 -1.84375,-1.375 l -3.359375,0 c -0.1875,0 -0.28125,0 -0.28125,0.203125 0,0.109375 0.09375,0.109375 0.28125,0.109375 0.015625,0 0.203125,0 0.375,0.015625 0.171875,0.03125 0.265625,0.03125 0.265625,0.171875 0,0.03125 -0.015625,0.0625 -0.03125,0.1875 z m 1.5,-2.875 0.625,-2.46875 C 3.8125,-6.46875 3.828125,-6.5 4.25,-6.5 l 1.296875,0 c 0.875,0 1.078125,0.59375 1.078125,1.03125 0,0.875 -0.859375,1.8125 -2.0625,1.8125 z m -0.4375,3.34375 c -0.140625,0 -0.15625,0 -0.21875,0 -0.109375,-0.015625 -0.140625,-0.03125 -0.140625,-0.109375 0,-0.03125 0,-0.046875 0.0625,-0.21875 l 0.6875,-2.78125 1.875,0 c 0.953125,0 1.15625,0.734375 1.15625,1.15625 C 6.078125,-1.28125 5.1875,-0.3125 4,-0.3125 z m 0,0"
               id="path4007" />
          </symbol>
        </g>
      </defs>
      <g
         id="textext-25aeb44f-2">
        <g
           style="fill:#000000;fill-opacity:1"
           id="g4010">
          <use
             height="1052.3622"
             width="744.09448"
             xlink:href="#textext-25aeb44f-1"
             x="223.43201"
             y="134.765"
             id="use4012" />
        </g>
      </g>
    </g>
    <g
       id="g4112"
       transform="matrix(7,0,0,5.6534772,-2772.9147,-358.09367)"
       ns0:preamble="/home/francois/Documents/Mypapers/InkscapeHeader/header.inc"
       ns0:text="$C$">
      <defs
         id="defs4114">
        <g
           id="g4116">
          <symbol
             id="textext-8e483f96-0"
             overflow="visible"
             style="overflow:visible">
            <path
               id="path4119"
               d=""
               style="stroke:none"
               inkscape:connector-curvature="0" />
          </symbol>
          <symbol
             id="textext-8e483f96-1"
             overflow="visible"
             style="overflow:visible">
            <path
               id="path4122"
               d="m 7.578125,-6.921875 c 0,-0.03125 -0.015625,-0.109375 -0.109375,-0.109375 -0.03125,0 -0.046875,0.015625 -0.15625,0.125 L 6.625,-6.140625 C 6.53125,-6.28125 6.078125,-7.03125 4.96875,-7.03125 2.734375,-7.03125 0.5,-4.828125 0.5,-2.515625 0.5,-0.875 1.671875,0.21875 3.203125,0.21875 c 0.859375,0 1.625,-0.390625 2.15625,-0.859375 0.921875,-0.8125 1.09375,-1.71875 1.09375,-1.75 C 6.453125,-2.5 6.34375,-2.5 6.328125,-2.5 c -0.0625,0 -0.109375,0.03125 -0.125,0.109375 -0.09375,0.28125 -0.328125,1 -1.015625,1.578125 -0.6875,0.546875 -1.3125,0.71875 -1.828125,0.71875 -0.890625,0 -1.953125,-0.515625 -1.953125,-2.0625 0,-0.578125 0.203125,-2.1875 1.203125,-3.359375 0.609375,-0.703125 1.546875,-1.203125 2.4375,-1.203125 1.015625,0 1.609375,0.765625 1.609375,1.921875 0,0.40625 -0.03125,0.40625 -0.03125,0.515625 0,0.09375 0.109375,0.09375 0.140625,0.09375 0.125,0 0.125,-0.015625 0.1875,-0.203125 z m 0,0"
               style="stroke:none"
               inkscape:connector-curvature="0" />
          </symbol>
        </g>
      </defs>
      <g
         id="textext-8e483f96-2">
        <g
           id="g4125"
           style="fill:#000000;fill-opacity:1">
          <use
             id="use4127"
             y="134.765"
             x="223.43201"
             xlink:href="#textext-8e483f96-1"
             width="744.09448"
             height="1052.3622" />
        </g>
      </g>
    </g>
  </g>
</svg>
