<?xml version="1.0" encoding="UTF-8" standalone="no"?>
<!-- Created with Inkscape (http://www.inkscape.org/) -->

<svg
   xmlns:ns0="http://www.iki.fi/pav/software/textext/"
   xmlns:dc="http://purl.org/dc/elements/1.1/"
   xmlns:cc="http://creativecommons.org/ns#"
   xmlns:rdf="http://www.w3.org/1999/02/22-rdf-syntax-ns#"
   xmlns:svg="http://www.w3.org/2000/svg"
   xmlns="http://www.w3.org/2000/svg"
   xmlns:sodipodi="http://sodipodi.sourceforge.net/DTD/sodipodi-0.dtd"
   xmlns:inkscape="http://www.inkscape.org/namespaces/inkscape"
   inkscape:version="0.92.3 (2405546, 2018-03-11)"
   version="1.1"
   id="svg2"
   height="1052.3622047"
   width="744.09448819"
   sodipodi:docname="vectops.svg"
   inkscape:export-filename="/home/francois/Dropbox/Courses/VisionAndImageProcessing/201920/Lectures/FIGURES/vectops.png"
   inkscape:export-xdpi="90"
   inkscape:export-ydpi="90">
  <sodipodi:namedview
     id="base"
     pagecolor="#ffffff"
     bordercolor="#ffffff"
     borderopacity="0.0"
     inkscape:pageopacity="0.0"
     inkscape:pageshadow="0"
     inkscape:zoom="0.98994949"
     inkscape:cx="-1247.5752"
     inkscape:cy="1012.0877"
     inkscape:document-units="px"
     inkscape:current-layer="svg2"
     showgrid="true"
     inkscape:window-width="1920"
     inkscape:window-height="1019"
     inkscape:window-x="0"
     inkscape:window-y="387"
     inkscape:window-maximized="1">
    <inkscape:grid
       id="grid2985"
       type="xygrid" />
  </sodipodi:namedview>
  <defs
     id="defs4">
    <marker
       style="overflow:visible"
       id="Arrow1Lstart"
       refX="0.0"
       refY="0.0"
       orient="auto"
       inkscape:stockid="Arrow1Lstart">
      <path
         transform="scale(0.8) translate(12.5,0)"
         style="fill-rule:evenodd;stroke:#000000;stroke-width:1.0pt"
         d="M 0.0,0.0 L 5.0,-5.0 L -12.5,0.0 L 5.0,5.0 L 0.0,0.0 z "
         id="path3763" />
    </marker>
    <marker
       style="overflow:visible;"
       id="Arrow1Lend"
       refX="0.0"
       refY="0.0"
       orient="auto"
       inkscape:stockid="Arrow1Lend">
      <path
         transform="scale(0.8) rotate(180) translate(12.5,0)"
         style="fill-rule:evenodd;stroke:#000000;stroke-width:1.0pt;"
         d="M 0.0,0.0 L 5.0,-5.0 L -12.5,0.0 L 5.0,5.0 L 0.0,0.0 z "
         id="path3766" />
    </marker>
  </defs>
  <metadata
     id="metadata7">
    <rdf:RDF>
      <cc:Work
         rdf:about="">
        <dc:format>image/svg+xml</dc:format>
        <dc:type
           rdf:resource="http://purl.org/dc/dcmitype/StillImage" />
        <dc:title />
      </cc:Work>
    </rdf:RDF>
  </metadata>
  <g
     id="layer1"
     inkscape:groupmode="layer"
     inkscape:label="Layer 1">
    <path
       inkscape:connector-curvature="0"
       id="path2987"
       d="m -1920,-307.63782 0,720"
       style="fill:none;stroke:#000000;stroke-width:2;stroke-linecap:butt;stroke-linejoin:miter;stroke-opacity:1;stroke-miterlimit:4;stroke-dasharray:none;marker-start:url(#Arrow1Lstart)" />
    <path
       inkscape:connector-curvature="0"
       id="path2989"
       d="m -2040,292.36218 840,0"
       style="fill:none;stroke:#000000;stroke-width:2;stroke-linecap:butt;stroke-linejoin:miter;stroke-opacity:1;stroke-miterlimit:4;stroke-dasharray:none;marker-end:url(#Arrow1Lend)" />
    <path
       sodipodi:nodetypes="cc"
       inkscape:connector-curvature="0"
       id="path4389"
       d="m -1760,272.36218 0,40"
       style="fill:none;stroke:#000000;stroke-width:2;stroke-linecap:butt;stroke-linejoin:miter;stroke-miterlimit:4;stroke-opacity:1;stroke-dasharray:none" />
    <path
       inkscape:connector-curvature="0"
       id="path4391"
       d="m -1940,132.36218 40,0"
       style="fill:none;stroke:#000000;stroke-width:2;stroke-linecap:butt;stroke-linejoin:miter;stroke-opacity:1;stroke-miterlimit:4;stroke-dasharray:none" />
  </g>
  <path
     sodipodi:nodetypes="cc"
     inkscape:connector-curvature="0"
     id="path4592"
     d="m -1920,292.36218 320,-160"
     style="fill:none;stroke:#000000;stroke-width:2;stroke-linecap:butt;stroke-linejoin:miter;stroke-miterlimit:4;stroke-opacity:1;stroke-dasharray:none;marker-start:none;marker-end:url(#Arrow1Lend)" />
  <path
     sodipodi:nodetypes="ccc"
     inkscape:connector-curvature="0"
     id="path4962"
     d="m -1920,132.36218 320,0 0,160"
     style="fill:none;stroke:#000000;stroke-width:2;stroke-linecap:butt;stroke-linejoin:miter;stroke-miterlimit:4;stroke-opacity:1;stroke-dasharray:8, 16;stroke-dashoffset:0" />
  <path
     style="fill:none;stroke:#000000;stroke-width:2;stroke-linecap:butt;stroke-linejoin:miter;stroke-opacity:1;stroke-miterlimit:4;stroke-dasharray:none;marker-end:url(#Arrow1Lend)"
     d="M -1920,292.36218 -1760,52.362183"
     id="path5126"
     inkscape:connector-curvature="0" />
  <path
     style="fill:none;stroke:#000000;stroke-width:2;stroke-linecap:butt;stroke-linejoin:miter;stroke-miterlimit:4;stroke-opacity:1;stroke-dasharray:8, 16;stroke-dashoffset:0"
     d="m -1920,54.36218 160,-1.999997 0,239.999997"
     id="path5312"
     inkscape:connector-curvature="0"
     sodipodi:nodetypes="ccc" />
  <path
     inkscape:connector-curvature="0"
     id="path5637"
     d="m -1920,292.36218 480,-400"
     style="fill:none;stroke:#ff0000;stroke-width:2;stroke-linecap:butt;stroke-linejoin:miter;stroke-opacity:1;stroke-miterlimit:4;stroke-dasharray:none;marker-end:url(#Arrow1Lend)" />
  <path
     style="fill:none;stroke:#00ff00;stroke-width:2;stroke-linecap:butt;stroke-linejoin:miter;stroke-miterlimit:4;stroke-opacity:1;stroke-dasharray:none;marker-start:none;marker-end:url(#Arrow1Lend)"
     d="m -1600.2857,133.50504 320,-160.000003"
     id="path6664"
     inkscape:connector-curvature="0"
     sodipodi:nodetypes="cc" />
  <g
     style="font-style:normal;font-variant:normal;font-weight:normal;font-stretch:normal;letter-spacing:normal;word-spacing:normal;text-anchor:start;fill:none;fill-opacity:1;fill-rule:evenodd;stroke:#000000;stroke-linecap:butt;stroke-linejoin:miter;stroke-miterlimit:10.43299961;stroke-dasharray:none;stroke-dashoffset:0;stroke-opacity:1"
     id="content"
     transform="matrix(6.1979545,0,0,-5.3488399,-3286.3991,2288.6309)"
     xml:space="preserve"
     stroke-miterlimit="10.433"
     font-style="normal"
     font-variant="normal"
     font-weight="normal"
     font-stretch="normal"
     font-size-adjust="none"
     letter-spacing="normal"
     word-spacing="normal"
     ns0:text="$y$"
     ns0:preamble="/home/francois/Documents/Mypapers/InkscapeHeader/header.inc">
<path
   style="fill:#000000;stroke-width:0"
   inkscape:connector-curvature="0"
   d="m 228.82,481.65 h -0.75 l -1.36,-2.24 c -0.31,-0.55 -0.7,-1.25 -0.78,-1.6 h -0.02 c 0.02,0.07 0.02,0.14 0.02,0.25 0,0.52 -0.18,1.51 -0.29,2.03 l -0.34,1.56 h -0.79 l 0.97,-4.28 c 0,-0.02 0.03,-0.1 0.03,-0.11 0,-0.06 -0.46,-0.77 -0.54,-0.89 -0.29,-0.44 -0.45,-0.6 -0.7,-0.6 -0.17,0 -0.49,0.03 -0.75,0.15 l -0.08,-0.64 c 0.27,-0.06 0.54,-0.08 0.7,-0.08 0.29,0 0.7,0.04 1.4,1.16 z"
   id="path413" />
</g>  <g
     ns0:preamble="/home/francois/Documents/Mypapers/InkscapeHeader/header.inc"
     ns0:text="\\color{red}{$v+w = \\begin{bmatrix}3\\\\2.5\\end{bmatrix}$}"
     word-spacing="normal"
     letter-spacing="normal"
     font-size-adjust="none"
     font-stretch="normal"
     font-weight="normal"
     font-variant="normal"
     font-style="normal"
     stroke-miterlimit="10.433"
     xml:space="preserve"
     transform="matrix(5.25,0,0,-5.25,-2778.6475,2351.5197)"
     id="g770"
     style="font-style:normal;font-variant:normal;font-weight:normal;font-stretch:normal;letter-spacing:normal;word-spacing:normal;text-anchor:start;fill:none;fill-opacity:1;fill-rule:evenodd;stroke:#000000;stroke-linecap:butt;stroke-linejoin:miter;stroke-miterlimit:10.43299961;stroke-dasharray:none;stroke-dashoffset:0;stroke-opacity:1">
<path
   id="path748"
   d="m 228.82,477.16 h -0.74 l -1.17,-1.96 c -0.92,-1.57 -1.01,-1.8 -1.06,-1.93 v 0.01 c 0,0.6 -0.19,1.73 -0.2,1.77 l -0.36,2.11 h -0.78 l 0.78,-4.41 h 0.87 z"
   inkscape:connector-curvature="0"
   style="fill:#ff0000;stroke:#ff0000;stroke-width:0" />
<path
   id="path750"
   d="m 235.4,475.04 h 2.78 c 0.14,0 0.33,0 0.33,0.19 0,0.2 -0.19,0.2 -0.33,0.2 h -2.78 v 2.79 c 0,0.14 0,0.32 -0.2,0.32 -0.2,0 -0.2,-0.18 -0.2,-0.32 v -2.79 h -2.79 c -0.14,0 -0.33,0 -0.33,-0.2 0,-0.19 0.19,-0.19 0.33,-0.19 H 235 v -2.78 c 0,-0.14 0,-0.33 0.2,-0.33 0.2,0 0.2,0.19 0.2,0.33 z"
   inkscape:connector-curvature="0"
   style="fill:#ff0000;stroke:#ff0000;stroke-width:0" />
<path
   id="path752"
   d="m 248.88,477.16 h -0.73 l -1.17,-2.28 c -0.27,-0.52 -0.62,-1.19 -0.74,-1.58 h -0.01 v 0.28 c 0,0.56 -0.04,0.99 -0.09,1.53 l -0.19,2.05 h -0.71 l -1.14,-2.2 c -0.28,-0.56 -0.57,-1.13 -0.73,-1.64 l -0.01,0.01 c 0.01,0.06 0.01,0.25 0.01,0.44 0,0.11 0,0.61 -0.08,1.5 l -0.17,1.89 h -0.76 l 0.43,-4.41 h 0.79 c 0.04,0.1 0.7,1.35 0.91,1.78 0.44,0.86 0.86,1.71 0.97,2.08 h 0.01 c 0,-0.02 -0.02,-0.21 -0.02,-0.42 0,-0.46 0.04,-1 0.08,-1.47 l 0.18,-1.97 h 0.87 z"
   inkscape:connector-curvature="0"
   style="fill:#ff0000;stroke:#ff0000;stroke-width:0" />
<path
   id="path754"
   d="m 258.79,476.03 h 0.03 0.03 0.02 0.02 0.01 0.02 l 0.01,0.01 h 0.02 0.01 0.01 l 0.02,0.01 h 0.01 0.01 l 0.02,0.01 0.01,0.01 h 0.01 l 0.01,0.01 0.01,0.01 h 0.01 l 0.01,0.01 v 0.01 l 0.01,0.01 v 0 l 0.01,0.01 v 0.01 0 0.01 l 0.01,0.01 v 0 0.01 0.01 0.01 0 l 0.01,0.01 v 0.01 0.01 0.01 c 0,0.2 -0.19,0.2 -0.33,0.2 h -5.98 c -0.14,0 -0.33,0 -0.33,-0.2 0,-0.2 0.19,-0.2 0.35,-0.2 z"
   inkscape:connector-curvature="0"
   style="fill:#ff0000;stroke:#ff0000;stroke-width:0" />
<path
   id="path756"
   d="m 258.8,474.04 h 0.01 0.01 0.03 0.03 l 0.01,0.01 h 0.02 0.01 0.02 0.01 0.01 l 0.02,0.01 h 0.01 0.01 l 0.01,0.01 h 0.02 l 0.01,0.01 h 0.01 l 0.01,0.01 0.01,0.01 0.01,0.01 0.01,0.01 v 0 l 0.01,0.01 v 0 0.01 h 0.01 v 0.01 0.01 0 l 0.01,0.01 v 0.01 0 0.01 0.01 0.01 l 0.01,0.01 v 0 0.01 0.01 c 0,0.2 -0.19,0.2 -0.34,0.2 h -5.95 c -0.16,0 -0.35,0 -0.35,-0.2 0,-0.2 0.19,-0.2 0.33,-0.2 z"
   inkscape:connector-curvature="0"
   style="fill:#ff0000;stroke:#ff0000;stroke-width:0" />
<polygon
   id="polygon758"
   points="265.49,486.65 267.57,486.65 267.57,487.2 264.95,487.2 264.95,463.37 267.57,463.37 267.57,463.91 265.49,463.91 "
   style="fill:#ff0000;stroke:#ff0000;stroke-width:0" />
<path
   id="path760"
   d="m 272.5,483.93 0.03,0.07 0.03,0.06 0.03,0.06 0.04,0.06 0.03,0.06 0.04,0.05 0.04,0.05 0.04,0.05 0.04,0.05 0.05,0.05 0.04,0.04 0.05,0.04 0.05,0.04 0.04,0.04 0.05,0.04 0.06,0.03 0.05,0.03 0.05,0.03 0.05,0.03 0.06,0.03 0.05,0.02 0.06,0.02 0.05,0.02 0.06,0.02 0.06,0.02 0.05,0.01 0.06,0.01 0.06,0.01 0.06,0.01 h 0.05 l 0.06,0.01 h 0.06 c 0.52,0 1,-0.3 1,-0.94 0,-0.6 -0.4,-1.19 -1.01,-1.33 -0.06,-0.01 -0.08,-0.01 -0.79,-0.07 v -0.6 h 0.71 c 1.08,0 1.3,-0.93 1.3,-1.42 0,-0.78 -0.46,-1.41 -1.23,-1.41 -0.69,0 -1.48,0.34 -1.92,1.02 l -0.11,-0.6 c 0.73,-0.93 1.65,-1.03 2.05,-1.03 1.22,0 2.09,0.96 2.09,2.01 0,0.9 -0.7,1.52 -1.37,1.73 0.75,0.4 1.1,1.08 1.1,1.7 0,0.86 -0.82,1.51 -1.81,1.51 -0.77,0 -1.5,-0.39 -1.92,-1.09 z"
   inkscape:connector-curvature="0"
   style="fill:#ff0000;stroke:#ff0000;stroke-width:0" />
<path
   id="path762"
   d="m 269.45,468.74 -1.24,-1.23 v -0.64 h 3.98 v 0.71 h -1.82 c -0.12,0 -0.24,-0.01 -0.35,-0.01 h -1.09 c 0.32,0.28 1.08,1.02 1.38,1.31 0.19,0.18 0.7,0.6 0.89,0.77 0.45,0.45 0.99,0.98 0.99,1.82 0,1.15 -0.81,2.14 -2.13,2.14 -1.13,0 -1.69,-0.78 -1.93,-1.63 0.12,-0.17 0.17,-0.23 0.19,-0.26 0.02,-0.02 0.12,-0.15 0.22,-0.29 0.2,0.77 0.48,1.54 1.38,1.54 0.94,0 1.45,-0.74 1.45,-1.52 0,-0.84 -0.57,-1.41 -1.16,-2 z"
   inkscape:connector-curvature="0"
   style="fill:#ff0000;stroke:#ff0000;stroke-width:0" />
<polygon
   id="polygon764"
   points="274.49,467.7 273.66,467.7 273.66,466.87 274.49,466.87 "
   style="fill:#ff0000;stroke:#ff0000;stroke-width:0" />
<path
   id="path766"
   d="m 276.99,472.76 h 2.62 v 0.63 h -3.34 v -3.66 h 0.66 c 0.17,0.39 0.53,0.78 1.11,0.78 0.47,0 1.01,-0.41 1.01,-1.6 0,-1.65 -1.22,-1.65 -1.31,-1.65 -0.66,0 -1.27,0.39 -1.56,0.92 l -0.33,-0.55 c 0.41,-0.57 1.1,-0.98 1.9,-0.98 1.19,0 2.19,0.99 2.19,2.24 0,1.24 -0.86,2.23 -1.89,2.23 -0.4,0 -0.78,-0.15 -1.06,-0.41 z"
   inkscape:connector-curvature="0"
   style="fill:#ff0000;stroke:#ff0000;stroke-width:0" />
<polygon
   id="polygon768"
   points="283.2,487.2 280.58,487.2 280.58,486.65 282.65,486.65 282.65,463.91 280.58,463.91 280.58,463.37 283.2,463.37 "
   style="fill:#ff0000;stroke:#ff0000;stroke-width:0" />
</g>  <g
     id="g1084"
     transform="matrix(5.0955083,0,0,-5.3488399,-2365.8523,2827.1844)"
     xml:space="preserve"
     stroke-miterlimit="10.433"
     font-style="normal"
     font-variant="normal"
     font-weight="normal"
     font-stretch="normal"
     font-size-adjust="none"
     letter-spacing="normal"
     word-spacing="normal"
     ns0:text="$x$"
     ns0:preamble="/home/francois/Documents/Mypapers/InkscapeHeader/header.inc"
     style="font-style:normal;font-variant:normal;font-weight:normal;font-stretch:normal;letter-spacing:normal;word-spacing:normal;text-anchor:start;fill:none;fill-opacity:1;fill-rule:evenodd;stroke:#000000;stroke-linecap:butt;stroke-linejoin:miter;stroke-miterlimit:10.43299961;stroke-dasharray:none;stroke-dashoffset:0;stroke-opacity:1">
<polygon
   style="fill:#000000;stroke-width:0"
   points="225.26,481.65 224.43,481.65 225.85,479.51 223.43,477.23 224.25,477.23 226.1,479.1 227.19,477.23 228.02,477.23 226.51,479.51 228.8,481.65 227.97,481.65 226.29,480.01 "
   id="polygon1082" />
</g>  <g
     ns0:preamble="/home/francois/Documents/Mypapers/InkscapeHeader/header.inc"
     ns0:text="\\color{green}{$2v=\\begin{bmatrix}4\\\\2\\end{bmatrix}$}"
     word-spacing="normal"
     letter-spacing="normal"
     font-size-adjust="none"
     font-stretch="normal"
     font-weight="normal"
     font-variant="normal"
     font-style="normal"
     stroke-miterlimit="10.433"
     xml:space="preserve"
     transform="matrix(5.25,0,0,-5.25,-2540.2098,2547.694)"
     id="g1388"
     style="font-style:normal;font-variant:normal;font-weight:normal;font-stretch:normal;letter-spacing:normal;word-spacing:normal;text-anchor:start;fill:none;fill-opacity:1;fill-rule:evenodd;stroke:#000000;stroke-linecap:butt;stroke-linejoin:miter;stroke-miterlimit:10.43299961;stroke-dasharray:none;stroke-dashoffset:0;stroke-opacity:1">
<path
   id="path1372"
   d="m 225.17,474.62 -1.24,-1.23 v -0.64 h 3.98 v 0.71 h -1.81 c -0.12,0 -0.25,-0.01 -0.36,-0.01 h -1.09 c 0.32,0.28 1.08,1.02 1.39,1.31 0.18,0.18 0.69,0.6 0.88,0.77 0.45,0.45 0.99,0.98 0.99,1.82 0,1.14 -0.81,2.14 -2.12,2.14 -1.14,0 -1.7,-0.78 -1.94,-1.63 0.12,-0.17 0.17,-0.23 0.19,-0.26 0.02,-0.02 0.12,-0.15 0.22,-0.29 0.2,0.77 0.48,1.54 1.39,1.54 0.93,0 1.44,-0.74 1.44,-1.52 0,-0.84 -0.57,-1.41 -1.16,-2 z"
   inkscape:connector-curvature="0"
   style="fill:#00ff00;stroke:#00ff00;stroke-width:0" />
<path
   id="path1374"
   d="m 233.8,477.16 h -0.74 l -1.17,-1.96 c -0.92,-1.57 -1,-1.8 -1.05,-1.93 l -0.01,0.01 c 0,0.6 -0.19,1.73 -0.2,1.77 l -0.36,2.11 h -0.78 l 0.78,-4.41 h 0.88 z"
   inkscape:connector-curvature="0"
   style="fill:#00ff00;stroke:#00ff00;stroke-width:0" />
<path
   id="path1376"
   d="m 243.71,476.03 h 0.02 0.03 0.03 0.02 0.01 0.02 l 0.01,0.01 h 0.01 0.02 0.01 l 0.01,0.01 h 0.02 0.01 l 0.01,0.01 0.01,0.01 h 0.02 l 0.01,0.01 0.01,0.01 H 244 v 0.01 l 0.01,0.01 0.01,0.01 v 0 0.01 l 0.01,0.01 v 0 0.01 0.01 h 0.01 v 0.01 0.01 0.01 0 0.01 0.01 0.01 0.01 c 0,0.2 -0.19,0.2 -0.33,0.2 h -5.97 c -0.14,0 -0.33,0 -0.33,-0.2 0,-0.2 0.19,-0.2 0.34,-0.2 z"
   inkscape:connector-curvature="0"
   style="fill:#00ff00;stroke:#00ff00;stroke-width:0" />
<path
   id="path1378"
   d="m 243.71,474.04 h 0.02 0.01 0.03 0.03 l 0.01,0.01 h 0.02 0.01 0.01 0.02 0.01 l 0.01,0.01 h 0.02 0.01 l 0.01,0.01 h 0.01 l 0.02,0.01 h 0.01 l 0.01,0.01 0.01,0.01 0.01,0.01 v 0.01 h 0.01 v 0.01 h 0.01 v 0.01 0 l 0.01,0.01 v 0.01 0 0.01 l 0.01,0.01 v 0 0.01 0.01 0.01 0.01 0 0.01 0.01 c 0,0.2 -0.19,0.2 -0.33,0.2 h -5.96 c -0.15,0 -0.34,0 -0.34,-0.2 0,-0.2 0.19,-0.2 0.33,-0.2 z"
   inkscape:connector-curvature="0"
   style="fill:#00ff00;stroke:#00ff00;stroke-width:0" />
<polygon
   id="polygon1380"
   points="252.49,487.2 249.86,487.2 249.86,463.37 252.49,463.37 252.49,463.91 250.41,463.91 250.41,486.65 252.49,486.65 "
   style="fill:#00ff00;stroke:#00ff00;stroke-width:0" />
<path
   id="path1382"
   d="m 256.34,480.53 h 0.99 v 0.6 h -0.99 v 4.22 h -0.91 l 0.18,-0.44 v -3.78 h -1.93 c 0.52,0.86 1.93,3.21 1.93,3.78 l -0.18,0.44 -2.52,-4.22 v -0.6 h 2.64 v -1.7 h 0.79 z"
   inkscape:connector-curvature="0"
   style="fill:#00ff00;stroke:#00ff00;stroke-width:0" />
<path
   id="path1384"
   d="m 254.36,468.74 -1.23,-1.23 v -0.64 h 3.98 v 0.71 h -1.82 c -0.12,0 -0.24,-0.01 -0.36,-0.01 h -1.08 c 0.31,0.28 1.07,1.02 1.38,1.31 0.19,0.18 0.7,0.6 0.89,0.77 0.45,0.45 0.99,0.98 0.99,1.82 0,1.15 -0.81,2.14 -2.13,2.14 -1.13,0 -1.69,-0.78 -1.93,-1.63 0.12,-0.17 0.17,-0.23 0.19,-0.26 0.02,-0.02 0.12,-0.15 0.22,-0.29 0.19,0.77 0.47,1.54 1.38,1.54 0.94,0 1.45,-0.74 1.45,-1.52 0,-0.84 -0.57,-1.41 -1.16,-2 z"
   inkscape:connector-curvature="0"
   style="fill:#00ff00;stroke:#00ff00;stroke-width:0" />
<polygon
   id="polygon1386"
   points="257.75,486.65 259.82,486.65 259.82,463.91 257.75,463.91 257.75,463.37 260.37,463.37 260.37,487.2 257.75,487.2 "
   style="fill:#00ff00;stroke:#00ff00;stroke-width:0" />
</g>  <g
     style="font-style:normal;font-variant:normal;font-weight:normal;font-stretch:normal;letter-spacing:normal;word-spacing:normal;text-anchor:start;fill:none;fill-opacity:1;fill-rule:evenodd;stroke:#000000;stroke-linecap:butt;stroke-linejoin:miter;stroke-miterlimit:10.43299961;stroke-dasharray:none;stroke-dashoffset:0;stroke-opacity:1"
     id="g1606"
     transform="matrix(5.25,0,0,-5.25,-2754.7825,2675.3497)"
     xml:space="preserve"
     stroke-miterlimit="10.433"
     font-style="normal"
     font-variant="normal"
     font-weight="normal"
     font-stretch="normal"
     font-size-adjust="none"
     letter-spacing="normal"
     word-spacing="normal"
     ns0:text="$v = \\begin{bmatrix}2\\\\1\\end{bmatrix}$"
     ns0:preamble="/home/francois/Documents/Mypapers/InkscapeHeader/header.inc">
<path
   style="fill:#000000;stroke-width:0"
   inkscape:connector-curvature="0"
   d="m 228.82,477.16 h -0.74 l -1.17,-1.96 c -0.92,-1.57 -1.01,-1.8 -1.06,-1.93 v 0.01 c 0,0.6 -0.19,1.73 -0.2,1.77 l -0.36,2.11 h -0.78 l 0.78,-4.41 h 0.87 z"
   id="path1592" />
<path
   style="fill:#000000;stroke-width:0"
   inkscape:connector-curvature="0"
   d="m 238.72,476.03 h 0.03 0.03 0.03 0.02 0.01 0.01 l 0.02,0.01 h 0.01 0.02 0.01 l 0.01,0.01 h 0.02 0.01 l 0.01,0.01 0.01,0.01 h 0.01 l 0.02,0.01 0.01,0.01 v 0 l 0.01,0.01 0.01,0.01 v 0.01 h 0.01 v 0.01 0.01 h 0.01 v 0.01 0.01 0 l 0.01,0.01 v 0.01 0.01 0 0.01 0.01 0.01 0.01 c 0,0.2 -0.19,0.2 -0.33,0.2 h -5.97 c -0.14,0 -0.33,0 -0.33,-0.2 0,-0.2 0.19,-0.2 0.34,-0.2 z"
   id="path1594" />
<path
   style="fill:#000000;stroke-width:0"
   inkscape:connector-curvature="0"
   d="m 238.73,474.04 h 0.02 0.01 0.03 0.03 l 0.01,0.01 h 0.01 0.02 0.01 0.02 0.01 l 0.01,0.01 h 0.02 0.01 l 0.01,0.01 h 0.01 l 0.01,0.01 h 0.02 l 0.01,0.01 0.01,0.01 v 0.01 l 0.01,0.01 h 0.01 v 0.01 0 l 0.01,0.01 v 0 0.01 l 0.01,0.01 v 0 0.01 0.01 h 0.01 v 0.01 0.01 0.01 0.01 0 0.01 0.01 c 0,0.2 -0.19,0.2 -0.34,0.2 h -5.95 c -0.15,0 -0.34,0 -0.34,-0.2 0,-0.2 0.19,-0.2 0.33,-0.2 z"
   id="path1596" />
<polygon
   style="fill:#000000;stroke-width:0"
   points="247.51,463.91 245.43,463.91 245.43,486.65 247.51,486.65 247.51,487.2 244.88,487.2 244.88,463.37 247.51,463.37 "
   id="polygon1598" />
<path
   style="fill:#000000;stroke-width:0"
   inkscape:connector-curvature="0"
   d="m 249.38,480.7 -1.23,-1.24 v -0.63 h 3.97 v 0.7 h -1.81 c -0.12,0 -0.24,-0.01 -0.36,-0.01 h -1.09 c 0.32,0.28 1.08,1.03 1.39,1.32 0.19,0.17 0.7,0.59 0.89,0.77 0.45,0.45 0.98,0.97 0.98,1.82 0,1.14 -0.8,2.13 -2.12,2.13 -1.14,0 -1.7,-0.77 -1.93,-1.63 0.11,-0.16 0.17,-0.22 0.19,-0.25 0.01,-0.02 0.12,-0.15 0.22,-0.29 0.19,0.76 0.47,1.54 1.38,1.54 0.94,0 1.45,-0.75 1.45,-1.52 0,-0.85 -0.57,-1.41 -1.16,-2.01 z"
   id="path1600" />
<path
   style="fill:#000000;stroke-width:0"
   inkscape:connector-curvature="0"
   d="m 250.63,473.61 h -0.2 c -0.59,-0.61 -1.42,-0.64 -1.9,-0.66 v -0.57 c 0.33,0.01 0.81,0.03 1.31,0.24 v -5.17 h -1.25 v -0.58 h 3.29 v 0.58 h -1.25 z"
   id="path1602" />
<polygon
   style="fill:#000000;stroke-width:0"
   points="252.77,463.37 255.39,463.37 255.39,487.2 252.77,487.2 252.77,486.65 254.84,486.65 254.84,463.91 252.77,463.91 "
   id="polygon1604" />
</g>  <g
     ns0:preamble="/home/francois/Documents/Mypapers/InkscapeHeader/header.inc"
     ns0:text="$w = \\begin{bmatrix}1\\\\1.5\\end{bmatrix}$"
     word-spacing="normal"
     letter-spacing="normal"
     font-size-adjust="none"
     font-stretch="normal"
     font-weight="normal"
     font-variant="normal"
     font-style="normal"
     stroke-miterlimit="10.433"
     xml:space="preserve"
     transform="matrix(5.25,0,0,-5.25,-3046.4375,2485.3497)"
     id="g1770"
     style="font-style:normal;font-variant:normal;font-weight:normal;font-stretch:normal;letter-spacing:normal;word-spacing:normal;text-anchor:start;fill:none;fill-opacity:1;fill-rule:evenodd;stroke:#000000;stroke-linecap:butt;stroke-linejoin:miter;stroke-miterlimit:10.43299961;stroke-dasharray:none;stroke-dashoffset:0;stroke-opacity:1">
<path
   id="path1752"
   d="m 231.03,477.16 h -0.73 l -1.17,-2.28 c -0.27,-0.52 -0.62,-1.19 -0.74,-1.58 h -0.01 v 0.28 c 0,0.56 -0.04,0.99 -0.09,1.53 l -0.19,2.05 h -0.71 l -1.14,-2.2 c -0.29,-0.56 -0.57,-1.13 -0.73,-1.64 l -0.01,0.01 c 0.01,0.06 0.01,0.25 0.01,0.44 0,0.11 0,0.61 -0.08,1.5 l -0.17,1.89 h -0.76 l 0.43,-4.41 h 0.79 c 0.04,0.1 0.7,1.35 0.91,1.78 0.44,0.86 0.86,1.71 0.97,2.08 h 0.01 c 0,-0.02 -0.02,-0.21 -0.02,-0.42 0,-0.46 0.04,-1 0.08,-1.47 l 0.18,-1.97 h 0.87 z"
   inkscape:connector-curvature="0"
   style="fill:#000000;stroke-width:0" />
<path
   id="path1754"
   d="m 240.94,476.03 h 0.03 0.03 0.02 0.02 0.01 0.02 l 0.01,0.01 h 0.02 0.01 0.01 l 0.02,0.01 h 0.01 0.01 l 0.02,0.01 0.01,0.01 h 0.01 l 0.01,0.01 0.01,0.01 h 0.01 l 0.01,0.01 v 0.01 l 0.01,0.01 v 0 l 0.01,0.01 v 0.01 0 0.01 l 0.01,0.01 v 0 0.01 0.01 0.01 0 l 0.01,0.01 v 0.01 0.01 0.01 c 0,0.2 -0.19,0.2 -0.33,0.2 h -5.98 c -0.13,0 -0.32,0 -0.32,-0.2 0,-0.2 0.19,-0.2 0.34,-0.2 z"
   inkscape:connector-curvature="0"
   style="fill:#000000;stroke-width:0" />
<path
   id="path1756"
   d="m 240.95,474.04 h 0.01 0.01 0.03 0.03 l 0.01,0.01 h 0.02 0.01 0.02 0.01 0.01 l 0.02,0.01 h 0.01 0.01 l 0.01,0.01 h 0.02 l 0.01,0.01 h 0.01 l 0.01,0.01 0.01,0.01 0.01,0.01 0.01,0.01 v 0 l 0.01,0.01 v 0 0.01 h 0.01 v 0.01 0.01 0 l 0.01,0.01 v 0.01 0 0.01 0.01 0.01 l 0.01,0.01 v 0 0.01 0.01 c 0,0.2 -0.19,0.2 -0.34,0.2 h -5.95 c -0.15,0 -0.34,0 -0.34,-0.2 0,-0.2 0.19,-0.2 0.32,-0.2 z"
   inkscape:connector-curvature="0"
   style="fill:#000000;stroke-width:0" />
<polygon
   id="polygon1758"
   points="249.72,463.91 247.65,463.91 247.65,486.65 249.72,486.65 249.72,487.2 247.1,487.2 247.1,463.37 249.72,463.37 "
   style="fill:#000000;stroke-width:0" />
<path
   id="path1760"
   d="m 256.72,485.56 h -0.2 c -0.59,-0.6 -1.42,-0.63 -1.9,-0.65 v -0.58 c 0.33,0.01 0.81,0.03 1.31,0.24 v -5.17 h -1.25 v -0.57 h 3.28 v 0.57 h -1.24 z"
   inkscape:connector-curvature="0"
   style="fill:#000000;stroke-width:0" />
<path
   id="path1762"
   d="m 252.84,473.61 h -0.2 c -0.59,-0.61 -1.41,-0.64 -1.89,-0.66 v -0.57 c 0.33,0.01 0.81,0.03 1.3,0.24 v -5.17 h -1.24 v -0.58 h 3.28 v 0.58 h -1.25 z"
   inkscape:connector-curvature="0"
   style="fill:#000000;stroke-width:0" />
<polygon
   id="polygon1764"
   points="255.81,466.87 256.64,466.87 256.64,467.7 255.81,467.7 "
   style="fill:#000000;stroke-width:0" />
<path
   id="path1766"
   d="m 259.14,472.76 h 2.62 v 0.63 h -3.34 v -3.66 h 0.66 c 0.16,0.39 0.53,0.78 1.11,0.78 0.47,0 1.01,-0.41 1.01,-1.6 0,-1.65 -1.22,-1.65 -1.31,-1.65 -0.66,0 -1.27,0.39 -1.56,0.92 L 258,467.63 c 0.41,-0.57 1.1,-0.98 1.9,-0.98 1.19,0 2.19,0.99 2.19,2.24 0,1.24 -0.86,2.23 -1.89,2.23 -0.4,0 -0.78,-0.15 -1.06,-0.41 z"
   inkscape:connector-curvature="0"
   style="fill:#000000;stroke-width:0" />
<polygon
   id="polygon1768"
   points="262.73,463.37 265.35,463.37 265.35,487.2 262.73,487.2 262.73,486.65 264.8,486.65 264.8,463.91 262.73,463.91 "
   style="fill:#000000;stroke-width:0" />
</g></svg>
